%TF.GenerationSoftware,KiCad,Pcbnew,9.0.4-9.0.4-0~ubuntu24.04.1*%
%TF.CreationDate,2025-09-25T01:17:13+02:00*%
%TF.ProjectId,OrangePie,4f72616e-6765-4506-9965-2e6b69636164,2.0.0*%
%TF.SameCoordinates,Original*%
%TF.FileFunction,Copper,L3,Inr*%
%TF.FilePolarity,Positive*%
%FSLAX46Y46*%
G04 Gerber Fmt 4.6, Leading zero omitted, Abs format (unit mm)*
G04 Created by KiCad (PCBNEW 9.0.4-9.0.4-0~ubuntu24.04.1) date 2025-09-25 01:17:13*
%MOMM*%
%LPD*%
G01*
G04 APERTURE LIST*
G04 Aperture macros list*
%AMRoundRect*
0 Rectangle with rounded corners*
0 $1 Rounding radius*
0 $2 $3 $4 $5 $6 $7 $8 $9 X,Y pos of 4 corners*
0 Add a 4 corners polygon primitive as box body*
4,1,4,$2,$3,$4,$5,$6,$7,$8,$9,$2,$3,0*
0 Add four circle primitives for the rounded corners*
1,1,$1+$1,$2,$3*
1,1,$1+$1,$4,$5*
1,1,$1+$1,$6,$7*
1,1,$1+$1,$8,$9*
0 Add four rect primitives between the rounded corners*
20,1,$1+$1,$2,$3,$4,$5,0*
20,1,$1+$1,$4,$5,$6,$7,0*
20,1,$1+$1,$6,$7,$8,$9,0*
20,1,$1+$1,$8,$9,$2,$3,0*%
%AMRotRect*
0 Rectangle, with rotation*
0 The origin of the aperture is its center*
0 $1 length*
0 $2 width*
0 $3 Rotation angle, in degrees counterclockwise*
0 Add horizontal line*
21,1,$1,$2,0,0,$3*%
G04 Aperture macros list end*
%TA.AperFunction,ComponentPad*%
%ADD10C,1.300000*%
%TD*%
%TA.AperFunction,ComponentPad*%
%ADD11C,2.286000*%
%TD*%
%TA.AperFunction,ComponentPad*%
%ADD12RoundRect,0.250000X-0.750000X0.600000X-0.750000X-0.600000X0.750000X-0.600000X0.750000X0.600000X0*%
%TD*%
%TA.AperFunction,ComponentPad*%
%ADD13O,2.000000X1.700000*%
%TD*%
%TA.AperFunction,ComponentPad*%
%ADD14C,1.600000*%
%TD*%
%TA.AperFunction,ComponentPad*%
%ADD15R,1.560000X1.560000*%
%TD*%
%TA.AperFunction,ComponentPad*%
%ADD16C,1.560000*%
%TD*%
%TA.AperFunction,ComponentPad*%
%ADD17RoundRect,0.250000X0.750000X-0.600000X0.750000X0.600000X-0.750000X0.600000X-0.750000X-0.600000X0*%
%TD*%
%TA.AperFunction,ComponentPad*%
%ADD18O,1.000000X2.100000*%
%TD*%
%TA.AperFunction,ComponentPad*%
%ADD19O,1.000000X1.800000*%
%TD*%
%TA.AperFunction,ComponentPad*%
%ADD20RoundRect,0.249999X0.525001X0.525001X-0.525001X0.525001X-0.525001X-0.525001X0.525001X-0.525001X0*%
%TD*%
%TA.AperFunction,ComponentPad*%
%ADD21C,1.550000*%
%TD*%
%TA.AperFunction,ComponentPad*%
%ADD22RotRect,1.000000X1.000000X315.000000*%
%TD*%
%TA.AperFunction,ComponentPad*%
%ADD23C,1.000000*%
%TD*%
%TA.AperFunction,ComponentPad*%
%ADD24O,1.700000X1.700000*%
%TD*%
%TA.AperFunction,ComponentPad*%
%ADD25R,1.700000X1.700000*%
%TD*%
%TA.AperFunction,ViaPad*%
%ADD26C,0.500000*%
%TD*%
G04 APERTURE END LIST*
D10*
%TO.N,GND*%
%TO.C,BTN1*%
X99458401Y-41815997D03*
X97828401Y-41815997D03*
%TO.N,Net-(BTN1-Pad3)*%
X96088401Y-41815997D03*
%TO.N,Net-(BTN1-Pad4)*%
X94458401Y-41815997D03*
D11*
%TO.N,N/C*%
X100458401Y-44065997D03*
X93458401Y-44065997D03*
%TD*%
D12*
%TO.N,Net-(J3-Pin_1)*%
%TO.C,J3*%
X98775000Y-74750000D03*
D13*
%TO.N,Net-(J3-Pin_2)*%
X98775000Y-77250000D03*
%TD*%
D14*
%TO.N,/OrangePi 5 pro Header/STATUS LED*%
%TO.C,LED1*%
X103242001Y-43025997D03*
%TO.N,Net-(LED1-Pad2)*%
X105782001Y-43025997D03*
%TO.N,+3V3*%
X103242001Y-45565997D03*
%TO.N,Net-(LED1-Pad4)*%
X105782001Y-45565997D03*
%TD*%
D15*
%TO.N,Net-(U8-V)*%
%TO.C,RV1*%
X109950000Y-67700000D03*
D16*
X107450000Y-62700000D03*
%TO.N,GND*%
X104950000Y-67700000D03*
%TD*%
D17*
%TO.N,Net-(M1-+)*%
%TO.C,M1*%
X60525000Y-121000000D03*
D13*
%TO.N,Net-(M1--)*%
X60525000Y-118500000D03*
%TD*%
D18*
%TO.N,Net-(J5-SHIELD)*%
%TO.C,J5*%
X117698401Y-45380997D03*
D19*
X117698401Y-41200997D03*
D18*
X109058401Y-45380997D03*
D19*
X109058401Y-41200997D03*
%TD*%
D20*
%TO.N,GND*%
%TO.C,J1*%
X120070000Y-133204999D03*
D21*
%TO.N,unconnected-(J1-Pada2)*%
X117530000Y-133204999D03*
%TO.N,/DIN41612 connector/5v_STDBY*%
X114990000Y-133204999D03*
%TO.N,GND*%
X112450000Y-133204999D03*
%TO.N,/Can Transiver/CAN_TR_OUT.C+*%
X109910000Y-133204999D03*
%TO.N,/Can Transiver/CAN_TR_OUT.C-*%
X107370000Y-133204999D03*
%TO.N,GND*%
X104830000Y-133204999D03*
%TO.N,/Can Transiver1/CAN_TR_OUT.C+*%
X102290000Y-133204999D03*
%TO.N,/Can Transiver1/CAN_TR_OUT.C-*%
X99750000Y-133204999D03*
%TO.N,GND*%
X97210000Y-133204999D03*
%TO.N,/5v buck/V_{IN}*%
X94670000Y-133204999D03*
X92130000Y-133204999D03*
%TO.N,GND*%
X89590000Y-133204999D03*
%TO.N,/DIN41612 connector/24v*%
X87050000Y-133204999D03*
%TO.N,GND*%
X84510000Y-133204999D03*
%TO.N,/DIN41612 connector/GPIOL0*%
X81970000Y-133204999D03*
%TO.N,/DIN41612 connector/GPIOL1*%
X79430000Y-133204999D03*
%TO.N,/DIN41612 connector/GPIOL2*%
X76890000Y-133204999D03*
%TO.N,/DIN41612 connector/GPIOL3*%
X74350000Y-133204999D03*
%TO.N,/DIN41612 connector/GPIOL4*%
X71810000Y-133204999D03*
%TO.N,/DIN41612 connector/GPIOL5*%
X69270000Y-133204999D03*
%TO.N,/DIN41612 connector/GPIOL6*%
X66730000Y-133204999D03*
%TO.N,/DIN41612 connector/GPIOL7*%
X64190000Y-133204999D03*
%TO.N,/DIN41612 connector/GPIOL8*%
X61650000Y-133204999D03*
%TO.N,/DIN41612 connector/GPIOL9*%
X59110000Y-133204999D03*
%TO.N,/DIN41612 connector/GPIOL10*%
X56570000Y-133204999D03*
%TO.N,/DIN41612 connector/GPIOL11*%
X54030000Y-133204999D03*
%TO.N,/DIN41612 connector/GPIOL12*%
X51490000Y-133204999D03*
%TO.N,/DIN41612 connector/GPIOL13*%
X48950000Y-133204999D03*
%TO.N,/DIN41612 connector/GPIOL14*%
X46410000Y-133204999D03*
%TO.N,/DIN41612 connector/GPIOL15*%
X43870000Y-133204999D03*
%TO.N,GND*%
X41330000Y-133204999D03*
X120070000Y-130664999D03*
X117530000Y-130664999D03*
%TO.N,/DIN41612 connector/5v_STDBY*%
X114990000Y-130664999D03*
%TO.N,GND*%
X112450000Y-130664999D03*
%TO.N,/Can Transiver/CAN_TR_OUT.C+*%
X109910000Y-130664999D03*
%TO.N,/Can Transiver/CAN_TR_OUT.C-*%
X107370000Y-130664999D03*
%TO.N,GND*%
X104830000Y-130664999D03*
%TO.N,/Can Transiver1/CAN_TR_OUT.C+*%
X102290000Y-130664999D03*
%TO.N,/Can Transiver1/CAN_TR_OUT.C-*%
X99750000Y-130664999D03*
%TO.N,GND*%
X97210000Y-130664999D03*
%TO.N,/5v buck/V_{IN}*%
X94670000Y-130664999D03*
X92130000Y-130664999D03*
%TO.N,GND*%
X89590000Y-130664999D03*
%TO.N,/DIN41612 connector/24v*%
X87050000Y-130664999D03*
%TO.N,GND*%
X84510000Y-130664999D03*
%TO.N,/DIN41612 connector/GPIOC0*%
X81970000Y-130664999D03*
%TO.N,/DIN41612 connector/GPIOC1*%
X79430000Y-130664999D03*
%TO.N,/DIN41612 connector/GPIOC2*%
X76890000Y-130664999D03*
%TO.N,/DIN41612 connector/GPIOC3*%
X74350000Y-130664999D03*
%TO.N,/DIN41612 connector/GPIOC4*%
X71810000Y-130664999D03*
%TO.N,/DIN41612 connector/GPIOC5*%
X69270000Y-130664999D03*
%TO.N,/DIN41612 connector/GPIOC6*%
X66730000Y-130664999D03*
%TO.N,/DIN41612 connector/GPIOC7*%
X64190000Y-130664999D03*
%TO.N,/DIN41612 connector/GPIOC8*%
X61650000Y-130664999D03*
%TO.N,/DIN41612 connector/GPIOC9*%
X59110000Y-130664999D03*
%TO.N,/DIN41612 connector/GPIOC10*%
X56570000Y-130664999D03*
%TO.N,/DIN41612 connector/GPIOC11*%
X54030000Y-130664999D03*
%TO.N,/DIN41612 connector/GPIOC12*%
X51490000Y-130664999D03*
%TO.N,/DIN41612 connector/GPIOC13*%
X48950000Y-130664999D03*
%TO.N,/DIN41612 connector/GPIOC14*%
X46410000Y-130664999D03*
%TO.N,/DIN41612 connector/GPIOC15*%
X43870000Y-130664999D03*
%TO.N,GND*%
X41330000Y-130664999D03*
X120070000Y-128124999D03*
%TO.N,unconnected-(J1-Padc2)*%
X117530000Y-128124999D03*
%TO.N,/DIN41612 connector/5v_STDBY*%
X114990000Y-128124999D03*
%TO.N,GND*%
X112450000Y-128124999D03*
%TO.N,/Can Transiver/CAN_TR_OUT.C+*%
X109910000Y-128124999D03*
%TO.N,/Can Transiver/CAN_TR_OUT.C-*%
X107370000Y-128124999D03*
%TO.N,GND*%
X104830000Y-128124999D03*
%TO.N,/Can Transiver1/CAN_TR_OUT.C+*%
X102290000Y-128124999D03*
%TO.N,/Can Transiver1/CAN_TR_OUT.C-*%
X99750000Y-128124999D03*
%TO.N,GND*%
X97210000Y-128124999D03*
%TO.N,/5v buck/V_{IN}*%
X94670000Y-128124999D03*
X92130000Y-128124999D03*
%TO.N,GND*%
X89590000Y-128124999D03*
%TO.N,/DIN41612 connector/24v*%
X87050000Y-128124999D03*
%TO.N,GND*%
X84510000Y-128124999D03*
%TO.N,/DIN41612 connector/GPIOR0*%
X81970000Y-128124999D03*
%TO.N,/DIN41612 connector/GPIOR1*%
X79430000Y-128124999D03*
%TO.N,/DIN41612 connector/GPIOR2*%
X76890000Y-128124999D03*
%TO.N,/DIN41612 connector/GPIOR3*%
X74350000Y-128124999D03*
%TO.N,/DIN41612 connector/GPIOR4*%
X71810000Y-128124999D03*
%TO.N,/DIN41612 connector/GPIOR5*%
X69270000Y-128124999D03*
%TO.N,/DIN41612 connector/GPIOR6*%
X66730000Y-128124999D03*
%TO.N,/DIN41612 connector/GPIOR7*%
X64190000Y-128124999D03*
%TO.N,/DIN41612 connector/GPIOR8*%
X61650000Y-128124999D03*
%TO.N,/DIN41612 connector/GPIOR9*%
X59110000Y-128124999D03*
%TO.N,/DIN41612 connector/GPIOR10*%
X56570000Y-128124999D03*
%TO.N,/DIN41612 connector/GPIOR11*%
X54030000Y-128124999D03*
%TO.N,/DIN41612 connector/GPIOR12*%
X51490000Y-128124999D03*
%TO.N,/DIN41612 connector/GPIOR13*%
X48950000Y-128124999D03*
%TO.N,/DIN41612 connector/USB_DEBUG.D-*%
X46410000Y-128124999D03*
%TO.N,/DIN41612 connector/USB_DEBUG.D+*%
X43870000Y-128124999D03*
%TO.N,GND*%
X41330000Y-128124999D03*
%TD*%
D22*
%TO.N,+3V3*%
%TO.C,J4*%
X112145923Y-90704077D03*
D23*
%TO.N,/USB-CAN/SWDIO1*%
X113043949Y-89806051D03*
%TO.N,/USB-CAN/SWCLK1*%
X113941974Y-88908026D03*
%TO.N,/USB-CAN/NRST*%
X114840000Y-88010000D03*
%TO.N,GND*%
X115738025Y-87111975D03*
%TO.N,unconnected-(J4-Pin_6-Pad6)*%
X116636051Y-86213949D03*
%TD*%
D24*
%TO.N,+5V*%
%TO.C,J2*%
X89672806Y-117833501D03*
X89672806Y-115293501D03*
%TO.N,GND*%
X89672806Y-112753501D03*
%TO.N,/CH340_DEBUG/UART_DEBUG.TX*%
X89672806Y-110213501D03*
%TO.N,/CH340_DEBUG/UART_DEBUG.RX*%
X89672806Y-107673501D03*
%TO.N,/FAN controller/FAN_PWM*%
X89672806Y-105133501D03*
%TO.N,GND*%
X89672806Y-102593501D03*
%TO.N,unconnected-(J2-GPIO1_A1{slash}UART6_TX{slash}SPI4_MOSI-Pad8)*%
X89672806Y-100053501D03*
%TO.N,/CAN pwr sw/CAN_POWER_ON*%
X89672806Y-97513501D03*
%TO.N,GND*%
X89672806Y-94973501D03*
%TO.N,/OrangePi 5 pro Header/STATUS LED*%
X89672806Y-92433501D03*
%TO.N,unconnected-(J2-GPIO1_B4{slash}SPI0_CS0{slash}UART7_RX-Pad12)*%
X89672806Y-89893501D03*
%TO.N,unconnected-(J2-GPIO1_B5{slash}SPI0_CS1{slash}UART7_TX-Pad13)*%
X89703931Y-87304492D03*
%TO.N,/Audio Codec/DAC reset*%
X89672806Y-84813501D03*
%TO.N,GND*%
X89672806Y-82273501D03*
%TO.N,unconnected-(J2-GPIO1_D6{slash}PWM14{slash}I2C8_SCL-Pad16)*%
X89672806Y-79733501D03*
%TO.N,GND*%
X89672806Y-77193501D03*
%TO.N,unconnected-(J2-GPIO4_A3{slash}UART0_TX-Pad18)*%
X89672806Y-74653501D03*
%TO.N,unconnected-(J2-GPIO4_A4{slash}UART0_RX-Pad19)*%
X89672806Y-72113501D03*
%TO.N,unconnected-(J2-GPIO4_A5{slash}UART3_TX-Pad20)*%
X89672806Y-69573501D03*
%TO.N,GND*%
X87132806Y-69573501D03*
%TO.N,Net-(J2-GPIO4_A6{slash}UART3_RX{slash}I2C5_SCL)*%
X87132806Y-72113501D03*
%TO.N,/OrangePi 5 pro Header/USER LED 2*%
X87132806Y-74653501D03*
%TO.N,/OrangePi 5 pro Header/USER LED 1*%
X87132806Y-77193501D03*
%TO.N,/OrangePi 5 pro Header/USER BUTTON*%
X87132806Y-79733501D03*
%TO.N,/OrangePi 5 pro Header/ON OFF BTN*%
X87132806Y-82273501D03*
%TO.N,/USB-CAN/NRST*%
X87132806Y-84813501D03*
%TO.N,GND*%
X87163931Y-87304492D03*
%TO.N,unconnected-(J2-GPIO1_B3{slash}UART4_TX{slash}SPIO_CLK-Pad29)*%
X87132806Y-89893501D03*
%TO.N,unconnected-(J2-GPIO1_B1{slash}SPI0_MISO-Pad30)*%
X87132806Y-92433501D03*
%TO.N,unconnected-(J2-GPIO1_B2{slash}UART4_RX{slash}SPI0_MOSI-Pad31)*%
X87132806Y-94973501D03*
%TO.N,unconnected-(J2-3V3-Pad32)*%
X87132806Y-97513501D03*
%TO.N,unconnected-(J2-GPIO1_B6{slash}UART1_TX{slash}I2C5_SCL-Pad33)*%
X87132806Y-100053501D03*
%TO.N,/Can Transiver/CAN_TR.TXD*%
X87132806Y-102593501D03*
%TO.N,/Can Transiver/CAN_TR.RXD*%
X87132806Y-105133501D03*
%TO.N,GND*%
X87132806Y-107673501D03*
%TO.N,unconnected-(J2-GPIO1_B7{slash}UART1_RX{slash}I2C5_SDA{slash}PWM13-Pad37)*%
X87132806Y-110213501D03*
%TO.N,unconnected-(J2-GPIO1_D2{slash}UART4_TX{slash}I2C1_SCL-Pad38)*%
X87132806Y-112753501D03*
%TO.N,unconnected-(J2-GPIO1_D3{slash}UART4_RX{slash}I2C1_SDA-Pad39)*%
X87132806Y-115293501D03*
D25*
%TO.N,unconnected-(J2-3V3-Pad40)*%
X87132806Y-117833501D03*
D24*
%TO.N,GND*%
X87612806Y-60293501D03*
X85072806Y-60293501D03*
%TO.N,/OrangePi 5 pro Header/USB_SBCF.D+*%
X82532806Y-60293501D03*
%TO.N,/OrangePi 5 pro Header/USB_SBCF.D-*%
X79992806Y-60293501D03*
%TO.N,unconnected-(J2-USB_5V-Pad45)*%
X77452806Y-60293501D03*
%TO.N,unconnected-(J2-USB_5V-Pad46)*%
X77452806Y-57753501D03*
%TO.N,/OrangePi 5 pro Header/USB_OUT.D-*%
X79992806Y-57753501D03*
%TO.N,/OrangePi 5 pro Header/USB_OUT.D+*%
X82532806Y-57753501D03*
%TO.N,GND*%
X85072806Y-57753501D03*
%TO.N,N/C*%
X87612806Y-57753501D03*
%TD*%
D26*
%TO.N,GND*%
X117150000Y-102030000D03*
X125210000Y-104530000D03*
X127284780Y-66241977D03*
X105000000Y-101300000D03*
X96000000Y-103000000D03*
X113250000Y-71790000D03*
X108600000Y-49200000D03*
X102300000Y-61185494D03*
X122745000Y-60195000D03*
X109200000Y-107800000D03*
X91824173Y-63840827D03*
X113498685Y-77596068D03*
X96424173Y-67040827D03*
X121000000Y-41600000D03*
X127284780Y-71870988D03*
X97600000Y-46900000D03*
X110758695Y-57798459D03*
X106500000Y-83200000D03*
X115250000Y-65890000D03*
X92624173Y-65040827D03*
X91824173Y-62840827D03*
X123650000Y-88275000D03*
X101400000Y-108000000D03*
X102300000Y-64000000D03*
X95500000Y-46900000D03*
X116600000Y-51200000D03*
X111750000Y-71000000D03*
X110000000Y-84200000D03*
X102300000Y-121700000D03*
X53575000Y-116900000D03*
X110200000Y-47000000D03*
X121000000Y-40600000D03*
X107800000Y-109200000D03*
X108600000Y-107800000D03*
X112575000Y-104123988D03*
X105270868Y-77596068D03*
X112250000Y-72750000D03*
X113513043Y-57798459D03*
X106500000Y-73375000D03*
X103000000Y-103400000D03*
X116241291Y-77596068D03*
X120577500Y-97690000D03*
X96900000Y-124200000D03*
X115400000Y-81900000D03*
X127284780Y-60612965D03*
X102528262Y-77596068D03*
X98200000Y-49600000D03*
X67775000Y-117200000D03*
X98000000Y-125400000D03*
X120100000Y-94200000D03*
X118050000Y-59290000D03*
X102300000Y-66814506D03*
X96424173Y-63440827D03*
X116600000Y-47000000D03*
X94050000Y-124200000D03*
X94800000Y-54200000D03*
X124530433Y-57798459D03*
X110700000Y-122000000D03*
X107800000Y-108600000D03*
X91824173Y-61940827D03*
X120790000Y-87150000D03*
X118686128Y-127000000D03*
X116267390Y-57798459D03*
X104200000Y-125400000D03*
X108284125Y-104372658D03*
X105600000Y-125400000D03*
X116250000Y-76475000D03*
X121000000Y-42800000D03*
X114850000Y-72290000D03*
X121000000Y-43800000D03*
X94050000Y-122000000D03*
X108200000Y-43400000D03*
X102200000Y-108000000D03*
X125800000Y-69375000D03*
X111800000Y-125400000D03*
X103000000Y-49200000D03*
X107200000Y-108600000D03*
X125775000Y-66525000D03*
X121726503Y-77596068D03*
X119021738Y-57798459D03*
X100600000Y-108000000D03*
X118983897Y-77596068D03*
X108600000Y-107200000D03*
X96400000Y-49400000D03*
X70175000Y-121100000D03*
X112300000Y-81900000D03*
X124875000Y-88275000D03*
X123700000Y-98900000D03*
X98000000Y-54200000D03*
X109200000Y-107200000D03*
X121776085Y-57798459D03*
X105000000Y-102000000D03*
X101400000Y-103400000D03*
X107200000Y-109200000D03*
X110600000Y-54800000D03*
X96875000Y-122025000D03*
X41600000Y-124900000D03*
X127284780Y-69056482D03*
X53575000Y-117800000D03*
X127284780Y-77500000D03*
X108004348Y-57798459D03*
X102300000Y-69629011D03*
X118000000Y-75000000D03*
X117200000Y-95000000D03*
X102200000Y-103400000D03*
X103000000Y-108000000D03*
X106400000Y-69740000D03*
X108013474Y-77596068D03*
X105250000Y-57798459D03*
X111400000Y-102600000D03*
X108200000Y-44200000D03*
X108000000Y-90800000D03*
X100600000Y-103400000D03*
X102300000Y-72443517D03*
X110500000Y-105200000D03*
X127284780Y-74685494D03*
X108400000Y-109200000D03*
X108400000Y-108600000D03*
X127284780Y-57798459D03*
X108550000Y-73400000D03*
X113004600Y-48260000D03*
X127284780Y-63427471D03*
X110756080Y-77596068D03*
%TO.N,+5V*%
X119567500Y-102372500D03*
X96424173Y-62040827D03*
X101800000Y-88100000D03*
X120400000Y-118600000D03*
X120400000Y-119400000D03*
X113250000Y-76500000D03*
X120400000Y-117800000D03*
X119400000Y-118600000D03*
X105400000Y-87800000D03*
X119400000Y-119400000D03*
X119400000Y-117800000D03*
X111900000Y-69700000D03*
%TO.N,+3V3*%
X114400000Y-81900000D03*
X108000000Y-92000000D03*
X124600000Y-114000000D03*
X124320000Y-102430000D03*
X119000000Y-94200000D03*
X124600000Y-113200000D03*
X94600000Y-45400000D03*
X124600000Y-112400000D03*
X124600000Y-114800000D03*
X110600000Y-55800000D03*
X108700000Y-97300000D03*
X108650000Y-93600000D03*
X110000000Y-83256007D03*
X118200000Y-95000000D03*
X113300000Y-81900000D03*
X99400000Y-45400000D03*
%TO.N,/5v buck/5V_OUT*%
X110525000Y-106050000D03*
X111312014Y-106890623D03*
X99700000Y-103400000D03*
%TO.N,/USB-CAN/SWDIO1*%
X111380000Y-92750000D03*
%TO.N,/Can Transiver/CAN_TR.RXD*%
X107200000Y-122000000D03*
%TO.N,/Can Transiver/CAN_TR.TXD*%
X110000000Y-122000000D03*
%TO.N,/Can Transiver1/CAN_TR.RXD*%
X99800000Y-122000000D03*
X115300000Y-97550000D03*
%TO.N,/Can Transiver1/CAN_TR.TXD*%
X116401414Y-97558979D03*
X103100000Y-121800000D03*
%TO.N,/CH340_DEBUG/UART_DEBUG.TX*%
X91800000Y-101000000D03*
X105232200Y-48094535D03*
%TO.N,/CH340_DEBUG/UART_DEBUG.RX*%
X107780846Y-48094535D03*
X93580000Y-101170000D03*
%TO.N,/OrangePi 5 pro Header/ON OFF BTN*%
X96400000Y-46900000D03*
%TO.N,/OrangePi 5 pro Header/USER BUTTON*%
X98600000Y-46900000D03*
%TO.N,/USB-CAN/NRST*%
X110530000Y-92800000D03*
%TO.N,/CAN pwr sw/CAN_3V3*%
X122840000Y-103960000D03*
X105600000Y-126200000D03*
X98000000Y-126200000D03*
%TO.N,/Panel USB/VBUS_IN*%
X115300000Y-44800000D03*
X111496446Y-44296446D03*
%TO.N,/5v buck/5V_EN*%
X107675000Y-101875000D03*
X109675000Y-105262402D03*
%TO.N,/5v buck/V_{IN}*%
X107000000Y-107800000D03*
X104600000Y-102800000D03*
X106200000Y-106000000D03*
X105600000Y-107200000D03*
X106200000Y-106600000D03*
X105600000Y-106000000D03*
X107000000Y-107200000D03*
X106200000Y-104800000D03*
X105600000Y-105400000D03*
X105600000Y-106600000D03*
X104000000Y-103400000D03*
X104600000Y-103400000D03*
X107600000Y-107200000D03*
X105600000Y-104800000D03*
X107600000Y-107800000D03*
X106200000Y-105400000D03*
X104000000Y-102800000D03*
%TO.N,Net-(U9-VOUTR)*%
X120850000Y-73090000D03*
X123850000Y-71890000D03*
%TO.N,/USB-CAN/WORD_LED*%
X120020000Y-87930000D03*
X113530000Y-95980000D03*
%TO.N,/5v buck/5V_VDD*%
X111290000Y-107849559D03*
X111325000Y-103475000D03*
%TO.N,/Audio Codec/VDD_{int}*%
X115250000Y-66740003D03*
X112450000Y-65890000D03*
%TO.N,Net-(Q2-G)*%
X95975000Y-107894800D03*
X97375000Y-114700000D03*
%TO.N,/Audio Codec/DAC reset*%
X97500000Y-83900000D03*
X97500000Y-92100000D03*
%TO.N,Net-(Q5-D)*%
X121000000Y-127000000D03*
X119400000Y-107900000D03*
%TO.N,/Audio Codec/VBUS*%
X103500000Y-88950000D03*
X111825000Y-68650000D03*
%TO.N,/CAN pwr sw/CAN_5V*%
X100500000Y-121200000D03*
X108100000Y-121200000D03*
X122087500Y-103312500D03*
%TD*%
%TA.AperFunction,Conductor*%
%TO.N,+5V*%
G36*
X109078672Y-59219685D02*
G01*
X109105346Y-59242797D01*
X109139439Y-59282143D01*
X109144422Y-59287623D01*
X109204101Y-59324000D01*
X109213150Y-59329516D01*
X109280189Y-59349201D01*
X109324000Y-59355500D01*
X109324003Y-59355500D01*
X117557774Y-59355500D01*
X117624813Y-59375185D01*
X117670568Y-59427989D01*
X117674836Y-59439861D01*
X117676792Y-59444585D01*
X117676793Y-59444587D01*
X117729520Y-59535913D01*
X117804087Y-59610480D01*
X117895413Y-59663207D01*
X117997273Y-59690500D01*
X117997275Y-59690500D01*
X118102725Y-59690500D01*
X118102727Y-59690500D01*
X118204587Y-59663207D01*
X118295913Y-59610480D01*
X118370480Y-59535913D01*
X118423207Y-59444587D01*
X118423209Y-59444578D01*
X118426316Y-59437080D01*
X118428256Y-59437883D01*
X118458815Y-59387747D01*
X118521662Y-59357217D01*
X118542226Y-59355500D01*
X120520500Y-59355500D01*
X120587539Y-59375185D01*
X120633294Y-59427989D01*
X120644500Y-59479500D01*
X120644500Y-72567230D01*
X120646213Y-72590253D01*
X120646214Y-72590266D01*
X120651646Y-72626550D01*
X120653363Y-72633079D01*
X120650982Y-72633704D01*
X120655658Y-72692120D01*
X120622695Y-72753725D01*
X120609765Y-72765163D01*
X120604085Y-72769521D01*
X120529521Y-72844085D01*
X120476794Y-72935410D01*
X120476793Y-72935413D01*
X120449500Y-73037273D01*
X120449500Y-73142727D01*
X120476793Y-73244587D01*
X120529520Y-73335913D01*
X120604087Y-73410480D01*
X120604090Y-73410482D01*
X120610536Y-73415428D01*
X120608816Y-73417668D01*
X120647576Y-73458310D01*
X120660806Y-73526916D01*
X120656343Y-73550076D01*
X120650800Y-73568952D01*
X120650797Y-73568966D01*
X120644500Y-73612765D01*
X120644500Y-80320500D01*
X120624815Y-80387539D01*
X120572011Y-80433294D01*
X120520500Y-80444500D01*
X107723991Y-80444500D01*
X107690944Y-80448054D01*
X107639433Y-80459260D01*
X107570657Y-80493686D01*
X107517860Y-80539436D01*
X107512376Y-80544422D01*
X107470486Y-80613145D01*
X107470483Y-80613151D01*
X107450799Y-80680187D01*
X107450797Y-80680197D01*
X107444500Y-80723996D01*
X107444500Y-80724000D01*
X107444500Y-81867746D01*
X107444500Y-84167746D01*
X107444500Y-90353708D01*
X107446032Y-90369759D01*
X107447310Y-90383140D01*
X107453654Y-90416053D01*
X107456192Y-90429221D01*
X107456193Y-90429223D01*
X107486651Y-90495920D01*
X107523489Y-90542761D01*
X107529842Y-90550840D01*
X107534553Y-90556545D01*
X107545505Y-90563957D01*
X107550320Y-90569789D01*
X107557203Y-90572933D01*
X107572258Y-90596359D01*
X107589988Y-90617833D01*
X107591830Y-90626814D01*
X107594977Y-90631711D01*
X107600000Y-90666646D01*
X107600000Y-90735350D01*
X107599500Y-90742980D01*
X107599500Y-90857021D01*
X107600000Y-90864651D01*
X107600000Y-90933924D01*
X107580315Y-91000963D01*
X107557203Y-91027637D01*
X107517856Y-91061730D01*
X107512376Y-91066713D01*
X107470486Y-91135436D01*
X107470483Y-91135442D01*
X107450799Y-91202478D01*
X107450797Y-91202488D01*
X107444500Y-91246287D01*
X107444500Y-97876008D01*
X107448054Y-97909055D01*
X107459260Y-97960566D01*
X107493686Y-98029342D01*
X107523030Y-98063206D01*
X107539439Y-98082143D01*
X107544422Y-98087623D01*
X107613145Y-98129513D01*
X107613150Y-98129516D01*
X107680189Y-98149201D01*
X107724000Y-98155500D01*
X107724003Y-98155500D01*
X114884675Y-98155500D01*
X114924026Y-98150439D01*
X114984743Y-98134557D01*
X114987422Y-98133830D01*
X115056647Y-98092758D01*
X115105461Y-98042769D01*
X115108495Y-98039510D01*
X115136703Y-98022770D01*
X115164320Y-98005023D01*
X115167344Y-98004588D01*
X115168582Y-98003854D01*
X115199255Y-98000000D01*
X115402958Y-98000000D01*
X115469997Y-98019685D01*
X115496671Y-98042797D01*
X115530764Y-98082143D01*
X115535747Y-98087623D01*
X115604470Y-98129513D01*
X115604475Y-98129516D01*
X115671514Y-98149201D01*
X115715325Y-98155500D01*
X115715328Y-98155500D01*
X115979191Y-98155500D01*
X115979199Y-98155500D01*
X116018543Y-98150440D01*
X116018552Y-98150437D01*
X116018555Y-98150437D01*
X116079191Y-98134580D01*
X116081915Y-98133842D01*
X116081914Y-98133842D01*
X116081919Y-98133841D01*
X116151149Y-98092775D01*
X116199968Y-98042791D01*
X116199977Y-98042780D01*
X116199989Y-98042769D01*
X116203036Y-98039497D01*
X116231247Y-98022761D01*
X116258849Y-98005023D01*
X116261884Y-98004586D01*
X116263128Y-98003849D01*
X116293784Y-98000000D01*
X116511262Y-98000000D01*
X116578301Y-98019685D01*
X116604975Y-98042797D01*
X116639068Y-98082143D01*
X116644051Y-98087623D01*
X116712774Y-98129513D01*
X116712779Y-98129516D01*
X116779818Y-98149201D01*
X116823629Y-98155500D01*
X116823632Y-98155500D01*
X120084338Y-98155500D01*
X120085140Y-98155476D01*
X120093583Y-98155225D01*
X120108304Y-98154348D01*
X120160270Y-98142068D01*
X120224498Y-98114564D01*
X120231228Y-98111490D01*
X120274585Y-98073921D01*
X120338139Y-98044896D01*
X120407298Y-98054839D01*
X120417777Y-98060242D01*
X120422913Y-98063207D01*
X120524773Y-98090500D01*
X120524775Y-98090500D01*
X120630225Y-98090500D01*
X120630227Y-98090500D01*
X120732087Y-98063207D01*
X120735261Y-98061374D01*
X120738278Y-98060641D01*
X120739597Y-98060096D01*
X120739682Y-98060301D01*
X120803157Y-98044899D01*
X120869185Y-98067747D01*
X120889009Y-98085339D01*
X120891084Y-98087621D01*
X120891086Y-98087623D01*
X120959809Y-98129513D01*
X120959814Y-98129516D01*
X121026853Y-98149201D01*
X121070664Y-98155500D01*
X121070667Y-98155500D01*
X121476000Y-98155500D01*
X121543039Y-98175185D01*
X121588794Y-98227989D01*
X121600000Y-98279500D01*
X121600000Y-119876000D01*
X121580315Y-119943039D01*
X121527511Y-119988794D01*
X121476000Y-120000000D01*
X118724000Y-120000000D01*
X118656961Y-119980315D01*
X118611206Y-119927511D01*
X118600000Y-119876000D01*
X118600000Y-107847273D01*
X118999500Y-107847273D01*
X118999500Y-107952727D01*
X119026793Y-108054587D01*
X119079520Y-108145913D01*
X119154087Y-108220480D01*
X119245413Y-108273207D01*
X119347273Y-108300500D01*
X119347275Y-108300500D01*
X119452725Y-108300500D01*
X119452727Y-108300500D01*
X119554587Y-108273207D01*
X119645913Y-108220480D01*
X119720480Y-108145913D01*
X119773207Y-108054587D01*
X119800500Y-107952727D01*
X119800500Y-107847273D01*
X119773207Y-107745413D01*
X119720480Y-107654087D01*
X119645913Y-107579520D01*
X119566389Y-107533607D01*
X119554589Y-107526794D01*
X119554588Y-107526793D01*
X119554587Y-107526793D01*
X119452727Y-107499500D01*
X119347273Y-107499500D01*
X119245413Y-107526793D01*
X119245410Y-107526794D01*
X119154085Y-107579521D01*
X119079521Y-107654085D01*
X119026794Y-107745410D01*
X119026793Y-107745413D01*
X118999500Y-107847273D01*
X118600000Y-107847273D01*
X118600000Y-100800000D01*
X101424000Y-100800000D01*
X101356961Y-100780315D01*
X101311206Y-100727511D01*
X101300000Y-100676000D01*
X101300000Y-88897273D01*
X103099500Y-88897273D01*
X103099500Y-89002727D01*
X103126793Y-89104587D01*
X103179520Y-89195913D01*
X103254087Y-89270480D01*
X103345413Y-89323207D01*
X103447273Y-89350500D01*
X103447275Y-89350500D01*
X103552725Y-89350500D01*
X103552727Y-89350500D01*
X103654587Y-89323207D01*
X103745913Y-89270480D01*
X103820480Y-89195913D01*
X103873207Y-89104587D01*
X103900500Y-89002727D01*
X103900500Y-88897273D01*
X103873207Y-88795413D01*
X103820480Y-88704087D01*
X103745913Y-88629520D01*
X103679059Y-88590922D01*
X103654589Y-88576794D01*
X103654588Y-88576793D01*
X103654587Y-88576793D01*
X103552727Y-88549500D01*
X103447273Y-88549500D01*
X103345413Y-88576793D01*
X103345410Y-88576794D01*
X103254085Y-88629521D01*
X103179521Y-88704085D01*
X103126794Y-88795410D01*
X103126793Y-88795413D01*
X103099500Y-88897273D01*
X101300000Y-88897273D01*
X101300000Y-83147273D01*
X106099500Y-83147273D01*
X106099500Y-83252727D01*
X106126793Y-83354587D01*
X106179520Y-83445913D01*
X106254087Y-83520480D01*
X106345413Y-83573207D01*
X106447273Y-83600500D01*
X106447275Y-83600500D01*
X106552725Y-83600500D01*
X106552727Y-83600500D01*
X106654587Y-83573207D01*
X106745913Y-83520480D01*
X106820480Y-83445913D01*
X106873207Y-83354587D01*
X106900500Y-83252727D01*
X106900500Y-83147273D01*
X106873207Y-83045413D01*
X106820480Y-82954087D01*
X106745913Y-82879520D01*
X106654587Y-82826793D01*
X106552727Y-82799500D01*
X106447273Y-82799500D01*
X106345413Y-82826793D01*
X106345410Y-82826794D01*
X106254085Y-82879521D01*
X106179521Y-82954085D01*
X106126794Y-83045410D01*
X106126793Y-83045413D01*
X106099500Y-83147273D01*
X101300000Y-83147273D01*
X101300000Y-77543341D01*
X102127762Y-77543341D01*
X102127762Y-77648795D01*
X102155055Y-77750655D01*
X102207782Y-77841981D01*
X102282349Y-77916548D01*
X102373675Y-77969275D01*
X102475535Y-77996568D01*
X102475537Y-77996568D01*
X102580987Y-77996568D01*
X102580989Y-77996568D01*
X102682849Y-77969275D01*
X102774175Y-77916548D01*
X102848742Y-77841981D01*
X102901469Y-77750655D01*
X102928762Y-77648795D01*
X102928762Y-77543341D01*
X104870368Y-77543341D01*
X104870368Y-77648795D01*
X104897661Y-77750655D01*
X104950388Y-77841981D01*
X105024955Y-77916548D01*
X105116281Y-77969275D01*
X105218141Y-77996568D01*
X105218143Y-77996568D01*
X105323593Y-77996568D01*
X105323595Y-77996568D01*
X105425455Y-77969275D01*
X105516781Y-77916548D01*
X105591348Y-77841981D01*
X105644075Y-77750655D01*
X105671368Y-77648795D01*
X105671368Y-77543341D01*
X107612974Y-77543341D01*
X107612974Y-77648795D01*
X107640267Y-77750655D01*
X107692994Y-77841981D01*
X107767561Y-77916548D01*
X107858887Y-77969275D01*
X107960747Y-77996568D01*
X107960749Y-77996568D01*
X108066199Y-77996568D01*
X108066201Y-77996568D01*
X108168061Y-77969275D01*
X108259387Y-77916548D01*
X108333954Y-77841981D01*
X108386681Y-77750655D01*
X108413974Y-77648795D01*
X108413974Y-77543341D01*
X110355580Y-77543341D01*
X110355580Y-77648795D01*
X110382873Y-77750655D01*
X110435600Y-77841981D01*
X110510167Y-77916548D01*
X110601493Y-77969275D01*
X110703353Y-77996568D01*
X110703355Y-77996568D01*
X110808805Y-77996568D01*
X110808807Y-77996568D01*
X110910667Y-77969275D01*
X111001993Y-77916548D01*
X111076560Y-77841981D01*
X111129287Y-77750655D01*
X111156580Y-77648795D01*
X111156580Y-77543341D01*
X113098185Y-77543341D01*
X113098185Y-77648795D01*
X113125478Y-77750655D01*
X113178205Y-77841981D01*
X113252772Y-77916548D01*
X113344098Y-77969275D01*
X113445958Y-77996568D01*
X113445960Y-77996568D01*
X113551410Y-77996568D01*
X113551412Y-77996568D01*
X113653272Y-77969275D01*
X113744598Y-77916548D01*
X113819165Y-77841981D01*
X113871892Y-77750655D01*
X113899185Y-77648795D01*
X113899185Y-77543341D01*
X115840791Y-77543341D01*
X115840791Y-77648795D01*
X115868084Y-77750655D01*
X115920811Y-77841981D01*
X115995378Y-77916548D01*
X116086704Y-77969275D01*
X116188564Y-77996568D01*
X116188566Y-77996568D01*
X116294016Y-77996568D01*
X116294018Y-77996568D01*
X116395878Y-77969275D01*
X116487204Y-77916548D01*
X116561771Y-77841981D01*
X116614498Y-77750655D01*
X116641791Y-77648795D01*
X116641791Y-77543341D01*
X118583397Y-77543341D01*
X118583397Y-77648795D01*
X118610690Y-77750655D01*
X118663417Y-77841981D01*
X118737984Y-77916548D01*
X118829310Y-77969275D01*
X118931170Y-77996568D01*
X118931172Y-77996568D01*
X119036622Y-77996568D01*
X119036624Y-77996568D01*
X119138484Y-77969275D01*
X119229810Y-77916548D01*
X119304377Y-77841981D01*
X119357104Y-77750655D01*
X119384397Y-77648795D01*
X119384397Y-77543341D01*
X119357104Y-77441481D01*
X119304377Y-77350155D01*
X119229810Y-77275588D01*
X119138484Y-77222861D01*
X119036624Y-77195568D01*
X118931170Y-77195568D01*
X118829310Y-77222861D01*
X118829307Y-77222862D01*
X118737982Y-77275589D01*
X118663418Y-77350153D01*
X118610691Y-77441478D01*
X118610690Y-77441481D01*
X118583397Y-77543341D01*
X116641791Y-77543341D01*
X116614498Y-77441481D01*
X116561771Y-77350155D01*
X116487204Y-77275588D01*
X116395878Y-77222861D01*
X116294018Y-77195568D01*
X116188564Y-77195568D01*
X116086704Y-77222861D01*
X116086701Y-77222862D01*
X115995376Y-77275589D01*
X115920812Y-77350153D01*
X115868085Y-77441478D01*
X115868084Y-77441481D01*
X115840791Y-77543341D01*
X113899185Y-77543341D01*
X113871892Y-77441481D01*
X113819165Y-77350155D01*
X113744598Y-77275588D01*
X113653272Y-77222861D01*
X113551412Y-77195568D01*
X113445958Y-77195568D01*
X113344098Y-77222861D01*
X113344095Y-77222862D01*
X113252770Y-77275589D01*
X113178206Y-77350153D01*
X113125479Y-77441478D01*
X113125478Y-77441481D01*
X113098185Y-77543341D01*
X111156580Y-77543341D01*
X111129287Y-77441481D01*
X111076560Y-77350155D01*
X111001993Y-77275588D01*
X110910667Y-77222861D01*
X110808807Y-77195568D01*
X110703353Y-77195568D01*
X110601493Y-77222861D01*
X110601490Y-77222862D01*
X110510165Y-77275589D01*
X110435601Y-77350153D01*
X110382874Y-77441478D01*
X110382873Y-77441481D01*
X110355580Y-77543341D01*
X108413974Y-77543341D01*
X108386681Y-77441481D01*
X108333954Y-77350155D01*
X108259387Y-77275588D01*
X108168061Y-77222861D01*
X108066201Y-77195568D01*
X107960747Y-77195568D01*
X107858887Y-77222861D01*
X107858884Y-77222862D01*
X107767559Y-77275589D01*
X107692995Y-77350153D01*
X107640268Y-77441478D01*
X107640267Y-77441481D01*
X107612974Y-77543341D01*
X105671368Y-77543341D01*
X105644075Y-77441481D01*
X105591348Y-77350155D01*
X105516781Y-77275588D01*
X105425455Y-77222861D01*
X105323595Y-77195568D01*
X105218141Y-77195568D01*
X105116281Y-77222861D01*
X105116278Y-77222862D01*
X105024953Y-77275589D01*
X104950389Y-77350153D01*
X104897662Y-77441478D01*
X104897661Y-77441481D01*
X104870368Y-77543341D01*
X102928762Y-77543341D01*
X102901469Y-77441481D01*
X102848742Y-77350155D01*
X102774175Y-77275588D01*
X102682849Y-77222861D01*
X102580989Y-77195568D01*
X102475535Y-77195568D01*
X102373675Y-77222861D01*
X102373672Y-77222862D01*
X102282347Y-77275589D01*
X102207783Y-77350153D01*
X102155056Y-77441478D01*
X102155055Y-77441481D01*
X102127762Y-77543341D01*
X101300000Y-77543341D01*
X101300000Y-76422273D01*
X115849500Y-76422273D01*
X115849500Y-76527727D01*
X115876793Y-76629587D01*
X115929520Y-76720913D01*
X116004087Y-76795480D01*
X116095413Y-76848207D01*
X116197273Y-76875500D01*
X116197275Y-76875500D01*
X116302725Y-76875500D01*
X116302727Y-76875500D01*
X116404587Y-76848207D01*
X116495913Y-76795480D01*
X116570480Y-76720913D01*
X116623207Y-76629587D01*
X116650500Y-76527727D01*
X116650500Y-76422273D01*
X116623207Y-76320413D01*
X116570480Y-76229087D01*
X116495913Y-76154520D01*
X116404587Y-76101793D01*
X116302727Y-76074500D01*
X116197273Y-76074500D01*
X116095413Y-76101793D01*
X116095410Y-76101794D01*
X116004085Y-76154521D01*
X115929521Y-76229085D01*
X115876794Y-76320410D01*
X115876793Y-76320413D01*
X115849500Y-76422273D01*
X101300000Y-76422273D01*
X101300000Y-74947273D01*
X117599500Y-74947273D01*
X117599500Y-75052727D01*
X117626793Y-75154587D01*
X117679520Y-75245913D01*
X117754087Y-75320480D01*
X117845413Y-75373207D01*
X117947273Y-75400500D01*
X117947275Y-75400500D01*
X118052725Y-75400500D01*
X118052727Y-75400500D01*
X118154587Y-75373207D01*
X118245913Y-75320480D01*
X118320480Y-75245913D01*
X118373207Y-75154587D01*
X118400500Y-75052727D01*
X118400500Y-74947273D01*
X118373207Y-74845413D01*
X118320480Y-74754087D01*
X118245913Y-74679520D01*
X118154587Y-74626793D01*
X118052727Y-74599500D01*
X117947273Y-74599500D01*
X117845413Y-74626793D01*
X117845410Y-74626794D01*
X117754085Y-74679521D01*
X117679521Y-74754085D01*
X117626794Y-74845410D01*
X117626793Y-74845413D01*
X117599500Y-74947273D01*
X101300000Y-74947273D01*
X101300000Y-73322273D01*
X106099500Y-73322273D01*
X106099500Y-73427727D01*
X106126793Y-73529587D01*
X106179520Y-73620913D01*
X106254087Y-73695480D01*
X106345413Y-73748207D01*
X106447273Y-73775500D01*
X106447275Y-73775500D01*
X106552725Y-73775500D01*
X106552727Y-73775500D01*
X106654587Y-73748207D01*
X106745913Y-73695480D01*
X106820480Y-73620913D01*
X106873207Y-73529587D01*
X106900500Y-73427727D01*
X106900500Y-73347273D01*
X108149500Y-73347273D01*
X108149500Y-73452727D01*
X108176793Y-73554587D01*
X108229520Y-73645913D01*
X108304087Y-73720480D01*
X108395413Y-73773207D01*
X108497273Y-73800500D01*
X108497275Y-73800500D01*
X108602725Y-73800500D01*
X108602727Y-73800500D01*
X108704587Y-73773207D01*
X108795913Y-73720480D01*
X108870480Y-73645913D01*
X108923207Y-73554587D01*
X108950500Y-73452727D01*
X108950500Y-73347273D01*
X108923207Y-73245413D01*
X108870480Y-73154087D01*
X108795913Y-73079520D01*
X108704587Y-73026793D01*
X108602727Y-72999500D01*
X108497273Y-72999500D01*
X108395413Y-73026793D01*
X108395410Y-73026794D01*
X108304085Y-73079521D01*
X108229521Y-73154085D01*
X108176794Y-73245410D01*
X108176793Y-73245413D01*
X108149500Y-73347273D01*
X106900500Y-73347273D01*
X106900500Y-73322273D01*
X106873207Y-73220413D01*
X106820480Y-73129087D01*
X106745913Y-73054520D01*
X106654587Y-73001793D01*
X106552727Y-72974500D01*
X106447273Y-72974500D01*
X106345413Y-73001793D01*
X106345410Y-73001794D01*
X106254085Y-73054521D01*
X106179521Y-73129085D01*
X106126794Y-73220410D01*
X106126793Y-73220413D01*
X106099500Y-73322273D01*
X101300000Y-73322273D01*
X101300000Y-72390790D01*
X101899500Y-72390790D01*
X101899500Y-72496244D01*
X101926793Y-72598104D01*
X101979520Y-72689430D01*
X102054087Y-72763997D01*
X102145413Y-72816724D01*
X102247273Y-72844017D01*
X102247275Y-72844017D01*
X102352725Y-72844017D01*
X102352727Y-72844017D01*
X102454587Y-72816724D01*
X102545913Y-72763997D01*
X102612637Y-72697273D01*
X111849500Y-72697273D01*
X111849500Y-72802727D01*
X111876793Y-72904587D01*
X111929520Y-72995913D01*
X112004087Y-73070480D01*
X112095413Y-73123207D01*
X112197273Y-73150500D01*
X112197275Y-73150500D01*
X112302725Y-73150500D01*
X112302727Y-73150500D01*
X112404587Y-73123207D01*
X112495913Y-73070480D01*
X112570480Y-72995913D01*
X112623207Y-72904587D01*
X112650500Y-72802727D01*
X112650500Y-72697273D01*
X112623207Y-72595413D01*
X112570480Y-72504087D01*
X112495913Y-72429520D01*
X112404587Y-72376793D01*
X112302727Y-72349500D01*
X112197273Y-72349500D01*
X112095413Y-72376793D01*
X112095410Y-72376794D01*
X112004085Y-72429521D01*
X111929521Y-72504085D01*
X111876794Y-72595410D01*
X111876793Y-72595413D01*
X111849500Y-72697273D01*
X102612637Y-72697273D01*
X102620480Y-72689430D01*
X102673207Y-72598104D01*
X102700500Y-72496244D01*
X102700500Y-72390790D01*
X102673207Y-72288930D01*
X102643383Y-72237273D01*
X114449500Y-72237273D01*
X114449500Y-72342727D01*
X114462379Y-72390790D01*
X114476793Y-72444586D01*
X114476794Y-72444589D01*
X114490922Y-72469059D01*
X114529520Y-72535913D01*
X114604087Y-72610480D01*
X114695413Y-72663207D01*
X114797273Y-72690500D01*
X114797275Y-72690500D01*
X114902725Y-72690500D01*
X114902727Y-72690500D01*
X115004587Y-72663207D01*
X115095913Y-72610480D01*
X115170480Y-72535913D01*
X115223207Y-72444587D01*
X115250500Y-72342727D01*
X115250500Y-72237273D01*
X115223207Y-72135413D01*
X115170480Y-72044087D01*
X115095913Y-71969520D01*
X115004587Y-71916793D01*
X114902727Y-71889500D01*
X114797273Y-71889500D01*
X114695413Y-71916793D01*
X114695410Y-71916794D01*
X114604085Y-71969521D01*
X114529521Y-72044085D01*
X114476794Y-72135410D01*
X114476793Y-72135413D01*
X114449500Y-72237273D01*
X102643383Y-72237273D01*
X102620480Y-72197604D01*
X102545913Y-72123037D01*
X102454587Y-72070310D01*
X102352727Y-72043017D01*
X102247273Y-72043017D01*
X102145413Y-72070310D01*
X102145410Y-72070311D01*
X102054085Y-72123038D01*
X101979521Y-72197602D01*
X101926794Y-72288927D01*
X101926793Y-72288930D01*
X101899500Y-72390790D01*
X101300000Y-72390790D01*
X101300000Y-71737273D01*
X112849500Y-71737273D01*
X112849500Y-71842727D01*
X112876793Y-71944587D01*
X112929520Y-72035913D01*
X113004087Y-72110480D01*
X113095413Y-72163207D01*
X113197273Y-72190500D01*
X113197275Y-72190500D01*
X113302725Y-72190500D01*
X113302727Y-72190500D01*
X113404587Y-72163207D01*
X113495913Y-72110480D01*
X113570480Y-72035913D01*
X113623207Y-71944587D01*
X113650500Y-71842727D01*
X113650500Y-71737273D01*
X113623207Y-71635413D01*
X113570480Y-71544087D01*
X113495913Y-71469520D01*
X113404587Y-71416793D01*
X113302727Y-71389500D01*
X113197273Y-71389500D01*
X113095413Y-71416793D01*
X113095410Y-71416794D01*
X113004085Y-71469521D01*
X112929521Y-71544085D01*
X112876794Y-71635410D01*
X112876793Y-71635413D01*
X112849500Y-71737273D01*
X101300000Y-71737273D01*
X101300000Y-70947273D01*
X111349500Y-70947273D01*
X111349500Y-71052727D01*
X111376793Y-71154587D01*
X111429520Y-71245913D01*
X111504087Y-71320480D01*
X111595413Y-71373207D01*
X111697273Y-71400500D01*
X111697275Y-71400500D01*
X111802725Y-71400500D01*
X111802727Y-71400500D01*
X111904587Y-71373207D01*
X111995913Y-71320480D01*
X112070480Y-71245913D01*
X112123207Y-71154587D01*
X112150500Y-71052727D01*
X112150500Y-70947273D01*
X112123207Y-70845413D01*
X112070480Y-70754087D01*
X111995913Y-70679520D01*
X111904587Y-70626793D01*
X111802727Y-70599500D01*
X111697273Y-70599500D01*
X111595413Y-70626793D01*
X111595410Y-70626794D01*
X111504085Y-70679521D01*
X111429521Y-70754085D01*
X111376794Y-70845410D01*
X111376793Y-70845413D01*
X111349500Y-70947273D01*
X101300000Y-70947273D01*
X101300000Y-69576284D01*
X101899500Y-69576284D01*
X101899500Y-69681738D01*
X101926793Y-69783598D01*
X101979520Y-69874924D01*
X102054087Y-69949491D01*
X102145413Y-70002218D01*
X102247273Y-70029511D01*
X102247275Y-70029511D01*
X102352725Y-70029511D01*
X102352727Y-70029511D01*
X102454587Y-70002218D01*
X102545913Y-69949491D01*
X102620480Y-69874924D01*
X102673207Y-69783598D01*
X102699017Y-69687273D01*
X105999500Y-69687273D01*
X105999500Y-69792727D01*
X106026793Y-69894587D01*
X106079520Y-69985913D01*
X106154087Y-70060480D01*
X106245413Y-70113207D01*
X106347273Y-70140500D01*
X106347275Y-70140500D01*
X106452725Y-70140500D01*
X106452727Y-70140500D01*
X106554587Y-70113207D01*
X106645913Y-70060480D01*
X106720480Y-69985913D01*
X106773207Y-69894587D01*
X106800500Y-69792727D01*
X106800500Y-69687273D01*
X106773207Y-69585413D01*
X106720480Y-69494087D01*
X106645913Y-69419520D01*
X106554587Y-69366793D01*
X106452727Y-69339500D01*
X106347273Y-69339500D01*
X106245413Y-69366793D01*
X106245410Y-69366794D01*
X106154085Y-69419521D01*
X106079521Y-69494085D01*
X106026794Y-69585410D01*
X106026793Y-69585413D01*
X105999500Y-69687273D01*
X102699017Y-69687273D01*
X102700500Y-69681738D01*
X102700500Y-69576284D01*
X102673207Y-69474424D01*
X102620480Y-69383098D01*
X102545913Y-69308531D01*
X102454587Y-69255804D01*
X102352727Y-69228511D01*
X102247273Y-69228511D01*
X102145413Y-69255804D01*
X102145410Y-69255805D01*
X102054085Y-69308532D01*
X101979521Y-69383096D01*
X101926794Y-69474421D01*
X101926793Y-69474424D01*
X101899500Y-69576284D01*
X101300000Y-69576284D01*
X101300000Y-67791648D01*
X104019499Y-67791648D01*
X104055257Y-67971411D01*
X104055259Y-67971417D01*
X104125400Y-68140754D01*
X104125405Y-68140763D01*
X104227233Y-68293158D01*
X104227236Y-68293162D01*
X104356837Y-68422763D01*
X104356841Y-68422766D01*
X104509236Y-68524594D01*
X104509242Y-68524597D01*
X104509243Y-68524598D01*
X104678583Y-68594741D01*
X104678587Y-68594741D01*
X104678588Y-68594742D01*
X104858351Y-68630500D01*
X104858354Y-68630500D01*
X105041648Y-68630500D01*
X105162590Y-68606442D01*
X105221417Y-68594741D01*
X105390757Y-68524598D01*
X105435320Y-68494822D01*
X109019499Y-68494822D01*
X109028231Y-68538717D01*
X109028232Y-68538721D01*
X109028233Y-68538722D01*
X109061496Y-68588504D01*
X109111278Y-68621767D01*
X109111281Y-68621767D01*
X109111282Y-68621768D01*
X109155177Y-68630500D01*
X109155180Y-68630500D01*
X110744822Y-68630500D01*
X110788717Y-68621768D01*
X110788717Y-68621767D01*
X110788722Y-68621767D01*
X110825380Y-68597273D01*
X111424500Y-68597273D01*
X111424500Y-68702727D01*
X111451793Y-68804587D01*
X111504520Y-68895913D01*
X111579087Y-68970480D01*
X111670413Y-69023207D01*
X111772273Y-69050500D01*
X111772275Y-69050500D01*
X111877725Y-69050500D01*
X111877727Y-69050500D01*
X111979587Y-69023207D01*
X112070913Y-68970480D01*
X112145480Y-68895913D01*
X112198207Y-68804587D01*
X112225500Y-68702727D01*
X112225500Y-68597273D01*
X112198207Y-68495413D01*
X112145480Y-68404087D01*
X112070913Y-68329520D01*
X111979587Y-68276793D01*
X111877727Y-68249500D01*
X111772273Y-68249500D01*
X111670413Y-68276793D01*
X111670410Y-68276794D01*
X111579085Y-68329521D01*
X111504521Y-68404085D01*
X111451794Y-68495410D01*
X111451793Y-68495413D01*
X111424500Y-68597273D01*
X110825380Y-68597273D01*
X110838504Y-68588504D01*
X110871767Y-68538722D01*
X110880500Y-68494820D01*
X110880500Y-66905180D01*
X110880500Y-66905177D01*
X110871768Y-66861282D01*
X110871767Y-66861281D01*
X110871767Y-66861278D01*
X110838504Y-66811496D01*
X110829167Y-66805257D01*
X110788724Y-66778234D01*
X110788717Y-66778231D01*
X110744822Y-66769500D01*
X110744820Y-66769500D01*
X109155180Y-66769500D01*
X109155178Y-66769500D01*
X109111282Y-66778231D01*
X109111275Y-66778234D01*
X109061496Y-66811495D01*
X109061495Y-66811496D01*
X109028234Y-66861275D01*
X109028231Y-66861282D01*
X109019500Y-66905177D01*
X109019500Y-66905180D01*
X109019500Y-68494820D01*
X109019500Y-68494822D01*
X109019499Y-68494822D01*
X105435320Y-68494822D01*
X105543159Y-68422766D01*
X105672766Y-68293159D01*
X105774598Y-68140757D01*
X105844741Y-67971417D01*
X105880500Y-67791646D01*
X105880500Y-67608354D01*
X105880500Y-67608351D01*
X105844742Y-67428588D01*
X105844741Y-67428587D01*
X105844741Y-67428583D01*
X105774598Y-67259243D01*
X105774597Y-67259242D01*
X105774594Y-67259236D01*
X105672766Y-67106841D01*
X105672763Y-67106837D01*
X105543162Y-66977236D01*
X105543158Y-66977233D01*
X105390763Y-66875405D01*
X105390754Y-66875400D01*
X105221417Y-66805259D01*
X105221411Y-66805257D01*
X105041648Y-66769500D01*
X105041646Y-66769500D01*
X104858354Y-66769500D01*
X104858352Y-66769500D01*
X104678588Y-66805257D01*
X104678582Y-66805259D01*
X104509245Y-66875400D01*
X104509236Y-66875405D01*
X104356841Y-66977233D01*
X104356837Y-66977236D01*
X104227236Y-67106837D01*
X104227233Y-67106841D01*
X104125405Y-67259236D01*
X104125400Y-67259245D01*
X104055259Y-67428582D01*
X104055257Y-67428588D01*
X104019500Y-67608351D01*
X104019500Y-67608354D01*
X104019500Y-67791646D01*
X104019500Y-67791648D01*
X104019499Y-67791648D01*
X101300000Y-67791648D01*
X101300000Y-66761779D01*
X101899500Y-66761779D01*
X101899500Y-66867233D01*
X101926793Y-66969093D01*
X101979520Y-67060419D01*
X102054087Y-67134986D01*
X102145413Y-67187713D01*
X102247273Y-67215006D01*
X102247275Y-67215006D01*
X102352725Y-67215006D01*
X102352727Y-67215006D01*
X102454587Y-67187713D01*
X102545913Y-67134986D01*
X102620480Y-67060419D01*
X102673207Y-66969093D01*
X102700500Y-66867233D01*
X102700500Y-66761779D01*
X102673207Y-66659919D01*
X102620480Y-66568593D01*
X102545913Y-66494026D01*
X102454587Y-66441299D01*
X102352727Y-66414006D01*
X102247273Y-66414006D01*
X102145413Y-66441299D01*
X102145410Y-66441300D01*
X102054085Y-66494027D01*
X101979521Y-66568591D01*
X101926794Y-66659916D01*
X101926793Y-66659919D01*
X101899500Y-66761779D01*
X101300000Y-66761779D01*
X101300000Y-65837273D01*
X112049500Y-65837273D01*
X112049500Y-65942727D01*
X112076793Y-66044587D01*
X112129520Y-66135913D01*
X112204087Y-66210480D01*
X112295413Y-66263207D01*
X112397273Y-66290500D01*
X112397275Y-66290500D01*
X112502725Y-66290500D01*
X112502727Y-66290500D01*
X112604587Y-66263207D01*
X112695913Y-66210480D01*
X112770480Y-66135913D01*
X112823207Y-66044587D01*
X112850500Y-65942727D01*
X112850500Y-65837273D01*
X114849500Y-65837273D01*
X114849500Y-65942727D01*
X114876793Y-66044587D01*
X114903902Y-66091542D01*
X114929521Y-66135914D01*
X115004087Y-66210480D01*
X115010533Y-66215426D01*
X115008767Y-66217727D01*
X115047340Y-66258181D01*
X115060563Y-66326788D01*
X115034595Y-66391653D01*
X115009580Y-66413335D01*
X115010533Y-66414577D01*
X115004087Y-66419522D01*
X114929521Y-66494088D01*
X114876794Y-66585413D01*
X114876793Y-66585416D01*
X114849500Y-66687276D01*
X114849500Y-66792730D01*
X114876793Y-66894590D01*
X114929520Y-66985916D01*
X115004087Y-67060483D01*
X115095413Y-67113210D01*
X115197273Y-67140503D01*
X115197275Y-67140503D01*
X115302725Y-67140503D01*
X115302727Y-67140503D01*
X115404587Y-67113210D01*
X115495913Y-67060483D01*
X115570480Y-66985916D01*
X115623207Y-66894590D01*
X115650500Y-66792730D01*
X115650500Y-66687276D01*
X115623207Y-66585416D01*
X115570480Y-66494090D01*
X115495913Y-66419523D01*
X115495912Y-66419522D01*
X115489467Y-66414577D01*
X115491230Y-66412278D01*
X115452651Y-66371804D01*
X115439438Y-66303195D01*
X115465416Y-66238334D01*
X115490423Y-66216672D01*
X115489467Y-66215426D01*
X115495908Y-66210482D01*
X115495913Y-66210480D01*
X115570480Y-66135913D01*
X115623207Y-66044587D01*
X115650500Y-65942727D01*
X115650500Y-65837273D01*
X115623207Y-65735413D01*
X115570480Y-65644087D01*
X115495913Y-65569520D01*
X115404587Y-65516793D01*
X115302727Y-65489500D01*
X115197273Y-65489500D01*
X115095413Y-65516793D01*
X115095410Y-65516794D01*
X115004085Y-65569521D01*
X114929521Y-65644085D01*
X114876794Y-65735410D01*
X114876793Y-65735413D01*
X114849500Y-65837273D01*
X112850500Y-65837273D01*
X112823207Y-65735413D01*
X112770480Y-65644087D01*
X112695913Y-65569520D01*
X112604587Y-65516793D01*
X112502727Y-65489500D01*
X112397273Y-65489500D01*
X112295413Y-65516793D01*
X112295410Y-65516794D01*
X112204085Y-65569521D01*
X112129521Y-65644085D01*
X112076794Y-65735410D01*
X112076793Y-65735413D01*
X112049500Y-65837273D01*
X101300000Y-65837273D01*
X101300000Y-64600000D01*
X95824000Y-64600000D01*
X95756961Y-64580315D01*
X95711206Y-64527511D01*
X95700000Y-64476000D01*
X95700000Y-63947273D01*
X101899500Y-63947273D01*
X101899500Y-64052727D01*
X101926793Y-64154587D01*
X101979520Y-64245913D01*
X102054087Y-64320480D01*
X102145413Y-64373207D01*
X102247273Y-64400500D01*
X102247275Y-64400500D01*
X102352725Y-64400500D01*
X102352727Y-64400500D01*
X102454587Y-64373207D01*
X102545913Y-64320480D01*
X102620480Y-64245913D01*
X102673207Y-64154587D01*
X102700500Y-64052727D01*
X102700500Y-63947273D01*
X102673207Y-63845413D01*
X102620480Y-63754087D01*
X102545913Y-63679520D01*
X102454587Y-63626793D01*
X102352727Y-63599500D01*
X102247273Y-63599500D01*
X102145413Y-63626793D01*
X102145410Y-63626794D01*
X102054085Y-63679521D01*
X101979521Y-63754085D01*
X101926794Y-63845410D01*
X101926793Y-63845413D01*
X101899500Y-63947273D01*
X95700000Y-63947273D01*
X95700000Y-63388100D01*
X96023673Y-63388100D01*
X96023673Y-63493554D01*
X96050966Y-63595414D01*
X96103693Y-63686740D01*
X96178260Y-63761307D01*
X96269586Y-63814034D01*
X96371446Y-63841327D01*
X96371448Y-63841327D01*
X96476898Y-63841327D01*
X96476900Y-63841327D01*
X96578760Y-63814034D01*
X96670086Y-63761307D01*
X96744653Y-63686740D01*
X96797380Y-63595414D01*
X96824673Y-63493554D01*
X96824673Y-63388100D01*
X96797380Y-63286240D01*
X96744653Y-63194914D01*
X96670086Y-63120347D01*
X96578760Y-63067620D01*
X96476900Y-63040327D01*
X96371446Y-63040327D01*
X96269586Y-63067620D01*
X96269583Y-63067621D01*
X96178258Y-63120348D01*
X96103694Y-63194912D01*
X96050967Y-63286237D01*
X96050966Y-63286240D01*
X96023673Y-63388100D01*
X95700000Y-63388100D01*
X95700000Y-62791648D01*
X106519499Y-62791648D01*
X106555257Y-62971411D01*
X106555259Y-62971417D01*
X106625400Y-63140754D01*
X106625405Y-63140763D01*
X106727233Y-63293158D01*
X106727236Y-63293162D01*
X106856837Y-63422763D01*
X106856841Y-63422766D01*
X107009236Y-63524594D01*
X107009242Y-63524597D01*
X107009243Y-63524598D01*
X107178583Y-63594741D01*
X107178587Y-63594741D01*
X107178588Y-63594742D01*
X107358351Y-63630500D01*
X107358354Y-63630500D01*
X107541648Y-63630500D01*
X107697492Y-63599500D01*
X107721417Y-63594741D01*
X107890757Y-63524598D01*
X108043159Y-63422766D01*
X108172766Y-63293159D01*
X108274598Y-63140757D01*
X108344741Y-62971417D01*
X108380500Y-62791646D01*
X108380500Y-62608354D01*
X108380500Y-62608351D01*
X108344742Y-62428588D01*
X108344741Y-62428587D01*
X108344741Y-62428583D01*
X108274598Y-62259243D01*
X108274597Y-62259242D01*
X108274594Y-62259236D01*
X108172766Y-62106841D01*
X108172763Y-62106837D01*
X108043162Y-61977236D01*
X108043158Y-61977233D01*
X107890763Y-61875405D01*
X107890754Y-61875400D01*
X107721417Y-61805259D01*
X107721411Y-61805257D01*
X107541648Y-61769500D01*
X107541646Y-61769500D01*
X107358354Y-61769500D01*
X107358352Y-61769500D01*
X107178588Y-61805257D01*
X107178582Y-61805259D01*
X107009245Y-61875400D01*
X107009236Y-61875405D01*
X106856841Y-61977233D01*
X106856837Y-61977236D01*
X106727236Y-62106837D01*
X106727233Y-62106841D01*
X106625405Y-62259236D01*
X106625400Y-62259245D01*
X106555259Y-62428582D01*
X106555257Y-62428588D01*
X106519500Y-62608351D01*
X106519500Y-62608354D01*
X106519500Y-62791646D01*
X106519500Y-62791648D01*
X106519499Y-62791648D01*
X95700000Y-62791648D01*
X95700000Y-61132767D01*
X101899500Y-61132767D01*
X101899500Y-61238221D01*
X101926793Y-61340081D01*
X101979520Y-61431407D01*
X102054087Y-61505974D01*
X102145413Y-61558701D01*
X102247273Y-61585994D01*
X102247275Y-61585994D01*
X102352725Y-61585994D01*
X102352727Y-61585994D01*
X102454587Y-61558701D01*
X102545913Y-61505974D01*
X102620480Y-61431407D01*
X102673207Y-61340081D01*
X102700500Y-61238221D01*
X102700500Y-61132767D01*
X102673207Y-61030907D01*
X102620480Y-60939581D01*
X102545913Y-60865014D01*
X102454587Y-60812287D01*
X102352727Y-60784994D01*
X102247273Y-60784994D01*
X102145413Y-60812287D01*
X102145410Y-60812288D01*
X102054085Y-60865015D01*
X101979521Y-60939579D01*
X101926794Y-61030904D01*
X101926793Y-61030907D01*
X101899500Y-61132767D01*
X95700000Y-61132767D01*
X95700000Y-59324000D01*
X95719685Y-59256961D01*
X95772489Y-59211206D01*
X95824000Y-59200000D01*
X109011633Y-59200000D01*
X109078672Y-59219685D01*
G37*
%TD.AperFunction*%
%TD*%
%TA.AperFunction,Conductor*%
%TO.N,/CAN pwr sw/CAN_3V3*%
G36*
X97947273Y-125800500D02*
G01*
X98052727Y-125800500D01*
X98054593Y-125800000D01*
X104135349Y-125800000D01*
X104142978Y-125800500D01*
X104147273Y-125800500D01*
X104257022Y-125800500D01*
X104264651Y-125800000D01*
X105545407Y-125800000D01*
X105547273Y-125800500D01*
X105652727Y-125800500D01*
X105654593Y-125800000D01*
X111735349Y-125800000D01*
X111742978Y-125800500D01*
X111747273Y-125800500D01*
X111857022Y-125800500D01*
X111864651Y-125800000D01*
X122607774Y-125800000D01*
X122611232Y-126600000D01*
X121054593Y-126600000D01*
X121052727Y-126599500D01*
X120947273Y-126599500D01*
X120945407Y-126600000D01*
X118750779Y-126600000D01*
X118743150Y-126599500D01*
X118738855Y-126599500D01*
X118633401Y-126599500D01*
X118629106Y-126599500D01*
X118621477Y-126600000D01*
X96279500Y-126600000D01*
X96212461Y-126580315D01*
X96166706Y-126527511D01*
X96155500Y-126476000D01*
X96155500Y-125924000D01*
X96175185Y-125856961D01*
X96227989Y-125811206D01*
X96279500Y-125800000D01*
X97945407Y-125800000D01*
X97947273Y-125800500D01*
G37*
%TD.AperFunction*%
%TD*%
%TA.AperFunction,Conductor*%
%TO.N,/CAN pwr sw/CAN_5V*%
G36*
X122275521Y-98169910D02*
G01*
X122321687Y-98222355D01*
X122333298Y-98274210D01*
X122391951Y-111844107D01*
X122391952Y-111844643D01*
X122391952Y-121381018D01*
X122372267Y-121448057D01*
X122319463Y-121493812D01*
X122268104Y-121505018D01*
X103445960Y-121528053D01*
X103378896Y-121508450D01*
X103358127Y-121491734D01*
X103345914Y-121479521D01*
X103345913Y-121479520D01*
X103254587Y-121426793D01*
X103152727Y-121399500D01*
X103047273Y-121399500D01*
X102945413Y-121426793D01*
X102945410Y-121426794D01*
X102854087Y-121479519D01*
X102841022Y-121492584D01*
X102814153Y-121507254D01*
X102788429Y-121523833D01*
X102782110Y-121524749D01*
X102779698Y-121526067D01*
X102753501Y-121528900D01*
X102735436Y-121528923D01*
X102668371Y-121509324D01*
X102627890Y-121466922D01*
X102620480Y-121454087D01*
X102545914Y-121379521D01*
X102545913Y-121379520D01*
X102454587Y-121326793D01*
X102352727Y-121299500D01*
X102247273Y-121299500D01*
X102145413Y-121326793D01*
X102145410Y-121326794D01*
X102054085Y-121379521D01*
X101979522Y-121454084D01*
X101979515Y-121454093D01*
X101971490Y-121467993D01*
X101920921Y-121516206D01*
X101864258Y-121529988D01*
X100124152Y-121532118D01*
X100057088Y-121512515D01*
X100011269Y-121459767D01*
X100000000Y-121408118D01*
X100000000Y-120924000D01*
X100019685Y-120856961D01*
X100072489Y-120811206D01*
X100124000Y-120800000D01*
X121698380Y-120800000D01*
X121698380Y-120799999D01*
X121698379Y-120799416D01*
X121697792Y-120073805D01*
X121715912Y-120009167D01*
X121729516Y-119986850D01*
X121749201Y-119919811D01*
X121755500Y-119876000D01*
X121755500Y-98279500D01*
X121755500Y-98277323D01*
X121775185Y-98210284D01*
X121827989Y-98164529D01*
X121878528Y-98153327D01*
X122208332Y-98150750D01*
X122275521Y-98169910D01*
G37*
%TD.AperFunction*%
%TD*%
%TA.AperFunction,Conductor*%
%TO.N,+3V3*%
G36*
X128000000Y-126476000D02*
G01*
X127980315Y-126543039D01*
X127927511Y-126588794D01*
X127876000Y-126600000D01*
X123524000Y-126600000D01*
X123456961Y-126580315D01*
X123411206Y-126527511D01*
X123400000Y-126476000D01*
X123400000Y-104477273D01*
X124809500Y-104477273D01*
X124809500Y-104582727D01*
X124836793Y-104684587D01*
X124889520Y-104775913D01*
X124964087Y-104850480D01*
X125055413Y-104903207D01*
X125157273Y-104930500D01*
X125157275Y-104930500D01*
X125262725Y-104930500D01*
X125262727Y-104930500D01*
X125364587Y-104903207D01*
X125455913Y-104850480D01*
X125530480Y-104775913D01*
X125583207Y-104684587D01*
X125610500Y-104582727D01*
X125610500Y-104477273D01*
X125583207Y-104375413D01*
X125530480Y-104284087D01*
X125455913Y-104209520D01*
X125364587Y-104156793D01*
X125262727Y-104129500D01*
X125157273Y-104129500D01*
X125055413Y-104156793D01*
X125055410Y-104156794D01*
X124964085Y-104209521D01*
X124889521Y-104284085D01*
X124836794Y-104375410D01*
X124836793Y-104375413D01*
X124809500Y-104477273D01*
X123400000Y-104477273D01*
X123400000Y-99395843D01*
X123419685Y-99328804D01*
X123472489Y-99283049D01*
X123541647Y-99273105D01*
X123556079Y-99276064D01*
X123647273Y-99300500D01*
X123647275Y-99300500D01*
X123752725Y-99300500D01*
X123752727Y-99300500D01*
X123854587Y-99273207D01*
X123945913Y-99220480D01*
X124020480Y-99145913D01*
X124073207Y-99054587D01*
X124100500Y-98952727D01*
X124100500Y-98847273D01*
X124073207Y-98745413D01*
X124020480Y-98654087D01*
X123945913Y-98579520D01*
X123854587Y-98526793D01*
X123752727Y-98499500D01*
X123647273Y-98499500D01*
X123647271Y-98499500D01*
X123556092Y-98523931D01*
X123486243Y-98522268D01*
X123428380Y-98483105D01*
X123400877Y-98418876D01*
X123400000Y-98404156D01*
X123400000Y-97985937D01*
X128000000Y-97950000D01*
X128000000Y-126476000D01*
G37*
%TD.AperFunction*%
%TD*%
%TA.AperFunction,Conductor*%
%TO.N,/5v buck/V_{IN}*%
G36*
X104947273Y-102400500D02*
G01*
X105052727Y-102400500D01*
X105054593Y-102400000D01*
X106676000Y-102400000D01*
X106743039Y-102419685D01*
X106788794Y-102472489D01*
X106800000Y-102524000D01*
X106800000Y-105600000D01*
X107876000Y-105600000D01*
X107943039Y-105619685D01*
X107988794Y-105672489D01*
X108000000Y-105724000D01*
X108000000Y-108076000D01*
X107997449Y-108084685D01*
X107998738Y-108093647D01*
X107987759Y-108117687D01*
X107980315Y-108143039D01*
X107973474Y-108148966D01*
X107969713Y-108157203D01*
X107947478Y-108171492D01*
X107927511Y-108188794D01*
X107916996Y-108191081D01*
X107910935Y-108194977D01*
X107876000Y-108200000D01*
X107864651Y-108200000D01*
X107857022Y-108199500D01*
X107852727Y-108199500D01*
X107747273Y-108199500D01*
X107742978Y-108199500D01*
X107735349Y-108200000D01*
X107254593Y-108200000D01*
X107252727Y-108199500D01*
X107147273Y-108199500D01*
X107145407Y-108200000D01*
X106600000Y-108200000D01*
X106600000Y-109276000D01*
X106580315Y-109343039D01*
X106527511Y-109388794D01*
X106476000Y-109400000D01*
X96000000Y-109400000D01*
X96000000Y-135076000D01*
X95980315Y-135143039D01*
X95927511Y-135188794D01*
X95876000Y-135200000D01*
X90924000Y-135200000D01*
X90856961Y-135180315D01*
X90811206Y-135127511D01*
X90800000Y-135076000D01*
X90800000Y-133108965D01*
X91155000Y-133108965D01*
X91155000Y-133301032D01*
X91192466Y-133489388D01*
X91192468Y-133489396D01*
X91265965Y-133666833D01*
X91265968Y-133666839D01*
X91285449Y-133695994D01*
X91285450Y-133695994D01*
X91647037Y-133334407D01*
X91664075Y-133397992D01*
X91729901Y-133512006D01*
X91822993Y-133605098D01*
X91937007Y-133670924D01*
X92000590Y-133687961D01*
X91639003Y-134049547D01*
X91639004Y-134049548D01*
X91668162Y-134069032D01*
X91668164Y-134069033D01*
X91845602Y-134142530D01*
X91845610Y-134142532D01*
X92033966Y-134179998D01*
X92033970Y-134179999D01*
X92226030Y-134179999D01*
X92226033Y-134179998D01*
X92414389Y-134142532D01*
X92414397Y-134142530D01*
X92591836Y-134069032D01*
X92620994Y-134049547D01*
X92259409Y-133687961D01*
X92322993Y-133670924D01*
X92437007Y-133605098D01*
X92530099Y-133512006D01*
X92595925Y-133397992D01*
X92612962Y-133334407D01*
X92974548Y-133695993D01*
X92994033Y-133666835D01*
X93067531Y-133489396D01*
X93067533Y-133489388D01*
X93104999Y-133301032D01*
X93105000Y-133301029D01*
X93105000Y-133108969D01*
X93104999Y-133108965D01*
X93695000Y-133108965D01*
X93695000Y-133301032D01*
X93732466Y-133489388D01*
X93732468Y-133489396D01*
X93805965Y-133666833D01*
X93805968Y-133666839D01*
X93825449Y-133695994D01*
X93825450Y-133695994D01*
X94187037Y-133334407D01*
X94204075Y-133397992D01*
X94269901Y-133512006D01*
X94362993Y-133605098D01*
X94477007Y-133670924D01*
X94540590Y-133687961D01*
X94179003Y-134049547D01*
X94179004Y-134049548D01*
X94208162Y-134069032D01*
X94208164Y-134069033D01*
X94385602Y-134142530D01*
X94385610Y-134142532D01*
X94573966Y-134179998D01*
X94573970Y-134179999D01*
X94766030Y-134179999D01*
X94766033Y-134179998D01*
X94954389Y-134142532D01*
X94954397Y-134142530D01*
X95131836Y-134069032D01*
X95160994Y-134049547D01*
X94799409Y-133687961D01*
X94862993Y-133670924D01*
X94977007Y-133605098D01*
X95070099Y-133512006D01*
X95135925Y-133397992D01*
X95152962Y-133334407D01*
X95514548Y-133695993D01*
X95534033Y-133666835D01*
X95607531Y-133489396D01*
X95607533Y-133489388D01*
X95644999Y-133301032D01*
X95645000Y-133301029D01*
X95645000Y-133108969D01*
X95644999Y-133108965D01*
X95607533Y-132920609D01*
X95607531Y-132920601D01*
X95534034Y-132743163D01*
X95534033Y-132743161D01*
X95514549Y-132714003D01*
X95514548Y-132714002D01*
X95152962Y-133075589D01*
X95135925Y-133012006D01*
X95070099Y-132897992D01*
X94977007Y-132804900D01*
X94862993Y-132739074D01*
X94799409Y-132722036D01*
X95160995Y-132360449D01*
X95160995Y-132360448D01*
X95131840Y-132340967D01*
X95131834Y-132340964D01*
X94954397Y-132267467D01*
X94954389Y-132267465D01*
X94766033Y-132229999D01*
X94573966Y-132229999D01*
X94385610Y-132267465D01*
X94385602Y-132267467D01*
X94208165Y-132340964D01*
X94179004Y-132360448D01*
X94179004Y-132360449D01*
X94540591Y-132722036D01*
X94477007Y-132739074D01*
X94362993Y-132804900D01*
X94269901Y-132897992D01*
X94204075Y-133012006D01*
X94187037Y-133075590D01*
X93825450Y-132714003D01*
X93825449Y-132714003D01*
X93805965Y-132743164D01*
X93732468Y-132920601D01*
X93732466Y-132920609D01*
X93695000Y-133108965D01*
X93104999Y-133108965D01*
X93067533Y-132920609D01*
X93067531Y-132920601D01*
X92994034Y-132743163D01*
X92994033Y-132743161D01*
X92974549Y-132714003D01*
X92974548Y-132714002D01*
X92612962Y-133075589D01*
X92595925Y-133012006D01*
X92530099Y-132897992D01*
X92437007Y-132804900D01*
X92322993Y-132739074D01*
X92259409Y-132722036D01*
X92620995Y-132360449D01*
X92620995Y-132360448D01*
X92591840Y-132340967D01*
X92591834Y-132340964D01*
X92414397Y-132267467D01*
X92414389Y-132267465D01*
X92226033Y-132229999D01*
X92033966Y-132229999D01*
X91845610Y-132267465D01*
X91845602Y-132267467D01*
X91668165Y-132340964D01*
X91639004Y-132360448D01*
X91639004Y-132360449D01*
X92000591Y-132722036D01*
X91937007Y-132739074D01*
X91822993Y-132804900D01*
X91729901Y-132897992D01*
X91664075Y-133012006D01*
X91647037Y-133075590D01*
X91285450Y-132714003D01*
X91285449Y-132714003D01*
X91265965Y-132743164D01*
X91192468Y-132920601D01*
X91192466Y-132920609D01*
X91155000Y-133108965D01*
X90800000Y-133108965D01*
X90800000Y-130568965D01*
X91155000Y-130568965D01*
X91155000Y-130761032D01*
X91192466Y-130949388D01*
X91192468Y-130949396D01*
X91265965Y-131126833D01*
X91265968Y-131126839D01*
X91285449Y-131155994D01*
X91285450Y-131155994D01*
X91647037Y-130794407D01*
X91664075Y-130857992D01*
X91729901Y-130972006D01*
X91822993Y-131065098D01*
X91937007Y-131130924D01*
X92000590Y-131147961D01*
X91639003Y-131509547D01*
X91639004Y-131509548D01*
X91668162Y-131529032D01*
X91668164Y-131529033D01*
X91845602Y-131602530D01*
X91845610Y-131602532D01*
X92033966Y-131639998D01*
X92033970Y-131639999D01*
X92226030Y-131639999D01*
X92226033Y-131639998D01*
X92414389Y-131602532D01*
X92414397Y-131602530D01*
X92591836Y-131529032D01*
X92620994Y-131509547D01*
X92259409Y-131147961D01*
X92322993Y-131130924D01*
X92437007Y-131065098D01*
X92530099Y-130972006D01*
X92595925Y-130857992D01*
X92612962Y-130794407D01*
X92974548Y-131155993D01*
X92994033Y-131126835D01*
X93067531Y-130949396D01*
X93067533Y-130949388D01*
X93104999Y-130761032D01*
X93105000Y-130761029D01*
X93105000Y-130568969D01*
X93104999Y-130568965D01*
X93695000Y-130568965D01*
X93695000Y-130761032D01*
X93732466Y-130949388D01*
X93732468Y-130949396D01*
X93805965Y-131126833D01*
X93805968Y-131126839D01*
X93825449Y-131155994D01*
X93825450Y-131155994D01*
X94187037Y-130794407D01*
X94204075Y-130857992D01*
X94269901Y-130972006D01*
X94362993Y-131065098D01*
X94477007Y-131130924D01*
X94540590Y-131147961D01*
X94179003Y-131509547D01*
X94179004Y-131509548D01*
X94208162Y-131529032D01*
X94208164Y-131529033D01*
X94385602Y-131602530D01*
X94385610Y-131602532D01*
X94573966Y-131639998D01*
X94573970Y-131639999D01*
X94766030Y-131639999D01*
X94766033Y-131639998D01*
X94954389Y-131602532D01*
X94954397Y-131602530D01*
X95131836Y-131529032D01*
X95160994Y-131509547D01*
X94799409Y-131147961D01*
X94862993Y-131130924D01*
X94977007Y-131065098D01*
X95070099Y-130972006D01*
X95135925Y-130857992D01*
X95152962Y-130794407D01*
X95514548Y-131155993D01*
X95534033Y-131126835D01*
X95607531Y-130949396D01*
X95607533Y-130949388D01*
X95644999Y-130761032D01*
X95645000Y-130761029D01*
X95645000Y-130568969D01*
X95644999Y-130568965D01*
X95607533Y-130380609D01*
X95607531Y-130380601D01*
X95534034Y-130203163D01*
X95534033Y-130203161D01*
X95514549Y-130174003D01*
X95514548Y-130174002D01*
X95152962Y-130535589D01*
X95135925Y-130472006D01*
X95070099Y-130357992D01*
X94977007Y-130264900D01*
X94862993Y-130199074D01*
X94799409Y-130182036D01*
X95160995Y-129820449D01*
X95160995Y-129820448D01*
X95131840Y-129800967D01*
X95131834Y-129800964D01*
X94954397Y-129727467D01*
X94954389Y-129727465D01*
X94766033Y-129689999D01*
X94573966Y-129689999D01*
X94385610Y-129727465D01*
X94385602Y-129727467D01*
X94208165Y-129800964D01*
X94179004Y-129820448D01*
X94179004Y-129820449D01*
X94540591Y-130182036D01*
X94477007Y-130199074D01*
X94362993Y-130264900D01*
X94269901Y-130357992D01*
X94204075Y-130472006D01*
X94187037Y-130535590D01*
X93825450Y-130174003D01*
X93825449Y-130174003D01*
X93805965Y-130203164D01*
X93732468Y-130380601D01*
X93732466Y-130380609D01*
X93695000Y-130568965D01*
X93104999Y-130568965D01*
X93067533Y-130380609D01*
X93067531Y-130380601D01*
X92994034Y-130203163D01*
X92994033Y-130203161D01*
X92974549Y-130174003D01*
X92974548Y-130174002D01*
X92612962Y-130535589D01*
X92595925Y-130472006D01*
X92530099Y-130357992D01*
X92437007Y-130264900D01*
X92322993Y-130199074D01*
X92259409Y-130182036D01*
X92620995Y-129820449D01*
X92620995Y-129820448D01*
X92591840Y-129800967D01*
X92591834Y-129800964D01*
X92414397Y-129727467D01*
X92414389Y-129727465D01*
X92226033Y-129689999D01*
X92033966Y-129689999D01*
X91845610Y-129727465D01*
X91845602Y-129727467D01*
X91668165Y-129800964D01*
X91639004Y-129820448D01*
X91639004Y-129820449D01*
X92000591Y-130182036D01*
X91937007Y-130199074D01*
X91822993Y-130264900D01*
X91729901Y-130357992D01*
X91664075Y-130472006D01*
X91647037Y-130535590D01*
X91285450Y-130174003D01*
X91285449Y-130174003D01*
X91265965Y-130203164D01*
X91192468Y-130380601D01*
X91192466Y-130380609D01*
X91155000Y-130568965D01*
X90800000Y-130568965D01*
X90800000Y-128028965D01*
X91155000Y-128028965D01*
X91155000Y-128221032D01*
X91192466Y-128409388D01*
X91192468Y-128409396D01*
X91265965Y-128586833D01*
X91265968Y-128586839D01*
X91285449Y-128615994D01*
X91285450Y-128615994D01*
X91647037Y-128254407D01*
X91664075Y-128317992D01*
X91729901Y-128432006D01*
X91822993Y-128525098D01*
X91937007Y-128590924D01*
X92000590Y-128607961D01*
X91639003Y-128969547D01*
X91639004Y-128969548D01*
X91668162Y-128989032D01*
X91668164Y-128989033D01*
X91845602Y-129062530D01*
X91845610Y-129062532D01*
X92033966Y-129099998D01*
X92033970Y-129099999D01*
X92226030Y-129099999D01*
X92226033Y-129099998D01*
X92414389Y-129062532D01*
X92414397Y-129062530D01*
X92591836Y-128989032D01*
X92620994Y-128969547D01*
X92259409Y-128607961D01*
X92322993Y-128590924D01*
X92437007Y-128525098D01*
X92530099Y-128432006D01*
X92595925Y-128317992D01*
X92612962Y-128254407D01*
X92974548Y-128615993D01*
X92994033Y-128586835D01*
X93067531Y-128409396D01*
X93067533Y-128409388D01*
X93104999Y-128221032D01*
X93105000Y-128221029D01*
X93105000Y-128028969D01*
X93104999Y-128028965D01*
X93695000Y-128028965D01*
X93695000Y-128221032D01*
X93732466Y-128409388D01*
X93732468Y-128409396D01*
X93805965Y-128586833D01*
X93805968Y-128586839D01*
X93825449Y-128615994D01*
X93825450Y-128615994D01*
X94187037Y-128254407D01*
X94204075Y-128317992D01*
X94269901Y-128432006D01*
X94362993Y-128525098D01*
X94477007Y-128590924D01*
X94540590Y-128607961D01*
X94179003Y-128969547D01*
X94179004Y-128969548D01*
X94208162Y-128989032D01*
X94208164Y-128989033D01*
X94385602Y-129062530D01*
X94385610Y-129062532D01*
X94573966Y-129099998D01*
X94573970Y-129099999D01*
X94766030Y-129099999D01*
X94766033Y-129099998D01*
X94954389Y-129062532D01*
X94954397Y-129062530D01*
X95131836Y-128989032D01*
X95160994Y-128969547D01*
X94799409Y-128607961D01*
X94862993Y-128590924D01*
X94977007Y-128525098D01*
X95070099Y-128432006D01*
X95135925Y-128317992D01*
X95152962Y-128254407D01*
X95514548Y-128615993D01*
X95534033Y-128586835D01*
X95607531Y-128409396D01*
X95607533Y-128409388D01*
X95644999Y-128221032D01*
X95645000Y-128221029D01*
X95645000Y-128028969D01*
X95644999Y-128028965D01*
X95607533Y-127840609D01*
X95607531Y-127840601D01*
X95534034Y-127663163D01*
X95534033Y-127663161D01*
X95514549Y-127634003D01*
X95514548Y-127634002D01*
X95152962Y-127995589D01*
X95135925Y-127932006D01*
X95070099Y-127817992D01*
X94977007Y-127724900D01*
X94862993Y-127659074D01*
X94799409Y-127642036D01*
X95160995Y-127280449D01*
X95160995Y-127280448D01*
X95131840Y-127260967D01*
X95131834Y-127260964D01*
X94954397Y-127187467D01*
X94954389Y-127187465D01*
X94766033Y-127149999D01*
X94573966Y-127149999D01*
X94385610Y-127187465D01*
X94385602Y-127187467D01*
X94208165Y-127260964D01*
X94179004Y-127280448D01*
X94179004Y-127280449D01*
X94540591Y-127642036D01*
X94477007Y-127659074D01*
X94362993Y-127724900D01*
X94269901Y-127817992D01*
X94204075Y-127932006D01*
X94187037Y-127995590D01*
X93825450Y-127634003D01*
X93825449Y-127634003D01*
X93805965Y-127663164D01*
X93732468Y-127840601D01*
X93732466Y-127840609D01*
X93695000Y-128028965D01*
X93104999Y-128028965D01*
X93067533Y-127840609D01*
X93067531Y-127840601D01*
X92994034Y-127663163D01*
X92994033Y-127663161D01*
X92974549Y-127634003D01*
X92974548Y-127634002D01*
X92612962Y-127995589D01*
X92595925Y-127932006D01*
X92530099Y-127817992D01*
X92437007Y-127724900D01*
X92322993Y-127659074D01*
X92259409Y-127642036D01*
X92620995Y-127280449D01*
X92620995Y-127280448D01*
X92591840Y-127260967D01*
X92591834Y-127260964D01*
X92414397Y-127187467D01*
X92414389Y-127187465D01*
X92226033Y-127149999D01*
X92033966Y-127149999D01*
X91845610Y-127187465D01*
X91845602Y-127187467D01*
X91668165Y-127260964D01*
X91639004Y-127280448D01*
X91639004Y-127280449D01*
X92000591Y-127642036D01*
X91937007Y-127659074D01*
X91822993Y-127724900D01*
X91729901Y-127817992D01*
X91664075Y-127932006D01*
X91647037Y-127995590D01*
X91285450Y-127634003D01*
X91285449Y-127634003D01*
X91265965Y-127663164D01*
X91192468Y-127840601D01*
X91192466Y-127840609D01*
X91155000Y-128028965D01*
X90800000Y-128028965D01*
X90800000Y-124147273D01*
X93649500Y-124147273D01*
X93649500Y-124252727D01*
X93676793Y-124354587D01*
X93729520Y-124445913D01*
X93804087Y-124520480D01*
X93895413Y-124573207D01*
X93997273Y-124600500D01*
X93997275Y-124600500D01*
X94102725Y-124600500D01*
X94102727Y-124600500D01*
X94204587Y-124573207D01*
X94295913Y-124520480D01*
X94370480Y-124445913D01*
X94423207Y-124354587D01*
X94450500Y-124252727D01*
X94450500Y-124147273D01*
X94423207Y-124045413D01*
X94370480Y-123954087D01*
X94295913Y-123879520D01*
X94204587Y-123826793D01*
X94102727Y-123799500D01*
X93997273Y-123799500D01*
X93895413Y-123826793D01*
X93895410Y-123826794D01*
X93804085Y-123879521D01*
X93729521Y-123954085D01*
X93676794Y-124045410D01*
X93676793Y-124045413D01*
X93649500Y-124147273D01*
X90800000Y-124147273D01*
X90800000Y-121947273D01*
X93649500Y-121947273D01*
X93649500Y-122052727D01*
X93676793Y-122154587D01*
X93729520Y-122245913D01*
X93804087Y-122320480D01*
X93895413Y-122373207D01*
X93997273Y-122400500D01*
X93997275Y-122400500D01*
X94102725Y-122400500D01*
X94102727Y-122400500D01*
X94204587Y-122373207D01*
X94295913Y-122320480D01*
X94370480Y-122245913D01*
X94423207Y-122154587D01*
X94450500Y-122052727D01*
X94450500Y-121947273D01*
X94423207Y-121845413D01*
X94370480Y-121754087D01*
X94295913Y-121679520D01*
X94204587Y-121626793D01*
X94102727Y-121599500D01*
X93997273Y-121599500D01*
X93895413Y-121626793D01*
X93895410Y-121626794D01*
X93804085Y-121679521D01*
X93729521Y-121754085D01*
X93676794Y-121845410D01*
X93676793Y-121845413D01*
X93649500Y-121947273D01*
X90800000Y-121947273D01*
X90800000Y-107842073D01*
X95574500Y-107842073D01*
X95574500Y-107947527D01*
X95601793Y-108049387D01*
X95654520Y-108140713D01*
X95729087Y-108215280D01*
X95820413Y-108268007D01*
X95922273Y-108295300D01*
X95922275Y-108295300D01*
X96027725Y-108295300D01*
X96027727Y-108295300D01*
X96129587Y-108268007D01*
X96220913Y-108215280D01*
X96295480Y-108140713D01*
X96348207Y-108049387D01*
X96375500Y-107947527D01*
X96375500Y-107947273D01*
X100199500Y-107947273D01*
X100199500Y-108052727D01*
X100226793Y-108154587D01*
X100279520Y-108245913D01*
X100354087Y-108320480D01*
X100445413Y-108373207D01*
X100547273Y-108400500D01*
X100547275Y-108400500D01*
X100652725Y-108400500D01*
X100652727Y-108400500D01*
X100754587Y-108373207D01*
X100845913Y-108320480D01*
X100912319Y-108254074D01*
X100973642Y-108220589D01*
X101043334Y-108225573D01*
X101087681Y-108254074D01*
X101154087Y-108320480D01*
X101245413Y-108373207D01*
X101347273Y-108400500D01*
X101347275Y-108400500D01*
X101452725Y-108400500D01*
X101452727Y-108400500D01*
X101554587Y-108373207D01*
X101645913Y-108320480D01*
X101712319Y-108254074D01*
X101773642Y-108220589D01*
X101843334Y-108225573D01*
X101887681Y-108254074D01*
X101954087Y-108320480D01*
X102045413Y-108373207D01*
X102147273Y-108400500D01*
X102147275Y-108400500D01*
X102252725Y-108400500D01*
X102252727Y-108400500D01*
X102354587Y-108373207D01*
X102445913Y-108320480D01*
X102512319Y-108254074D01*
X102573642Y-108220589D01*
X102643334Y-108225573D01*
X102687681Y-108254074D01*
X102754087Y-108320480D01*
X102845413Y-108373207D01*
X102947273Y-108400500D01*
X102947275Y-108400500D01*
X103052725Y-108400500D01*
X103052727Y-108400500D01*
X103154587Y-108373207D01*
X103245913Y-108320480D01*
X103320480Y-108245913D01*
X103373207Y-108154587D01*
X103400500Y-108052727D01*
X103400500Y-107947273D01*
X103373207Y-107845413D01*
X103320480Y-107754087D01*
X103245913Y-107679520D01*
X103154587Y-107626793D01*
X103052727Y-107599500D01*
X102947273Y-107599500D01*
X102845413Y-107626793D01*
X102845410Y-107626794D01*
X102754085Y-107679521D01*
X102687681Y-107745926D01*
X102626358Y-107779411D01*
X102556666Y-107774427D01*
X102512319Y-107745926D01*
X102445914Y-107679521D01*
X102445913Y-107679520D01*
X102354587Y-107626793D01*
X102252727Y-107599500D01*
X102147273Y-107599500D01*
X102045413Y-107626793D01*
X102045410Y-107626794D01*
X101954085Y-107679521D01*
X101887681Y-107745926D01*
X101826358Y-107779411D01*
X101756666Y-107774427D01*
X101712319Y-107745926D01*
X101645914Y-107679521D01*
X101645913Y-107679520D01*
X101554587Y-107626793D01*
X101452727Y-107599500D01*
X101347273Y-107599500D01*
X101245413Y-107626793D01*
X101245410Y-107626794D01*
X101154085Y-107679521D01*
X101087681Y-107745926D01*
X101026358Y-107779411D01*
X100956666Y-107774427D01*
X100912319Y-107745926D01*
X100845914Y-107679521D01*
X100845913Y-107679520D01*
X100754587Y-107626793D01*
X100652727Y-107599500D01*
X100547273Y-107599500D01*
X100445413Y-107626793D01*
X100445410Y-107626794D01*
X100354085Y-107679521D01*
X100279521Y-107754085D01*
X100226794Y-107845410D01*
X100226793Y-107845413D01*
X100199500Y-107947273D01*
X96375500Y-107947273D01*
X96375500Y-107842073D01*
X96348207Y-107740213D01*
X96295480Y-107648887D01*
X96220913Y-107574320D01*
X96129587Y-107521593D01*
X96027727Y-107494300D01*
X95922273Y-107494300D01*
X95820413Y-107521593D01*
X95820410Y-107521594D01*
X95729085Y-107574321D01*
X95654521Y-107648885D01*
X95601794Y-107740210D01*
X95601793Y-107740213D01*
X95574500Y-107842073D01*
X90800000Y-107842073D01*
X90800000Y-104124000D01*
X90819685Y-104056961D01*
X90872489Y-104011206D01*
X90924000Y-104000000D01*
X103600000Y-104000000D01*
X103600000Y-102524000D01*
X103619685Y-102456961D01*
X103672489Y-102411206D01*
X103724000Y-102400000D01*
X104945407Y-102400000D01*
X104947273Y-102400500D01*
G37*
%TD.AperFunction*%
%TD*%
%TA.AperFunction,Conductor*%
%TO.N,/CAN pwr sw/CAN_3V3*%
G36*
X123142222Y-98163139D02*
G01*
X123188388Y-98215584D01*
X123200000Y-98267975D01*
X123200000Y-126476000D01*
X123180315Y-126543039D01*
X123127511Y-126588794D01*
X123076000Y-126600000D01*
X122611232Y-126600000D01*
X122488791Y-98272126D01*
X122508186Y-98205006D01*
X122560791Y-98159023D01*
X122611817Y-98147598D01*
X123075032Y-98143979D01*
X123142222Y-98163139D01*
G37*
%TD.AperFunction*%
%TD*%
%TA.AperFunction,Conductor*%
%TO.N,+3V3*%
G36*
X127943039Y-39035185D02*
G01*
X127988794Y-39087989D01*
X128000000Y-39139500D01*
X128000000Y-80600000D01*
X128000000Y-97950000D01*
X123400000Y-97985937D01*
X123399999Y-97985936D01*
X121600512Y-97999996D01*
X121599543Y-98000000D01*
X121070664Y-98000000D01*
X121003625Y-97980315D01*
X120957870Y-97927511D01*
X120947926Y-97858353D01*
X120950889Y-97843907D01*
X120961343Y-97804892D01*
X120978000Y-97742727D01*
X120978000Y-97637273D01*
X120950707Y-97535413D01*
X120897980Y-97444087D01*
X120823413Y-97369520D01*
X120732087Y-97316793D01*
X120630227Y-97289500D01*
X120524773Y-97289500D01*
X120422913Y-97316793D01*
X120422910Y-97316794D01*
X120331585Y-97369521D01*
X120257021Y-97444085D01*
X120204294Y-97535410D01*
X120204293Y-97535413D01*
X120177000Y-97637273D01*
X120177000Y-97742727D01*
X120191251Y-97795913D01*
X120204111Y-97843907D01*
X120202448Y-97913757D01*
X120163285Y-97971619D01*
X120099057Y-97999123D01*
X120084336Y-98000000D01*
X116823629Y-98000000D01*
X116756590Y-97980315D01*
X116710835Y-97927511D01*
X116700891Y-97858353D01*
X116719930Y-97813143D01*
X116717830Y-97811930D01*
X116721892Y-97804893D01*
X116721894Y-97804892D01*
X116774621Y-97713566D01*
X116801914Y-97611706D01*
X116801914Y-97506252D01*
X116774621Y-97404392D01*
X116721894Y-97313066D01*
X116647327Y-97238499D01*
X116556001Y-97185772D01*
X116454141Y-97158479D01*
X116348687Y-97158479D01*
X116246827Y-97185772D01*
X116246824Y-97185773D01*
X116155499Y-97238500D01*
X116080935Y-97313064D01*
X116028208Y-97404389D01*
X116028207Y-97404392D01*
X116000914Y-97506252D01*
X116000914Y-97611706D01*
X116028207Y-97713566D01*
X116080934Y-97804892D01*
X116080935Y-97804893D01*
X116084998Y-97811930D01*
X116082539Y-97813349D01*
X116102770Y-97865697D01*
X116088724Y-97934140D01*
X116039905Y-97984124D01*
X115979199Y-98000000D01*
X115715325Y-98000000D01*
X115648286Y-97980315D01*
X115602531Y-97927511D01*
X115592587Y-97858353D01*
X115616948Y-97800515D01*
X115620473Y-97795919D01*
X115620480Y-97795913D01*
X115673207Y-97704587D01*
X115700500Y-97602727D01*
X115700500Y-97497273D01*
X115673207Y-97395413D01*
X115620480Y-97304087D01*
X115545913Y-97229520D01*
X115454587Y-97176793D01*
X115352727Y-97149500D01*
X115247273Y-97149500D01*
X115145413Y-97176793D01*
X115145410Y-97176794D01*
X115054085Y-97229521D01*
X114979521Y-97304085D01*
X114926794Y-97395410D01*
X114926793Y-97395413D01*
X114899500Y-97497273D01*
X114899500Y-97602727D01*
X114908757Y-97637273D01*
X114926793Y-97704586D01*
X114926794Y-97704589D01*
X114948813Y-97742727D01*
X114979520Y-97795913D01*
X114979522Y-97795915D01*
X114983052Y-97800515D01*
X115008245Y-97865684D01*
X114994206Y-97934129D01*
X114945392Y-97984118D01*
X114884675Y-98000000D01*
X107724000Y-98000000D01*
X107656961Y-97980315D01*
X107611206Y-97927511D01*
X107600000Y-97876000D01*
X107600000Y-95927273D01*
X113129500Y-95927273D01*
X113129500Y-96032727D01*
X113156793Y-96134587D01*
X113209520Y-96225913D01*
X113284087Y-96300480D01*
X113375413Y-96353207D01*
X113477273Y-96380500D01*
X113477275Y-96380500D01*
X113582725Y-96380500D01*
X113582727Y-96380500D01*
X113684587Y-96353207D01*
X113775913Y-96300480D01*
X113850480Y-96225913D01*
X113903207Y-96134587D01*
X113930500Y-96032727D01*
X113930500Y-95927273D01*
X113903207Y-95825413D01*
X113850480Y-95734087D01*
X113775913Y-95659520D01*
X113684587Y-95606793D01*
X113582727Y-95579500D01*
X113477273Y-95579500D01*
X113375413Y-95606793D01*
X113375410Y-95606794D01*
X113284085Y-95659521D01*
X113209521Y-95734085D01*
X113156794Y-95825410D01*
X113156793Y-95825413D01*
X113129500Y-95927273D01*
X107600000Y-95927273D01*
X107600000Y-94947273D01*
X116799500Y-94947273D01*
X116799500Y-95052727D01*
X116826793Y-95154587D01*
X116879520Y-95245913D01*
X116954087Y-95320480D01*
X117045413Y-95373207D01*
X117147273Y-95400500D01*
X117147275Y-95400500D01*
X117252725Y-95400500D01*
X117252727Y-95400500D01*
X117354587Y-95373207D01*
X117445913Y-95320480D01*
X117520480Y-95245913D01*
X117573207Y-95154587D01*
X117600500Y-95052727D01*
X117600500Y-94947273D01*
X117573207Y-94845413D01*
X117520480Y-94754087D01*
X117445913Y-94679520D01*
X117354587Y-94626793D01*
X117252727Y-94599500D01*
X117147273Y-94599500D01*
X117045413Y-94626793D01*
X117045410Y-94626794D01*
X116954085Y-94679521D01*
X116879521Y-94754085D01*
X116826794Y-94845410D01*
X116826793Y-94845413D01*
X116799500Y-94947273D01*
X107600000Y-94947273D01*
X107600000Y-94147273D01*
X119699500Y-94147273D01*
X119699500Y-94252727D01*
X119726793Y-94354587D01*
X119779520Y-94445913D01*
X119854087Y-94520480D01*
X119945413Y-94573207D01*
X120047273Y-94600500D01*
X120047275Y-94600500D01*
X120152725Y-94600500D01*
X120152727Y-94600500D01*
X120254587Y-94573207D01*
X120345913Y-94520480D01*
X120420480Y-94445913D01*
X120473207Y-94354587D01*
X120500500Y-94252727D01*
X120500500Y-94147273D01*
X120473207Y-94045413D01*
X120420480Y-93954087D01*
X120345913Y-93879520D01*
X120254587Y-93826793D01*
X120152727Y-93799500D01*
X120047273Y-93799500D01*
X119945413Y-93826793D01*
X119945410Y-93826794D01*
X119854085Y-93879521D01*
X119779521Y-93954085D01*
X119726794Y-94045410D01*
X119726793Y-94045413D01*
X119699500Y-94147273D01*
X107600000Y-94147273D01*
X107600000Y-92747273D01*
X110129500Y-92747273D01*
X110129500Y-92852727D01*
X110144154Y-92907415D01*
X110156793Y-92954586D01*
X110156794Y-92954589D01*
X110167667Y-92973422D01*
X110209520Y-93045913D01*
X110284087Y-93120480D01*
X110375413Y-93173207D01*
X110477273Y-93200500D01*
X110477275Y-93200500D01*
X110582725Y-93200500D01*
X110582727Y-93200500D01*
X110684587Y-93173207D01*
X110775913Y-93120480D01*
X110850480Y-93045913D01*
X110864496Y-93021635D01*
X110915062Y-92973422D01*
X110983669Y-92960198D01*
X111048533Y-92986166D01*
X111059563Y-92995956D01*
X111134087Y-93070480D01*
X111225413Y-93123207D01*
X111327273Y-93150500D01*
X111327275Y-93150500D01*
X111432725Y-93150500D01*
X111432727Y-93150500D01*
X111534587Y-93123207D01*
X111625913Y-93070480D01*
X111700480Y-92995913D01*
X111753207Y-92904587D01*
X111780500Y-92802727D01*
X111780500Y-92697273D01*
X111753207Y-92595413D01*
X111700480Y-92504087D01*
X111625913Y-92429520D01*
X111534587Y-92376793D01*
X111432727Y-92349500D01*
X111327273Y-92349500D01*
X111225413Y-92376793D01*
X111225410Y-92376794D01*
X111134085Y-92429521D01*
X111059521Y-92504085D01*
X111045502Y-92528366D01*
X110994933Y-92576580D01*
X110926326Y-92589800D01*
X110861462Y-92563830D01*
X110850436Y-92554043D01*
X110775914Y-92479521D01*
X110775913Y-92479520D01*
X110689312Y-92429521D01*
X110684589Y-92426794D01*
X110684588Y-92426793D01*
X110684587Y-92426793D01*
X110582727Y-92399500D01*
X110477273Y-92399500D01*
X110375413Y-92426793D01*
X110375410Y-92426794D01*
X110284085Y-92479521D01*
X110209521Y-92554085D01*
X110156794Y-92645410D01*
X110156793Y-92645413D01*
X110129500Y-92747273D01*
X107600000Y-92747273D01*
X107600000Y-91319260D01*
X111884293Y-91319260D01*
X112069424Y-91504392D01*
X112069428Y-91504395D01*
X112099099Y-91524221D01*
X112099102Y-91524222D01*
X112145922Y-91533534D01*
X112145924Y-91533534D01*
X112192743Y-91524222D01*
X112192746Y-91524221D01*
X112222416Y-91504396D01*
X112407552Y-91319259D01*
X112145924Y-91057631D01*
X111884293Y-91319260D01*
X107600000Y-91319260D01*
X107600000Y-91246291D01*
X107619685Y-91179252D01*
X107672489Y-91133497D01*
X107741647Y-91123553D01*
X107785994Y-91138901D01*
X107845413Y-91173207D01*
X107947273Y-91200500D01*
X107947275Y-91200500D01*
X108052725Y-91200500D01*
X108052727Y-91200500D01*
X108154587Y-91173207D01*
X108245913Y-91120480D01*
X108320480Y-91045913D01*
X108373207Y-90954587D01*
X108400500Y-90852727D01*
X108400500Y-90747273D01*
X108388925Y-90704075D01*
X111316466Y-90704075D01*
X111316466Y-90704078D01*
X111325777Y-90750897D01*
X111325778Y-90750900D01*
X111345604Y-90780571D01*
X111345607Y-90780575D01*
X111530738Y-90965706D01*
X111792368Y-90704076D01*
X111749582Y-90661290D01*
X111820923Y-90661290D01*
X111820923Y-90746864D01*
X111843072Y-90829522D01*
X111885859Y-90903631D01*
X111946369Y-90964141D01*
X112020478Y-91006928D01*
X112103136Y-91029077D01*
X112188710Y-91029077D01*
X112271368Y-91006928D01*
X112345477Y-90964141D01*
X112405987Y-90903631D01*
X112448774Y-90829522D01*
X112470923Y-90746864D01*
X112470923Y-90675523D01*
X112761105Y-90965706D01*
X112946242Y-90780570D01*
X112966067Y-90750900D01*
X112966068Y-90750897D01*
X112975380Y-90704078D01*
X112975380Y-90704075D01*
X112966068Y-90657256D01*
X112966067Y-90657253D01*
X112960848Y-90649442D01*
X112939970Y-90582765D01*
X112958454Y-90515385D01*
X113010433Y-90468694D01*
X113063950Y-90456551D01*
X113108020Y-90456551D01*
X113192564Y-90439733D01*
X113233693Y-90431552D01*
X113352076Y-90382516D01*
X113458618Y-90311327D01*
X113549225Y-90220720D01*
X113620414Y-90114178D01*
X113669450Y-89995795D01*
X113687758Y-89903758D01*
X113694449Y-89870122D01*
X113694449Y-89741980D01*
X113685101Y-89694988D01*
X113691328Y-89625396D01*
X113734190Y-89570218D01*
X113800080Y-89546973D01*
X113830911Y-89549178D01*
X113877904Y-89558526D01*
X113877905Y-89558526D01*
X114006045Y-89558526D01*
X114090589Y-89541708D01*
X114131718Y-89533527D01*
X114250101Y-89484491D01*
X114356643Y-89413302D01*
X114447250Y-89322695D01*
X114518439Y-89216153D01*
X114567475Y-89097770D01*
X114586381Y-89002727D01*
X114592474Y-88972097D01*
X114592474Y-88843954D01*
X114583126Y-88796961D01*
X114589353Y-88727369D01*
X114632215Y-88672192D01*
X114698105Y-88648947D01*
X114728935Y-88651152D01*
X114775928Y-88660500D01*
X114775931Y-88660500D01*
X114904071Y-88660500D01*
X114988615Y-88643682D01*
X115029744Y-88635501D01*
X115148127Y-88586465D01*
X115254669Y-88515276D01*
X115345276Y-88424669D01*
X115416465Y-88318127D01*
X115465501Y-88199744D01*
X115474969Y-88152145D01*
X115490500Y-88074071D01*
X115490500Y-87945929D01*
X115481152Y-87898937D01*
X115483090Y-87877273D01*
X119619500Y-87877273D01*
X119619500Y-87982727D01*
X119646793Y-88084587D01*
X119699520Y-88175913D01*
X119774087Y-88250480D01*
X119865413Y-88303207D01*
X119967273Y-88330500D01*
X119967275Y-88330500D01*
X120072725Y-88330500D01*
X120072727Y-88330500D01*
X120174587Y-88303207D01*
X120265913Y-88250480D01*
X120294120Y-88222273D01*
X123249500Y-88222273D01*
X123249500Y-88327727D01*
X123276793Y-88429587D01*
X123329520Y-88520913D01*
X123404087Y-88595480D01*
X123495413Y-88648207D01*
X123597273Y-88675500D01*
X123597275Y-88675500D01*
X123702725Y-88675500D01*
X123702727Y-88675500D01*
X123804587Y-88648207D01*
X123895913Y-88595480D01*
X123970480Y-88520913D01*
X124023207Y-88429587D01*
X124050500Y-88327727D01*
X124050500Y-88222273D01*
X124474500Y-88222273D01*
X124474500Y-88327727D01*
X124501793Y-88429587D01*
X124554520Y-88520913D01*
X124629087Y-88595480D01*
X124720413Y-88648207D01*
X124822273Y-88675500D01*
X124822275Y-88675500D01*
X124927725Y-88675500D01*
X124927727Y-88675500D01*
X125029587Y-88648207D01*
X125120913Y-88595480D01*
X125195480Y-88520913D01*
X125248207Y-88429587D01*
X125275500Y-88327727D01*
X125275500Y-88222273D01*
X125248207Y-88120413D01*
X125195480Y-88029087D01*
X125120913Y-87954520D01*
X125029587Y-87901793D01*
X124927727Y-87874500D01*
X124822273Y-87874500D01*
X124720413Y-87901793D01*
X124720410Y-87901794D01*
X124629085Y-87954521D01*
X124554521Y-88029085D01*
X124501794Y-88120410D01*
X124501793Y-88120413D01*
X124474500Y-88222273D01*
X124050500Y-88222273D01*
X124023207Y-88120413D01*
X123970480Y-88029087D01*
X123895913Y-87954520D01*
X123804587Y-87901793D01*
X123702727Y-87874500D01*
X123597273Y-87874500D01*
X123495413Y-87901793D01*
X123495410Y-87901794D01*
X123404085Y-87954521D01*
X123329521Y-88029085D01*
X123276794Y-88120410D01*
X123276793Y-88120413D01*
X123249500Y-88222273D01*
X120294120Y-88222273D01*
X120340480Y-88175913D01*
X120393207Y-88084587D01*
X120420500Y-87982727D01*
X120420500Y-87877273D01*
X120393207Y-87775413D01*
X120340480Y-87684087D01*
X120265913Y-87609520D01*
X120174587Y-87556793D01*
X120072727Y-87529500D01*
X119967273Y-87529500D01*
X119865413Y-87556793D01*
X119865410Y-87556794D01*
X119774085Y-87609521D01*
X119699521Y-87684085D01*
X119646794Y-87775410D01*
X119646793Y-87775413D01*
X119619500Y-87877273D01*
X115483090Y-87877273D01*
X115487379Y-87829345D01*
X115530241Y-87774167D01*
X115596131Y-87750922D01*
X115626962Y-87753127D01*
X115673955Y-87762475D01*
X115673956Y-87762475D01*
X115802096Y-87762475D01*
X115877233Y-87747529D01*
X115913412Y-87740331D01*
X115927769Y-87737476D01*
X116046152Y-87688440D01*
X116152694Y-87617251D01*
X116243301Y-87526644D01*
X116314490Y-87420102D01*
X116363526Y-87301719D01*
X116382576Y-87205951D01*
X116388525Y-87176046D01*
X116388525Y-87097273D01*
X120389500Y-87097273D01*
X120389500Y-87202727D01*
X120416793Y-87304587D01*
X120469520Y-87395913D01*
X120544087Y-87470480D01*
X120635413Y-87523207D01*
X120737273Y-87550500D01*
X120737275Y-87550500D01*
X120842725Y-87550500D01*
X120842727Y-87550500D01*
X120944587Y-87523207D01*
X121035913Y-87470480D01*
X121110480Y-87395913D01*
X121163207Y-87304587D01*
X121190500Y-87202727D01*
X121190500Y-87097273D01*
X121163207Y-86995413D01*
X121110480Y-86904087D01*
X121035913Y-86829520D01*
X120944587Y-86776793D01*
X120842727Y-86749500D01*
X120737273Y-86749500D01*
X120635413Y-86776793D01*
X120635410Y-86776794D01*
X120544085Y-86829521D01*
X120469521Y-86904085D01*
X120416794Y-86995410D01*
X120416793Y-86995413D01*
X120389500Y-87097273D01*
X116388525Y-87097273D01*
X116388525Y-87095593D01*
X116388525Y-87047906D01*
X116378059Y-86995293D01*
X116377464Y-86989587D01*
X116382780Y-86960639D01*
X116385404Y-86931318D01*
X116389020Y-86926662D01*
X116390085Y-86920866D01*
X116410207Y-86899387D01*
X116428266Y-86876141D01*
X116433824Y-86874180D01*
X116437855Y-86869878D01*
X116466403Y-86862686D01*
X116494156Y-86852896D01*
X116502812Y-86853515D01*
X116505608Y-86852811D01*
X116509022Y-86853959D01*
X116524986Y-86855101D01*
X116571979Y-86864449D01*
X116571982Y-86864449D01*
X116700122Y-86864449D01*
X116784666Y-86847631D01*
X116825795Y-86839450D01*
X116944178Y-86790414D01*
X117050720Y-86719225D01*
X117141327Y-86628618D01*
X117212516Y-86522076D01*
X117261552Y-86403693D01*
X117273736Y-86342441D01*
X117286551Y-86278020D01*
X117286551Y-86149877D01*
X117261553Y-86024210D01*
X117261552Y-86024209D01*
X117261552Y-86024205D01*
X117212516Y-85905822D01*
X117212515Y-85905821D01*
X117212512Y-85905815D01*
X117141327Y-85799280D01*
X117141324Y-85799276D01*
X117050723Y-85708675D01*
X117050719Y-85708672D01*
X116944184Y-85637487D01*
X116944175Y-85637482D01*
X116825795Y-85588448D01*
X116825789Y-85588446D01*
X116700122Y-85563449D01*
X116700120Y-85563449D01*
X116571982Y-85563449D01*
X116571980Y-85563449D01*
X116446312Y-85588446D01*
X116446306Y-85588448D01*
X116327926Y-85637482D01*
X116327917Y-85637487D01*
X116221382Y-85708672D01*
X116221378Y-85708675D01*
X116130777Y-85799276D01*
X116130774Y-85799280D01*
X116059589Y-85905815D01*
X116059584Y-85905824D01*
X116010550Y-86024204D01*
X116010548Y-86024210D01*
X115985551Y-86149877D01*
X115985551Y-86149880D01*
X115985551Y-86278018D01*
X115988061Y-86290636D01*
X115994899Y-86325015D01*
X115988670Y-86394606D01*
X115945807Y-86449783D01*
X115879917Y-86473027D01*
X115849091Y-86470823D01*
X115802094Y-86461475D01*
X115673956Y-86461475D01*
X115673954Y-86461475D01*
X115548286Y-86486472D01*
X115548280Y-86486474D01*
X115429900Y-86535508D01*
X115429891Y-86535513D01*
X115323356Y-86606698D01*
X115323352Y-86606701D01*
X115232751Y-86697302D01*
X115232748Y-86697306D01*
X115161563Y-86803841D01*
X115161558Y-86803850D01*
X115112524Y-86922230D01*
X115112522Y-86922236D01*
X115087525Y-87047903D01*
X115087525Y-87176048D01*
X115096872Y-87223039D01*
X115090645Y-87292631D01*
X115047781Y-87347808D01*
X114981892Y-87371052D01*
X114951064Y-87368847D01*
X114904073Y-87359500D01*
X114904069Y-87359500D01*
X114775931Y-87359500D01*
X114775929Y-87359500D01*
X114650261Y-87384497D01*
X114650255Y-87384499D01*
X114531875Y-87433533D01*
X114531866Y-87433538D01*
X114425331Y-87504723D01*
X114425327Y-87504726D01*
X114334726Y-87595327D01*
X114334723Y-87595331D01*
X114263538Y-87701866D01*
X114263533Y-87701875D01*
X114214499Y-87820255D01*
X114214497Y-87820261D01*
X114189500Y-87945928D01*
X114189500Y-87945929D01*
X114189500Y-87945931D01*
X114189500Y-88074069D01*
X114191004Y-88081631D01*
X114198848Y-88121066D01*
X114192619Y-88190657D01*
X114149756Y-88245834D01*
X114083866Y-88269078D01*
X114053040Y-88266874D01*
X114006043Y-88257526D01*
X113877905Y-88257526D01*
X113877903Y-88257526D01*
X113752235Y-88282523D01*
X113752229Y-88282525D01*
X113633849Y-88331559D01*
X113633840Y-88331564D01*
X113527305Y-88402749D01*
X113527301Y-88402752D01*
X113436700Y-88493353D01*
X113436697Y-88493357D01*
X113365512Y-88599892D01*
X113365507Y-88599901D01*
X113316473Y-88718281D01*
X113316471Y-88718287D01*
X113291474Y-88843954D01*
X113291474Y-88972099D01*
X113300821Y-89019090D01*
X113294594Y-89088682D01*
X113251730Y-89143859D01*
X113185841Y-89167103D01*
X113155013Y-89164898D01*
X113108022Y-89155551D01*
X113108018Y-89155551D01*
X112979880Y-89155551D01*
X112979878Y-89155551D01*
X112854210Y-89180548D01*
X112854204Y-89180550D01*
X112735824Y-89229584D01*
X112735815Y-89229589D01*
X112629280Y-89300774D01*
X112629276Y-89300777D01*
X112538675Y-89391378D01*
X112538672Y-89391382D01*
X112467487Y-89497917D01*
X112467482Y-89497926D01*
X112418448Y-89616306D01*
X112418446Y-89616312D01*
X112393449Y-89741979D01*
X112393449Y-89786050D01*
X112373764Y-89853089D01*
X112320960Y-89898844D01*
X112251802Y-89908788D01*
X112200558Y-89889152D01*
X112192746Y-89883932D01*
X112192743Y-89883931D01*
X112145924Y-89874620D01*
X112145922Y-89874620D01*
X112099102Y-89883931D01*
X112099099Y-89883932D01*
X112069428Y-89903758D01*
X112069424Y-89903761D01*
X111884293Y-90088892D01*
X111884293Y-90088893D01*
X112174477Y-90379077D01*
X112103136Y-90379077D01*
X112020478Y-90401226D01*
X111946369Y-90444013D01*
X111885859Y-90504523D01*
X111843072Y-90578632D01*
X111820923Y-90661290D01*
X111749582Y-90661290D01*
X111530739Y-90442447D01*
X111530738Y-90442447D01*
X111345607Y-90627578D01*
X111345604Y-90627582D01*
X111325778Y-90657253D01*
X111325777Y-90657256D01*
X111316466Y-90704075D01*
X108388925Y-90704075D01*
X108373207Y-90645413D01*
X108320480Y-90554087D01*
X108245913Y-90479520D01*
X108154587Y-90426793D01*
X108052727Y-90399500D01*
X107947273Y-90399500D01*
X107845413Y-90426793D01*
X107845410Y-90426794D01*
X107786000Y-90461095D01*
X107718100Y-90477568D01*
X107652073Y-90454715D01*
X107608882Y-90399794D01*
X107600000Y-90353708D01*
X107600000Y-84147273D01*
X109599500Y-84147273D01*
X109599500Y-84252727D01*
X109626793Y-84354587D01*
X109679520Y-84445913D01*
X109754087Y-84520480D01*
X109845413Y-84573207D01*
X109947273Y-84600500D01*
X109947275Y-84600500D01*
X110052725Y-84600500D01*
X110052727Y-84600500D01*
X110154587Y-84573207D01*
X110245913Y-84520480D01*
X110320480Y-84445913D01*
X110373207Y-84354587D01*
X110400500Y-84252727D01*
X110400500Y-84147273D01*
X110373207Y-84045413D01*
X110320480Y-83954087D01*
X110245913Y-83879520D01*
X110154587Y-83826793D01*
X110052727Y-83799500D01*
X109947273Y-83799500D01*
X109845413Y-83826793D01*
X109845410Y-83826794D01*
X109754085Y-83879521D01*
X109679521Y-83954085D01*
X109626794Y-84045410D01*
X109626793Y-84045413D01*
X109599500Y-84147273D01*
X107600000Y-84147273D01*
X107600000Y-81847273D01*
X111899500Y-81847273D01*
X111899500Y-81952727D01*
X111926793Y-82054587D01*
X111979520Y-82145913D01*
X112054087Y-82220480D01*
X112145413Y-82273207D01*
X112247273Y-82300500D01*
X112247275Y-82300500D01*
X112352725Y-82300500D01*
X112352727Y-82300500D01*
X112454587Y-82273207D01*
X112545913Y-82220480D01*
X112620480Y-82145913D01*
X112673207Y-82054587D01*
X112700500Y-81952727D01*
X112700500Y-81847273D01*
X114999500Y-81847273D01*
X114999500Y-81952727D01*
X115026793Y-82054587D01*
X115079520Y-82145913D01*
X115154087Y-82220480D01*
X115245413Y-82273207D01*
X115347273Y-82300500D01*
X115347275Y-82300500D01*
X115452725Y-82300500D01*
X115452727Y-82300500D01*
X115554587Y-82273207D01*
X115645913Y-82220480D01*
X115720480Y-82145913D01*
X115773207Y-82054587D01*
X115800500Y-81952727D01*
X115800500Y-81847273D01*
X115773207Y-81745413D01*
X115720480Y-81654087D01*
X115645913Y-81579520D01*
X115554587Y-81526793D01*
X115452727Y-81499500D01*
X115347273Y-81499500D01*
X115245413Y-81526793D01*
X115245410Y-81526794D01*
X115154085Y-81579521D01*
X115079521Y-81654085D01*
X115026794Y-81745410D01*
X115026793Y-81745413D01*
X114999500Y-81847273D01*
X112700500Y-81847273D01*
X112673207Y-81745413D01*
X112620480Y-81654087D01*
X112545913Y-81579520D01*
X112454587Y-81526793D01*
X112352727Y-81499500D01*
X112247273Y-81499500D01*
X112145413Y-81526793D01*
X112145410Y-81526794D01*
X112054085Y-81579521D01*
X111979521Y-81654085D01*
X111926794Y-81745410D01*
X111926793Y-81745413D01*
X111899500Y-81847273D01*
X107600000Y-81847273D01*
X107600000Y-80724000D01*
X107619685Y-80656961D01*
X107672489Y-80611206D01*
X107724000Y-80600000D01*
X120800000Y-80600000D01*
X120800000Y-77543341D01*
X121326003Y-77543341D01*
X121326003Y-77648795D01*
X121353296Y-77750655D01*
X121406023Y-77841981D01*
X121480590Y-77916548D01*
X121571916Y-77969275D01*
X121673776Y-77996568D01*
X121673778Y-77996568D01*
X121779228Y-77996568D01*
X121779230Y-77996568D01*
X121881090Y-77969275D01*
X121972416Y-77916548D01*
X122046983Y-77841981D01*
X122099710Y-77750655D01*
X122127003Y-77648795D01*
X122127003Y-77543341D01*
X122101262Y-77447273D01*
X126884280Y-77447273D01*
X126884280Y-77552727D01*
X126911573Y-77654587D01*
X126964300Y-77745913D01*
X127038867Y-77820480D01*
X127130193Y-77873207D01*
X127232053Y-77900500D01*
X127232055Y-77900500D01*
X127337505Y-77900500D01*
X127337507Y-77900500D01*
X127439367Y-77873207D01*
X127530693Y-77820480D01*
X127605260Y-77745913D01*
X127657987Y-77654587D01*
X127685280Y-77552727D01*
X127685280Y-77447273D01*
X127657987Y-77345413D01*
X127605260Y-77254087D01*
X127530693Y-77179520D01*
X127439367Y-77126793D01*
X127337507Y-77099500D01*
X127232053Y-77099500D01*
X127130193Y-77126793D01*
X127130190Y-77126794D01*
X127038865Y-77179521D01*
X126964301Y-77254085D01*
X126911574Y-77345410D01*
X126911573Y-77345413D01*
X126884280Y-77447273D01*
X122101262Y-77447273D01*
X122099710Y-77441481D01*
X122046983Y-77350155D01*
X121972416Y-77275588D01*
X121881090Y-77222861D01*
X121779230Y-77195568D01*
X121673776Y-77195568D01*
X121571916Y-77222861D01*
X121571913Y-77222862D01*
X121480588Y-77275589D01*
X121406024Y-77350153D01*
X121353297Y-77441478D01*
X121353296Y-77441481D01*
X121326003Y-77543341D01*
X120800000Y-77543341D01*
X120800000Y-74632767D01*
X126884280Y-74632767D01*
X126884280Y-74738221D01*
X126911573Y-74840081D01*
X126964300Y-74931407D01*
X127038867Y-75005974D01*
X127130193Y-75058701D01*
X127232053Y-75085994D01*
X127232055Y-75085994D01*
X127337505Y-75085994D01*
X127337507Y-75085994D01*
X127439367Y-75058701D01*
X127530693Y-75005974D01*
X127605260Y-74931407D01*
X127657987Y-74840081D01*
X127685280Y-74738221D01*
X127685280Y-74632767D01*
X127657987Y-74530907D01*
X127605260Y-74439581D01*
X127530693Y-74365014D01*
X127439367Y-74312287D01*
X127337507Y-74284994D01*
X127232053Y-74284994D01*
X127130193Y-74312287D01*
X127130190Y-74312288D01*
X127038865Y-74365015D01*
X126964301Y-74439579D01*
X126911574Y-74530904D01*
X126911573Y-74530907D01*
X126884280Y-74632767D01*
X120800000Y-74632767D01*
X120800000Y-73612769D01*
X120819685Y-73545730D01*
X120872489Y-73499975D01*
X120895111Y-73493478D01*
X120894877Y-73492603D01*
X120902725Y-73490500D01*
X120902727Y-73490500D01*
X121004587Y-73463207D01*
X121095913Y-73410480D01*
X121170480Y-73335913D01*
X121223207Y-73244587D01*
X121250500Y-73142727D01*
X121250500Y-73037273D01*
X121223207Y-72935413D01*
X121170480Y-72844087D01*
X121095913Y-72769520D01*
X121004587Y-72716793D01*
X120902727Y-72689500D01*
X120902726Y-72689500D01*
X120894877Y-72687397D01*
X120895582Y-72684765D01*
X120843887Y-72661876D01*
X120805435Y-72603539D01*
X120800000Y-72567230D01*
X120800000Y-71837273D01*
X123449500Y-71837273D01*
X123449500Y-71942727D01*
X123476793Y-72044587D01*
X123529520Y-72135913D01*
X123604087Y-72210480D01*
X123695413Y-72263207D01*
X123797273Y-72290500D01*
X123797275Y-72290500D01*
X123902725Y-72290500D01*
X123902727Y-72290500D01*
X124004587Y-72263207D01*
X124095913Y-72210480D01*
X124170480Y-72135913D01*
X124223207Y-72044587D01*
X124250500Y-71942727D01*
X124250500Y-71837273D01*
X124245406Y-71818261D01*
X126884280Y-71818261D01*
X126884280Y-71923715D01*
X126911573Y-72025575D01*
X126964300Y-72116901D01*
X127038867Y-72191468D01*
X127130193Y-72244195D01*
X127232053Y-72271488D01*
X127232055Y-72271488D01*
X127337505Y-72271488D01*
X127337507Y-72271488D01*
X127439367Y-72244195D01*
X127530693Y-72191468D01*
X127605260Y-72116901D01*
X127657987Y-72025575D01*
X127685280Y-71923715D01*
X127685280Y-71818261D01*
X127657987Y-71716401D01*
X127605260Y-71625075D01*
X127530693Y-71550508D01*
X127439367Y-71497781D01*
X127337507Y-71470488D01*
X127232053Y-71470488D01*
X127130193Y-71497781D01*
X127130190Y-71497782D01*
X127038865Y-71550509D01*
X126964301Y-71625073D01*
X126911574Y-71716398D01*
X126911573Y-71716401D01*
X126884280Y-71818261D01*
X124245406Y-71818261D01*
X124223207Y-71735413D01*
X124170480Y-71644087D01*
X124095913Y-71569520D01*
X124004587Y-71516793D01*
X123902727Y-71489500D01*
X123797273Y-71489500D01*
X123695413Y-71516793D01*
X123695410Y-71516794D01*
X123604085Y-71569521D01*
X123529521Y-71644085D01*
X123476794Y-71735410D01*
X123476793Y-71735413D01*
X123449500Y-71837273D01*
X120800000Y-71837273D01*
X120800000Y-69322273D01*
X125399500Y-69322273D01*
X125399500Y-69427727D01*
X125426793Y-69529587D01*
X125479520Y-69620913D01*
X125554087Y-69695480D01*
X125645413Y-69748207D01*
X125747273Y-69775500D01*
X125747275Y-69775500D01*
X125852725Y-69775500D01*
X125852727Y-69775500D01*
X125954587Y-69748207D01*
X126045913Y-69695480D01*
X126120480Y-69620913D01*
X126173207Y-69529587D01*
X126200500Y-69427727D01*
X126200500Y-69322273D01*
X126173207Y-69220413D01*
X126120480Y-69129087D01*
X126045913Y-69054520D01*
X125957989Y-69003757D01*
X125957986Y-69003755D01*
X126884280Y-69003755D01*
X126884280Y-69109209D01*
X126911573Y-69211069D01*
X126964300Y-69302395D01*
X127038867Y-69376962D01*
X127130193Y-69429689D01*
X127232053Y-69456982D01*
X127232055Y-69456982D01*
X127337505Y-69456982D01*
X127337507Y-69456982D01*
X127439367Y-69429689D01*
X127530693Y-69376962D01*
X127605260Y-69302395D01*
X127657987Y-69211069D01*
X127685280Y-69109209D01*
X127685280Y-69003755D01*
X127657987Y-68901895D01*
X127605260Y-68810569D01*
X127530693Y-68736002D01*
X127439367Y-68683275D01*
X127337507Y-68655982D01*
X127232053Y-68655982D01*
X127130193Y-68683275D01*
X127130190Y-68683276D01*
X127038865Y-68736003D01*
X126964301Y-68810567D01*
X126911574Y-68901892D01*
X126911573Y-68901895D01*
X126884280Y-69003755D01*
X125957986Y-69003755D01*
X125954589Y-69001794D01*
X125954588Y-69001793D01*
X125954587Y-69001793D01*
X125852727Y-68974500D01*
X125747273Y-68974500D01*
X125645413Y-69001793D01*
X125645410Y-69001794D01*
X125554085Y-69054521D01*
X125479521Y-69129085D01*
X125426794Y-69220410D01*
X125426793Y-69220413D01*
X125399500Y-69322273D01*
X120800000Y-69322273D01*
X120800000Y-66472273D01*
X125374500Y-66472273D01*
X125374500Y-66577727D01*
X125401793Y-66679587D01*
X125454520Y-66770913D01*
X125529087Y-66845480D01*
X125620413Y-66898207D01*
X125722273Y-66925500D01*
X125722275Y-66925500D01*
X125827725Y-66925500D01*
X125827727Y-66925500D01*
X125929587Y-66898207D01*
X126020913Y-66845480D01*
X126095480Y-66770913D01*
X126148207Y-66679587D01*
X126175500Y-66577727D01*
X126175500Y-66472273D01*
X126148207Y-66370413D01*
X126095480Y-66279087D01*
X126020913Y-66204520D01*
X125994465Y-66189250D01*
X126884280Y-66189250D01*
X126884280Y-66294704D01*
X126911573Y-66396564D01*
X126964300Y-66487890D01*
X127038867Y-66562457D01*
X127130193Y-66615184D01*
X127232053Y-66642477D01*
X127232055Y-66642477D01*
X127337505Y-66642477D01*
X127337507Y-66642477D01*
X127439367Y-66615184D01*
X127530693Y-66562457D01*
X127605260Y-66487890D01*
X127657987Y-66396564D01*
X127685280Y-66294704D01*
X127685280Y-66189250D01*
X127657987Y-66087390D01*
X127605260Y-65996064D01*
X127530693Y-65921497D01*
X127439367Y-65868770D01*
X127337507Y-65841477D01*
X127232053Y-65841477D01*
X127130193Y-65868770D01*
X127130190Y-65868771D01*
X127038865Y-65921498D01*
X126964301Y-65996062D01*
X126911574Y-66087387D01*
X126911573Y-66087390D01*
X126884280Y-66189250D01*
X125994465Y-66189250D01*
X125929587Y-66151793D01*
X125827727Y-66124500D01*
X125722273Y-66124500D01*
X125620413Y-66151793D01*
X125620410Y-66151794D01*
X125529085Y-66204521D01*
X125454521Y-66279085D01*
X125401794Y-66370410D01*
X125401793Y-66370413D01*
X125374500Y-66472273D01*
X120800000Y-66472273D01*
X120800000Y-63374744D01*
X126884280Y-63374744D01*
X126884280Y-63480197D01*
X126911573Y-63582057D01*
X126911574Y-63582060D01*
X126918995Y-63594914D01*
X126964300Y-63673384D01*
X127038867Y-63747951D01*
X127130193Y-63800678D01*
X127232053Y-63827971D01*
X127232055Y-63827971D01*
X127337505Y-63827971D01*
X127337507Y-63827971D01*
X127439367Y-63800678D01*
X127530693Y-63747951D01*
X127605260Y-63673384D01*
X127657987Y-63582058D01*
X127685280Y-63480198D01*
X127685280Y-63374744D01*
X127657987Y-63272884D01*
X127605260Y-63181558D01*
X127530693Y-63106991D01*
X127439367Y-63054264D01*
X127337507Y-63026971D01*
X127232053Y-63026971D01*
X127130193Y-63054264D01*
X127130190Y-63054265D01*
X127038865Y-63106992D01*
X126964301Y-63181556D01*
X126911574Y-63272881D01*
X126911573Y-63272884D01*
X126884280Y-63374744D01*
X120800000Y-63374744D01*
X120800000Y-60142273D01*
X122344500Y-60142273D01*
X122344500Y-60247727D01*
X122371793Y-60349587D01*
X122424520Y-60440913D01*
X122499087Y-60515480D01*
X122590413Y-60568207D01*
X122692273Y-60595500D01*
X122692275Y-60595500D01*
X122797725Y-60595500D01*
X122797727Y-60595500D01*
X122899587Y-60568207D01*
X122913390Y-60560238D01*
X126884280Y-60560238D01*
X126884280Y-60665692D01*
X126911573Y-60767552D01*
X126964300Y-60858878D01*
X127038867Y-60933445D01*
X127130193Y-60986172D01*
X127232053Y-61013465D01*
X127232055Y-61013465D01*
X127337505Y-61013465D01*
X127337507Y-61013465D01*
X127439367Y-60986172D01*
X127530693Y-60933445D01*
X127605260Y-60858878D01*
X127657987Y-60767552D01*
X127685280Y-60665692D01*
X127685280Y-60560238D01*
X127657987Y-60458378D01*
X127605260Y-60367052D01*
X127530693Y-60292485D01*
X127439367Y-60239758D01*
X127337507Y-60212465D01*
X127232053Y-60212465D01*
X127130193Y-60239758D01*
X127130190Y-60239759D01*
X127038865Y-60292486D01*
X126964301Y-60367050D01*
X126911574Y-60458375D01*
X126911573Y-60458378D01*
X126884280Y-60560238D01*
X122913390Y-60560238D01*
X122990913Y-60515480D01*
X123065480Y-60440913D01*
X123118207Y-60349587D01*
X123145500Y-60247727D01*
X123145500Y-60142273D01*
X123118207Y-60040413D01*
X123065480Y-59949087D01*
X122990913Y-59874520D01*
X122899587Y-59821793D01*
X122797727Y-59794500D01*
X122692273Y-59794500D01*
X122590413Y-59821793D01*
X122590410Y-59821794D01*
X122499085Y-59874521D01*
X122424521Y-59949085D01*
X122371794Y-60040410D01*
X122371793Y-60040413D01*
X122344500Y-60142273D01*
X120800000Y-60142273D01*
X120800000Y-59200000D01*
X118532088Y-59200000D01*
X118465049Y-59180315D01*
X118424701Y-59138001D01*
X118423207Y-59135413D01*
X118370480Y-59044087D01*
X118295913Y-58969520D01*
X118204587Y-58916793D01*
X118102727Y-58889500D01*
X117997273Y-58889500D01*
X117895413Y-58916793D01*
X117895410Y-58916794D01*
X117804085Y-58969521D01*
X117729522Y-59044084D01*
X117675299Y-59138001D01*
X117624731Y-59186216D01*
X117567912Y-59200000D01*
X109324000Y-59200000D01*
X109256961Y-59180315D01*
X109211206Y-59127511D01*
X109200000Y-59076000D01*
X109200000Y-57745732D01*
X110358195Y-57745732D01*
X110358195Y-57851186D01*
X110385488Y-57953046D01*
X110438215Y-58044372D01*
X110512782Y-58118939D01*
X110604108Y-58171666D01*
X110705968Y-58198959D01*
X110705970Y-58198959D01*
X110811420Y-58198959D01*
X110811422Y-58198959D01*
X110913282Y-58171666D01*
X111004608Y-58118939D01*
X111079175Y-58044372D01*
X111131902Y-57953046D01*
X111159195Y-57851186D01*
X111159195Y-57745732D01*
X113112543Y-57745732D01*
X113112543Y-57851186D01*
X113139836Y-57953046D01*
X113192563Y-58044372D01*
X113267130Y-58118939D01*
X113358456Y-58171666D01*
X113460316Y-58198959D01*
X113460318Y-58198959D01*
X113565768Y-58198959D01*
X113565770Y-58198959D01*
X113667630Y-58171666D01*
X113758956Y-58118939D01*
X113833523Y-58044372D01*
X113886250Y-57953046D01*
X113913543Y-57851186D01*
X113913543Y-57745732D01*
X115866890Y-57745732D01*
X115866890Y-57851186D01*
X115894183Y-57953046D01*
X115946910Y-58044372D01*
X116021477Y-58118939D01*
X116112803Y-58171666D01*
X116214663Y-58198959D01*
X116214665Y-58198959D01*
X116320115Y-58198959D01*
X116320117Y-58198959D01*
X116421977Y-58171666D01*
X116513303Y-58118939D01*
X116587870Y-58044372D01*
X116640597Y-57953046D01*
X116667890Y-57851186D01*
X116667890Y-57745732D01*
X118621238Y-57745732D01*
X118621238Y-57851186D01*
X118648531Y-57953046D01*
X118701258Y-58044372D01*
X118775825Y-58118939D01*
X118867151Y-58171666D01*
X118969011Y-58198959D01*
X118969013Y-58198959D01*
X119074463Y-58198959D01*
X119074465Y-58198959D01*
X119176325Y-58171666D01*
X119267651Y-58118939D01*
X119342218Y-58044372D01*
X119394945Y-57953046D01*
X119422238Y-57851186D01*
X119422238Y-57745732D01*
X121375585Y-57745732D01*
X121375585Y-57851186D01*
X121402878Y-57953046D01*
X121455605Y-58044372D01*
X121530172Y-58118939D01*
X121621498Y-58171666D01*
X121723358Y-58198959D01*
X121723360Y-58198959D01*
X121828810Y-58198959D01*
X121828812Y-58198959D01*
X121930672Y-58171666D01*
X122021998Y-58118939D01*
X122096565Y-58044372D01*
X122149292Y-57953046D01*
X122176585Y-57851186D01*
X122176585Y-57745732D01*
X124129933Y-57745732D01*
X124129933Y-57851186D01*
X124157226Y-57953046D01*
X124209953Y-58044372D01*
X124284520Y-58118939D01*
X124375846Y-58171666D01*
X124477706Y-58198959D01*
X124477708Y-58198959D01*
X124583158Y-58198959D01*
X124583160Y-58198959D01*
X124685020Y-58171666D01*
X124776346Y-58118939D01*
X124850913Y-58044372D01*
X124903640Y-57953046D01*
X124930933Y-57851186D01*
X124930933Y-57745732D01*
X126884280Y-57745732D01*
X126884280Y-57851186D01*
X126911573Y-57953046D01*
X126964300Y-58044372D01*
X127038867Y-58118939D01*
X127130193Y-58171666D01*
X127232053Y-58198959D01*
X127232055Y-58198959D01*
X127337505Y-58198959D01*
X127337507Y-58198959D01*
X127439367Y-58171666D01*
X127530693Y-58118939D01*
X127605260Y-58044372D01*
X127657987Y-57953046D01*
X127685280Y-57851186D01*
X127685280Y-57745732D01*
X127657987Y-57643872D01*
X127605260Y-57552546D01*
X127530693Y-57477979D01*
X127439367Y-57425252D01*
X127337507Y-57397959D01*
X127232053Y-57397959D01*
X127130193Y-57425252D01*
X127130190Y-57425253D01*
X127038865Y-57477980D01*
X126964301Y-57552544D01*
X126911574Y-57643869D01*
X126911573Y-57643872D01*
X126884280Y-57745732D01*
X124930933Y-57745732D01*
X124903640Y-57643872D01*
X124850913Y-57552546D01*
X124776346Y-57477979D01*
X124685020Y-57425252D01*
X124583160Y-57397959D01*
X124477706Y-57397959D01*
X124375846Y-57425252D01*
X124375843Y-57425253D01*
X124284518Y-57477980D01*
X124209954Y-57552544D01*
X124157227Y-57643869D01*
X124157226Y-57643872D01*
X124129933Y-57745732D01*
X122176585Y-57745732D01*
X122149292Y-57643872D01*
X122096565Y-57552546D01*
X122021998Y-57477979D01*
X121930672Y-57425252D01*
X121828812Y-57397959D01*
X121723358Y-57397959D01*
X121621498Y-57425252D01*
X121621495Y-57425253D01*
X121530170Y-57477980D01*
X121455606Y-57552544D01*
X121402879Y-57643869D01*
X121402878Y-57643872D01*
X121375585Y-57745732D01*
X119422238Y-57745732D01*
X119394945Y-57643872D01*
X119342218Y-57552546D01*
X119267651Y-57477979D01*
X119176325Y-57425252D01*
X119074465Y-57397959D01*
X118969011Y-57397959D01*
X118867151Y-57425252D01*
X118867148Y-57425253D01*
X118775823Y-57477980D01*
X118701259Y-57552544D01*
X118648532Y-57643869D01*
X118648531Y-57643872D01*
X118621238Y-57745732D01*
X116667890Y-57745732D01*
X116640597Y-57643872D01*
X116587870Y-57552546D01*
X116513303Y-57477979D01*
X116421977Y-57425252D01*
X116320117Y-57397959D01*
X116214663Y-57397959D01*
X116112803Y-57425252D01*
X116112800Y-57425253D01*
X116021475Y-57477980D01*
X115946911Y-57552544D01*
X115894184Y-57643869D01*
X115894183Y-57643872D01*
X115866890Y-57745732D01*
X113913543Y-57745732D01*
X113886250Y-57643872D01*
X113833523Y-57552546D01*
X113758956Y-57477979D01*
X113667630Y-57425252D01*
X113565770Y-57397959D01*
X113460316Y-57397959D01*
X113358456Y-57425252D01*
X113358453Y-57425253D01*
X113267128Y-57477980D01*
X113192564Y-57552544D01*
X113139837Y-57643869D01*
X113139836Y-57643872D01*
X113112543Y-57745732D01*
X111159195Y-57745732D01*
X111131902Y-57643872D01*
X111079175Y-57552546D01*
X111004608Y-57477979D01*
X110913282Y-57425252D01*
X110811422Y-57397959D01*
X110705968Y-57397959D01*
X110604108Y-57425252D01*
X110604105Y-57425253D01*
X110512780Y-57477980D01*
X110438216Y-57552544D01*
X110385489Y-57643869D01*
X110385488Y-57643872D01*
X110358195Y-57745732D01*
X109200000Y-57745732D01*
X109200000Y-54747273D01*
X110199500Y-54747273D01*
X110199500Y-54852727D01*
X110226793Y-54954587D01*
X110279520Y-55045913D01*
X110354087Y-55120480D01*
X110445413Y-55173207D01*
X110547273Y-55200500D01*
X110547275Y-55200500D01*
X110652725Y-55200500D01*
X110652727Y-55200500D01*
X110754587Y-55173207D01*
X110845913Y-55120480D01*
X110920480Y-55045913D01*
X110973207Y-54954587D01*
X111000500Y-54852727D01*
X111000500Y-54747273D01*
X110973207Y-54645413D01*
X110920480Y-54554087D01*
X110845913Y-54479520D01*
X110754587Y-54426793D01*
X110652727Y-54399500D01*
X110547273Y-54399500D01*
X110445413Y-54426793D01*
X110445410Y-54426794D01*
X110354085Y-54479521D01*
X110279521Y-54554085D01*
X110226794Y-54645410D01*
X110226793Y-54645413D01*
X110199500Y-54747273D01*
X109200000Y-54747273D01*
X109200000Y-51147273D01*
X116199500Y-51147273D01*
X116199500Y-51252727D01*
X116226793Y-51354587D01*
X116279520Y-51445913D01*
X116354087Y-51520480D01*
X116445413Y-51573207D01*
X116547273Y-51600500D01*
X116547275Y-51600500D01*
X116652725Y-51600500D01*
X116652727Y-51600500D01*
X116754587Y-51573207D01*
X116845913Y-51520480D01*
X116920480Y-51445913D01*
X116973207Y-51354587D01*
X117000500Y-51252727D01*
X117000500Y-51147273D01*
X116973207Y-51045413D01*
X116920480Y-50954087D01*
X116845913Y-50879520D01*
X116754587Y-50826793D01*
X116652727Y-50799500D01*
X116547273Y-50799500D01*
X116445413Y-50826793D01*
X116445410Y-50826794D01*
X116354085Y-50879521D01*
X116279521Y-50954085D01*
X116226794Y-51045410D01*
X116226793Y-51045413D01*
X116199500Y-51147273D01*
X109200000Y-51147273D01*
X109200000Y-48207273D01*
X112604100Y-48207273D01*
X112604100Y-48312727D01*
X112631393Y-48414587D01*
X112684120Y-48505913D01*
X112758687Y-48580480D01*
X112850013Y-48633207D01*
X112951873Y-48660500D01*
X112951875Y-48660500D01*
X113057325Y-48660500D01*
X113057327Y-48660500D01*
X113159187Y-48633207D01*
X113250513Y-48580480D01*
X113325080Y-48505913D01*
X113377807Y-48414587D01*
X113405100Y-48312727D01*
X113405100Y-48207273D01*
X113377807Y-48105413D01*
X113325080Y-48014087D01*
X113250513Y-47939520D01*
X113159187Y-47886793D01*
X113057327Y-47859500D01*
X112951873Y-47859500D01*
X112850013Y-47886793D01*
X112850010Y-47886794D01*
X112758685Y-47939521D01*
X112684121Y-48014085D01*
X112631394Y-48105410D01*
X112631393Y-48105413D01*
X112604100Y-48207273D01*
X109200000Y-48207273D01*
X109200000Y-47600000D01*
X90924000Y-47600000D01*
X90856961Y-47580315D01*
X90811206Y-47527511D01*
X90800000Y-47476000D01*
X90800000Y-46847273D01*
X95099500Y-46847273D01*
X95099500Y-46952727D01*
X95126793Y-47054587D01*
X95179520Y-47145913D01*
X95254087Y-47220480D01*
X95345413Y-47273207D01*
X95447273Y-47300500D01*
X95447275Y-47300500D01*
X95552725Y-47300500D01*
X95552727Y-47300500D01*
X95654587Y-47273207D01*
X95745913Y-47220480D01*
X95820480Y-47145913D01*
X95842614Y-47107574D01*
X95893179Y-47059361D01*
X95961786Y-47046137D01*
X96026651Y-47072105D01*
X96057384Y-47107573D01*
X96079520Y-47145913D01*
X96154087Y-47220480D01*
X96245413Y-47273207D01*
X96347273Y-47300500D01*
X96347275Y-47300500D01*
X96452725Y-47300500D01*
X96452727Y-47300500D01*
X96554587Y-47273207D01*
X96645913Y-47220480D01*
X96720480Y-47145913D01*
X96773207Y-47054587D01*
X96800500Y-46952727D01*
X96800500Y-46847273D01*
X97199500Y-46847273D01*
X97199500Y-46952727D01*
X97226793Y-47054587D01*
X97279520Y-47145913D01*
X97354087Y-47220480D01*
X97445413Y-47273207D01*
X97547273Y-47300500D01*
X97547275Y-47300500D01*
X97652725Y-47300500D01*
X97652727Y-47300500D01*
X97754587Y-47273207D01*
X97845913Y-47220480D01*
X97920480Y-47145913D01*
X97973207Y-47054587D01*
X97980225Y-47028393D01*
X98016589Y-46968733D01*
X98079436Y-46938203D01*
X98148812Y-46946497D01*
X98202690Y-46990982D01*
X98219775Y-47028394D01*
X98226792Y-47054585D01*
X98226793Y-47054587D01*
X98279520Y-47145913D01*
X98354087Y-47220480D01*
X98445413Y-47273207D01*
X98547273Y-47300500D01*
X98547275Y-47300500D01*
X98652725Y-47300500D01*
X98652727Y-47300500D01*
X98754587Y-47273207D01*
X98845913Y-47220480D01*
X98920480Y-47145913D01*
X98973207Y-47054587D01*
X99000500Y-46952727D01*
X99000500Y-46947273D01*
X109799500Y-46947273D01*
X109799500Y-47052727D01*
X109826793Y-47154587D01*
X109879520Y-47245913D01*
X109954087Y-47320480D01*
X110045413Y-47373207D01*
X110147273Y-47400500D01*
X110147275Y-47400500D01*
X110252725Y-47400500D01*
X110252727Y-47400500D01*
X110354587Y-47373207D01*
X110445913Y-47320480D01*
X110520480Y-47245913D01*
X110573207Y-47154587D01*
X110600500Y-47052727D01*
X110600500Y-46947273D01*
X116199500Y-46947273D01*
X116199500Y-47052727D01*
X116226793Y-47154587D01*
X116279520Y-47245913D01*
X116354087Y-47320480D01*
X116445413Y-47373207D01*
X116547273Y-47400500D01*
X116547275Y-47400500D01*
X116652725Y-47400500D01*
X116652727Y-47400500D01*
X116754587Y-47373207D01*
X116845913Y-47320480D01*
X116920480Y-47245913D01*
X116973207Y-47154587D01*
X117000500Y-47052727D01*
X117000500Y-46947273D01*
X116973207Y-46845413D01*
X116920480Y-46754087D01*
X116845913Y-46679520D01*
X116754587Y-46626793D01*
X116652727Y-46599500D01*
X116547273Y-46599500D01*
X116445413Y-46626793D01*
X116445410Y-46626794D01*
X116354085Y-46679521D01*
X116279521Y-46754085D01*
X116226794Y-46845410D01*
X116226793Y-46845413D01*
X116199500Y-46947273D01*
X110600500Y-46947273D01*
X110573207Y-46845413D01*
X110520480Y-46754087D01*
X110445913Y-46679520D01*
X110354587Y-46626793D01*
X110252727Y-46599500D01*
X110147273Y-46599500D01*
X110045413Y-46626793D01*
X110045410Y-46626794D01*
X109954085Y-46679521D01*
X109879521Y-46754085D01*
X109826794Y-46845410D01*
X109826793Y-46845413D01*
X109799500Y-46947273D01*
X99000500Y-46947273D01*
X99000500Y-46847273D01*
X98973207Y-46745413D01*
X98920480Y-46654087D01*
X98845913Y-46579520D01*
X98754587Y-46526793D01*
X98652727Y-46499500D01*
X98547273Y-46499500D01*
X98445413Y-46526793D01*
X98445410Y-46526794D01*
X98354085Y-46579521D01*
X98279521Y-46654085D01*
X98226794Y-46745410D01*
X98226793Y-46745413D01*
X98219775Y-46771606D01*
X98183410Y-46831267D01*
X98120563Y-46861796D01*
X98051188Y-46853501D01*
X97997310Y-46809016D01*
X97980225Y-46771606D01*
X97973207Y-46745413D01*
X97920480Y-46654087D01*
X97845913Y-46579520D01*
X97754587Y-46526793D01*
X97652727Y-46499500D01*
X97547273Y-46499500D01*
X97445413Y-46526793D01*
X97445410Y-46526794D01*
X97354085Y-46579521D01*
X97279521Y-46654085D01*
X97226794Y-46745410D01*
X97226793Y-46745413D01*
X97199500Y-46847273D01*
X96800500Y-46847273D01*
X96773207Y-46745413D01*
X96720480Y-46654087D01*
X96645913Y-46579520D01*
X96554587Y-46526793D01*
X96452727Y-46499500D01*
X96347273Y-46499500D01*
X96245413Y-46526793D01*
X96245410Y-46526794D01*
X96154085Y-46579521D01*
X96079522Y-46654084D01*
X96079520Y-46654086D01*
X96079520Y-46654087D01*
X96057385Y-46692425D01*
X96006820Y-46740639D01*
X95938212Y-46753861D01*
X95873348Y-46727893D01*
X95842615Y-46692426D01*
X95820480Y-46654087D01*
X95745913Y-46579520D01*
X95654587Y-46526793D01*
X95552727Y-46499500D01*
X95447273Y-46499500D01*
X95345413Y-46526793D01*
X95345410Y-46526794D01*
X95254085Y-46579521D01*
X95179521Y-46654085D01*
X95126794Y-46745410D01*
X95126793Y-46745413D01*
X95099500Y-46847273D01*
X90800000Y-46847273D01*
X90800000Y-45656611D01*
X102322000Y-45656611D01*
X102357355Y-45834345D01*
X102357357Y-45834351D01*
X102426706Y-46001776D01*
X102426710Y-46001783D01*
X102437104Y-46017338D01*
X102437105Y-46017339D01*
X102759038Y-45695405D01*
X102776076Y-45758990D01*
X102841902Y-45873004D01*
X102934994Y-45966096D01*
X103049008Y-46031922D01*
X103112591Y-46048959D01*
X102790657Y-46370893D01*
X102806215Y-46381288D01*
X102806222Y-46381292D01*
X102973642Y-46450639D01*
X102973652Y-46450642D01*
X103151386Y-46485997D01*
X103332615Y-46485997D01*
X103510349Y-46450642D01*
X103510359Y-46450639D01*
X103677779Y-46381292D01*
X103693342Y-46370892D01*
X103371410Y-46048959D01*
X103434994Y-46031922D01*
X103549008Y-45966096D01*
X103642100Y-45873004D01*
X103707926Y-45758990D01*
X103724963Y-45695405D01*
X104046896Y-46017338D01*
X104057296Y-46001775D01*
X104126643Y-45834355D01*
X104126646Y-45834345D01*
X104162001Y-45656611D01*
X104162001Y-45475382D01*
X104161403Y-45472376D01*
X104831501Y-45472376D01*
X104831501Y-45659617D01*
X104868026Y-45843240D01*
X104868028Y-45843248D01*
X104939677Y-46016225D01*
X104939682Y-46016234D01*
X105043698Y-46171904D01*
X105043701Y-46171908D01*
X105176089Y-46304296D01*
X105176093Y-46304299D01*
X105331763Y-46408315D01*
X105331769Y-46408318D01*
X105331770Y-46408319D01*
X105504750Y-46479970D01*
X105642943Y-46507458D01*
X105688380Y-46516496D01*
X105688384Y-46516497D01*
X105688385Y-46516497D01*
X105875618Y-46516497D01*
X105875619Y-46516496D01*
X106059252Y-46479970D01*
X106232232Y-46408319D01*
X106387909Y-46304299D01*
X106520303Y-46171905D01*
X106624323Y-46016228D01*
X106695974Y-45843248D01*
X106732501Y-45659613D01*
X106732501Y-45472381D01*
X106695974Y-45288746D01*
X106624323Y-45115766D01*
X106624322Y-45115765D01*
X106624319Y-45115759D01*
X106520303Y-44960089D01*
X106520300Y-44960085D01*
X106387912Y-44827697D01*
X106387908Y-44827694D01*
X106232238Y-44723678D01*
X106232229Y-44723673D01*
X106059252Y-44652024D01*
X106059244Y-44652022D01*
X105875621Y-44615497D01*
X105875617Y-44615497D01*
X105688385Y-44615497D01*
X105688380Y-44615497D01*
X105504757Y-44652022D01*
X105504749Y-44652024D01*
X105331772Y-44723673D01*
X105331763Y-44723678D01*
X105176093Y-44827694D01*
X105176089Y-44827697D01*
X105043701Y-44960085D01*
X105043698Y-44960089D01*
X104939682Y-45115759D01*
X104939677Y-45115768D01*
X104868028Y-45288745D01*
X104868026Y-45288753D01*
X104831501Y-45472376D01*
X104161403Y-45472376D01*
X104126646Y-45297648D01*
X104126643Y-45297638D01*
X104057296Y-45130218D01*
X104057292Y-45130211D01*
X104046897Y-45114653D01*
X103724963Y-45436587D01*
X103707926Y-45373004D01*
X103642100Y-45258990D01*
X103549008Y-45165898D01*
X103434994Y-45100072D01*
X103371410Y-45083034D01*
X103693343Y-44761101D01*
X103693342Y-44761100D01*
X103677787Y-44750706D01*
X103677780Y-44750702D01*
X103510355Y-44681353D01*
X103510349Y-44681351D01*
X103332615Y-44645997D01*
X103151387Y-44645997D01*
X102973652Y-44681351D01*
X102973646Y-44681353D01*
X102806218Y-44750704D01*
X102790658Y-44761099D01*
X102790658Y-44761100D01*
X103112592Y-45083034D01*
X103049008Y-45100072D01*
X102934994Y-45165898D01*
X102841902Y-45258990D01*
X102776076Y-45373004D01*
X102759038Y-45436588D01*
X102437104Y-45114654D01*
X102437103Y-45114654D01*
X102426708Y-45130214D01*
X102357357Y-45297642D01*
X102357355Y-45297648D01*
X102322001Y-45475382D01*
X102322001Y-45656611D01*
X102322000Y-45656611D01*
X90800000Y-45656611D01*
X90800000Y-43964190D01*
X92164901Y-43964190D01*
X92164901Y-44167803D01*
X92196751Y-44368893D01*
X92259665Y-44562526D01*
X92259666Y-44562529D01*
X92345701Y-44731380D01*
X92352100Y-44743939D01*
X92471774Y-44908656D01*
X92615742Y-45052624D01*
X92780459Y-45172298D01*
X92835807Y-45200499D01*
X92961868Y-45264731D01*
X92961871Y-45264732D01*
X93058687Y-45296189D01*
X93155506Y-45327647D01*
X93248641Y-45342398D01*
X93356595Y-45359497D01*
X93356600Y-45359497D01*
X93560207Y-45359497D01*
X93657693Y-45344056D01*
X93761296Y-45327647D01*
X93954933Y-45264731D01*
X94136343Y-45172298D01*
X94301060Y-45052624D01*
X94445028Y-44908656D01*
X94564702Y-44743939D01*
X94657135Y-44562529D01*
X94720051Y-44368892D01*
X94739876Y-44243721D01*
X94751901Y-44167803D01*
X94751901Y-43964190D01*
X99164901Y-43964190D01*
X99164901Y-44167803D01*
X99196751Y-44368893D01*
X99259665Y-44562526D01*
X99259666Y-44562529D01*
X99345701Y-44731380D01*
X99352100Y-44743939D01*
X99471774Y-44908656D01*
X99615742Y-45052624D01*
X99780459Y-45172298D01*
X99835807Y-45200499D01*
X99961868Y-45264731D01*
X99961871Y-45264732D01*
X100058687Y-45296189D01*
X100155506Y-45327647D01*
X100248641Y-45342398D01*
X100356595Y-45359497D01*
X100356600Y-45359497D01*
X100560207Y-45359497D01*
X100640245Y-45346820D01*
X100685461Y-45339657D01*
X100761296Y-45327647D01*
X100954933Y-45264731D01*
X101136343Y-45172298D01*
X101301060Y-45052624D01*
X101445028Y-44908656D01*
X101564702Y-44743939D01*
X101657135Y-44562529D01*
X101720051Y-44368892D01*
X101739876Y-44243721D01*
X101751901Y-44167803D01*
X101751901Y-43964190D01*
X101730484Y-43828972D01*
X101720051Y-43763102D01*
X101657135Y-43569465D01*
X101657135Y-43569464D01*
X101597654Y-43452727D01*
X101564702Y-43388055D01*
X101445028Y-43223338D01*
X101301060Y-43079370D01*
X101136343Y-42959696D01*
X101126314Y-42954586D01*
X101082725Y-42932376D01*
X102291501Y-42932376D01*
X102291501Y-43119617D01*
X102328026Y-43303240D01*
X102328028Y-43303248D01*
X102399677Y-43476225D01*
X102399682Y-43476234D01*
X102503698Y-43631904D01*
X102503701Y-43631908D01*
X102636089Y-43764296D01*
X102636093Y-43764299D01*
X102791763Y-43868315D01*
X102791769Y-43868318D01*
X102791770Y-43868319D01*
X102964750Y-43939970D01*
X103148380Y-43976496D01*
X103148384Y-43976497D01*
X103148385Y-43976497D01*
X103335618Y-43976497D01*
X103335619Y-43976496D01*
X103519252Y-43939970D01*
X103692232Y-43868319D01*
X103847909Y-43764299D01*
X103980303Y-43631905D01*
X104084323Y-43476228D01*
X104155974Y-43303248D01*
X104192501Y-43119613D01*
X104192501Y-42932381D01*
X104192500Y-42932376D01*
X104831501Y-42932376D01*
X104831501Y-43119617D01*
X104868026Y-43303240D01*
X104868028Y-43303248D01*
X104939677Y-43476225D01*
X104939682Y-43476234D01*
X105043698Y-43631904D01*
X105043701Y-43631908D01*
X105176089Y-43764296D01*
X105176093Y-43764299D01*
X105331763Y-43868315D01*
X105331769Y-43868318D01*
X105331770Y-43868319D01*
X105504750Y-43939970D01*
X105688380Y-43976496D01*
X105688384Y-43976497D01*
X105688385Y-43976497D01*
X105875618Y-43976497D01*
X105875619Y-43976496D01*
X106059252Y-43939970D01*
X106232232Y-43868319D01*
X106387909Y-43764299D01*
X106520303Y-43631905D01*
X106624323Y-43476228D01*
X106677738Y-43347273D01*
X107799500Y-43347273D01*
X107799500Y-43452727D01*
X107826793Y-43554587D01*
X107879231Y-43645413D01*
X107879521Y-43645914D01*
X107945926Y-43712319D01*
X107979411Y-43773642D01*
X107974427Y-43843334D01*
X107945926Y-43887681D01*
X107879521Y-43954085D01*
X107826794Y-44045410D01*
X107826793Y-44045413D01*
X107799500Y-44147273D01*
X107799500Y-44252727D01*
X107825343Y-44349173D01*
X107826793Y-44354586D01*
X107826794Y-44354589D01*
X107840922Y-44379059D01*
X107879520Y-44445913D01*
X107954087Y-44520480D01*
X108045413Y-44573207D01*
X108147273Y-44600500D01*
X108147275Y-44600500D01*
X108252723Y-44600500D01*
X108252727Y-44600500D01*
X108258989Y-44598822D01*
X108328834Y-44600481D01*
X108386699Y-44639640D01*
X108414207Y-44703867D01*
X108412703Y-44742784D01*
X108407901Y-44766927D01*
X108407901Y-44766928D01*
X108407901Y-45995066D01*
X108407901Y-45995068D01*
X108407900Y-45995068D01*
X108432898Y-46120735D01*
X108432900Y-46120741D01*
X108481934Y-46239121D01*
X108481939Y-46239130D01*
X108553124Y-46345665D01*
X108553127Y-46345669D01*
X108643728Y-46436270D01*
X108643732Y-46436273D01*
X108750267Y-46507458D01*
X108750273Y-46507461D01*
X108750274Y-46507462D01*
X108868657Y-46556498D01*
X108868661Y-46556498D01*
X108868662Y-46556499D01*
X108994329Y-46581497D01*
X108994332Y-46581497D01*
X109122472Y-46581497D01*
X109207016Y-46564679D01*
X109248145Y-46556498D01*
X109366528Y-46507462D01*
X109473070Y-46436273D01*
X109563677Y-46345666D01*
X109634866Y-46239124D01*
X109683902Y-46120741D01*
X109704471Y-46017338D01*
X109708901Y-45995068D01*
X117047900Y-45995068D01*
X117072898Y-46120735D01*
X117072900Y-46120741D01*
X117121934Y-46239121D01*
X117121939Y-46239130D01*
X117193124Y-46345665D01*
X117193127Y-46345669D01*
X117283728Y-46436270D01*
X117283732Y-46436273D01*
X117390267Y-46507458D01*
X117390273Y-46507461D01*
X117390274Y-46507462D01*
X117508657Y-46556498D01*
X117508661Y-46556498D01*
X117508662Y-46556499D01*
X117634329Y-46581497D01*
X117634332Y-46581497D01*
X117762472Y-46581497D01*
X117847016Y-46564679D01*
X117888145Y-46556498D01*
X118006528Y-46507462D01*
X118113070Y-46436273D01*
X118203677Y-46345666D01*
X118274866Y-46239124D01*
X118323902Y-46120741D01*
X118344471Y-46017338D01*
X118348901Y-45995068D01*
X118348901Y-44766925D01*
X118323903Y-44641258D01*
X118323902Y-44641257D01*
X118323902Y-44641253D01*
X118274866Y-44522870D01*
X118274865Y-44522869D01*
X118274862Y-44522863D01*
X118203677Y-44416328D01*
X118203674Y-44416324D01*
X118113073Y-44325723D01*
X118113069Y-44325720D01*
X118006534Y-44254535D01*
X118006525Y-44254530D01*
X117888145Y-44205496D01*
X117888139Y-44205494D01*
X117762472Y-44180497D01*
X117762470Y-44180497D01*
X117634332Y-44180497D01*
X117634330Y-44180497D01*
X117508662Y-44205494D01*
X117508656Y-44205496D01*
X117390276Y-44254530D01*
X117390267Y-44254535D01*
X117283732Y-44325720D01*
X117283728Y-44325723D01*
X117193127Y-44416324D01*
X117193124Y-44416328D01*
X117121939Y-44522863D01*
X117121934Y-44522872D01*
X117072900Y-44641252D01*
X117072898Y-44641258D01*
X117047901Y-44766925D01*
X117047901Y-44766927D01*
X117047901Y-44766928D01*
X117047901Y-45995066D01*
X117047901Y-45995068D01*
X117047900Y-45995068D01*
X109708901Y-45995068D01*
X109708901Y-44824979D01*
X110062901Y-44824979D01*
X110062901Y-44937015D01*
X110091897Y-45045228D01*
X110091898Y-45045233D01*
X110091899Y-45045236D01*
X110110570Y-45077576D01*
X110147916Y-45142260D01*
X110227138Y-45221482D01*
X110324164Y-45277500D01*
X110432383Y-45306497D01*
X110432385Y-45306497D01*
X110544417Y-45306497D01*
X110544419Y-45306497D01*
X110652638Y-45277500D01*
X110749664Y-45221482D01*
X110828886Y-45142260D01*
X110884904Y-45045234D01*
X110913901Y-44937015D01*
X110913901Y-44824979D01*
X110893080Y-44747273D01*
X114899500Y-44747273D01*
X114899500Y-44852727D01*
X114922085Y-44937014D01*
X114926793Y-44954586D01*
X114926794Y-44954589D01*
X114936875Y-44972049D01*
X114979520Y-45045913D01*
X115054087Y-45120480D01*
X115145413Y-45173207D01*
X115247273Y-45200500D01*
X115247275Y-45200500D01*
X115352725Y-45200500D01*
X115352727Y-45200500D01*
X115454587Y-45173207D01*
X115545913Y-45120480D01*
X115620480Y-45045913D01*
X115642646Y-45007519D01*
X115693209Y-44959306D01*
X115761816Y-44946082D01*
X115826681Y-44972049D01*
X115867210Y-45028963D01*
X115869804Y-45037422D01*
X115871896Y-45045228D01*
X115871899Y-45045236D01*
X115890570Y-45077576D01*
X115927916Y-45142260D01*
X116007138Y-45221482D01*
X116104164Y-45277500D01*
X116212383Y-45306497D01*
X116212385Y-45306497D01*
X116324417Y-45306497D01*
X116324419Y-45306497D01*
X116432638Y-45277500D01*
X116529664Y-45221482D01*
X116608886Y-45142260D01*
X116664904Y-45045234D01*
X116693901Y-44937015D01*
X116693901Y-44824979D01*
X116664904Y-44716760D01*
X116608886Y-44619734D01*
X116529664Y-44540512D01*
X116432638Y-44484494D01*
X116324419Y-44455497D01*
X116212383Y-44455497D01*
X116104164Y-44484494D01*
X116104161Y-44484495D01*
X116007141Y-44540510D01*
X116007135Y-44540514D01*
X115927918Y-44619731D01*
X115927914Y-44619737D01*
X115898926Y-44669944D01*
X115848358Y-44718159D01*
X115779751Y-44731380D01*
X115714886Y-44705411D01*
X115677237Y-44652538D01*
X115676316Y-44652920D01*
X115674656Y-44648914D01*
X115674359Y-44648496D01*
X115674004Y-44647338D01*
X115673208Y-44645418D01*
X115673207Y-44645413D01*
X115620480Y-44554087D01*
X115545913Y-44479520D01*
X115454587Y-44426793D01*
X115352727Y-44399500D01*
X115247273Y-44399500D01*
X115145413Y-44426793D01*
X115145410Y-44426794D01*
X115054085Y-44479521D01*
X114979521Y-44554085D01*
X114926794Y-44645410D01*
X114926793Y-44645413D01*
X114899500Y-44747273D01*
X110893080Y-44747273D01*
X110884904Y-44716760D01*
X110828886Y-44619734D01*
X110749664Y-44540512D01*
X110652638Y-44484494D01*
X110544419Y-44455497D01*
X110432383Y-44455497D01*
X110324164Y-44484494D01*
X110324161Y-44484495D01*
X110227141Y-44540510D01*
X110227135Y-44540514D01*
X110147918Y-44619731D01*
X110147914Y-44619737D01*
X110091899Y-44716757D01*
X110091898Y-44716760D01*
X110062901Y-44824979D01*
X109708901Y-44824979D01*
X109708901Y-44766925D01*
X109683903Y-44641258D01*
X109683902Y-44641257D01*
X109683902Y-44641253D01*
X109634866Y-44522870D01*
X109634865Y-44522869D01*
X109634862Y-44522863D01*
X109563677Y-44416328D01*
X109563674Y-44416324D01*
X109473073Y-44325723D01*
X109473069Y-44325720D01*
X109366534Y-44254535D01*
X109366525Y-44254530D01*
X109340425Y-44243719D01*
X111095946Y-44243719D01*
X111095946Y-44349173D01*
X111123239Y-44451033D01*
X111175966Y-44542359D01*
X111250533Y-44616926D01*
X111341859Y-44669653D01*
X111443719Y-44696946D01*
X111443721Y-44696946D01*
X111549171Y-44696946D01*
X111549173Y-44696946D01*
X111651033Y-44669653D01*
X111742359Y-44616926D01*
X111816926Y-44542359D01*
X111869653Y-44451033D01*
X111896946Y-44349173D01*
X111896946Y-44243719D01*
X111869653Y-44141859D01*
X111816926Y-44050533D01*
X111742359Y-43975966D01*
X111651033Y-43923239D01*
X111549173Y-43895946D01*
X111443719Y-43895946D01*
X111341859Y-43923239D01*
X111341856Y-43923240D01*
X111250531Y-43975967D01*
X111175967Y-44050531D01*
X111123240Y-44141856D01*
X111123239Y-44141859D01*
X111095946Y-44243719D01*
X109340425Y-44243719D01*
X109248145Y-44205496D01*
X109248139Y-44205494D01*
X109122472Y-44180497D01*
X109122470Y-44180497D01*
X108994332Y-44180497D01*
X108994330Y-44180497D01*
X108868662Y-44205494D01*
X108868657Y-44205496D01*
X108770932Y-44245974D01*
X108701463Y-44253442D01*
X108638984Y-44222166D01*
X108603332Y-44162077D01*
X108600541Y-44147590D01*
X108600500Y-44147284D01*
X108600500Y-44147273D01*
X108573207Y-44045413D01*
X108520480Y-43954087D01*
X108454074Y-43887681D01*
X108420589Y-43826358D01*
X108425573Y-43756666D01*
X108454074Y-43712319D01*
X108520480Y-43645913D01*
X108573207Y-43554587D01*
X108600500Y-43452727D01*
X108600500Y-43347273D01*
X108573207Y-43245413D01*
X108520480Y-43154087D01*
X108445913Y-43079520D01*
X108354587Y-43026793D01*
X108252727Y-42999500D01*
X108147273Y-42999500D01*
X108045413Y-43026793D01*
X108045410Y-43026794D01*
X107954085Y-43079521D01*
X107879521Y-43154085D01*
X107826794Y-43245410D01*
X107826793Y-43245413D01*
X107799500Y-43347273D01*
X106677738Y-43347273D01*
X106695974Y-43303248D01*
X106706923Y-43248206D01*
X106721516Y-43174838D01*
X106732501Y-43119613D01*
X106732501Y-42932381D01*
X106729003Y-42914793D01*
X106698877Y-42763337D01*
X106695975Y-42748751D01*
X106695974Y-42748750D01*
X106695974Y-42748746D01*
X106695364Y-42747273D01*
X120599500Y-42747273D01*
X120599500Y-42852727D01*
X120626793Y-42954587D01*
X120679520Y-43045913D01*
X120754087Y-43120480D01*
X120845413Y-43173207D01*
X120871606Y-43180225D01*
X120931267Y-43216590D01*
X120961796Y-43279437D01*
X120953501Y-43348812D01*
X120909016Y-43402690D01*
X120871607Y-43419774D01*
X120845417Y-43426792D01*
X120845413Y-43426793D01*
X120845410Y-43426794D01*
X120754085Y-43479521D01*
X120679521Y-43554085D01*
X120626794Y-43645410D01*
X120626793Y-43645413D01*
X120599500Y-43747273D01*
X120599500Y-43852727D01*
X120626659Y-43954085D01*
X120626793Y-43954586D01*
X120626794Y-43954589D01*
X120633758Y-43966651D01*
X120679520Y-44045913D01*
X120754087Y-44120480D01*
X120845413Y-44173207D01*
X120947273Y-44200500D01*
X120947275Y-44200500D01*
X121052725Y-44200500D01*
X121052727Y-44200500D01*
X121154587Y-44173207D01*
X121245913Y-44120480D01*
X121320480Y-44045913D01*
X121373207Y-43954587D01*
X121400500Y-43852727D01*
X121400500Y-43747273D01*
X121373207Y-43645413D01*
X121320480Y-43554087D01*
X121245913Y-43479520D01*
X121154587Y-43426793D01*
X121154585Y-43426792D01*
X121138979Y-43422611D01*
X121128393Y-43419774D01*
X121068733Y-43383411D01*
X121038203Y-43320564D01*
X121046497Y-43251188D01*
X121090982Y-43197310D01*
X121128392Y-43180225D01*
X121154587Y-43173207D01*
X121245913Y-43120480D01*
X121320480Y-43045913D01*
X121373207Y-42954587D01*
X121400500Y-42852727D01*
X121400500Y-42747273D01*
X121373207Y-42645413D01*
X121320480Y-42554087D01*
X121245913Y-42479520D01*
X121179059Y-42440922D01*
X121154589Y-42426794D01*
X121154588Y-42426793D01*
X121154587Y-42426793D01*
X121052727Y-42399500D01*
X120947273Y-42399500D01*
X120845413Y-42426793D01*
X120845410Y-42426794D01*
X120754085Y-42479521D01*
X120679521Y-42554085D01*
X120626794Y-42645410D01*
X120626793Y-42645413D01*
X120599500Y-42747273D01*
X106695364Y-42747273D01*
X106624323Y-42575766D01*
X106624322Y-42575765D01*
X106624319Y-42575759D01*
X106520303Y-42420089D01*
X106520300Y-42420085D01*
X106387912Y-42287697D01*
X106387908Y-42287694D01*
X106232238Y-42183678D01*
X106232229Y-42183673D01*
X106059252Y-42112024D01*
X106059244Y-42112022D01*
X105875621Y-42075497D01*
X105875617Y-42075497D01*
X105688385Y-42075497D01*
X105688380Y-42075497D01*
X105504757Y-42112022D01*
X105504749Y-42112024D01*
X105331772Y-42183673D01*
X105331763Y-42183678D01*
X105176093Y-42287694D01*
X105176089Y-42287697D01*
X105043701Y-42420085D01*
X105043698Y-42420089D01*
X104939682Y-42575759D01*
X104939677Y-42575768D01*
X104868028Y-42748745D01*
X104868026Y-42748753D01*
X104831501Y-42932376D01*
X104192500Y-42932376D01*
X104155974Y-42748746D01*
X104084323Y-42575766D01*
X104084322Y-42575765D01*
X104084319Y-42575759D01*
X103980303Y-42420089D01*
X103980300Y-42420085D01*
X103847912Y-42287697D01*
X103847908Y-42287694D01*
X103692238Y-42183678D01*
X103692229Y-42183673D01*
X103519252Y-42112024D01*
X103519244Y-42112022D01*
X103335621Y-42075497D01*
X103335617Y-42075497D01*
X103148385Y-42075497D01*
X103148380Y-42075497D01*
X102964757Y-42112022D01*
X102964749Y-42112024D01*
X102791772Y-42183673D01*
X102791763Y-42183678D01*
X102636093Y-42287694D01*
X102636089Y-42287697D01*
X102503701Y-42420085D01*
X102503698Y-42420089D01*
X102399682Y-42575759D01*
X102399677Y-42575768D01*
X102328028Y-42748745D01*
X102328026Y-42748753D01*
X102291501Y-42932376D01*
X101082725Y-42932376D01*
X100954933Y-42867262D01*
X100954930Y-42867261D01*
X100761297Y-42804347D01*
X100560207Y-42772497D01*
X100560202Y-42772497D01*
X100356600Y-42772497D01*
X100356595Y-42772497D01*
X100155504Y-42804347D01*
X99961871Y-42867261D01*
X99961868Y-42867262D01*
X99780458Y-42959696D01*
X99702681Y-43016205D01*
X99615742Y-43079370D01*
X99615740Y-43079372D01*
X99615739Y-43079372D01*
X99471776Y-43223335D01*
X99471776Y-43223336D01*
X99471774Y-43223338D01*
X99451540Y-43251188D01*
X99352100Y-43388054D01*
X99259666Y-43569464D01*
X99259665Y-43569467D01*
X99196751Y-43763100D01*
X99164901Y-43964190D01*
X94751901Y-43964190D01*
X94730484Y-43828972D01*
X94720051Y-43763102D01*
X94657135Y-43569465D01*
X94657135Y-43569464D01*
X94597654Y-43452727D01*
X94564702Y-43388055D01*
X94445028Y-43223338D01*
X94301060Y-43079370D01*
X94136343Y-42959696D01*
X94126314Y-42954586D01*
X93954933Y-42867262D01*
X93954930Y-42867261D01*
X93761297Y-42804347D01*
X93560207Y-42772497D01*
X93560202Y-42772497D01*
X93356600Y-42772497D01*
X93356595Y-42772497D01*
X93155504Y-42804347D01*
X92961871Y-42867261D01*
X92961868Y-42867262D01*
X92780458Y-42959696D01*
X92702681Y-43016205D01*
X92615742Y-43079370D01*
X92615740Y-43079372D01*
X92615739Y-43079372D01*
X92471776Y-43223335D01*
X92471776Y-43223336D01*
X92471774Y-43223338D01*
X92451540Y-43251188D01*
X92352100Y-43388054D01*
X92259666Y-43569464D01*
X92259665Y-43569467D01*
X92196751Y-43763100D01*
X92164901Y-43964190D01*
X90800000Y-43964190D01*
X90800000Y-41737150D01*
X93657901Y-41737150D01*
X93657901Y-41894843D01*
X93688662Y-42049486D01*
X93688665Y-42049498D01*
X93749003Y-42195169D01*
X93749010Y-42195182D01*
X93836611Y-42326285D01*
X93836614Y-42326289D01*
X93948108Y-42437783D01*
X93948112Y-42437786D01*
X94079215Y-42525387D01*
X94079228Y-42525394D01*
X94224899Y-42585732D01*
X94224904Y-42585734D01*
X94379554Y-42616496D01*
X94379557Y-42616497D01*
X94379559Y-42616497D01*
X94537245Y-42616497D01*
X94537246Y-42616496D01*
X94691898Y-42585734D01*
X94837580Y-42525391D01*
X94968690Y-42437786D01*
X95080190Y-42326286D01*
X95167795Y-42195176D01*
X95170299Y-42191429D01*
X95223911Y-42146624D01*
X95293236Y-42137917D01*
X95356264Y-42168071D01*
X95376503Y-42191429D01*
X95466611Y-42326285D01*
X95466614Y-42326289D01*
X95578108Y-42437783D01*
X95578112Y-42437786D01*
X95709215Y-42525387D01*
X95709228Y-42525394D01*
X95854899Y-42585732D01*
X95854904Y-42585734D01*
X96009554Y-42616496D01*
X96009557Y-42616497D01*
X96009559Y-42616497D01*
X96167245Y-42616497D01*
X96167246Y-42616496D01*
X96321898Y-42585734D01*
X96467580Y-42525391D01*
X96598690Y-42437786D01*
X96710190Y-42326286D01*
X96797795Y-42195176D01*
X96821512Y-42137917D01*
X96843840Y-42084013D01*
X96887680Y-42029609D01*
X96953974Y-42007544D01*
X97021674Y-42024823D01*
X97069285Y-42075960D01*
X97072962Y-42084013D01*
X97119003Y-42195169D01*
X97119010Y-42195182D01*
X97206611Y-42326285D01*
X97206614Y-42326289D01*
X97318108Y-42437783D01*
X97318112Y-42437786D01*
X97449215Y-42525387D01*
X97449228Y-42525394D01*
X97594899Y-42585732D01*
X97594904Y-42585734D01*
X97749554Y-42616496D01*
X97749557Y-42616497D01*
X97749559Y-42616497D01*
X97907245Y-42616497D01*
X97907246Y-42616496D01*
X98061898Y-42585734D01*
X98207580Y-42525391D01*
X98338690Y-42437786D01*
X98450190Y-42326286D01*
X98537795Y-42195176D01*
X98540299Y-42191429D01*
X98593911Y-42146624D01*
X98663236Y-42137917D01*
X98726264Y-42168071D01*
X98746503Y-42191429D01*
X98836611Y-42326285D01*
X98836614Y-42326289D01*
X98948108Y-42437783D01*
X98948112Y-42437786D01*
X99079215Y-42525387D01*
X99079228Y-42525394D01*
X99224899Y-42585732D01*
X99224904Y-42585734D01*
X99379554Y-42616496D01*
X99379557Y-42616497D01*
X99379559Y-42616497D01*
X99537245Y-42616497D01*
X99537246Y-42616496D01*
X99691898Y-42585734D01*
X99837580Y-42525391D01*
X99968690Y-42437786D01*
X100080190Y-42326286D01*
X100167795Y-42195176D01*
X100228138Y-42049494D01*
X100258901Y-41894839D01*
X100258901Y-41737155D01*
X100258901Y-41737152D01*
X100258900Y-41737150D01*
X100245157Y-41668061D01*
X100244562Y-41665068D01*
X108407900Y-41665068D01*
X108432898Y-41790735D01*
X108432900Y-41790741D01*
X108481934Y-41909121D01*
X108481939Y-41909130D01*
X108553124Y-42015665D01*
X108553127Y-42015669D01*
X108643728Y-42106270D01*
X108643732Y-42106273D01*
X108750267Y-42177458D01*
X108750276Y-42177463D01*
X108765273Y-42183675D01*
X108868657Y-42226498D01*
X108868661Y-42226498D01*
X108868662Y-42226499D01*
X108994329Y-42251497D01*
X108994332Y-42251497D01*
X109122472Y-42251497D01*
X109207016Y-42234679D01*
X109248145Y-42226498D01*
X109366528Y-42177462D01*
X109473070Y-42106273D01*
X109563677Y-42015666D01*
X109634866Y-41909124D01*
X109683902Y-41790741D01*
X109694562Y-41737150D01*
X109708901Y-41665068D01*
X117047900Y-41665068D01*
X117072898Y-41790735D01*
X117072900Y-41790741D01*
X117121934Y-41909121D01*
X117121939Y-41909130D01*
X117193124Y-42015665D01*
X117193127Y-42015669D01*
X117283728Y-42106270D01*
X117283732Y-42106273D01*
X117390267Y-42177458D01*
X117390276Y-42177463D01*
X117405273Y-42183675D01*
X117508657Y-42226498D01*
X117508661Y-42226498D01*
X117508662Y-42226499D01*
X117634329Y-42251497D01*
X117634332Y-42251497D01*
X117762472Y-42251497D01*
X117847016Y-42234679D01*
X117888145Y-42226498D01*
X118006528Y-42177462D01*
X118113070Y-42106273D01*
X118203677Y-42015666D01*
X118274866Y-41909124D01*
X118323902Y-41790741D01*
X118334562Y-41737150D01*
X118348901Y-41665068D01*
X118348901Y-40736925D01*
X118323903Y-40611258D01*
X118323902Y-40611257D01*
X118323902Y-40611253D01*
X118297401Y-40547275D01*
X118297400Y-40547273D01*
X120599500Y-40547273D01*
X120599500Y-40652727D01*
X120626793Y-40754587D01*
X120679520Y-40845913D01*
X120754087Y-40920480D01*
X120845413Y-40973207D01*
X120871606Y-40980225D01*
X120931267Y-41016590D01*
X120961796Y-41079437D01*
X120953501Y-41148812D01*
X120909016Y-41202690D01*
X120871607Y-41219774D01*
X120845417Y-41226792D01*
X120845413Y-41226793D01*
X120845410Y-41226794D01*
X120754085Y-41279521D01*
X120679521Y-41354085D01*
X120626794Y-41445410D01*
X120626793Y-41445413D01*
X120599500Y-41547273D01*
X120599500Y-41652727D01*
X120626793Y-41754587D01*
X120679520Y-41845913D01*
X120754087Y-41920480D01*
X120845413Y-41973207D01*
X120947273Y-42000500D01*
X120947275Y-42000500D01*
X121052725Y-42000500D01*
X121052727Y-42000500D01*
X121154587Y-41973207D01*
X121210269Y-41941059D01*
X123045085Y-41941059D01*
X123045085Y-42216394D01*
X123045086Y-42216411D01*
X123081023Y-42489382D01*
X123081024Y-42489387D01*
X123081025Y-42489393D01*
X123104169Y-42575768D01*
X123152289Y-42755357D01*
X123257660Y-43009744D01*
X123257665Y-43009755D01*
X123321093Y-43119614D01*
X123395336Y-43248206D01*
X123395338Y-43248209D01*
X123395339Y-43248210D01*
X123562955Y-43466653D01*
X123562961Y-43466660D01*
X123757651Y-43661350D01*
X123757658Y-43661356D01*
X123869628Y-43747273D01*
X123976106Y-43828976D01*
X124129363Y-43917459D01*
X124214556Y-43966646D01*
X124214561Y-43966648D01*
X124214564Y-43966650D01*
X124468953Y-44072022D01*
X124734919Y-44143287D01*
X125007911Y-44179227D01*
X125007918Y-44179227D01*
X125283252Y-44179227D01*
X125283259Y-44179227D01*
X125556251Y-44143287D01*
X125822217Y-44072022D01*
X126076606Y-43966650D01*
X126315064Y-43828976D01*
X126533513Y-43661355D01*
X126728213Y-43466655D01*
X126895834Y-43248206D01*
X127033508Y-43009748D01*
X127138880Y-42755359D01*
X127210145Y-42489393D01*
X127246085Y-42216401D01*
X127246085Y-41941053D01*
X127210145Y-41668061D01*
X127138880Y-41402095D01*
X127033508Y-41147706D01*
X127033506Y-41147703D01*
X127033504Y-41147698D01*
X126977783Y-41051188D01*
X126895834Y-40909248D01*
X126728213Y-40690799D01*
X126728208Y-40690793D01*
X126533518Y-40496103D01*
X126533511Y-40496097D01*
X126315068Y-40328481D01*
X126315067Y-40328480D01*
X126315064Y-40328478D01*
X126219992Y-40273588D01*
X126076613Y-40190807D01*
X126076602Y-40190802D01*
X125822215Y-40085431D01*
X125689234Y-40049799D01*
X125556251Y-40014167D01*
X125556245Y-40014166D01*
X125556240Y-40014165D01*
X125283269Y-39978228D01*
X125283264Y-39978227D01*
X125283259Y-39978227D01*
X125007911Y-39978227D01*
X125007905Y-39978227D01*
X125007900Y-39978228D01*
X124734929Y-40014165D01*
X124734922Y-40014166D01*
X124734919Y-40014167D01*
X124678710Y-40029227D01*
X124468954Y-40085431D01*
X124214567Y-40190802D01*
X124214556Y-40190807D01*
X123976101Y-40328481D01*
X123757658Y-40496097D01*
X123757651Y-40496103D01*
X123562961Y-40690793D01*
X123562955Y-40690800D01*
X123395339Y-40909243D01*
X123257665Y-41147698D01*
X123257660Y-41147709D01*
X123152289Y-41402096D01*
X123081026Y-41668058D01*
X123081023Y-41668071D01*
X123045086Y-41941042D01*
X123045085Y-41941059D01*
X121210269Y-41941059D01*
X121245913Y-41920480D01*
X121320480Y-41845913D01*
X121373207Y-41754587D01*
X121400500Y-41652727D01*
X121400500Y-41547273D01*
X121373207Y-41445413D01*
X121320480Y-41354087D01*
X121245913Y-41279520D01*
X121154587Y-41226793D01*
X121154585Y-41226792D01*
X121138979Y-41222611D01*
X121128393Y-41219774D01*
X121068733Y-41183411D01*
X121038203Y-41120564D01*
X121046497Y-41051188D01*
X121090982Y-40997310D01*
X121128392Y-40980225D01*
X121154587Y-40973207D01*
X121245913Y-40920480D01*
X121320480Y-40845913D01*
X121373207Y-40754587D01*
X121400500Y-40652727D01*
X121400500Y-40547273D01*
X121373207Y-40445413D01*
X121320480Y-40354087D01*
X121245913Y-40279520D01*
X121154587Y-40226793D01*
X121052727Y-40199500D01*
X120947273Y-40199500D01*
X120845413Y-40226793D01*
X120845410Y-40226794D01*
X120754085Y-40279521D01*
X120679521Y-40354085D01*
X120626794Y-40445410D01*
X120626793Y-40445413D01*
X120599500Y-40547273D01*
X118297400Y-40547273D01*
X118274867Y-40492872D01*
X118274862Y-40492863D01*
X118203677Y-40386328D01*
X118203674Y-40386324D01*
X118113073Y-40295723D01*
X118113069Y-40295720D01*
X118006534Y-40224535D01*
X118006525Y-40224530D01*
X117888145Y-40175496D01*
X117888139Y-40175494D01*
X117762472Y-40150497D01*
X117762470Y-40150497D01*
X117634332Y-40150497D01*
X117634330Y-40150497D01*
X117508662Y-40175494D01*
X117508656Y-40175496D01*
X117390276Y-40224530D01*
X117390267Y-40224535D01*
X117283732Y-40295720D01*
X117283728Y-40295723D01*
X117193127Y-40386324D01*
X117193124Y-40386328D01*
X117121939Y-40492863D01*
X117121934Y-40492872D01*
X117072900Y-40611252D01*
X117072898Y-40611258D01*
X117047901Y-40736925D01*
X117047901Y-40736928D01*
X117047901Y-41665066D01*
X117047901Y-41665068D01*
X117047900Y-41665068D01*
X109708901Y-41665068D01*
X109708901Y-40736925D01*
X109683903Y-40611258D01*
X109683902Y-40611257D01*
X109683902Y-40611253D01*
X109636205Y-40496103D01*
X109634867Y-40492872D01*
X109634862Y-40492863D01*
X109563677Y-40386328D01*
X109563674Y-40386324D01*
X109473073Y-40295723D01*
X109473069Y-40295720D01*
X109366534Y-40224535D01*
X109366525Y-40224530D01*
X109248145Y-40175496D01*
X109248139Y-40175494D01*
X109122472Y-40150497D01*
X109122470Y-40150497D01*
X108994332Y-40150497D01*
X108994330Y-40150497D01*
X108868662Y-40175494D01*
X108868656Y-40175496D01*
X108750276Y-40224530D01*
X108750267Y-40224535D01*
X108643732Y-40295720D01*
X108643728Y-40295723D01*
X108553127Y-40386324D01*
X108553124Y-40386328D01*
X108481939Y-40492863D01*
X108481934Y-40492872D01*
X108432900Y-40611252D01*
X108432898Y-40611258D01*
X108407901Y-40736925D01*
X108407901Y-40736928D01*
X108407901Y-41665066D01*
X108407901Y-41665068D01*
X108407900Y-41665068D01*
X100244562Y-41665068D01*
X100228138Y-41582500D01*
X100217175Y-41556033D01*
X100167798Y-41436824D01*
X100167791Y-41436811D01*
X100080190Y-41305708D01*
X100080187Y-41305704D01*
X99968693Y-41194210D01*
X99968689Y-41194207D01*
X99837586Y-41106606D01*
X99837573Y-41106599D01*
X99691902Y-41046261D01*
X99691890Y-41046258D01*
X99537246Y-41015497D01*
X99537243Y-41015497D01*
X99379559Y-41015497D01*
X99379556Y-41015497D01*
X99224911Y-41046258D01*
X99224899Y-41046261D01*
X99079228Y-41106599D01*
X99079215Y-41106606D01*
X98948112Y-41194207D01*
X98948108Y-41194210D01*
X98836614Y-41305704D01*
X98836611Y-41305708D01*
X98746503Y-41440564D01*
X98692891Y-41485369D01*
X98623566Y-41494076D01*
X98560538Y-41463921D01*
X98540299Y-41440564D01*
X98450190Y-41305708D01*
X98450187Y-41305704D01*
X98338693Y-41194210D01*
X98338689Y-41194207D01*
X98207586Y-41106606D01*
X98207573Y-41106599D01*
X98061902Y-41046261D01*
X98061890Y-41046258D01*
X97907246Y-41015497D01*
X97907243Y-41015497D01*
X97749559Y-41015497D01*
X97749556Y-41015497D01*
X97594911Y-41046258D01*
X97594899Y-41046261D01*
X97449228Y-41106599D01*
X97449215Y-41106606D01*
X97318112Y-41194207D01*
X97318108Y-41194210D01*
X97206614Y-41305704D01*
X97206611Y-41305708D01*
X97119010Y-41436811D01*
X97119003Y-41436824D01*
X97072962Y-41547980D01*
X97029121Y-41602384D01*
X96962827Y-41624449D01*
X96895128Y-41607170D01*
X96847517Y-41556033D01*
X96843840Y-41547980D01*
X96797798Y-41436824D01*
X96797791Y-41436811D01*
X96710190Y-41305708D01*
X96710187Y-41305704D01*
X96598693Y-41194210D01*
X96598689Y-41194207D01*
X96467586Y-41106606D01*
X96467573Y-41106599D01*
X96321902Y-41046261D01*
X96321890Y-41046258D01*
X96167246Y-41015497D01*
X96167243Y-41015497D01*
X96009559Y-41015497D01*
X96009556Y-41015497D01*
X95854911Y-41046258D01*
X95854899Y-41046261D01*
X95709228Y-41106599D01*
X95709215Y-41106606D01*
X95578112Y-41194207D01*
X95578108Y-41194210D01*
X95466614Y-41305704D01*
X95466611Y-41305708D01*
X95376503Y-41440564D01*
X95322891Y-41485369D01*
X95253566Y-41494076D01*
X95190538Y-41463921D01*
X95170299Y-41440564D01*
X95080190Y-41305708D01*
X95080187Y-41305704D01*
X94968693Y-41194210D01*
X94968689Y-41194207D01*
X94837586Y-41106606D01*
X94837573Y-41106599D01*
X94691902Y-41046261D01*
X94691890Y-41046258D01*
X94537246Y-41015497D01*
X94537243Y-41015497D01*
X94379559Y-41015497D01*
X94379556Y-41015497D01*
X94224911Y-41046258D01*
X94224899Y-41046261D01*
X94079228Y-41106599D01*
X94079215Y-41106606D01*
X93948112Y-41194207D01*
X93948108Y-41194210D01*
X93836614Y-41305704D01*
X93836611Y-41305708D01*
X93749010Y-41436811D01*
X93749003Y-41436824D01*
X93688665Y-41582495D01*
X93688662Y-41582507D01*
X93657901Y-41737150D01*
X90800000Y-41737150D01*
X90800000Y-39139500D01*
X90819685Y-39072461D01*
X90872489Y-39026706D01*
X90924000Y-39015500D01*
X127876000Y-39015500D01*
X127943039Y-39035185D01*
G37*
%TD.AperFunction*%
%TD*%
%TA.AperFunction,Conductor*%
%TO.N,GND*%
G36*
X104817749Y-47775185D02*
G01*
X104863504Y-47827989D01*
X104873448Y-47897147D01*
X104861342Y-47932122D01*
X104862104Y-47932438D01*
X104858993Y-47939948D01*
X104831700Y-48041808D01*
X104831700Y-48147262D01*
X104858993Y-48249122D01*
X104911720Y-48340448D01*
X104986287Y-48415015D01*
X105077613Y-48467742D01*
X105179473Y-48495035D01*
X105179475Y-48495035D01*
X105284925Y-48495035D01*
X105284927Y-48495035D01*
X105386787Y-48467742D01*
X105478113Y-48415015D01*
X105552680Y-48340448D01*
X105605407Y-48249122D01*
X105632700Y-48147262D01*
X105632700Y-48041808D01*
X105605407Y-47939948D01*
X105605403Y-47939941D01*
X105602296Y-47932438D01*
X105603939Y-47931757D01*
X105589830Y-47873601D01*
X105612682Y-47807574D01*
X105667603Y-47764383D01*
X105713690Y-47755500D01*
X107299356Y-47755500D01*
X107366395Y-47775185D01*
X107412150Y-47827989D01*
X107422094Y-47897147D01*
X107409988Y-47932122D01*
X107410750Y-47932438D01*
X107407639Y-47939948D01*
X107380346Y-48041808D01*
X107380346Y-48147262D01*
X107407639Y-48249122D01*
X107460366Y-48340448D01*
X107534933Y-48415015D01*
X107626259Y-48467742D01*
X107728119Y-48495035D01*
X107728121Y-48495035D01*
X107833571Y-48495035D01*
X107833573Y-48495035D01*
X107935433Y-48467742D01*
X108026759Y-48415015D01*
X108101326Y-48340448D01*
X108154053Y-48249122D01*
X108181346Y-48147262D01*
X108181346Y-48041808D01*
X108154053Y-47939948D01*
X108154049Y-47939941D01*
X108150942Y-47932438D01*
X108152585Y-47931757D01*
X108138476Y-47873601D01*
X108161328Y-47807574D01*
X108216249Y-47764383D01*
X108262336Y-47755500D01*
X108920500Y-47755500D01*
X108987539Y-47775185D01*
X109033294Y-47827989D01*
X109044500Y-47879500D01*
X109044500Y-58920500D01*
X109024815Y-58987539D01*
X108972011Y-59033294D01*
X108920500Y-59044500D01*
X95823991Y-59044500D01*
X95790944Y-59048054D01*
X95739433Y-59059260D01*
X95670657Y-59093686D01*
X95617860Y-59139436D01*
X95612376Y-59144422D01*
X95570486Y-59213145D01*
X95570483Y-59213151D01*
X95550799Y-59280187D01*
X95550797Y-59280197D01*
X95544500Y-59323996D01*
X95544500Y-64476008D01*
X95548054Y-64509055D01*
X95559260Y-64560566D01*
X95593686Y-64629342D01*
X95639436Y-64682139D01*
X95644422Y-64687623D01*
X95713145Y-64729513D01*
X95713150Y-64729516D01*
X95780189Y-64749201D01*
X95824000Y-64755500D01*
X101020500Y-64755500D01*
X101087539Y-64775185D01*
X101133294Y-64827989D01*
X101144500Y-64879500D01*
X101144500Y-100676008D01*
X101148054Y-100709055D01*
X101159260Y-100760566D01*
X101193686Y-100829342D01*
X101239436Y-100882139D01*
X101244422Y-100887623D01*
X101313145Y-100929513D01*
X101313150Y-100929516D01*
X101380189Y-100949201D01*
X101424000Y-100955500D01*
X118320500Y-100955500D01*
X118387539Y-100975185D01*
X118433294Y-101027989D01*
X118444500Y-101079500D01*
X118444500Y-119876008D01*
X118448054Y-119909055D01*
X118459260Y-119960566D01*
X118493686Y-120029342D01*
X118539436Y-120082139D01*
X118544422Y-120087623D01*
X118613145Y-120129513D01*
X118613150Y-120129516D01*
X118680189Y-120149201D01*
X118724000Y-120155500D01*
X118724003Y-120155500D01*
X121418458Y-120155500D01*
X121427095Y-120158036D01*
X121436006Y-120156748D01*
X121460099Y-120167727D01*
X121485497Y-120175185D01*
X121491390Y-120181986D01*
X121499585Y-120185721D01*
X121513919Y-120207985D01*
X121531252Y-120227989D01*
X121533532Y-120238450D01*
X121537407Y-120244469D01*
X121542458Y-120279400D01*
X121542653Y-120520400D01*
X121523023Y-120587455D01*
X121470256Y-120633253D01*
X121418653Y-120644500D01*
X100123991Y-120644500D01*
X100090944Y-120648054D01*
X100039433Y-120659260D01*
X99970657Y-120693686D01*
X99917860Y-120739436D01*
X99912376Y-120744422D01*
X99870486Y-120813145D01*
X99870483Y-120813151D01*
X99850799Y-120880187D01*
X99850797Y-120880197D01*
X99844500Y-120923996D01*
X99844500Y-120924000D01*
X99844500Y-121408118D01*
X99848074Y-121441266D01*
X99848075Y-121441273D01*
X99848076Y-121441277D01*
X99848077Y-121441284D01*
X99850070Y-121450420D01*
X99845125Y-121520114D01*
X99803285Y-121576071D01*
X99754714Y-121595871D01*
X99755123Y-121597397D01*
X99747274Y-121599500D01*
X99747273Y-121599500D01*
X99670918Y-121619959D01*
X99645413Y-121626793D01*
X99645410Y-121626794D01*
X99554085Y-121679521D01*
X99479521Y-121754085D01*
X99426794Y-121845410D01*
X99426793Y-121845413D01*
X99399500Y-121947273D01*
X99399500Y-122052727D01*
X99426793Y-122154587D01*
X99479520Y-122245913D01*
X99554087Y-122320480D01*
X99645413Y-122373207D01*
X99747273Y-122400500D01*
X99747275Y-122400500D01*
X99852725Y-122400500D01*
X99852727Y-122400500D01*
X99954587Y-122373207D01*
X100045913Y-122320480D01*
X100120480Y-122245913D01*
X100173207Y-122154587D01*
X100200500Y-122052727D01*
X100200500Y-121947273D01*
X100173207Y-121845413D01*
X100173206Y-121845411D01*
X100172695Y-121843504D01*
X100174358Y-121773654D01*
X100213521Y-121715792D01*
X100277749Y-121688288D01*
X100292294Y-121687412D01*
X101864448Y-121685488D01*
X101864456Y-121685487D01*
X101864457Y-121685487D01*
X101891596Y-121682217D01*
X101901008Y-121681083D01*
X101957671Y-121667301D01*
X102028223Y-121628752D01*
X102078792Y-121580539D01*
X102095650Y-121559101D01*
X102105421Y-121548093D01*
X102138022Y-121515492D01*
X102163691Y-121495795D01*
X102191300Y-121479855D01*
X102221200Y-121467472D01*
X102251980Y-121459225D01*
X102284072Y-121455000D01*
X102315931Y-121455000D01*
X102348016Y-121459223D01*
X102378802Y-121467472D01*
X102408698Y-121479854D01*
X102436302Y-121495791D01*
X102461977Y-121515494D01*
X102493138Y-121546655D01*
X102504702Y-121559996D01*
X102515417Y-121574300D01*
X102555898Y-121616702D01*
X102555968Y-121616775D01*
X102624752Y-121658581D01*
X102624757Y-121658582D01*
X102625513Y-121658916D01*
X102626054Y-121659373D01*
X102631698Y-121662803D01*
X102631163Y-121663682D01*
X102678919Y-121703968D01*
X102699489Y-121770741D01*
X102699500Y-121772383D01*
X102699500Y-121852727D01*
X102726793Y-121954587D01*
X102779520Y-122045913D01*
X102854087Y-122120480D01*
X102945413Y-122173207D01*
X103047273Y-122200500D01*
X103047275Y-122200500D01*
X103152725Y-122200500D01*
X103152727Y-122200500D01*
X103254587Y-122173207D01*
X103345913Y-122120480D01*
X103420480Y-122045913D01*
X103473207Y-121954587D01*
X103500500Y-121852727D01*
X103500500Y-121807334D01*
X103520185Y-121740295D01*
X103572989Y-121694540D01*
X103624345Y-121683334D01*
X106709762Y-121679558D01*
X106776825Y-121699161D01*
X106822644Y-121751909D01*
X106832672Y-121821055D01*
X106828207Y-121837377D01*
X106828897Y-121837562D01*
X106826793Y-121845411D01*
X106826793Y-121845413D01*
X106799500Y-121947273D01*
X106799500Y-122052727D01*
X106826793Y-122154587D01*
X106879520Y-122245913D01*
X106954087Y-122320480D01*
X107045413Y-122373207D01*
X107147273Y-122400500D01*
X107147275Y-122400500D01*
X107252725Y-122400500D01*
X107252727Y-122400500D01*
X107354587Y-122373207D01*
X107445913Y-122320480D01*
X107520480Y-122245913D01*
X107573207Y-122154587D01*
X107600500Y-122052727D01*
X107600500Y-121947273D01*
X107573207Y-121845413D01*
X107573206Y-121845411D01*
X107571103Y-121837562D01*
X107573642Y-121836881D01*
X107567554Y-121780369D01*
X107598816Y-121717883D01*
X107658897Y-121682217D01*
X107689435Y-121678359D01*
X109511181Y-121676130D01*
X109578245Y-121695733D01*
X109624064Y-121748481D01*
X109634092Y-121817627D01*
X109628655Y-121837497D01*
X109628897Y-121837562D01*
X109626793Y-121845411D01*
X109626793Y-121845413D01*
X109599500Y-121947273D01*
X109599500Y-122052727D01*
X109626793Y-122154587D01*
X109679520Y-122245913D01*
X109754087Y-122320480D01*
X109845413Y-122373207D01*
X109947273Y-122400500D01*
X109947275Y-122400500D01*
X110052725Y-122400500D01*
X110052727Y-122400500D01*
X110154587Y-122373207D01*
X110245913Y-122320480D01*
X110320480Y-122245913D01*
X110373207Y-122154587D01*
X110400500Y-122052727D01*
X110400500Y-121947273D01*
X110373207Y-121845413D01*
X110373206Y-121845411D01*
X110371103Y-121837562D01*
X110372618Y-121837155D01*
X110366141Y-121776919D01*
X110397415Y-121714440D01*
X110457503Y-121678786D01*
X110488013Y-121674934D01*
X121475854Y-121661487D01*
X121542912Y-121681089D01*
X121588731Y-121733837D01*
X121600000Y-121785486D01*
X121600000Y-125520500D01*
X121580315Y-125587539D01*
X121527511Y-125633294D01*
X121476000Y-125644500D01*
X111864651Y-125644500D01*
X111854481Y-125644833D01*
X111854461Y-125644834D01*
X111852455Y-125644900D01*
X111852453Y-125644850D01*
X111847875Y-125645000D01*
X111752125Y-125645000D01*
X111747546Y-125644850D01*
X111747545Y-125644900D01*
X111745538Y-125644834D01*
X111745519Y-125644833D01*
X111735349Y-125644500D01*
X105654593Y-125644500D01*
X105654587Y-125644500D01*
X105651017Y-125644734D01*
X105642906Y-125645000D01*
X105557094Y-125645000D01*
X105548983Y-125644734D01*
X105545413Y-125644500D01*
X105545407Y-125644500D01*
X104264651Y-125644500D01*
X104254481Y-125644833D01*
X104254461Y-125644834D01*
X104252455Y-125644900D01*
X104252453Y-125644850D01*
X104247875Y-125645000D01*
X104152125Y-125645000D01*
X104147546Y-125644850D01*
X104147545Y-125644900D01*
X104145538Y-125644834D01*
X104145519Y-125644833D01*
X104135349Y-125644500D01*
X98054593Y-125644500D01*
X98054587Y-125644500D01*
X98051017Y-125644734D01*
X98042906Y-125645000D01*
X97957094Y-125645000D01*
X97948983Y-125644734D01*
X97945413Y-125644500D01*
X97945407Y-125644500D01*
X96279500Y-125644500D01*
X96212461Y-125624815D01*
X96166706Y-125572011D01*
X96155500Y-125520500D01*
X96155500Y-114647273D01*
X96974500Y-114647273D01*
X96974500Y-114752727D01*
X97001793Y-114854587D01*
X97054520Y-114945913D01*
X97129087Y-115020480D01*
X97220413Y-115073207D01*
X97322273Y-115100500D01*
X97322275Y-115100500D01*
X97427725Y-115100500D01*
X97427727Y-115100500D01*
X97529587Y-115073207D01*
X97620913Y-115020480D01*
X97695480Y-114945913D01*
X97748207Y-114854587D01*
X97775500Y-114752727D01*
X97775500Y-114647273D01*
X97748207Y-114545413D01*
X97695480Y-114454087D01*
X97620913Y-114379520D01*
X97529587Y-114326793D01*
X97427727Y-114299500D01*
X97322273Y-114299500D01*
X97220413Y-114326793D01*
X97220410Y-114326794D01*
X97129085Y-114379521D01*
X97054521Y-114454085D01*
X97001794Y-114545410D01*
X97001793Y-114545413D01*
X96974500Y-114647273D01*
X96155500Y-114647273D01*
X96155500Y-109679500D01*
X96175185Y-109612461D01*
X96227989Y-109566706D01*
X96279500Y-109555500D01*
X106475991Y-109555500D01*
X106476000Y-109555500D01*
X106509055Y-109551946D01*
X106560566Y-109540740D01*
X106629342Y-109506313D01*
X106682146Y-109460558D01*
X106687621Y-109455580D01*
X106729516Y-109386850D01*
X106749201Y-109319811D01*
X106755500Y-109276000D01*
X106755500Y-108479500D01*
X106775185Y-108412461D01*
X106827989Y-108366706D01*
X106879500Y-108355500D01*
X107145413Y-108355500D01*
X107148983Y-108355266D01*
X107157094Y-108355000D01*
X107242906Y-108355000D01*
X107251017Y-108355266D01*
X107254587Y-108355500D01*
X107254593Y-108355500D01*
X107735334Y-108355500D01*
X107735349Y-108355500D01*
X107745519Y-108355167D01*
X107745538Y-108355165D01*
X107747545Y-108355100D01*
X107747546Y-108355149D01*
X107752125Y-108355000D01*
X107847875Y-108355000D01*
X107852453Y-108355149D01*
X107852455Y-108355100D01*
X107854461Y-108355165D01*
X107854481Y-108355167D01*
X107864651Y-108355500D01*
X107864666Y-108355500D01*
X107876000Y-108355500D01*
X107898130Y-108353917D01*
X107933065Y-108348894D01*
X107949949Y-108342595D01*
X107950044Y-108343029D01*
X107960559Y-108340742D01*
X107977057Y-108332482D01*
X107983279Y-108330162D01*
X107983278Y-108330162D01*
X107995017Y-108325784D01*
X108001078Y-108321888D01*
X108001077Y-108321887D01*
X108005511Y-108319037D01*
X108005525Y-108319028D01*
X108011114Y-108315435D01*
X108029344Y-108306312D01*
X108040909Y-108296289D01*
X108053780Y-108288019D01*
X108059921Y-108283863D01*
X108065062Y-108277634D01*
X108079497Y-108262853D01*
X108082138Y-108260565D01*
X108087622Y-108255580D01*
X108099902Y-108235432D01*
X108111165Y-108221790D01*
X108114926Y-108213553D01*
X108113605Y-108212950D01*
X108129516Y-108186848D01*
X108131327Y-108180677D01*
X108137516Y-108164086D01*
X108140185Y-108158245D01*
X108143102Y-108151433D01*
X108144061Y-108143405D01*
X108148207Y-108123191D01*
X108149197Y-108119823D01*
X108155500Y-108076000D01*
X108155500Y-107796832D01*
X110889500Y-107796832D01*
X110889500Y-107902286D01*
X110916793Y-108004146D01*
X110969520Y-108095472D01*
X111044087Y-108170039D01*
X111135413Y-108222766D01*
X111237273Y-108250059D01*
X111237275Y-108250059D01*
X111342725Y-108250059D01*
X111342727Y-108250059D01*
X111444587Y-108222766D01*
X111535913Y-108170039D01*
X111610480Y-108095472D01*
X111663207Y-108004146D01*
X111690500Y-107902286D01*
X111690500Y-107796832D01*
X111663207Y-107694972D01*
X111610480Y-107603646D01*
X111535913Y-107529079D01*
X111457209Y-107483639D01*
X111408996Y-107433074D01*
X111395774Y-107364466D01*
X111421742Y-107299602D01*
X111460786Y-107270014D01*
X111459562Y-107267894D01*
X111466601Y-107263830D01*
X111557927Y-107211103D01*
X111632494Y-107136536D01*
X111685221Y-107045210D01*
X111712514Y-106943350D01*
X111712514Y-106837896D01*
X111685221Y-106736036D01*
X111632494Y-106644710D01*
X111557927Y-106570143D01*
X111466601Y-106517416D01*
X111364741Y-106490123D01*
X111259287Y-106490123D01*
X111157427Y-106517416D01*
X111157424Y-106517417D01*
X111066099Y-106570144D01*
X110991535Y-106644708D01*
X110938808Y-106736033D01*
X110938807Y-106736036D01*
X110911514Y-106837896D01*
X110911514Y-106943350D01*
X110938807Y-107045210D01*
X110991534Y-107136536D01*
X111066101Y-107211103D01*
X111144801Y-107256540D01*
X111193017Y-107307107D01*
X111206240Y-107375714D01*
X111180271Y-107440579D01*
X111141233Y-107470177D01*
X111142452Y-107472288D01*
X111044085Y-107529080D01*
X110969521Y-107603644D01*
X110916794Y-107694969D01*
X110916793Y-107694972D01*
X110889500Y-107796832D01*
X108155500Y-107796832D01*
X108155500Y-105997273D01*
X110124500Y-105997273D01*
X110124500Y-106102727D01*
X110151793Y-106204587D01*
X110204520Y-106295913D01*
X110279087Y-106370480D01*
X110370413Y-106423207D01*
X110472273Y-106450500D01*
X110472275Y-106450500D01*
X110577725Y-106450500D01*
X110577727Y-106450500D01*
X110679587Y-106423207D01*
X110770913Y-106370480D01*
X110845480Y-106295913D01*
X110898207Y-106204587D01*
X110925500Y-106102727D01*
X110925500Y-105997273D01*
X110898207Y-105895413D01*
X110845480Y-105804087D01*
X110770913Y-105729520D01*
X110679587Y-105676793D01*
X110577727Y-105649500D01*
X110472273Y-105649500D01*
X110370413Y-105676793D01*
X110370410Y-105676794D01*
X110279085Y-105729521D01*
X110204521Y-105804085D01*
X110151794Y-105895410D01*
X110151793Y-105895413D01*
X110124500Y-105997273D01*
X108155500Y-105997273D01*
X108155500Y-105724000D01*
X108151946Y-105690945D01*
X108140740Y-105639434D01*
X108112431Y-105582880D01*
X108106313Y-105570657D01*
X108060563Y-105517860D01*
X108055577Y-105512376D01*
X107986854Y-105470486D01*
X107986848Y-105470483D01*
X107919812Y-105450799D01*
X107919802Y-105450797D01*
X107876003Y-105444500D01*
X107876000Y-105444500D01*
X107079500Y-105444500D01*
X107070814Y-105441949D01*
X107061853Y-105443238D01*
X107037812Y-105432259D01*
X107012461Y-105424815D01*
X107006533Y-105417974D01*
X106998297Y-105414213D01*
X106984007Y-105391978D01*
X106966706Y-105372011D01*
X106964418Y-105361496D01*
X106960523Y-105355435D01*
X106955500Y-105320500D01*
X106955500Y-105209675D01*
X109274500Y-105209675D01*
X109274500Y-105315129D01*
X109301793Y-105416989D01*
X109354520Y-105508315D01*
X109429087Y-105582882D01*
X109520413Y-105635609D01*
X109622273Y-105662902D01*
X109622275Y-105662902D01*
X109727725Y-105662902D01*
X109727727Y-105662902D01*
X109829587Y-105635609D01*
X109920913Y-105582882D01*
X109995480Y-105508315D01*
X110048207Y-105416989D01*
X110075500Y-105315129D01*
X110075500Y-105209675D01*
X110048207Y-105107815D01*
X109995480Y-105016489D01*
X109920913Y-104941922D01*
X109829587Y-104889195D01*
X109727727Y-104861902D01*
X109622273Y-104861902D01*
X109520413Y-104889195D01*
X109520410Y-104889196D01*
X109429085Y-104941923D01*
X109354521Y-105016487D01*
X109301794Y-105107812D01*
X109301793Y-105107815D01*
X109274500Y-105209675D01*
X106955500Y-105209675D01*
X106955500Y-103422273D01*
X110924500Y-103422273D01*
X110924500Y-103527727D01*
X110951793Y-103629587D01*
X111004520Y-103720913D01*
X111079087Y-103795480D01*
X111170413Y-103848207D01*
X111272273Y-103875500D01*
X111272275Y-103875500D01*
X111377725Y-103875500D01*
X111377727Y-103875500D01*
X111479587Y-103848207D01*
X111570913Y-103795480D01*
X111645480Y-103720913D01*
X111698207Y-103629587D01*
X111725500Y-103527727D01*
X111725500Y-103422273D01*
X111698207Y-103320413D01*
X111645480Y-103229087D01*
X111570913Y-103154520D01*
X111479587Y-103101793D01*
X111377727Y-103074500D01*
X111272273Y-103074500D01*
X111170413Y-103101793D01*
X111170410Y-103101794D01*
X111079085Y-103154521D01*
X111004521Y-103229085D01*
X110951794Y-103320410D01*
X110951793Y-103320413D01*
X110924500Y-103422273D01*
X106955500Y-103422273D01*
X106955500Y-102524008D01*
X106955499Y-102523996D01*
X106951946Y-102490945D01*
X106940740Y-102439434D01*
X106923545Y-102405084D01*
X106906313Y-102370657D01*
X106860563Y-102317860D01*
X106855577Y-102312376D01*
X106786854Y-102270486D01*
X106786848Y-102270483D01*
X106719812Y-102250799D01*
X106719802Y-102250797D01*
X106676003Y-102244500D01*
X106676000Y-102244500D01*
X105054593Y-102244500D01*
X105054587Y-102244500D01*
X105051017Y-102244734D01*
X105042906Y-102245000D01*
X104957094Y-102245000D01*
X104948983Y-102244734D01*
X104945413Y-102244500D01*
X104945407Y-102244500D01*
X103724000Y-102244500D01*
X103723991Y-102244500D01*
X103690944Y-102248054D01*
X103639433Y-102259260D01*
X103570657Y-102293686D01*
X103517860Y-102339436D01*
X103512376Y-102344422D01*
X103470486Y-102413145D01*
X103470483Y-102413151D01*
X103450799Y-102480187D01*
X103450797Y-102480197D01*
X103444500Y-102523996D01*
X103444500Y-103720500D01*
X103424815Y-103787539D01*
X103372011Y-103833294D01*
X103320500Y-103844500D01*
X100119545Y-103844500D01*
X100052506Y-103824815D01*
X100006751Y-103772011D01*
X99996807Y-103702853D01*
X100017550Y-103653605D01*
X100016416Y-103652951D01*
X100020478Y-103645914D01*
X100020480Y-103645913D01*
X100073207Y-103554587D01*
X100100500Y-103452727D01*
X100100500Y-103347273D01*
X100073207Y-103245413D01*
X100020480Y-103154087D01*
X99945913Y-103079520D01*
X99854587Y-103026793D01*
X99752727Y-102999500D01*
X99647273Y-102999500D01*
X99545413Y-103026793D01*
X99545410Y-103026794D01*
X99454085Y-103079521D01*
X99379521Y-103154085D01*
X99326794Y-103245410D01*
X99326793Y-103245413D01*
X99299500Y-103347273D01*
X99299500Y-103452727D01*
X99326793Y-103554587D01*
X99379520Y-103645913D01*
X99379521Y-103645914D01*
X99383584Y-103652951D01*
X99382206Y-103653746D01*
X99404025Y-103710181D01*
X99389987Y-103778626D01*
X99341174Y-103828617D01*
X99280455Y-103844500D01*
X90924000Y-103844500D01*
X90856961Y-103824815D01*
X90811206Y-103772011D01*
X90800000Y-103720500D01*
X90800000Y-101822273D01*
X107274500Y-101822273D01*
X107274500Y-101927727D01*
X107301793Y-102029587D01*
X107354520Y-102120913D01*
X107429087Y-102195480D01*
X107520413Y-102248207D01*
X107622273Y-102275500D01*
X107622275Y-102275500D01*
X107727725Y-102275500D01*
X107727727Y-102275500D01*
X107829587Y-102248207D01*
X107920913Y-102195480D01*
X107995480Y-102120913D01*
X108048207Y-102029587D01*
X108075500Y-101927727D01*
X108075500Y-101822273D01*
X108048207Y-101720413D01*
X107995480Y-101629087D01*
X107920913Y-101554520D01*
X107829587Y-101501793D01*
X107727727Y-101474500D01*
X107622273Y-101474500D01*
X107520413Y-101501793D01*
X107520410Y-101501794D01*
X107429085Y-101554521D01*
X107354521Y-101629085D01*
X107301794Y-101720410D01*
X107301793Y-101720413D01*
X107274500Y-101822273D01*
X90800000Y-101822273D01*
X90800000Y-100947273D01*
X91399500Y-100947273D01*
X91399500Y-101052727D01*
X91426793Y-101154587D01*
X91479520Y-101245913D01*
X91554087Y-101320480D01*
X91645413Y-101373207D01*
X91747273Y-101400500D01*
X91747275Y-101400500D01*
X91852725Y-101400500D01*
X91852727Y-101400500D01*
X91954587Y-101373207D01*
X92045913Y-101320480D01*
X92120480Y-101245913D01*
X92173207Y-101154587D01*
X92183205Y-101117273D01*
X93179500Y-101117273D01*
X93179500Y-101222727D01*
X93206793Y-101324587D01*
X93259520Y-101415913D01*
X93334087Y-101490480D01*
X93425413Y-101543207D01*
X93527273Y-101570500D01*
X93527275Y-101570500D01*
X93632725Y-101570500D01*
X93632727Y-101570500D01*
X93734587Y-101543207D01*
X93825913Y-101490480D01*
X93900480Y-101415913D01*
X93953207Y-101324587D01*
X93980500Y-101222727D01*
X93980500Y-101117273D01*
X93953207Y-101015413D01*
X93900480Y-100924087D01*
X93825913Y-100849520D01*
X93734587Y-100796793D01*
X93632727Y-100769500D01*
X93527273Y-100769500D01*
X93425413Y-100796793D01*
X93425410Y-100796794D01*
X93334085Y-100849521D01*
X93259521Y-100924085D01*
X93206794Y-101015410D01*
X93206793Y-101015413D01*
X93179500Y-101117273D01*
X92183205Y-101117273D01*
X92200500Y-101052727D01*
X92200500Y-100947273D01*
X92173207Y-100845413D01*
X92120480Y-100754087D01*
X92045913Y-100679520D01*
X91954587Y-100626793D01*
X91852727Y-100599500D01*
X91747273Y-100599500D01*
X91645413Y-100626793D01*
X91645410Y-100626794D01*
X91554085Y-100679521D01*
X91479521Y-100754085D01*
X91426794Y-100845410D01*
X91426793Y-100845413D01*
X91399500Y-100947273D01*
X90800000Y-100947273D01*
X90800000Y-92047273D01*
X97099500Y-92047273D01*
X97099500Y-92152727D01*
X97126793Y-92254587D01*
X97179520Y-92345913D01*
X97254087Y-92420480D01*
X97345413Y-92473207D01*
X97447273Y-92500500D01*
X97447275Y-92500500D01*
X97552725Y-92500500D01*
X97552727Y-92500500D01*
X97654587Y-92473207D01*
X97745913Y-92420480D01*
X97820480Y-92345913D01*
X97873207Y-92254587D01*
X97900500Y-92152727D01*
X97900500Y-92047273D01*
X97873207Y-91945413D01*
X97820480Y-91854087D01*
X97745913Y-91779520D01*
X97654587Y-91726793D01*
X97552727Y-91699500D01*
X97447273Y-91699500D01*
X97345413Y-91726793D01*
X97345410Y-91726794D01*
X97254085Y-91779521D01*
X97179521Y-91854085D01*
X97126794Y-91945410D01*
X97126793Y-91945413D01*
X97099500Y-92047273D01*
X90800000Y-92047273D01*
X90800000Y-83847273D01*
X97099500Y-83847273D01*
X97099500Y-83952727D01*
X97126793Y-84054587D01*
X97179520Y-84145913D01*
X97254087Y-84220480D01*
X97345413Y-84273207D01*
X97447273Y-84300500D01*
X97447275Y-84300500D01*
X97552725Y-84300500D01*
X97552727Y-84300500D01*
X97654587Y-84273207D01*
X97745913Y-84220480D01*
X97820480Y-84145913D01*
X97873207Y-84054587D01*
X97900500Y-83952727D01*
X97900500Y-83847273D01*
X97873207Y-83745413D01*
X97820480Y-83654087D01*
X97745913Y-83579520D01*
X97654587Y-83526793D01*
X97552727Y-83499500D01*
X97447273Y-83499500D01*
X97345413Y-83526793D01*
X97345410Y-83526794D01*
X97254085Y-83579521D01*
X97179521Y-83654085D01*
X97126794Y-83745410D01*
X97126793Y-83745413D01*
X97099500Y-83847273D01*
X90800000Y-83847273D01*
X90800000Y-77348543D01*
X97624499Y-77348543D01*
X97662947Y-77541829D01*
X97662950Y-77541839D01*
X97738364Y-77723907D01*
X97738371Y-77723920D01*
X97847860Y-77887781D01*
X97847863Y-77887785D01*
X97987214Y-78027136D01*
X97987218Y-78027139D01*
X98151079Y-78136628D01*
X98151092Y-78136635D01*
X98333160Y-78212049D01*
X98333165Y-78212051D01*
X98333169Y-78212051D01*
X98333170Y-78212052D01*
X98526456Y-78250500D01*
X98526459Y-78250500D01*
X99023543Y-78250500D01*
X99153582Y-78224632D01*
X99216835Y-78212051D01*
X99398914Y-78136632D01*
X99562782Y-78027139D01*
X99702139Y-77887782D01*
X99811632Y-77723914D01*
X99887051Y-77541835D01*
X99915260Y-77400021D01*
X99925500Y-77348543D01*
X99925500Y-77151456D01*
X99887052Y-76958170D01*
X99887051Y-76958169D01*
X99887051Y-76958165D01*
X99887049Y-76958160D01*
X99811635Y-76776092D01*
X99811628Y-76776079D01*
X99702139Y-76612218D01*
X99702136Y-76612214D01*
X99562785Y-76472863D01*
X99562781Y-76472860D01*
X99398920Y-76363371D01*
X99398907Y-76363364D01*
X99216839Y-76287950D01*
X99216829Y-76287947D01*
X99023543Y-76249500D01*
X99023541Y-76249500D01*
X98526459Y-76249500D01*
X98526457Y-76249500D01*
X98333170Y-76287947D01*
X98333160Y-76287950D01*
X98151092Y-76363364D01*
X98151079Y-76363371D01*
X97987218Y-76472860D01*
X97987214Y-76472863D01*
X97847863Y-76612214D01*
X97847860Y-76612218D01*
X97738371Y-76776079D01*
X97738364Y-76776092D01*
X97662950Y-76958160D01*
X97662947Y-76958170D01*
X97624500Y-77151456D01*
X97624500Y-77151459D01*
X97624500Y-77348541D01*
X97624500Y-77348543D01*
X97624499Y-77348543D01*
X90800000Y-77348543D01*
X90800000Y-74118475D01*
X97624500Y-74118475D01*
X97624500Y-75381517D01*
X97635292Y-75449657D01*
X97639354Y-75475304D01*
X97696950Y-75588342D01*
X97696952Y-75588344D01*
X97696954Y-75588347D01*
X97786652Y-75678045D01*
X97786654Y-75678046D01*
X97786658Y-75678050D01*
X97899694Y-75735645D01*
X97899698Y-75735647D01*
X97993475Y-75750499D01*
X97993481Y-75750500D01*
X99556518Y-75750499D01*
X99650304Y-75735646D01*
X99763342Y-75678050D01*
X99853050Y-75588342D01*
X99910646Y-75475304D01*
X99910646Y-75475302D01*
X99910647Y-75475301D01*
X99925499Y-75381524D01*
X99925500Y-75381519D01*
X99925499Y-74118482D01*
X99910646Y-74024696D01*
X99853050Y-73911658D01*
X99853046Y-73911654D01*
X99853045Y-73911652D01*
X99763347Y-73821954D01*
X99763344Y-73821952D01*
X99763342Y-73821950D01*
X99662906Y-73770775D01*
X99650301Y-73764352D01*
X99556524Y-73749500D01*
X97993482Y-73749500D01*
X97912519Y-73762323D01*
X97899696Y-73764354D01*
X97786658Y-73821950D01*
X97786657Y-73821951D01*
X97786652Y-73821954D01*
X97696954Y-73911652D01*
X97696951Y-73911657D01*
X97639352Y-74024698D01*
X97624500Y-74118475D01*
X90800000Y-74118475D01*
X90800000Y-73218995D01*
X96074499Y-73218995D01*
X96101418Y-73354322D01*
X96101421Y-73354332D01*
X96154221Y-73481804D01*
X96154228Y-73481817D01*
X96230885Y-73596541D01*
X96230888Y-73596545D01*
X96328454Y-73694111D01*
X96328458Y-73694114D01*
X96443182Y-73770771D01*
X96443195Y-73770778D01*
X96566737Y-73821950D01*
X96570672Y-73823580D01*
X96570676Y-73823580D01*
X96570677Y-73823581D01*
X96706004Y-73850500D01*
X96706007Y-73850500D01*
X96843995Y-73850500D01*
X96935041Y-73832389D01*
X96979328Y-73823580D01*
X97106811Y-73770775D01*
X97221542Y-73694114D01*
X97319114Y-73596542D01*
X97395775Y-73481811D01*
X97448580Y-73354328D01*
X97475500Y-73218993D01*
X97475500Y-73081007D01*
X97475500Y-73081004D01*
X97448581Y-72945677D01*
X97448580Y-72945676D01*
X97448580Y-72945672D01*
X97425785Y-72890640D01*
X97395778Y-72818195D01*
X97395771Y-72818182D01*
X97319114Y-72703458D01*
X97319111Y-72703454D01*
X97221545Y-72605888D01*
X97221541Y-72605885D01*
X97106817Y-72529228D01*
X97106804Y-72529221D01*
X96979332Y-72476421D01*
X96979322Y-72476418D01*
X96843995Y-72449500D01*
X96843993Y-72449500D01*
X96706007Y-72449500D01*
X96706005Y-72449500D01*
X96570677Y-72476418D01*
X96570667Y-72476421D01*
X96443195Y-72529221D01*
X96443182Y-72529228D01*
X96328458Y-72605885D01*
X96328454Y-72605888D01*
X96230888Y-72703454D01*
X96230885Y-72703458D01*
X96154228Y-72818182D01*
X96154221Y-72818195D01*
X96101421Y-72945667D01*
X96101418Y-72945677D01*
X96074500Y-73081004D01*
X96074500Y-73081007D01*
X96074500Y-73218993D01*
X96074500Y-73218995D01*
X96074499Y-73218995D01*
X90800000Y-73218995D01*
X90800000Y-47879500D01*
X90819685Y-47812461D01*
X90872489Y-47766706D01*
X90924000Y-47755500D01*
X104750710Y-47755500D01*
X104817749Y-47775185D01*
G37*
%TD.AperFunction*%
%TD*%
M02*
