M48
; DRILL file {KiCad 8.0.4} date 2025-02-22T01:37:49+0100
; FORMAT={-:-/ absolute / inch / decimal}
; #@! TF.CreationDate,2025-02-22T01:37:49+01:00
; #@! TF.GenerationSoftware,Kicad,Pcbnew,8.0.4
; #@! TF.FileFunction,Plated,1,4,PTH
FMAT,2
INCH
; #@! TA.AperFunction,Plated,PTH,ViaDrill
T1C0.0118
; #@! TA.AperFunction,Plated,PTH,ComponentDrill
T2C0.0236
; #@! TA.AperFunction,Plated,PTH,ComponentDrill
T3C0.0315
; #@! TA.AperFunction,Plated,PTH,ComponentDrill
T4C0.0394
; #@! TA.AperFunction,Plated,PTH,ComponentDrill
T5C0.0512
%
G90
G05
T1
X1.6378Y-4.9173
X2.1093Y-4.6024
X2.1093Y-4.6378
X2.6683Y-4.6142
X2.7628Y-4.7677
X3.6142Y-3.9764
X3.7008Y-2.4213
X3.7008Y-2.4567
X3.7008Y-2.4961
X3.7244Y-1.7874
X3.7323Y-2.1339
X3.7323Y-2.5433
X3.7598Y-1.8465
X3.7785Y-4.2478
X3.7795Y-3.9764
X3.7795Y-4.0551
X3.7953Y-1.8465
X3.7953Y-1.9449
X3.8337Y-4.5157
X3.8425Y-1.8465
X3.8583Y-2.1339
X3.8583Y-4.937
X3.8583Y-4.9685
X3.8661Y-1.9528
X3.8819Y-1.8465
X3.8819Y-2.4252
X3.8819Y-2.4803
X3.8819Y-2.622
X3.9134Y-1.7874
X3.9252Y-4.0709
X3.9291Y-4.8031
X3.9606Y-4.0709
X3.9606Y-4.252
X3.9921Y-4.0709
X3.9921Y-4.252
X4.0049Y-4.7668
X4.0236Y-4.0709
X4.0236Y-4.252
X4.0394Y-4.8031
X4.0551Y-1.937
X4.0551Y-4.0709
X4.0551Y-4.252
X4.0945Y-4.0472
X4.0945Y-4.0709
X4.1024Y-4.937
X4.1181Y-4.0472
X4.1181Y-4.0709
X4.1339Y-3.9882
X4.1339Y-4.0157
X4.143Y-1.8935
X4.1575Y-4.126
X4.1575Y-4.1496
X4.1575Y-4.1732
X4.1575Y-4.1969
X4.1575Y-4.2205
X4.1575Y-4.937
X4.1575Y-4.9685
X4.1811Y-4.126
X4.1811Y-4.1496
X4.1811Y-4.1732
X4.1811Y-4.1969
X4.189Y-2.874
X4.2087Y-3.0709
X4.2087Y-3.1024
X4.2126Y-4.2205
X4.2126Y-4.2441
X4.2205Y-4.2756
X4.2205Y-4.2992
X4.2205Y-4.8031
X4.2362Y-4.2205
X4.2362Y-4.2441
X4.2392Y-4.0108
X4.2433Y-1.8935
X4.2441Y-4.2756
X4.2441Y-4.2992
X4.2598Y-1.7087
X4.2598Y-1.7402
X4.2632Y-4.1092
X4.2677Y-4.2756
X4.2677Y-4.2992
X4.2756Y-1.937
X4.2756Y-4.2205
X4.2756Y-4.2441
X4.2992Y-4.2205
X4.2992Y-4.2441
X4.2992Y-4.7677
X4.3179Y-4.1442
X4.3307Y-4.8031
X4.3386Y-1.8504
X4.3386Y-3.7402
X4.3386Y-3.811
X4.3465Y-3.5748
X4.3465Y-3.622
X4.3504Y-4.1417
X4.3514Y-4.1752
X4.3543Y-2.1575
X4.3543Y-2.1969
X4.3815Y-4.246
X4.3819Y-3.0709
X4.3819Y-3.1024
X4.3824Y-4.2083
X4.3829Y-4.0738
X4.3858Y-4.0394
X4.3896Y-1.744
X4.4016Y-4.937
X4.4252Y-3.2778
X4.4252Y-3.315
X4.4321Y-4.0994
X4.4331Y-2.6772
X4.437Y-2.8488
X4.4567Y-2.5591
X4.4882Y-2.7913
X4.498Y-3.6063
X4.5157Y-3.2244
X4.5197Y-1.9606
X4.5394Y-1.7638
X4.5512Y-2.811
X4.5551Y-3.2244
X4.5669Y-2.5591
X4.5669Y-2.5925
X4.5748Y-3.8031
X4.5842Y-3.6063
X4.5906Y-1.8504
X4.5906Y-2.0157
X4.5984Y-3.2244
X4.626Y-3.7874
X4.6378Y-3.2244
X4.6457Y-3.5039
X4.6727Y-5.0
X4.6772Y-2.2992
X4.6777Y-3.6063
X4.689Y-3.7874
X4.6909Y-4.2577
X4.6929Y-2.9724
X4.7008Y-3.4016
X4.7008Y-4.6378
X4.7008Y-4.6693
X4.7008Y-4.7008
X4.7087Y-3.7402
X4.7205Y-2.9724
X4.7402Y-4.6378
X4.7402Y-4.6693
X4.7402Y-4.7008
X4.748Y-3.7402
X4.7638Y-1.5984
X4.7638Y-1.6378
X4.7638Y-1.685
X4.7638Y-1.7244
X4.7638Y-5.0
X4.7795Y-3.7087
X4.7874Y-2.8425
X4.8189Y-3.4961
X4.8228Y-3.7087
X4.862Y-2.3348
X4.8819Y-3.4567
X4.9055Y-2.7953
X4.9055Y-4.4252
X4.9055Y-4.4567
X4.9055Y-4.4882
X4.9055Y-4.5197
X5.0Y-2.6693
X5.0Y-2.7165
X5.0079Y-2.5512
T3
X3.7188Y-1.6463
X3.783Y-1.6463
X3.8515Y-1.6463
X3.9157Y-1.6463
T4
X1.6272Y-5.0443
X1.6272Y-5.1443
X1.6272Y-5.2443
X1.7272Y-5.0443
X1.7272Y-5.1443
X1.7272Y-5.2443
X1.8272Y-5.0443
X1.8272Y-5.1443
X1.8272Y-5.2443
X1.9272Y-5.0443
X1.9272Y-5.1443
X1.9272Y-5.2443
X2.0272Y-5.0443
X2.0272Y-5.1443
X2.0272Y-5.2443
X2.1272Y-5.0443
X2.1272Y-5.1443
X2.1272Y-5.2443
X2.2272Y-5.0443
X2.2272Y-5.1443
X2.2272Y-5.2443
X2.3272Y-5.0443
X2.3272Y-5.1443
X2.3272Y-5.2443
X2.3829Y-4.6654
X2.3829Y-4.7638
X2.4272Y-5.0443
X2.4272Y-5.1443
X2.4272Y-5.2443
X2.5272Y-5.0443
X2.5272Y-5.1443
X2.5272Y-5.2443
X2.6272Y-5.0443
X2.6272Y-5.1443
X2.6272Y-5.2443
X2.7272Y-5.0443
X2.7272Y-5.1443
X2.7272Y-5.2443
X2.8272Y-5.0443
X2.8272Y-5.1443
X2.8272Y-5.2443
X2.9272Y-5.0443
X2.9272Y-5.1443
X2.9272Y-5.2443
X3.0272Y-5.0443
X3.0272Y-5.1443
X3.0272Y-5.2443
X3.0493Y-2.2738
X3.0493Y-2.3738
X3.1272Y-5.0443
X3.1272Y-5.1443
X3.1272Y-5.2443
X3.1493Y-2.2738
X3.1493Y-2.3738
X3.2272Y-5.0443
X3.2272Y-5.1443
X3.2272Y-5.2443
X3.2493Y-2.2738
X3.2493Y-2.3738
X3.3272Y-5.0443
X3.3272Y-5.1443
X3.3272Y-5.2443
X3.3493Y-2.2738
X3.3493Y-2.3738
X3.4272Y-5.0443
X3.4272Y-5.1443
X3.4272Y-5.2443
X3.4304Y-2.7391
X3.4304Y-2.8391
X3.4304Y-2.9391
X3.4304Y-3.0391
X3.4304Y-3.1391
X3.4304Y-3.2391
X3.4304Y-3.3391
X3.4304Y-3.5391
X3.4304Y-3.6391
X3.4304Y-3.7391
X3.4304Y-3.8391
X3.4304Y-3.9391
X3.4304Y-4.0391
X3.4304Y-4.1391
X3.4304Y-4.2391
X3.4304Y-4.3391
X3.4304Y-4.4391
X3.4304Y-4.5391
X3.4304Y-4.6391
X3.4317Y-3.4372
X3.4493Y-2.2738
X3.4493Y-2.3738
X3.5272Y-5.0443
X3.5272Y-5.1443
X3.5272Y-5.2443
X3.5304Y-2.7391
X3.5304Y-2.8391
X3.5304Y-2.9391
X3.5304Y-3.0391
X3.5304Y-3.1391
X3.5304Y-3.2391
X3.5304Y-3.3391
X3.5304Y-3.5391
X3.5304Y-3.6391
X3.5304Y-3.7391
X3.5304Y-3.8391
X3.5304Y-3.9391
X3.5304Y-4.0391
X3.5304Y-4.1391
X3.5304Y-4.2391
X3.5304Y-4.3391
X3.5304Y-4.4391
X3.5304Y-4.5391
X3.5304Y-4.6391
X3.5317Y-3.4372
X3.6272Y-5.0443
X3.6272Y-5.1443
X3.6272Y-5.2443
X3.7272Y-5.0443
X3.7272Y-5.1443
X3.7272Y-5.2443
X3.8272Y-5.0443
X3.8272Y-5.1443
X3.8272Y-5.2443
X3.9272Y-5.0443
X3.9272Y-5.1443
X3.9272Y-5.2443
X3.937Y-2.937
X3.937Y-3.0354
X4.0272Y-5.0443
X4.0272Y-5.1443
X4.0272Y-5.2443
X4.0646Y-1.6939
X4.0646Y-1.7939
X4.1272Y-5.0443
X4.1272Y-5.1443
X4.1272Y-5.2443
X4.1646Y-1.6939
X4.1646Y-1.7939
X4.1654Y-2.6394
X4.2272Y-5.0443
X4.2272Y-5.1443
X4.2272Y-5.2443
X4.2638Y-2.4425
X4.3272Y-5.0443
X4.3272Y-5.1443
X4.3272Y-5.2443
X4.3622Y-2.6394
X4.4272Y-5.0443
X4.4272Y-5.1443
X4.4272Y-5.2443
X4.5272Y-5.0443
X4.5272Y-5.1443
X4.5272Y-5.2443
X4.6272Y-5.0443
X4.6272Y-5.1443
X4.6272Y-5.2443
X4.7272Y-5.0443
X4.7272Y-5.1443
X4.7272Y-5.2443
T5
X3.6795Y-1.7349
X3.9551Y-1.7349
T2
G00X4.2936Y-1.6378
M15
G01X4.2936Y-1.6063
M16
G05
G00X4.2936Y-1.8083
M15
G01X4.2936Y-1.765
M16
G05
G00X4.6338Y-1.6378
M15
G01X4.6338Y-1.6063
M16
G05
G00X4.6338Y-1.8083
M15
G01X4.6338Y-1.765
M16
G05
M30
