%TF.GenerationSoftware,KiCad,Pcbnew,8.0.4*%
%TF.CreationDate,2025-02-22T01:37:49+01:00*%
%TF.ProjectId,OrangePie,4f72616e-6765-4506-9965-2e6b69636164,1.0.0*%
%TF.SameCoordinates,Original*%
%TF.FileFunction,Copper,L4,Bot*%
%TF.FilePolarity,Positive*%
%FSLAX46Y46*%
G04 Gerber Fmt 4.6, Leading zero omitted, Abs format (unit mm)*
G04 Created by KiCad (PCBNEW 8.0.4) date 2025-02-22 01:37:49*
%MOMM*%
%LPD*%
G01*
G04 APERTURE LIST*
G04 Aperture macros list*
%AMRoundRect*
0 Rectangle with rounded corners*
0 $1 Rounding radius*
0 $2 $3 $4 $5 $6 $7 $8 $9 X,Y pos of 4 corners*
0 Add a 4 corners polygon primitive as box body*
4,1,4,$2,$3,$4,$5,$6,$7,$8,$9,$2,$3,0*
0 Add four circle primitives for the rounded corners*
1,1,$1+$1,$2,$3*
1,1,$1+$1,$4,$5*
1,1,$1+$1,$6,$7*
1,1,$1+$1,$8,$9*
0 Add four rect primitives between the rounded corners*
20,1,$1+$1,$2,$3,$4,$5,0*
20,1,$1+$1,$4,$5,$6,$7,0*
20,1,$1+$1,$6,$7,$8,$9,0*
20,1,$1+$1,$8,$9,$2,$3,0*%
G04 Aperture macros list end*
%TA.AperFunction,ComponentPad*%
%ADD10C,1.300000*%
%TD*%
%TA.AperFunction,ComponentPad*%
%ADD11C,2.286000*%
%TD*%
%TA.AperFunction,ComponentPad*%
%ADD12RoundRect,0.250000X-0.750000X0.600000X-0.750000X-0.600000X0.750000X-0.600000X0.750000X0.600000X0*%
%TD*%
%TA.AperFunction,ComponentPad*%
%ADD13O,2.000000X1.700000*%
%TD*%
%TA.AperFunction,ComponentPad*%
%ADD14C,1.600000*%
%TD*%
%TA.AperFunction,ComponentPad*%
%ADD15R,1.560000X1.560000*%
%TD*%
%TA.AperFunction,ComponentPad*%
%ADD16C,1.560000*%
%TD*%
%TA.AperFunction,ComponentPad*%
%ADD17RoundRect,0.250000X0.750000X-0.600000X0.750000X0.600000X-0.750000X0.600000X-0.750000X-0.600000X0*%
%TD*%
%TA.AperFunction,ComponentPad*%
%ADD18O,1.000000X2.100000*%
%TD*%
%TA.AperFunction,ComponentPad*%
%ADD19O,1.000000X1.800000*%
%TD*%
%TA.AperFunction,ComponentPad*%
%ADD20RoundRect,0.249999X0.525001X0.525001X-0.525001X0.525001X-0.525001X-0.525001X0.525001X-0.525001X0*%
%TD*%
%TA.AperFunction,ComponentPad*%
%ADD21C,1.550000*%
%TD*%
%TA.AperFunction,SMDPad,CuDef*%
%ADD22C,1.000000*%
%TD*%
%TA.AperFunction,WasherPad*%
%ADD23C,4.500000*%
%TD*%
%TA.AperFunction,ComponentPad*%
%ADD24O,1.700000X1.700000*%
%TD*%
%TA.AperFunction,ComponentPad*%
%ADD25R,1.700000X1.700000*%
%TD*%
%TA.AperFunction,ViaPad*%
%ADD26C,0.500000*%
%TD*%
%TA.AperFunction,Conductor*%
%ADD27C,0.200000*%
%TD*%
%TA.AperFunction,Conductor*%
%ADD28C,0.120000*%
%TD*%
G04 APERTURE END LIST*
D10*
%TO.P,BTN1,1*%
%TO.N,GND*%
X99458401Y-41815997D03*
%TO.P,BTN1,2*%
X97828401Y-41815997D03*
%TO.P,BTN1,3*%
%TO.N,Net-(BTN1-Pad3)*%
X96088401Y-41815997D03*
%TO.P,BTN1,4*%
%TO.N,Net-(BTN1-Pad4)*%
X94458401Y-41815997D03*
D11*
%TO.P,BTN1,5*%
%TO.N,N/C*%
X100458401Y-44065997D03*
%TO.P,BTN1,6*%
X93458401Y-44065997D03*
%TD*%
D12*
%TO.P,J3,1,Pin_1*%
%TO.N,Net-(J3-Pin_1)*%
X100000000Y-74600000D03*
D13*
%TO.P,J3,2,Pin_2*%
%TO.N,Net-(J3-Pin_2)*%
X100000000Y-77100000D03*
%TD*%
D14*
%TO.P,LED1,1*%
%TO.N,/OrangePi 5 pro Header/STATUS LED*%
X103242001Y-43025997D03*
%TO.P,LED1,2*%
%TO.N,Net-(LED1-Pad2)*%
X105782001Y-43025997D03*
%TO.P,LED1,3*%
%TO.N,+3V3*%
X103242001Y-45565997D03*
%TO.P,LED1,4*%
%TO.N,Net-(LED1-Pad4)*%
X105782001Y-45565997D03*
%TD*%
D15*
%TO.P,RV1,1,1*%
%TO.N,Net-(U8-V)*%
X110800000Y-67040000D03*
D16*
%TO.P,RV1,2,2*%
X108300000Y-62040000D03*
%TO.P,RV1,3,3*%
%TO.N,GND*%
X105800000Y-67040000D03*
%TD*%
D17*
%TO.P,M1,1,+*%
%TO.N,Net-(M1-+)*%
X60525000Y-121000000D03*
D13*
%TO.P,M1,2,-*%
%TO.N,Net-(M1--)*%
X60525000Y-118500000D03*
%TD*%
D18*
%TO.P,J5,S1,SHIELD*%
%TO.N,Net-(J5-SHIELD)*%
X117698401Y-45380997D03*
D19*
X117698401Y-41200997D03*
D18*
X109058401Y-45380997D03*
D19*
X109058401Y-41200997D03*
%TD*%
D20*
%TO.P,J1,a1,a1*%
%TO.N,GND*%
X120070000Y-133204999D03*
D21*
%TO.P,J1,a2,a2*%
%TO.N,unconnected-(J1-Pada2)*%
X117530000Y-133204999D03*
%TO.P,J1,a3,a3*%
%TO.N,/DIN41612 connector/5v_STDBY*%
X114990000Y-133204999D03*
%TO.P,J1,a4,a4*%
%TO.N,GND*%
X112450000Y-133204999D03*
%TO.P,J1,a5,a5*%
%TO.N,/Can Transiver/CAN_TR_OUT.C+*%
X109910000Y-133204999D03*
%TO.P,J1,a6,a6*%
%TO.N,/Can Transiver/CAN_TR_OUT.C-*%
X107370000Y-133204999D03*
%TO.P,J1,a7,a7*%
%TO.N,GND*%
X104830000Y-133204999D03*
%TO.P,J1,a8,a8*%
%TO.N,/Can Transiver1/CAN_TR_OUT.C+*%
X102290000Y-133204999D03*
%TO.P,J1,a9,a9*%
%TO.N,/Can Transiver1/CAN_TR_OUT.C-*%
X99750000Y-133204999D03*
%TO.P,J1,a10,a10*%
%TO.N,GND*%
X97210000Y-133204999D03*
%TO.P,J1,a11,a11*%
%TO.N,/5v buck/V_{IN}*%
X94670000Y-133204999D03*
%TO.P,J1,a12,a12*%
X92130000Y-133204999D03*
%TO.P,J1,a13,a13*%
%TO.N,GND*%
X89590000Y-133204999D03*
%TO.P,J1,a14,a14*%
%TO.N,/DIN41612 connector/24v*%
X87050000Y-133204999D03*
%TO.P,J1,a15,a15*%
%TO.N,GND*%
X84510000Y-133204999D03*
%TO.P,J1,a16,a16*%
%TO.N,/DIN41612 connector/GPIOL0*%
X81970000Y-133204999D03*
%TO.P,J1,a17,a17*%
%TO.N,/DIN41612 connector/GPIOL1*%
X79430000Y-133204999D03*
%TO.P,J1,a18,a18*%
%TO.N,/DIN41612 connector/GPIOL2*%
X76890000Y-133204999D03*
%TO.P,J1,a19,a19*%
%TO.N,/DIN41612 connector/GPIOL3*%
X74350000Y-133204999D03*
%TO.P,J1,a20,a20*%
%TO.N,/DIN41612 connector/GPIOL4*%
X71810000Y-133204999D03*
%TO.P,J1,a21,a21*%
%TO.N,/DIN41612 connector/GPIOL5*%
X69270000Y-133204999D03*
%TO.P,J1,a22,a22*%
%TO.N,/DIN41612 connector/GPIOL6*%
X66730000Y-133204999D03*
%TO.P,J1,a23,a23*%
%TO.N,/DIN41612 connector/GPIOL7*%
X64190000Y-133204999D03*
%TO.P,J1,a24,a24*%
%TO.N,/DIN41612 connector/GPIOL8*%
X61650000Y-133204999D03*
%TO.P,J1,a25,a25*%
%TO.N,/DIN41612 connector/GPIOL9*%
X59110000Y-133204999D03*
%TO.P,J1,a26,a26*%
%TO.N,/DIN41612 connector/GPIOL10*%
X56570000Y-133204999D03*
%TO.P,J1,a27,a27*%
%TO.N,/DIN41612 connector/GPIOL11*%
X54030000Y-133204999D03*
%TO.P,J1,a28,a28*%
%TO.N,/DIN41612 connector/GPIOL12*%
X51490000Y-133204999D03*
%TO.P,J1,a29,a29*%
%TO.N,/DIN41612 connector/GPIOL13*%
X48950000Y-133204999D03*
%TO.P,J1,a30,a30*%
%TO.N,/DIN41612 connector/GPIOL14*%
X46410000Y-133204999D03*
%TO.P,J1,a31,a31*%
%TO.N,/DIN41612 connector/GPIOL15*%
X43870000Y-133204999D03*
%TO.P,J1,a32,a32*%
%TO.N,GND*%
X41330000Y-133204999D03*
%TO.P,J1,b1,b1*%
X120070000Y-130664999D03*
%TO.P,J1,b2,b2*%
X117530000Y-130664999D03*
%TO.P,J1,b3,b3*%
%TO.N,/DIN41612 connector/5v_STDBY*%
X114990000Y-130664999D03*
%TO.P,J1,b4,b4*%
%TO.N,GND*%
X112450000Y-130664999D03*
%TO.P,J1,b5,b5*%
%TO.N,/Can Transiver/CAN_TR_OUT.C+*%
X109910000Y-130664999D03*
%TO.P,J1,b6,b6*%
%TO.N,/Can Transiver/CAN_TR_OUT.C-*%
X107370000Y-130664999D03*
%TO.P,J1,b7,b7*%
%TO.N,GND*%
X104830000Y-130664999D03*
%TO.P,J1,b8,b8*%
%TO.N,/Can Transiver1/CAN_TR_OUT.C+*%
X102290000Y-130664999D03*
%TO.P,J1,b9,b9*%
%TO.N,/Can Transiver1/CAN_TR_OUT.C-*%
X99750000Y-130664999D03*
%TO.P,J1,b10,b10*%
%TO.N,GND*%
X97210000Y-130664999D03*
%TO.P,J1,b11,b11*%
%TO.N,/5v buck/V_{IN}*%
X94670000Y-130664999D03*
%TO.P,J1,b12,b12*%
X92130000Y-130664999D03*
%TO.P,J1,b13,b13*%
%TO.N,GND*%
X89590000Y-130664999D03*
%TO.P,J1,b14,b14*%
%TO.N,/DIN41612 connector/24v*%
X87050000Y-130664999D03*
%TO.P,J1,b15,b15*%
%TO.N,GND*%
X84510000Y-130664999D03*
%TO.P,J1,b16,b16*%
%TO.N,/DIN41612 connector/GPIOC0*%
X81970000Y-130664999D03*
%TO.P,J1,b17,b17*%
%TO.N,/DIN41612 connector/GPIOC1*%
X79430000Y-130664999D03*
%TO.P,J1,b18,b18*%
%TO.N,/DIN41612 connector/GPIOC2*%
X76890000Y-130664999D03*
%TO.P,J1,b19,b19*%
%TO.N,/DIN41612 connector/GPIOC3*%
X74350000Y-130664999D03*
%TO.P,J1,b20,b20*%
%TO.N,/DIN41612 connector/GPIOC4*%
X71810000Y-130664999D03*
%TO.P,J1,b21,b21*%
%TO.N,/DIN41612 connector/GPIOC5*%
X69270000Y-130664999D03*
%TO.P,J1,b22,b22*%
%TO.N,/DIN41612 connector/GPIOC6*%
X66730000Y-130664999D03*
%TO.P,J1,b23,b23*%
%TO.N,/DIN41612 connector/GPIOC7*%
X64190000Y-130664999D03*
%TO.P,J1,b24,b24*%
%TO.N,/DIN41612 connector/GPIOC8*%
X61650000Y-130664999D03*
%TO.P,J1,b25,b25*%
%TO.N,/DIN41612 connector/GPIOC9*%
X59110000Y-130664999D03*
%TO.P,J1,b26,b26*%
%TO.N,/DIN41612 connector/GPIOC10*%
X56570000Y-130664999D03*
%TO.P,J1,b27,b27*%
%TO.N,/DIN41612 connector/GPIOC11*%
X54030000Y-130664999D03*
%TO.P,J1,b28,b28*%
%TO.N,/DIN41612 connector/GPIOC12*%
X51490000Y-130664999D03*
%TO.P,J1,b29,b29*%
%TO.N,/DIN41612 connector/GPIOC13*%
X48950000Y-130664999D03*
%TO.P,J1,b30,b30*%
%TO.N,/DIN41612 connector/GPIOC14*%
X46410000Y-130664999D03*
%TO.P,J1,b31,b31*%
%TO.N,/DIN41612 connector/GPIOC15*%
X43870000Y-130664999D03*
%TO.P,J1,b32,b32*%
%TO.N,GND*%
X41330000Y-130664999D03*
%TO.P,J1,c1,c1*%
X120070000Y-128124999D03*
%TO.P,J1,c2,c2*%
%TO.N,unconnected-(J1-Padc2)*%
X117530000Y-128124999D03*
%TO.P,J1,c3,c3*%
%TO.N,/DIN41612 connector/5v_STDBY*%
X114990000Y-128124999D03*
%TO.P,J1,c4,c4*%
%TO.N,GND*%
X112450000Y-128124999D03*
%TO.P,J1,c5,c5*%
%TO.N,/Can Transiver/CAN_TR_OUT.C+*%
X109910000Y-128124999D03*
%TO.P,J1,c6,c6*%
%TO.N,/Can Transiver/CAN_TR_OUT.C-*%
X107370000Y-128124999D03*
%TO.P,J1,c7,c7*%
%TO.N,GND*%
X104830000Y-128124999D03*
%TO.P,J1,c8,c8*%
%TO.N,/Can Transiver1/CAN_TR_OUT.C+*%
X102290000Y-128124999D03*
%TO.P,J1,c9,c9*%
%TO.N,/Can Transiver1/CAN_TR_OUT.C-*%
X99750000Y-128124999D03*
%TO.P,J1,c10,c10*%
%TO.N,GND*%
X97210000Y-128124999D03*
%TO.P,J1,c11,c11*%
%TO.N,/5v buck/V_{IN}*%
X94670000Y-128124999D03*
%TO.P,J1,c12,c12*%
X92130000Y-128124999D03*
%TO.P,J1,c13,c13*%
%TO.N,GND*%
X89590000Y-128124999D03*
%TO.P,J1,c14,c14*%
%TO.N,/DIN41612 connector/24v*%
X87050000Y-128124999D03*
%TO.P,J1,c15,c15*%
%TO.N,GND*%
X84510000Y-128124999D03*
%TO.P,J1,c16,c16*%
%TO.N,/DIN41612 connector/GPIOR0*%
X81970000Y-128124999D03*
%TO.P,J1,c17,c17*%
%TO.N,/DIN41612 connector/GPIOR1*%
X79430000Y-128124999D03*
%TO.P,J1,c18,c18*%
%TO.N,/DIN41612 connector/GPIOR2*%
X76890000Y-128124999D03*
%TO.P,J1,c19,c19*%
%TO.N,/DIN41612 connector/GPIOR3*%
X74350000Y-128124999D03*
%TO.P,J1,c20,c20*%
%TO.N,/DIN41612 connector/GPIOR4*%
X71810000Y-128124999D03*
%TO.P,J1,c21,c21*%
%TO.N,/DIN41612 connector/GPIOR5*%
X69270000Y-128124999D03*
%TO.P,J1,c22,c22*%
%TO.N,/DIN41612 connector/GPIOR6*%
X66730000Y-128124999D03*
%TO.P,J1,c23,c23*%
%TO.N,/DIN41612 connector/GPIOR7*%
X64190000Y-128124999D03*
%TO.P,J1,c24,c24*%
%TO.N,/DIN41612 connector/GPIOR8*%
X61650000Y-128124999D03*
%TO.P,J1,c25,c25*%
%TO.N,/DIN41612 connector/GPIOR9*%
X59110000Y-128124999D03*
%TO.P,J1,c26,c26*%
%TO.N,/DIN41612 connector/GPIOR10*%
X56570000Y-128124999D03*
%TO.P,J1,c27,c27*%
%TO.N,/DIN41612 connector/GPIOR11*%
X54030000Y-128124999D03*
%TO.P,J1,c28,c28*%
%TO.N,/DIN41612 connector/GPIOR12*%
X51490000Y-128124999D03*
%TO.P,J1,c29,c29*%
%TO.N,/DIN41612 connector/GPIOR13*%
X48950000Y-128124999D03*
%TO.P,J1,c30,c30*%
%TO.N,/DIN41612 connector/USB_DEBUG.D-*%
X46410000Y-128124999D03*
%TO.P,J1,c31,c31*%
%TO.N,/DIN41612 connector/USB_DEBUG.D+*%
X43870000Y-128124999D03*
%TO.P,J1,c32,c32*%
%TO.N,GND*%
X41330000Y-128124999D03*
%TD*%
D22*
%TO.P,TP3,1,1*%
%TO.N,/USB-CAN/SWDIO1*%
X114600000Y-90200000D03*
%TD*%
%TO.P,TP5,1,1*%
%TO.N,GND*%
X119400000Y-90200000D03*
%TD*%
D23*
%TO.P,J2,*%
%TO.N,*%
X88422806Y-122753501D03*
X88402806Y-64733501D03*
X77402806Y-109733501D03*
X77402806Y-77733501D03*
X45402806Y-109733501D03*
X45402806Y-77733501D03*
X39402806Y-122733501D03*
X39402806Y-64733501D03*
D24*
%TO.P,J2,1,5V*%
%TO.N,+5V*%
X89672806Y-117833501D03*
%TO.P,J2,2,5V*%
X89672806Y-115293501D03*
%TO.P,J2,3,GND*%
%TO.N,GND*%
X89672806Y-112753501D03*
%TO.P,J2,4,GPIO0_B5/UART2_TX*%
%TO.N,/CH340_DEBUG/UART_DEBUG.TX*%
X89672806Y-110213501D03*
%TO.P,J2,5,GPIO0_B6/UART2_RX*%
%TO.N,/CH340_DEBUG/UART_DEBUG.RX*%
X89672806Y-107673501D03*
%TO.P,J2,6,GPIO1_A7/PWM3*%
%TO.N,/FAN controller/FAN_PWM*%
X89672806Y-105133501D03*
%TO.P,J2,7,GND*%
%TO.N,GND*%
X89672806Y-102593501D03*
%TO.P,J2,8,GPIO1_A1/UART6_TX/SPI4_MOSI*%
%TO.N,unconnected-(J2-GPIO1_A1{slash}UART6_TX{slash}SPI4_MOSI-Pad8)*%
X89672806Y-100053501D03*
%TO.P,J2,9,GPIO1_A0/UART6_RX/SPI4_MISO*%
%TO.N,unconnected-(J2-GPIO1_A0{slash}UART6_RX{slash}SPI4_MISO-Pad9)*%
X89672806Y-97513501D03*
%TO.P,J2,10,GND*%
%TO.N,GND*%
X89672806Y-94973501D03*
%TO.P,J2,11,GPIO1_B0*%
%TO.N,/OrangePi 5 pro Header/STATUS LED*%
X89672806Y-92433501D03*
%TO.P,J2,12,GPIO1_B4/SPI0_CS0/UART7_RX*%
%TO.N,unconnected-(J2-GPIO1_B4{slash}SPI0_CS0{slash}UART7_RX-Pad12)*%
X89672806Y-89893501D03*
%TO.P,J2,13,GPIO1_B5/SPI0_CS1/UART7_TX*%
%TO.N,unconnected-(J2-GPIO1_B5{slash}SPI0_CS1{slash}UART7_TX-Pad13)*%
X89703931Y-87304492D03*
%TO.P,J2,14,GPIO1_A3/I2C4_SCL/PWM1/SPI4_CS0*%
%TO.N,unconnected-(J2-GPIO1_A3{slash}I2C4_SCL{slash}PWM1{slash}SPI4_CS0-Pad14)*%
X89672806Y-84813501D03*
%TO.P,J2,15,GND*%
%TO.N,GND*%
X89672806Y-82273501D03*
%TO.P,J2,16,GPIO1_D6/PWM14/I2C8_SCL*%
%TO.N,unconnected-(J2-GPIO1_D6{slash}PWM14{slash}I2C8_SCL-Pad16)*%
X89672806Y-79733501D03*
%TO.P,J2,17,GND*%
%TO.N,GND*%
X89672806Y-77193501D03*
%TO.P,J2,18,GPIO4_A3/UART0_TX*%
%TO.N,unconnected-(J2-GPIO4_A3{slash}UART0_TX-Pad18)*%
X89672806Y-74653501D03*
%TO.P,J2,19,GPIO4_A4/UART0_RX*%
%TO.N,unconnected-(J2-GPIO4_A4{slash}UART0_RX-Pad19)*%
X89672806Y-72113501D03*
%TO.P,J2,20,GPIO4_A5/UART3_TX*%
%TO.N,unconnected-(J2-GPIO4_A5{slash}UART3_TX-Pad20)*%
X89672806Y-69573501D03*
%TO.P,J2,21,GND*%
%TO.N,GND*%
X87132806Y-69573501D03*
%TO.P,J2,22,GPIO4_A6/UART3_RX/I2C5_SCL*%
%TO.N,Net-(J2-GPIO4_A6{slash}UART3_RX{slash}I2C5_SCL)*%
X87132806Y-72113501D03*
%TO.P,J2,23,GPIO4_A7/I2C5_SDA*%
%TO.N,/OrangePi 5 pro Header/USER LED 2*%
X87132806Y-74653501D03*
%TO.P,J2,24,GPIO1_D7/I2C8_SDA/PWM15*%
%TO.N,/OrangePi 5 pro Header/USER LED 1*%
X87132806Y-77193501D03*
%TO.P,J2,25,GPIO1_A6*%
%TO.N,/OrangePi 5 pro Header/USER BUTTON*%
X87132806Y-79733501D03*
%TO.P,J2,26,GPIO1_A4*%
%TO.N,/OrangePi 5 pro Header/ON OFF BTN*%
X87132806Y-82273501D03*
%TO.P,J2,27,GPIO1_A2/SPI4_CLK/PWM0/I2C4_SDA*%
%TO.N,unconnected-(J2-GPIO1_A2{slash}SPI4_CLK{slash}PWM0{slash}I2C4_SDA-Pad27)*%
X87132806Y-84813501D03*
%TO.P,J2,28,GND*%
%TO.N,GND*%
X87163931Y-87304492D03*
%TO.P,J2,29,GPIO1_B3/UART4_TX/SPIO_CLK*%
%TO.N,unconnected-(J2-GPIO1_B3{slash}UART4_TX{slash}SPIO_CLK-Pad29)*%
X87132806Y-89893501D03*
%TO.P,J2,30,GPIO1_B1/SPI0_MISO*%
%TO.N,unconnected-(J2-GPIO1_B1{slash}SPI0_MISO-Pad30)*%
X87132806Y-92433501D03*
%TO.P,J2,31,GPIO1_B2/UART4_RX/SPI0_MOSI*%
%TO.N,unconnected-(J2-GPIO1_B2{slash}UART4_RX{slash}SPI0_MOSI-Pad31)*%
X87132806Y-94973501D03*
%TO.P,J2,32,3V3*%
%TO.N,unconnected-(J2-3V3-Pad32)*%
X87132806Y-97513501D03*
%TO.P,J2,33,GPIO1_B6/UART1_TX/I2C5_SCL*%
%TO.N,unconnected-(J2-GPIO1_B6{slash}UART1_TX{slash}I2C5_SCL-Pad33)*%
X87132806Y-100053501D03*
%TO.P,J2,34,GPIO4_B3/PWM15/CAN1_TX*%
%TO.N,/Can Transiver/CAN_TR.TXD*%
X87132806Y-102593501D03*
%TO.P,J2,35,GPIO4_B2/PWM14/CAN1_RX*%
%TO.N,/Can Transiver/CAN_TR.RXD*%
X87132806Y-105133501D03*
%TO.P,J2,36,GND*%
%TO.N,GND*%
X87132806Y-107673501D03*
%TO.P,J2,37,GPIO1_B7/UART1_RX/I2C5_SDA/PWM13*%
%TO.N,unconnected-(J2-GPIO1_B7{slash}UART1_RX{slash}I2C5_SDA{slash}PWM13-Pad37)*%
X87132806Y-110213501D03*
%TO.P,J2,38,GPIO1_D2/UART4_TX/I2C1_SCL*%
%TO.N,unconnected-(J2-GPIO1_D2{slash}UART4_TX{slash}I2C1_SCL-Pad38)*%
X87132806Y-112753501D03*
%TO.P,J2,39,GPIO1_D3/UART4_RX/I2C1_SDA*%
%TO.N,unconnected-(J2-GPIO1_D3{slash}UART4_RX{slash}I2C1_SDA-Pad39)*%
X87132806Y-115293501D03*
D25*
%TO.P,J2,40,3V3*%
%TO.N,unconnected-(J2-3V3-Pad40)*%
X87132806Y-117833501D03*
D24*
%TO.P,J2,41,USB_GND*%
%TO.N,GND*%
X87612806Y-60293501D03*
%TO.P,J2,42,USB_GND*%
X85072806Y-60293501D03*
%TO.P,J2,43,USB20_DP4*%
%TO.N,/OrangePi 5 pro Header/USB_SBCF.D+*%
X82532806Y-60293501D03*
%TO.P,J2,44,USB20_DM4*%
%TO.N,/OrangePi 5 pro Header/USB_SBCF.D-*%
X79992806Y-60293501D03*
%TO.P,J2,45,USB_5V*%
%TO.N,unconnected-(J2-USB_5V-Pad45)*%
X77452806Y-60293501D03*
%TO.P,J2,46,USB_5V*%
%TO.N,unconnected-(J2-USB_5V-Pad46)*%
X77452806Y-57753501D03*
%TO.P,J2,47,USB20_DM3*%
%TO.N,/OrangePi 5 pro Header/USB_OUT.D-*%
X79992806Y-57753501D03*
%TO.P,J2,48,USB20_DP3*%
%TO.N,/OrangePi 5 pro Header/USB_OUT.D+*%
X82532806Y-57753501D03*
%TO.P,J2,49,USB_GND*%
%TO.N,GND*%
X85072806Y-57753501D03*
%TO.P,J2,50*%
%TO.N,N/C*%
X87612806Y-57753501D03*
%TD*%
D22*
%TO.P,TP4,1,1*%
%TO.N,/USB-CAN/SWCLK1*%
X117000000Y-90200000D03*
%TD*%
%TO.P,TP2,1,1*%
%TO.N,/USB-CAN/NRST1*%
X119400000Y-88000000D03*
%TD*%
%TO.P,TP1,1,1*%
%TO.N,+3V3*%
X117000000Y-88000000D03*
%TD*%
D26*
%TO.N,GND*%
X105000000Y-101300000D03*
X96000000Y-103000000D03*
X114000000Y-70900000D03*
X108600000Y-49200000D03*
X123495000Y-59305000D03*
X109200000Y-107800000D03*
X94000000Y-63400000D03*
X98600000Y-66600000D03*
X121000000Y-41600000D03*
X97600000Y-46900000D03*
X119200000Y-75500000D03*
X116000000Y-65000000D03*
X94800000Y-64600000D03*
X94000000Y-62400000D03*
X101400000Y-108000000D03*
X95500000Y-46900000D03*
X116600000Y-51200000D03*
X106400000Y-73000000D03*
X112400000Y-84200000D03*
X101725000Y-121077733D03*
X53575000Y-116900000D03*
X110200000Y-47000000D03*
X121000000Y-40600000D03*
X119900000Y-75500000D03*
X107800000Y-109200000D03*
X108600000Y-107800000D03*
X112575000Y-104123988D03*
X103000000Y-103400000D03*
X117800000Y-81900000D03*
X106900000Y-78000000D03*
X98200000Y-49600000D03*
X112700000Y-72360000D03*
X67775000Y-117200000D03*
X98000000Y-125400000D03*
X122500000Y-94200000D03*
X127000000Y-69000000D03*
X118800000Y-58400000D03*
X98600000Y-63000000D03*
X116600000Y-47000000D03*
X94800000Y-54200000D03*
X109200000Y-121100000D03*
X107800000Y-108600000D03*
X94000000Y-61500000D03*
X124000000Y-87800000D03*
X118686128Y-127000000D03*
X104200000Y-125400000D03*
X108284125Y-104372658D03*
X105600000Y-125400000D03*
X121000000Y-42800000D03*
X115600000Y-71400000D03*
X121000000Y-43800000D03*
X108200000Y-43400000D03*
X102200000Y-108000000D03*
X111800000Y-125400000D03*
X103000000Y-49200000D03*
X107200000Y-108600000D03*
X127200000Y-64800000D03*
X114800000Y-49800000D03*
X100600000Y-108000000D03*
X106900000Y-78800000D03*
X108600000Y-107200000D03*
X96400000Y-49400000D03*
X70175000Y-121100000D03*
X114700000Y-81900000D03*
X98000000Y-54200000D03*
X109200000Y-107200000D03*
X105000000Y-102000000D03*
X101400000Y-103400000D03*
X107200000Y-109200000D03*
X110600000Y-54800000D03*
X41600000Y-124900000D03*
X118813915Y-91600000D03*
X53575000Y-117800000D03*
X119600000Y-95000000D03*
X102200000Y-103400000D03*
X103000000Y-108000000D03*
X111400000Y-102600000D03*
X108200000Y-44200000D03*
X110400000Y-90800000D03*
X127000000Y-67800000D03*
X100600000Y-103400000D03*
X110500000Y-105200000D03*
X108400000Y-109200000D03*
X108400000Y-108600000D03*
%TO.N,+5V*%
X98600000Y-61600000D03*
X120400000Y-118600000D03*
X120400000Y-119400000D03*
X111300000Y-78000000D03*
X112600000Y-68000000D03*
X120400000Y-117800000D03*
X119400000Y-118600000D03*
X119400000Y-119400000D03*
X111300000Y-78800000D03*
X119400000Y-117800000D03*
%TO.N,+3V3*%
X116800000Y-81900000D03*
X110400000Y-92000000D03*
X105600000Y-126200000D03*
X124600000Y-114000000D03*
X121400000Y-94200000D03*
X124600000Y-113200000D03*
X94600000Y-45400000D03*
X124600000Y-112400000D03*
X124600000Y-114800000D03*
X110200000Y-96800000D03*
X118000000Y-89000000D03*
X110600000Y-55800000D03*
X112400000Y-83256007D03*
X120600000Y-95000000D03*
X115700000Y-81900000D03*
X98000000Y-126200000D03*
X110200000Y-95000000D03*
X99400000Y-45400000D03*
%TO.N,/5v buck/5V_OUT*%
X110525000Y-106050000D03*
X111312014Y-106890623D03*
X99700000Y-103400000D03*
%TO.N,/USB-CAN/NRST1*%
X122400000Y-88800000D03*
%TO.N,/USB-CAN/SWDIO1*%
X114250000Y-91600000D03*
%TO.N,/USB-CAN/SWCLK1*%
X116439401Y-91600000D03*
%TO.N,/Can Transiver/CAN_TR.RXD*%
X107200000Y-122000000D03*
%TO.N,/Can Transiver/CAN_TR.TXD*%
X110000000Y-122000000D03*
%TO.N,/Can Transiver1/CAN_TR.RXD*%
X99800000Y-122000000D03*
X117500000Y-96200000D03*
%TO.N,/Can Transiver1/CAN_TR.TXD*%
X119100000Y-96200000D03*
X102600000Y-122000000D03*
%TO.N,/CH340_DEBUG/UART_DEBUG.TX*%
X91800000Y-101000000D03*
X105232200Y-48094535D03*
%TO.N,/CH340_DEBUG/UART_DEBUG.RX*%
X107780846Y-48094535D03*
X96000000Y-101000000D03*
%TO.N,/OrangePi 5 pro Header/ON OFF BTN*%
X96400000Y-46900000D03*
%TO.N,/OrangePi 5 pro Header/USER BUTTON*%
X98600000Y-46900000D03*
%TO.N,/Panel USB/VBUS_IN*%
X115300000Y-44800000D03*
X111496446Y-44296446D03*
%TO.N,/5v buck/5V_EN*%
X107675000Y-101875000D03*
X109675000Y-105262402D03*
%TO.N,/5v buck/V_{IN}*%
X107000000Y-107800000D03*
X104600000Y-102800000D03*
X106200000Y-106000000D03*
X105600000Y-107200000D03*
X106200000Y-106600000D03*
X105600000Y-106000000D03*
X107000000Y-107200000D03*
X106200000Y-104800000D03*
X105600000Y-105400000D03*
X105600000Y-106600000D03*
X104000000Y-103400000D03*
X104600000Y-103400000D03*
X107600000Y-107200000D03*
X105600000Y-104800000D03*
X107600000Y-107800000D03*
X106200000Y-105400000D03*
X104000000Y-102800000D03*
%TO.N,Net-(U9-VOUTR)*%
X121600000Y-72200000D03*
X124600000Y-71000000D03*
%TO.N,/USB-CAN/WORD_LED*%
X119400000Y-86400000D03*
X116200000Y-96600000D03*
%TO.N,/5v buck/5V_VDD*%
X111290000Y-107849559D03*
X111325000Y-103475000D03*
%TO.N,/Audio Codec/VDD_{int}*%
X116000000Y-65850003D03*
X113200000Y-65000000D03*
%TO.N,Net-(Q5-C)*%
X121000000Y-127000000D03*
X119150000Y-108144800D03*
%TO.N,Net-(Q2-G)*%
X95975000Y-107894800D03*
X97375000Y-114700000D03*
%TD*%
D27*
%TO.N,GND*%
X118813915Y-91413915D02*
X119400000Y-90827830D01*
X119400000Y-90827830D02*
X119400000Y-90200000D01*
%TO.N,+3V3*%
X117000000Y-88000000D02*
X118000000Y-89000000D01*
%TO.N,/5v buck/5V_OUT*%
X100400000Y-104100000D02*
X106900000Y-104100000D01*
X106900000Y-104100000D02*
X107300000Y-104500000D01*
X99700000Y-103400000D02*
X100400000Y-104100000D01*
X111325000Y-106877637D02*
X111312014Y-106890623D01*
X107300000Y-104500000D02*
X107300000Y-105500000D01*
X107850000Y-106050000D02*
X110525000Y-106050000D01*
X111325000Y-106850000D02*
X111325000Y-106877637D01*
X110525000Y-106050000D02*
X111325000Y-106850000D01*
X107300000Y-105500000D02*
X107850000Y-106050000D01*
%TO.N,/USB-CAN/NRST1*%
X122400000Y-88800000D02*
X120200000Y-88800000D01*
X120200000Y-88800000D02*
X119400000Y-88000000D01*
D28*
%TO.N,/Can Transiver/CAN_TR_OUT.C+*%
X109910000Y-128124999D02*
X109910000Y-133204999D01*
%TO.N,/Can Transiver1/CAN_TR_OUT.C-*%
X99750000Y-128124999D02*
X99750000Y-133204999D01*
%TO.N,/Can Transiver1/CAN_TR_OUT.C+*%
X102290000Y-128124999D02*
X102290000Y-133204999D01*
D27*
%TO.N,/USB-CAN/SWDIO1*%
X114250000Y-91600000D02*
X114600000Y-91250000D01*
X114600000Y-91250000D02*
X114600000Y-90200000D01*
%TO.N,/USB-CAN/SWCLK1*%
X116439401Y-91439401D02*
X117000000Y-90878802D01*
X117000000Y-90878802D02*
X117000000Y-90200000D01*
%TO.N,/Can Transiver/CAN_TR.RXD*%
X87132806Y-105133501D02*
X88232806Y-104033501D01*
X88232806Y-104033501D02*
X90233501Y-104033501D01*
X93800000Y-120400000D02*
X96800000Y-123400000D01*
X105800000Y-123400000D02*
X107200000Y-122000000D01*
X90233501Y-104033501D02*
X93800000Y-107600000D01*
X93800000Y-107600000D02*
X93800000Y-120400000D01*
X96800000Y-123400000D02*
X105800000Y-123400000D01*
D28*
%TO.N,/Can Transiver/CAN_TR_OUT.C-*%
X107370000Y-133204999D02*
X107370000Y-128124999D01*
D27*
%TO.N,/Can Transiver/CAN_TR.TXD*%
X86000000Y-103726307D02*
X87132806Y-102593501D01*
X110000000Y-123000000D02*
X108200000Y-124800000D01*
X92600000Y-109045060D02*
X89788441Y-106233501D01*
X89788441Y-106233501D02*
X86677171Y-106233501D01*
X92600000Y-121400000D02*
X92600000Y-109045060D01*
X86000000Y-105556330D02*
X86000000Y-103726307D01*
X110000000Y-122000000D02*
X110000000Y-123000000D01*
X108200000Y-124800000D02*
X96000000Y-124800000D01*
X96000000Y-124800000D02*
X92600000Y-121400000D01*
X86677171Y-106233501D02*
X86000000Y-105556330D01*
%TO.N,/Can Transiver1/CAN_TR.RXD*%
X115300000Y-117700000D02*
X113500000Y-119500000D01*
X117500000Y-102000000D02*
X115300000Y-104200000D01*
X117500000Y-96200000D02*
X117500000Y-102000000D01*
X113500000Y-119500000D02*
X100900000Y-119500000D01*
X99800000Y-120600000D02*
X99800000Y-122000000D01*
X115300000Y-104200000D02*
X115300000Y-117700000D01*
X100900000Y-119500000D02*
X99800000Y-120600000D01*
%TO.N,/Can Transiver1/CAN_TR.TXD*%
X115200000Y-120400000D02*
X103200000Y-120400000D01*
X118900000Y-96400000D02*
X118900000Y-103600000D01*
X119100000Y-96200000D02*
X118900000Y-96400000D01*
X117500000Y-118100000D02*
X115200000Y-120400000D01*
X103200000Y-120400000D02*
X102600000Y-121000000D01*
X102600000Y-121000000D02*
X102600000Y-122000000D01*
X117500000Y-105000000D02*
X117500000Y-118100000D01*
X118900000Y-103600000D02*
X117500000Y-105000000D01*
%TO.N,/CH340_DEBUG/UART_DEBUG.TX*%
X93100000Y-60100000D02*
X93100000Y-99700000D01*
X105232200Y-48133000D02*
X105200000Y-48165200D01*
X105034800Y-48165200D02*
X93100000Y-60100000D01*
X93100000Y-99700000D02*
X91800000Y-101000000D01*
X105200000Y-48165200D02*
X105034800Y-48165200D01*
%TO.N,/CH340_DEBUG/UART_DEBUG.RX*%
X107780846Y-48094535D02*
X107780846Y-48219154D01*
X96000000Y-100900000D02*
X95900000Y-101000000D01*
X107780846Y-48219154D02*
X96000000Y-60000000D01*
X96000000Y-60000000D02*
X96000000Y-100900000D01*
%TO.N,/OrangePi 5 pro Header/ON OFF BTN*%
X81050000Y-69200000D02*
X84200000Y-72350000D01*
X84200000Y-72350000D02*
X84200000Y-80800000D01*
X84200000Y-80800000D02*
X85673501Y-82273501D01*
X85673501Y-82273501D02*
X87132806Y-82273501D01*
X96400000Y-47000000D02*
X96400000Y-48000000D01*
X70200000Y-51400000D02*
X70200000Y-66400000D01*
X96400000Y-48000000D02*
X73600000Y-48000000D01*
X70200000Y-66400000D02*
X73000000Y-69200000D01*
X73600000Y-48000000D02*
X70200000Y-51400000D01*
X73000000Y-69200000D02*
X81050000Y-69200000D01*
%TO.N,/OrangePi 5 pro Header/USER BUTTON*%
X85800000Y-69000000D02*
X85800000Y-78400695D01*
X93800000Y-53200000D02*
X75600000Y-53200000D01*
X85800000Y-78400695D02*
X87132806Y-79733501D01*
X73400000Y-65200000D02*
X74400000Y-66200000D01*
X74400000Y-66200000D02*
X83000000Y-66200000D01*
X83000000Y-66200000D02*
X85800000Y-69000000D01*
X98600000Y-48400000D02*
X93800000Y-53200000D01*
X73400000Y-55400000D02*
X73400000Y-65200000D01*
X98600000Y-46900000D02*
X98600000Y-48400000D01*
X75600000Y-53200000D02*
X73400000Y-55400000D01*
%TO.N,/Panel USB/VBUS_IN*%
X115300000Y-44800000D02*
X112000000Y-44800000D01*
X112000000Y-44800000D02*
X111496446Y-44296446D01*
%TO.N,/5v buck/5V_EN*%
X109675000Y-103000000D02*
X108550000Y-101875000D01*
X108550000Y-101875000D02*
X107675000Y-101875000D01*
X109675000Y-105275000D02*
X109675000Y-103000000D01*
%TO.N,Net-(U9-VOUTR)*%
X123400000Y-72200000D02*
X124600000Y-71000000D01*
X121600000Y-72200000D02*
X123400000Y-72200000D01*
%TO.N,/USB-CAN/WORD_LED*%
X113800000Y-96600000D02*
X116200000Y-96600000D01*
X113700000Y-86400000D02*
X113000000Y-87100000D01*
X113000000Y-95800000D02*
X113800000Y-96600000D01*
X113000000Y-87100000D02*
X113000000Y-95800000D01*
X119400000Y-86400000D02*
X113700000Y-86400000D01*
%TO.N,/OrangePi 5 pro Header/STATUS LED*%
X103242001Y-43025997D02*
X102000000Y-44267998D01*
X91200000Y-90906307D02*
X89672806Y-92433501D01*
X102000000Y-44267998D02*
X102000000Y-48000000D01*
X91200000Y-58800000D02*
X91200000Y-90906307D01*
X102000000Y-48000000D02*
X91200000Y-58800000D01*
%TO.N,/5v buck/5V_VDD*%
X111325000Y-104525000D02*
X112125000Y-105325000D01*
X111325000Y-103475000D02*
X111325000Y-104525000D01*
X111775441Y-107849559D02*
X111290000Y-107849559D01*
X112125000Y-107500000D02*
X111775441Y-107849559D01*
X112125000Y-105325000D02*
X112125000Y-107500000D01*
%TO.N,/Audio Codec/VDD_{int}*%
X113200000Y-65000000D02*
X114050003Y-65850003D01*
X114050003Y-65850003D02*
X116000000Y-65850003D01*
%TO.N,Net-(Q5-C)*%
X119150000Y-108144800D02*
X121644800Y-108144800D01*
X122400000Y-126400000D02*
X121800000Y-127000000D01*
X121800000Y-127000000D02*
X121000000Y-127000000D01*
X121644800Y-108144800D02*
X122400000Y-108900000D01*
X122400000Y-108900000D02*
X122400000Y-126400000D01*
%TO.N,Net-(J5-SHIELD)*%
X117698401Y-41200997D02*
X109058401Y-41200997D01*
X109058401Y-45380997D02*
X109058401Y-41200997D01*
X117698401Y-45380997D02*
X117698401Y-41200997D01*
%TO.N,Net-(Q2-G)*%
X97375000Y-109294800D02*
X97375000Y-114700000D01*
X95975000Y-107894800D02*
X97375000Y-109294800D01*
%TD*%
%TA.AperFunction,Conductor*%
%TO.N,/5v buck/V_{IN}*%
G36*
X104943039Y-102519685D02*
G01*
X104988794Y-102572489D01*
X105000000Y-102624000D01*
X105000000Y-103576000D01*
X104980315Y-103643039D01*
X104927511Y-103688794D01*
X104876000Y-103700000D01*
X103724000Y-103700000D01*
X103656961Y-103680315D01*
X103611206Y-103627511D01*
X103600000Y-103576000D01*
X103600000Y-102624000D01*
X103619685Y-102556961D01*
X103672489Y-102511206D01*
X103724000Y-102500000D01*
X104876000Y-102500000D01*
X104943039Y-102519685D01*
G37*
%TD.AperFunction*%
%TD*%
%TA.AperFunction,Conductor*%
%TO.N,/5v buck/V_{IN}*%
G36*
X106443039Y-104519685D02*
G01*
X106488794Y-104572489D01*
X106500000Y-104624000D01*
X106500000Y-106900000D01*
X107820500Y-106900000D01*
X107887539Y-106919685D01*
X107933294Y-106972489D01*
X107944500Y-107024000D01*
X107944500Y-107920500D01*
X107924815Y-107987539D01*
X107872011Y-108033294D01*
X107820500Y-108044500D01*
X107644419Y-108044500D01*
X107632248Y-108044977D01*
X107610411Y-108046696D01*
X107610380Y-108046301D01*
X107589620Y-108046301D01*
X107589589Y-108046696D01*
X107567751Y-108044977D01*
X107555581Y-108044500D01*
X107555568Y-108044500D01*
X107044432Y-108044500D01*
X107044419Y-108044500D01*
X107032248Y-108044977D01*
X107010411Y-108046696D01*
X107010380Y-108046301D01*
X106989620Y-108046301D01*
X106989589Y-108046696D01*
X106967751Y-108044977D01*
X106955581Y-108044500D01*
X106955568Y-108044500D01*
X106824000Y-108044500D01*
X106823991Y-108044500D01*
X106790944Y-108048054D01*
X106739435Y-108059259D01*
X106716598Y-108070690D01*
X106684247Y-108086884D01*
X106628745Y-108100000D01*
X106500000Y-108100000D01*
X105324000Y-108100000D01*
X105256961Y-108080315D01*
X105211206Y-108027511D01*
X105200000Y-107976000D01*
X105200000Y-104624000D01*
X105219685Y-104556961D01*
X105272489Y-104511206D01*
X105324000Y-104500000D01*
X106376000Y-104500000D01*
X106443039Y-104519685D01*
G37*
%TD.AperFunction*%
%TD*%
%TA.AperFunction,Conductor*%
%TO.N,GND*%
G36*
X109643039Y-106919685D02*
G01*
X109688794Y-106972489D01*
X109700000Y-107024000D01*
X109700000Y-108176000D01*
X109680315Y-108243039D01*
X109627511Y-108288794D01*
X109576000Y-108300000D01*
X108900000Y-108300000D01*
X108900000Y-109376000D01*
X108880315Y-109443039D01*
X108827511Y-109488794D01*
X108776000Y-109500000D01*
X106824000Y-109500000D01*
X106756961Y-109480315D01*
X106711206Y-109427511D01*
X106700000Y-109376000D01*
X106700000Y-108324000D01*
X106719685Y-108256961D01*
X106772489Y-108211206D01*
X106824000Y-108200000D01*
X106955568Y-108200000D01*
X106974964Y-108201526D01*
X106989029Y-108203754D01*
X106999999Y-108205492D01*
X107000000Y-108205492D01*
X107000001Y-108205492D01*
X107010970Y-108203754D01*
X107025035Y-108201526D01*
X107044432Y-108200000D01*
X107555568Y-108200000D01*
X107574964Y-108201526D01*
X107589029Y-108203754D01*
X107599999Y-108205492D01*
X107600000Y-108205492D01*
X107600001Y-108205492D01*
X107610970Y-108203754D01*
X107625035Y-108201526D01*
X107644432Y-108200000D01*
X108100000Y-108200000D01*
X108100000Y-107024000D01*
X108119685Y-106956961D01*
X108172489Y-106911206D01*
X108224000Y-106900000D01*
X109576000Y-106900000D01*
X109643039Y-106919685D01*
G37*
%TD.AperFunction*%
%TD*%
M02*
