M48
; DRILL file {KiCad 9.0.4-9.0.4-0~ubuntu24.04.1} date 2025-09-25T01:17:13+0200
; FORMAT={-:-/ absolute / inch / decimal}
; #@! TF.CreationDate,2025-09-25T01:17:13+02:00
; #@! TF.GenerationSoftware,Kicad,Pcbnew,9.0.4-9.0.4-0~ubuntu24.04.1
; #@! TF.FileFunction,Plated,1,4,PTH
FMAT,2
INCH
; #@! TA.AperFunction,Plated,PTH,ViaDrill
T1C0.0118
; #@! TA.AperFunction,Plated,PTH,ComponentDrill
T2C0.0236
; #@! TA.AperFunction,Plated,PTH,ComponentDrill
T3C0.0256
; #@! TA.AperFunction,Plated,PTH,ComponentDrill
T4C0.0315
; #@! TA.AperFunction,Plated,PTH,ComponentDrill
T5C0.0394
; #@! TA.AperFunction,Plated,PTH,ComponentDrill
T6C0.0512
%
G90
G05
T1
X1.6378Y-4.9173
X2.1093Y-4.6024
X2.1093Y-4.6378
X2.6683Y-4.6142
X2.7628Y-4.7677
X3.6142Y-3.9764
X3.6151Y-2.4386
X3.6151Y-2.474
X3.6151Y-2.5134
X3.6466Y-2.5607
X3.6843Y-3.9831
X3.7028Y-4.8031
X3.7028Y-4.8898
X3.7244Y-1.7874
X3.7323Y-2.1339
X3.7598Y-1.8465
X3.7785Y-4.2478
X3.7795Y-4.0551
X3.7953Y-1.8465
X3.7953Y-1.9449
X3.7962Y-2.4426
X3.7962Y-2.4977
X3.7962Y-2.6394
X3.814Y-4.8041
X3.815Y-4.8898
X3.8337Y-4.5157
X3.8386Y-3.3031
X3.8386Y-3.626
X3.8425Y-1.8465
X3.8583Y-2.1339
X3.8583Y-4.937
X3.8583Y-4.9685
X3.8661Y-1.9528
X3.8819Y-1.8465
X3.9134Y-1.7874
X3.9252Y-4.0709
X3.9291Y-4.8031
X3.9567Y-4.7717
X3.9606Y-4.0709
X3.9606Y-4.252
X3.9921Y-4.0709
X3.9921Y-4.252
X4.0079Y-3.4685
X4.0236Y-4.0709
X4.0236Y-4.252
X4.0276Y-2.4089
X4.0276Y-2.5197
X4.0276Y-2.6305
X4.0276Y-2.7413
X4.0276Y-2.8521
X4.0276Y-4.7913
X4.0365Y-3.055
X4.0551Y-1.937
X4.0551Y-4.0709
X4.0551Y-4.252
X4.0591Y-4.7953
X4.0748Y-3.502
X4.0945Y-4.0472
X4.0945Y-4.0709
X4.1024Y-4.937
X4.1181Y-4.0472
X4.1181Y-4.0709
X4.1339Y-3.9882
X4.1339Y-4.0157
X4.143Y-1.8935
X4.1437Y-2.2755
X4.1445Y-3.055
X4.1496Y-3.4567
X4.1575Y-4.126
X4.1575Y-4.1496
X4.1575Y-4.1732
X4.1575Y-4.1969
X4.1575Y-4.2205
X4.1575Y-4.937
X4.1575Y-4.9685
X4.1811Y-4.126
X4.1811Y-4.1496
X4.1811Y-4.1732
X4.1811Y-4.1969
X4.189Y-2.7457
X4.1929Y-2.8888
X4.1929Y-3.2756
X4.2126Y-4.2205
X4.2126Y-4.2441
X4.2205Y-4.2756
X4.2205Y-4.2992
X4.2205Y-4.8031
X4.2362Y-4.2205
X4.2362Y-4.2441
X4.2392Y-4.0108
X4.2433Y-1.8935
X4.2441Y-4.2756
X4.2441Y-4.2992
X4.252Y-3.5748
X4.252Y-3.622
X4.2521Y-2.2755
X4.2525Y-3.055
X4.2559Y-4.7717
X4.2598Y-1.7087
X4.2598Y-1.7402
X4.2632Y-4.1092
X4.2677Y-4.2756
X4.2677Y-4.2992
X4.2736Y-2.8898
X4.2756Y-1.937
X4.2756Y-4.2205
X4.2756Y-4.2441
X4.2776Y-3.685
X4.2795Y-3.8307
X4.2992Y-4.2205
X4.2992Y-4.2441
X4.3179Y-4.1442
X4.3307Y-3.2778
X4.3307Y-3.315
X4.3307Y-4.8031
X4.3386Y-1.8504
X4.3504Y-4.1417
X4.3514Y-4.1752
X4.3516Y-3.6535
X4.3543Y-2.1575
X4.3543Y-2.1969
X4.3583Y-4.8031
X4.3605Y-3.055
X4.3606Y-2.2755
X4.3815Y-4.246
X4.3824Y-4.2083
X4.3829Y-4.0738
X4.385Y-3.6516
X4.3858Y-4.0394
X4.3896Y-1.744
X4.3996Y-2.7953
X4.4016Y-4.937
X4.4026Y-2.7028
X4.4055Y-2.7441
X4.4193Y-2.8642
X4.4213Y-3.2244
X4.4272Y-2.5941
X4.4321Y-4.0994
X4.449Y-1.9
X4.4587Y-2.8264
X4.4587Y-3.0118
X4.4606Y-3.2244
X4.4685Y-3.055
X4.469Y-2.2755
X4.4697Y-3.7787
X4.5039Y-3.2244
X4.5217Y-2.8461
X4.5374Y-2.5941
X4.5374Y-2.6276
X4.5394Y-1.7638
X4.5394Y-3.8406
X4.5433Y-3.2244
X4.5764Y-3.055
X4.5768Y-3.0108
X4.5775Y-2.2755
X4.5827Y-3.8409
X4.5906Y-1.8504
X4.5906Y-2.0157
X4.6122Y-4.0169
X4.6142Y-3.7402
X4.6457Y-2.9528
X4.6476Y-2.3343
X4.6535Y-3.7402
X4.6727Y-5.0
X4.6844Y-3.055
X4.685Y-3.7087
X4.6859Y-2.2755
X4.7008Y-4.248
X4.7008Y-4.6378
X4.7008Y-4.6693
X4.7008Y-4.7008
X4.7074Y-4.0304
X4.7252Y-3.4618
X4.7283Y-3.7087
X4.7402Y-4.6378
X4.7402Y-4.6693
X4.7402Y-4.7008
X4.7471Y-3.8461
X4.7555Y-3.4311
X4.7579Y-2.8776
X4.7638Y-1.5984
X4.7638Y-1.6378
X4.7638Y-1.685
X4.7638Y-1.7244
X4.7638Y-5.0
X4.7924Y-3.055
X4.7943Y-2.2755
X4.8066Y-4.0674
X4.8325Y-2.3699
X4.8362Y-4.0929
X4.8681Y-3.4754
X4.8701Y-3.8937
X4.876Y-2.8303
X4.8945Y-4.0327
X4.9028Y-2.2755
X4.9055Y-4.4252
X4.9055Y-4.4567
X4.9055Y-4.4882
X4.9055Y-4.5197
X4.9163Y-3.4754
X4.9295Y-4.1154
X4.9518Y-2.6191
X4.9528Y-2.7313
X5.0112Y-2.2755
X5.0112Y-2.3863
X5.0112Y-2.4971
X5.0112Y-2.608
X5.0112Y-2.7188
X5.0112Y-2.8296
X5.0112Y-2.9404
X5.0112Y-3.0512
T3
X4.4152Y-3.571
X4.4505Y-3.5357
X4.4859Y-3.5003
X4.5213Y-3.465
X4.5566Y-3.4296
X4.592Y-3.3942
T4
X3.7188Y-1.6463
X3.783Y-1.6463
X3.8515Y-1.6463
X3.9157Y-1.6463
T5
X1.6272Y-5.0443
X1.6272Y-5.1443
X1.6272Y-5.2443
X1.7272Y-5.0443
X1.7272Y-5.1443
X1.7272Y-5.2443
X1.8272Y-5.0443
X1.8272Y-5.1443
X1.8272Y-5.2443
X1.9272Y-5.0443
X1.9272Y-5.1443
X1.9272Y-5.2443
X2.0272Y-5.0443
X2.0272Y-5.1443
X2.0272Y-5.2443
X2.1272Y-5.0443
X2.1272Y-5.1443
X2.1272Y-5.2443
X2.2272Y-5.0443
X2.2272Y-5.1443
X2.2272Y-5.2443
X2.3272Y-5.0443
X2.3272Y-5.1443
X2.3272Y-5.2443
X2.3829Y-4.6654
X2.3829Y-4.7638
X2.4272Y-5.0443
X2.4272Y-5.1443
X2.4272Y-5.2443
X2.5272Y-5.0443
X2.5272Y-5.1443
X2.5272Y-5.2443
X2.6272Y-5.0443
X2.6272Y-5.1443
X2.6272Y-5.2443
X2.7272Y-5.0443
X2.7272Y-5.1443
X2.7272Y-5.2443
X2.8272Y-5.0443
X2.8272Y-5.1443
X2.8272Y-5.2443
X2.9272Y-5.0443
X2.9272Y-5.1443
X2.9272Y-5.2443
X3.0272Y-5.0443
X3.0272Y-5.1443
X3.0272Y-5.2443
X3.0493Y-2.2738
X3.0493Y-2.3738
X3.1272Y-5.0443
X3.1272Y-5.1443
X3.1272Y-5.2443
X3.1493Y-2.2738
X3.1493Y-2.3738
X3.2272Y-5.0443
X3.2272Y-5.1443
X3.2272Y-5.2443
X3.2493Y-2.2738
X3.2493Y-2.3738
X3.3272Y-5.0443
X3.3272Y-5.1443
X3.3272Y-5.2443
X3.3493Y-2.2738
X3.3493Y-2.3738
X3.4272Y-5.0443
X3.4272Y-5.1443
X3.4272Y-5.2443
X3.4304Y-2.7391
X3.4304Y-2.8391
X3.4304Y-2.9391
X3.4304Y-3.0391
X3.4304Y-3.1391
X3.4304Y-3.2391
X3.4304Y-3.3391
X3.4304Y-3.5391
X3.4304Y-3.6391
X3.4304Y-3.7391
X3.4304Y-3.8391
X3.4304Y-3.9391
X3.4304Y-4.0391
X3.4304Y-4.1391
X3.4304Y-4.2391
X3.4304Y-4.3391
X3.4304Y-4.4391
X3.4304Y-4.5391
X3.4304Y-4.6391
X3.4317Y-3.4372
X3.4493Y-2.2738
X3.4493Y-2.3738
X3.5272Y-5.0443
X3.5272Y-5.1443
X3.5272Y-5.2443
X3.5304Y-2.7391
X3.5304Y-2.8391
X3.5304Y-2.9391
X3.5304Y-3.0391
X3.5304Y-3.1391
X3.5304Y-3.2391
X3.5304Y-3.3391
X3.5304Y-3.5391
X3.5304Y-3.6391
X3.5304Y-3.7391
X3.5304Y-3.8391
X3.5304Y-3.9391
X3.5304Y-4.0391
X3.5304Y-4.1391
X3.5304Y-4.2391
X3.5304Y-4.3391
X3.5304Y-4.4391
X3.5304Y-4.5391
X3.5304Y-4.6391
X3.5317Y-3.4372
X3.6272Y-5.0443
X3.6272Y-5.1443
X3.6272Y-5.2443
X3.7272Y-5.0443
X3.7272Y-5.1443
X3.7272Y-5.2443
X3.8272Y-5.0443
X3.8272Y-5.1443
X3.8272Y-5.2443
X3.8888Y-2.9429
X3.8888Y-3.0413
X3.9272Y-5.0443
X3.9272Y-5.1443
X3.9272Y-5.2443
X4.0272Y-5.0443
X4.0272Y-5.1443
X4.0272Y-5.2443
X4.0646Y-1.6939
X4.0646Y-1.7939
X4.1272Y-5.0443
X4.1272Y-5.1443
X4.1272Y-5.2443
X4.1319Y-2.6654
X4.1646Y-1.6939
X4.1646Y-1.7939
X4.2272Y-5.0443
X4.2272Y-5.1443
X4.2272Y-5.2443
X4.2303Y-2.4685
X4.3272Y-5.0443
X4.3272Y-5.1443
X4.3272Y-5.2443
X4.3287Y-2.6654
X4.4272Y-5.0443
X4.4272Y-5.1443
X4.4272Y-5.2443
X4.5272Y-5.0443
X4.5272Y-5.1443
X4.5272Y-5.2443
X4.6272Y-5.0443
X4.6272Y-5.1443
X4.6272Y-5.2443
X4.7272Y-5.0443
X4.7272Y-5.1443
X4.7272Y-5.2443
T6
X3.6795Y-1.7349
X3.9551Y-1.7349
T2
G00X4.2936Y-1.6378
M15
G01X4.2936Y-1.6063
M16
G05
G00X4.2936Y-1.8083
M15
G01X4.2936Y-1.765
M16
G05
G00X4.6338Y-1.6378
M15
G01X4.6338Y-1.6063
M16
G05
G00X4.6338Y-1.8083
M15
G01X4.6338Y-1.765
M16
G05
M30
