%TF.GenerationSoftware,KiCad,Pcbnew,9.0.4-9.0.4-0~ubuntu24.04.1*%
%TF.CreationDate,2025-09-25T01:17:13+02:00*%
%TF.ProjectId,OrangePie,4f72616e-6765-4506-9965-2e6b69636164,2.0.0*%
%TF.SameCoordinates,Original*%
%TF.FileFunction,Legend,Bot*%
%TF.FilePolarity,Positive*%
%FSLAX46Y46*%
G04 Gerber Fmt 4.6, Leading zero omitted, Abs format (unit mm)*
G04 Created by KiCad (PCBNEW 9.0.4-9.0.4-0~ubuntu24.04.1) date 2025-09-25 01:17:13*
%MOMM*%
%LPD*%
G01*
G04 APERTURE LIST*
G04 Aperture macros list*
%AMRoundRect*
0 Rectangle with rounded corners*
0 $1 Rounding radius*
0 $2 $3 $4 $5 $6 $7 $8 $9 X,Y pos of 4 corners*
0 Add a 4 corners polygon primitive as box body*
4,1,4,$2,$3,$4,$5,$6,$7,$8,$9,$2,$3,0*
0 Add four circle primitives for the rounded corners*
1,1,$1+$1,$2,$3*
1,1,$1+$1,$4,$5*
1,1,$1+$1,$6,$7*
1,1,$1+$1,$8,$9*
0 Add four rect primitives between the rounded corners*
20,1,$1+$1,$2,$3,$4,$5,0*
20,1,$1+$1,$4,$5,$6,$7,0*
20,1,$1+$1,$6,$7,$8,$9,0*
20,1,$1+$1,$8,$9,$2,$3,0*%
%AMRotRect*
0 Rectangle, with rotation*
0 The origin of the aperture is its center*
0 $1 length*
0 $2 width*
0 $3 Rotation angle, in degrees counterclockwise*
0 Add horizontal line*
21,1,$1,$2,0,0,$3*%
G04 Aperture macros list end*
%ADD10C,0.100000*%
%ADD11C,0.150000*%
%ADD12C,0.200000*%
%ADD13C,0.400000*%
%ADD14C,0.160000*%
%ADD15C,0.250000*%
%ADD16C,0.140000*%
%ADD17C,0.000000*%
%ADD18C,0.120000*%
%ADD19C,1.300000*%
%ADD20C,2.286000*%
%ADD21C,1.200000*%
%ADD22RoundRect,0.250000X-0.750000X0.600000X-0.750000X-0.600000X0.750000X-0.600000X0.750000X0.600000X0*%
%ADD23O,2.000000X1.700000*%
%ADD24C,1.600000*%
%ADD25R,1.560000X1.560000*%
%ADD26C,1.560000*%
%ADD27RoundRect,0.250000X0.750000X-0.600000X0.750000X0.600000X-0.750000X0.600000X-0.750000X-0.600000X0*%
%ADD28C,0.650000*%
%ADD29O,1.000000X2.100000*%
%ADD30O,1.000000X1.800000*%
%ADD31C,2.850000*%
%ADD32RoundRect,0.249999X0.525001X0.525001X-0.525001X0.525001X-0.525001X-0.525001X0.525001X-0.525001X0*%
%ADD33C,1.550000*%
%ADD34RotRect,1.000000X1.000000X315.000000*%
%ADD35C,1.000000*%
%ADD36C,4.500000*%
%ADD37O,1.700000X1.700000*%
%ADD38R,1.700000X1.700000*%
G04 APERTURE END LIST*
D10*
X80167995Y-64865003D02*
X81167995Y-63865003D01*
D11*
X64500000Y-57310000D02*
X64500000Y-61590000D01*
D12*
X66974934Y-57115758D02*
G75*
G02*
X68078652Y-57082659I578366J-867342D01*
G01*
D10*
X49850000Y-57790000D02*
G75*
G02*
X49450000Y-57790000I-200000J0D01*
G01*
X49450000Y-57790000D02*
G75*
G02*
X49850000Y-57790000I200000J0D01*
G01*
D12*
X68110305Y-57103513D02*
G75*
G02*
X69186620Y-57129994I516695J-885587D01*
G01*
X67004857Y-60325390D02*
G75*
G02*
X68108559Y-60292319I578343J-867610D01*
G01*
D10*
X64050000Y-70350000D02*
G75*
G02*
X63650000Y-70350000I-200000J0D01*
G01*
X63650000Y-70350000D02*
G75*
G02*
X64050000Y-70350000I200000J0D01*
G01*
D11*
X50250000Y-70050000D02*
X63250000Y-70050000D01*
X63250000Y-72250000D01*
X50250000Y-72250000D01*
X50250000Y-70050000D01*
D12*
X70074615Y-60672539D02*
G75*
G02*
X69191924Y-60318926I-8115J1258239D01*
G01*
X66069723Y-60681387D02*
X66082275Y-57471161D01*
X66985456Y-57115571D02*
G75*
G02*
X66082275Y-57471178I-879956J910171D01*
G01*
D11*
X49000000Y-61990000D02*
X49000000Y-65990000D01*
X49006000Y-65990000D02*
X55750000Y-65990000D01*
D12*
X68093415Y-60291540D02*
X68110305Y-57103513D01*
D10*
X49850000Y-70150000D02*
G75*
G02*
X49450000Y-70150000I-200000J0D01*
G01*
X49450000Y-70150000D02*
G75*
G02*
X49850000Y-70150000I200000J0D01*
G01*
D12*
X67016418Y-60326278D02*
G75*
G02*
X66069722Y-60680823I-881018J911278D01*
G01*
D10*
X66407021Y-64871942D02*
X65407021Y-63871942D01*
D11*
X50050000Y-57110000D02*
X49000000Y-57110000D01*
X64500000Y-70950000D02*
X63450000Y-70950000D01*
D12*
X70085241Y-57489076D02*
G75*
G02*
X69186623Y-57129994I-10541J1277576D01*
G01*
D11*
X63850000Y-66550000D02*
X64500000Y-66550000D01*
X64500000Y-66550000D02*
X64500000Y-70950000D01*
D10*
X66407580Y-71225383D02*
X65407021Y-72225942D01*
X67379899Y-50479899D02*
G75*
G02*
X63420101Y-50479899I-1979899J0D01*
G01*
X63420101Y-50479899D02*
G75*
G02*
X67379899Y-50479899I1979899J0D01*
G01*
D12*
X70074615Y-60672539D02*
X70085241Y-57489076D01*
D11*
X49000000Y-57110000D02*
X49000000Y-61590000D01*
X49000000Y-70830000D02*
X50050000Y-70830000D01*
X64000000Y-61910000D02*
X64500000Y-61910000D01*
X55650000Y-61990000D02*
X49025000Y-61990000D01*
X49000000Y-61590000D02*
X55650000Y-61590000D01*
D10*
X65407021Y-63825942D02*
X81207020Y-63825942D01*
X81207020Y-72225942D01*
X65407021Y-72225942D01*
X65407021Y-63825942D01*
D11*
X49000000Y-66550000D02*
X49000000Y-70830000D01*
X64000000Y-57310000D02*
X64500000Y-57310000D01*
X55969000Y-66490000D02*
X49000000Y-66490000D01*
X64500000Y-61590000D02*
X64000000Y-61590000D01*
D10*
X80167995Y-71219003D02*
X81167995Y-72219003D01*
D12*
X68093415Y-60291540D02*
G75*
G02*
X69197141Y-60324591I525385J-900760D01*
G01*
D11*
X64500000Y-61910000D02*
X64500000Y-65990000D01*
D10*
X47379899Y-50500000D02*
G75*
G02*
X43420101Y-50500000I-1979899J0D01*
G01*
X43420101Y-50500000D02*
G75*
G02*
X47379899Y-50500000I1979899J0D01*
G01*
D11*
X64500000Y-65990000D02*
X63850000Y-65990000D01*
D10*
X78788850Y-71494265D02*
X78407897Y-71494265D01*
X78865040Y-71722837D02*
X78598373Y-70922837D01*
X78598373Y-70922837D02*
X78331707Y-71722837D01*
X78103136Y-71684742D02*
X77988850Y-71722837D01*
X77988850Y-71722837D02*
X77798374Y-71722837D01*
X77798374Y-71722837D02*
X77722183Y-71684742D01*
X77722183Y-71684742D02*
X77684088Y-71646646D01*
X77684088Y-71646646D02*
X77645993Y-71570456D01*
X77645993Y-71570456D02*
X77645993Y-71494265D01*
X77645993Y-71494265D02*
X77684088Y-71418075D01*
X77684088Y-71418075D02*
X77722183Y-71379980D01*
X77722183Y-71379980D02*
X77798374Y-71341884D01*
X77798374Y-71341884D02*
X77950755Y-71303789D01*
X77950755Y-71303789D02*
X78026945Y-71265694D01*
X78026945Y-71265694D02*
X78065040Y-71227599D01*
X78065040Y-71227599D02*
X78103136Y-71151408D01*
X78103136Y-71151408D02*
X78103136Y-71075218D01*
X78103136Y-71075218D02*
X78065040Y-70999027D01*
X78065040Y-70999027D02*
X78026945Y-70960932D01*
X78026945Y-70960932D02*
X77950755Y-70922837D01*
X77950755Y-70922837D02*
X77760278Y-70922837D01*
X77760278Y-70922837D02*
X77645993Y-70960932D01*
X77341231Y-71684742D02*
X77226945Y-71722837D01*
X77226945Y-71722837D02*
X77036469Y-71722837D01*
X77036469Y-71722837D02*
X76960278Y-71684742D01*
X76960278Y-71684742D02*
X76922183Y-71646646D01*
X76922183Y-71646646D02*
X76884088Y-71570456D01*
X76884088Y-71570456D02*
X76884088Y-71494265D01*
X76884088Y-71494265D02*
X76922183Y-71418075D01*
X76922183Y-71418075D02*
X76960278Y-71379980D01*
X76960278Y-71379980D02*
X77036469Y-71341884D01*
X77036469Y-71341884D02*
X77188850Y-71303789D01*
X77188850Y-71303789D02*
X77265040Y-71265694D01*
X77265040Y-71265694D02*
X77303135Y-71227599D01*
X77303135Y-71227599D02*
X77341231Y-71151408D01*
X77341231Y-71151408D02*
X77341231Y-71075218D01*
X77341231Y-71075218D02*
X77303135Y-70999027D01*
X77303135Y-70999027D02*
X77265040Y-70960932D01*
X77265040Y-70960932D02*
X77188850Y-70922837D01*
X77188850Y-70922837D02*
X76998373Y-70922837D01*
X76998373Y-70922837D02*
X76884088Y-70960932D01*
X76541230Y-71303789D02*
X76274564Y-71303789D01*
X76160278Y-71722837D02*
X76541230Y-71722837D01*
X76541230Y-71722837D02*
X76541230Y-70922837D01*
X76541230Y-70922837D02*
X76160278Y-70922837D01*
X75817420Y-71722837D02*
X75817420Y-70922837D01*
X75817420Y-70922837D02*
X75550754Y-71494265D01*
X75550754Y-71494265D02*
X75284087Y-70922837D01*
X75284087Y-70922837D02*
X75284087Y-71722837D01*
X74636468Y-71303789D02*
X74522182Y-71341884D01*
X74522182Y-71341884D02*
X74484087Y-71379980D01*
X74484087Y-71379980D02*
X74445991Y-71456170D01*
X74445991Y-71456170D02*
X74445991Y-71570456D01*
X74445991Y-71570456D02*
X74484087Y-71646646D01*
X74484087Y-71646646D02*
X74522182Y-71684742D01*
X74522182Y-71684742D02*
X74598372Y-71722837D01*
X74598372Y-71722837D02*
X74903134Y-71722837D01*
X74903134Y-71722837D02*
X74903134Y-70922837D01*
X74903134Y-70922837D02*
X74636468Y-70922837D01*
X74636468Y-70922837D02*
X74560277Y-70960932D01*
X74560277Y-70960932D02*
X74522182Y-70999027D01*
X74522182Y-70999027D02*
X74484087Y-71075218D01*
X74484087Y-71075218D02*
X74484087Y-71151408D01*
X74484087Y-71151408D02*
X74522182Y-71227599D01*
X74522182Y-71227599D02*
X74560277Y-71265694D01*
X74560277Y-71265694D02*
X74636468Y-71303789D01*
X74636468Y-71303789D02*
X74903134Y-71303789D01*
X73722182Y-71722837D02*
X74103134Y-71722837D01*
X74103134Y-71722837D02*
X74103134Y-70922837D01*
X73303134Y-71341884D02*
X73303134Y-71722837D01*
X73569801Y-70922837D02*
X73303134Y-71341884D01*
X73303134Y-71341884D02*
X73036468Y-70922837D01*
X72198373Y-71684742D02*
X72084087Y-71722837D01*
X72084087Y-71722837D02*
X71893611Y-71722837D01*
X71893611Y-71722837D02*
X71817420Y-71684742D01*
X71817420Y-71684742D02*
X71779325Y-71646646D01*
X71779325Y-71646646D02*
X71741230Y-71570456D01*
X71741230Y-71570456D02*
X71741230Y-71494265D01*
X71741230Y-71494265D02*
X71779325Y-71418075D01*
X71779325Y-71418075D02*
X71817420Y-71379980D01*
X71817420Y-71379980D02*
X71893611Y-71341884D01*
X71893611Y-71341884D02*
X72045992Y-71303789D01*
X72045992Y-71303789D02*
X72122182Y-71265694D01*
X72122182Y-71265694D02*
X72160277Y-71227599D01*
X72160277Y-71227599D02*
X72198373Y-71151408D01*
X72198373Y-71151408D02*
X72198373Y-71075218D01*
X72198373Y-71075218D02*
X72160277Y-70999027D01*
X72160277Y-70999027D02*
X72122182Y-70960932D01*
X72122182Y-70960932D02*
X72045992Y-70922837D01*
X72045992Y-70922837D02*
X71855515Y-70922837D01*
X71855515Y-70922837D02*
X71741230Y-70960932D01*
X71512658Y-70922837D02*
X71055515Y-70922837D01*
X71284087Y-71722837D02*
X71284087Y-70922837D01*
X70788848Y-71722837D02*
X70788848Y-70922837D01*
X69950753Y-71646646D02*
X69988849Y-71684742D01*
X69988849Y-71684742D02*
X70103134Y-71722837D01*
X70103134Y-71722837D02*
X70179325Y-71722837D01*
X70179325Y-71722837D02*
X70293611Y-71684742D01*
X70293611Y-71684742D02*
X70369801Y-71608551D01*
X70369801Y-71608551D02*
X70407896Y-71532361D01*
X70407896Y-71532361D02*
X70445992Y-71379980D01*
X70445992Y-71379980D02*
X70445992Y-71265694D01*
X70445992Y-71265694D02*
X70407896Y-71113313D01*
X70407896Y-71113313D02*
X70369801Y-71037122D01*
X70369801Y-71037122D02*
X70293611Y-70960932D01*
X70293611Y-70960932D02*
X70179325Y-70922837D01*
X70179325Y-70922837D02*
X70103134Y-70922837D01*
X70103134Y-70922837D02*
X69988849Y-70960932D01*
X69988849Y-70960932D02*
X69950753Y-70999027D01*
X69607896Y-71722837D02*
X69607896Y-70922837D01*
X69150753Y-71722837D02*
X69493611Y-71265694D01*
X69150753Y-70922837D02*
X69607896Y-71379980D01*
X68807896Y-71303789D02*
X68541230Y-71303789D01*
X68426944Y-71722837D02*
X68807896Y-71722837D01*
X68807896Y-71722837D02*
X68807896Y-70922837D01*
X68807896Y-70922837D02*
X68426944Y-70922837D01*
X67626943Y-71722837D02*
X67893610Y-71341884D01*
X68084086Y-71722837D02*
X68084086Y-70922837D01*
X68084086Y-70922837D02*
X67779324Y-70922837D01*
X67779324Y-70922837D02*
X67703134Y-70960932D01*
X67703134Y-70960932D02*
X67665039Y-70999027D01*
X67665039Y-70999027D02*
X67626943Y-71075218D01*
X67626943Y-71075218D02*
X67626943Y-71189503D01*
X67626943Y-71189503D02*
X67665039Y-71265694D01*
X67665039Y-71265694D02*
X67703134Y-71303789D01*
X67703134Y-71303789D02*
X67779324Y-71341884D01*
X67779324Y-71341884D02*
X68084086Y-71341884D01*
D11*
X63379839Y-63614140D02*
X63379839Y-62814140D01*
X63379839Y-62814140D02*
X63075077Y-62814140D01*
X63075077Y-62814140D02*
X62998887Y-62852235D01*
X62998887Y-62852235D02*
X62960792Y-62890330D01*
X62960792Y-62890330D02*
X62922696Y-62966521D01*
X62922696Y-62966521D02*
X62922696Y-63080806D01*
X62922696Y-63080806D02*
X62960792Y-63156997D01*
X62960792Y-63156997D02*
X62998887Y-63195092D01*
X62998887Y-63195092D02*
X63075077Y-63233187D01*
X63075077Y-63233187D02*
X63379839Y-63233187D01*
X62122696Y-63614140D02*
X62389363Y-63233187D01*
X62579839Y-63614140D02*
X62579839Y-62814140D01*
X62579839Y-62814140D02*
X62275077Y-62814140D01*
X62275077Y-62814140D02*
X62198887Y-62852235D01*
X62198887Y-62852235D02*
X62160792Y-62890330D01*
X62160792Y-62890330D02*
X62122696Y-62966521D01*
X62122696Y-62966521D02*
X62122696Y-63080806D01*
X62122696Y-63080806D02*
X62160792Y-63156997D01*
X62160792Y-63156997D02*
X62198887Y-63195092D01*
X62198887Y-63195092D02*
X62275077Y-63233187D01*
X62275077Y-63233187D02*
X62579839Y-63233187D01*
X61627458Y-62814140D02*
X61475077Y-62814140D01*
X61475077Y-62814140D02*
X61398887Y-62852235D01*
X61398887Y-62852235D02*
X61322696Y-62928425D01*
X61322696Y-62928425D02*
X61284601Y-63080806D01*
X61284601Y-63080806D02*
X61284601Y-63347473D01*
X61284601Y-63347473D02*
X61322696Y-63499854D01*
X61322696Y-63499854D02*
X61398887Y-63576045D01*
X61398887Y-63576045D02*
X61475077Y-63614140D01*
X61475077Y-63614140D02*
X61627458Y-63614140D01*
X61627458Y-63614140D02*
X61703649Y-63576045D01*
X61703649Y-63576045D02*
X61779839Y-63499854D01*
X61779839Y-63499854D02*
X61817935Y-63347473D01*
X61817935Y-63347473D02*
X61817935Y-63080806D01*
X61817935Y-63080806D02*
X61779839Y-62928425D01*
X61779839Y-62928425D02*
X61703649Y-62852235D01*
X61703649Y-62852235D02*
X61627458Y-62814140D01*
X60713173Y-62814140D02*
X60713173Y-63385568D01*
X60713173Y-63385568D02*
X60751268Y-63499854D01*
X60751268Y-63499854D02*
X60827459Y-63576045D01*
X60827459Y-63576045D02*
X60941744Y-63614140D01*
X60941744Y-63614140D02*
X61017935Y-63614140D01*
X60332220Y-63195092D02*
X60065554Y-63195092D01*
X59951268Y-63614140D02*
X60332220Y-63614140D01*
X60332220Y-63614140D02*
X60332220Y-62814140D01*
X60332220Y-62814140D02*
X59951268Y-62814140D01*
X59151267Y-63537949D02*
X59189363Y-63576045D01*
X59189363Y-63576045D02*
X59303648Y-63614140D01*
X59303648Y-63614140D02*
X59379839Y-63614140D01*
X59379839Y-63614140D02*
X59494125Y-63576045D01*
X59494125Y-63576045D02*
X59570315Y-63499854D01*
X59570315Y-63499854D02*
X59608410Y-63423664D01*
X59608410Y-63423664D02*
X59646506Y-63271283D01*
X59646506Y-63271283D02*
X59646506Y-63156997D01*
X59646506Y-63156997D02*
X59608410Y-63004616D01*
X59608410Y-63004616D02*
X59570315Y-62928425D01*
X59570315Y-62928425D02*
X59494125Y-62852235D01*
X59494125Y-62852235D02*
X59379839Y-62814140D01*
X59379839Y-62814140D02*
X59303648Y-62814140D01*
X59303648Y-62814140D02*
X59189363Y-62852235D01*
X59189363Y-62852235D02*
X59151267Y-62890330D01*
X58922696Y-62814140D02*
X58465553Y-62814140D01*
X58694125Y-63614140D02*
X58694125Y-62814140D01*
X56522695Y-63614140D02*
X56789362Y-63233187D01*
X56979838Y-63614140D02*
X56979838Y-62814140D01*
X56979838Y-62814140D02*
X56675076Y-62814140D01*
X56675076Y-62814140D02*
X56598886Y-62852235D01*
X56598886Y-62852235D02*
X56560791Y-62890330D01*
X56560791Y-62890330D02*
X56522695Y-62966521D01*
X56522695Y-62966521D02*
X56522695Y-63080806D01*
X56522695Y-63080806D02*
X56560791Y-63156997D01*
X56560791Y-63156997D02*
X56598886Y-63195092D01*
X56598886Y-63195092D02*
X56675076Y-63233187D01*
X56675076Y-63233187D02*
X56979838Y-63233187D01*
X55875076Y-63576045D02*
X55951267Y-63614140D01*
X55951267Y-63614140D02*
X56103648Y-63614140D01*
X56103648Y-63614140D02*
X56179838Y-63576045D01*
X56179838Y-63576045D02*
X56217934Y-63499854D01*
X56217934Y-63499854D02*
X56217934Y-63195092D01*
X56217934Y-63195092D02*
X56179838Y-63118902D01*
X56179838Y-63118902D02*
X56103648Y-63080806D01*
X56103648Y-63080806D02*
X55951267Y-63080806D01*
X55951267Y-63080806D02*
X55875076Y-63118902D01*
X55875076Y-63118902D02*
X55836981Y-63195092D01*
X55836981Y-63195092D02*
X55836981Y-63271283D01*
X55836981Y-63271283D02*
X56217934Y-63347473D01*
X55570315Y-63080806D02*
X55379839Y-63614140D01*
X55379839Y-63614140D02*
X55189362Y-63080806D01*
X54884600Y-63537949D02*
X54846505Y-63576045D01*
X54846505Y-63576045D02*
X54884600Y-63614140D01*
X54884600Y-63614140D02*
X54922696Y-63576045D01*
X54922696Y-63576045D02*
X54884600Y-63537949D01*
X54884600Y-63537949D02*
X54884600Y-63614140D01*
X53932220Y-62890330D02*
X53894124Y-62852235D01*
X53894124Y-62852235D02*
X53817934Y-62814140D01*
X53817934Y-62814140D02*
X53627458Y-62814140D01*
X53627458Y-62814140D02*
X53551267Y-62852235D01*
X53551267Y-62852235D02*
X53513172Y-62890330D01*
X53513172Y-62890330D02*
X53475077Y-62966521D01*
X53475077Y-62966521D02*
X53475077Y-63042711D01*
X53475077Y-63042711D02*
X53513172Y-63156997D01*
X53513172Y-63156997D02*
X53970315Y-63614140D01*
X53970315Y-63614140D02*
X53475077Y-63614140D01*
X53132219Y-63537949D02*
X53094124Y-63576045D01*
X53094124Y-63576045D02*
X53132219Y-63614140D01*
X53132219Y-63614140D02*
X53170315Y-63576045D01*
X53170315Y-63576045D02*
X53132219Y-63537949D01*
X53132219Y-63537949D02*
X53132219Y-63614140D01*
X52598886Y-62814140D02*
X52522696Y-62814140D01*
X52522696Y-62814140D02*
X52446505Y-62852235D01*
X52446505Y-62852235D02*
X52408410Y-62890330D01*
X52408410Y-62890330D02*
X52370315Y-62966521D01*
X52370315Y-62966521D02*
X52332220Y-63118902D01*
X52332220Y-63118902D02*
X52332220Y-63309378D01*
X52332220Y-63309378D02*
X52370315Y-63461759D01*
X52370315Y-63461759D02*
X52408410Y-63537949D01*
X52408410Y-63537949D02*
X52446505Y-63576045D01*
X52446505Y-63576045D02*
X52522696Y-63614140D01*
X52522696Y-63614140D02*
X52598886Y-63614140D01*
X52598886Y-63614140D02*
X52675077Y-63576045D01*
X52675077Y-63576045D02*
X52713172Y-63537949D01*
X52713172Y-63537949D02*
X52751267Y-63461759D01*
X52751267Y-63461759D02*
X52789363Y-63309378D01*
X52789363Y-63309378D02*
X52789363Y-63118902D01*
X52789363Y-63118902D02*
X52751267Y-62966521D01*
X52751267Y-62966521D02*
X52713172Y-62890330D01*
X52713172Y-62890330D02*
X52675077Y-62852235D01*
X52675077Y-62852235D02*
X52598886Y-62814140D01*
X51989362Y-63537949D02*
X51951267Y-63576045D01*
X51951267Y-63576045D02*
X51989362Y-63614140D01*
X51989362Y-63614140D02*
X52027458Y-63576045D01*
X52027458Y-63576045D02*
X51989362Y-63537949D01*
X51989362Y-63537949D02*
X51989362Y-63614140D01*
X51456029Y-62814140D02*
X51379839Y-62814140D01*
X51379839Y-62814140D02*
X51303648Y-62852235D01*
X51303648Y-62852235D02*
X51265553Y-62890330D01*
X51265553Y-62890330D02*
X51227458Y-62966521D01*
X51227458Y-62966521D02*
X51189363Y-63118902D01*
X51189363Y-63118902D02*
X51189363Y-63309378D01*
X51189363Y-63309378D02*
X51227458Y-63461759D01*
X51227458Y-63461759D02*
X51265553Y-63537949D01*
X51265553Y-63537949D02*
X51303648Y-63576045D01*
X51303648Y-63576045D02*
X51379839Y-63614140D01*
X51379839Y-63614140D02*
X51456029Y-63614140D01*
X51456029Y-63614140D02*
X51532220Y-63576045D01*
X51532220Y-63576045D02*
X51570315Y-63537949D01*
X51570315Y-63537949D02*
X51608410Y-63461759D01*
X51608410Y-63461759D02*
X51646506Y-63309378D01*
X51646506Y-63309378D02*
X51646506Y-63118902D01*
X51646506Y-63118902D02*
X51608410Y-62966521D01*
X51608410Y-62966521D02*
X51570315Y-62890330D01*
X51570315Y-62890330D02*
X51532220Y-62852235D01*
X51532220Y-62852235D02*
X51456029Y-62814140D01*
D12*
X63286279Y-57657219D02*
X63161279Y-56657219D01*
X63161279Y-56657219D02*
X62917231Y-57371504D01*
X62917231Y-57371504D02*
X62494612Y-56657219D01*
X62494612Y-56657219D02*
X62619612Y-57657219D01*
X62000565Y-57657219D02*
X62089850Y-57609600D01*
X62089850Y-57609600D02*
X62131517Y-57561980D01*
X62131517Y-57561980D02*
X62167231Y-57466742D01*
X62167231Y-57466742D02*
X62131517Y-57181028D01*
X62131517Y-57181028D02*
X62071993Y-57085790D01*
X62071993Y-57085790D02*
X62018422Y-57038171D01*
X62018422Y-57038171D02*
X61917231Y-56990552D01*
X61917231Y-56990552D02*
X61774374Y-56990552D01*
X61774374Y-56990552D02*
X61685088Y-57038171D01*
X61685088Y-57038171D02*
X61643422Y-57085790D01*
X61643422Y-57085790D02*
X61607707Y-57181028D01*
X61607707Y-57181028D02*
X61643422Y-57466742D01*
X61643422Y-57466742D02*
X61702945Y-57561980D01*
X61702945Y-57561980D02*
X61756517Y-57609600D01*
X61756517Y-57609600D02*
X61857707Y-57657219D01*
X61857707Y-57657219D02*
X62000565Y-57657219D01*
X60810088Y-57657219D02*
X60685088Y-56657219D01*
X60804136Y-57609600D02*
X60905326Y-57657219D01*
X60905326Y-57657219D02*
X61095803Y-57657219D01*
X61095803Y-57657219D02*
X61185088Y-57609600D01*
X61185088Y-57609600D02*
X61226755Y-57561980D01*
X61226755Y-57561980D02*
X61262469Y-57466742D01*
X61262469Y-57466742D02*
X61226755Y-57181028D01*
X61226755Y-57181028D02*
X61167231Y-57085790D01*
X61167231Y-57085790D02*
X61113660Y-57038171D01*
X61113660Y-57038171D02*
X61012469Y-56990552D01*
X61012469Y-56990552D02*
X60821993Y-56990552D01*
X60821993Y-56990552D02*
X60732707Y-57038171D01*
X59821993Y-56990552D02*
X59905326Y-57657219D01*
X60250564Y-56990552D02*
X60316041Y-57514361D01*
X60316041Y-57514361D02*
X60280326Y-57609600D01*
X60280326Y-57609600D02*
X60191041Y-57657219D01*
X60191041Y-57657219D02*
X60048183Y-57657219D01*
X60048183Y-57657219D02*
X59946993Y-57609600D01*
X59946993Y-57609600D02*
X59893421Y-57561980D01*
X58845802Y-57561980D02*
X58899374Y-57609600D01*
X58899374Y-57609600D02*
X59048183Y-57657219D01*
X59048183Y-57657219D02*
X59143421Y-57657219D01*
X59143421Y-57657219D02*
X59280326Y-57609600D01*
X59280326Y-57609600D02*
X59363659Y-57514361D01*
X59363659Y-57514361D02*
X59399374Y-57419123D01*
X59399374Y-57419123D02*
X59423183Y-57228647D01*
X59423183Y-57228647D02*
X59405326Y-57085790D01*
X59405326Y-57085790D02*
X59333898Y-56895314D01*
X59333898Y-56895314D02*
X59274374Y-56800076D01*
X59274374Y-56800076D02*
X59167231Y-56704838D01*
X59167231Y-56704838D02*
X59018421Y-56657219D01*
X59018421Y-56657219D02*
X58923183Y-56657219D01*
X58923183Y-56657219D02*
X58786279Y-56704838D01*
X58786279Y-56704838D02*
X58744612Y-56752457D01*
X58000564Y-57657219D02*
X57935088Y-57133409D01*
X57935088Y-57133409D02*
X57970802Y-57038171D01*
X57970802Y-57038171D02*
X58060088Y-56990552D01*
X58060088Y-56990552D02*
X58250564Y-56990552D01*
X58250564Y-56990552D02*
X58351755Y-57038171D01*
X57994612Y-57609600D02*
X58095802Y-57657219D01*
X58095802Y-57657219D02*
X58333898Y-57657219D01*
X58333898Y-57657219D02*
X58423183Y-57609600D01*
X58423183Y-57609600D02*
X58458898Y-57514361D01*
X58458898Y-57514361D02*
X58446993Y-57419123D01*
X58446993Y-57419123D02*
X58387469Y-57323885D01*
X58387469Y-57323885D02*
X58286279Y-57276266D01*
X58286279Y-57276266D02*
X58048183Y-57276266D01*
X58048183Y-57276266D02*
X57946993Y-57228647D01*
X57524374Y-57657219D02*
X57441040Y-56990552D01*
X57464850Y-57181028D02*
X57405326Y-57085790D01*
X57405326Y-57085790D02*
X57351755Y-57038171D01*
X57351755Y-57038171D02*
X57250564Y-56990552D01*
X57250564Y-56990552D02*
X57155326Y-56990552D01*
X56476754Y-57657219D02*
X56351754Y-56657219D01*
X56470802Y-57609600D02*
X56571992Y-57657219D01*
X56571992Y-57657219D02*
X56762469Y-57657219D01*
X56762469Y-57657219D02*
X56851754Y-57609600D01*
X56851754Y-57609600D02*
X56893421Y-57561980D01*
X56893421Y-57561980D02*
X56929135Y-57466742D01*
X56929135Y-57466742D02*
X56893421Y-57181028D01*
X56893421Y-57181028D02*
X56833897Y-57085790D01*
X56833897Y-57085790D02*
X56780326Y-57038171D01*
X56780326Y-57038171D02*
X56679135Y-56990552D01*
X56679135Y-56990552D02*
X56488659Y-56990552D01*
X56488659Y-56990552D02*
X56399373Y-57038171D01*
X55280325Y-57609600D02*
X55143421Y-57657219D01*
X55143421Y-57657219D02*
X54905325Y-57657219D01*
X54905325Y-57657219D02*
X54804135Y-57609600D01*
X54804135Y-57609600D02*
X54750563Y-57561980D01*
X54750563Y-57561980D02*
X54691040Y-57466742D01*
X54691040Y-57466742D02*
X54679135Y-57371504D01*
X54679135Y-57371504D02*
X54714849Y-57276266D01*
X54714849Y-57276266D02*
X54756516Y-57228647D01*
X54756516Y-57228647D02*
X54845802Y-57181028D01*
X54845802Y-57181028D02*
X55030325Y-57133409D01*
X55030325Y-57133409D02*
X55119611Y-57085790D01*
X55119611Y-57085790D02*
X55161278Y-57038171D01*
X55161278Y-57038171D02*
X55196992Y-56942933D01*
X55196992Y-56942933D02*
X55185087Y-56847695D01*
X55185087Y-56847695D02*
X55125563Y-56752457D01*
X55125563Y-56752457D02*
X55071992Y-56704838D01*
X55071992Y-56704838D02*
X54970802Y-56657219D01*
X54970802Y-56657219D02*
X54732706Y-56657219D01*
X54732706Y-56657219D02*
X54595802Y-56704838D01*
X54298182Y-56990552D02*
X54143421Y-57657219D01*
X53821992Y-56990552D02*
X54143421Y-57657219D01*
X54143421Y-57657219D02*
X54268421Y-57895314D01*
X54268421Y-57895314D02*
X54321992Y-57942933D01*
X54321992Y-57942933D02*
X54423182Y-57990552D01*
X53566039Y-57609600D02*
X53476754Y-57657219D01*
X53476754Y-57657219D02*
X53286277Y-57657219D01*
X53286277Y-57657219D02*
X53185087Y-57609600D01*
X53185087Y-57609600D02*
X53125563Y-57514361D01*
X53125563Y-57514361D02*
X53119611Y-57466742D01*
X53119611Y-57466742D02*
X53155325Y-57371504D01*
X53155325Y-57371504D02*
X53244611Y-57323885D01*
X53244611Y-57323885D02*
X53387468Y-57323885D01*
X53387468Y-57323885D02*
X53476754Y-57276266D01*
X53476754Y-57276266D02*
X53512468Y-57181028D01*
X53512468Y-57181028D02*
X53506516Y-57133409D01*
X53506516Y-57133409D02*
X53446992Y-57038171D01*
X53446992Y-57038171D02*
X53345801Y-56990552D01*
X53345801Y-56990552D02*
X53202944Y-56990552D01*
X53202944Y-56990552D02*
X53113658Y-57038171D01*
X52774372Y-56990552D02*
X52393420Y-56990552D01*
X52589849Y-56657219D02*
X52696992Y-57514361D01*
X52696992Y-57514361D02*
X52661277Y-57609600D01*
X52661277Y-57609600D02*
X52571992Y-57657219D01*
X52571992Y-57657219D02*
X52476753Y-57657219D01*
X51756515Y-57609600D02*
X51857705Y-57657219D01*
X51857705Y-57657219D02*
X52048182Y-57657219D01*
X52048182Y-57657219D02*
X52137467Y-57609600D01*
X52137467Y-57609600D02*
X52173182Y-57514361D01*
X52173182Y-57514361D02*
X52125563Y-57133409D01*
X52125563Y-57133409D02*
X52066039Y-57038171D01*
X52066039Y-57038171D02*
X51964848Y-56990552D01*
X51964848Y-56990552D02*
X51774372Y-56990552D01*
X51774372Y-56990552D02*
X51685086Y-57038171D01*
X51685086Y-57038171D02*
X51649372Y-57133409D01*
X51649372Y-57133409D02*
X51661277Y-57228647D01*
X51661277Y-57228647D02*
X52149372Y-57323885D01*
X51286277Y-57657219D02*
X51202943Y-56990552D01*
X51214848Y-57085790D02*
X51161277Y-57038171D01*
X51161277Y-57038171D02*
X51060086Y-56990552D01*
X51060086Y-56990552D02*
X50917229Y-56990552D01*
X50917229Y-56990552D02*
X50827943Y-57038171D01*
X50827943Y-57038171D02*
X50792229Y-57133409D01*
X50792229Y-57133409D02*
X50857705Y-57657219D01*
X50792229Y-57133409D02*
X50732705Y-57038171D01*
X50732705Y-57038171D02*
X50631515Y-56990552D01*
X50631515Y-56990552D02*
X50488658Y-56990552D01*
X50488658Y-56990552D02*
X50399372Y-57038171D01*
X50399372Y-57038171D02*
X50363658Y-57133409D01*
X50363658Y-57133409D02*
X50429134Y-57657219D01*
D13*
G36*
X67059148Y-56248337D02*
G01*
X66927778Y-56265193D01*
X66819729Y-56313366D01*
X66766521Y-56364999D01*
X66732045Y-56442186D01*
X66718978Y-56554801D01*
X66731883Y-56664716D01*
X66766241Y-56741599D01*
X66819729Y-56794403D01*
X66927915Y-56844108D01*
X67059148Y-56861447D01*
X67193738Y-56843914D01*
X67300765Y-56794403D01*
X67352955Y-56741792D01*
X67386635Y-56664941D01*
X67399317Y-56554801D01*
X67386474Y-56441954D01*
X67352679Y-56364802D01*
X67300765Y-56313366D01*
X67193882Y-56265383D01*
X67059148Y-56248337D01*
G37*
G36*
X66748287Y-57147028D02*
G01*
X66748287Y-59440286D01*
X67374221Y-59440286D01*
X67374221Y-57147028D01*
X66748287Y-57147028D01*
G37*
D14*
X63187594Y-64564727D02*
X63073308Y-64602822D01*
X63073308Y-64602822D02*
X63035213Y-64640918D01*
X63035213Y-64640918D02*
X62997117Y-64717108D01*
X62997117Y-64717108D02*
X62997117Y-64831394D01*
X62997117Y-64831394D02*
X63035213Y-64907584D01*
X63035213Y-64907584D02*
X63073308Y-64945680D01*
X63073308Y-64945680D02*
X63149498Y-64983775D01*
X63149498Y-64983775D02*
X63454260Y-64983775D01*
X63454260Y-64983775D02*
X63454260Y-64183775D01*
X63454260Y-64183775D02*
X63187594Y-64183775D01*
X63187594Y-64183775D02*
X63111403Y-64221870D01*
X63111403Y-64221870D02*
X63073308Y-64259965D01*
X63073308Y-64259965D02*
X63035213Y-64336156D01*
X63035213Y-64336156D02*
X63035213Y-64412346D01*
X63035213Y-64412346D02*
X63073308Y-64488537D01*
X63073308Y-64488537D02*
X63111403Y-64526632D01*
X63111403Y-64526632D02*
X63187594Y-64564727D01*
X63187594Y-64564727D02*
X63454260Y-64564727D01*
X62197117Y-64983775D02*
X62463784Y-64602822D01*
X62654260Y-64983775D02*
X62654260Y-64183775D01*
X62654260Y-64183775D02*
X62349498Y-64183775D01*
X62349498Y-64183775D02*
X62273308Y-64221870D01*
X62273308Y-64221870D02*
X62235213Y-64259965D01*
X62235213Y-64259965D02*
X62197117Y-64336156D01*
X62197117Y-64336156D02*
X62197117Y-64450441D01*
X62197117Y-64450441D02*
X62235213Y-64526632D01*
X62235213Y-64526632D02*
X62273308Y-64564727D01*
X62273308Y-64564727D02*
X62349498Y-64602822D01*
X62349498Y-64602822D02*
X62654260Y-64602822D01*
X61854260Y-64983775D02*
X61854260Y-64183775D01*
X61854260Y-64183775D02*
X61663784Y-64183775D01*
X61663784Y-64183775D02*
X61549498Y-64221870D01*
X61549498Y-64221870D02*
X61473308Y-64298060D01*
X61473308Y-64298060D02*
X61435213Y-64374251D01*
X61435213Y-64374251D02*
X61397117Y-64526632D01*
X61397117Y-64526632D02*
X61397117Y-64640918D01*
X61397117Y-64640918D02*
X61435213Y-64793299D01*
X61435213Y-64793299D02*
X61473308Y-64869489D01*
X61473308Y-64869489D02*
X61549498Y-64945680D01*
X61549498Y-64945680D02*
X61663784Y-64983775D01*
X61663784Y-64983775D02*
X61854260Y-64983775D01*
X60482832Y-64945680D02*
X60368546Y-64983775D01*
X60368546Y-64983775D02*
X60178070Y-64983775D01*
X60178070Y-64983775D02*
X60101879Y-64945680D01*
X60101879Y-64945680D02*
X60063784Y-64907584D01*
X60063784Y-64907584D02*
X60025689Y-64831394D01*
X60025689Y-64831394D02*
X60025689Y-64755203D01*
X60025689Y-64755203D02*
X60063784Y-64679013D01*
X60063784Y-64679013D02*
X60101879Y-64640918D01*
X60101879Y-64640918D02*
X60178070Y-64602822D01*
X60178070Y-64602822D02*
X60330451Y-64564727D01*
X60330451Y-64564727D02*
X60406641Y-64526632D01*
X60406641Y-64526632D02*
X60444736Y-64488537D01*
X60444736Y-64488537D02*
X60482832Y-64412346D01*
X60482832Y-64412346D02*
X60482832Y-64336156D01*
X60482832Y-64336156D02*
X60444736Y-64259965D01*
X60444736Y-64259965D02*
X60406641Y-64221870D01*
X60406641Y-64221870D02*
X60330451Y-64183775D01*
X60330451Y-64183775D02*
X60139974Y-64183775D01*
X60139974Y-64183775D02*
X60025689Y-64221870D01*
X59682831Y-64983775D02*
X59682831Y-64183775D01*
X59682831Y-64564727D02*
X59225688Y-64564727D01*
X59225688Y-64983775D02*
X59225688Y-64183775D01*
X58882832Y-64755203D02*
X58501879Y-64755203D01*
X58959022Y-64983775D02*
X58692355Y-64183775D01*
X58692355Y-64183775D02*
X58425689Y-64983775D01*
X58159022Y-64907584D02*
X58120927Y-64945680D01*
X58120927Y-64945680D02*
X58159022Y-64983775D01*
X58159022Y-64983775D02*
X58197118Y-64945680D01*
X58197118Y-64945680D02*
X58159022Y-64907584D01*
X58159022Y-64907584D02*
X58159022Y-64983775D01*
X58159022Y-64488537D02*
X58120927Y-64526632D01*
X58120927Y-64526632D02*
X58159022Y-64564727D01*
X58159022Y-64564727D02*
X58197118Y-64526632D01*
X58197118Y-64526632D02*
X58159022Y-64488537D01*
X58159022Y-64488537D02*
X58159022Y-64564727D01*
X57206642Y-64983775D02*
X56597118Y-64183775D01*
X57092356Y-64183775D02*
X57016165Y-64221870D01*
X57016165Y-64221870D02*
X56978070Y-64298060D01*
X56978070Y-64298060D02*
X57016165Y-64374251D01*
X57016165Y-64374251D02*
X57092356Y-64412346D01*
X57092356Y-64412346D02*
X57168546Y-64374251D01*
X57168546Y-64374251D02*
X57206642Y-64298060D01*
X57206642Y-64298060D02*
X57168546Y-64221870D01*
X57168546Y-64221870D02*
X57092356Y-64183775D01*
X56635213Y-64945680D02*
X56597118Y-64869489D01*
X56597118Y-64869489D02*
X56635213Y-64793299D01*
X56635213Y-64793299D02*
X56711403Y-64755203D01*
X56711403Y-64755203D02*
X56787594Y-64793299D01*
X56787594Y-64793299D02*
X56825689Y-64869489D01*
X56825689Y-64869489D02*
X56787594Y-64945680D01*
X56787594Y-64945680D02*
X56711403Y-64983775D01*
X56711403Y-64983775D02*
X56635213Y-64945680D01*
X56292356Y-64983775D02*
X55682832Y-64183775D01*
X56178070Y-64183775D02*
X56101879Y-64221870D01*
X56101879Y-64221870D02*
X56063784Y-64298060D01*
X56063784Y-64298060D02*
X56101879Y-64374251D01*
X56101879Y-64374251D02*
X56178070Y-64412346D01*
X56178070Y-64412346D02*
X56254260Y-64374251D01*
X56254260Y-64374251D02*
X56292356Y-64298060D01*
X56292356Y-64298060D02*
X56254260Y-64221870D01*
X56254260Y-64221870D02*
X56178070Y-64183775D01*
X55720927Y-64945680D02*
X55682832Y-64869489D01*
X55682832Y-64869489D02*
X55720927Y-64793299D01*
X55720927Y-64793299D02*
X55797117Y-64755203D01*
X55797117Y-64755203D02*
X55873308Y-64793299D01*
X55873308Y-64793299D02*
X55911403Y-64869489D01*
X55911403Y-64869489D02*
X55873308Y-64945680D01*
X55873308Y-64945680D02*
X55797117Y-64983775D01*
X55797117Y-64983775D02*
X55720927Y-64945680D01*
X55378070Y-64983775D02*
X54768546Y-64183775D01*
X55263784Y-64183775D02*
X55187593Y-64221870D01*
X55187593Y-64221870D02*
X55149498Y-64298060D01*
X55149498Y-64298060D02*
X55187593Y-64374251D01*
X55187593Y-64374251D02*
X55263784Y-64412346D01*
X55263784Y-64412346D02*
X55339974Y-64374251D01*
X55339974Y-64374251D02*
X55378070Y-64298060D01*
X55378070Y-64298060D02*
X55339974Y-64221870D01*
X55339974Y-64221870D02*
X55263784Y-64183775D01*
X54806641Y-64945680D02*
X54768546Y-64869489D01*
X54768546Y-64869489D02*
X54806641Y-64793299D01*
X54806641Y-64793299D02*
X54882831Y-64755203D01*
X54882831Y-64755203D02*
X54959022Y-64793299D01*
X54959022Y-64793299D02*
X54997117Y-64869489D01*
X54997117Y-64869489D02*
X54959022Y-64945680D01*
X54959022Y-64945680D02*
X54882831Y-64983775D01*
X54882831Y-64983775D02*
X54806641Y-64945680D01*
X54463784Y-64983775D02*
X53854260Y-64183775D01*
X54349498Y-64183775D02*
X54273307Y-64221870D01*
X54273307Y-64221870D02*
X54235212Y-64298060D01*
X54235212Y-64298060D02*
X54273307Y-64374251D01*
X54273307Y-64374251D02*
X54349498Y-64412346D01*
X54349498Y-64412346D02*
X54425688Y-64374251D01*
X54425688Y-64374251D02*
X54463784Y-64298060D01*
X54463784Y-64298060D02*
X54425688Y-64221870D01*
X54425688Y-64221870D02*
X54349498Y-64183775D01*
X53892355Y-64945680D02*
X53854260Y-64869489D01*
X53854260Y-64869489D02*
X53892355Y-64793299D01*
X53892355Y-64793299D02*
X53968545Y-64755203D01*
X53968545Y-64755203D02*
X54044736Y-64793299D01*
X54044736Y-64793299D02*
X54082831Y-64869489D01*
X54082831Y-64869489D02*
X54044736Y-64945680D01*
X54044736Y-64945680D02*
X53968545Y-64983775D01*
X53968545Y-64983775D02*
X53892355Y-64945680D01*
X53549498Y-64983775D02*
X52939974Y-64183775D01*
X53435212Y-64183775D02*
X53359021Y-64221870D01*
X53359021Y-64221870D02*
X53320926Y-64298060D01*
X53320926Y-64298060D02*
X53359021Y-64374251D01*
X53359021Y-64374251D02*
X53435212Y-64412346D01*
X53435212Y-64412346D02*
X53511402Y-64374251D01*
X53511402Y-64374251D02*
X53549498Y-64298060D01*
X53549498Y-64298060D02*
X53511402Y-64221870D01*
X53511402Y-64221870D02*
X53435212Y-64183775D01*
X52978069Y-64945680D02*
X52939974Y-64869489D01*
X52939974Y-64869489D02*
X52978069Y-64793299D01*
X52978069Y-64793299D02*
X53054259Y-64755203D01*
X53054259Y-64755203D02*
X53130450Y-64793299D01*
X53130450Y-64793299D02*
X53168545Y-64869489D01*
X53168545Y-64869489D02*
X53130450Y-64945680D01*
X53130450Y-64945680D02*
X53054259Y-64983775D01*
X53054259Y-64983775D02*
X52978069Y-64945680D01*
X52635212Y-64983775D02*
X52025688Y-64183775D01*
X52520926Y-64183775D02*
X52444735Y-64221870D01*
X52444735Y-64221870D02*
X52406640Y-64298060D01*
X52406640Y-64298060D02*
X52444735Y-64374251D01*
X52444735Y-64374251D02*
X52520926Y-64412346D01*
X52520926Y-64412346D02*
X52597116Y-64374251D01*
X52597116Y-64374251D02*
X52635212Y-64298060D01*
X52635212Y-64298060D02*
X52597116Y-64221870D01*
X52597116Y-64221870D02*
X52520926Y-64183775D01*
X52063783Y-64945680D02*
X52025688Y-64869489D01*
X52025688Y-64869489D02*
X52063783Y-64793299D01*
X52063783Y-64793299D02*
X52139973Y-64755203D01*
X52139973Y-64755203D02*
X52216164Y-64793299D01*
X52216164Y-64793299D02*
X52254259Y-64869489D01*
X52254259Y-64869489D02*
X52216164Y-64945680D01*
X52216164Y-64945680D02*
X52139973Y-64983775D01*
X52139973Y-64983775D02*
X52063783Y-64945680D01*
X51720926Y-64983775D02*
X51111402Y-64183775D01*
X51606640Y-64183775D02*
X51530449Y-64221870D01*
X51530449Y-64221870D02*
X51492354Y-64298060D01*
X51492354Y-64298060D02*
X51530449Y-64374251D01*
X51530449Y-64374251D02*
X51606640Y-64412346D01*
X51606640Y-64412346D02*
X51682830Y-64374251D01*
X51682830Y-64374251D02*
X51720926Y-64298060D01*
X51720926Y-64298060D02*
X51682830Y-64221870D01*
X51682830Y-64221870D02*
X51606640Y-64183775D01*
X51149497Y-64945680D02*
X51111402Y-64869489D01*
X51111402Y-64869489D02*
X51149497Y-64793299D01*
X51149497Y-64793299D02*
X51225687Y-64755203D01*
X51225687Y-64755203D02*
X51301878Y-64793299D01*
X51301878Y-64793299D02*
X51339973Y-64869489D01*
X51339973Y-64869489D02*
X51301878Y-64945680D01*
X51301878Y-64945680D02*
X51225687Y-64983775D01*
X51225687Y-64983775D02*
X51149497Y-64945680D01*
X50806640Y-64983775D02*
X50197116Y-64183775D01*
X50692354Y-64183775D02*
X50616163Y-64221870D01*
X50616163Y-64221870D02*
X50578068Y-64298060D01*
X50578068Y-64298060D02*
X50616163Y-64374251D01*
X50616163Y-64374251D02*
X50692354Y-64412346D01*
X50692354Y-64412346D02*
X50768544Y-64374251D01*
X50768544Y-64374251D02*
X50806640Y-64298060D01*
X50806640Y-64298060D02*
X50768544Y-64221870D01*
X50768544Y-64221870D02*
X50692354Y-64183775D01*
X50235211Y-64945680D02*
X50197116Y-64869489D01*
X50197116Y-64869489D02*
X50235211Y-64793299D01*
X50235211Y-64793299D02*
X50311401Y-64755203D01*
X50311401Y-64755203D02*
X50387592Y-64793299D01*
X50387592Y-64793299D02*
X50425687Y-64869489D01*
X50425687Y-64869489D02*
X50387592Y-64945680D01*
X50387592Y-64945680D02*
X50311401Y-64983775D01*
X50311401Y-64983775D02*
X50235211Y-64945680D01*
D12*
X63432707Y-66481695D02*
X63332707Y-65681695D01*
X63332707Y-65681695D02*
X63142231Y-65681695D01*
X63142231Y-65681695D02*
X63032707Y-65719790D01*
X63032707Y-65719790D02*
X62966041Y-65795980D01*
X62966041Y-65795980D02*
X62937469Y-65872171D01*
X62937469Y-65872171D02*
X62918422Y-66024552D01*
X62918422Y-66024552D02*
X62932707Y-66138838D01*
X62932707Y-66138838D02*
X62989850Y-66291219D01*
X62989850Y-66291219D02*
X63037469Y-66367409D01*
X63037469Y-66367409D02*
X63123183Y-66443600D01*
X63123183Y-66443600D02*
X63242231Y-66481695D01*
X63242231Y-66481695D02*
X63432707Y-66481695D01*
X62323183Y-66443600D02*
X62404136Y-66481695D01*
X62404136Y-66481695D02*
X62556517Y-66481695D01*
X62556517Y-66481695D02*
X62627945Y-66443600D01*
X62627945Y-66443600D02*
X62656517Y-66367409D01*
X62656517Y-66367409D02*
X62618422Y-66062647D01*
X62618422Y-66062647D02*
X62570802Y-65986457D01*
X62570802Y-65986457D02*
X62489850Y-65948361D01*
X62489850Y-65948361D02*
X62337469Y-65948361D01*
X62337469Y-65948361D02*
X62266041Y-65986457D01*
X62266041Y-65986457D02*
X62237469Y-66062647D01*
X62237469Y-66062647D02*
X62246993Y-66138838D01*
X62246993Y-66138838D02*
X62637469Y-66215028D01*
X61956517Y-65948361D02*
X61832708Y-66481695D01*
X61832708Y-66481695D02*
X61575565Y-65948361D01*
X61337469Y-66481695D02*
X61270803Y-65948361D01*
X61237469Y-65681695D02*
X61280326Y-65719790D01*
X61280326Y-65719790D02*
X61246993Y-65757885D01*
X61246993Y-65757885D02*
X61204136Y-65719790D01*
X61204136Y-65719790D02*
X61237469Y-65681695D01*
X61237469Y-65681695D02*
X61246993Y-65757885D01*
X60608898Y-66443600D02*
X60689851Y-66481695D01*
X60689851Y-66481695D02*
X60842232Y-66481695D01*
X60842232Y-66481695D02*
X60913660Y-66443600D01*
X60913660Y-66443600D02*
X60946993Y-66405504D01*
X60946993Y-66405504D02*
X60975565Y-66329314D01*
X60975565Y-66329314D02*
X60946993Y-66100742D01*
X60946993Y-66100742D02*
X60899374Y-66024552D01*
X60899374Y-66024552D02*
X60856517Y-65986457D01*
X60856517Y-65986457D02*
X60775565Y-65948361D01*
X60775565Y-65948361D02*
X60623184Y-65948361D01*
X60623184Y-65948361D02*
X60551755Y-65986457D01*
X59961279Y-66443600D02*
X60042232Y-66481695D01*
X60042232Y-66481695D02*
X60194613Y-66481695D01*
X60194613Y-66481695D02*
X60266041Y-66443600D01*
X60266041Y-66443600D02*
X60294613Y-66367409D01*
X60294613Y-66367409D02*
X60256518Y-66062647D01*
X60256518Y-66062647D02*
X60208898Y-65986457D01*
X60208898Y-65986457D02*
X60127946Y-65948361D01*
X60127946Y-65948361D02*
X59975565Y-65948361D01*
X59975565Y-65948361D02*
X59904137Y-65986457D01*
X59904137Y-65986457D02*
X59875565Y-66062647D01*
X59875565Y-66062647D02*
X59885089Y-66138838D01*
X59885089Y-66138838D02*
X60275565Y-66215028D01*
X58975565Y-66481695D02*
X58908899Y-65948361D01*
X58875565Y-65681695D02*
X58918422Y-65719790D01*
X58918422Y-65719790D02*
X58885089Y-65757885D01*
X58885089Y-65757885D02*
X58842232Y-65719790D01*
X58842232Y-65719790D02*
X58875565Y-65681695D01*
X58875565Y-65681695D02*
X58885089Y-65757885D01*
X58527947Y-65948361D02*
X58594613Y-66481695D01*
X58537470Y-66024552D02*
X58494613Y-65986457D01*
X58494613Y-65986457D02*
X58413661Y-65948361D01*
X58413661Y-65948361D02*
X58299375Y-65948361D01*
X58299375Y-65948361D02*
X58227947Y-65986457D01*
X58227947Y-65986457D02*
X58199375Y-66062647D01*
X58199375Y-66062647D02*
X58251756Y-66481695D01*
X57918422Y-65948361D02*
X57613660Y-65948361D01*
X57870803Y-66481695D02*
X57785089Y-65795980D01*
X57785089Y-65795980D02*
X57737470Y-65719790D01*
X57737470Y-65719790D02*
X57656518Y-65681695D01*
X57656518Y-65681695D02*
X57580327Y-65681695D01*
X57299375Y-66481695D02*
X57370803Y-66443600D01*
X57370803Y-66443600D02*
X57404136Y-66405504D01*
X57404136Y-66405504D02*
X57432708Y-66329314D01*
X57432708Y-66329314D02*
X57404136Y-66100742D01*
X57404136Y-66100742D02*
X57356517Y-66024552D01*
X57356517Y-66024552D02*
X57313660Y-65986457D01*
X57313660Y-65986457D02*
X57232708Y-65948361D01*
X57232708Y-65948361D02*
X57118422Y-65948361D01*
X57118422Y-65948361D02*
X57046994Y-65986457D01*
X57046994Y-65986457D02*
X57013660Y-66024552D01*
X57013660Y-66024552D02*
X56985089Y-66100742D01*
X56985089Y-66100742D02*
X57013660Y-66329314D01*
X57013660Y-66329314D02*
X57061279Y-66405504D01*
X57061279Y-66405504D02*
X57104136Y-66443600D01*
X57104136Y-66443600D02*
X57185089Y-66481695D01*
X57185089Y-66481695D02*
X57299375Y-66481695D01*
X56680326Y-66405504D02*
X56646993Y-66443600D01*
X56646993Y-66443600D02*
X56689850Y-66481695D01*
X56689850Y-66481695D02*
X56723184Y-66443600D01*
X56723184Y-66443600D02*
X56680326Y-66405504D01*
X56680326Y-66405504D02*
X56689850Y-66481695D01*
X56627945Y-65986457D02*
X56594612Y-66024552D01*
X56594612Y-66024552D02*
X56637469Y-66062647D01*
X56637469Y-66062647D02*
X56670803Y-66024552D01*
X56670803Y-66024552D02*
X56627945Y-65986457D01*
X56627945Y-65986457D02*
X56637469Y-66062647D01*
D11*
X61560839Y-70715057D02*
X61513220Y-70667438D01*
X61513220Y-70667438D02*
X61417982Y-70619819D01*
X61417982Y-70619819D02*
X61179887Y-70619819D01*
X61179887Y-70619819D02*
X61084649Y-70667438D01*
X61084649Y-70667438D02*
X61037030Y-70715057D01*
X61037030Y-70715057D02*
X60989411Y-70810295D01*
X60989411Y-70810295D02*
X60989411Y-70905533D01*
X60989411Y-70905533D02*
X61037030Y-71048390D01*
X61037030Y-71048390D02*
X61608458Y-71619819D01*
X61608458Y-71619819D02*
X60989411Y-71619819D01*
X60370363Y-70619819D02*
X60275125Y-70619819D01*
X60275125Y-70619819D02*
X60179887Y-70667438D01*
X60179887Y-70667438D02*
X60132268Y-70715057D01*
X60132268Y-70715057D02*
X60084649Y-70810295D01*
X60084649Y-70810295D02*
X60037030Y-71000771D01*
X60037030Y-71000771D02*
X60037030Y-71238866D01*
X60037030Y-71238866D02*
X60084649Y-71429342D01*
X60084649Y-71429342D02*
X60132268Y-71524580D01*
X60132268Y-71524580D02*
X60179887Y-71572200D01*
X60179887Y-71572200D02*
X60275125Y-71619819D01*
X60275125Y-71619819D02*
X60370363Y-71619819D01*
X60370363Y-71619819D02*
X60465601Y-71572200D01*
X60465601Y-71572200D02*
X60513220Y-71524580D01*
X60513220Y-71524580D02*
X60560839Y-71429342D01*
X60560839Y-71429342D02*
X60608458Y-71238866D01*
X60608458Y-71238866D02*
X60608458Y-71000771D01*
X60608458Y-71000771D02*
X60560839Y-70810295D01*
X60560839Y-70810295D02*
X60513220Y-70715057D01*
X60513220Y-70715057D02*
X60465601Y-70667438D01*
X60465601Y-70667438D02*
X60370363Y-70619819D01*
X59656077Y-70715057D02*
X59608458Y-70667438D01*
X59608458Y-70667438D02*
X59513220Y-70619819D01*
X59513220Y-70619819D02*
X59275125Y-70619819D01*
X59275125Y-70619819D02*
X59179887Y-70667438D01*
X59179887Y-70667438D02*
X59132268Y-70715057D01*
X59132268Y-70715057D02*
X59084649Y-70810295D01*
X59084649Y-70810295D02*
X59084649Y-70905533D01*
X59084649Y-70905533D02*
X59132268Y-71048390D01*
X59132268Y-71048390D02*
X59703696Y-71619819D01*
X59703696Y-71619819D02*
X59084649Y-71619819D01*
X58179887Y-70619819D02*
X58656077Y-70619819D01*
X58656077Y-70619819D02*
X58703696Y-71096009D01*
X58703696Y-71096009D02*
X58656077Y-71048390D01*
X58656077Y-71048390D02*
X58560839Y-71000771D01*
X58560839Y-71000771D02*
X58322744Y-71000771D01*
X58322744Y-71000771D02*
X58227506Y-71048390D01*
X58227506Y-71048390D02*
X58179887Y-71096009D01*
X58179887Y-71096009D02*
X58132268Y-71191247D01*
X58132268Y-71191247D02*
X58132268Y-71429342D01*
X58132268Y-71429342D02*
X58179887Y-71524580D01*
X58179887Y-71524580D02*
X58227506Y-71572200D01*
X58227506Y-71572200D02*
X58322744Y-71619819D01*
X58322744Y-71619819D02*
X58560839Y-71619819D01*
X58560839Y-71619819D02*
X58656077Y-71572200D01*
X58656077Y-71572200D02*
X58703696Y-71524580D01*
X57703696Y-71238866D02*
X56941792Y-71238866D01*
X56275125Y-70619819D02*
X56179887Y-70619819D01*
X56179887Y-70619819D02*
X56084649Y-70667438D01*
X56084649Y-70667438D02*
X56037030Y-70715057D01*
X56037030Y-70715057D02*
X55989411Y-70810295D01*
X55989411Y-70810295D02*
X55941792Y-71000771D01*
X55941792Y-71000771D02*
X55941792Y-71238866D01*
X55941792Y-71238866D02*
X55989411Y-71429342D01*
X55989411Y-71429342D02*
X56037030Y-71524580D01*
X56037030Y-71524580D02*
X56084649Y-71572200D01*
X56084649Y-71572200D02*
X56179887Y-71619819D01*
X56179887Y-71619819D02*
X56275125Y-71619819D01*
X56275125Y-71619819D02*
X56370363Y-71572200D01*
X56370363Y-71572200D02*
X56417982Y-71524580D01*
X56417982Y-71524580D02*
X56465601Y-71429342D01*
X56465601Y-71429342D02*
X56513220Y-71238866D01*
X56513220Y-71238866D02*
X56513220Y-71000771D01*
X56513220Y-71000771D02*
X56465601Y-70810295D01*
X56465601Y-70810295D02*
X56417982Y-70715057D01*
X56417982Y-70715057D02*
X56370363Y-70667438D01*
X56370363Y-70667438D02*
X56275125Y-70619819D01*
X55465601Y-71619819D02*
X55275125Y-71619819D01*
X55275125Y-71619819D02*
X55179887Y-71572200D01*
X55179887Y-71572200D02*
X55132268Y-71524580D01*
X55132268Y-71524580D02*
X55037030Y-71381723D01*
X55037030Y-71381723D02*
X54989411Y-71191247D01*
X54989411Y-71191247D02*
X54989411Y-70810295D01*
X54989411Y-70810295D02*
X55037030Y-70715057D01*
X55037030Y-70715057D02*
X55084649Y-70667438D01*
X55084649Y-70667438D02*
X55179887Y-70619819D01*
X55179887Y-70619819D02*
X55370363Y-70619819D01*
X55370363Y-70619819D02*
X55465601Y-70667438D01*
X55465601Y-70667438D02*
X55513220Y-70715057D01*
X55513220Y-70715057D02*
X55560839Y-70810295D01*
X55560839Y-70810295D02*
X55560839Y-71048390D01*
X55560839Y-71048390D02*
X55513220Y-71143628D01*
X55513220Y-71143628D02*
X55465601Y-71191247D01*
X55465601Y-71191247D02*
X55370363Y-71238866D01*
X55370363Y-71238866D02*
X55179887Y-71238866D01*
X55179887Y-71238866D02*
X55084649Y-71191247D01*
X55084649Y-71191247D02*
X55037030Y-71143628D01*
X55037030Y-71143628D02*
X54989411Y-71048390D01*
X54560839Y-71238866D02*
X53798935Y-71238866D01*
X53370363Y-70715057D02*
X53322744Y-70667438D01*
X53322744Y-70667438D02*
X53227506Y-70619819D01*
X53227506Y-70619819D02*
X52989411Y-70619819D01*
X52989411Y-70619819D02*
X52894173Y-70667438D01*
X52894173Y-70667438D02*
X52846554Y-70715057D01*
X52846554Y-70715057D02*
X52798935Y-70810295D01*
X52798935Y-70810295D02*
X52798935Y-70905533D01*
X52798935Y-70905533D02*
X52846554Y-71048390D01*
X52846554Y-71048390D02*
X53417982Y-71619819D01*
X53417982Y-71619819D02*
X52798935Y-71619819D01*
X51894173Y-70619819D02*
X52370363Y-70619819D01*
X52370363Y-70619819D02*
X52417982Y-71096009D01*
X52417982Y-71096009D02*
X52370363Y-71048390D01*
X52370363Y-71048390D02*
X52275125Y-71000771D01*
X52275125Y-71000771D02*
X52037030Y-71000771D01*
X52037030Y-71000771D02*
X51941792Y-71048390D01*
X51941792Y-71048390D02*
X51894173Y-71096009D01*
X51894173Y-71096009D02*
X51846554Y-71191247D01*
X51846554Y-71191247D02*
X51846554Y-71429342D01*
X51846554Y-71429342D02*
X51894173Y-71524580D01*
X51894173Y-71524580D02*
X51941792Y-71572200D01*
X51941792Y-71572200D02*
X52037030Y-71619819D01*
X52037030Y-71619819D02*
X52275125Y-71619819D01*
X52275125Y-71619819D02*
X52370363Y-71572200D01*
X52370363Y-71572200D02*
X52417982Y-71524580D01*
D15*
X77911717Y-68764619D02*
X77911717Y-69478904D01*
X77911717Y-69478904D02*
X77959336Y-69621761D01*
X77959336Y-69621761D02*
X78054574Y-69717000D01*
X78054574Y-69717000D02*
X78197431Y-69764619D01*
X78197431Y-69764619D02*
X78292669Y-69764619D01*
X76959336Y-69764619D02*
X77435526Y-69764619D01*
X77435526Y-69764619D02*
X77435526Y-68764619D01*
X76054574Y-69669380D02*
X76102193Y-69717000D01*
X76102193Y-69717000D02*
X76245050Y-69764619D01*
X76245050Y-69764619D02*
X76340288Y-69764619D01*
X76340288Y-69764619D02*
X76483145Y-69717000D01*
X76483145Y-69717000D02*
X76578383Y-69621761D01*
X76578383Y-69621761D02*
X76626002Y-69526523D01*
X76626002Y-69526523D02*
X76673621Y-69336047D01*
X76673621Y-69336047D02*
X76673621Y-69193190D01*
X76673621Y-69193190D02*
X76626002Y-69002714D01*
X76626002Y-69002714D02*
X76578383Y-68907476D01*
X76578383Y-68907476D02*
X76483145Y-68812238D01*
X76483145Y-68812238D02*
X76340288Y-68764619D01*
X76340288Y-68764619D02*
X76245050Y-68764619D01*
X76245050Y-68764619D02*
X76102193Y-68812238D01*
X76102193Y-68812238D02*
X76054574Y-68859857D01*
X75340288Y-68764619D02*
X75340288Y-69478904D01*
X75340288Y-69478904D02*
X75387907Y-69621761D01*
X75387907Y-69621761D02*
X75483145Y-69717000D01*
X75483145Y-69717000D02*
X75626002Y-69764619D01*
X75626002Y-69764619D02*
X75721240Y-69764619D01*
X74387907Y-69764619D02*
X74864097Y-69764619D01*
X74864097Y-69764619D02*
X74864097Y-68764619D01*
X73483145Y-69669380D02*
X73530764Y-69717000D01*
X73530764Y-69717000D02*
X73673621Y-69764619D01*
X73673621Y-69764619D02*
X73768859Y-69764619D01*
X73768859Y-69764619D02*
X73911716Y-69717000D01*
X73911716Y-69717000D02*
X74006954Y-69621761D01*
X74006954Y-69621761D02*
X74054573Y-69526523D01*
X74054573Y-69526523D02*
X74102192Y-69336047D01*
X74102192Y-69336047D02*
X74102192Y-69193190D01*
X74102192Y-69193190D02*
X74054573Y-69002714D01*
X74054573Y-69002714D02*
X74006954Y-68907476D01*
X74006954Y-68907476D02*
X73911716Y-68812238D01*
X73911716Y-68812238D02*
X73768859Y-68764619D01*
X73768859Y-68764619D02*
X73673621Y-68764619D01*
X73673621Y-68764619D02*
X73530764Y-68812238D01*
X73530764Y-68812238D02*
X73483145Y-68859857D01*
X72768859Y-68764619D02*
X72768859Y-69478904D01*
X72768859Y-69478904D02*
X72816478Y-69621761D01*
X72816478Y-69621761D02*
X72911716Y-69717000D01*
X72911716Y-69717000D02*
X73054573Y-69764619D01*
X73054573Y-69764619D02*
X73149811Y-69764619D01*
X71816478Y-69764619D02*
X72292668Y-69764619D01*
X72292668Y-69764619D02*
X72292668Y-68764619D01*
X70911716Y-69669380D02*
X70959335Y-69717000D01*
X70959335Y-69717000D02*
X71102192Y-69764619D01*
X71102192Y-69764619D02*
X71197430Y-69764619D01*
X71197430Y-69764619D02*
X71340287Y-69717000D01*
X71340287Y-69717000D02*
X71435525Y-69621761D01*
X71435525Y-69621761D02*
X71483144Y-69526523D01*
X71483144Y-69526523D02*
X71530763Y-69336047D01*
X71530763Y-69336047D02*
X71530763Y-69193190D01*
X71530763Y-69193190D02*
X71483144Y-69002714D01*
X71483144Y-69002714D02*
X71435525Y-68907476D01*
X71435525Y-68907476D02*
X71340287Y-68812238D01*
X71340287Y-68812238D02*
X71197430Y-68764619D01*
X71197430Y-68764619D02*
X71102192Y-68764619D01*
X71102192Y-68764619D02*
X70959335Y-68812238D01*
X70959335Y-68812238D02*
X70911716Y-68859857D01*
X70197430Y-68764619D02*
X70197430Y-69478904D01*
X70197430Y-69478904D02*
X70245049Y-69621761D01*
X70245049Y-69621761D02*
X70340287Y-69717000D01*
X70340287Y-69717000D02*
X70483144Y-69764619D01*
X70483144Y-69764619D02*
X70578382Y-69764619D01*
X69245049Y-69764619D02*
X69721239Y-69764619D01*
X69721239Y-69764619D02*
X69721239Y-68764619D01*
X68340287Y-69669380D02*
X68387906Y-69717000D01*
X68387906Y-69717000D02*
X68530763Y-69764619D01*
X68530763Y-69764619D02*
X68626001Y-69764619D01*
X68626001Y-69764619D02*
X68768858Y-69717000D01*
X68768858Y-69717000D02*
X68864096Y-69621761D01*
X68864096Y-69621761D02*
X68911715Y-69526523D01*
X68911715Y-69526523D02*
X68959334Y-69336047D01*
X68959334Y-69336047D02*
X68959334Y-69193190D01*
X68959334Y-69193190D02*
X68911715Y-69002714D01*
X68911715Y-69002714D02*
X68864096Y-68907476D01*
X68864096Y-68907476D02*
X68768858Y-68812238D01*
X68768858Y-68812238D02*
X68626001Y-68764619D01*
X68626001Y-68764619D02*
X68530763Y-68764619D01*
X68530763Y-68764619D02*
X68387906Y-68812238D01*
X68387906Y-68812238D02*
X68340287Y-68859857D01*
D12*
X63332707Y-62081695D02*
X63232707Y-61281695D01*
X63232707Y-61281695D02*
X62927945Y-61281695D01*
X62927945Y-61281695D02*
X62856517Y-61319790D01*
X62856517Y-61319790D02*
X62823183Y-61357885D01*
X62823183Y-61357885D02*
X62794612Y-61434076D01*
X62794612Y-61434076D02*
X62808898Y-61548361D01*
X62808898Y-61548361D02*
X62856517Y-61624552D01*
X62856517Y-61624552D02*
X62899374Y-61662647D01*
X62899374Y-61662647D02*
X62980326Y-61700742D01*
X62980326Y-61700742D02*
X63285088Y-61700742D01*
X62532707Y-62081695D02*
X62466041Y-61548361D01*
X62485088Y-61700742D02*
X62437469Y-61624552D01*
X62437469Y-61624552D02*
X62394612Y-61586457D01*
X62394612Y-61586457D02*
X62313660Y-61548361D01*
X62313660Y-61548361D02*
X62237469Y-61548361D01*
X61923184Y-62081695D02*
X61994612Y-62043600D01*
X61994612Y-62043600D02*
X62027945Y-62005504D01*
X62027945Y-62005504D02*
X62056517Y-61929314D01*
X62056517Y-61929314D02*
X62027945Y-61700742D01*
X62027945Y-61700742D02*
X61980326Y-61624552D01*
X61980326Y-61624552D02*
X61937469Y-61586457D01*
X61937469Y-61586457D02*
X61856517Y-61548361D01*
X61856517Y-61548361D02*
X61742231Y-61548361D01*
X61742231Y-61548361D02*
X61670803Y-61586457D01*
X61670803Y-61586457D02*
X61637469Y-61624552D01*
X61637469Y-61624552D02*
X61608898Y-61700742D01*
X61608898Y-61700742D02*
X61637469Y-61929314D01*
X61637469Y-61929314D02*
X61685088Y-62005504D01*
X61685088Y-62005504D02*
X61727945Y-62043600D01*
X61727945Y-62043600D02*
X61808898Y-62081695D01*
X61808898Y-62081695D02*
X61923184Y-62081695D01*
X61246993Y-61548361D02*
X61332707Y-62234076D01*
X61332707Y-62234076D02*
X61380326Y-62310266D01*
X61380326Y-62310266D02*
X61461278Y-62348361D01*
X61461278Y-62348361D02*
X61499374Y-62348361D01*
X61213659Y-61281695D02*
X61256516Y-61319790D01*
X61256516Y-61319790D02*
X61223183Y-61357885D01*
X61223183Y-61357885D02*
X61180326Y-61319790D01*
X61180326Y-61319790D02*
X61213659Y-61281695D01*
X61213659Y-61281695D02*
X61223183Y-61357885D01*
X60623183Y-62043600D02*
X60704136Y-62081695D01*
X60704136Y-62081695D02*
X60856517Y-62081695D01*
X60856517Y-62081695D02*
X60927945Y-62043600D01*
X60927945Y-62043600D02*
X60956517Y-61967409D01*
X60956517Y-61967409D02*
X60918422Y-61662647D01*
X60918422Y-61662647D02*
X60870802Y-61586457D01*
X60870802Y-61586457D02*
X60789850Y-61548361D01*
X60789850Y-61548361D02*
X60637469Y-61548361D01*
X60637469Y-61548361D02*
X60566041Y-61586457D01*
X60566041Y-61586457D02*
X60537469Y-61662647D01*
X60537469Y-61662647D02*
X60546993Y-61738838D01*
X60546993Y-61738838D02*
X60937469Y-61815028D01*
X59899374Y-62043600D02*
X59980327Y-62081695D01*
X59980327Y-62081695D02*
X60132708Y-62081695D01*
X60132708Y-62081695D02*
X60204136Y-62043600D01*
X60204136Y-62043600D02*
X60237469Y-62005504D01*
X60237469Y-62005504D02*
X60266041Y-61929314D01*
X60266041Y-61929314D02*
X60237469Y-61700742D01*
X60237469Y-61700742D02*
X60189850Y-61624552D01*
X60189850Y-61624552D02*
X60146993Y-61586457D01*
X60146993Y-61586457D02*
X60066041Y-61548361D01*
X60066041Y-61548361D02*
X59913660Y-61548361D01*
X59913660Y-61548361D02*
X59842231Y-61586457D01*
X59608898Y-61548361D02*
X59304136Y-61548361D01*
X59461279Y-61281695D02*
X59546994Y-61967409D01*
X59546994Y-61967409D02*
X59518422Y-62043600D01*
X59518422Y-62043600D02*
X59446994Y-62081695D01*
X59446994Y-62081695D02*
X59370803Y-62081695D01*
X58494612Y-62081695D02*
X58427946Y-61548361D01*
X58394612Y-61281695D02*
X58437469Y-61319790D01*
X58437469Y-61319790D02*
X58404136Y-61357885D01*
X58404136Y-61357885D02*
X58361279Y-61319790D01*
X58361279Y-61319790D02*
X58394612Y-61281695D01*
X58394612Y-61281695D02*
X58404136Y-61357885D01*
X58046994Y-61548361D02*
X58113660Y-62081695D01*
X58056517Y-61624552D02*
X58013660Y-61586457D01*
X58013660Y-61586457D02*
X57932708Y-61548361D01*
X57932708Y-61548361D02*
X57818422Y-61548361D01*
X57818422Y-61548361D02*
X57746994Y-61586457D01*
X57746994Y-61586457D02*
X57718422Y-61662647D01*
X57718422Y-61662647D02*
X57770803Y-62081695D01*
X57437469Y-61548361D02*
X57132707Y-61548361D01*
X57389850Y-62081695D02*
X57304136Y-61395980D01*
X57304136Y-61395980D02*
X57256517Y-61319790D01*
X57256517Y-61319790D02*
X57175565Y-61281695D01*
X57175565Y-61281695D02*
X57099374Y-61281695D01*
X56818422Y-62081695D02*
X56889850Y-62043600D01*
X56889850Y-62043600D02*
X56923183Y-62005504D01*
X56923183Y-62005504D02*
X56951755Y-61929314D01*
X56951755Y-61929314D02*
X56923183Y-61700742D01*
X56923183Y-61700742D02*
X56875564Y-61624552D01*
X56875564Y-61624552D02*
X56832707Y-61586457D01*
X56832707Y-61586457D02*
X56751755Y-61548361D01*
X56751755Y-61548361D02*
X56637469Y-61548361D01*
X56637469Y-61548361D02*
X56566041Y-61586457D01*
X56566041Y-61586457D02*
X56532707Y-61624552D01*
X56532707Y-61624552D02*
X56504136Y-61700742D01*
X56504136Y-61700742D02*
X56532707Y-61929314D01*
X56532707Y-61929314D02*
X56580326Y-62005504D01*
X56580326Y-62005504D02*
X56623183Y-62043600D01*
X56623183Y-62043600D02*
X56704136Y-62081695D01*
X56704136Y-62081695D02*
X56818422Y-62081695D01*
X56199373Y-62005504D02*
X56166040Y-62043600D01*
X56166040Y-62043600D02*
X56208897Y-62081695D01*
X56208897Y-62081695D02*
X56242231Y-62043600D01*
X56242231Y-62043600D02*
X56199373Y-62005504D01*
X56199373Y-62005504D02*
X56208897Y-62081695D01*
X56146992Y-61586457D02*
X56113659Y-61624552D01*
X56113659Y-61624552D02*
X56156516Y-61662647D01*
X56156516Y-61662647D02*
X56189850Y-61624552D01*
X56189850Y-61624552D02*
X56146992Y-61586457D01*
X56146992Y-61586457D02*
X56156516Y-61662647D01*
X78552380Y-66157275D02*
X78552380Y-65157275D01*
X78552380Y-65157275D02*
X78219047Y-65871560D01*
X78219047Y-65871560D02*
X77885714Y-65157275D01*
X77885714Y-65157275D02*
X77885714Y-66157275D01*
X77457142Y-65871560D02*
X76980952Y-65871560D01*
X77552380Y-66157275D02*
X77219047Y-65157275D01*
X77219047Y-65157275D02*
X76885714Y-66157275D01*
X76552380Y-66157275D02*
X76552380Y-65157275D01*
X76552380Y-65157275D02*
X76314285Y-65157275D01*
X76314285Y-65157275D02*
X76171428Y-65204894D01*
X76171428Y-65204894D02*
X76076190Y-65300132D01*
X76076190Y-65300132D02*
X76028571Y-65395370D01*
X76028571Y-65395370D02*
X75980952Y-65585846D01*
X75980952Y-65585846D02*
X75980952Y-65728703D01*
X75980952Y-65728703D02*
X76028571Y-65919179D01*
X76028571Y-65919179D02*
X76076190Y-66014417D01*
X76076190Y-66014417D02*
X76171428Y-66109656D01*
X76171428Y-66109656D02*
X76314285Y-66157275D01*
X76314285Y-66157275D02*
X76552380Y-66157275D01*
X75552380Y-65633465D02*
X75219047Y-65633465D01*
X75076190Y-66157275D02*
X75552380Y-66157275D01*
X75552380Y-66157275D02*
X75552380Y-65157275D01*
X75552380Y-65157275D02*
X75076190Y-65157275D01*
X73885713Y-66157275D02*
X73885713Y-65157275D01*
X73409523Y-66157275D02*
X73409523Y-65157275D01*
X73409523Y-65157275D02*
X72838095Y-66157275D01*
X72838095Y-66157275D02*
X72838095Y-65157275D01*
X71028571Y-66062036D02*
X71076190Y-66109656D01*
X71076190Y-66109656D02*
X71219047Y-66157275D01*
X71219047Y-66157275D02*
X71314285Y-66157275D01*
X71314285Y-66157275D02*
X71457142Y-66109656D01*
X71457142Y-66109656D02*
X71552380Y-66014417D01*
X71552380Y-66014417D02*
X71599999Y-65919179D01*
X71599999Y-65919179D02*
X71647618Y-65728703D01*
X71647618Y-65728703D02*
X71647618Y-65585846D01*
X71647618Y-65585846D02*
X71599999Y-65395370D01*
X71599999Y-65395370D02*
X71552380Y-65300132D01*
X71552380Y-65300132D02*
X71457142Y-65204894D01*
X71457142Y-65204894D02*
X71314285Y-65157275D01*
X71314285Y-65157275D02*
X71219047Y-65157275D01*
X71219047Y-65157275D02*
X71076190Y-65204894D01*
X71076190Y-65204894D02*
X71028571Y-65252513D01*
X70599999Y-66157275D02*
X70599999Y-65157275D01*
X70599999Y-65633465D02*
X70028571Y-65633465D01*
X70028571Y-66157275D02*
X70028571Y-65157275D01*
X69552380Y-66157275D02*
X69552380Y-65157275D01*
X69076190Y-66157275D02*
X69076190Y-65157275D01*
X69076190Y-65157275D02*
X68504762Y-66157275D01*
X68504762Y-66157275D02*
X68504762Y-65157275D01*
X68076190Y-65871560D02*
X67600000Y-65871560D01*
X68171428Y-66157275D02*
X67838095Y-65157275D01*
X67838095Y-65157275D02*
X67504762Y-66157275D01*
X76623809Y-67243409D02*
X76480952Y-67291028D01*
X76480952Y-67291028D02*
X76433333Y-67338647D01*
X76433333Y-67338647D02*
X76385714Y-67433885D01*
X76385714Y-67433885D02*
X76385714Y-67576742D01*
X76385714Y-67576742D02*
X76433333Y-67671980D01*
X76433333Y-67671980D02*
X76480952Y-67719600D01*
X76480952Y-67719600D02*
X76576190Y-67767219D01*
X76576190Y-67767219D02*
X76957142Y-67767219D01*
X76957142Y-67767219D02*
X76957142Y-66767219D01*
X76957142Y-66767219D02*
X76623809Y-66767219D01*
X76623809Y-66767219D02*
X76528571Y-66814838D01*
X76528571Y-66814838D02*
X76480952Y-66862457D01*
X76480952Y-66862457D02*
X76433333Y-66957695D01*
X76433333Y-66957695D02*
X76433333Y-67052933D01*
X76433333Y-67052933D02*
X76480952Y-67148171D01*
X76480952Y-67148171D02*
X76528571Y-67195790D01*
X76528571Y-67195790D02*
X76623809Y-67243409D01*
X76623809Y-67243409D02*
X76957142Y-67243409D01*
X75766666Y-67291028D02*
X75766666Y-67767219D01*
X76099999Y-66767219D02*
X75766666Y-67291028D01*
X75766666Y-67291028D02*
X75433333Y-66767219D01*
X74052380Y-66767219D02*
X74052380Y-67481504D01*
X74052380Y-67481504D02*
X74099999Y-67624361D01*
X74099999Y-67624361D02*
X74195237Y-67719600D01*
X74195237Y-67719600D02*
X74338094Y-67767219D01*
X74338094Y-67767219D02*
X74433332Y-67767219D01*
X73099999Y-67767219D02*
X73576189Y-67767219D01*
X73576189Y-67767219D02*
X73576189Y-66767219D01*
X72195237Y-67671980D02*
X72242856Y-67719600D01*
X72242856Y-67719600D02*
X72385713Y-67767219D01*
X72385713Y-67767219D02*
X72480951Y-67767219D01*
X72480951Y-67767219D02*
X72623808Y-67719600D01*
X72623808Y-67719600D02*
X72719046Y-67624361D01*
X72719046Y-67624361D02*
X72766665Y-67529123D01*
X72766665Y-67529123D02*
X72814284Y-67338647D01*
X72814284Y-67338647D02*
X72814284Y-67195790D01*
X72814284Y-67195790D02*
X72766665Y-67005314D01*
X72766665Y-67005314D02*
X72719046Y-66910076D01*
X72719046Y-66910076D02*
X72623808Y-66814838D01*
X72623808Y-66814838D02*
X72480951Y-66767219D01*
X72480951Y-66767219D02*
X72385713Y-66767219D01*
X72385713Y-66767219D02*
X72242856Y-66814838D01*
X72242856Y-66814838D02*
X72195237Y-66862457D01*
X71766665Y-67767219D02*
X71766665Y-66767219D01*
X71766665Y-66767219D02*
X71385713Y-66767219D01*
X71385713Y-66767219D02*
X71290475Y-66814838D01*
X71290475Y-66814838D02*
X71242856Y-66862457D01*
X71242856Y-66862457D02*
X71195237Y-66957695D01*
X71195237Y-66957695D02*
X71195237Y-67100552D01*
X71195237Y-67100552D02*
X71242856Y-67195790D01*
X71242856Y-67195790D02*
X71290475Y-67243409D01*
X71290475Y-67243409D02*
X71385713Y-67291028D01*
X71385713Y-67291028D02*
X71766665Y-67291028D01*
X70195237Y-67671980D02*
X70242856Y-67719600D01*
X70242856Y-67719600D02*
X70385713Y-67767219D01*
X70385713Y-67767219D02*
X70480951Y-67767219D01*
X70480951Y-67767219D02*
X70623808Y-67719600D01*
X70623808Y-67719600D02*
X70719046Y-67624361D01*
X70719046Y-67624361D02*
X70766665Y-67529123D01*
X70766665Y-67529123D02*
X70814284Y-67338647D01*
X70814284Y-67338647D02*
X70814284Y-67195790D01*
X70814284Y-67195790D02*
X70766665Y-67005314D01*
X70766665Y-67005314D02*
X70719046Y-66910076D01*
X70719046Y-66910076D02*
X70623808Y-66814838D01*
X70623808Y-66814838D02*
X70480951Y-66767219D01*
X70480951Y-66767219D02*
X70385713Y-66767219D01*
X70385713Y-66767219D02*
X70242856Y-66814838D01*
X70242856Y-66814838D02*
X70195237Y-66862457D01*
X69433332Y-67243409D02*
X69290475Y-67291028D01*
X69290475Y-67291028D02*
X69242856Y-67338647D01*
X69242856Y-67338647D02*
X69195237Y-67433885D01*
X69195237Y-67433885D02*
X69195237Y-67576742D01*
X69195237Y-67576742D02*
X69242856Y-67671980D01*
X69242856Y-67671980D02*
X69290475Y-67719600D01*
X69290475Y-67719600D02*
X69385713Y-67767219D01*
X69385713Y-67767219D02*
X69766665Y-67767219D01*
X69766665Y-67767219D02*
X69766665Y-66767219D01*
X69766665Y-66767219D02*
X69433332Y-66767219D01*
X69433332Y-66767219D02*
X69338094Y-66814838D01*
X69338094Y-66814838D02*
X69290475Y-66862457D01*
X69290475Y-66862457D02*
X69242856Y-66957695D01*
X69242856Y-66957695D02*
X69242856Y-67052933D01*
X69242856Y-67052933D02*
X69290475Y-67148171D01*
X69290475Y-67148171D02*
X69338094Y-67195790D01*
X69338094Y-67195790D02*
X69433332Y-67243409D01*
X69433332Y-67243409D02*
X69766665Y-67243409D01*
D10*
X70101658Y-62058918D02*
X70101658Y-61458918D01*
X70101658Y-61458918D02*
X69958801Y-61458918D01*
X69958801Y-61458918D02*
X69873087Y-61487489D01*
X69873087Y-61487489D02*
X69815944Y-61544632D01*
X69815944Y-61544632D02*
X69787373Y-61601775D01*
X69787373Y-61601775D02*
X69758801Y-61716061D01*
X69758801Y-61716061D02*
X69758801Y-61801775D01*
X69758801Y-61801775D02*
X69787373Y-61916061D01*
X69787373Y-61916061D02*
X69815944Y-61973204D01*
X69815944Y-61973204D02*
X69873087Y-62030347D01*
X69873087Y-62030347D02*
X69958801Y-62058918D01*
X69958801Y-62058918D02*
X70101658Y-62058918D01*
X69501658Y-61744632D02*
X69301658Y-61744632D01*
X69215944Y-62058918D02*
X69501658Y-62058918D01*
X69501658Y-62058918D02*
X69501658Y-61458918D01*
X69501658Y-61458918D02*
X69215944Y-61458918D01*
X68987373Y-62030347D02*
X68901659Y-62058918D01*
X68901659Y-62058918D02*
X68758801Y-62058918D01*
X68758801Y-62058918D02*
X68701659Y-62030347D01*
X68701659Y-62030347D02*
X68673087Y-62001775D01*
X68673087Y-62001775D02*
X68644516Y-61944632D01*
X68644516Y-61944632D02*
X68644516Y-61887489D01*
X68644516Y-61887489D02*
X68673087Y-61830347D01*
X68673087Y-61830347D02*
X68701659Y-61801775D01*
X68701659Y-61801775D02*
X68758801Y-61773204D01*
X68758801Y-61773204D02*
X68873087Y-61744632D01*
X68873087Y-61744632D02*
X68930230Y-61716061D01*
X68930230Y-61716061D02*
X68958801Y-61687489D01*
X68958801Y-61687489D02*
X68987373Y-61630347D01*
X68987373Y-61630347D02*
X68987373Y-61573204D01*
X68987373Y-61573204D02*
X68958801Y-61516061D01*
X68958801Y-61516061D02*
X68930230Y-61487489D01*
X68930230Y-61487489D02*
X68873087Y-61458918D01*
X68873087Y-61458918D02*
X68730230Y-61458918D01*
X68730230Y-61458918D02*
X68644516Y-61487489D01*
X68387372Y-62058918D02*
X68387372Y-61458918D01*
X67787373Y-61487489D02*
X67844516Y-61458918D01*
X67844516Y-61458918D02*
X67930230Y-61458918D01*
X67930230Y-61458918D02*
X68015944Y-61487489D01*
X68015944Y-61487489D02*
X68073087Y-61544632D01*
X68073087Y-61544632D02*
X68101658Y-61601775D01*
X68101658Y-61601775D02*
X68130230Y-61716061D01*
X68130230Y-61716061D02*
X68130230Y-61801775D01*
X68130230Y-61801775D02*
X68101658Y-61916061D01*
X68101658Y-61916061D02*
X68073087Y-61973204D01*
X68073087Y-61973204D02*
X68015944Y-62030347D01*
X68015944Y-62030347D02*
X67930230Y-62058918D01*
X67930230Y-62058918D02*
X67873087Y-62058918D01*
X67873087Y-62058918D02*
X67787373Y-62030347D01*
X67787373Y-62030347D02*
X67758801Y-62001775D01*
X67758801Y-62001775D02*
X67758801Y-61801775D01*
X67758801Y-61801775D02*
X67873087Y-61801775D01*
X67501658Y-62058918D02*
X67501658Y-61458918D01*
X67501658Y-61458918D02*
X67158801Y-62058918D01*
X67158801Y-62058918D02*
X67158801Y-61458918D01*
X66873087Y-61744632D02*
X66673087Y-61744632D01*
X66587373Y-62058918D02*
X66873087Y-62058918D01*
X66873087Y-62058918D02*
X66873087Y-61458918D01*
X66873087Y-61458918D02*
X66587373Y-61458918D01*
X66330230Y-62058918D02*
X66330230Y-61458918D01*
X66330230Y-61458918D02*
X66187373Y-61458918D01*
X66187373Y-61458918D02*
X66101659Y-61487489D01*
X66101659Y-61487489D02*
X66044516Y-61544632D01*
X66044516Y-61544632D02*
X66015945Y-61601775D01*
X66015945Y-61601775D02*
X65987373Y-61716061D01*
X65987373Y-61716061D02*
X65987373Y-61801775D01*
X65987373Y-61801775D02*
X66015945Y-61916061D01*
X66015945Y-61916061D02*
X66044516Y-61973204D01*
X66044516Y-61973204D02*
X66101659Y-62030347D01*
X66101659Y-62030347D02*
X66187373Y-62058918D01*
X66187373Y-62058918D02*
X66330230Y-62058918D01*
X70101658Y-63024884D02*
X70101658Y-62424884D01*
X69815944Y-63024884D02*
X69815944Y-62424884D01*
X69815944Y-62424884D02*
X69473087Y-63024884D01*
X69473087Y-63024884D02*
X69473087Y-62424884D01*
X68730230Y-63024884D02*
X68730230Y-62424884D01*
X68730230Y-62424884D02*
X68501659Y-62424884D01*
X68501659Y-62424884D02*
X68444516Y-62453455D01*
X68444516Y-62453455D02*
X68415945Y-62482027D01*
X68415945Y-62482027D02*
X68387373Y-62539170D01*
X68387373Y-62539170D02*
X68387373Y-62624884D01*
X68387373Y-62624884D02*
X68415945Y-62682027D01*
X68415945Y-62682027D02*
X68444516Y-62710598D01*
X68444516Y-62710598D02*
X68501659Y-62739170D01*
X68501659Y-62739170D02*
X68730230Y-62739170D01*
X68015945Y-62424884D02*
X67901659Y-62424884D01*
X67901659Y-62424884D02*
X67844516Y-62453455D01*
X67844516Y-62453455D02*
X67787373Y-62510598D01*
X67787373Y-62510598D02*
X67758802Y-62624884D01*
X67758802Y-62624884D02*
X67758802Y-62824884D01*
X67758802Y-62824884D02*
X67787373Y-62939170D01*
X67787373Y-62939170D02*
X67844516Y-62996313D01*
X67844516Y-62996313D02*
X67901659Y-63024884D01*
X67901659Y-63024884D02*
X68015945Y-63024884D01*
X68015945Y-63024884D02*
X68073088Y-62996313D01*
X68073088Y-62996313D02*
X68130230Y-62939170D01*
X68130230Y-62939170D02*
X68158802Y-62824884D01*
X68158802Y-62824884D02*
X68158802Y-62624884D01*
X68158802Y-62624884D02*
X68130230Y-62510598D01*
X68130230Y-62510598D02*
X68073088Y-62453455D01*
X68073088Y-62453455D02*
X68015945Y-62424884D01*
X67215945Y-63024884D02*
X67501659Y-63024884D01*
X67501659Y-63024884D02*
X67501659Y-62424884D01*
X67044517Y-62853455D02*
X66758803Y-62853455D01*
X67101660Y-63024884D02*
X66901660Y-62424884D01*
X66901660Y-62424884D02*
X66701660Y-63024884D01*
X66501659Y-63024884D02*
X66501659Y-62424884D01*
X66501659Y-62424884D02*
X66158802Y-63024884D01*
X66158802Y-63024884D02*
X66158802Y-62424884D01*
X65873088Y-63024884D02*
X65873088Y-62424884D01*
X65873088Y-62424884D02*
X65730231Y-62424884D01*
X65730231Y-62424884D02*
X65644517Y-62453455D01*
X65644517Y-62453455D02*
X65587374Y-62510598D01*
X65587374Y-62510598D02*
X65558803Y-62567741D01*
X65558803Y-62567741D02*
X65530231Y-62682027D01*
X65530231Y-62682027D02*
X65530231Y-62767741D01*
X65530231Y-62767741D02*
X65558803Y-62882027D01*
X65558803Y-62882027D02*
X65587374Y-62939170D01*
X65587374Y-62939170D02*
X65644517Y-62996313D01*
X65644517Y-62996313D02*
X65730231Y-63024884D01*
X65730231Y-63024884D02*
X65873088Y-63024884D01*
D11*
X63408458Y-58396340D02*
X63256077Y-58396340D01*
X63256077Y-58396340D02*
X63179887Y-58434435D01*
X63179887Y-58434435D02*
X63103696Y-58510625D01*
X63103696Y-58510625D02*
X63065601Y-58663006D01*
X63065601Y-58663006D02*
X63065601Y-58929673D01*
X63065601Y-58929673D02*
X63103696Y-59082054D01*
X63103696Y-59082054D02*
X63179887Y-59158245D01*
X63179887Y-59158245D02*
X63256077Y-59196340D01*
X63256077Y-59196340D02*
X63408458Y-59196340D01*
X63408458Y-59196340D02*
X63484649Y-59158245D01*
X63484649Y-59158245D02*
X63560839Y-59082054D01*
X63560839Y-59082054D02*
X63598935Y-58929673D01*
X63598935Y-58929673D02*
X63598935Y-58663006D01*
X63598935Y-58663006D02*
X63560839Y-58510625D01*
X63560839Y-58510625D02*
X63484649Y-58434435D01*
X63484649Y-58434435D02*
X63408458Y-58396340D01*
X62722744Y-59196340D02*
X62722744Y-58663006D01*
X62722744Y-58815387D02*
X62684649Y-58739197D01*
X62684649Y-58739197D02*
X62646554Y-58701102D01*
X62646554Y-58701102D02*
X62570363Y-58663006D01*
X62570363Y-58663006D02*
X62494173Y-58663006D01*
X61884649Y-59196340D02*
X61884649Y-58777292D01*
X61884649Y-58777292D02*
X61922744Y-58701102D01*
X61922744Y-58701102D02*
X61998935Y-58663006D01*
X61998935Y-58663006D02*
X62151316Y-58663006D01*
X62151316Y-58663006D02*
X62227506Y-58701102D01*
X61884649Y-59158245D02*
X61960840Y-59196340D01*
X61960840Y-59196340D02*
X62151316Y-59196340D01*
X62151316Y-59196340D02*
X62227506Y-59158245D01*
X62227506Y-59158245D02*
X62265602Y-59082054D01*
X62265602Y-59082054D02*
X62265602Y-59005864D01*
X62265602Y-59005864D02*
X62227506Y-58929673D01*
X62227506Y-58929673D02*
X62151316Y-58891578D01*
X62151316Y-58891578D02*
X61960840Y-58891578D01*
X61960840Y-58891578D02*
X61884649Y-58853483D01*
X61503696Y-58663006D02*
X61503696Y-59196340D01*
X61503696Y-58739197D02*
X61465601Y-58701102D01*
X61465601Y-58701102D02*
X61389411Y-58663006D01*
X61389411Y-58663006D02*
X61275125Y-58663006D01*
X61275125Y-58663006D02*
X61198934Y-58701102D01*
X61198934Y-58701102D02*
X61160839Y-58777292D01*
X61160839Y-58777292D02*
X61160839Y-59196340D01*
X60437029Y-58663006D02*
X60437029Y-59310625D01*
X60437029Y-59310625D02*
X60475124Y-59386816D01*
X60475124Y-59386816D02*
X60513220Y-59424911D01*
X60513220Y-59424911D02*
X60589410Y-59463006D01*
X60589410Y-59463006D02*
X60703696Y-59463006D01*
X60703696Y-59463006D02*
X60779886Y-59424911D01*
X60437029Y-59158245D02*
X60513220Y-59196340D01*
X60513220Y-59196340D02*
X60665601Y-59196340D01*
X60665601Y-59196340D02*
X60741791Y-59158245D01*
X60741791Y-59158245D02*
X60779886Y-59120149D01*
X60779886Y-59120149D02*
X60817982Y-59043959D01*
X60817982Y-59043959D02*
X60817982Y-58815387D01*
X60817982Y-58815387D02*
X60779886Y-58739197D01*
X60779886Y-58739197D02*
X60741791Y-58701102D01*
X60741791Y-58701102D02*
X60665601Y-58663006D01*
X60665601Y-58663006D02*
X60513220Y-58663006D01*
X60513220Y-58663006D02*
X60437029Y-58701102D01*
X59751314Y-59158245D02*
X59827505Y-59196340D01*
X59827505Y-59196340D02*
X59979886Y-59196340D01*
X59979886Y-59196340D02*
X60056076Y-59158245D01*
X60056076Y-59158245D02*
X60094172Y-59082054D01*
X60094172Y-59082054D02*
X60094172Y-58777292D01*
X60094172Y-58777292D02*
X60056076Y-58701102D01*
X60056076Y-58701102D02*
X59979886Y-58663006D01*
X59979886Y-58663006D02*
X59827505Y-58663006D01*
X59827505Y-58663006D02*
X59751314Y-58701102D01*
X59751314Y-58701102D02*
X59713219Y-58777292D01*
X59713219Y-58777292D02*
X59713219Y-58853483D01*
X59713219Y-58853483D02*
X60094172Y-58929673D01*
X59370362Y-59196340D02*
X59370362Y-58396340D01*
X59370362Y-58396340D02*
X59065600Y-58396340D01*
X59065600Y-58396340D02*
X58989410Y-58434435D01*
X58989410Y-58434435D02*
X58951315Y-58472530D01*
X58951315Y-58472530D02*
X58913219Y-58548721D01*
X58913219Y-58548721D02*
X58913219Y-58663006D01*
X58913219Y-58663006D02*
X58951315Y-58739197D01*
X58951315Y-58739197D02*
X58989410Y-58777292D01*
X58989410Y-58777292D02*
X59065600Y-58815387D01*
X59065600Y-58815387D02*
X59370362Y-58815387D01*
X58570362Y-59196340D02*
X58570362Y-58663006D01*
X58570362Y-58396340D02*
X58608458Y-58434435D01*
X58608458Y-58434435D02*
X58570362Y-58472530D01*
X58570362Y-58472530D02*
X58532267Y-58434435D01*
X58532267Y-58434435D02*
X58570362Y-58396340D01*
X58570362Y-58396340D02*
X58570362Y-58472530D01*
X57884648Y-59158245D02*
X57960839Y-59196340D01*
X57960839Y-59196340D02*
X58113220Y-59196340D01*
X58113220Y-59196340D02*
X58189410Y-59158245D01*
X58189410Y-59158245D02*
X58227506Y-59082054D01*
X58227506Y-59082054D02*
X58227506Y-58777292D01*
X58227506Y-58777292D02*
X58189410Y-58701102D01*
X58189410Y-58701102D02*
X58113220Y-58663006D01*
X58113220Y-58663006D02*
X57960839Y-58663006D01*
X57960839Y-58663006D02*
X57884648Y-58701102D01*
X57884648Y-58701102D02*
X57846553Y-58777292D01*
X57846553Y-58777292D02*
X57846553Y-58853483D01*
X57846553Y-58853483D02*
X58227506Y-58929673D01*
X63598935Y-60255723D02*
X63217982Y-60255723D01*
X63675125Y-60484295D02*
X63408458Y-59684295D01*
X63408458Y-59684295D02*
X63141792Y-60484295D01*
X62875125Y-60484295D02*
X62875125Y-59950961D01*
X62875125Y-60103342D02*
X62837030Y-60027152D01*
X62837030Y-60027152D02*
X62798935Y-59989057D01*
X62798935Y-59989057D02*
X62722744Y-59950961D01*
X62722744Y-59950961D02*
X62646554Y-59950961D01*
X62494173Y-59950961D02*
X62189411Y-59950961D01*
X62379887Y-59684295D02*
X62379887Y-60370009D01*
X62379887Y-60370009D02*
X62341792Y-60446200D01*
X62341792Y-60446200D02*
X62265602Y-60484295D01*
X62265602Y-60484295D02*
X62189411Y-60484295D01*
X61617982Y-60446200D02*
X61694173Y-60484295D01*
X61694173Y-60484295D02*
X61846554Y-60484295D01*
X61846554Y-60484295D02*
X61922744Y-60446200D01*
X61922744Y-60446200D02*
X61960840Y-60370009D01*
X61960840Y-60370009D02*
X61960840Y-60065247D01*
X61960840Y-60065247D02*
X61922744Y-59989057D01*
X61922744Y-59989057D02*
X61846554Y-59950961D01*
X61846554Y-59950961D02*
X61694173Y-59950961D01*
X61694173Y-59950961D02*
X61617982Y-59989057D01*
X61617982Y-59989057D02*
X61579887Y-60065247D01*
X61579887Y-60065247D02*
X61579887Y-60141438D01*
X61579887Y-60141438D02*
X61960840Y-60217628D01*
X61237030Y-60484295D02*
X61237030Y-59950961D01*
X61237030Y-60027152D02*
X61198935Y-59989057D01*
X61198935Y-59989057D02*
X61122745Y-59950961D01*
X61122745Y-59950961D02*
X61008459Y-59950961D01*
X61008459Y-59950961D02*
X60932268Y-59989057D01*
X60932268Y-59989057D02*
X60894173Y-60065247D01*
X60894173Y-60065247D02*
X60894173Y-60484295D01*
X60894173Y-60065247D02*
X60856078Y-59989057D01*
X60856078Y-59989057D02*
X60779887Y-59950961D01*
X60779887Y-59950961D02*
X60665602Y-59950961D01*
X60665602Y-59950961D02*
X60589411Y-59989057D01*
X60589411Y-59989057D02*
X60551316Y-60065247D01*
X60551316Y-60065247D02*
X60551316Y-60484295D01*
X59560839Y-60484295D02*
X59560839Y-59684295D01*
X59560839Y-60065247D02*
X59103696Y-60065247D01*
X59103696Y-60484295D02*
X59103696Y-59684295D01*
X58608459Y-60484295D02*
X58684649Y-60446200D01*
X58684649Y-60446200D02*
X58722744Y-60408104D01*
X58722744Y-60408104D02*
X58760840Y-60331914D01*
X58760840Y-60331914D02*
X58760840Y-60103342D01*
X58760840Y-60103342D02*
X58722744Y-60027152D01*
X58722744Y-60027152D02*
X58684649Y-59989057D01*
X58684649Y-59989057D02*
X58608459Y-59950961D01*
X58608459Y-59950961D02*
X58494173Y-59950961D01*
X58494173Y-59950961D02*
X58417982Y-59989057D01*
X58417982Y-59989057D02*
X58379887Y-60027152D01*
X58379887Y-60027152D02*
X58341792Y-60103342D01*
X58341792Y-60103342D02*
X58341792Y-60331914D01*
X58341792Y-60331914D02*
X58379887Y-60408104D01*
X58379887Y-60408104D02*
X58417982Y-60446200D01*
X58417982Y-60446200D02*
X58494173Y-60484295D01*
X58494173Y-60484295D02*
X58608459Y-60484295D01*
X57998934Y-60484295D02*
X57998934Y-59950961D01*
X57998934Y-60103342D02*
X57960839Y-60027152D01*
X57960839Y-60027152D02*
X57922744Y-59989057D01*
X57922744Y-59989057D02*
X57846553Y-59950961D01*
X57846553Y-59950961D02*
X57770363Y-59950961D01*
X57503696Y-60484295D02*
X57503696Y-59950961D01*
X57503696Y-59684295D02*
X57541792Y-59722390D01*
X57541792Y-59722390D02*
X57503696Y-59760485D01*
X57503696Y-59760485D02*
X57465601Y-59722390D01*
X57465601Y-59722390D02*
X57503696Y-59684295D01*
X57503696Y-59684295D02*
X57503696Y-59760485D01*
X56779887Y-59950961D02*
X56779887Y-60484295D01*
X57122744Y-59950961D02*
X57122744Y-60370009D01*
X57122744Y-60370009D02*
X57084649Y-60446200D01*
X57084649Y-60446200D02*
X57008459Y-60484295D01*
X57008459Y-60484295D02*
X56894173Y-60484295D01*
X56894173Y-60484295D02*
X56817982Y-60446200D01*
X56817982Y-60446200D02*
X56779887Y-60408104D01*
X56398934Y-59950961D02*
X56398934Y-60484295D01*
X56398934Y-60027152D02*
X56360839Y-59989057D01*
X56360839Y-59989057D02*
X56284649Y-59950961D01*
X56284649Y-59950961D02*
X56170363Y-59950961D01*
X56170363Y-59950961D02*
X56094172Y-59989057D01*
X56094172Y-59989057D02*
X56056077Y-60065247D01*
X56056077Y-60065247D02*
X56056077Y-60484295D01*
X55560839Y-60484295D02*
X55637029Y-60446200D01*
X55637029Y-60446200D02*
X55675124Y-60408104D01*
X55675124Y-60408104D02*
X55713220Y-60331914D01*
X55713220Y-60331914D02*
X55713220Y-60103342D01*
X55713220Y-60103342D02*
X55675124Y-60027152D01*
X55675124Y-60027152D02*
X55637029Y-59989057D01*
X55637029Y-59989057D02*
X55560839Y-59950961D01*
X55560839Y-59950961D02*
X55446553Y-59950961D01*
X55446553Y-59950961D02*
X55370362Y-59989057D01*
X55370362Y-59989057D02*
X55332267Y-60027152D01*
X55332267Y-60027152D02*
X55294172Y-60103342D01*
X55294172Y-60103342D02*
X55294172Y-60331914D01*
X55294172Y-60331914D02*
X55332267Y-60408104D01*
X55332267Y-60408104D02*
X55370362Y-60446200D01*
X55370362Y-60446200D02*
X55446553Y-60484295D01*
X55446553Y-60484295D02*
X55560839Y-60484295D01*
X55027505Y-59950961D02*
X54837029Y-60484295D01*
X54837029Y-60484295D02*
X54646552Y-59950961D01*
D16*
X63174561Y-67270092D02*
X63041228Y-67270092D01*
X63041228Y-67270092D02*
X62978728Y-67303425D01*
X62978728Y-67303425D02*
X62920395Y-67370092D01*
X62920395Y-67370092D02*
X62903728Y-67503425D01*
X62903728Y-67503425D02*
X62932895Y-67736759D01*
X62932895Y-67736759D02*
X62982895Y-67870092D01*
X62982895Y-67870092D02*
X63057895Y-67936759D01*
X63057895Y-67936759D02*
X63128728Y-67970092D01*
X63128728Y-67970092D02*
X63262061Y-67970092D01*
X63262061Y-67970092D02*
X63324561Y-67936759D01*
X63324561Y-67936759D02*
X63382895Y-67870092D01*
X63382895Y-67870092D02*
X63399561Y-67736759D01*
X63399561Y-67736759D02*
X63370395Y-67503425D01*
X63370395Y-67503425D02*
X63320395Y-67370092D01*
X63320395Y-67370092D02*
X63245395Y-67303425D01*
X63245395Y-67303425D02*
X63174561Y-67270092D01*
X62662062Y-67970092D02*
X62603728Y-67503425D01*
X62620395Y-67636759D02*
X62578728Y-67570092D01*
X62578728Y-67570092D02*
X62541228Y-67536759D01*
X62541228Y-67536759D02*
X62470395Y-67503425D01*
X62470395Y-67503425D02*
X62403728Y-67503425D01*
X61928729Y-67970092D02*
X61882895Y-67603425D01*
X61882895Y-67603425D02*
X61907895Y-67536759D01*
X61907895Y-67536759D02*
X61970395Y-67503425D01*
X61970395Y-67503425D02*
X62103729Y-67503425D01*
X62103729Y-67503425D02*
X62174562Y-67536759D01*
X61924562Y-67936759D02*
X61995395Y-67970092D01*
X61995395Y-67970092D02*
X62162062Y-67970092D01*
X62162062Y-67970092D02*
X62224562Y-67936759D01*
X62224562Y-67936759D02*
X62249562Y-67870092D01*
X62249562Y-67870092D02*
X62241229Y-67803425D01*
X62241229Y-67803425D02*
X62199562Y-67736759D01*
X62199562Y-67736759D02*
X62128729Y-67703425D01*
X62128729Y-67703425D02*
X61962062Y-67703425D01*
X61962062Y-67703425D02*
X61891229Y-67670092D01*
X61537062Y-67503425D02*
X61595396Y-67970092D01*
X61545396Y-67570092D02*
X61507896Y-67536759D01*
X61507896Y-67536759D02*
X61437062Y-67503425D01*
X61437062Y-67503425D02*
X61337062Y-67503425D01*
X61337062Y-67503425D02*
X61274562Y-67536759D01*
X61274562Y-67536759D02*
X61249562Y-67603425D01*
X61249562Y-67603425D02*
X61295396Y-67970092D01*
X60603729Y-67503425D02*
X60674563Y-68070092D01*
X60674563Y-68070092D02*
X60716229Y-68136759D01*
X60716229Y-68136759D02*
X60753729Y-68170092D01*
X60753729Y-68170092D02*
X60824563Y-68203425D01*
X60824563Y-68203425D02*
X60924563Y-68203425D01*
X60924563Y-68203425D02*
X60987063Y-68170092D01*
X60657896Y-67936759D02*
X60728729Y-67970092D01*
X60728729Y-67970092D02*
X60862063Y-67970092D01*
X60862063Y-67970092D02*
X60924563Y-67936759D01*
X60924563Y-67936759D02*
X60953729Y-67903425D01*
X60953729Y-67903425D02*
X60978729Y-67836759D01*
X60978729Y-67836759D02*
X60953729Y-67636759D01*
X60953729Y-67636759D02*
X60912063Y-67570092D01*
X60912063Y-67570092D02*
X60874563Y-67536759D01*
X60874563Y-67536759D02*
X60803729Y-67503425D01*
X60803729Y-67503425D02*
X60670396Y-67503425D01*
X60670396Y-67503425D02*
X60607896Y-67536759D01*
X60057896Y-67936759D02*
X60128730Y-67970092D01*
X60128730Y-67970092D02*
X60262063Y-67970092D01*
X60262063Y-67970092D02*
X60324563Y-67936759D01*
X60324563Y-67936759D02*
X60349563Y-67870092D01*
X60349563Y-67870092D02*
X60316230Y-67603425D01*
X60316230Y-67603425D02*
X60274563Y-67536759D01*
X60274563Y-67536759D02*
X60203730Y-67503425D01*
X60203730Y-67503425D02*
X60070396Y-67503425D01*
X60070396Y-67503425D02*
X60007896Y-67536759D01*
X60007896Y-67536759D02*
X59982896Y-67603425D01*
X59982896Y-67603425D02*
X59991230Y-67670092D01*
X59991230Y-67670092D02*
X60332896Y-67736759D01*
X59195397Y-67970092D02*
X59107897Y-67270092D01*
X59107897Y-67270092D02*
X58841230Y-67270092D01*
X58841230Y-67270092D02*
X58778730Y-67303425D01*
X58778730Y-67303425D02*
X58749563Y-67336759D01*
X58749563Y-67336759D02*
X58724563Y-67403425D01*
X58724563Y-67403425D02*
X58737063Y-67503425D01*
X58737063Y-67503425D02*
X58778730Y-67570092D01*
X58778730Y-67570092D02*
X58816230Y-67603425D01*
X58816230Y-67603425D02*
X58887063Y-67636759D01*
X58887063Y-67636759D02*
X59153730Y-67636759D01*
X58495397Y-67970092D02*
X58437063Y-67503425D01*
X58407897Y-67270092D02*
X58445397Y-67303425D01*
X58445397Y-67303425D02*
X58416230Y-67336759D01*
X58416230Y-67336759D02*
X58378730Y-67303425D01*
X58378730Y-67303425D02*
X58407897Y-67270092D01*
X58407897Y-67270092D02*
X58416230Y-67336759D01*
X57207897Y-67270092D02*
X57541231Y-67270092D01*
X57541231Y-67270092D02*
X57616231Y-67603425D01*
X57616231Y-67603425D02*
X57578731Y-67570092D01*
X57578731Y-67570092D02*
X57507897Y-67536759D01*
X57507897Y-67536759D02*
X57341231Y-67536759D01*
X57341231Y-67536759D02*
X57278731Y-67570092D01*
X57278731Y-67570092D02*
X57249564Y-67603425D01*
X57249564Y-67603425D02*
X57224564Y-67670092D01*
X57224564Y-67670092D02*
X57245397Y-67836759D01*
X57245397Y-67836759D02*
X57287064Y-67903425D01*
X57287064Y-67903425D02*
X57324564Y-67936759D01*
X57324564Y-67936759D02*
X57395397Y-67970092D01*
X57395397Y-67970092D02*
X57562064Y-67970092D01*
X57562064Y-67970092D02*
X57624564Y-67936759D01*
X57624564Y-67936759D02*
X57653731Y-67903425D01*
X56370397Y-67503425D02*
X56457897Y-68203425D01*
X56374564Y-67536759D02*
X56303731Y-67503425D01*
X56303731Y-67503425D02*
X56170397Y-67503425D01*
X56170397Y-67503425D02*
X56107897Y-67536759D01*
X56107897Y-67536759D02*
X56078731Y-67570092D01*
X56078731Y-67570092D02*
X56053731Y-67636759D01*
X56053731Y-67636759D02*
X56078731Y-67836759D01*
X56078731Y-67836759D02*
X56120397Y-67903425D01*
X56120397Y-67903425D02*
X56157897Y-67936759D01*
X56157897Y-67936759D02*
X56228731Y-67970092D01*
X56228731Y-67970092D02*
X56362064Y-67970092D01*
X56362064Y-67970092D02*
X56424564Y-67936759D01*
X55795398Y-67970092D02*
X55737064Y-67503425D01*
X55753731Y-67636759D02*
X55712064Y-67570092D01*
X55712064Y-67570092D02*
X55674564Y-67536759D01*
X55674564Y-67536759D02*
X55603731Y-67503425D01*
X55603731Y-67503425D02*
X55537064Y-67503425D01*
X55262065Y-67970092D02*
X55324565Y-67936759D01*
X55324565Y-67936759D02*
X55353731Y-67903425D01*
X55353731Y-67903425D02*
X55378731Y-67836759D01*
X55378731Y-67836759D02*
X55353731Y-67636759D01*
X55353731Y-67636759D02*
X55312065Y-67570092D01*
X55312065Y-67570092D02*
X55274565Y-67536759D01*
X55274565Y-67536759D02*
X55203731Y-67503425D01*
X55203731Y-67503425D02*
X55103731Y-67503425D01*
X55103731Y-67503425D02*
X55041231Y-67536759D01*
X55041231Y-67536759D02*
X55012065Y-67570092D01*
X55012065Y-67570092D02*
X54987065Y-67636759D01*
X54987065Y-67636759D02*
X55012065Y-67836759D01*
X55012065Y-67836759D02*
X55053731Y-67903425D01*
X55053731Y-67903425D02*
X55091231Y-67936759D01*
X55091231Y-67936759D02*
X55162065Y-67970092D01*
X55162065Y-67970092D02*
X55262065Y-67970092D01*
X53895399Y-67970092D02*
X53849565Y-67603425D01*
X53849565Y-67603425D02*
X53874565Y-67536759D01*
X53874565Y-67536759D02*
X53937065Y-67503425D01*
X53937065Y-67503425D02*
X54070399Y-67503425D01*
X54070399Y-67503425D02*
X54141232Y-67536759D01*
X53891232Y-67936759D02*
X53962065Y-67970092D01*
X53962065Y-67970092D02*
X54128732Y-67970092D01*
X54128732Y-67970092D02*
X54191232Y-67936759D01*
X54191232Y-67936759D02*
X54216232Y-67870092D01*
X54216232Y-67870092D02*
X54207899Y-67803425D01*
X54207899Y-67803425D02*
X54166232Y-67736759D01*
X54166232Y-67736759D02*
X54095399Y-67703425D01*
X54095399Y-67703425D02*
X53928732Y-67703425D01*
X53928732Y-67703425D02*
X53857899Y-67670092D01*
X53262066Y-67970092D02*
X53174566Y-67270092D01*
X53257899Y-67936759D02*
X53328732Y-67970092D01*
X53328732Y-67970092D02*
X53462066Y-67970092D01*
X53462066Y-67970092D02*
X53524566Y-67936759D01*
X53524566Y-67936759D02*
X53553732Y-67903425D01*
X53553732Y-67903425D02*
X53578732Y-67836759D01*
X53578732Y-67836759D02*
X53553732Y-67636759D01*
X53553732Y-67636759D02*
X53512066Y-67570092D01*
X53512066Y-67570092D02*
X53474566Y-67536759D01*
X53474566Y-67536759D02*
X53403732Y-67503425D01*
X53403732Y-67503425D02*
X53270399Y-67503425D01*
X53270399Y-67503425D02*
X53207899Y-67536759D01*
X52628733Y-67970092D02*
X52582899Y-67603425D01*
X52582899Y-67603425D02*
X52607899Y-67536759D01*
X52607899Y-67536759D02*
X52670399Y-67503425D01*
X52670399Y-67503425D02*
X52803733Y-67503425D01*
X52803733Y-67503425D02*
X52874566Y-67536759D01*
X52624566Y-67936759D02*
X52695399Y-67970092D01*
X52695399Y-67970092D02*
X52862066Y-67970092D01*
X52862066Y-67970092D02*
X52924566Y-67936759D01*
X52924566Y-67936759D02*
X52949566Y-67870092D01*
X52949566Y-67870092D02*
X52941233Y-67803425D01*
X52941233Y-67803425D02*
X52899566Y-67736759D01*
X52899566Y-67736759D02*
X52828733Y-67703425D01*
X52828733Y-67703425D02*
X52662066Y-67703425D01*
X52662066Y-67703425D02*
X52591233Y-67670092D01*
X52237066Y-67503425D02*
X52324566Y-68203425D01*
X52241233Y-67536759D02*
X52170400Y-67503425D01*
X52170400Y-67503425D02*
X52037066Y-67503425D01*
X52037066Y-67503425D02*
X51974566Y-67536759D01*
X51974566Y-67536759D02*
X51945400Y-67570092D01*
X51945400Y-67570092D02*
X51920400Y-67636759D01*
X51920400Y-67636759D02*
X51945400Y-67836759D01*
X51945400Y-67836759D02*
X51987066Y-67903425D01*
X51987066Y-67903425D02*
X52024566Y-67936759D01*
X52024566Y-67936759D02*
X52095400Y-67970092D01*
X52095400Y-67970092D02*
X52228733Y-67970092D01*
X52228733Y-67970092D02*
X52291233Y-67936759D01*
X51703733Y-67503425D02*
X51437067Y-67503425D01*
X51574567Y-67270092D02*
X51649567Y-67870092D01*
X51649567Y-67870092D02*
X51624567Y-67936759D01*
X51624567Y-67936759D02*
X51562067Y-67970092D01*
X51562067Y-67970092D02*
X51495400Y-67970092D01*
X50991233Y-67936759D02*
X51062067Y-67970092D01*
X51062067Y-67970092D02*
X51195400Y-67970092D01*
X51195400Y-67970092D02*
X51257900Y-67936759D01*
X51257900Y-67936759D02*
X51282900Y-67870092D01*
X51282900Y-67870092D02*
X51249567Y-67603425D01*
X51249567Y-67603425D02*
X51207900Y-67536759D01*
X51207900Y-67536759D02*
X51137067Y-67503425D01*
X51137067Y-67503425D02*
X51003733Y-67503425D01*
X51003733Y-67503425D02*
X50941233Y-67536759D01*
X50941233Y-67536759D02*
X50916233Y-67603425D01*
X50916233Y-67603425D02*
X50924567Y-67670092D01*
X50924567Y-67670092D02*
X51266233Y-67736759D01*
X50662067Y-67970092D02*
X50603733Y-67503425D01*
X50620400Y-67636759D02*
X50578733Y-67570092D01*
X50578733Y-67570092D02*
X50541233Y-67536759D01*
X50541233Y-67536759D02*
X50470400Y-67503425D01*
X50470400Y-67503425D02*
X50403733Y-67503425D01*
X63437061Y-68630386D02*
X63170395Y-68630386D01*
X63395395Y-69097053D02*
X63320395Y-68497053D01*
X63320395Y-68497053D02*
X63278728Y-68430386D01*
X63278728Y-68430386D02*
X63207895Y-68397053D01*
X63207895Y-68397053D02*
X63141228Y-68397053D01*
X62895395Y-69097053D02*
X62957895Y-69063720D01*
X62957895Y-69063720D02*
X62987061Y-69030386D01*
X62987061Y-69030386D02*
X63012061Y-68963720D01*
X63012061Y-68963720D02*
X62987061Y-68763720D01*
X62987061Y-68763720D02*
X62945395Y-68697053D01*
X62945395Y-68697053D02*
X62907895Y-68663720D01*
X62907895Y-68663720D02*
X62837061Y-68630386D01*
X62837061Y-68630386D02*
X62737061Y-68630386D01*
X62737061Y-68630386D02*
X62674561Y-68663720D01*
X62674561Y-68663720D02*
X62645395Y-68697053D01*
X62645395Y-68697053D02*
X62620395Y-68763720D01*
X62620395Y-68763720D02*
X62645395Y-68963720D01*
X62645395Y-68963720D02*
X62687061Y-69030386D01*
X62687061Y-69030386D02*
X62724561Y-69063720D01*
X62724561Y-69063720D02*
X62795395Y-69097053D01*
X62795395Y-69097053D02*
X62895395Y-69097053D01*
X62362062Y-69097053D02*
X62303728Y-68630386D01*
X62320395Y-68763720D02*
X62278728Y-68697053D01*
X62278728Y-68697053D02*
X62241228Y-68663720D01*
X62241228Y-68663720D02*
X62170395Y-68630386D01*
X62170395Y-68630386D02*
X62103728Y-68630386D01*
X61395396Y-69097053D02*
X61307896Y-68397053D01*
X61307896Y-68397053D02*
X61137062Y-68897053D01*
X61137062Y-68897053D02*
X60841229Y-68397053D01*
X60841229Y-68397053D02*
X60928729Y-69097053D01*
X60495396Y-69097053D02*
X60557896Y-69063720D01*
X60557896Y-69063720D02*
X60587062Y-69030386D01*
X60587062Y-69030386D02*
X60612062Y-68963720D01*
X60612062Y-68963720D02*
X60587062Y-68763720D01*
X60587062Y-68763720D02*
X60545396Y-68697053D01*
X60545396Y-68697053D02*
X60507896Y-68663720D01*
X60507896Y-68663720D02*
X60437062Y-68630386D01*
X60437062Y-68630386D02*
X60337062Y-68630386D01*
X60337062Y-68630386D02*
X60274562Y-68663720D01*
X60274562Y-68663720D02*
X60245396Y-68697053D01*
X60245396Y-68697053D02*
X60220396Y-68763720D01*
X60220396Y-68763720D02*
X60245396Y-68963720D01*
X60245396Y-68963720D02*
X60287062Y-69030386D01*
X60287062Y-69030386D02*
X60324562Y-69063720D01*
X60324562Y-69063720D02*
X60395396Y-69097053D01*
X60395396Y-69097053D02*
X60495396Y-69097053D01*
X59662063Y-69097053D02*
X59574563Y-68397053D01*
X59657896Y-69063720D02*
X59728729Y-69097053D01*
X59728729Y-69097053D02*
X59862063Y-69097053D01*
X59862063Y-69097053D02*
X59924563Y-69063720D01*
X59924563Y-69063720D02*
X59953729Y-69030386D01*
X59953729Y-69030386D02*
X59978729Y-68963720D01*
X59978729Y-68963720D02*
X59953729Y-68763720D01*
X59953729Y-68763720D02*
X59912063Y-68697053D01*
X59912063Y-68697053D02*
X59874563Y-68663720D01*
X59874563Y-68663720D02*
X59803729Y-68630386D01*
X59803729Y-68630386D02*
X59670396Y-68630386D01*
X59670396Y-68630386D02*
X59607896Y-68663720D01*
X58970396Y-68630386D02*
X59028730Y-69097053D01*
X59270396Y-68630386D02*
X59316230Y-68997053D01*
X59316230Y-68997053D02*
X59291230Y-69063720D01*
X59291230Y-69063720D02*
X59228730Y-69097053D01*
X59228730Y-69097053D02*
X59128730Y-69097053D01*
X59128730Y-69097053D02*
X59057896Y-69063720D01*
X59057896Y-69063720D02*
X59020396Y-69030386D01*
X58287063Y-69030386D02*
X58324563Y-69063720D01*
X58324563Y-69063720D02*
X58428730Y-69097053D01*
X58428730Y-69097053D02*
X58495397Y-69097053D01*
X58495397Y-69097053D02*
X58591230Y-69063720D01*
X58591230Y-69063720D02*
X58649563Y-68997053D01*
X58649563Y-68997053D02*
X58674563Y-68930386D01*
X58674563Y-68930386D02*
X58691230Y-68797053D01*
X58691230Y-68797053D02*
X58678730Y-68697053D01*
X58678730Y-68697053D02*
X58628730Y-68563720D01*
X58628730Y-68563720D02*
X58587063Y-68497053D01*
X58587063Y-68497053D02*
X58512063Y-68430386D01*
X58512063Y-68430386D02*
X58407897Y-68397053D01*
X58407897Y-68397053D02*
X58341230Y-68397053D01*
X58341230Y-68397053D02*
X58245397Y-68430386D01*
X58245397Y-68430386D02*
X58216230Y-68463720D01*
X57695397Y-69097053D02*
X57649563Y-68730386D01*
X57649563Y-68730386D02*
X57674563Y-68663720D01*
X57674563Y-68663720D02*
X57737063Y-68630386D01*
X57737063Y-68630386D02*
X57870397Y-68630386D01*
X57870397Y-68630386D02*
X57941230Y-68663720D01*
X57691230Y-69063720D02*
X57762063Y-69097053D01*
X57762063Y-69097053D02*
X57928730Y-69097053D01*
X57928730Y-69097053D02*
X57991230Y-69063720D01*
X57991230Y-69063720D02*
X58016230Y-68997053D01*
X58016230Y-68997053D02*
X58007897Y-68930386D01*
X58007897Y-68930386D02*
X57966230Y-68863720D01*
X57966230Y-68863720D02*
X57895397Y-68830386D01*
X57895397Y-68830386D02*
X57728730Y-68830386D01*
X57728730Y-68830386D02*
X57657897Y-68797053D01*
X57362064Y-69097053D02*
X57303730Y-68630386D01*
X57320397Y-68763720D02*
X57278730Y-68697053D01*
X57278730Y-68697053D02*
X57241230Y-68663720D01*
X57241230Y-68663720D02*
X57170397Y-68630386D01*
X57170397Y-68630386D02*
X57103730Y-68630386D01*
X56628731Y-69097053D02*
X56541231Y-68397053D01*
X56624564Y-69063720D02*
X56695397Y-69097053D01*
X56695397Y-69097053D02*
X56828731Y-69097053D01*
X56828731Y-69097053D02*
X56891231Y-69063720D01*
X56891231Y-69063720D02*
X56920397Y-69030386D01*
X56920397Y-69030386D02*
X56945397Y-68963720D01*
X56945397Y-68963720D02*
X56920397Y-68763720D01*
X56920397Y-68763720D02*
X56878731Y-68697053D01*
X56878731Y-68697053D02*
X56841231Y-68663720D01*
X56841231Y-68663720D02*
X56770397Y-68630386D01*
X56770397Y-68630386D02*
X56637064Y-68630386D01*
X56637064Y-68630386D02*
X56574564Y-68663720D01*
X55791231Y-69063720D02*
X55695398Y-69097053D01*
X55695398Y-69097053D02*
X55528731Y-69097053D01*
X55528731Y-69097053D02*
X55457898Y-69063720D01*
X55457898Y-69063720D02*
X55420398Y-69030386D01*
X55420398Y-69030386D02*
X55378731Y-68963720D01*
X55378731Y-68963720D02*
X55370398Y-68897053D01*
X55370398Y-68897053D02*
X55395398Y-68830386D01*
X55395398Y-68830386D02*
X55424565Y-68797053D01*
X55424565Y-68797053D02*
X55487065Y-68763720D01*
X55487065Y-68763720D02*
X55616231Y-68730386D01*
X55616231Y-68730386D02*
X55678731Y-68697053D01*
X55678731Y-68697053D02*
X55707898Y-68663720D01*
X55707898Y-68663720D02*
X55732898Y-68597053D01*
X55732898Y-68597053D02*
X55724565Y-68530386D01*
X55724565Y-68530386D02*
X55682898Y-68463720D01*
X55682898Y-68463720D02*
X55645398Y-68430386D01*
X55645398Y-68430386D02*
X55574565Y-68397053D01*
X55574565Y-68397053D02*
X55407898Y-68397053D01*
X55407898Y-68397053D02*
X55312065Y-68430386D01*
X55103731Y-68630386D02*
X54995398Y-69097053D01*
X54770398Y-68630386D02*
X54995398Y-69097053D01*
X54995398Y-69097053D02*
X55082898Y-69263720D01*
X55082898Y-69263720D02*
X55120398Y-69297053D01*
X55120398Y-69297053D02*
X55191231Y-69330386D01*
X54591231Y-69063720D02*
X54528731Y-69097053D01*
X54528731Y-69097053D02*
X54395398Y-69097053D01*
X54395398Y-69097053D02*
X54324565Y-69063720D01*
X54324565Y-69063720D02*
X54282898Y-68997053D01*
X54282898Y-68997053D02*
X54278731Y-68963720D01*
X54278731Y-68963720D02*
X54303731Y-68897053D01*
X54303731Y-68897053D02*
X54366231Y-68863720D01*
X54366231Y-68863720D02*
X54466231Y-68863720D01*
X54466231Y-68863720D02*
X54528731Y-68830386D01*
X54528731Y-68830386D02*
X54553731Y-68763720D01*
X54553731Y-68763720D02*
X54549565Y-68730386D01*
X54549565Y-68730386D02*
X54507898Y-68663720D01*
X54507898Y-68663720D02*
X54437065Y-68630386D01*
X54437065Y-68630386D02*
X54337065Y-68630386D01*
X54337065Y-68630386D02*
X54274565Y-68663720D01*
X54037064Y-68630386D02*
X53770398Y-68630386D01*
X53907898Y-68397053D02*
X53982898Y-68997053D01*
X53982898Y-68997053D02*
X53957898Y-69063720D01*
X53957898Y-69063720D02*
X53895398Y-69097053D01*
X53895398Y-69097053D02*
X53828731Y-69097053D01*
X53324564Y-69063720D02*
X53395398Y-69097053D01*
X53395398Y-69097053D02*
X53528731Y-69097053D01*
X53528731Y-69097053D02*
X53591231Y-69063720D01*
X53591231Y-69063720D02*
X53616231Y-68997053D01*
X53616231Y-68997053D02*
X53582898Y-68730386D01*
X53582898Y-68730386D02*
X53541231Y-68663720D01*
X53541231Y-68663720D02*
X53470398Y-68630386D01*
X53470398Y-68630386D02*
X53337064Y-68630386D01*
X53337064Y-68630386D02*
X53274564Y-68663720D01*
X53274564Y-68663720D02*
X53249564Y-68730386D01*
X53249564Y-68730386D02*
X53257898Y-68797053D01*
X53257898Y-68797053D02*
X53599564Y-68863720D01*
X52995398Y-69097053D02*
X52937064Y-68630386D01*
X52945398Y-68697053D02*
X52907898Y-68663720D01*
X52907898Y-68663720D02*
X52837064Y-68630386D01*
X52837064Y-68630386D02*
X52737064Y-68630386D01*
X52737064Y-68630386D02*
X52674564Y-68663720D01*
X52674564Y-68663720D02*
X52649564Y-68730386D01*
X52649564Y-68730386D02*
X52695398Y-69097053D01*
X52649564Y-68730386D02*
X52607898Y-68663720D01*
X52607898Y-68663720D02*
X52537064Y-68630386D01*
X52537064Y-68630386D02*
X52437064Y-68630386D01*
X52437064Y-68630386D02*
X52374564Y-68663720D01*
X52374564Y-68663720D02*
X52349564Y-68730386D01*
X52349564Y-68730386D02*
X52395398Y-69097053D01*
D10*
X83480225Y-94180167D02*
X84194510Y-94180167D01*
X84194510Y-94180167D02*
X84337367Y-94132548D01*
X84337367Y-94132548D02*
X84432606Y-94037310D01*
X84432606Y-94037310D02*
X84480225Y-93894453D01*
X84480225Y-93894453D02*
X84480225Y-93799215D01*
X83575463Y-94608739D02*
X83527844Y-94656358D01*
X83527844Y-94656358D02*
X83480225Y-94751596D01*
X83480225Y-94751596D02*
X83480225Y-94989691D01*
X83480225Y-94989691D02*
X83527844Y-95084929D01*
X83527844Y-95084929D02*
X83575463Y-95132548D01*
X83575463Y-95132548D02*
X83670701Y-95180167D01*
X83670701Y-95180167D02*
X83765939Y-95180167D01*
X83765939Y-95180167D02*
X83908796Y-95132548D01*
X83908796Y-95132548D02*
X84480225Y-94561120D01*
X84480225Y-94561120D02*
X84480225Y-95180167D01*
D17*
%TO.C,kibuzzard-67B7C21F*%
G36*
X114611919Y-83316087D02*
G01*
X114687027Y-83327227D01*
X114760680Y-83345676D01*
X114832172Y-83371256D01*
X114900811Y-83403720D01*
X114965937Y-83442756D01*
X115026924Y-83487987D01*
X115083185Y-83538978D01*
X115083261Y-83539054D01*
X116383698Y-84839491D01*
X117031022Y-85486815D01*
X117082013Y-85543076D01*
X117127244Y-85604063D01*
X117166280Y-85669189D01*
X117198744Y-85737828D01*
X117224324Y-85809320D01*
X117242773Y-85882973D01*
X117253913Y-85958081D01*
X117257639Y-86033919D01*
X117253913Y-86109757D01*
X117242773Y-86184865D01*
X117224324Y-86258518D01*
X117198744Y-86330009D01*
X117166280Y-86398649D01*
X117127244Y-86463775D01*
X117082013Y-86524762D01*
X117031022Y-86581022D01*
X116974762Y-86632013D01*
X116913775Y-86677244D01*
X116848649Y-86716280D01*
X116780009Y-86748744D01*
X116708518Y-86774324D01*
X116634865Y-86792773D01*
X116559757Y-86803913D01*
X116483919Y-86807639D01*
X116408081Y-86803913D01*
X116332973Y-86792773D01*
X116259320Y-86774324D01*
X116187828Y-86748744D01*
X116119189Y-86716280D01*
X116054063Y-86677244D01*
X115993076Y-86632013D01*
X115936815Y-86581022D01*
X115289491Y-85933698D01*
X115007105Y-85651312D01*
X114714667Y-85358874D01*
X114562355Y-85206562D01*
X114866978Y-85206562D01*
X114983954Y-85323537D01*
X115017543Y-85257739D01*
X115219732Y-85257739D01*
X115310205Y-85348212D01*
X115399257Y-85311860D01*
X115489730Y-85277133D01*
X115581624Y-85244030D01*
X115675042Y-85212452D01*
X115770084Y-85182293D01*
X115866752Y-85153557D01*
X115491151Y-85529158D01*
X115592591Y-85630598D01*
X116158276Y-85064912D01*
X116067803Y-84974439D01*
X116000291Y-84990774D01*
X115929352Y-85010537D01*
X115857156Y-85032241D01*
X115785875Y-85054403D01*
X115716648Y-85077021D01*
X115650622Y-85100096D01*
X115590421Y-85122143D01*
X115538672Y-85141677D01*
X115886857Y-84793493D01*
X115785417Y-84692053D01*
X115219732Y-85257739D01*
X115017543Y-85257739D01*
X115517654Y-84278070D01*
X115402506Y-84162923D01*
X114866978Y-85206562D01*
X114562355Y-85206562D01*
X114147154Y-84791360D01*
X113989054Y-84633261D01*
X113988978Y-84633185D01*
X113937987Y-84576924D01*
X113892756Y-84515937D01*
X113853720Y-84450811D01*
X113821256Y-84382172D01*
X113795676Y-84310680D01*
X113793688Y-84302744D01*
X114319571Y-84302744D01*
X114357039Y-84394131D01*
X114391537Y-84447136D01*
X114438373Y-84500140D01*
X114520418Y-84565127D01*
X114606932Y-84600463D01*
X114697913Y-84606150D01*
X114767937Y-84591299D01*
X114838192Y-84560456D01*
X114908674Y-84513620D01*
X114979385Y-84450791D01*
X115041070Y-84379509D01*
X115085393Y-84306400D01*
X115113037Y-84232834D01*
X115124690Y-84160180D01*
X115120577Y-84089357D01*
X115100929Y-84021273D01*
X115066431Y-83957302D01*
X115017767Y-83898814D01*
X114958365Y-83849465D01*
X114904447Y-83818393D01*
X114860124Y-83801486D01*
X114830424Y-83793719D01*
X114770108Y-83912522D01*
X114844132Y-83939939D01*
X114921810Y-83998426D01*
X114963848Y-84059655D01*
X114976643Y-84136420D01*
X114948769Y-84228264D01*
X114915985Y-84279555D01*
X114867893Y-84333816D01*
X114804632Y-84389663D01*
X114744012Y-84428047D01*
X114686033Y-84448964D01*
X114603327Y-84443709D01*
X114525191Y-84391390D01*
X114462591Y-84308685D01*
X114436545Y-84242429D01*
X114319571Y-84302744D01*
X113793688Y-84302744D01*
X113777227Y-84237027D01*
X113766087Y-84161919D01*
X113762361Y-84086081D01*
X113766087Y-84010243D01*
X113777227Y-83935135D01*
X113795676Y-83861482D01*
X113821256Y-83789991D01*
X113853720Y-83721351D01*
X113892756Y-83656225D01*
X113937987Y-83595238D01*
X113988978Y-83538978D01*
X114045238Y-83487987D01*
X114106225Y-83442756D01*
X114171351Y-83403720D01*
X114239991Y-83371256D01*
X114311482Y-83345676D01*
X114385135Y-83327227D01*
X114460243Y-83316087D01*
X114536081Y-83312361D01*
X114611919Y-83316087D01*
G37*
D18*
%TO.C,J4*%
X110752923Y-90456590D02*
X111573167Y-91276833D01*
X111325679Y-89883833D02*
X110752923Y-90456590D01*
X111898436Y-89311077D02*
X112247246Y-89659887D01*
X111898436Y-89311077D02*
X116342602Y-84866911D01*
X113190113Y-90602754D02*
X113538923Y-90951564D01*
X113538923Y-90951564D02*
X117983089Y-86507398D01*
X116342602Y-84866911D02*
X116938040Y-85462349D01*
X117387651Y-85911960D02*
X117983089Y-86507398D01*
D17*
%TO.C,kibuzzard-68D47811*%
G36*
X114140847Y-88311278D02*
G01*
X114212735Y-88321941D01*
X114283231Y-88339600D01*
X114351656Y-88364083D01*
X114417353Y-88395155D01*
X114479688Y-88432516D01*
X114538060Y-88475809D01*
X114591908Y-88524614D01*
X115239232Y-89171938D01*
X116575310Y-90508016D01*
X116575386Y-90508092D01*
X116624191Y-90561940D01*
X116667484Y-90620312D01*
X116704845Y-90682647D01*
X116735917Y-90748344D01*
X116760400Y-90816769D01*
X116778059Y-90887265D01*
X116788722Y-90959153D01*
X116792288Y-91031739D01*
X116788722Y-91104326D01*
X116778059Y-91176213D01*
X116760401Y-91246709D01*
X116735917Y-91315135D01*
X116704845Y-91380831D01*
X116667484Y-91443166D01*
X116624192Y-91501538D01*
X116575386Y-91555386D01*
X116521538Y-91604192D01*
X116463166Y-91647484D01*
X116400831Y-91684845D01*
X116335135Y-91715917D01*
X116266709Y-91740401D01*
X116196213Y-91758059D01*
X116124326Y-91768722D01*
X116051739Y-91772288D01*
X115979153Y-91768722D01*
X115907265Y-91758059D01*
X115836769Y-91740400D01*
X115768344Y-91715917D01*
X115702647Y-91684845D01*
X115640312Y-91647484D01*
X115581940Y-91604191D01*
X115528092Y-91555386D01*
X115528016Y-91555310D01*
X115282185Y-91309479D01*
X114856322Y-90883616D01*
X115391849Y-90883616D01*
X115429318Y-90975003D01*
X115463816Y-91028008D01*
X115510653Y-91081012D01*
X115592697Y-91145998D01*
X115679210Y-91181335D01*
X115770191Y-91187021D01*
X115840217Y-91172171D01*
X115910470Y-91141327D01*
X115980953Y-91094491D01*
X116051663Y-91031663D01*
X116113349Y-90960381D01*
X116157672Y-90887272D01*
X116185317Y-90813705D01*
X116196968Y-90741053D01*
X116192856Y-90670227D01*
X116173208Y-90602144D01*
X116138709Y-90538173D01*
X116090045Y-90479686D01*
X116030644Y-90430337D01*
X115976726Y-90399265D01*
X115932403Y-90382358D01*
X115902702Y-90374591D01*
X115842387Y-90493394D01*
X115916410Y-90520809D01*
X115994089Y-90579298D01*
X116036128Y-90640527D01*
X116048921Y-90717292D01*
X116021049Y-90809136D01*
X115988264Y-90860427D01*
X115940170Y-90914688D01*
X115876911Y-90970536D01*
X115816291Y-91008918D01*
X115758311Y-91029836D01*
X115675605Y-91024580D01*
X115597470Y-90972262D01*
X115534870Y-90889556D01*
X115508824Y-90823301D01*
X115391849Y-90883616D01*
X114856322Y-90883616D01*
X114675375Y-90702669D01*
X114435027Y-90462322D01*
X114915723Y-90462322D01*
X115271218Y-90817817D01*
X115836904Y-90252132D01*
X115723584Y-90138812D01*
X115251113Y-90611283D01*
X115008937Y-90369107D01*
X114915723Y-90462322D01*
X114435027Y-90462322D01*
X114318966Y-90346261D01*
X114191938Y-90219232D01*
X113951591Y-89978885D01*
X114432286Y-89978885D01*
X114559314Y-90105913D01*
X114657098Y-90065702D01*
X114713415Y-90048910D01*
X114770875Y-90035088D01*
X114828334Y-90024464D01*
X114884651Y-90017267D01*
X114984263Y-90013612D01*
X114725638Y-90272237D01*
X114838044Y-90384643D01*
X115403730Y-89818958D01*
X115291324Y-89706552D01*
X115056459Y-89941417D01*
X115071080Y-89842719D01*
X115091643Y-89738995D01*
X115116774Y-89641667D01*
X115144190Y-89559418D01*
X115017163Y-89432391D01*
X114991574Y-89519208D01*
X114978437Y-89570499D01*
X114966442Y-89625674D01*
X114955476Y-89683933D01*
X114945423Y-89744477D01*
X114937085Y-89806049D01*
X114931258Y-89867392D01*
X114873228Y-89868307D01*
X114810628Y-89872876D01*
X114745287Y-89881329D01*
X114679031Y-89893895D01*
X114613118Y-89910231D01*
X114548804Y-89929993D01*
X114487917Y-89952954D01*
X114432286Y-89978885D01*
X113951591Y-89978885D01*
X113544614Y-89571908D01*
X113495809Y-89518060D01*
X113452516Y-89459688D01*
X113415155Y-89397353D01*
X113384083Y-89331656D01*
X113359600Y-89263231D01*
X113341941Y-89192735D01*
X113331278Y-89120847D01*
X113327712Y-89048261D01*
X113331278Y-88975674D01*
X113341941Y-88903787D01*
X113359599Y-88833291D01*
X113384083Y-88764865D01*
X113415155Y-88699169D01*
X113452516Y-88636834D01*
X113495808Y-88578462D01*
X113544614Y-88524614D01*
X113598462Y-88475808D01*
X113656834Y-88432516D01*
X113719169Y-88395155D01*
X113784865Y-88364083D01*
X113853291Y-88339599D01*
X113923787Y-88321941D01*
X113995674Y-88311278D01*
X114068261Y-88307712D01*
X114140847Y-88311278D01*
G37*
%TO.C,kibuzzard-67B7C241*%
G36*
X113994766Y-86793278D02*
G01*
X114040460Y-86828462D01*
X114055539Y-86844455D01*
X114071532Y-86865017D01*
X113901552Y-87034997D01*
X113876878Y-87010323D01*
X113832897Y-86955147D01*
X113816105Y-86904770D01*
X113854030Y-86815668D01*
X113899724Y-86783682D01*
X113947245Y-86777285D01*
X113994766Y-86793278D01*
G37*
G36*
X112769582Y-85130012D02*
G01*
X112841469Y-85140675D01*
X112911965Y-85158334D01*
X112980391Y-85182817D01*
X113046087Y-85213889D01*
X113108422Y-85251251D01*
X113166795Y-85294543D01*
X113220642Y-85343348D01*
X113220718Y-85343424D01*
X114519328Y-86642033D01*
X115166652Y-87289358D01*
X115215457Y-87343205D01*
X115258749Y-87401578D01*
X115296111Y-87463913D01*
X115327183Y-87529609D01*
X115351666Y-87598035D01*
X115369325Y-87668531D01*
X115379988Y-87740418D01*
X115383554Y-87813005D01*
X115379988Y-87885592D01*
X115369325Y-87957479D01*
X115351667Y-88027975D01*
X115327183Y-88096401D01*
X115296111Y-88162097D01*
X115258749Y-88224432D01*
X115215458Y-88282804D01*
X115166652Y-88336652D01*
X115112804Y-88385458D01*
X115054432Y-88428749D01*
X114992097Y-88466111D01*
X114926401Y-88497183D01*
X114857975Y-88521667D01*
X114787479Y-88539325D01*
X114715592Y-88549988D01*
X114643005Y-88553554D01*
X114570418Y-88549988D01*
X114498531Y-88539325D01*
X114428035Y-88521666D01*
X114359609Y-88497183D01*
X114293913Y-88466111D01*
X114231578Y-88428749D01*
X114173205Y-88385457D01*
X114119358Y-88336652D01*
X113472033Y-87689328D01*
X113074499Y-87291794D01*
X112852430Y-87069724D01*
X112834152Y-87051446D01*
X113314847Y-87051446D01*
X113432737Y-87169336D01*
X113509273Y-87138265D01*
X113587181Y-87112676D01*
X113667144Y-87090514D01*
X113749849Y-87069723D01*
X113808338Y-87128212D01*
X113599975Y-87336574D01*
X113712381Y-87448980D01*
X114269842Y-86891520D01*
X114240598Y-86848568D01*
X114205413Y-86804245D01*
X114169316Y-86763578D01*
X114138244Y-86730678D01*
X114089352Y-86687270D01*
X114039546Y-86653913D01*
X113989055Y-86631295D01*
X113938107Y-86620100D01*
X113836667Y-86634722D01*
X113787089Y-86661681D01*
X113738883Y-86702348D01*
X113696845Y-86754439D01*
X113669429Y-86812013D01*
X113660747Y-86874156D01*
X113674912Y-86939954D01*
X113589465Y-86959603D01*
X113495337Y-86986105D01*
X113400751Y-87017634D01*
X113314847Y-87051446D01*
X112834152Y-87051446D01*
X112423825Y-86641119D01*
X112967577Y-86641119D01*
X112983824Y-86705597D01*
X113021597Y-86772310D01*
X113080897Y-86841257D01*
X113147952Y-86900772D01*
X113208382Y-86938584D01*
X113299312Y-86973768D01*
X113357799Y-86849482D01*
X113271439Y-86817953D01*
X113223803Y-86789508D01*
X113175025Y-86747129D01*
X113133901Y-86694124D01*
X113120649Y-86647973D01*
X113129332Y-86609134D01*
X113152179Y-86578062D01*
X113193303Y-86557043D01*
X113243109Y-86558414D01*
X113297027Y-86573950D01*
X113351402Y-86596339D01*
X113425426Y-86628325D01*
X113505389Y-86647973D01*
X113587638Y-86639749D01*
X113669429Y-86587201D01*
X113727346Y-86503467D01*
X113742082Y-86411280D01*
X113728221Y-86347665D01*
X113695779Y-86285370D01*
X113644754Y-86224395D01*
X113593007Y-86178587D01*
X113541944Y-86145345D01*
X113450100Y-86106505D01*
X113396182Y-86226222D01*
X113468834Y-86255009D01*
X113542401Y-86310298D01*
X113584946Y-86367262D01*
X113593171Y-86418744D01*
X113567076Y-86464742D01*
X113529150Y-86484390D01*
X113483914Y-86483020D01*
X113435021Y-86467940D01*
X113386129Y-86446465D01*
X113308450Y-86413566D01*
X113222546Y-86393460D01*
X113131617Y-86404884D01*
X113085351Y-86427844D01*
X113038859Y-86466570D01*
X112981285Y-86549960D01*
X112967577Y-86641119D01*
X112423825Y-86641119D01*
X112322385Y-86539679D01*
X112173424Y-86390718D01*
X112173348Y-86390642D01*
X112124543Y-86336795D01*
X112096758Y-86299331D01*
X112562732Y-86299331D01*
X112676053Y-86412652D01*
X113148523Y-85940181D01*
X113297483Y-86089142D01*
X113390698Y-85995927D01*
X112979457Y-85584685D01*
X112886242Y-85677900D01*
X113035203Y-85826861D01*
X112562732Y-86299331D01*
X112096758Y-86299331D01*
X112081251Y-86278422D01*
X112043889Y-86216087D01*
X112012817Y-86150391D01*
X111988334Y-86081965D01*
X111970675Y-86011469D01*
X111960012Y-85939582D01*
X111956446Y-85866995D01*
X111960012Y-85794408D01*
X111970675Y-85722521D01*
X111988333Y-85652025D01*
X112012817Y-85583599D01*
X112043889Y-85517903D01*
X112081251Y-85455568D01*
X112124542Y-85397196D01*
X112173348Y-85343348D01*
X112227196Y-85294542D01*
X112285568Y-85251251D01*
X112347903Y-85213889D01*
X112413599Y-85182817D01*
X112482025Y-85158333D01*
X112552521Y-85140675D01*
X112624408Y-85130012D01*
X112696995Y-85126446D01*
X112769582Y-85130012D01*
G37*
D10*
%TO.C,J2*%
X41402806Y-112733501D02*
X41402806Y-74733501D01*
X42402806Y-73733501D02*
X80402806Y-73733501D01*
X80402806Y-113733501D02*
X42402806Y-113733501D01*
X81402806Y-74733501D02*
X81402806Y-112733501D01*
X76057671Y-61503797D02*
X88902806Y-61503797D01*
X88902806Y-56485520D01*
X76057671Y-56485520D01*
X76057671Y-61503797D01*
X85902806Y-119130566D02*
X90902806Y-119130566D01*
X90902806Y-68408630D01*
X85902806Y-68408630D01*
X85902806Y-119130566D01*
X41402806Y-74733501D02*
G75*
G02*
X42402806Y-73733501I1000000J0D01*
G01*
X42402806Y-113733501D02*
G75*
G02*
X41402806Y-112733501I0J1000000D01*
G01*
X80402806Y-73733501D02*
G75*
G02*
X81402806Y-74733501I0J-1000000D01*
G01*
X81402806Y-112733501D02*
G75*
G02*
X80402806Y-113733501I-1000000J0D01*
G01*
D17*
%TO.C,kibuzzard-68D4781A*%
G36*
X112284608Y-90105038D02*
G01*
X112356495Y-90115701D01*
X112426991Y-90133360D01*
X112495417Y-90157844D01*
X112561114Y-90188916D01*
X112623449Y-90226277D01*
X112681821Y-90269569D01*
X112735669Y-90318375D01*
X113382993Y-90965699D01*
X114671550Y-92254255D01*
X114671625Y-92254331D01*
X114720431Y-92308179D01*
X114763723Y-92366551D01*
X114801084Y-92428886D01*
X114832156Y-92494583D01*
X114856640Y-92563009D01*
X114874299Y-92633505D01*
X114884962Y-92705392D01*
X114888528Y-92777979D01*
X114884962Y-92850566D01*
X114874299Y-92922453D01*
X114856641Y-92992949D01*
X114832157Y-93061375D01*
X114801085Y-93127071D01*
X114763723Y-93189406D01*
X114720431Y-93247778D01*
X114671626Y-93301626D01*
X114617778Y-93350431D01*
X114559406Y-93393723D01*
X114497071Y-93431085D01*
X114431375Y-93462157D01*
X114362949Y-93486641D01*
X114292453Y-93504299D01*
X114220566Y-93514962D01*
X114147979Y-93518528D01*
X114075392Y-93514962D01*
X114003505Y-93504299D01*
X113933009Y-93486640D01*
X113864583Y-93462156D01*
X113798886Y-93431084D01*
X113736551Y-93393723D01*
X113678179Y-93350431D01*
X113624331Y-93301625D01*
X113624255Y-93301550D01*
X113467070Y-93144364D01*
X113034809Y-92712103D01*
X113022473Y-92699767D01*
X113580846Y-92699767D01*
X113589528Y-92751400D01*
X113611004Y-92804862D01*
X113646073Y-92859808D01*
X113695537Y-92915897D01*
X113743058Y-92957021D01*
X113795605Y-92994033D01*
X113845412Y-93023733D01*
X113883794Y-93042011D01*
X113955990Y-92925950D01*
X113882424Y-92890765D01*
X113838215Y-92861636D01*
X113792407Y-92820854D01*
X113749570Y-92765680D01*
X113736204Y-92715302D01*
X113774130Y-92630769D01*
X113821080Y-92601640D01*
X113872371Y-92603811D01*
X113926175Y-92630884D01*
X113980664Y-92676463D01*
X114015391Y-92711190D01*
X114108606Y-92617975D01*
X114066568Y-92575937D01*
X114035496Y-92537555D01*
X114016305Y-92494602D01*
X114015848Y-92450280D01*
X114041893Y-92406871D01*
X114109520Y-92376714D01*
X114178974Y-92410527D01*
X114231978Y-92484550D01*
X114260308Y-92564971D01*
X114382767Y-92522933D01*
X114350781Y-92424235D01*
X114320167Y-92368260D01*
X114275844Y-92315484D01*
X114228437Y-92274018D01*
X114181258Y-92244659D01*
X114089871Y-92219985D01*
X114005339Y-92236891D01*
X113931316Y-92288982D01*
X113885622Y-92373058D01*
X113889278Y-92471756D01*
X113827706Y-92455420D01*
X113767276Y-92457591D01*
X113710044Y-92478496D01*
X113658069Y-92518363D01*
X113598667Y-92603353D01*
X113580846Y-92699767D01*
X113022473Y-92699767D01*
X112678400Y-92355694D01*
X113159095Y-92355694D01*
X113275157Y-92471756D01*
X113364944Y-92427205D01*
X113464328Y-92375800D01*
X113533426Y-92338991D01*
X113601814Y-92301675D01*
X113669492Y-92263851D01*
X113735341Y-92226229D01*
X113798246Y-92189523D01*
X113858206Y-92153729D01*
X113937256Y-92104837D01*
X113998942Y-92064170D01*
X113880139Y-91945367D01*
X113825878Y-91985920D01*
X113761792Y-92030814D01*
X113691310Y-92078221D01*
X113617857Y-92126313D01*
X113542920Y-92173834D01*
X113467983Y-92219528D01*
X113396245Y-92261338D01*
X113330903Y-92297207D01*
X113366201Y-92232665D01*
X113408125Y-92161497D01*
X113454275Y-92087017D01*
X113502253Y-92012536D01*
X113550803Y-91939313D01*
X113598667Y-91868602D01*
X113643446Y-91803717D01*
X113682743Y-91747971D01*
X113564853Y-91630082D01*
X113519046Y-91700336D01*
X113469354Y-91779500D01*
X113417149Y-91865975D01*
X113363802Y-91958161D01*
X113328009Y-92022285D01*
X113292520Y-92087930D01*
X113257336Y-92155101D01*
X113223066Y-92222675D01*
X113190319Y-92289541D01*
X113159095Y-92355694D01*
X112678400Y-92355694D01*
X112553200Y-92230494D01*
X112335699Y-92012993D01*
X112108603Y-91785897D01*
X112666976Y-91785897D01*
X112675658Y-91837530D01*
X112697134Y-91890992D01*
X112732203Y-91945938D01*
X112781668Y-92002027D01*
X112829188Y-92043151D01*
X112881735Y-92080163D01*
X112931542Y-92109863D01*
X112969924Y-92128141D01*
X113042120Y-92012080D01*
X112968554Y-91976896D01*
X112924345Y-91947766D01*
X112878537Y-91906985D01*
X112835700Y-91851810D01*
X112822334Y-91801433D01*
X112860260Y-91716899D01*
X112907210Y-91687770D01*
X112958500Y-91689940D01*
X113012305Y-91717013D01*
X113066794Y-91762593D01*
X113101521Y-91797320D01*
X113194736Y-91704105D01*
X113152698Y-91662067D01*
X113121626Y-91623685D01*
X113102435Y-91580733D01*
X113101979Y-91536410D01*
X113128023Y-91493001D01*
X113195650Y-91462844D01*
X113265105Y-91496657D01*
X113318109Y-91570680D01*
X113346438Y-91651101D01*
X113468897Y-91609063D01*
X113436912Y-91510365D01*
X113406297Y-91454390D01*
X113361974Y-91401615D01*
X113314567Y-91360148D01*
X113267388Y-91330789D01*
X113176001Y-91306115D01*
X113091469Y-91323021D01*
X113017445Y-91375112D01*
X112971752Y-91459188D01*
X112975408Y-91557886D01*
X112913836Y-91541550D01*
X112853406Y-91543721D01*
X112796175Y-91564626D01*
X112744199Y-91604494D01*
X112684797Y-91689483D01*
X112666976Y-91785897D01*
X112108603Y-91785897D01*
X111688375Y-91365669D01*
X111639569Y-91311821D01*
X111596277Y-91253449D01*
X111558916Y-91191114D01*
X111527844Y-91125417D01*
X111503360Y-91056991D01*
X111485701Y-90986495D01*
X111475038Y-90914608D01*
X111471472Y-90842021D01*
X111475038Y-90769434D01*
X111485701Y-90697547D01*
X111503359Y-90627051D01*
X111527843Y-90558625D01*
X111558915Y-90492929D01*
X111596277Y-90430594D01*
X111639569Y-90372222D01*
X111688374Y-90318374D01*
X111742222Y-90269569D01*
X111800594Y-90226277D01*
X111862929Y-90188915D01*
X111928625Y-90157843D01*
X111997051Y-90133359D01*
X112067547Y-90115701D01*
X112139434Y-90105038D01*
X112212021Y-90101472D01*
X112284608Y-90105038D01*
G37*
%TO.C,kibuzzard-67B62470*%
G36*
X112300460Y-88608462D02*
G01*
X112316453Y-88625369D01*
X112330618Y-88644103D01*
X111950448Y-89024273D01*
X111939482Y-89015135D01*
X111929429Y-89005082D01*
X111879623Y-88926032D01*
X111877796Y-88843784D01*
X111915721Y-88760165D01*
X111947478Y-88718127D01*
X111986088Y-88676088D01*
X112062854Y-88610290D01*
X112143274Y-88568252D01*
X112223238Y-88563226D01*
X112300460Y-88608462D01*
G37*
G36*
X111359174Y-87654382D02*
G01*
X111390246Y-87716525D01*
X111374710Y-87785980D01*
X111324904Y-87861374D01*
X111290291Y-87900784D01*
X111251337Y-87941337D01*
X111210670Y-87980405D01*
X111170917Y-88015361D01*
X111095523Y-88065167D01*
X111026525Y-88080246D01*
X110964382Y-88049174D01*
X110933768Y-87987488D01*
X110948847Y-87917577D01*
X110998653Y-87842183D01*
X111033265Y-87802772D01*
X111072219Y-87762219D01*
X111112886Y-87723151D01*
X111152639Y-87688196D01*
X111228034Y-87638390D01*
X111297031Y-87623311D01*
X111359174Y-87654382D01*
G37*
G36*
X111030495Y-86910926D02*
G01*
X111102383Y-86921590D01*
X111172879Y-86939247D01*
X111241305Y-86963731D01*
X111307001Y-86994803D01*
X111369336Y-87032165D01*
X111427708Y-87075457D01*
X111481556Y-87124262D01*
X111481632Y-87124338D01*
X112778414Y-88421119D01*
X113425738Y-89068444D01*
X113474543Y-89122292D01*
X113517835Y-89180664D01*
X113555197Y-89242999D01*
X113586269Y-89308695D01*
X113610753Y-89377121D01*
X113628410Y-89447617D01*
X113639074Y-89519505D01*
X113642640Y-89592092D01*
X113639074Y-89664678D01*
X113628410Y-89736565D01*
X113610753Y-89807060D01*
X113586270Y-89875487D01*
X113555197Y-89941184D01*
X113517835Y-90003518D01*
X113474544Y-90061890D01*
X113425738Y-90115738D01*
X113371890Y-90164544D01*
X113313518Y-90207835D01*
X113251184Y-90245197D01*
X113185487Y-90276270D01*
X113117060Y-90300753D01*
X113046565Y-90318410D01*
X112974678Y-90329074D01*
X112902092Y-90332640D01*
X112829505Y-90329074D01*
X112757617Y-90318410D01*
X112687121Y-90300753D01*
X112618695Y-90276269D01*
X112552999Y-90245197D01*
X112490664Y-90207835D01*
X112432292Y-90164543D01*
X112378444Y-90115738D01*
X111731119Y-89468414D01*
X111610488Y-89347783D01*
X111274185Y-89011479D01*
X111122483Y-88859777D01*
X111721980Y-88859777D01*
X111729976Y-88927860D01*
X111753966Y-88993201D01*
X111792348Y-89055573D01*
X111843525Y-89114746D01*
X111905668Y-89170493D01*
X111977864Y-89221669D01*
X112529842Y-88669691D01*
X112468612Y-88586530D01*
X112408297Y-88520731D01*
X112350837Y-88471496D01*
X112289951Y-88435285D01*
X112226208Y-88413808D01*
X112160181Y-88408782D01*
X112091756Y-88420319D01*
X112020816Y-88448536D01*
X111947478Y-88495143D01*
X111871855Y-88561855D01*
X111804000Y-88639534D01*
X111757621Y-88715385D01*
X111730891Y-88788951D01*
X111721980Y-88859777D01*
X111122483Y-88859777D01*
X110674685Y-88411980D01*
X111155381Y-88411980D01*
X111514532Y-88771131D01*
X111607747Y-88677917D01*
X111484374Y-88554545D01*
X111863630Y-88175289D01*
X111987003Y-88298661D01*
X112080218Y-88205446D01*
X111721067Y-87846295D01*
X111627852Y-87939510D01*
X111750310Y-88061968D01*
X111371054Y-88441224D01*
X111248596Y-88318766D01*
X111155381Y-88411980D01*
X110674685Y-88411980D01*
X110637217Y-88374512D01*
X110434338Y-88171632D01*
X110434262Y-88171556D01*
X110385457Y-88117708D01*
X110342165Y-88059336D01*
X110308565Y-88003278D01*
X110789122Y-88003278D01*
X110814254Y-88078063D01*
X110865685Y-88146044D01*
X110935138Y-88198947D01*
X111010685Y-88224840D01*
X111092325Y-88223723D01*
X111157038Y-88204989D01*
X111224150Y-88170719D01*
X111293660Y-88120913D01*
X111365571Y-88055571D01*
X111430827Y-87983575D01*
X111480376Y-87913807D01*
X111514218Y-87846266D01*
X111532352Y-87780953D01*
X111533114Y-87698959D01*
X111507982Y-87624174D01*
X111456958Y-87556598D01*
X111387555Y-87503746D01*
X111312161Y-87478005D01*
X111230775Y-87479377D01*
X111166262Y-87498310D01*
X111099292Y-87532723D01*
X111029867Y-87582615D01*
X110957985Y-87647985D01*
X110892672Y-87719924D01*
X110842951Y-87789521D01*
X110808824Y-87856776D01*
X110790290Y-87921689D01*
X110789122Y-88003278D01*
X110308565Y-88003278D01*
X110304803Y-87997001D01*
X110273731Y-87931305D01*
X110249247Y-87862879D01*
X110231590Y-87792383D01*
X110220926Y-87720495D01*
X110217360Y-87647908D01*
X110220926Y-87575322D01*
X110231590Y-87503435D01*
X110249247Y-87432940D01*
X110273730Y-87364513D01*
X110304803Y-87298816D01*
X110342165Y-87236482D01*
X110385456Y-87178110D01*
X110434262Y-87124262D01*
X110488110Y-87075456D01*
X110546482Y-87032165D01*
X110608816Y-86994803D01*
X110674513Y-86963730D01*
X110742940Y-86939247D01*
X110813435Y-86921590D01*
X110885322Y-86910926D01*
X110957908Y-86907360D01*
X111030495Y-86910926D01*
G37*
%TO.C,kibuzzard-68D47809*%
G36*
X117011501Y-87999504D02*
G01*
X117027494Y-88016410D01*
X117041659Y-88035145D01*
X116661490Y-88415314D01*
X116650522Y-88406176D01*
X116640470Y-88396123D01*
X116590664Y-88317073D01*
X116588836Y-88234824D01*
X116626762Y-88151206D01*
X116658519Y-88109167D01*
X116697130Y-88067130D01*
X116773895Y-88001331D01*
X116854315Y-87959293D01*
X116934279Y-87954267D01*
X117011501Y-87999504D01*
G37*
G36*
X116008158Y-86568589D02*
G01*
X116080046Y-86579252D01*
X116150542Y-86596911D01*
X116218967Y-86621393D01*
X116284664Y-86652466D01*
X116346999Y-86689827D01*
X116405371Y-86733120D01*
X116459219Y-86781924D01*
X117106543Y-87429249D01*
X118427999Y-88750705D01*
X118428076Y-88750781D01*
X118476880Y-88804629D01*
X118520173Y-88863001D01*
X118557534Y-88925336D01*
X118588607Y-88991033D01*
X118613089Y-89059458D01*
X118630748Y-89129954D01*
X118641411Y-89201842D01*
X118644977Y-89274428D01*
X118641411Y-89347015D01*
X118630748Y-89418902D01*
X118613090Y-89489398D01*
X118588607Y-89557824D01*
X118557534Y-89623521D01*
X118520173Y-89685856D01*
X118476881Y-89744227D01*
X118428076Y-89798076D01*
X118374227Y-89846881D01*
X118315856Y-89890173D01*
X118253521Y-89927534D01*
X118187824Y-89958607D01*
X118119398Y-89983090D01*
X118048902Y-90000748D01*
X117977015Y-90011411D01*
X117904428Y-90014977D01*
X117831842Y-90011411D01*
X117759954Y-90000748D01*
X117689458Y-89983089D01*
X117621033Y-89958607D01*
X117555336Y-89927534D01*
X117493001Y-89890173D01*
X117434629Y-89846880D01*
X117380781Y-89798076D01*
X117380705Y-89797999D01*
X117149496Y-89566790D01*
X116730030Y-89147324D01*
X117238141Y-89147324D01*
X117284292Y-89226373D01*
X117324388Y-89280178D01*
X117377963Y-89338323D01*
X117433024Y-89384017D01*
X117492197Y-89415088D01*
X117554911Y-89431195D01*
X117620596Y-89431994D01*
X117688907Y-89417144D01*
X117759504Y-89386301D01*
X117831585Y-89338894D01*
X117904352Y-89274352D01*
X117967524Y-89201585D01*
X118012645Y-89127675D01*
X118040861Y-89054223D01*
X118053313Y-88982827D01*
X118050228Y-88914173D01*
X118031837Y-88848946D01*
X117999509Y-88788516D01*
X117954615Y-88734255D01*
X117890644Y-88680337D01*
X117833984Y-88646523D01*
X117788747Y-88628703D01*
X117759047Y-88620935D01*
X117698731Y-88739738D01*
X117770927Y-88766241D01*
X117841295Y-88816503D01*
X117894299Y-88898752D01*
X117898868Y-88984655D01*
X117862315Y-89072387D01*
X117830100Y-89116253D01*
X117790118Y-89160118D01*
X117724878Y-89218250D01*
X117664410Y-89257395D01*
X117608715Y-89277551D01*
X117533207Y-89274009D01*
X117466608Y-89231400D01*
X117445589Y-89208554D01*
X117426398Y-89183878D01*
X117632933Y-88977344D01*
X117520527Y-88864938D01*
X117238141Y-89147324D01*
X116730030Y-89147324D01*
X116624021Y-89041315D01*
X116321530Y-88738824D01*
X116293200Y-88710494D01*
X116773895Y-88710494D01*
X116864368Y-88800967D01*
X116953419Y-88764616D01*
X117043893Y-88729889D01*
X117135787Y-88696787D01*
X117229206Y-88665207D01*
X117324248Y-88635049D01*
X117420915Y-88606314D01*
X117045315Y-88981914D01*
X117146754Y-89083353D01*
X117712440Y-88517668D01*
X117621966Y-88427194D01*
X117554454Y-88443530D01*
X117483515Y-88463293D01*
X117411320Y-88484997D01*
X117340037Y-88507158D01*
X117270812Y-88529776D01*
X117204784Y-88552851D01*
X117144583Y-88574898D01*
X117092836Y-88594433D01*
X117441020Y-88246248D01*
X117339581Y-88144809D01*
X116773895Y-88710494D01*
X116293200Y-88710494D01*
X116059249Y-88476543D01*
X115833524Y-88250818D01*
X116433021Y-88250818D01*
X116441018Y-88318902D01*
X116465007Y-88384242D01*
X116503390Y-88446614D01*
X116554567Y-88505787D01*
X116616709Y-88561533D01*
X116688905Y-88612710D01*
X117240883Y-88060733D01*
X117179653Y-87977571D01*
X117119338Y-87911772D01*
X117061878Y-87862537D01*
X117000991Y-87826325D01*
X116937249Y-87804850D01*
X116871222Y-87799823D01*
X116802796Y-87811360D01*
X116731857Y-87839577D01*
X116658519Y-87886184D01*
X116582896Y-87952896D01*
X116515041Y-88030575D01*
X116468662Y-88106427D01*
X116441932Y-88179993D01*
X116433021Y-88250818D01*
X115833524Y-88250818D01*
X115411924Y-87829219D01*
X115363120Y-87775371D01*
X115319827Y-87716999D01*
X115282466Y-87654664D01*
X115251393Y-87588967D01*
X115226911Y-87520542D01*
X115209252Y-87450046D01*
X115198589Y-87378158D01*
X115195023Y-87305572D01*
X115198589Y-87232985D01*
X115209252Y-87161098D01*
X115226910Y-87090602D01*
X115251393Y-87022176D01*
X115282466Y-86956479D01*
X115319827Y-86894144D01*
X115363119Y-86835773D01*
X115411924Y-86781924D01*
X115465773Y-86733119D01*
X115524144Y-86689827D01*
X115586479Y-86652466D01*
X115652176Y-86621393D01*
X115720602Y-86596910D01*
X115791098Y-86579252D01*
X115862985Y-86568589D01*
X115935572Y-86565023D01*
X116008158Y-86568589D01*
G37*
%TD*%
%LPC*%
D19*
%TO.C,BTN1*%
X99458401Y-41815997D03*
X97828401Y-41815997D03*
X96088401Y-41815997D03*
X94458401Y-41815997D03*
D20*
X100458401Y-44065997D03*
X93458401Y-44065997D03*
%TD*%
D21*
%TO.C,J3*%
X96775000Y-73150000D03*
D22*
X98775000Y-74750000D03*
D23*
X98775000Y-77250000D03*
%TD*%
D24*
%TO.C,LED1*%
X103242001Y-43025997D03*
X105782001Y-43025997D03*
X103242001Y-45565997D03*
X105782001Y-45565997D03*
%TD*%
D25*
%TO.C,RV1*%
X109950000Y-67700000D03*
D26*
X107450000Y-62700000D03*
X104950000Y-67700000D03*
%TD*%
D21*
%TO.C,M1*%
X62525000Y-122600000D03*
D27*
X60525000Y-121000000D03*
D23*
X60525000Y-118500000D03*
%TD*%
D28*
%TO.C,J5*%
X116268401Y-44880997D03*
X110488401Y-44880997D03*
D29*
X117698401Y-45380997D03*
D30*
X117698401Y-41200997D03*
D29*
X109058401Y-45380997D03*
D30*
X109058401Y-41200997D03*
%TD*%
D31*
%TO.C,J1*%
X125150000Y-135744999D03*
X36250000Y-135744999D03*
D32*
X120070000Y-133204999D03*
D33*
X117530000Y-133204999D03*
X114990000Y-133204999D03*
X112450000Y-133204999D03*
X109910000Y-133204999D03*
X107370000Y-133204999D03*
X104830000Y-133204999D03*
X102290000Y-133204999D03*
X99750000Y-133204999D03*
X97210000Y-133204999D03*
X94670000Y-133204999D03*
X92130000Y-133204999D03*
X89590000Y-133204999D03*
X87050000Y-133204999D03*
X84510000Y-133204999D03*
X81970000Y-133204999D03*
X79430000Y-133204999D03*
X76890000Y-133204999D03*
X74350000Y-133204999D03*
X71810000Y-133204999D03*
X69270000Y-133204999D03*
X66730000Y-133204999D03*
X64190000Y-133204999D03*
X61650000Y-133204999D03*
X59110000Y-133204999D03*
X56570000Y-133204999D03*
X54030000Y-133204999D03*
X51490000Y-133204999D03*
X48950000Y-133204999D03*
X46410000Y-133204999D03*
X43870000Y-133204999D03*
X41330000Y-133204999D03*
X120070000Y-130664999D03*
X117530000Y-130664999D03*
X114990000Y-130664999D03*
X112450000Y-130664999D03*
X109910000Y-130664999D03*
X107370000Y-130664999D03*
X104830000Y-130664999D03*
X102290000Y-130664999D03*
X99750000Y-130664999D03*
X97210000Y-130664999D03*
X94670000Y-130664999D03*
X92130000Y-130664999D03*
X89590000Y-130664999D03*
X87050000Y-130664999D03*
X84510000Y-130664999D03*
X81970000Y-130664999D03*
X79430000Y-130664999D03*
X76890000Y-130664999D03*
X74350000Y-130664999D03*
X71810000Y-130664999D03*
X69270000Y-130664999D03*
X66730000Y-130664999D03*
X64190000Y-130664999D03*
X61650000Y-130664999D03*
X59110000Y-130664999D03*
X56570000Y-130664999D03*
X54030000Y-130664999D03*
X51490000Y-130664999D03*
X48950000Y-130664999D03*
X46410000Y-130664999D03*
X43870000Y-130664999D03*
X41330000Y-130664999D03*
X120070000Y-128124999D03*
X117530000Y-128124999D03*
X114990000Y-128124999D03*
X112450000Y-128124999D03*
X109910000Y-128124999D03*
X107370000Y-128124999D03*
X104830000Y-128124999D03*
X102290000Y-128124999D03*
X99750000Y-128124999D03*
X97210000Y-128124999D03*
X94670000Y-128124999D03*
X92130000Y-128124999D03*
X89590000Y-128124999D03*
X87050000Y-128124999D03*
X84510000Y-128124999D03*
X81970000Y-128124999D03*
X79430000Y-128124999D03*
X76890000Y-128124999D03*
X74350000Y-128124999D03*
X71810000Y-128124999D03*
X69270000Y-128124999D03*
X66730000Y-128124999D03*
X64190000Y-128124999D03*
X61650000Y-128124999D03*
X59110000Y-128124999D03*
X56570000Y-128124999D03*
X54030000Y-128124999D03*
X51490000Y-128124999D03*
X48950000Y-128124999D03*
X46410000Y-128124999D03*
X43870000Y-128124999D03*
X41330000Y-128124999D03*
%TD*%
D34*
%TO.C,J4*%
X112145923Y-90704077D03*
D35*
X113043949Y-89806051D03*
X113941974Y-88908026D03*
X114840000Y-88010000D03*
X115738025Y-87111975D03*
X116636051Y-86213949D03*
%TD*%
D36*
%TO.C,J2*%
X88422806Y-122753501D03*
X88402806Y-64733501D03*
X77402806Y-109733501D03*
X77402806Y-77733501D03*
X45402806Y-109733501D03*
X45402806Y-77733501D03*
X39402806Y-122733501D03*
X39402806Y-64733501D03*
D37*
X89672806Y-117833501D03*
X89672806Y-115293501D03*
X89672806Y-112753501D03*
X89672806Y-110213501D03*
X89672806Y-107673501D03*
X89672806Y-105133501D03*
X89672806Y-102593501D03*
X89672806Y-100053501D03*
X89672806Y-97513501D03*
X89672806Y-94973501D03*
X89672806Y-92433501D03*
X89672806Y-89893501D03*
X89703931Y-87304492D03*
X89672806Y-84813501D03*
X89672806Y-82273501D03*
X89672806Y-79733501D03*
X89672806Y-77193501D03*
X89672806Y-74653501D03*
X89672806Y-72113501D03*
X89672806Y-69573501D03*
X87132806Y-69573501D03*
X87132806Y-72113501D03*
X87132806Y-74653501D03*
X87132806Y-77193501D03*
X87132806Y-79733501D03*
X87132806Y-82273501D03*
X87132806Y-84813501D03*
X87163931Y-87304492D03*
X87132806Y-89893501D03*
X87132806Y-92433501D03*
X87132806Y-94973501D03*
X87132806Y-97513501D03*
X87132806Y-100053501D03*
X87132806Y-102593501D03*
X87132806Y-105133501D03*
X87132806Y-107673501D03*
X87132806Y-110213501D03*
X87132806Y-112753501D03*
X87132806Y-115293501D03*
D38*
X87132806Y-117833501D03*
D37*
X87612806Y-60293501D03*
X85072806Y-60293501D03*
X82532806Y-60293501D03*
X79992806Y-60293501D03*
X77452806Y-60293501D03*
X77452806Y-57753501D03*
X79992806Y-57753501D03*
X82532806Y-57753501D03*
X85072806Y-57753501D03*
X87612806Y-57753501D03*
%TD*%
%LPD*%
M02*
