%TF.GenerationSoftware,KiCad,Pcbnew,8.0.4*%
%TF.CreationDate,2025-02-21T02:52:24+01:00*%
%TF.ProjectId,OrangePie,4f72616e-6765-4506-9965-2e6b69636164,1.0.0*%
%TF.SameCoordinates,Original*%
%TF.FileFunction,Paste,Top*%
%TF.FilePolarity,Positive*%
%FSLAX46Y46*%
G04 Gerber Fmt 4.6, Leading zero omitted, Abs format (unit mm)*
G04 Created by KiCad (PCBNEW 8.0.4) date 2025-02-21 02:52:24*
%MOMM*%
%LPD*%
G01*
G04 APERTURE LIST*
G04 Aperture macros list*
%AMRoundRect*
0 Rectangle with rounded corners*
0 $1 Rounding radius*
0 $2 $3 $4 $5 $6 $7 $8 $9 X,Y pos of 4 corners*
0 Add a 4 corners polygon primitive as box body*
4,1,4,$2,$3,$4,$5,$6,$7,$8,$9,$2,$3,0*
0 Add four circle primitives for the rounded corners*
1,1,$1+$1,$2,$3*
1,1,$1+$1,$4,$5*
1,1,$1+$1,$6,$7*
1,1,$1+$1,$8,$9*
0 Add four rect primitives between the rounded corners*
20,1,$1+$1,$2,$3,$4,$5,0*
20,1,$1+$1,$4,$5,$6,$7,0*
20,1,$1+$1,$6,$7,$8,$9,0*
20,1,$1+$1,$8,$9,$2,$3,0*%
G04 Aperture macros list end*
%ADD10R,0.550000X0.300000*%
%ADD11R,0.300000X0.450000*%
%ADD12R,2.350000X0.280000*%
%ADD13R,0.300000X0.730000*%
%ADD14R,0.725000X0.300000*%
%ADD15R,0.300000X0.725000*%
%ADD16R,1.575000X1.050000*%
%ADD17R,1.150000X1.050000*%
%ADD18R,2.175000X1.200000*%
%ADD19R,0.650000X0.455000*%
%ADD20R,0.580000X0.380000*%
%ADD21RoundRect,0.140000X0.170000X-0.140000X0.170000X0.140000X-0.170000X0.140000X-0.170000X-0.140000X0*%
%ADD22RoundRect,0.225000X0.250000X-0.225000X0.250000X0.225000X-0.250000X0.225000X-0.250000X-0.225000X0*%
%ADD23RoundRect,0.140000X-0.170000X0.140000X-0.170000X-0.140000X0.170000X-0.140000X0.170000X0.140000X0*%
%ADD24RoundRect,0.250000X0.450000X0.350000X-0.450000X0.350000X-0.450000X-0.350000X0.450000X-0.350000X0*%
%ADD25RoundRect,0.140000X-0.140000X-0.170000X0.140000X-0.170000X0.140000X0.170000X-0.140000X0.170000X0*%
%ADD26RoundRect,0.140000X0.140000X0.170000X-0.140000X0.170000X-0.140000X-0.170000X0.140000X-0.170000X0*%
%ADD27RoundRect,0.150000X0.150000X-0.587500X0.150000X0.587500X-0.150000X0.587500X-0.150000X-0.587500X0*%
%ADD28RoundRect,0.160000X-0.325000X0.160000X-0.325000X-0.160000X0.325000X-0.160000X0.325000X0.160000X0*%
%ADD29RoundRect,0.075000X-0.075000X0.350000X-0.075000X-0.350000X0.075000X-0.350000X0.075000X0.350000X0*%
%ADD30RoundRect,0.150000X0.150000X-0.512500X0.150000X0.512500X-0.150000X0.512500X-0.150000X-0.512500X0*%
%ADD31R,1.200000X1.400000*%
%ADD32RoundRect,0.220000X0.220000X0.255000X-0.220000X0.255000X-0.220000X-0.255000X0.220000X-0.255000X0*%
%ADD33RoundRect,0.225000X-0.225000X-0.250000X0.225000X-0.250000X0.225000X0.250000X-0.225000X0.250000X0*%
%ADD34RoundRect,0.060000X-0.890000X-0.180000X0.890000X-0.180000X0.890000X0.180000X-0.890000X0.180000X0*%
%ADD35RoundRect,0.150000X-0.590000X-0.150000X0.590000X-0.150000X0.590000X0.150000X-0.590000X0.150000X0*%
%ADD36RoundRect,0.150000X0.587500X0.150000X-0.587500X0.150000X-0.587500X-0.150000X0.587500X-0.150000X0*%
%ADD37RoundRect,0.135000X0.185000X-0.135000X0.185000X0.135000X-0.185000X0.135000X-0.185000X-0.135000X0*%
%ADD38RoundRect,0.150000X-0.150000X0.512500X-0.150000X-0.512500X0.150000X-0.512500X0.150000X0.512500X0*%
%ADD39RoundRect,0.250000X0.550000X-1.500000X0.550000X1.500000X-0.550000X1.500000X-0.550000X-1.500000X0*%
%ADD40RoundRect,0.250000X0.475000X-0.250000X0.475000X0.250000X-0.475000X0.250000X-0.475000X-0.250000X0*%
%ADD41RoundRect,0.150000X-0.150000X0.825000X-0.150000X-0.825000X0.150000X-0.825000X0.150000X0.825000X0*%
%ADD42RoundRect,0.250000X0.550000X-1.050000X0.550000X1.050000X-0.550000X1.050000X-0.550000X-1.050000X0*%
%ADD43RoundRect,0.250000X0.250000X0.475000X-0.250000X0.475000X-0.250000X-0.475000X0.250000X-0.475000X0*%
%ADD44RoundRect,0.075000X0.075000X0.662500X-0.075000X0.662500X-0.075000X-0.662500X0.075000X-0.662500X0*%
%ADD45RoundRect,0.075000X0.662500X0.075000X-0.662500X0.075000X-0.662500X-0.075000X0.662500X-0.075000X0*%
%ADD46RoundRect,0.250000X0.550000X-0.300000X0.550000X0.300000X-0.550000X0.300000X-0.550000X-0.300000X0*%
%ADD47RoundRect,0.150000X-0.587500X-0.150000X0.587500X-0.150000X0.587500X0.150000X-0.587500X0.150000X0*%
%ADD48RoundRect,0.135000X0.135000X0.185000X-0.135000X0.185000X-0.135000X-0.185000X0.135000X-0.185000X0*%
%ADD49RoundRect,0.250000X0.650000X-0.325000X0.650000X0.325000X-0.650000X0.325000X-0.650000X-0.325000X0*%
%ADD50RoundRect,0.250000X1.050000X0.550000X-1.050000X0.550000X-1.050000X-0.550000X1.050000X-0.550000X0*%
%ADD51R,2.950000X3.500000*%
%ADD52RoundRect,0.250000X-0.325000X-0.650000X0.325000X-0.650000X0.325000X0.650000X-0.325000X0.650000X0*%
%ADD53RoundRect,0.250000X-0.250000X-0.475000X0.250000X-0.475000X0.250000X0.475000X-0.250000X0.475000X0*%
%ADD54RoundRect,0.150000X0.725000X0.150000X-0.725000X0.150000X-0.725000X-0.150000X0.725000X-0.150000X0*%
%ADD55RoundRect,0.150000X0.150000X0.425000X-0.150000X0.425000X-0.150000X-0.425000X0.150000X-0.425000X0*%
%ADD56RoundRect,0.075000X0.075000X0.500000X-0.075000X0.500000X-0.075000X-0.500000X0.075000X-0.500000X0*%
%ADD57O,1.000000X2.100000*%
%ADD58O,1.000000X1.800000*%
%ADD59R,1.400000X1.200000*%
%ADD60RoundRect,0.250000X-0.475000X0.250000X-0.475000X-0.250000X0.475000X-0.250000X0.475000X0.250000X0*%
%ADD61RoundRect,0.375000X-0.625000X-0.375000X0.625000X-0.375000X0.625000X0.375000X-0.625000X0.375000X0*%
%ADD62RoundRect,0.500000X-0.500000X-1.400000X0.500000X-1.400000X0.500000X1.400000X-0.500000X1.400000X0*%
%ADD63RoundRect,0.100000X0.712500X0.100000X-0.712500X0.100000X-0.712500X-0.100000X0.712500X-0.100000X0*%
G04 APERTURE END LIST*
D10*
%TO.C,U2*%
X106425000Y-107400000D03*
X106425000Y-107850000D03*
X106425000Y-108750000D03*
X106425000Y-109200000D03*
D11*
X106975000Y-110300000D03*
X107425000Y-110300000D03*
X107875000Y-110300000D03*
X108575000Y-110300000D03*
X109025000Y-110300000D03*
D12*
X108000000Y-109935000D03*
D13*
X109475000Y-110160000D03*
D14*
X110387500Y-109650000D03*
X110387500Y-109200000D03*
X110387500Y-108750000D03*
X110387500Y-108300000D03*
X110387500Y-107850000D03*
X110387500Y-107400000D03*
X110387500Y-106950000D03*
D15*
X109925000Y-106287500D03*
X109475000Y-106287500D03*
X109025000Y-106287500D03*
X108575000Y-106287500D03*
X107875000Y-106287500D03*
X107425000Y-106287500D03*
X106975000Y-106287500D03*
D16*
X108937500Y-107475000D03*
D17*
X107275000Y-107475000D03*
D18*
X107787500Y-108900000D03*
D19*
X109200000Y-108527500D03*
D20*
X109435000Y-109215000D03*
%TD*%
D21*
%TO.C,R32*%
X106675000Y-103975000D03*
X106675000Y-102975000D03*
%TD*%
D22*
%TO.C,C12*%
X103600000Y-110600000D03*
X103600000Y-109040000D03*
%TD*%
D23*
%TO.C,R26*%
X69487500Y-116300000D03*
X69487500Y-117300000D03*
%TD*%
D21*
%TO.C,R21*%
X106000000Y-49140000D03*
X106000000Y-48140000D03*
%TD*%
D24*
%TO.C,X1*%
X122250000Y-58325000D03*
X120050000Y-58325000D03*
X120050000Y-59925000D03*
X122250000Y-59925000D03*
%TD*%
D21*
%TO.C,R5*%
X107400000Y-45700000D03*
X107400000Y-44700000D03*
%TD*%
D23*
%TO.C,C27*%
X116469602Y-124602500D03*
X116469602Y-125562500D03*
%TD*%
%TO.C,R33*%
X107400000Y-42700000D03*
X107400000Y-43700000D03*
%TD*%
D25*
%TO.C,R36*%
X108575000Y-102575000D03*
X109575000Y-102575000D03*
%TD*%
D21*
%TO.C,C25*%
X123200000Y-87830000D03*
X123200000Y-88790000D03*
%TD*%
D26*
%TO.C,C16*%
X96500000Y-46000000D03*
X95500000Y-46000000D03*
%TD*%
D25*
%TO.C,R19*%
X113200000Y-65800000D03*
X114200000Y-65800000D03*
%TD*%
D23*
%TO.C,C34*%
X126350000Y-63832200D03*
X126350000Y-64832200D03*
%TD*%
%TO.C,R22*%
X115777641Y-63016489D03*
X115777641Y-64016489D03*
%TD*%
D27*
%TO.C,Q1*%
X113286128Y-125700000D03*
X115186128Y-125700000D03*
X114236128Y-123825000D03*
%TD*%
D28*
%TO.C,U7*%
X101725000Y-124150000D03*
X100525000Y-124150000D03*
X101725000Y-124950000D03*
X100525000Y-124950000D03*
D29*
X102100000Y-123100000D03*
X101450000Y-123100000D03*
X100800000Y-123100000D03*
X100150000Y-123100000D03*
X100150000Y-126000000D03*
X100800000Y-126000000D03*
X101450000Y-126000000D03*
X102100000Y-126000000D03*
%TD*%
D23*
%TO.C,C18*%
X113250000Y-84262500D03*
X113250000Y-83262500D03*
%TD*%
D25*
%TO.C,R30*%
X111200000Y-47600000D03*
X112200000Y-47600000D03*
%TD*%
D30*
%TO.C,U5*%
X117736128Y-125657500D03*
X118686128Y-125657500D03*
X119636128Y-125657500D03*
X119636128Y-123382500D03*
X118686128Y-123382500D03*
X117736128Y-123382500D03*
%TD*%
D21*
%TO.C,R12*%
X93800000Y-105600000D03*
X93800000Y-104600000D03*
%TD*%
D23*
%TO.C,R13*%
X120936128Y-125000000D03*
X120936128Y-126000000D03*
%TD*%
D21*
%TO.C,R40*%
X85200000Y-73000000D03*
X85200000Y-72000000D03*
%TD*%
D31*
%TO.C,Y2*%
X94770000Y-50690000D03*
X94770000Y-52890000D03*
X96470000Y-52890000D03*
X96470000Y-50690000D03*
%TD*%
D25*
%TO.C,R27*%
X119300000Y-42800000D03*
X120300000Y-42800000D03*
%TD*%
D21*
%TO.C,C59*%
X115650000Y-115100000D03*
X115650000Y-114100000D03*
%TD*%
D32*
%TO.C,D3*%
X111220000Y-96800000D03*
X112800000Y-96800000D03*
%TD*%
D26*
%TO.C,C36*%
X109400000Y-76800000D03*
X108400000Y-76800000D03*
%TD*%
D33*
%TO.C,C62*%
X99420000Y-105825000D03*
X100980000Y-105825000D03*
%TD*%
D26*
%TO.C,R4*%
X109575000Y-103475000D03*
X108575000Y-103475000D03*
%TD*%
D21*
%TO.C,R15*%
X103400000Y-126300000D03*
X103400000Y-125300000D03*
%TD*%
D34*
%TO.C,U9*%
X117600000Y-61900000D03*
X117600000Y-62550000D03*
X117600000Y-63200000D03*
X117600000Y-63850000D03*
X117600000Y-64500000D03*
X117600000Y-65150000D03*
X117600000Y-65800000D03*
X117600000Y-66450000D03*
X117600000Y-67100000D03*
X117600000Y-67750000D03*
X117600000Y-68400000D03*
X117600000Y-69050000D03*
X117600000Y-69700000D03*
X117600000Y-70350000D03*
X124610000Y-70350000D03*
X124610000Y-69700000D03*
X124610000Y-69050000D03*
X124610000Y-68400000D03*
X124610000Y-67750000D03*
X124610000Y-67100000D03*
X124610000Y-66450000D03*
X124610000Y-65800000D03*
X124610000Y-65150000D03*
X124610000Y-64500000D03*
X124610000Y-63850000D03*
X124610000Y-63200000D03*
X124610000Y-62550000D03*
X124610000Y-61900000D03*
%TD*%
D23*
%TO.C,R1*%
X107575000Y-102975000D03*
X107575000Y-103975000D03*
%TD*%
D26*
%TO.C,C7*%
X107900000Y-105075000D03*
X106900000Y-105075000D03*
%TD*%
D25*
%TO.C,R39*%
X95500000Y-45000000D03*
X96500000Y-45000000D03*
%TD*%
D35*
%TO.C,Q5*%
X113600000Y-107100000D03*
X113600000Y-109000000D03*
X115480000Y-108050000D03*
%TD*%
D36*
%TO.C,Q4*%
X67737500Y-118200000D03*
X67737500Y-116300000D03*
X65862500Y-117250000D03*
%TD*%
D23*
%TO.C,R6*%
X112000000Y-106875000D03*
X112000000Y-107875000D03*
%TD*%
D25*
%TO.C,R16*%
X117700000Y-72160000D03*
X118700000Y-72160000D03*
%TD*%
D26*
%TO.C,C28*%
X101625000Y-121828183D03*
X100625000Y-121828183D03*
%TD*%
D37*
%TO.C,R9*%
X123200000Y-89790000D03*
X123200000Y-90810000D03*
%TD*%
D38*
%TO.C,U4*%
X96925000Y-104425000D03*
X95975000Y-104425000D03*
X95025000Y-104425000D03*
X95025000Y-106700000D03*
X95975000Y-106700000D03*
X96925000Y-106700000D03*
%TD*%
D21*
%TO.C,R18*%
X119200000Y-74660000D03*
X119200000Y-73660000D03*
%TD*%
%TO.C,C22*%
X111250000Y-91050000D03*
X111250000Y-92050000D03*
%TD*%
D39*
%TO.C,C50*%
X51650000Y-122600000D03*
X51650000Y-117000000D03*
%TD*%
D22*
%TO.C,C13*%
X102300000Y-110600000D03*
X102300000Y-109040000D03*
%TD*%
D26*
%TO.C,C19*%
X114750000Y-82762500D03*
X115750000Y-82762500D03*
%TD*%
%TO.C,C52*%
X104700000Y-49040000D03*
X103700000Y-49040000D03*
%TD*%
D21*
%TO.C,C14*%
X110575000Y-103475000D03*
X110575000Y-102475000D03*
%TD*%
D23*
%TO.C,R3*%
X111675000Y-104875000D03*
X111675000Y-105875000D03*
%TD*%
D25*
%TO.C,R24*%
X66225000Y-122950000D03*
X67225000Y-122950000D03*
%TD*%
D26*
%TO.C,C30*%
X109100000Y-121880900D03*
X108100000Y-121880900D03*
%TD*%
D21*
%TO.C,R41*%
X85200000Y-71000000D03*
X85200000Y-70000000D03*
%TD*%
%TO.C,C44*%
X118800000Y-60200000D03*
X118800000Y-59200000D03*
%TD*%
%TO.C,C29*%
X98800000Y-126300000D03*
X98800000Y-125300000D03*
%TD*%
D23*
%TO.C,C35*%
X115600000Y-69660000D03*
X115600000Y-70660000D03*
%TD*%
D40*
%TO.C,C33*%
X114000000Y-69950000D03*
X114000000Y-68050000D03*
%TD*%
D25*
%TO.C,R23*%
X66225000Y-124100000D03*
X67225000Y-124100000D03*
%TD*%
D36*
%TO.C,Q2*%
X97312500Y-113450000D03*
X97312500Y-111550000D03*
X95437500Y-112500000D03*
%TD*%
D41*
%TO.C,U11*%
X108420000Y-50890000D03*
X107150000Y-50890000D03*
X105880000Y-50890000D03*
X104610000Y-50890000D03*
X103340000Y-50890000D03*
X102070000Y-50890000D03*
X100800000Y-50890000D03*
X99530000Y-50890000D03*
X99530000Y-55840000D03*
X100800000Y-55840000D03*
X102070000Y-55840000D03*
X103340000Y-55840000D03*
X104610000Y-55840000D03*
X105880000Y-55840000D03*
X107150000Y-55840000D03*
X108420000Y-55840000D03*
%TD*%
D25*
%TO.C,C20*%
X117750000Y-82762500D03*
X116750000Y-82762500D03*
%TD*%
D26*
%TO.C,R29*%
X114800000Y-47600000D03*
X113800000Y-47600000D03*
%TD*%
D42*
%TO.C,C1*%
X112600000Y-116200000D03*
X112600000Y-112600000D03*
%TD*%
D43*
%TO.C,C57*%
X104350000Y-104600000D03*
X102450000Y-104600000D03*
%TD*%
D36*
%TO.C,U14*%
X44675000Y-125800000D03*
X44675000Y-123900000D03*
X42800000Y-124850000D03*
%TD*%
D23*
%TO.C,C53*%
X98070000Y-52410000D03*
X98070000Y-53370000D03*
%TD*%
D25*
%TO.C,C23*%
X122500000Y-93400000D03*
X121500000Y-93400000D03*
%TD*%
D28*
%TO.C,U6*%
X109200000Y-124193400D03*
X108000000Y-124193400D03*
X109200000Y-124993400D03*
X108000000Y-124993400D03*
D29*
X109575000Y-123143400D03*
X108925000Y-123143400D03*
X108275000Y-123143400D03*
X107625000Y-123143400D03*
X107625000Y-126043400D03*
X108275000Y-126043400D03*
X108925000Y-126043400D03*
X109575000Y-126043400D03*
%TD*%
D21*
%TO.C,C31*%
X106343270Y-126300000D03*
X106343270Y-125300000D03*
%TD*%
D43*
%TO.C,C10*%
X104350000Y-106725000D03*
X102450000Y-106725000D03*
%TD*%
D25*
%TO.C,C24*%
X122500000Y-92400000D03*
X121500000Y-92400000D03*
%TD*%
D21*
%TO.C,C38*%
X126350000Y-70100000D03*
X126350000Y-69100000D03*
%TD*%
D26*
%TO.C,C60*%
X98500000Y-46000000D03*
X97500000Y-46000000D03*
%TD*%
D25*
%TO.C,R7*%
X109400000Y-104475000D03*
X110400000Y-104475000D03*
%TD*%
D32*
%TO.C,D1*%
X111220000Y-95000000D03*
X112800000Y-95000000D03*
%TD*%
D21*
%TO.C,C15*%
X112000000Y-109772000D03*
X112000000Y-108772000D03*
%TD*%
D26*
%TO.C,C17*%
X120100000Y-109400000D03*
X119100000Y-109400000D03*
%TD*%
%TO.C,C43*%
X124495000Y-60125000D03*
X123495000Y-60125000D03*
%TD*%
D33*
%TO.C,C61*%
X99420000Y-104525000D03*
X100980000Y-104525000D03*
%TD*%
D23*
%TO.C,C42*%
X111925000Y-71360000D03*
X111925000Y-72360000D03*
%TD*%
D26*
%TO.C,R25*%
X70487500Y-118400000D03*
X69487500Y-118400000D03*
%TD*%
D44*
%TO.C,U3*%
X119750000Y-92762500D03*
X119250000Y-92762500D03*
X118750000Y-92762500D03*
X118250000Y-92762500D03*
X117750000Y-92762500D03*
X117250000Y-92762500D03*
X116750000Y-92762500D03*
X116250000Y-92762500D03*
X115750000Y-92762500D03*
X115250000Y-92762500D03*
X114750000Y-92762500D03*
X114250000Y-92762500D03*
D45*
X112837500Y-91350000D03*
X112837500Y-90850000D03*
X112837500Y-90350000D03*
X112837500Y-89850000D03*
X112837500Y-89350000D03*
X112837500Y-88850000D03*
X112837500Y-88350000D03*
X112837500Y-87850000D03*
X112837500Y-87350000D03*
X112837500Y-86850000D03*
X112837500Y-86350000D03*
X112837500Y-85850000D03*
D44*
X114250000Y-84437500D03*
X114750000Y-84437500D03*
X115250000Y-84437500D03*
X115750000Y-84437500D03*
X116250000Y-84437500D03*
X116750000Y-84437500D03*
X117250000Y-84437500D03*
X117750000Y-84437500D03*
X118250000Y-84437500D03*
X118750000Y-84437500D03*
X119250000Y-84437500D03*
X119750000Y-84437500D03*
D45*
X121162500Y-85850000D03*
X121162500Y-86350000D03*
X121162500Y-86850000D03*
X121162500Y-87350000D03*
X121162500Y-87850000D03*
X121162500Y-88350000D03*
X121162500Y-88850000D03*
X121162500Y-89350000D03*
X121162500Y-89850000D03*
X121162500Y-90350000D03*
X121162500Y-90850000D03*
X121162500Y-91350000D03*
%TD*%
D46*
%TO.C,D4*%
X56450000Y-121200000D03*
X56450000Y-118400000D03*
%TD*%
D47*
%TO.C,U1*%
X111725000Y-48850000D03*
X111725000Y-50750000D03*
X113600000Y-49800000D03*
%TD*%
D26*
%TO.C,C47*%
X95700000Y-61500000D03*
X94700000Y-61500000D03*
%TD*%
D23*
%TO.C,C32*%
X115600000Y-67810000D03*
X115600000Y-68810000D03*
%TD*%
D48*
%TO.C,R11*%
X114260000Y-96600000D03*
X115280000Y-96600000D03*
%TD*%
D49*
%TO.C,C6*%
X117400000Y-116360000D03*
X117400000Y-113400000D03*
%TD*%
D21*
%TO.C,R2*%
X112575000Y-105875000D03*
X112575000Y-104875000D03*
%TD*%
D50*
%TO.C,C2*%
X116905000Y-74210000D03*
X113305000Y-74210000D03*
%TD*%
D25*
%TO.C,R31*%
X119300000Y-40600000D03*
X120300000Y-40600000D03*
%TD*%
D26*
%TO.C,C9*%
X106775000Y-101875000D03*
X105775000Y-101875000D03*
%TD*%
D51*
%TO.C,L2*%
X108325000Y-114900000D03*
X102875000Y-114900000D03*
%TD*%
D26*
%TO.C,C45*%
X95700000Y-63400000D03*
X94700000Y-63400000D03*
%TD*%
D25*
%TO.C,C55*%
X119300000Y-41600000D03*
X120300000Y-41600000D03*
%TD*%
D52*
%TO.C,C49*%
X65820000Y-121200000D03*
X68780000Y-121200000D03*
%TD*%
D53*
%TO.C,C37*%
X108100000Y-78400000D03*
X110000000Y-78400000D03*
%TD*%
D54*
%TO.C,U8*%
X110175000Y-75505000D03*
X110175000Y-74235000D03*
X110175000Y-72965000D03*
X110175000Y-71695000D03*
X105025000Y-71695000D03*
X105025000Y-72965000D03*
X105025000Y-74235000D03*
X105025000Y-75505000D03*
%TD*%
D21*
%TO.C,C51*%
X109800000Y-55740000D03*
X109800000Y-54740000D03*
%TD*%
D55*
%TO.C,J5*%
X116578401Y-45955997D03*
X115778401Y-45955997D03*
D56*
X114628401Y-45955997D03*
X113628401Y-45955997D03*
X113128401Y-45955997D03*
X112128401Y-45955997D03*
D55*
X110978401Y-45955997D03*
X110178401Y-45955997D03*
X110178401Y-45955997D03*
X110978401Y-45955997D03*
D56*
X111628401Y-45955997D03*
X112628401Y-45955997D03*
X114128401Y-45955997D03*
X115128401Y-45955997D03*
D55*
X115778401Y-45955997D03*
X116578401Y-45955997D03*
D57*
X117698401Y-45380997D03*
D58*
X117698401Y-41200997D03*
D57*
X109058401Y-45380997D03*
D58*
X109058401Y-41200997D03*
%TD*%
D50*
%TO.C,C41*%
X125400000Y-74160000D03*
X121800000Y-74160000D03*
%TD*%
D22*
%TO.C,C8*%
X104900000Y-110600000D03*
X104900000Y-109040000D03*
%TD*%
D21*
%TO.C,R14*%
X111000000Y-126300000D03*
X111000000Y-125300000D03*
%TD*%
D59*
%TO.C,Y1*%
X97500000Y-65750000D03*
X95300000Y-65750000D03*
X95300000Y-67450000D03*
X97500000Y-67450000D03*
%TD*%
D21*
%TO.C,C11*%
X105775000Y-103975000D03*
X105775000Y-102975000D03*
%TD*%
D26*
%TO.C,C46*%
X95700000Y-62400000D03*
X94700000Y-62400000D03*
%TD*%
%TO.C,C21*%
X119500000Y-94200000D03*
X120500000Y-94200000D03*
%TD*%
D22*
%TO.C,C58*%
X101000000Y-110600000D03*
X101000000Y-109040000D03*
%TD*%
D60*
%TO.C,C56*%
X116600000Y-48050000D03*
X116600000Y-49950000D03*
%TD*%
D33*
%TO.C,C63*%
X99420000Y-107125000D03*
X100980000Y-107125000D03*
%TD*%
D21*
%TO.C,C54*%
X98070000Y-51370000D03*
X98070000Y-50410000D03*
%TD*%
D23*
%TO.C,C39*%
X126350000Y-66800000D03*
X126350000Y-67800000D03*
%TD*%
D61*
%TO.C,U13*%
X119950000Y-111300000D03*
X119950000Y-113600000D03*
D62*
X126250000Y-113600000D03*
D61*
X119950000Y-115900000D03*
%TD*%
D25*
%TO.C,R37*%
X95500000Y-44000000D03*
X96500000Y-44000000D03*
%TD*%
D48*
%TO.C,R10*%
X114250000Y-95200000D03*
X115270000Y-95200000D03*
%TD*%
D26*
%TO.C,R17*%
X120700000Y-72160000D03*
X119700000Y-72160000D03*
%TD*%
D63*
%TO.C,U10*%
X102637500Y-64172500D03*
X102637500Y-63537500D03*
X102637500Y-62902500D03*
X102637500Y-62267500D03*
X102637500Y-61632500D03*
X102637500Y-60997500D03*
X102637500Y-60362500D03*
X102637500Y-59727500D03*
X97362500Y-59727500D03*
X97362500Y-60362500D03*
X97362500Y-60997500D03*
X97362500Y-61632500D03*
X97362500Y-62267500D03*
X97362500Y-62902500D03*
X97362500Y-63537500D03*
X97362500Y-64172500D03*
%TD*%
D21*
%TO.C,R20*%
X107000000Y-49140000D03*
X107000000Y-48140000D03*
%TD*%
D25*
%TO.C,R28*%
X119300000Y-43800000D03*
X120300000Y-43800000D03*
%TD*%
%TO.C,R8*%
X97500000Y-44000000D03*
X98500000Y-44000000D03*
%TD*%
D26*
%TO.C,R38*%
X98500000Y-45000000D03*
X97500000Y-45000000D03*
%TD*%
D21*
%TO.C,C26*%
X98175000Y-105900000D03*
X98175000Y-104940000D03*
%TD*%
M02*
