%TF.GenerationSoftware,KiCad,Pcbnew,9.0.4-9.0.4-0~ubuntu24.04.1*%
%TF.CreationDate,2025-09-25T01:17:13+02:00*%
%TF.ProjectId,OrangePie,4f72616e-6765-4506-9965-2e6b69636164,2.0.0*%
%TF.SameCoordinates,Original*%
%TF.FileFunction,Soldermask,Top*%
%TF.FilePolarity,Negative*%
%FSLAX46Y46*%
G04 Gerber Fmt 4.6, Leading zero omitted, Abs format (unit mm)*
G04 Created by KiCad (PCBNEW 9.0.4-9.0.4-0~ubuntu24.04.1) date 2025-09-25 01:17:13*
%MOMM*%
%LPD*%
G01*
G04 APERTURE LIST*
G04 Aperture macros list*
%AMRoundRect*
0 Rectangle with rounded corners*
0 $1 Rounding radius*
0 $2 $3 $4 $5 $6 $7 $8 $9 X,Y pos of 4 corners*
0 Add a 4 corners polygon primitive as box body*
4,1,4,$2,$3,$4,$5,$6,$7,$8,$9,$2,$3,0*
0 Add four circle primitives for the rounded corners*
1,1,$1+$1,$2,$3*
1,1,$1+$1,$4,$5*
1,1,$1+$1,$6,$7*
1,1,$1+$1,$8,$9*
0 Add four rect primitives between the rounded corners*
20,1,$1+$1,$2,$3,$4,$5,0*
20,1,$1+$1,$4,$5,$6,$7,0*
20,1,$1+$1,$6,$7,$8,$9,0*
20,1,$1+$1,$8,$9,$2,$3,0*%
%AMRotRect*
0 Rectangle, with rotation*
0 The origin of the aperture is its center*
0 $1 length*
0 $2 width*
0 $3 Rotation angle, in degrees counterclockwise*
0 Add horizontal line*
21,1,$1,$2,0,0,$3*%
%AMFreePoly0*
4,1,23,0.500000,-0.750000,0.000000,-0.750000,0.000000,-0.745722,-0.065263,-0.745722,-0.191342,-0.711940,-0.304381,-0.646677,-0.396677,-0.554381,-0.461940,-0.441342,-0.495722,-0.315263,-0.495722,-0.250000,-0.500000,-0.250000,-0.500000,0.250000,-0.495722,0.250000,-0.495722,0.315263,-0.461940,0.441342,-0.396677,0.554381,-0.304381,0.646677,-0.191342,0.711940,-0.065263,0.745722,0.000000,0.745722,
0.000000,0.750000,0.500000,0.750000,0.500000,-0.750000,0.500000,-0.750000,$1*%
%AMFreePoly1*
4,1,23,0.000000,0.745722,0.065263,0.745722,0.191342,0.711940,0.304381,0.646677,0.396677,0.554381,0.461940,0.441342,0.495722,0.315263,0.495722,0.250000,0.500000,0.250000,0.500000,-0.250000,0.495722,-0.250000,0.495722,-0.315263,0.461940,-0.441342,0.396677,-0.554381,0.304381,-0.646677,0.191342,-0.711940,0.065263,-0.745722,0.000000,-0.745722,0.000000,-0.750000,-0.500000,-0.750000,
-0.500000,0.750000,0.000000,0.750000,0.000000,0.745722,0.000000,0.745722,$1*%
G04 Aperture macros list end*
%ADD10C,1.000000*%
%ADD11RoundRect,0.159000X-0.159000X-0.189000X0.159000X-0.189000X0.159000X0.189000X-0.159000X0.189000X0*%
%ADD12RoundRect,0.159000X0.189000X-0.159000X0.189000X0.159000X-0.189000X0.159000X-0.189000X-0.159000X0*%
%ADD13RoundRect,0.244000X0.269000X-0.244000X0.269000X0.244000X-0.269000X0.244000X-0.269000X-0.244000X0*%
%ADD14RoundRect,0.159000X-0.189000X0.159000X-0.189000X-0.159000X0.189000X-0.159000X0.189000X0.159000X0*%
%ADD15RoundRect,0.250000X0.450000X0.350000X-0.450000X0.350000X-0.450000X-0.350000X0.450000X-0.350000X0*%
%ADD16RoundRect,0.140000X-0.170000X0.140000X-0.170000X-0.140000X0.170000X-0.140000X0.170000X0.140000X0*%
%ADD17RoundRect,0.140000X0.170000X-0.140000X0.170000X0.140000X-0.170000X0.140000X-0.170000X-0.140000X0*%
%ADD18RoundRect,0.159000X0.159000X0.189000X-0.159000X0.189000X-0.159000X-0.189000X0.159000X-0.189000X0*%
%ADD19RoundRect,0.150000X-0.590000X-0.150000X0.590000X-0.150000X0.590000X0.150000X-0.590000X0.150000X0*%
%ADD20RoundRect,0.150000X0.150000X-0.590000X0.150000X0.590000X-0.150000X0.590000X-0.150000X-0.590000X0*%
%ADD21RoundRect,0.075000X-0.075000X0.350000X-0.075000X-0.350000X0.075000X-0.350000X0.075000X0.350000X0*%
%ADD22R,2.400000X1.600000*%
%ADD23RoundRect,0.150000X0.150000X-0.512500X0.150000X0.512500X-0.150000X0.512500X-0.150000X-0.512500X0*%
%ADD24R,1.200000X1.400000*%
%ADD25RoundRect,0.239000X0.239000X0.274000X-0.239000X0.274000X-0.239000X-0.274000X0.239000X-0.274000X0*%
%ADD26RoundRect,0.244000X-0.244000X-0.269000X0.244000X-0.269000X0.244000X0.269000X-0.244000X0.269000X0*%
%ADD27R,1.750000X0.450000*%
%ADD28RoundRect,0.150000X0.590000X0.150000X-0.590000X0.150000X-0.590000X-0.150000X0.590000X-0.150000X0*%
%ADD29RoundRect,0.135000X0.185000X-0.135000X0.185000X0.135000X-0.185000X0.135000X-0.185000X-0.135000X0*%
%ADD30RoundRect,0.269000X-0.269000X-0.494000X0.269000X-0.494000X0.269000X0.494000X-0.269000X0.494000X0*%
%ADD31RoundRect,0.150000X-0.150000X0.512500X-0.150000X-0.512500X0.150000X-0.512500X0.150000X0.512500X0*%
%ADD32C,1.300000*%
%ADD33C,2.286000*%
%ADD34RoundRect,0.112500X0.237500X-0.112500X0.237500X0.112500X-0.237500X0.112500X-0.237500X-0.112500X0*%
%ADD35RoundRect,0.250000X-0.750000X0.600000X-0.750000X-0.600000X0.750000X-0.600000X0.750000X0.600000X0*%
%ADD36O,2.000000X1.700000*%
%ADD37RoundRect,0.112500X-0.112500X-0.237500X0.112500X-0.237500X0.112500X0.237500X-0.112500X0.237500X0*%
%ADD38RoundRect,0.269000X0.494000X-0.269000X0.494000X0.269000X-0.494000X0.269000X-0.494000X-0.269000X0*%
%ADD39RoundRect,0.150000X-0.150000X0.825000X-0.150000X-0.825000X0.150000X-0.825000X0.150000X0.825000X0*%
%ADD40FreePoly0,180.000000*%
%ADD41FreePoly1,180.000000*%
%ADD42RoundRect,0.269000X0.269000X0.494000X-0.269000X0.494000X-0.269000X-0.494000X0.269000X-0.494000X0*%
%ADD43C,1.600000*%
%ADD44RoundRect,0.102000X-0.275000X-0.150000X0.275000X-0.150000X0.275000X0.150000X-0.275000X0.150000X0*%
%ADD45RoundRect,0.102000X-0.150000X-0.225000X0.150000X-0.225000X0.150000X0.225000X-0.150000X0.225000X0*%
%ADD46RoundRect,0.102000X-1.175000X-0.140000X1.175000X-0.140000X1.175000X0.140000X-1.175000X0.140000X0*%
%ADD47RoundRect,0.102000X-0.150000X-0.365000X0.150000X-0.365000X0.150000X0.365000X-0.150000X0.365000X0*%
%ADD48RoundRect,0.102000X-0.362500X-0.150000X0.362500X-0.150000X0.362500X0.150000X-0.362500X0.150000X0*%
%ADD49RoundRect,0.102000X-0.150000X-0.362500X0.150000X-0.362500X0.150000X0.362500X-0.150000X0.362500X0*%
%ADD50RoundRect,0.102000X-0.787500X-0.525000X0.787500X-0.525000X0.787500X0.525000X-0.787500X0.525000X0*%
%ADD51RoundRect,0.102000X-0.575000X-0.525000X0.575000X-0.525000X0.575000X0.525000X-0.575000X0.525000X0*%
%ADD52RoundRect,0.102000X-1.087500X-0.600000X1.087500X-0.600000X1.087500X0.600000X-1.087500X0.600000X0*%
%ADD53RoundRect,0.102000X-0.325000X-0.227500X0.325000X-0.227500X0.325000X0.227500X-0.325000X0.227500X0*%
%ADD54RoundRect,0.102000X-0.290000X-0.190000X0.290000X-0.190000X0.290000X0.190000X-0.290000X0.190000X0*%
%ADD55R,1.560000X1.560000*%
%ADD56C,1.560000*%
%ADD57RoundRect,0.075000X0.662500X0.075000X-0.662500X0.075000X-0.662500X-0.075000X0.662500X-0.075000X0*%
%ADD58RoundRect,0.075000X0.075000X0.662500X-0.075000X0.662500X-0.075000X-0.662500X0.075000X-0.662500X0*%
%ADD59RoundRect,0.267273X0.570727X-0.320727X0.570727X0.320727X-0.570727X0.320727X-0.570727X-0.320727X0*%
%ADD60RoundRect,0.135000X0.135000X0.185000X-0.135000X0.185000X-0.135000X-0.185000X0.135000X-0.185000X0*%
%ADD61RoundRect,0.266521X0.671479X-0.346479X0.671479X0.346479X-0.671479X0.346479X-0.671479X-0.346479X0*%
%ADD62RoundRect,0.250000X0.750000X-0.600000X0.750000X0.600000X-0.750000X0.600000X-0.750000X-0.600000X0*%
%ADD63R,2.950000X3.500000*%
%ADD64RoundRect,0.266521X-0.346479X-0.671479X0.346479X-0.671479X0.346479X0.671479X-0.346479X0.671479X0*%
%ADD65RoundRect,0.269000X-0.494000X0.269000X-0.494000X-0.269000X0.494000X-0.269000X0.494000X0.269000X0*%
%ADD66RoundRect,0.150000X0.725000X0.150000X-0.725000X0.150000X-0.725000X-0.150000X0.725000X-0.150000X0*%
%ADD67RoundRect,0.150000X0.150000X0.425000X-0.150000X0.425000X-0.150000X-0.425000X0.150000X-0.425000X0*%
%ADD68RoundRect,0.075000X0.075000X0.500000X-0.075000X0.500000X-0.075000X-0.500000X0.075000X-0.500000X0*%
%ADD69O,1.000000X2.100000*%
%ADD70O,1.000000X1.800000*%
%ADD71RoundRect,0.250000X-0.550000X1.500000X-0.550000X-1.500000X0.550000X-1.500000X0.550000X1.500000X0*%
%ADD72R,1.400000X1.200000*%
%ADD73RoundRect,0.249999X0.525001X0.525001X-0.525001X0.525001X-0.525001X-0.525001X0.525001X-0.525001X0*%
%ADD74C,1.550000*%
%ADD75RoundRect,0.375000X-0.625000X-0.375000X0.625000X-0.375000X0.625000X0.375000X-0.625000X0.375000X0*%
%ADD76RoundRect,0.500000X-0.500000X-1.400000X0.500000X-1.400000X0.500000X1.400000X-0.500000X1.400000X0*%
%ADD77RoundRect,0.100000X0.712500X0.100000X-0.712500X0.100000X-0.712500X-0.100000X0.712500X-0.100000X0*%
%ADD78RotRect,1.000000X1.000000X315.000000*%
%ADD79C,1.000000*%
%ADD80C,4.500000*%
%ADD81O,1.700000X1.700000*%
%ADD82R,1.700000X1.700000*%
G04 APERTURE END LIST*
D10*
X121727498Y-77592030D02*
X102285406Y-77592030D01*
X127285775Y-57794421D02*
X127285775Y-77495962D01*
X102315934Y-61236827D02*
X102315934Y-72486827D01*
X105250995Y-57794421D02*
X127285775Y-57794421D01*
D11*
%TO.C,R48*%
X123520000Y-104510000D03*
X124520000Y-104510000D03*
%TD*%
D12*
%TO.C,R47*%
X117150000Y-103660000D03*
X117150000Y-102660000D03*
%TD*%
%TO.C,R32*%
X106675000Y-103975000D03*
X106675000Y-102975000D03*
%TD*%
%TO.C,R14*%
X98624173Y-66740827D03*
X98624173Y-65740827D03*
%TD*%
D13*
%TO.C,C12*%
X103600000Y-110600000D03*
X103600000Y-109040000D03*
%TD*%
D14*
%TO.C,R26*%
X69487500Y-116300000D03*
X69487500Y-117300000D03*
%TD*%
D12*
%TO.C,R21*%
X106000000Y-49140000D03*
X106000000Y-48140000D03*
%TD*%
D15*
%TO.C,X1*%
X121500000Y-59215000D03*
X119300000Y-59215000D03*
X119300000Y-60815000D03*
X121500000Y-60815000D03*
%TD*%
D12*
%TO.C,R5*%
X107400000Y-45700000D03*
X107400000Y-44700000D03*
%TD*%
D16*
%TO.C,C27*%
X116469602Y-124602500D03*
X116469602Y-125562500D03*
%TD*%
D14*
%TO.C,R33*%
X107400000Y-42700000D03*
X107400000Y-43700000D03*
%TD*%
D11*
%TO.C,R36*%
X108575000Y-102575000D03*
X109575000Y-102575000D03*
%TD*%
D17*
%TO.C,C25*%
X120800000Y-88790000D03*
X120800000Y-87830000D03*
%TD*%
D18*
%TO.C,C16*%
X96500000Y-46000000D03*
X95500000Y-46000000D03*
%TD*%
D12*
%TO.C,R56*%
X126700000Y-100600000D03*
X126700000Y-99600000D03*
%TD*%
D11*
%TO.C,R19*%
X112450000Y-66690000D03*
X113450000Y-66690000D03*
%TD*%
D19*
%TO.C,Q6*%
X103480000Y-82300000D03*
X103480000Y-84200000D03*
X105360000Y-83250000D03*
%TD*%
D14*
%TO.C,C34*%
X125775000Y-64750000D03*
X125775000Y-65750000D03*
%TD*%
%TO.C,R22*%
X115027641Y-63906489D03*
X115027641Y-64906489D03*
%TD*%
D20*
%TO.C,Q1*%
X113286128Y-125702500D03*
X115186128Y-125702500D03*
X114236128Y-123822500D03*
%TD*%
D21*
%TO.C,U7*%
X102100000Y-123100000D03*
X101450000Y-123100000D03*
X100800000Y-123100000D03*
X100150000Y-123100000D03*
X100150000Y-126000000D03*
X100800000Y-126000000D03*
X101450000Y-126000000D03*
X102100000Y-126000000D03*
D22*
X101125000Y-124550000D03*
%TD*%
D11*
%TO.C,R42*%
X99700000Y-59240827D03*
X100700000Y-59240827D03*
%TD*%
D14*
%TO.C,C18*%
X110850000Y-83262500D03*
X110850000Y-84262500D03*
%TD*%
D11*
%TO.C,R30*%
X111200000Y-47600000D03*
X112200000Y-47600000D03*
%TD*%
%TO.C,R53*%
X117977500Y-96690000D03*
X118977500Y-96690000D03*
%TD*%
D23*
%TO.C,U5*%
X117736128Y-125657500D03*
X118686128Y-125657500D03*
X119636128Y-125657500D03*
X119636128Y-123382500D03*
X118686128Y-123382500D03*
X117736128Y-123382500D03*
%TD*%
D12*
%TO.C,R12*%
X93800000Y-105600000D03*
X93800000Y-104600000D03*
%TD*%
D14*
%TO.C,R13*%
X120936128Y-125000000D03*
X120936128Y-126000000D03*
%TD*%
D12*
%TO.C,R54*%
X121950000Y-102480000D03*
X121950000Y-101480000D03*
%TD*%
%TO.C,R40*%
X85200000Y-73000000D03*
X85200000Y-72000000D03*
%TD*%
D24*
%TO.C,Y2*%
X94770000Y-50690000D03*
X94770000Y-52890000D03*
X96470000Y-52890000D03*
X96470000Y-50690000D03*
%TD*%
D12*
%TO.C,R52*%
X126700000Y-102500000D03*
X126700000Y-101500000D03*
%TD*%
D11*
%TO.C,R27*%
X119300000Y-42800000D03*
X120300000Y-42800000D03*
%TD*%
D12*
%TO.C,C59*%
X115650000Y-115100000D03*
X115650000Y-114100000D03*
%TD*%
D25*
%TO.C,D3*%
X110250000Y-96300000D03*
X108670000Y-96300000D03*
%TD*%
D12*
%TO.C,R15*%
X97424173Y-66740827D03*
X97424173Y-65740827D03*
%TD*%
D26*
%TO.C,C62*%
X99420000Y-105825000D03*
X100980000Y-105825000D03*
%TD*%
D18*
%TO.C,R4*%
X109575000Y-103475000D03*
X108575000Y-103475000D03*
%TD*%
D27*
%TO.C,U9*%
X116755000Y-62790000D03*
X116755000Y-63440000D03*
X116755000Y-64090000D03*
X116755000Y-64740000D03*
X116755000Y-65390000D03*
X116755000Y-66040000D03*
X116755000Y-66690000D03*
X116755000Y-67340000D03*
X116755000Y-67990000D03*
X116755000Y-68640000D03*
X116755000Y-69290000D03*
X116755000Y-69940000D03*
X116755000Y-70590000D03*
X116755000Y-71240000D03*
X123955000Y-71240000D03*
X123955000Y-70590000D03*
X123955000Y-69940000D03*
X123955000Y-69290000D03*
X123955000Y-68640000D03*
X123955000Y-67990000D03*
X123955000Y-67340000D03*
X123955000Y-66690000D03*
X123955000Y-66040000D03*
X123955000Y-65390000D03*
X123955000Y-64740000D03*
X123955000Y-64090000D03*
X123955000Y-63440000D03*
X123955000Y-62790000D03*
%TD*%
D14*
%TO.C,R1*%
X107575000Y-102975000D03*
X107575000Y-103975000D03*
%TD*%
D18*
%TO.C,C7*%
X107900000Y-105075000D03*
X106900000Y-105075000D03*
%TD*%
D11*
%TO.C,R39*%
X95500000Y-45000000D03*
X96500000Y-45000000D03*
%TD*%
D19*
%TO.C,Q5*%
X113600000Y-107100000D03*
X113600000Y-109000000D03*
X115480000Y-108050000D03*
%TD*%
D28*
%TO.C,Q4*%
X67740000Y-118200000D03*
X67740000Y-116300000D03*
X65860000Y-117250000D03*
%TD*%
D14*
%TO.C,R6*%
X112000000Y-106875000D03*
X112000000Y-107875000D03*
%TD*%
%TO.C,R44*%
X81800000Y-61900000D03*
X81800000Y-62900000D03*
%TD*%
D11*
%TO.C,R16*%
X116250000Y-73050000D03*
X117250000Y-73050000D03*
%TD*%
D18*
%TO.C,C28*%
X101625000Y-121828183D03*
X100625000Y-121828183D03*
%TD*%
D29*
%TO.C,R9*%
X120800000Y-90810000D03*
X120800000Y-89790000D03*
%TD*%
D14*
%TO.C,R45*%
X80800000Y-61900000D03*
X80800000Y-62900000D03*
%TD*%
D30*
%TO.C,C40*%
X114050000Y-74690000D03*
X115950000Y-74690000D03*
%TD*%
D31*
%TO.C,U4*%
X96925000Y-104425000D03*
X95975000Y-104425000D03*
X95025000Y-104425000D03*
X95025000Y-106700000D03*
X95975000Y-106700000D03*
X96925000Y-106700000D03*
%TD*%
D32*
%TO.C,BTN1*%
X99458401Y-41815997D03*
X97828401Y-41815997D03*
X96088401Y-41815997D03*
X94458401Y-41815997D03*
D33*
X100458401Y-44065997D03*
X93458401Y-44065997D03*
%TD*%
D34*
%TO.C,U403*%
X44500000Y-125300000D03*
X44500000Y-124000000D03*
X42500000Y-124650000D03*
%TD*%
D12*
%TO.C,R18*%
X117250000Y-75000000D03*
X117250000Y-74000000D03*
%TD*%
%TO.C,C22*%
X108850000Y-92050000D03*
X108850000Y-91050000D03*
%TD*%
D11*
%TO.C,C36*%
X114200000Y-76500000D03*
X115200000Y-76500000D03*
%TD*%
D13*
%TO.C,C13*%
X102300000Y-110600000D03*
X102300000Y-109040000D03*
%TD*%
D18*
%TO.C,C19*%
X113350000Y-82762500D03*
X112350000Y-82762500D03*
%TD*%
%TO.C,C52*%
X104700000Y-49040000D03*
X103700000Y-49040000D03*
%TD*%
D12*
%TO.C,C14*%
X110575000Y-103475000D03*
X110575000Y-102475000D03*
%TD*%
D18*
%TO.C,R50*%
X108000000Y-69740000D03*
X107000000Y-69740000D03*
%TD*%
D35*
%TO.C,J3*%
X98775000Y-74750000D03*
D36*
X98775000Y-77250000D03*
%TD*%
D14*
%TO.C,R3*%
X111675000Y-104875000D03*
X111675000Y-105875000D03*
%TD*%
D11*
%TO.C,R24*%
X66225000Y-122950000D03*
X67225000Y-122950000D03*
%TD*%
D18*
%TO.C,C30*%
X109100000Y-121880900D03*
X108100000Y-121880900D03*
%TD*%
D11*
%TO.C,R43*%
X99700000Y-58240827D03*
X100700000Y-58240827D03*
%TD*%
D12*
%TO.C,R41*%
X85200000Y-71000000D03*
X85200000Y-70000000D03*
%TD*%
D37*
%TO.C,U402*%
X112350000Y-51000000D03*
X113650000Y-51000000D03*
X113000000Y-49000000D03*
%TD*%
D12*
%TO.C,C44*%
X118050000Y-61090000D03*
X118050000Y-60090000D03*
%TD*%
%TO.C,C29*%
X98800000Y-126300000D03*
X98800000Y-125300000D03*
%TD*%
D14*
%TO.C,C35*%
X114850000Y-70550000D03*
X114850000Y-71550000D03*
%TD*%
D38*
%TO.C,C33*%
X113250000Y-70840000D03*
X113250000Y-68940000D03*
%TD*%
D12*
%TO.C,R35*%
X103400000Y-126200000D03*
X103400000Y-125200000D03*
%TD*%
D11*
%TO.C,R23*%
X66225000Y-124100000D03*
X67225000Y-124100000D03*
%TD*%
D28*
%TO.C,Q2*%
X97315000Y-113450000D03*
X97315000Y-111550000D03*
X95435000Y-112500000D03*
%TD*%
D39*
%TO.C,U11*%
X108420000Y-50890000D03*
X107150000Y-50890000D03*
X105880000Y-50890000D03*
X104610000Y-50890000D03*
X103340000Y-50890000D03*
X102070000Y-50890000D03*
X100800000Y-50890000D03*
X99530000Y-50890000D03*
X99530000Y-55840000D03*
X100800000Y-55840000D03*
X102070000Y-55840000D03*
X103340000Y-55840000D03*
X104610000Y-55840000D03*
X105880000Y-55840000D03*
X107150000Y-55840000D03*
X108420000Y-55840000D03*
%TD*%
D11*
%TO.C,C20*%
X114350000Y-82762500D03*
X115350000Y-82762500D03*
%TD*%
D18*
%TO.C,R29*%
X114800000Y-47600000D03*
X113800000Y-47600000D03*
%TD*%
D12*
%TO.C,R46*%
X101800000Y-87200000D03*
X101800000Y-86200000D03*
%TD*%
D40*
%TO.C,JP1*%
X99275000Y-109194800D03*
D41*
X97975000Y-109194800D03*
%TD*%
D42*
%TO.C,C57*%
X104350000Y-104600000D03*
X102450000Y-104600000D03*
%TD*%
D12*
%TO.C,R60*%
X101800000Y-83250000D03*
X101800000Y-82250000D03*
%TD*%
D43*
%TO.C,LED1*%
X103242001Y-43025997D03*
X105782001Y-43025997D03*
X103242001Y-45565997D03*
X105782001Y-45565997D03*
%TD*%
D44*
%TO.C,U2*%
X106425000Y-107400000D03*
X106425000Y-107850000D03*
X106425000Y-108750000D03*
X106425000Y-109200000D03*
D45*
X106975000Y-110300000D03*
X107425000Y-110300000D03*
X107875000Y-110300000D03*
X108575000Y-110300000D03*
X109025000Y-110300000D03*
D46*
X108000000Y-109935000D03*
D47*
X109475000Y-110160000D03*
D48*
X110387500Y-109650000D03*
X110387500Y-109200000D03*
X110387500Y-108750000D03*
X110387500Y-108300000D03*
X110387500Y-107850000D03*
X110387500Y-107400000D03*
X110387500Y-106950000D03*
D49*
X109925000Y-106287500D03*
X109475000Y-106287500D03*
X109025000Y-106287500D03*
X108575000Y-106287500D03*
X107875000Y-106287500D03*
X107425000Y-106287500D03*
X106975000Y-106287500D03*
D50*
X108937500Y-107475000D03*
D51*
X107275000Y-107475000D03*
D52*
X107787500Y-108900000D03*
D53*
X109200000Y-108527500D03*
D54*
X109435000Y-109215000D03*
%TD*%
D11*
%TO.C,R51*%
X122800000Y-96700000D03*
X123800000Y-96700000D03*
%TD*%
D16*
%TO.C,C53*%
X98070000Y-52410000D03*
X98070000Y-53370000D03*
%TD*%
D11*
%TO.C,C23*%
X119100000Y-93400000D03*
X120100000Y-93400000D03*
%TD*%
D21*
%TO.C,U6*%
X109575000Y-123143400D03*
X108925000Y-123143400D03*
X108275000Y-123143400D03*
X107625000Y-123143400D03*
X107625000Y-126043400D03*
X108275000Y-126043400D03*
X108925000Y-126043400D03*
X109575000Y-126043400D03*
D22*
X108600000Y-124593400D03*
%TD*%
D12*
%TO.C,C31*%
X106343270Y-126300000D03*
X106343270Y-125300000D03*
%TD*%
D42*
%TO.C,C10*%
X104350000Y-106725000D03*
X102450000Y-106725000D03*
%TD*%
D11*
%TO.C,C24*%
X119100000Y-92400000D03*
X120100000Y-92400000D03*
%TD*%
D12*
%TO.C,C38*%
X125800000Y-71125000D03*
X125800000Y-70125000D03*
%TD*%
D18*
%TO.C,C60*%
X98500000Y-46000000D03*
X97500000Y-46000000D03*
%TD*%
D11*
%TO.C,R7*%
X109400000Y-104475000D03*
X110400000Y-104475000D03*
%TD*%
D25*
%TO.C,D1*%
X110250000Y-94500000D03*
X108670000Y-94500000D03*
%TD*%
D12*
%TO.C,C15*%
X112000000Y-109772000D03*
X112000000Y-108772000D03*
%TD*%
D18*
%TO.C,C17*%
X120100000Y-109400000D03*
X119100000Y-109400000D03*
%TD*%
%TO.C,C43*%
X123745000Y-61015000D03*
X122745000Y-61015000D03*
%TD*%
D26*
%TO.C,C61*%
X99420000Y-104525000D03*
X100980000Y-104525000D03*
%TD*%
D11*
%TO.C,C42*%
X110100000Y-70900000D03*
X111100000Y-70900000D03*
%TD*%
D55*
%TO.C,RV1*%
X109950000Y-67700000D03*
D56*
X107450000Y-62700000D03*
X104950000Y-67700000D03*
%TD*%
D18*
%TO.C,R25*%
X70487500Y-118400000D03*
X69487500Y-118400000D03*
%TD*%
D19*
%TO.C,Q12*%
X118597500Y-101440000D03*
X118597500Y-103340000D03*
X120477500Y-102390000D03*
%TD*%
D57*
%TO.C,U3*%
X118762500Y-91350000D03*
X118762500Y-90850000D03*
X118762500Y-90350000D03*
X118762500Y-89850000D03*
X118762500Y-89350000D03*
X118762500Y-88850000D03*
X118762500Y-88350000D03*
X118762500Y-87850000D03*
X118762500Y-87350000D03*
X118762500Y-86850000D03*
X118762500Y-86350000D03*
X118762500Y-85850000D03*
D58*
X117350000Y-84437500D03*
X116850000Y-84437500D03*
X116350000Y-84437500D03*
X115850000Y-84437500D03*
X115350000Y-84437500D03*
X114850000Y-84437500D03*
X114350000Y-84437500D03*
X113850000Y-84437500D03*
X113350000Y-84437500D03*
X112850000Y-84437500D03*
X112350000Y-84437500D03*
X111850000Y-84437500D03*
D57*
X110437500Y-85850000D03*
X110437500Y-86350000D03*
X110437500Y-86850000D03*
X110437500Y-87350000D03*
X110437500Y-87850000D03*
X110437500Y-88350000D03*
X110437500Y-88850000D03*
X110437500Y-89350000D03*
X110437500Y-89850000D03*
X110437500Y-90350000D03*
X110437500Y-90850000D03*
X110437500Y-91350000D03*
D58*
X111850000Y-92762500D03*
X112350000Y-92762500D03*
X112850000Y-92762500D03*
X113350000Y-92762500D03*
X113850000Y-92762500D03*
X114350000Y-92762500D03*
X114850000Y-92762500D03*
X115350000Y-92762500D03*
X115850000Y-92762500D03*
X116350000Y-92762500D03*
X116850000Y-92762500D03*
X117350000Y-92762500D03*
%TD*%
D59*
%TO.C,D4*%
X56450000Y-121200000D03*
X56450000Y-118400000D03*
%TD*%
D18*
%TO.C,C47*%
X93524173Y-61940827D03*
X92524173Y-61940827D03*
%TD*%
D14*
%TO.C,C32*%
X114850000Y-68700000D03*
X114850000Y-69700000D03*
%TD*%
D60*
%TO.C,R11*%
X112880000Y-96000000D03*
X111860000Y-96000000D03*
%TD*%
D61*
%TO.C,C6*%
X117400000Y-116360000D03*
X117400000Y-113400000D03*
%TD*%
D12*
%TO.C,R2*%
X112575000Y-105875000D03*
X112575000Y-104875000D03*
%TD*%
D62*
%TO.C,M1*%
X60525000Y-121000000D03*
D36*
X60525000Y-118500000D03*
%TD*%
D11*
%TO.C,R31*%
X119300000Y-40600000D03*
X120300000Y-40600000D03*
%TD*%
D18*
%TO.C,C9*%
X106775000Y-101875000D03*
X105775000Y-101875000D03*
%TD*%
D63*
%TO.C,L2*%
X108325000Y-114900000D03*
X102875000Y-114900000D03*
%TD*%
D18*
%TO.C,C45*%
X93524173Y-63840827D03*
X92524173Y-63840827D03*
%TD*%
D11*
%TO.C,C55*%
X119300000Y-41600000D03*
X120300000Y-41600000D03*
%TD*%
D64*
%TO.C,C49*%
X65820000Y-121200000D03*
X68780000Y-121200000D03*
%TD*%
D12*
%TO.C,R55*%
X121950000Y-100590000D03*
X121950000Y-99590000D03*
%TD*%
D65*
%TO.C,C37*%
X112250000Y-73790000D03*
X112250000Y-75690000D03*
%TD*%
D66*
%TO.C,U8*%
X110050000Y-75930000D03*
X110050000Y-74660000D03*
X110050000Y-73390000D03*
X110050000Y-72120000D03*
X104900000Y-72120000D03*
X104900000Y-73390000D03*
X104900000Y-74660000D03*
X104900000Y-75930000D03*
%TD*%
D12*
%TO.C,C51*%
X109800000Y-55740000D03*
X109800000Y-54740000D03*
%TD*%
D67*
%TO.C,J5*%
X116578401Y-45955997D03*
X115778401Y-45955997D03*
D68*
X114628401Y-45955997D03*
X113628401Y-45955997D03*
X113128401Y-45955997D03*
X112128401Y-45955997D03*
D67*
X110978401Y-45955997D03*
X110178401Y-45955997D03*
X110178401Y-45955997D03*
X110978401Y-45955997D03*
D68*
X111628401Y-45955997D03*
X112628401Y-45955997D03*
X114128401Y-45955997D03*
X115128401Y-45955997D03*
D67*
X115778401Y-45955997D03*
X116578401Y-45955997D03*
D69*
X117698401Y-45380997D03*
D70*
X117698401Y-41200997D03*
D69*
X109058401Y-45380997D03*
D70*
X109058401Y-41200997D03*
%TD*%
D71*
%TO.C,C41*%
X124250000Y-80250000D03*
X124250000Y-85650000D03*
%TD*%
D13*
%TO.C,C8*%
X104900000Y-110600000D03*
X104900000Y-109040000D03*
%TD*%
D72*
%TO.C,Y1*%
X95324173Y-66190827D03*
X93124173Y-66190827D03*
X93124173Y-67890827D03*
X95324173Y-67890827D03*
%TD*%
D12*
%TO.C,C11*%
X105775000Y-103975000D03*
X105775000Y-102975000D03*
%TD*%
D18*
%TO.C,C46*%
X93524173Y-62840827D03*
X92524173Y-62840827D03*
%TD*%
%TO.C,C21*%
X118100000Y-94200000D03*
X117100000Y-94200000D03*
%TD*%
D13*
%TO.C,C58*%
X101000000Y-110600000D03*
X101000000Y-109040000D03*
%TD*%
D19*
%TO.C,Q7*%
X103500000Y-85900000D03*
X103500000Y-87800000D03*
X105380000Y-86850000D03*
%TD*%
D65*
%TO.C,C56*%
X116600000Y-48050000D03*
X116600000Y-49950000D03*
%TD*%
D73*
%TO.C,J1*%
X120070000Y-133204999D03*
D74*
X117530000Y-133204999D03*
X114990000Y-133204999D03*
X112450000Y-133204999D03*
X109910000Y-133204999D03*
X107370000Y-133204999D03*
X104830000Y-133204999D03*
X102290000Y-133204999D03*
X99750000Y-133204999D03*
X97210000Y-133204999D03*
X94670000Y-133204999D03*
X92130000Y-133204999D03*
X89590000Y-133204999D03*
X87050000Y-133204999D03*
X84510000Y-133204999D03*
X81970000Y-133204999D03*
X79430000Y-133204999D03*
X76890000Y-133204999D03*
X74350000Y-133204999D03*
X71810000Y-133204999D03*
X69270000Y-133204999D03*
X66730000Y-133204999D03*
X64190000Y-133204999D03*
X61650000Y-133204999D03*
X59110000Y-133204999D03*
X56570000Y-133204999D03*
X54030000Y-133204999D03*
X51490000Y-133204999D03*
X48950000Y-133204999D03*
X46410000Y-133204999D03*
X43870000Y-133204999D03*
X41330000Y-133204999D03*
X120070000Y-130664999D03*
X117530000Y-130664999D03*
X114990000Y-130664999D03*
X112450000Y-130664999D03*
X109910000Y-130664999D03*
X107370000Y-130664999D03*
X104830000Y-130664999D03*
X102290000Y-130664999D03*
X99750000Y-130664999D03*
X97210000Y-130664999D03*
X94670000Y-130664999D03*
X92130000Y-130664999D03*
X89590000Y-130664999D03*
X87050000Y-130664999D03*
X84510000Y-130664999D03*
X81970000Y-130664999D03*
X79430000Y-130664999D03*
X76890000Y-130664999D03*
X74350000Y-130664999D03*
X71810000Y-130664999D03*
X69270000Y-130664999D03*
X66730000Y-130664999D03*
X64190000Y-130664999D03*
X61650000Y-130664999D03*
X59110000Y-130664999D03*
X56570000Y-130664999D03*
X54030000Y-130664999D03*
X51490000Y-130664999D03*
X48950000Y-130664999D03*
X46410000Y-130664999D03*
X43870000Y-130664999D03*
X41330000Y-130664999D03*
X120070000Y-128124999D03*
X117530000Y-128124999D03*
X114990000Y-128124999D03*
X112450000Y-128124999D03*
X109910000Y-128124999D03*
X107370000Y-128124999D03*
X104830000Y-128124999D03*
X102290000Y-128124999D03*
X99750000Y-128124999D03*
X97210000Y-128124999D03*
X94670000Y-128124999D03*
X92130000Y-128124999D03*
X89590000Y-128124999D03*
X87050000Y-128124999D03*
X84510000Y-128124999D03*
X81970000Y-128124999D03*
X79430000Y-128124999D03*
X76890000Y-128124999D03*
X74350000Y-128124999D03*
X71810000Y-128124999D03*
X69270000Y-128124999D03*
X66730000Y-128124999D03*
X64190000Y-128124999D03*
X61650000Y-128124999D03*
X59110000Y-128124999D03*
X56570000Y-128124999D03*
X54030000Y-128124999D03*
X51490000Y-128124999D03*
X48950000Y-128124999D03*
X46410000Y-128124999D03*
X43870000Y-128124999D03*
X41330000Y-128124999D03*
%TD*%
D26*
%TO.C,C63*%
X99420000Y-107125000D03*
X100980000Y-107125000D03*
%TD*%
D19*
%TO.C,Q10*%
X123360000Y-101450000D03*
X123360000Y-103350000D03*
X125240000Y-102400000D03*
%TD*%
%TO.C,Q9*%
X123360000Y-97950000D03*
X123360000Y-99850000D03*
X125240000Y-98900000D03*
%TD*%
D17*
%TO.C,C54*%
X98070000Y-51370000D03*
X98070000Y-50410000D03*
%TD*%
D14*
%TO.C,C39*%
X125800000Y-67550000D03*
X125800000Y-68550000D03*
%TD*%
D71*
%TO.C,C48*%
X95500000Y-117800000D03*
X95500000Y-123200000D03*
%TD*%
D11*
%TO.C,R49*%
X110100000Y-69900000D03*
X111100000Y-69900000D03*
%TD*%
D75*
%TO.C,U13*%
X119950000Y-111300000D03*
X119950000Y-113600000D03*
D76*
X126250000Y-113600000D03*
D75*
X119950000Y-115900000D03*
%TD*%
D11*
%TO.C,R37*%
X95500000Y-44000000D03*
X96500000Y-44000000D03*
%TD*%
D19*
%TO.C,Q11*%
X118597500Y-97940000D03*
X118597500Y-99840000D03*
X120477500Y-98890000D03*
%TD*%
D60*
%TO.C,R10*%
X112870000Y-94500000D03*
X111850000Y-94500000D03*
%TD*%
D18*
%TO.C,R17*%
X120050000Y-73050000D03*
X119050000Y-73050000D03*
%TD*%
D77*
%TO.C,U10*%
X100461673Y-64613327D03*
X100461673Y-63978327D03*
X100461673Y-63343327D03*
X100461673Y-62708327D03*
X100461673Y-62073327D03*
X100461673Y-61438327D03*
X100461673Y-60803327D03*
X100461673Y-60168327D03*
X95186673Y-60168327D03*
X95186673Y-60803327D03*
X95186673Y-61438327D03*
X95186673Y-62073327D03*
X95186673Y-62708327D03*
X95186673Y-63343327D03*
X95186673Y-63978327D03*
X95186673Y-64613327D03*
%TD*%
D12*
%TO.C,R20*%
X107000000Y-49140000D03*
X107000000Y-48140000D03*
%TD*%
D11*
%TO.C,R28*%
X119300000Y-43800000D03*
X120300000Y-43800000D03*
%TD*%
D12*
%TO.C,R34*%
X110972600Y-126272800D03*
X110972600Y-125272800D03*
%TD*%
%TO.C,R59*%
X107000000Y-85500000D03*
X107000000Y-84500000D03*
%TD*%
D11*
%TO.C,R8*%
X97500000Y-44000000D03*
X98500000Y-44000000D03*
%TD*%
D18*
%TO.C,R38*%
X98500000Y-45000000D03*
X97500000Y-45000000D03*
%TD*%
D17*
%TO.C,C26*%
X98175000Y-105900000D03*
X98175000Y-104940000D03*
%TD*%
D78*
%TO.C,J4*%
X112145923Y-90704077D03*
D79*
X113043949Y-89806051D03*
X113941974Y-88908026D03*
X114840000Y-88010000D03*
X115738025Y-87111975D03*
X116636051Y-86213949D03*
%TD*%
D80*
%TO.C,J2*%
X88422806Y-122753501D03*
X88402806Y-64733501D03*
X77402806Y-109733501D03*
X77402806Y-77733501D03*
X45402806Y-109733501D03*
X45402806Y-77733501D03*
X39402806Y-122733501D03*
X39402806Y-64733501D03*
D81*
X89672806Y-117833501D03*
X89672806Y-115293501D03*
X89672806Y-112753501D03*
X89672806Y-110213501D03*
X89672806Y-107673501D03*
X89672806Y-105133501D03*
X89672806Y-102593501D03*
X89672806Y-100053501D03*
X89672806Y-97513501D03*
X89672806Y-94973501D03*
X89672806Y-92433501D03*
X89672806Y-89893501D03*
X89703931Y-87304492D03*
X89672806Y-84813501D03*
X89672806Y-82273501D03*
X89672806Y-79733501D03*
X89672806Y-77193501D03*
X89672806Y-74653501D03*
X89672806Y-72113501D03*
X89672806Y-69573501D03*
X87132806Y-69573501D03*
X87132806Y-72113501D03*
X87132806Y-74653501D03*
X87132806Y-77193501D03*
X87132806Y-79733501D03*
X87132806Y-82273501D03*
X87132806Y-84813501D03*
X87163931Y-87304492D03*
X87132806Y-89893501D03*
X87132806Y-92433501D03*
X87132806Y-94973501D03*
X87132806Y-97513501D03*
X87132806Y-100053501D03*
X87132806Y-102593501D03*
X87132806Y-105133501D03*
X87132806Y-107673501D03*
X87132806Y-110213501D03*
X87132806Y-112753501D03*
X87132806Y-115293501D03*
D82*
X87132806Y-117833501D03*
D81*
X87612806Y-60293501D03*
X85072806Y-60293501D03*
X82532806Y-60293501D03*
X79992806Y-60293501D03*
X77452806Y-60293501D03*
X77452806Y-57753501D03*
X79992806Y-57753501D03*
X82532806Y-57753501D03*
X85072806Y-57753501D03*
X87612806Y-57753501D03*
%TD*%
M02*
