%TF.GenerationSoftware,KiCad,Pcbnew,9.0.4-9.0.4-0~ubuntu24.04.1*%
%TF.CreationDate,2025-09-25T01:17:13+02:00*%
%TF.ProjectId,OrangePie,4f72616e-6765-4506-9965-2e6b69636164,2.0.0*%
%TF.SameCoordinates,Original*%
%TF.FileFunction,Soldermask,Bot*%
%TF.FilePolarity,Negative*%
%FSLAX46Y46*%
G04 Gerber Fmt 4.6, Leading zero omitted, Abs format (unit mm)*
G04 Created by KiCad (PCBNEW 9.0.4-9.0.4-0~ubuntu24.04.1) date 2025-09-25 01:17:13*
%MOMM*%
%LPD*%
G01*
G04 APERTURE LIST*
G04 Aperture macros list*
%AMRoundRect*
0 Rectangle with rounded corners*
0 $1 Rounding radius*
0 $2 $3 $4 $5 $6 $7 $8 $9 X,Y pos of 4 corners*
0 Add a 4 corners polygon primitive as box body*
4,1,4,$2,$3,$4,$5,$6,$7,$8,$9,$2,$3,0*
0 Add four circle primitives for the rounded corners*
1,1,$1+$1,$2,$3*
1,1,$1+$1,$4,$5*
1,1,$1+$1,$6,$7*
1,1,$1+$1,$8,$9*
0 Add four rect primitives between the rounded corners*
20,1,$1+$1,$2,$3,$4,$5,0*
20,1,$1+$1,$4,$5,$6,$7,0*
20,1,$1+$1,$6,$7,$8,$9,0*
20,1,$1+$1,$8,$9,$2,$3,0*%
%AMRotRect*
0 Rectangle, with rotation*
0 The origin of the aperture is its center*
0 $1 length*
0 $2 width*
0 $3 Rotation angle, in degrees counterclockwise*
0 Add horizontal line*
21,1,$1,$2,0,0,$3*%
G04 Aperture macros list end*
%ADD10C,1.300000*%
%ADD11C,2.286000*%
%ADD12C,1.200000*%
%ADD13RoundRect,0.250000X-0.750000X0.600000X-0.750000X-0.600000X0.750000X-0.600000X0.750000X0.600000X0*%
%ADD14O,2.000000X1.700000*%
%ADD15C,1.600000*%
%ADD16R,1.560000X1.560000*%
%ADD17C,1.560000*%
%ADD18RoundRect,0.250000X0.750000X-0.600000X0.750000X0.600000X-0.750000X0.600000X-0.750000X-0.600000X0*%
%ADD19C,0.650000*%
%ADD20O,1.000000X2.100000*%
%ADD21O,1.000000X1.800000*%
%ADD22C,2.850000*%
%ADD23RoundRect,0.249999X0.525001X0.525001X-0.525001X0.525001X-0.525001X-0.525001X0.525001X-0.525001X0*%
%ADD24C,1.550000*%
%ADD25RotRect,1.000000X1.000000X315.000000*%
%ADD26C,1.000000*%
%ADD27C,4.500000*%
%ADD28O,1.700000X1.700000*%
%ADD29R,1.700000X1.700000*%
G04 APERTURE END LIST*
D10*
%TO.C,BTN1*%
X99458401Y-41815997D03*
X97828401Y-41815997D03*
X96088401Y-41815997D03*
X94458401Y-41815997D03*
D11*
X100458401Y-44065997D03*
X93458401Y-44065997D03*
%TD*%
D12*
%TO.C,J3*%
X96775000Y-73150000D03*
D13*
X98775000Y-74750000D03*
D14*
X98775000Y-77250000D03*
%TD*%
D15*
%TO.C,LED1*%
X103242001Y-43025997D03*
X105782001Y-43025997D03*
X103242001Y-45565997D03*
X105782001Y-45565997D03*
%TD*%
D16*
%TO.C,RV1*%
X109950000Y-67700000D03*
D17*
X107450000Y-62700000D03*
X104950000Y-67700000D03*
%TD*%
D12*
%TO.C,M1*%
X62525000Y-122600000D03*
D18*
X60525000Y-121000000D03*
D14*
X60525000Y-118500000D03*
%TD*%
D19*
%TO.C,J5*%
X116268401Y-44880997D03*
X110488401Y-44880997D03*
D20*
X117698401Y-45380997D03*
D21*
X117698401Y-41200997D03*
D20*
X109058401Y-45380997D03*
D21*
X109058401Y-41200997D03*
%TD*%
D22*
%TO.C,J1*%
X125150000Y-135744999D03*
X36250000Y-135744999D03*
D23*
X120070000Y-133204999D03*
D24*
X117530000Y-133204999D03*
X114990000Y-133204999D03*
X112450000Y-133204999D03*
X109910000Y-133204999D03*
X107370000Y-133204999D03*
X104830000Y-133204999D03*
X102290000Y-133204999D03*
X99750000Y-133204999D03*
X97210000Y-133204999D03*
X94670000Y-133204999D03*
X92130000Y-133204999D03*
X89590000Y-133204999D03*
X87050000Y-133204999D03*
X84510000Y-133204999D03*
X81970000Y-133204999D03*
X79430000Y-133204999D03*
X76890000Y-133204999D03*
X74350000Y-133204999D03*
X71810000Y-133204999D03*
X69270000Y-133204999D03*
X66730000Y-133204999D03*
X64190000Y-133204999D03*
X61650000Y-133204999D03*
X59110000Y-133204999D03*
X56570000Y-133204999D03*
X54030000Y-133204999D03*
X51490000Y-133204999D03*
X48950000Y-133204999D03*
X46410000Y-133204999D03*
X43870000Y-133204999D03*
X41330000Y-133204999D03*
X120070000Y-130664999D03*
X117530000Y-130664999D03*
X114990000Y-130664999D03*
X112450000Y-130664999D03*
X109910000Y-130664999D03*
X107370000Y-130664999D03*
X104830000Y-130664999D03*
X102290000Y-130664999D03*
X99750000Y-130664999D03*
X97210000Y-130664999D03*
X94670000Y-130664999D03*
X92130000Y-130664999D03*
X89590000Y-130664999D03*
X87050000Y-130664999D03*
X84510000Y-130664999D03*
X81970000Y-130664999D03*
X79430000Y-130664999D03*
X76890000Y-130664999D03*
X74350000Y-130664999D03*
X71810000Y-130664999D03*
X69270000Y-130664999D03*
X66730000Y-130664999D03*
X64190000Y-130664999D03*
X61650000Y-130664999D03*
X59110000Y-130664999D03*
X56570000Y-130664999D03*
X54030000Y-130664999D03*
X51490000Y-130664999D03*
X48950000Y-130664999D03*
X46410000Y-130664999D03*
X43870000Y-130664999D03*
X41330000Y-130664999D03*
X120070000Y-128124999D03*
X117530000Y-128124999D03*
X114990000Y-128124999D03*
X112450000Y-128124999D03*
X109910000Y-128124999D03*
X107370000Y-128124999D03*
X104830000Y-128124999D03*
X102290000Y-128124999D03*
X99750000Y-128124999D03*
X97210000Y-128124999D03*
X94670000Y-128124999D03*
X92130000Y-128124999D03*
X89590000Y-128124999D03*
X87050000Y-128124999D03*
X84510000Y-128124999D03*
X81970000Y-128124999D03*
X79430000Y-128124999D03*
X76890000Y-128124999D03*
X74350000Y-128124999D03*
X71810000Y-128124999D03*
X69270000Y-128124999D03*
X66730000Y-128124999D03*
X64190000Y-128124999D03*
X61650000Y-128124999D03*
X59110000Y-128124999D03*
X56570000Y-128124999D03*
X54030000Y-128124999D03*
X51490000Y-128124999D03*
X48950000Y-128124999D03*
X46410000Y-128124999D03*
X43870000Y-128124999D03*
X41330000Y-128124999D03*
%TD*%
D25*
%TO.C,J4*%
X112145923Y-90704077D03*
D26*
X113043949Y-89806051D03*
X113941974Y-88908026D03*
X114840000Y-88010000D03*
X115738025Y-87111975D03*
X116636051Y-86213949D03*
%TD*%
D27*
%TO.C,J2*%
X88422806Y-122753501D03*
X88402806Y-64733501D03*
X77402806Y-109733501D03*
X77402806Y-77733501D03*
X45402806Y-109733501D03*
X45402806Y-77733501D03*
X39402806Y-122733501D03*
X39402806Y-64733501D03*
D28*
X89672806Y-117833501D03*
X89672806Y-115293501D03*
X89672806Y-112753501D03*
X89672806Y-110213501D03*
X89672806Y-107673501D03*
X89672806Y-105133501D03*
X89672806Y-102593501D03*
X89672806Y-100053501D03*
X89672806Y-97513501D03*
X89672806Y-94973501D03*
X89672806Y-92433501D03*
X89672806Y-89893501D03*
X89703931Y-87304492D03*
X89672806Y-84813501D03*
X89672806Y-82273501D03*
X89672806Y-79733501D03*
X89672806Y-77193501D03*
X89672806Y-74653501D03*
X89672806Y-72113501D03*
X89672806Y-69573501D03*
X87132806Y-69573501D03*
X87132806Y-72113501D03*
X87132806Y-74653501D03*
X87132806Y-77193501D03*
X87132806Y-79733501D03*
X87132806Y-82273501D03*
X87132806Y-84813501D03*
X87163931Y-87304492D03*
X87132806Y-89893501D03*
X87132806Y-92433501D03*
X87132806Y-94973501D03*
X87132806Y-97513501D03*
X87132806Y-100053501D03*
X87132806Y-102593501D03*
X87132806Y-105133501D03*
X87132806Y-107673501D03*
X87132806Y-110213501D03*
X87132806Y-112753501D03*
X87132806Y-115293501D03*
D29*
X87132806Y-117833501D03*
D28*
X87612806Y-60293501D03*
X85072806Y-60293501D03*
X82532806Y-60293501D03*
X79992806Y-60293501D03*
X77452806Y-60293501D03*
X77452806Y-57753501D03*
X79992806Y-57753501D03*
X82532806Y-57753501D03*
X85072806Y-57753501D03*
X87612806Y-57753501D03*
%TD*%
M02*
