%TF.GenerationSoftware,KiCad,Pcbnew,9.0.0*%
%TF.CreationDate,2025-05-24T19:09:12+02:00*%
%TF.ProjectId,OrangePie,4f72616e-6765-4506-9965-2e6b69636164,2.0.0*%
%TF.SameCoordinates,Original*%
%TF.FileFunction,Legend,Bot*%
%TF.FilePolarity,Positive*%
%FSLAX46Y46*%
G04 Gerber Fmt 4.6, Leading zero omitted, Abs format (unit mm)*
G04 Created by KiCad (PCBNEW 9.0.0) date 2025-05-24 19:09:12*
%MOMM*%
%LPD*%
G01*
G04 APERTURE LIST*
G04 Aperture macros list*
%AMRoundRect*
0 Rectangle with rounded corners*
0 $1 Rounding radius*
0 $2 $3 $4 $5 $6 $7 $8 $9 X,Y pos of 4 corners*
0 Add a 4 corners polygon primitive as box body*
4,1,4,$2,$3,$4,$5,$6,$7,$8,$9,$2,$3,0*
0 Add four circle primitives for the rounded corners*
1,1,$1+$1,$2,$3*
1,1,$1+$1,$4,$5*
1,1,$1+$1,$6,$7*
1,1,$1+$1,$8,$9*
0 Add four rect primitives between the rounded corners*
20,1,$1+$1,$2,$3,$4,$5,0*
20,1,$1+$1,$4,$5,$6,$7,0*
20,1,$1+$1,$6,$7,$8,$9,0*
20,1,$1+$1,$8,$9,$2,$3,0*%
G04 Aperture macros list end*
%ADD10C,0.250000*%
%ADD11C,0.100000*%
%ADD12C,0.150000*%
%ADD13C,0.200000*%
%ADD14C,0.400000*%
%ADD15C,0.160000*%
%ADD16C,0.140000*%
%ADD17C,0.000000*%
%ADD18C,0.120000*%
%ADD19C,1.300000*%
%ADD20C,2.286000*%
%ADD21C,1.200000*%
%ADD22RoundRect,0.250000X-0.750000X0.600000X-0.750000X-0.600000X0.750000X-0.600000X0.750000X0.600000X0*%
%ADD23O,2.000000X1.700000*%
%ADD24C,1.600000*%
%ADD25R,1.560000X1.560000*%
%ADD26C,1.560000*%
%ADD27RoundRect,0.250000X0.750000X-0.600000X0.750000X0.600000X-0.750000X0.600000X-0.750000X-0.600000X0*%
%ADD28C,0.650000*%
%ADD29O,1.000000X2.100000*%
%ADD30O,1.000000X1.800000*%
%ADD31C,2.850000*%
%ADD32RoundRect,0.249999X0.525001X0.525001X-0.525001X0.525001X-0.525001X-0.525001X0.525001X-0.525001X0*%
%ADD33C,1.550000*%
%ADD34C,1.000000*%
%ADD35C,4.500000*%
%ADD36O,1.700000X1.700000*%
%ADD37R,1.700000X1.700000*%
G04 APERTURE END LIST*
D10*
X77911717Y-68764619D02*
X77911717Y-69478904D01*
X77911717Y-69478904D02*
X77959336Y-69621761D01*
X77959336Y-69621761D02*
X78054574Y-69717000D01*
X78054574Y-69717000D02*
X78197431Y-69764619D01*
X78197431Y-69764619D02*
X78292669Y-69764619D01*
X76959336Y-69764619D02*
X77435526Y-69764619D01*
X77435526Y-69764619D02*
X77435526Y-68764619D01*
X76054574Y-69669380D02*
X76102193Y-69717000D01*
X76102193Y-69717000D02*
X76245050Y-69764619D01*
X76245050Y-69764619D02*
X76340288Y-69764619D01*
X76340288Y-69764619D02*
X76483145Y-69717000D01*
X76483145Y-69717000D02*
X76578383Y-69621761D01*
X76578383Y-69621761D02*
X76626002Y-69526523D01*
X76626002Y-69526523D02*
X76673621Y-69336047D01*
X76673621Y-69336047D02*
X76673621Y-69193190D01*
X76673621Y-69193190D02*
X76626002Y-69002714D01*
X76626002Y-69002714D02*
X76578383Y-68907476D01*
X76578383Y-68907476D02*
X76483145Y-68812238D01*
X76483145Y-68812238D02*
X76340288Y-68764619D01*
X76340288Y-68764619D02*
X76245050Y-68764619D01*
X76245050Y-68764619D02*
X76102193Y-68812238D01*
X76102193Y-68812238D02*
X76054574Y-68859857D01*
X75340288Y-68764619D02*
X75340288Y-69478904D01*
X75340288Y-69478904D02*
X75387907Y-69621761D01*
X75387907Y-69621761D02*
X75483145Y-69717000D01*
X75483145Y-69717000D02*
X75626002Y-69764619D01*
X75626002Y-69764619D02*
X75721240Y-69764619D01*
X74387907Y-69764619D02*
X74864097Y-69764619D01*
X74864097Y-69764619D02*
X74864097Y-68764619D01*
X73483145Y-69669380D02*
X73530764Y-69717000D01*
X73530764Y-69717000D02*
X73673621Y-69764619D01*
X73673621Y-69764619D02*
X73768859Y-69764619D01*
X73768859Y-69764619D02*
X73911716Y-69717000D01*
X73911716Y-69717000D02*
X74006954Y-69621761D01*
X74006954Y-69621761D02*
X74054573Y-69526523D01*
X74054573Y-69526523D02*
X74102192Y-69336047D01*
X74102192Y-69336047D02*
X74102192Y-69193190D01*
X74102192Y-69193190D02*
X74054573Y-69002714D01*
X74054573Y-69002714D02*
X74006954Y-68907476D01*
X74006954Y-68907476D02*
X73911716Y-68812238D01*
X73911716Y-68812238D02*
X73768859Y-68764619D01*
X73768859Y-68764619D02*
X73673621Y-68764619D01*
X73673621Y-68764619D02*
X73530764Y-68812238D01*
X73530764Y-68812238D02*
X73483145Y-68859857D01*
X72768859Y-68764619D02*
X72768859Y-69478904D01*
X72768859Y-69478904D02*
X72816478Y-69621761D01*
X72816478Y-69621761D02*
X72911716Y-69717000D01*
X72911716Y-69717000D02*
X73054573Y-69764619D01*
X73054573Y-69764619D02*
X73149811Y-69764619D01*
X71816478Y-69764619D02*
X72292668Y-69764619D01*
X72292668Y-69764619D02*
X72292668Y-68764619D01*
X70911716Y-69669380D02*
X70959335Y-69717000D01*
X70959335Y-69717000D02*
X71102192Y-69764619D01*
X71102192Y-69764619D02*
X71197430Y-69764619D01*
X71197430Y-69764619D02*
X71340287Y-69717000D01*
X71340287Y-69717000D02*
X71435525Y-69621761D01*
X71435525Y-69621761D02*
X71483144Y-69526523D01*
X71483144Y-69526523D02*
X71530763Y-69336047D01*
X71530763Y-69336047D02*
X71530763Y-69193190D01*
X71530763Y-69193190D02*
X71483144Y-69002714D01*
X71483144Y-69002714D02*
X71435525Y-68907476D01*
X71435525Y-68907476D02*
X71340287Y-68812238D01*
X71340287Y-68812238D02*
X71197430Y-68764619D01*
X71197430Y-68764619D02*
X71102192Y-68764619D01*
X71102192Y-68764619D02*
X70959335Y-68812238D01*
X70959335Y-68812238D02*
X70911716Y-68859857D01*
X70197430Y-68764619D02*
X70197430Y-69478904D01*
X70197430Y-69478904D02*
X70245049Y-69621761D01*
X70245049Y-69621761D02*
X70340287Y-69717000D01*
X70340287Y-69717000D02*
X70483144Y-69764619D01*
X70483144Y-69764619D02*
X70578382Y-69764619D01*
X69245049Y-69764619D02*
X69721239Y-69764619D01*
X69721239Y-69764619D02*
X69721239Y-68764619D01*
X68340287Y-69669380D02*
X68387906Y-69717000D01*
X68387906Y-69717000D02*
X68530763Y-69764619D01*
X68530763Y-69764619D02*
X68626001Y-69764619D01*
X68626001Y-69764619D02*
X68768858Y-69717000D01*
X68768858Y-69717000D02*
X68864096Y-69621761D01*
X68864096Y-69621761D02*
X68911715Y-69526523D01*
X68911715Y-69526523D02*
X68959334Y-69336047D01*
X68959334Y-69336047D02*
X68959334Y-69193190D01*
X68959334Y-69193190D02*
X68911715Y-69002714D01*
X68911715Y-69002714D02*
X68864096Y-68907476D01*
X68864096Y-68907476D02*
X68768858Y-68812238D01*
X68768858Y-68812238D02*
X68626001Y-68764619D01*
X68626001Y-68764619D02*
X68530763Y-68764619D01*
X68530763Y-68764619D02*
X68387906Y-68812238D01*
X68387906Y-68812238D02*
X68340287Y-68859857D01*
D11*
X80167995Y-64865003D02*
X81167995Y-63865003D01*
D12*
X64500000Y-57310000D02*
X64500000Y-61590000D01*
D13*
X66974934Y-57115758D02*
G75*
G02*
X68078652Y-57082659I578366J-867342D01*
G01*
D11*
X49850000Y-57790000D02*
G75*
G02*
X49450000Y-57790000I-200000J0D01*
G01*
X49450000Y-57790000D02*
G75*
G02*
X49850000Y-57790000I200000J0D01*
G01*
D13*
X68110305Y-57103513D02*
G75*
G02*
X69186620Y-57129994I516695J-885587D01*
G01*
X67004857Y-60325390D02*
G75*
G02*
X68108559Y-60292319I578343J-867610D01*
G01*
D11*
X64050000Y-70350000D02*
G75*
G02*
X63650000Y-70350000I-200000J0D01*
G01*
X63650000Y-70350000D02*
G75*
G02*
X64050000Y-70350000I200000J0D01*
G01*
D12*
X50250000Y-70050000D02*
X63250000Y-70050000D01*
X63250000Y-72250000D01*
X50250000Y-72250000D01*
X50250000Y-70050000D01*
D13*
X70074615Y-60672539D02*
G75*
G02*
X69191924Y-60318926I-8115J1258239D01*
G01*
X66069723Y-60681387D02*
X66082275Y-57471161D01*
X66985456Y-57115571D02*
G75*
G02*
X66082275Y-57471178I-879956J910171D01*
G01*
D12*
X49000000Y-61990000D02*
X49000000Y-65990000D01*
X49006000Y-65990000D02*
X55750000Y-65990000D01*
D13*
X68093415Y-60291540D02*
X68110305Y-57103513D01*
D11*
X49850000Y-70150000D02*
G75*
G02*
X49450000Y-70150000I-200000J0D01*
G01*
X49450000Y-70150000D02*
G75*
G02*
X49850000Y-70150000I200000J0D01*
G01*
D13*
X67016418Y-60326278D02*
G75*
G02*
X66069722Y-60680823I-881018J911278D01*
G01*
D11*
X66407021Y-64871942D02*
X65407021Y-63871942D01*
D12*
X50050000Y-57110000D02*
X49000000Y-57110000D01*
X64500000Y-70950000D02*
X63450000Y-70950000D01*
D13*
X70085241Y-57489076D02*
G75*
G02*
X69186623Y-57129994I-10541J1277576D01*
G01*
D12*
X63850000Y-66550000D02*
X64500000Y-66550000D01*
X64500000Y-66550000D02*
X64500000Y-70950000D01*
D11*
X66407580Y-71225383D02*
X65407021Y-72225942D01*
X67379899Y-50479899D02*
G75*
G02*
X63420101Y-50479899I-1979899J0D01*
G01*
X63420101Y-50479899D02*
G75*
G02*
X67379899Y-50479899I1979899J0D01*
G01*
D13*
X70074615Y-60672539D02*
X70085241Y-57489076D01*
D12*
X49000000Y-57110000D02*
X49000000Y-61590000D01*
X49000000Y-70830000D02*
X50050000Y-70830000D01*
X64000000Y-61910000D02*
X64500000Y-61910000D01*
X55650000Y-61990000D02*
X49025000Y-61990000D01*
X49000000Y-61590000D02*
X55650000Y-61590000D01*
D11*
X65407021Y-63825942D02*
X81207020Y-63825942D01*
X81207020Y-72225942D01*
X65407021Y-72225942D01*
X65407021Y-63825942D01*
D12*
X49000000Y-66550000D02*
X49000000Y-70830000D01*
X64000000Y-57310000D02*
X64500000Y-57310000D01*
X55969000Y-66490000D02*
X49000000Y-66490000D01*
X64500000Y-61590000D02*
X64000000Y-61590000D01*
D11*
X80167995Y-71219003D02*
X81167995Y-72219003D01*
D13*
X68093415Y-60291540D02*
G75*
G02*
X69197141Y-60324591I525385J-900760D01*
G01*
D12*
X64500000Y-61910000D02*
X64500000Y-65990000D01*
D11*
X47379899Y-50500000D02*
G75*
G02*
X43420101Y-50500000I-1979899J0D01*
G01*
X43420101Y-50500000D02*
G75*
G02*
X47379899Y-50500000I1979899J0D01*
G01*
D12*
X64500000Y-65990000D02*
X63850000Y-65990000D01*
D11*
X78788850Y-71494265D02*
X78407897Y-71494265D01*
X78865040Y-71722837D02*
X78598373Y-70922837D01*
X78598373Y-70922837D02*
X78331707Y-71722837D01*
X78103136Y-71684742D02*
X77988850Y-71722837D01*
X77988850Y-71722837D02*
X77798374Y-71722837D01*
X77798374Y-71722837D02*
X77722183Y-71684742D01*
X77722183Y-71684742D02*
X77684088Y-71646646D01*
X77684088Y-71646646D02*
X77645993Y-71570456D01*
X77645993Y-71570456D02*
X77645993Y-71494265D01*
X77645993Y-71494265D02*
X77684088Y-71418075D01*
X77684088Y-71418075D02*
X77722183Y-71379980D01*
X77722183Y-71379980D02*
X77798374Y-71341884D01*
X77798374Y-71341884D02*
X77950755Y-71303789D01*
X77950755Y-71303789D02*
X78026945Y-71265694D01*
X78026945Y-71265694D02*
X78065040Y-71227599D01*
X78065040Y-71227599D02*
X78103136Y-71151408D01*
X78103136Y-71151408D02*
X78103136Y-71075218D01*
X78103136Y-71075218D02*
X78065040Y-70999027D01*
X78065040Y-70999027D02*
X78026945Y-70960932D01*
X78026945Y-70960932D02*
X77950755Y-70922837D01*
X77950755Y-70922837D02*
X77760278Y-70922837D01*
X77760278Y-70922837D02*
X77645993Y-70960932D01*
X77341231Y-71684742D02*
X77226945Y-71722837D01*
X77226945Y-71722837D02*
X77036469Y-71722837D01*
X77036469Y-71722837D02*
X76960278Y-71684742D01*
X76960278Y-71684742D02*
X76922183Y-71646646D01*
X76922183Y-71646646D02*
X76884088Y-71570456D01*
X76884088Y-71570456D02*
X76884088Y-71494265D01*
X76884088Y-71494265D02*
X76922183Y-71418075D01*
X76922183Y-71418075D02*
X76960278Y-71379980D01*
X76960278Y-71379980D02*
X77036469Y-71341884D01*
X77036469Y-71341884D02*
X77188850Y-71303789D01*
X77188850Y-71303789D02*
X77265040Y-71265694D01*
X77265040Y-71265694D02*
X77303135Y-71227599D01*
X77303135Y-71227599D02*
X77341231Y-71151408D01*
X77341231Y-71151408D02*
X77341231Y-71075218D01*
X77341231Y-71075218D02*
X77303135Y-70999027D01*
X77303135Y-70999027D02*
X77265040Y-70960932D01*
X77265040Y-70960932D02*
X77188850Y-70922837D01*
X77188850Y-70922837D02*
X76998373Y-70922837D01*
X76998373Y-70922837D02*
X76884088Y-70960932D01*
X76541230Y-71303789D02*
X76274564Y-71303789D01*
X76160278Y-71722837D02*
X76541230Y-71722837D01*
X76541230Y-71722837D02*
X76541230Y-70922837D01*
X76541230Y-70922837D02*
X76160278Y-70922837D01*
X75817420Y-71722837D02*
X75817420Y-70922837D01*
X75817420Y-70922837D02*
X75550754Y-71494265D01*
X75550754Y-71494265D02*
X75284087Y-70922837D01*
X75284087Y-70922837D02*
X75284087Y-71722837D01*
X74636468Y-71303789D02*
X74522182Y-71341884D01*
X74522182Y-71341884D02*
X74484087Y-71379980D01*
X74484087Y-71379980D02*
X74445991Y-71456170D01*
X74445991Y-71456170D02*
X74445991Y-71570456D01*
X74445991Y-71570456D02*
X74484087Y-71646646D01*
X74484087Y-71646646D02*
X74522182Y-71684742D01*
X74522182Y-71684742D02*
X74598372Y-71722837D01*
X74598372Y-71722837D02*
X74903134Y-71722837D01*
X74903134Y-71722837D02*
X74903134Y-70922837D01*
X74903134Y-70922837D02*
X74636468Y-70922837D01*
X74636468Y-70922837D02*
X74560277Y-70960932D01*
X74560277Y-70960932D02*
X74522182Y-70999027D01*
X74522182Y-70999027D02*
X74484087Y-71075218D01*
X74484087Y-71075218D02*
X74484087Y-71151408D01*
X74484087Y-71151408D02*
X74522182Y-71227599D01*
X74522182Y-71227599D02*
X74560277Y-71265694D01*
X74560277Y-71265694D02*
X74636468Y-71303789D01*
X74636468Y-71303789D02*
X74903134Y-71303789D01*
X73722182Y-71722837D02*
X74103134Y-71722837D01*
X74103134Y-71722837D02*
X74103134Y-70922837D01*
X73303134Y-71341884D02*
X73303134Y-71722837D01*
X73569801Y-70922837D02*
X73303134Y-71341884D01*
X73303134Y-71341884D02*
X73036468Y-70922837D01*
X72198373Y-71684742D02*
X72084087Y-71722837D01*
X72084087Y-71722837D02*
X71893611Y-71722837D01*
X71893611Y-71722837D02*
X71817420Y-71684742D01*
X71817420Y-71684742D02*
X71779325Y-71646646D01*
X71779325Y-71646646D02*
X71741230Y-71570456D01*
X71741230Y-71570456D02*
X71741230Y-71494265D01*
X71741230Y-71494265D02*
X71779325Y-71418075D01*
X71779325Y-71418075D02*
X71817420Y-71379980D01*
X71817420Y-71379980D02*
X71893611Y-71341884D01*
X71893611Y-71341884D02*
X72045992Y-71303789D01*
X72045992Y-71303789D02*
X72122182Y-71265694D01*
X72122182Y-71265694D02*
X72160277Y-71227599D01*
X72160277Y-71227599D02*
X72198373Y-71151408D01*
X72198373Y-71151408D02*
X72198373Y-71075218D01*
X72198373Y-71075218D02*
X72160277Y-70999027D01*
X72160277Y-70999027D02*
X72122182Y-70960932D01*
X72122182Y-70960932D02*
X72045992Y-70922837D01*
X72045992Y-70922837D02*
X71855515Y-70922837D01*
X71855515Y-70922837D02*
X71741230Y-70960932D01*
X71512658Y-70922837D02*
X71055515Y-70922837D01*
X71284087Y-71722837D02*
X71284087Y-70922837D01*
X70788848Y-71722837D02*
X70788848Y-70922837D01*
X69950753Y-71646646D02*
X69988849Y-71684742D01*
X69988849Y-71684742D02*
X70103134Y-71722837D01*
X70103134Y-71722837D02*
X70179325Y-71722837D01*
X70179325Y-71722837D02*
X70293611Y-71684742D01*
X70293611Y-71684742D02*
X70369801Y-71608551D01*
X70369801Y-71608551D02*
X70407896Y-71532361D01*
X70407896Y-71532361D02*
X70445992Y-71379980D01*
X70445992Y-71379980D02*
X70445992Y-71265694D01*
X70445992Y-71265694D02*
X70407896Y-71113313D01*
X70407896Y-71113313D02*
X70369801Y-71037122D01*
X70369801Y-71037122D02*
X70293611Y-70960932D01*
X70293611Y-70960932D02*
X70179325Y-70922837D01*
X70179325Y-70922837D02*
X70103134Y-70922837D01*
X70103134Y-70922837D02*
X69988849Y-70960932D01*
X69988849Y-70960932D02*
X69950753Y-70999027D01*
X69607896Y-71722837D02*
X69607896Y-70922837D01*
X69150753Y-71722837D02*
X69493611Y-71265694D01*
X69150753Y-70922837D02*
X69607896Y-71379980D01*
X68807896Y-71303789D02*
X68541230Y-71303789D01*
X68426944Y-71722837D02*
X68807896Y-71722837D01*
X68807896Y-71722837D02*
X68807896Y-70922837D01*
X68807896Y-70922837D02*
X68426944Y-70922837D01*
X67626943Y-71722837D02*
X67893610Y-71341884D01*
X68084086Y-71722837D02*
X68084086Y-70922837D01*
X68084086Y-70922837D02*
X67779324Y-70922837D01*
X67779324Y-70922837D02*
X67703134Y-70960932D01*
X67703134Y-70960932D02*
X67665039Y-70999027D01*
X67665039Y-70999027D02*
X67626943Y-71075218D01*
X67626943Y-71075218D02*
X67626943Y-71189503D01*
X67626943Y-71189503D02*
X67665039Y-71265694D01*
X67665039Y-71265694D02*
X67703134Y-71303789D01*
X67703134Y-71303789D02*
X67779324Y-71341884D01*
X67779324Y-71341884D02*
X68084086Y-71341884D01*
D12*
X63379839Y-63614140D02*
X63379839Y-62814140D01*
X63379839Y-62814140D02*
X63075077Y-62814140D01*
X63075077Y-62814140D02*
X62998887Y-62852235D01*
X62998887Y-62852235D02*
X62960792Y-62890330D01*
X62960792Y-62890330D02*
X62922696Y-62966521D01*
X62922696Y-62966521D02*
X62922696Y-63080806D01*
X62922696Y-63080806D02*
X62960792Y-63156997D01*
X62960792Y-63156997D02*
X62998887Y-63195092D01*
X62998887Y-63195092D02*
X63075077Y-63233187D01*
X63075077Y-63233187D02*
X63379839Y-63233187D01*
X62122696Y-63614140D02*
X62389363Y-63233187D01*
X62579839Y-63614140D02*
X62579839Y-62814140D01*
X62579839Y-62814140D02*
X62275077Y-62814140D01*
X62275077Y-62814140D02*
X62198887Y-62852235D01*
X62198887Y-62852235D02*
X62160792Y-62890330D01*
X62160792Y-62890330D02*
X62122696Y-62966521D01*
X62122696Y-62966521D02*
X62122696Y-63080806D01*
X62122696Y-63080806D02*
X62160792Y-63156997D01*
X62160792Y-63156997D02*
X62198887Y-63195092D01*
X62198887Y-63195092D02*
X62275077Y-63233187D01*
X62275077Y-63233187D02*
X62579839Y-63233187D01*
X61627458Y-62814140D02*
X61475077Y-62814140D01*
X61475077Y-62814140D02*
X61398887Y-62852235D01*
X61398887Y-62852235D02*
X61322696Y-62928425D01*
X61322696Y-62928425D02*
X61284601Y-63080806D01*
X61284601Y-63080806D02*
X61284601Y-63347473D01*
X61284601Y-63347473D02*
X61322696Y-63499854D01*
X61322696Y-63499854D02*
X61398887Y-63576045D01*
X61398887Y-63576045D02*
X61475077Y-63614140D01*
X61475077Y-63614140D02*
X61627458Y-63614140D01*
X61627458Y-63614140D02*
X61703649Y-63576045D01*
X61703649Y-63576045D02*
X61779839Y-63499854D01*
X61779839Y-63499854D02*
X61817935Y-63347473D01*
X61817935Y-63347473D02*
X61817935Y-63080806D01*
X61817935Y-63080806D02*
X61779839Y-62928425D01*
X61779839Y-62928425D02*
X61703649Y-62852235D01*
X61703649Y-62852235D02*
X61627458Y-62814140D01*
X60713173Y-62814140D02*
X60713173Y-63385568D01*
X60713173Y-63385568D02*
X60751268Y-63499854D01*
X60751268Y-63499854D02*
X60827459Y-63576045D01*
X60827459Y-63576045D02*
X60941744Y-63614140D01*
X60941744Y-63614140D02*
X61017935Y-63614140D01*
X60332220Y-63195092D02*
X60065554Y-63195092D01*
X59951268Y-63614140D02*
X60332220Y-63614140D01*
X60332220Y-63614140D02*
X60332220Y-62814140D01*
X60332220Y-62814140D02*
X59951268Y-62814140D01*
X59151267Y-63537949D02*
X59189363Y-63576045D01*
X59189363Y-63576045D02*
X59303648Y-63614140D01*
X59303648Y-63614140D02*
X59379839Y-63614140D01*
X59379839Y-63614140D02*
X59494125Y-63576045D01*
X59494125Y-63576045D02*
X59570315Y-63499854D01*
X59570315Y-63499854D02*
X59608410Y-63423664D01*
X59608410Y-63423664D02*
X59646506Y-63271283D01*
X59646506Y-63271283D02*
X59646506Y-63156997D01*
X59646506Y-63156997D02*
X59608410Y-63004616D01*
X59608410Y-63004616D02*
X59570315Y-62928425D01*
X59570315Y-62928425D02*
X59494125Y-62852235D01*
X59494125Y-62852235D02*
X59379839Y-62814140D01*
X59379839Y-62814140D02*
X59303648Y-62814140D01*
X59303648Y-62814140D02*
X59189363Y-62852235D01*
X59189363Y-62852235D02*
X59151267Y-62890330D01*
X58922696Y-62814140D02*
X58465553Y-62814140D01*
X58694125Y-63614140D02*
X58694125Y-62814140D01*
X56522695Y-63614140D02*
X56789362Y-63233187D01*
X56979838Y-63614140D02*
X56979838Y-62814140D01*
X56979838Y-62814140D02*
X56675076Y-62814140D01*
X56675076Y-62814140D02*
X56598886Y-62852235D01*
X56598886Y-62852235D02*
X56560791Y-62890330D01*
X56560791Y-62890330D02*
X56522695Y-62966521D01*
X56522695Y-62966521D02*
X56522695Y-63080806D01*
X56522695Y-63080806D02*
X56560791Y-63156997D01*
X56560791Y-63156997D02*
X56598886Y-63195092D01*
X56598886Y-63195092D02*
X56675076Y-63233187D01*
X56675076Y-63233187D02*
X56979838Y-63233187D01*
X55875076Y-63576045D02*
X55951267Y-63614140D01*
X55951267Y-63614140D02*
X56103648Y-63614140D01*
X56103648Y-63614140D02*
X56179838Y-63576045D01*
X56179838Y-63576045D02*
X56217934Y-63499854D01*
X56217934Y-63499854D02*
X56217934Y-63195092D01*
X56217934Y-63195092D02*
X56179838Y-63118902D01*
X56179838Y-63118902D02*
X56103648Y-63080806D01*
X56103648Y-63080806D02*
X55951267Y-63080806D01*
X55951267Y-63080806D02*
X55875076Y-63118902D01*
X55875076Y-63118902D02*
X55836981Y-63195092D01*
X55836981Y-63195092D02*
X55836981Y-63271283D01*
X55836981Y-63271283D02*
X56217934Y-63347473D01*
X55570315Y-63080806D02*
X55379839Y-63614140D01*
X55379839Y-63614140D02*
X55189362Y-63080806D01*
X54884600Y-63537949D02*
X54846505Y-63576045D01*
X54846505Y-63576045D02*
X54884600Y-63614140D01*
X54884600Y-63614140D02*
X54922696Y-63576045D01*
X54922696Y-63576045D02*
X54884600Y-63537949D01*
X54884600Y-63537949D02*
X54884600Y-63614140D01*
X53932220Y-62890330D02*
X53894124Y-62852235D01*
X53894124Y-62852235D02*
X53817934Y-62814140D01*
X53817934Y-62814140D02*
X53627458Y-62814140D01*
X53627458Y-62814140D02*
X53551267Y-62852235D01*
X53551267Y-62852235D02*
X53513172Y-62890330D01*
X53513172Y-62890330D02*
X53475077Y-62966521D01*
X53475077Y-62966521D02*
X53475077Y-63042711D01*
X53475077Y-63042711D02*
X53513172Y-63156997D01*
X53513172Y-63156997D02*
X53970315Y-63614140D01*
X53970315Y-63614140D02*
X53475077Y-63614140D01*
X53132219Y-63537949D02*
X53094124Y-63576045D01*
X53094124Y-63576045D02*
X53132219Y-63614140D01*
X53132219Y-63614140D02*
X53170315Y-63576045D01*
X53170315Y-63576045D02*
X53132219Y-63537949D01*
X53132219Y-63537949D02*
X53132219Y-63614140D01*
X52598886Y-62814140D02*
X52522696Y-62814140D01*
X52522696Y-62814140D02*
X52446505Y-62852235D01*
X52446505Y-62852235D02*
X52408410Y-62890330D01*
X52408410Y-62890330D02*
X52370315Y-62966521D01*
X52370315Y-62966521D02*
X52332220Y-63118902D01*
X52332220Y-63118902D02*
X52332220Y-63309378D01*
X52332220Y-63309378D02*
X52370315Y-63461759D01*
X52370315Y-63461759D02*
X52408410Y-63537949D01*
X52408410Y-63537949D02*
X52446505Y-63576045D01*
X52446505Y-63576045D02*
X52522696Y-63614140D01*
X52522696Y-63614140D02*
X52598886Y-63614140D01*
X52598886Y-63614140D02*
X52675077Y-63576045D01*
X52675077Y-63576045D02*
X52713172Y-63537949D01*
X52713172Y-63537949D02*
X52751267Y-63461759D01*
X52751267Y-63461759D02*
X52789363Y-63309378D01*
X52789363Y-63309378D02*
X52789363Y-63118902D01*
X52789363Y-63118902D02*
X52751267Y-62966521D01*
X52751267Y-62966521D02*
X52713172Y-62890330D01*
X52713172Y-62890330D02*
X52675077Y-62852235D01*
X52675077Y-62852235D02*
X52598886Y-62814140D01*
X51989362Y-63537949D02*
X51951267Y-63576045D01*
X51951267Y-63576045D02*
X51989362Y-63614140D01*
X51989362Y-63614140D02*
X52027458Y-63576045D01*
X52027458Y-63576045D02*
X51989362Y-63537949D01*
X51989362Y-63537949D02*
X51989362Y-63614140D01*
X51456029Y-62814140D02*
X51379839Y-62814140D01*
X51379839Y-62814140D02*
X51303648Y-62852235D01*
X51303648Y-62852235D02*
X51265553Y-62890330D01*
X51265553Y-62890330D02*
X51227458Y-62966521D01*
X51227458Y-62966521D02*
X51189363Y-63118902D01*
X51189363Y-63118902D02*
X51189363Y-63309378D01*
X51189363Y-63309378D02*
X51227458Y-63461759D01*
X51227458Y-63461759D02*
X51265553Y-63537949D01*
X51265553Y-63537949D02*
X51303648Y-63576045D01*
X51303648Y-63576045D02*
X51379839Y-63614140D01*
X51379839Y-63614140D02*
X51456029Y-63614140D01*
X51456029Y-63614140D02*
X51532220Y-63576045D01*
X51532220Y-63576045D02*
X51570315Y-63537949D01*
X51570315Y-63537949D02*
X51608410Y-63461759D01*
X51608410Y-63461759D02*
X51646506Y-63309378D01*
X51646506Y-63309378D02*
X51646506Y-63118902D01*
X51646506Y-63118902D02*
X51608410Y-62966521D01*
X51608410Y-62966521D02*
X51570315Y-62890330D01*
X51570315Y-62890330D02*
X51532220Y-62852235D01*
X51532220Y-62852235D02*
X51456029Y-62814140D01*
D13*
X63286279Y-57657219D02*
X63161279Y-56657219D01*
X63161279Y-56657219D02*
X62917231Y-57371504D01*
X62917231Y-57371504D02*
X62494612Y-56657219D01*
X62494612Y-56657219D02*
X62619612Y-57657219D01*
X62000565Y-57657219D02*
X62089850Y-57609600D01*
X62089850Y-57609600D02*
X62131517Y-57561980D01*
X62131517Y-57561980D02*
X62167231Y-57466742D01*
X62167231Y-57466742D02*
X62131517Y-57181028D01*
X62131517Y-57181028D02*
X62071993Y-57085790D01*
X62071993Y-57085790D02*
X62018422Y-57038171D01*
X62018422Y-57038171D02*
X61917231Y-56990552D01*
X61917231Y-56990552D02*
X61774374Y-56990552D01*
X61774374Y-56990552D02*
X61685088Y-57038171D01*
X61685088Y-57038171D02*
X61643422Y-57085790D01*
X61643422Y-57085790D02*
X61607707Y-57181028D01*
X61607707Y-57181028D02*
X61643422Y-57466742D01*
X61643422Y-57466742D02*
X61702945Y-57561980D01*
X61702945Y-57561980D02*
X61756517Y-57609600D01*
X61756517Y-57609600D02*
X61857707Y-57657219D01*
X61857707Y-57657219D02*
X62000565Y-57657219D01*
X60810088Y-57657219D02*
X60685088Y-56657219D01*
X60804136Y-57609600D02*
X60905326Y-57657219D01*
X60905326Y-57657219D02*
X61095803Y-57657219D01*
X61095803Y-57657219D02*
X61185088Y-57609600D01*
X61185088Y-57609600D02*
X61226755Y-57561980D01*
X61226755Y-57561980D02*
X61262469Y-57466742D01*
X61262469Y-57466742D02*
X61226755Y-57181028D01*
X61226755Y-57181028D02*
X61167231Y-57085790D01*
X61167231Y-57085790D02*
X61113660Y-57038171D01*
X61113660Y-57038171D02*
X61012469Y-56990552D01*
X61012469Y-56990552D02*
X60821993Y-56990552D01*
X60821993Y-56990552D02*
X60732707Y-57038171D01*
X59821993Y-56990552D02*
X59905326Y-57657219D01*
X60250564Y-56990552D02*
X60316041Y-57514361D01*
X60316041Y-57514361D02*
X60280326Y-57609600D01*
X60280326Y-57609600D02*
X60191041Y-57657219D01*
X60191041Y-57657219D02*
X60048183Y-57657219D01*
X60048183Y-57657219D02*
X59946993Y-57609600D01*
X59946993Y-57609600D02*
X59893421Y-57561980D01*
X58845802Y-57561980D02*
X58899374Y-57609600D01*
X58899374Y-57609600D02*
X59048183Y-57657219D01*
X59048183Y-57657219D02*
X59143421Y-57657219D01*
X59143421Y-57657219D02*
X59280326Y-57609600D01*
X59280326Y-57609600D02*
X59363659Y-57514361D01*
X59363659Y-57514361D02*
X59399374Y-57419123D01*
X59399374Y-57419123D02*
X59423183Y-57228647D01*
X59423183Y-57228647D02*
X59405326Y-57085790D01*
X59405326Y-57085790D02*
X59333898Y-56895314D01*
X59333898Y-56895314D02*
X59274374Y-56800076D01*
X59274374Y-56800076D02*
X59167231Y-56704838D01*
X59167231Y-56704838D02*
X59018421Y-56657219D01*
X59018421Y-56657219D02*
X58923183Y-56657219D01*
X58923183Y-56657219D02*
X58786279Y-56704838D01*
X58786279Y-56704838D02*
X58744612Y-56752457D01*
X58000564Y-57657219D02*
X57935088Y-57133409D01*
X57935088Y-57133409D02*
X57970802Y-57038171D01*
X57970802Y-57038171D02*
X58060088Y-56990552D01*
X58060088Y-56990552D02*
X58250564Y-56990552D01*
X58250564Y-56990552D02*
X58351755Y-57038171D01*
X57994612Y-57609600D02*
X58095802Y-57657219D01*
X58095802Y-57657219D02*
X58333898Y-57657219D01*
X58333898Y-57657219D02*
X58423183Y-57609600D01*
X58423183Y-57609600D02*
X58458898Y-57514361D01*
X58458898Y-57514361D02*
X58446993Y-57419123D01*
X58446993Y-57419123D02*
X58387469Y-57323885D01*
X58387469Y-57323885D02*
X58286279Y-57276266D01*
X58286279Y-57276266D02*
X58048183Y-57276266D01*
X58048183Y-57276266D02*
X57946993Y-57228647D01*
X57524374Y-57657219D02*
X57441040Y-56990552D01*
X57464850Y-57181028D02*
X57405326Y-57085790D01*
X57405326Y-57085790D02*
X57351755Y-57038171D01*
X57351755Y-57038171D02*
X57250564Y-56990552D01*
X57250564Y-56990552D02*
X57155326Y-56990552D01*
X56476754Y-57657219D02*
X56351754Y-56657219D01*
X56470802Y-57609600D02*
X56571992Y-57657219D01*
X56571992Y-57657219D02*
X56762469Y-57657219D01*
X56762469Y-57657219D02*
X56851754Y-57609600D01*
X56851754Y-57609600D02*
X56893421Y-57561980D01*
X56893421Y-57561980D02*
X56929135Y-57466742D01*
X56929135Y-57466742D02*
X56893421Y-57181028D01*
X56893421Y-57181028D02*
X56833897Y-57085790D01*
X56833897Y-57085790D02*
X56780326Y-57038171D01*
X56780326Y-57038171D02*
X56679135Y-56990552D01*
X56679135Y-56990552D02*
X56488659Y-56990552D01*
X56488659Y-56990552D02*
X56399373Y-57038171D01*
X55280325Y-57609600D02*
X55143421Y-57657219D01*
X55143421Y-57657219D02*
X54905325Y-57657219D01*
X54905325Y-57657219D02*
X54804135Y-57609600D01*
X54804135Y-57609600D02*
X54750563Y-57561980D01*
X54750563Y-57561980D02*
X54691040Y-57466742D01*
X54691040Y-57466742D02*
X54679135Y-57371504D01*
X54679135Y-57371504D02*
X54714849Y-57276266D01*
X54714849Y-57276266D02*
X54756516Y-57228647D01*
X54756516Y-57228647D02*
X54845802Y-57181028D01*
X54845802Y-57181028D02*
X55030325Y-57133409D01*
X55030325Y-57133409D02*
X55119611Y-57085790D01*
X55119611Y-57085790D02*
X55161278Y-57038171D01*
X55161278Y-57038171D02*
X55196992Y-56942933D01*
X55196992Y-56942933D02*
X55185087Y-56847695D01*
X55185087Y-56847695D02*
X55125563Y-56752457D01*
X55125563Y-56752457D02*
X55071992Y-56704838D01*
X55071992Y-56704838D02*
X54970802Y-56657219D01*
X54970802Y-56657219D02*
X54732706Y-56657219D01*
X54732706Y-56657219D02*
X54595802Y-56704838D01*
X54298182Y-56990552D02*
X54143421Y-57657219D01*
X53821992Y-56990552D02*
X54143421Y-57657219D01*
X54143421Y-57657219D02*
X54268421Y-57895314D01*
X54268421Y-57895314D02*
X54321992Y-57942933D01*
X54321992Y-57942933D02*
X54423182Y-57990552D01*
X53566039Y-57609600D02*
X53476754Y-57657219D01*
X53476754Y-57657219D02*
X53286277Y-57657219D01*
X53286277Y-57657219D02*
X53185087Y-57609600D01*
X53185087Y-57609600D02*
X53125563Y-57514361D01*
X53125563Y-57514361D02*
X53119611Y-57466742D01*
X53119611Y-57466742D02*
X53155325Y-57371504D01*
X53155325Y-57371504D02*
X53244611Y-57323885D01*
X53244611Y-57323885D02*
X53387468Y-57323885D01*
X53387468Y-57323885D02*
X53476754Y-57276266D01*
X53476754Y-57276266D02*
X53512468Y-57181028D01*
X53512468Y-57181028D02*
X53506516Y-57133409D01*
X53506516Y-57133409D02*
X53446992Y-57038171D01*
X53446992Y-57038171D02*
X53345801Y-56990552D01*
X53345801Y-56990552D02*
X53202944Y-56990552D01*
X53202944Y-56990552D02*
X53113658Y-57038171D01*
X52774372Y-56990552D02*
X52393420Y-56990552D01*
X52589849Y-56657219D02*
X52696992Y-57514361D01*
X52696992Y-57514361D02*
X52661277Y-57609600D01*
X52661277Y-57609600D02*
X52571992Y-57657219D01*
X52571992Y-57657219D02*
X52476753Y-57657219D01*
X51756515Y-57609600D02*
X51857705Y-57657219D01*
X51857705Y-57657219D02*
X52048182Y-57657219D01*
X52048182Y-57657219D02*
X52137467Y-57609600D01*
X52137467Y-57609600D02*
X52173182Y-57514361D01*
X52173182Y-57514361D02*
X52125563Y-57133409D01*
X52125563Y-57133409D02*
X52066039Y-57038171D01*
X52066039Y-57038171D02*
X51964848Y-56990552D01*
X51964848Y-56990552D02*
X51774372Y-56990552D01*
X51774372Y-56990552D02*
X51685086Y-57038171D01*
X51685086Y-57038171D02*
X51649372Y-57133409D01*
X51649372Y-57133409D02*
X51661277Y-57228647D01*
X51661277Y-57228647D02*
X52149372Y-57323885D01*
X51286277Y-57657219D02*
X51202943Y-56990552D01*
X51214848Y-57085790D02*
X51161277Y-57038171D01*
X51161277Y-57038171D02*
X51060086Y-56990552D01*
X51060086Y-56990552D02*
X50917229Y-56990552D01*
X50917229Y-56990552D02*
X50827943Y-57038171D01*
X50827943Y-57038171D02*
X50792229Y-57133409D01*
X50792229Y-57133409D02*
X50857705Y-57657219D01*
X50792229Y-57133409D02*
X50732705Y-57038171D01*
X50732705Y-57038171D02*
X50631515Y-56990552D01*
X50631515Y-56990552D02*
X50488658Y-56990552D01*
X50488658Y-56990552D02*
X50399372Y-57038171D01*
X50399372Y-57038171D02*
X50363658Y-57133409D01*
X50363658Y-57133409D02*
X50429134Y-57657219D01*
D14*
G36*
X67129490Y-58080341D02*
G01*
X67129490Y-59130341D01*
X67120697Y-59263698D01*
X67092853Y-59324514D01*
X67043028Y-59343565D01*
X66937515Y-59346496D01*
X66937515Y-59440286D01*
X67598436Y-59440286D01*
X67598436Y-59346496D01*
X67481932Y-59338436D01*
X67432839Y-59309127D01*
X67412323Y-59243182D01*
X67407194Y-59125945D01*
X67407194Y-58626224D01*
X67409465Y-58477199D01*
X67411590Y-58433516D01*
X67424046Y-58334598D01*
X67444563Y-58300160D01*
X67482665Y-58294298D01*
X67520034Y-58299427D01*
X67587445Y-58320676D01*
X67627012Y-58231283D01*
X67218882Y-58080341D01*
X67129490Y-58080341D01*
G37*
G36*
X67267975Y-57423817D02*
G01*
X67152204Y-57471444D01*
X67104577Y-57587948D01*
X67151471Y-57703719D01*
X67267975Y-57752079D01*
X67385212Y-57703719D01*
X67432106Y-57587948D01*
X67385212Y-57471444D01*
X67267975Y-57423817D01*
G37*
D15*
X63187594Y-64564727D02*
X63073308Y-64602822D01*
X63073308Y-64602822D02*
X63035213Y-64640918D01*
X63035213Y-64640918D02*
X62997117Y-64717108D01*
X62997117Y-64717108D02*
X62997117Y-64831394D01*
X62997117Y-64831394D02*
X63035213Y-64907584D01*
X63035213Y-64907584D02*
X63073308Y-64945680D01*
X63073308Y-64945680D02*
X63149498Y-64983775D01*
X63149498Y-64983775D02*
X63454260Y-64983775D01*
X63454260Y-64983775D02*
X63454260Y-64183775D01*
X63454260Y-64183775D02*
X63187594Y-64183775D01*
X63187594Y-64183775D02*
X63111403Y-64221870D01*
X63111403Y-64221870D02*
X63073308Y-64259965D01*
X63073308Y-64259965D02*
X63035213Y-64336156D01*
X63035213Y-64336156D02*
X63035213Y-64412346D01*
X63035213Y-64412346D02*
X63073308Y-64488537D01*
X63073308Y-64488537D02*
X63111403Y-64526632D01*
X63111403Y-64526632D02*
X63187594Y-64564727D01*
X63187594Y-64564727D02*
X63454260Y-64564727D01*
X62197117Y-64983775D02*
X62463784Y-64602822D01*
X62654260Y-64983775D02*
X62654260Y-64183775D01*
X62654260Y-64183775D02*
X62349498Y-64183775D01*
X62349498Y-64183775D02*
X62273308Y-64221870D01*
X62273308Y-64221870D02*
X62235213Y-64259965D01*
X62235213Y-64259965D02*
X62197117Y-64336156D01*
X62197117Y-64336156D02*
X62197117Y-64450441D01*
X62197117Y-64450441D02*
X62235213Y-64526632D01*
X62235213Y-64526632D02*
X62273308Y-64564727D01*
X62273308Y-64564727D02*
X62349498Y-64602822D01*
X62349498Y-64602822D02*
X62654260Y-64602822D01*
X61854260Y-64983775D02*
X61854260Y-64183775D01*
X61854260Y-64183775D02*
X61663784Y-64183775D01*
X61663784Y-64183775D02*
X61549498Y-64221870D01*
X61549498Y-64221870D02*
X61473308Y-64298060D01*
X61473308Y-64298060D02*
X61435213Y-64374251D01*
X61435213Y-64374251D02*
X61397117Y-64526632D01*
X61397117Y-64526632D02*
X61397117Y-64640918D01*
X61397117Y-64640918D02*
X61435213Y-64793299D01*
X61435213Y-64793299D02*
X61473308Y-64869489D01*
X61473308Y-64869489D02*
X61549498Y-64945680D01*
X61549498Y-64945680D02*
X61663784Y-64983775D01*
X61663784Y-64983775D02*
X61854260Y-64983775D01*
X60482832Y-64945680D02*
X60368546Y-64983775D01*
X60368546Y-64983775D02*
X60178070Y-64983775D01*
X60178070Y-64983775D02*
X60101879Y-64945680D01*
X60101879Y-64945680D02*
X60063784Y-64907584D01*
X60063784Y-64907584D02*
X60025689Y-64831394D01*
X60025689Y-64831394D02*
X60025689Y-64755203D01*
X60025689Y-64755203D02*
X60063784Y-64679013D01*
X60063784Y-64679013D02*
X60101879Y-64640918D01*
X60101879Y-64640918D02*
X60178070Y-64602822D01*
X60178070Y-64602822D02*
X60330451Y-64564727D01*
X60330451Y-64564727D02*
X60406641Y-64526632D01*
X60406641Y-64526632D02*
X60444736Y-64488537D01*
X60444736Y-64488537D02*
X60482832Y-64412346D01*
X60482832Y-64412346D02*
X60482832Y-64336156D01*
X60482832Y-64336156D02*
X60444736Y-64259965D01*
X60444736Y-64259965D02*
X60406641Y-64221870D01*
X60406641Y-64221870D02*
X60330451Y-64183775D01*
X60330451Y-64183775D02*
X60139974Y-64183775D01*
X60139974Y-64183775D02*
X60025689Y-64221870D01*
X59682831Y-64983775D02*
X59682831Y-64183775D01*
X59682831Y-64564727D02*
X59225688Y-64564727D01*
X59225688Y-64983775D02*
X59225688Y-64183775D01*
X58882832Y-64755203D02*
X58501879Y-64755203D01*
X58959022Y-64983775D02*
X58692355Y-64183775D01*
X58692355Y-64183775D02*
X58425689Y-64983775D01*
X58159022Y-64907584D02*
X58120927Y-64945680D01*
X58120927Y-64945680D02*
X58159022Y-64983775D01*
X58159022Y-64983775D02*
X58197118Y-64945680D01*
X58197118Y-64945680D02*
X58159022Y-64907584D01*
X58159022Y-64907584D02*
X58159022Y-64983775D01*
X58159022Y-64488537D02*
X58120927Y-64526632D01*
X58120927Y-64526632D02*
X58159022Y-64564727D01*
X58159022Y-64564727D02*
X58197118Y-64526632D01*
X58197118Y-64526632D02*
X58159022Y-64488537D01*
X58159022Y-64488537D02*
X58159022Y-64564727D01*
X57206642Y-64983775D02*
X56597118Y-64183775D01*
X57092356Y-64183775D02*
X57016165Y-64221870D01*
X57016165Y-64221870D02*
X56978070Y-64298060D01*
X56978070Y-64298060D02*
X57016165Y-64374251D01*
X57016165Y-64374251D02*
X57092356Y-64412346D01*
X57092356Y-64412346D02*
X57168546Y-64374251D01*
X57168546Y-64374251D02*
X57206642Y-64298060D01*
X57206642Y-64298060D02*
X57168546Y-64221870D01*
X57168546Y-64221870D02*
X57092356Y-64183775D01*
X56635213Y-64945680D02*
X56597118Y-64869489D01*
X56597118Y-64869489D02*
X56635213Y-64793299D01*
X56635213Y-64793299D02*
X56711403Y-64755203D01*
X56711403Y-64755203D02*
X56787594Y-64793299D01*
X56787594Y-64793299D02*
X56825689Y-64869489D01*
X56825689Y-64869489D02*
X56787594Y-64945680D01*
X56787594Y-64945680D02*
X56711403Y-64983775D01*
X56711403Y-64983775D02*
X56635213Y-64945680D01*
X56292356Y-64983775D02*
X55682832Y-64183775D01*
X56178070Y-64183775D02*
X56101879Y-64221870D01*
X56101879Y-64221870D02*
X56063784Y-64298060D01*
X56063784Y-64298060D02*
X56101879Y-64374251D01*
X56101879Y-64374251D02*
X56178070Y-64412346D01*
X56178070Y-64412346D02*
X56254260Y-64374251D01*
X56254260Y-64374251D02*
X56292356Y-64298060D01*
X56292356Y-64298060D02*
X56254260Y-64221870D01*
X56254260Y-64221870D02*
X56178070Y-64183775D01*
X55720927Y-64945680D02*
X55682832Y-64869489D01*
X55682832Y-64869489D02*
X55720927Y-64793299D01*
X55720927Y-64793299D02*
X55797117Y-64755203D01*
X55797117Y-64755203D02*
X55873308Y-64793299D01*
X55873308Y-64793299D02*
X55911403Y-64869489D01*
X55911403Y-64869489D02*
X55873308Y-64945680D01*
X55873308Y-64945680D02*
X55797117Y-64983775D01*
X55797117Y-64983775D02*
X55720927Y-64945680D01*
X55378070Y-64983775D02*
X54768546Y-64183775D01*
X55263784Y-64183775D02*
X55187593Y-64221870D01*
X55187593Y-64221870D02*
X55149498Y-64298060D01*
X55149498Y-64298060D02*
X55187593Y-64374251D01*
X55187593Y-64374251D02*
X55263784Y-64412346D01*
X55263784Y-64412346D02*
X55339974Y-64374251D01*
X55339974Y-64374251D02*
X55378070Y-64298060D01*
X55378070Y-64298060D02*
X55339974Y-64221870D01*
X55339974Y-64221870D02*
X55263784Y-64183775D01*
X54806641Y-64945680D02*
X54768546Y-64869489D01*
X54768546Y-64869489D02*
X54806641Y-64793299D01*
X54806641Y-64793299D02*
X54882831Y-64755203D01*
X54882831Y-64755203D02*
X54959022Y-64793299D01*
X54959022Y-64793299D02*
X54997117Y-64869489D01*
X54997117Y-64869489D02*
X54959022Y-64945680D01*
X54959022Y-64945680D02*
X54882831Y-64983775D01*
X54882831Y-64983775D02*
X54806641Y-64945680D01*
X54463784Y-64983775D02*
X53854260Y-64183775D01*
X54349498Y-64183775D02*
X54273307Y-64221870D01*
X54273307Y-64221870D02*
X54235212Y-64298060D01*
X54235212Y-64298060D02*
X54273307Y-64374251D01*
X54273307Y-64374251D02*
X54349498Y-64412346D01*
X54349498Y-64412346D02*
X54425688Y-64374251D01*
X54425688Y-64374251D02*
X54463784Y-64298060D01*
X54463784Y-64298060D02*
X54425688Y-64221870D01*
X54425688Y-64221870D02*
X54349498Y-64183775D01*
X53892355Y-64945680D02*
X53854260Y-64869489D01*
X53854260Y-64869489D02*
X53892355Y-64793299D01*
X53892355Y-64793299D02*
X53968545Y-64755203D01*
X53968545Y-64755203D02*
X54044736Y-64793299D01*
X54044736Y-64793299D02*
X54082831Y-64869489D01*
X54082831Y-64869489D02*
X54044736Y-64945680D01*
X54044736Y-64945680D02*
X53968545Y-64983775D01*
X53968545Y-64983775D02*
X53892355Y-64945680D01*
X53549498Y-64983775D02*
X52939974Y-64183775D01*
X53435212Y-64183775D02*
X53359021Y-64221870D01*
X53359021Y-64221870D02*
X53320926Y-64298060D01*
X53320926Y-64298060D02*
X53359021Y-64374251D01*
X53359021Y-64374251D02*
X53435212Y-64412346D01*
X53435212Y-64412346D02*
X53511402Y-64374251D01*
X53511402Y-64374251D02*
X53549498Y-64298060D01*
X53549498Y-64298060D02*
X53511402Y-64221870D01*
X53511402Y-64221870D02*
X53435212Y-64183775D01*
X52978069Y-64945680D02*
X52939974Y-64869489D01*
X52939974Y-64869489D02*
X52978069Y-64793299D01*
X52978069Y-64793299D02*
X53054259Y-64755203D01*
X53054259Y-64755203D02*
X53130450Y-64793299D01*
X53130450Y-64793299D02*
X53168545Y-64869489D01*
X53168545Y-64869489D02*
X53130450Y-64945680D01*
X53130450Y-64945680D02*
X53054259Y-64983775D01*
X53054259Y-64983775D02*
X52978069Y-64945680D01*
X52635212Y-64983775D02*
X52025688Y-64183775D01*
X52520926Y-64183775D02*
X52444735Y-64221870D01*
X52444735Y-64221870D02*
X52406640Y-64298060D01*
X52406640Y-64298060D02*
X52444735Y-64374251D01*
X52444735Y-64374251D02*
X52520926Y-64412346D01*
X52520926Y-64412346D02*
X52597116Y-64374251D01*
X52597116Y-64374251D02*
X52635212Y-64298060D01*
X52635212Y-64298060D02*
X52597116Y-64221870D01*
X52597116Y-64221870D02*
X52520926Y-64183775D01*
X52063783Y-64945680D02*
X52025688Y-64869489D01*
X52025688Y-64869489D02*
X52063783Y-64793299D01*
X52063783Y-64793299D02*
X52139973Y-64755203D01*
X52139973Y-64755203D02*
X52216164Y-64793299D01*
X52216164Y-64793299D02*
X52254259Y-64869489D01*
X52254259Y-64869489D02*
X52216164Y-64945680D01*
X52216164Y-64945680D02*
X52139973Y-64983775D01*
X52139973Y-64983775D02*
X52063783Y-64945680D01*
X51720926Y-64983775D02*
X51111402Y-64183775D01*
X51606640Y-64183775D02*
X51530449Y-64221870D01*
X51530449Y-64221870D02*
X51492354Y-64298060D01*
X51492354Y-64298060D02*
X51530449Y-64374251D01*
X51530449Y-64374251D02*
X51606640Y-64412346D01*
X51606640Y-64412346D02*
X51682830Y-64374251D01*
X51682830Y-64374251D02*
X51720926Y-64298060D01*
X51720926Y-64298060D02*
X51682830Y-64221870D01*
X51682830Y-64221870D02*
X51606640Y-64183775D01*
X51149497Y-64945680D02*
X51111402Y-64869489D01*
X51111402Y-64869489D02*
X51149497Y-64793299D01*
X51149497Y-64793299D02*
X51225687Y-64755203D01*
X51225687Y-64755203D02*
X51301878Y-64793299D01*
X51301878Y-64793299D02*
X51339973Y-64869489D01*
X51339973Y-64869489D02*
X51301878Y-64945680D01*
X51301878Y-64945680D02*
X51225687Y-64983775D01*
X51225687Y-64983775D02*
X51149497Y-64945680D01*
X50806640Y-64983775D02*
X50197116Y-64183775D01*
X50692354Y-64183775D02*
X50616163Y-64221870D01*
X50616163Y-64221870D02*
X50578068Y-64298060D01*
X50578068Y-64298060D02*
X50616163Y-64374251D01*
X50616163Y-64374251D02*
X50692354Y-64412346D01*
X50692354Y-64412346D02*
X50768544Y-64374251D01*
X50768544Y-64374251D02*
X50806640Y-64298060D01*
X50806640Y-64298060D02*
X50768544Y-64221870D01*
X50768544Y-64221870D02*
X50692354Y-64183775D01*
X50235211Y-64945680D02*
X50197116Y-64869489D01*
X50197116Y-64869489D02*
X50235211Y-64793299D01*
X50235211Y-64793299D02*
X50311401Y-64755203D01*
X50311401Y-64755203D02*
X50387592Y-64793299D01*
X50387592Y-64793299D02*
X50425687Y-64869489D01*
X50425687Y-64869489D02*
X50387592Y-64945680D01*
X50387592Y-64945680D02*
X50311401Y-64983775D01*
X50311401Y-64983775D02*
X50235211Y-64945680D01*
D13*
X63432707Y-66481695D02*
X63332707Y-65681695D01*
X63332707Y-65681695D02*
X63142231Y-65681695D01*
X63142231Y-65681695D02*
X63032707Y-65719790D01*
X63032707Y-65719790D02*
X62966041Y-65795980D01*
X62966041Y-65795980D02*
X62937469Y-65872171D01*
X62937469Y-65872171D02*
X62918422Y-66024552D01*
X62918422Y-66024552D02*
X62932707Y-66138838D01*
X62932707Y-66138838D02*
X62989850Y-66291219D01*
X62989850Y-66291219D02*
X63037469Y-66367409D01*
X63037469Y-66367409D02*
X63123183Y-66443600D01*
X63123183Y-66443600D02*
X63242231Y-66481695D01*
X63242231Y-66481695D02*
X63432707Y-66481695D01*
X62323183Y-66443600D02*
X62404136Y-66481695D01*
X62404136Y-66481695D02*
X62556517Y-66481695D01*
X62556517Y-66481695D02*
X62627945Y-66443600D01*
X62627945Y-66443600D02*
X62656517Y-66367409D01*
X62656517Y-66367409D02*
X62618422Y-66062647D01*
X62618422Y-66062647D02*
X62570802Y-65986457D01*
X62570802Y-65986457D02*
X62489850Y-65948361D01*
X62489850Y-65948361D02*
X62337469Y-65948361D01*
X62337469Y-65948361D02*
X62266041Y-65986457D01*
X62266041Y-65986457D02*
X62237469Y-66062647D01*
X62237469Y-66062647D02*
X62246993Y-66138838D01*
X62246993Y-66138838D02*
X62637469Y-66215028D01*
X61956517Y-65948361D02*
X61832708Y-66481695D01*
X61832708Y-66481695D02*
X61575565Y-65948361D01*
X61337469Y-66481695D02*
X61270803Y-65948361D01*
X61237469Y-65681695D02*
X61280326Y-65719790D01*
X61280326Y-65719790D02*
X61246993Y-65757885D01*
X61246993Y-65757885D02*
X61204136Y-65719790D01*
X61204136Y-65719790D02*
X61237469Y-65681695D01*
X61237469Y-65681695D02*
X61246993Y-65757885D01*
X60608898Y-66443600D02*
X60689851Y-66481695D01*
X60689851Y-66481695D02*
X60842232Y-66481695D01*
X60842232Y-66481695D02*
X60913660Y-66443600D01*
X60913660Y-66443600D02*
X60946993Y-66405504D01*
X60946993Y-66405504D02*
X60975565Y-66329314D01*
X60975565Y-66329314D02*
X60946993Y-66100742D01*
X60946993Y-66100742D02*
X60899374Y-66024552D01*
X60899374Y-66024552D02*
X60856517Y-65986457D01*
X60856517Y-65986457D02*
X60775565Y-65948361D01*
X60775565Y-65948361D02*
X60623184Y-65948361D01*
X60623184Y-65948361D02*
X60551755Y-65986457D01*
X59961279Y-66443600D02*
X60042232Y-66481695D01*
X60042232Y-66481695D02*
X60194613Y-66481695D01*
X60194613Y-66481695D02*
X60266041Y-66443600D01*
X60266041Y-66443600D02*
X60294613Y-66367409D01*
X60294613Y-66367409D02*
X60256518Y-66062647D01*
X60256518Y-66062647D02*
X60208898Y-65986457D01*
X60208898Y-65986457D02*
X60127946Y-65948361D01*
X60127946Y-65948361D02*
X59975565Y-65948361D01*
X59975565Y-65948361D02*
X59904137Y-65986457D01*
X59904137Y-65986457D02*
X59875565Y-66062647D01*
X59875565Y-66062647D02*
X59885089Y-66138838D01*
X59885089Y-66138838D02*
X60275565Y-66215028D01*
X58975565Y-66481695D02*
X58908899Y-65948361D01*
X58875565Y-65681695D02*
X58918422Y-65719790D01*
X58918422Y-65719790D02*
X58885089Y-65757885D01*
X58885089Y-65757885D02*
X58842232Y-65719790D01*
X58842232Y-65719790D02*
X58875565Y-65681695D01*
X58875565Y-65681695D02*
X58885089Y-65757885D01*
X58527947Y-65948361D02*
X58594613Y-66481695D01*
X58537470Y-66024552D02*
X58494613Y-65986457D01*
X58494613Y-65986457D02*
X58413661Y-65948361D01*
X58413661Y-65948361D02*
X58299375Y-65948361D01*
X58299375Y-65948361D02*
X58227947Y-65986457D01*
X58227947Y-65986457D02*
X58199375Y-66062647D01*
X58199375Y-66062647D02*
X58251756Y-66481695D01*
X57918422Y-65948361D02*
X57613660Y-65948361D01*
X57870803Y-66481695D02*
X57785089Y-65795980D01*
X57785089Y-65795980D02*
X57737470Y-65719790D01*
X57737470Y-65719790D02*
X57656518Y-65681695D01*
X57656518Y-65681695D02*
X57580327Y-65681695D01*
X57299375Y-66481695D02*
X57370803Y-66443600D01*
X57370803Y-66443600D02*
X57404136Y-66405504D01*
X57404136Y-66405504D02*
X57432708Y-66329314D01*
X57432708Y-66329314D02*
X57404136Y-66100742D01*
X57404136Y-66100742D02*
X57356517Y-66024552D01*
X57356517Y-66024552D02*
X57313660Y-65986457D01*
X57313660Y-65986457D02*
X57232708Y-65948361D01*
X57232708Y-65948361D02*
X57118422Y-65948361D01*
X57118422Y-65948361D02*
X57046994Y-65986457D01*
X57046994Y-65986457D02*
X57013660Y-66024552D01*
X57013660Y-66024552D02*
X56985089Y-66100742D01*
X56985089Y-66100742D02*
X57013660Y-66329314D01*
X57013660Y-66329314D02*
X57061279Y-66405504D01*
X57061279Y-66405504D02*
X57104136Y-66443600D01*
X57104136Y-66443600D02*
X57185089Y-66481695D01*
X57185089Y-66481695D02*
X57299375Y-66481695D01*
X56680326Y-66405504D02*
X56646993Y-66443600D01*
X56646993Y-66443600D02*
X56689850Y-66481695D01*
X56689850Y-66481695D02*
X56723184Y-66443600D01*
X56723184Y-66443600D02*
X56680326Y-66405504D01*
X56680326Y-66405504D02*
X56689850Y-66481695D01*
X56627945Y-65986457D02*
X56594612Y-66024552D01*
X56594612Y-66024552D02*
X56637469Y-66062647D01*
X56637469Y-66062647D02*
X56670803Y-66024552D01*
X56670803Y-66024552D02*
X56627945Y-65986457D01*
X56627945Y-65986457D02*
X56637469Y-66062647D01*
D12*
X61560839Y-70715057D02*
X61513220Y-70667438D01*
X61513220Y-70667438D02*
X61417982Y-70619819D01*
X61417982Y-70619819D02*
X61179887Y-70619819D01*
X61179887Y-70619819D02*
X61084649Y-70667438D01*
X61084649Y-70667438D02*
X61037030Y-70715057D01*
X61037030Y-70715057D02*
X60989411Y-70810295D01*
X60989411Y-70810295D02*
X60989411Y-70905533D01*
X60989411Y-70905533D02*
X61037030Y-71048390D01*
X61037030Y-71048390D02*
X61608458Y-71619819D01*
X61608458Y-71619819D02*
X60989411Y-71619819D01*
X60370363Y-70619819D02*
X60275125Y-70619819D01*
X60275125Y-70619819D02*
X60179887Y-70667438D01*
X60179887Y-70667438D02*
X60132268Y-70715057D01*
X60132268Y-70715057D02*
X60084649Y-70810295D01*
X60084649Y-70810295D02*
X60037030Y-71000771D01*
X60037030Y-71000771D02*
X60037030Y-71238866D01*
X60037030Y-71238866D02*
X60084649Y-71429342D01*
X60084649Y-71429342D02*
X60132268Y-71524580D01*
X60132268Y-71524580D02*
X60179887Y-71572200D01*
X60179887Y-71572200D02*
X60275125Y-71619819D01*
X60275125Y-71619819D02*
X60370363Y-71619819D01*
X60370363Y-71619819D02*
X60465601Y-71572200D01*
X60465601Y-71572200D02*
X60513220Y-71524580D01*
X60513220Y-71524580D02*
X60560839Y-71429342D01*
X60560839Y-71429342D02*
X60608458Y-71238866D01*
X60608458Y-71238866D02*
X60608458Y-71000771D01*
X60608458Y-71000771D02*
X60560839Y-70810295D01*
X60560839Y-70810295D02*
X60513220Y-70715057D01*
X60513220Y-70715057D02*
X60465601Y-70667438D01*
X60465601Y-70667438D02*
X60370363Y-70619819D01*
X59656077Y-70715057D02*
X59608458Y-70667438D01*
X59608458Y-70667438D02*
X59513220Y-70619819D01*
X59513220Y-70619819D02*
X59275125Y-70619819D01*
X59275125Y-70619819D02*
X59179887Y-70667438D01*
X59179887Y-70667438D02*
X59132268Y-70715057D01*
X59132268Y-70715057D02*
X59084649Y-70810295D01*
X59084649Y-70810295D02*
X59084649Y-70905533D01*
X59084649Y-70905533D02*
X59132268Y-71048390D01*
X59132268Y-71048390D02*
X59703696Y-71619819D01*
X59703696Y-71619819D02*
X59084649Y-71619819D01*
X58179887Y-70619819D02*
X58656077Y-70619819D01*
X58656077Y-70619819D02*
X58703696Y-71096009D01*
X58703696Y-71096009D02*
X58656077Y-71048390D01*
X58656077Y-71048390D02*
X58560839Y-71000771D01*
X58560839Y-71000771D02*
X58322744Y-71000771D01*
X58322744Y-71000771D02*
X58227506Y-71048390D01*
X58227506Y-71048390D02*
X58179887Y-71096009D01*
X58179887Y-71096009D02*
X58132268Y-71191247D01*
X58132268Y-71191247D02*
X58132268Y-71429342D01*
X58132268Y-71429342D02*
X58179887Y-71524580D01*
X58179887Y-71524580D02*
X58227506Y-71572200D01*
X58227506Y-71572200D02*
X58322744Y-71619819D01*
X58322744Y-71619819D02*
X58560839Y-71619819D01*
X58560839Y-71619819D02*
X58656077Y-71572200D01*
X58656077Y-71572200D02*
X58703696Y-71524580D01*
X57703696Y-71238866D02*
X56941792Y-71238866D01*
X56275125Y-70619819D02*
X56179887Y-70619819D01*
X56179887Y-70619819D02*
X56084649Y-70667438D01*
X56084649Y-70667438D02*
X56037030Y-70715057D01*
X56037030Y-70715057D02*
X55989411Y-70810295D01*
X55989411Y-70810295D02*
X55941792Y-71000771D01*
X55941792Y-71000771D02*
X55941792Y-71238866D01*
X55941792Y-71238866D02*
X55989411Y-71429342D01*
X55989411Y-71429342D02*
X56037030Y-71524580D01*
X56037030Y-71524580D02*
X56084649Y-71572200D01*
X56084649Y-71572200D02*
X56179887Y-71619819D01*
X56179887Y-71619819D02*
X56275125Y-71619819D01*
X56275125Y-71619819D02*
X56370363Y-71572200D01*
X56370363Y-71572200D02*
X56417982Y-71524580D01*
X56417982Y-71524580D02*
X56465601Y-71429342D01*
X56465601Y-71429342D02*
X56513220Y-71238866D01*
X56513220Y-71238866D02*
X56513220Y-71000771D01*
X56513220Y-71000771D02*
X56465601Y-70810295D01*
X56465601Y-70810295D02*
X56417982Y-70715057D01*
X56417982Y-70715057D02*
X56370363Y-70667438D01*
X56370363Y-70667438D02*
X56275125Y-70619819D01*
X55037030Y-70619819D02*
X55513220Y-70619819D01*
X55513220Y-70619819D02*
X55560839Y-71096009D01*
X55560839Y-71096009D02*
X55513220Y-71048390D01*
X55513220Y-71048390D02*
X55417982Y-71000771D01*
X55417982Y-71000771D02*
X55179887Y-71000771D01*
X55179887Y-71000771D02*
X55084649Y-71048390D01*
X55084649Y-71048390D02*
X55037030Y-71096009D01*
X55037030Y-71096009D02*
X54989411Y-71191247D01*
X54989411Y-71191247D02*
X54989411Y-71429342D01*
X54989411Y-71429342D02*
X55037030Y-71524580D01*
X55037030Y-71524580D02*
X55084649Y-71572200D01*
X55084649Y-71572200D02*
X55179887Y-71619819D01*
X55179887Y-71619819D02*
X55417982Y-71619819D01*
X55417982Y-71619819D02*
X55513220Y-71572200D01*
X55513220Y-71572200D02*
X55560839Y-71524580D01*
X54560839Y-71238866D02*
X53798935Y-71238866D01*
X53370363Y-70715057D02*
X53322744Y-70667438D01*
X53322744Y-70667438D02*
X53227506Y-70619819D01*
X53227506Y-70619819D02*
X52989411Y-70619819D01*
X52989411Y-70619819D02*
X52894173Y-70667438D01*
X52894173Y-70667438D02*
X52846554Y-70715057D01*
X52846554Y-70715057D02*
X52798935Y-70810295D01*
X52798935Y-70810295D02*
X52798935Y-70905533D01*
X52798935Y-70905533D02*
X52846554Y-71048390D01*
X52846554Y-71048390D02*
X53417982Y-71619819D01*
X53417982Y-71619819D02*
X52798935Y-71619819D01*
X51941792Y-70953152D02*
X51941792Y-71619819D01*
X52179887Y-70572200D02*
X52417982Y-71286485D01*
X52417982Y-71286485D02*
X51798935Y-71286485D01*
D13*
X63332707Y-62081695D02*
X63232707Y-61281695D01*
X63232707Y-61281695D02*
X62927945Y-61281695D01*
X62927945Y-61281695D02*
X62856517Y-61319790D01*
X62856517Y-61319790D02*
X62823183Y-61357885D01*
X62823183Y-61357885D02*
X62794612Y-61434076D01*
X62794612Y-61434076D02*
X62808898Y-61548361D01*
X62808898Y-61548361D02*
X62856517Y-61624552D01*
X62856517Y-61624552D02*
X62899374Y-61662647D01*
X62899374Y-61662647D02*
X62980326Y-61700742D01*
X62980326Y-61700742D02*
X63285088Y-61700742D01*
X62532707Y-62081695D02*
X62466041Y-61548361D01*
X62485088Y-61700742D02*
X62437469Y-61624552D01*
X62437469Y-61624552D02*
X62394612Y-61586457D01*
X62394612Y-61586457D02*
X62313660Y-61548361D01*
X62313660Y-61548361D02*
X62237469Y-61548361D01*
X61923184Y-62081695D02*
X61994612Y-62043600D01*
X61994612Y-62043600D02*
X62027945Y-62005504D01*
X62027945Y-62005504D02*
X62056517Y-61929314D01*
X62056517Y-61929314D02*
X62027945Y-61700742D01*
X62027945Y-61700742D02*
X61980326Y-61624552D01*
X61980326Y-61624552D02*
X61937469Y-61586457D01*
X61937469Y-61586457D02*
X61856517Y-61548361D01*
X61856517Y-61548361D02*
X61742231Y-61548361D01*
X61742231Y-61548361D02*
X61670803Y-61586457D01*
X61670803Y-61586457D02*
X61637469Y-61624552D01*
X61637469Y-61624552D02*
X61608898Y-61700742D01*
X61608898Y-61700742D02*
X61637469Y-61929314D01*
X61637469Y-61929314D02*
X61685088Y-62005504D01*
X61685088Y-62005504D02*
X61727945Y-62043600D01*
X61727945Y-62043600D02*
X61808898Y-62081695D01*
X61808898Y-62081695D02*
X61923184Y-62081695D01*
X61246993Y-61548361D02*
X61332707Y-62234076D01*
X61332707Y-62234076D02*
X61380326Y-62310266D01*
X61380326Y-62310266D02*
X61461278Y-62348361D01*
X61461278Y-62348361D02*
X61499374Y-62348361D01*
X61213659Y-61281695D02*
X61256516Y-61319790D01*
X61256516Y-61319790D02*
X61223183Y-61357885D01*
X61223183Y-61357885D02*
X61180326Y-61319790D01*
X61180326Y-61319790D02*
X61213659Y-61281695D01*
X61213659Y-61281695D02*
X61223183Y-61357885D01*
X60623183Y-62043600D02*
X60704136Y-62081695D01*
X60704136Y-62081695D02*
X60856517Y-62081695D01*
X60856517Y-62081695D02*
X60927945Y-62043600D01*
X60927945Y-62043600D02*
X60956517Y-61967409D01*
X60956517Y-61967409D02*
X60918422Y-61662647D01*
X60918422Y-61662647D02*
X60870802Y-61586457D01*
X60870802Y-61586457D02*
X60789850Y-61548361D01*
X60789850Y-61548361D02*
X60637469Y-61548361D01*
X60637469Y-61548361D02*
X60566041Y-61586457D01*
X60566041Y-61586457D02*
X60537469Y-61662647D01*
X60537469Y-61662647D02*
X60546993Y-61738838D01*
X60546993Y-61738838D02*
X60937469Y-61815028D01*
X59899374Y-62043600D02*
X59980327Y-62081695D01*
X59980327Y-62081695D02*
X60132708Y-62081695D01*
X60132708Y-62081695D02*
X60204136Y-62043600D01*
X60204136Y-62043600D02*
X60237469Y-62005504D01*
X60237469Y-62005504D02*
X60266041Y-61929314D01*
X60266041Y-61929314D02*
X60237469Y-61700742D01*
X60237469Y-61700742D02*
X60189850Y-61624552D01*
X60189850Y-61624552D02*
X60146993Y-61586457D01*
X60146993Y-61586457D02*
X60066041Y-61548361D01*
X60066041Y-61548361D02*
X59913660Y-61548361D01*
X59913660Y-61548361D02*
X59842231Y-61586457D01*
X59608898Y-61548361D02*
X59304136Y-61548361D01*
X59461279Y-61281695D02*
X59546994Y-61967409D01*
X59546994Y-61967409D02*
X59518422Y-62043600D01*
X59518422Y-62043600D02*
X59446994Y-62081695D01*
X59446994Y-62081695D02*
X59370803Y-62081695D01*
X58494612Y-62081695D02*
X58427946Y-61548361D01*
X58394612Y-61281695D02*
X58437469Y-61319790D01*
X58437469Y-61319790D02*
X58404136Y-61357885D01*
X58404136Y-61357885D02*
X58361279Y-61319790D01*
X58361279Y-61319790D02*
X58394612Y-61281695D01*
X58394612Y-61281695D02*
X58404136Y-61357885D01*
X58046994Y-61548361D02*
X58113660Y-62081695D01*
X58056517Y-61624552D02*
X58013660Y-61586457D01*
X58013660Y-61586457D02*
X57932708Y-61548361D01*
X57932708Y-61548361D02*
X57818422Y-61548361D01*
X57818422Y-61548361D02*
X57746994Y-61586457D01*
X57746994Y-61586457D02*
X57718422Y-61662647D01*
X57718422Y-61662647D02*
X57770803Y-62081695D01*
X57437469Y-61548361D02*
X57132707Y-61548361D01*
X57389850Y-62081695D02*
X57304136Y-61395980D01*
X57304136Y-61395980D02*
X57256517Y-61319790D01*
X57256517Y-61319790D02*
X57175565Y-61281695D01*
X57175565Y-61281695D02*
X57099374Y-61281695D01*
X56818422Y-62081695D02*
X56889850Y-62043600D01*
X56889850Y-62043600D02*
X56923183Y-62005504D01*
X56923183Y-62005504D02*
X56951755Y-61929314D01*
X56951755Y-61929314D02*
X56923183Y-61700742D01*
X56923183Y-61700742D02*
X56875564Y-61624552D01*
X56875564Y-61624552D02*
X56832707Y-61586457D01*
X56832707Y-61586457D02*
X56751755Y-61548361D01*
X56751755Y-61548361D02*
X56637469Y-61548361D01*
X56637469Y-61548361D02*
X56566041Y-61586457D01*
X56566041Y-61586457D02*
X56532707Y-61624552D01*
X56532707Y-61624552D02*
X56504136Y-61700742D01*
X56504136Y-61700742D02*
X56532707Y-61929314D01*
X56532707Y-61929314D02*
X56580326Y-62005504D01*
X56580326Y-62005504D02*
X56623183Y-62043600D01*
X56623183Y-62043600D02*
X56704136Y-62081695D01*
X56704136Y-62081695D02*
X56818422Y-62081695D01*
X56199373Y-62005504D02*
X56166040Y-62043600D01*
X56166040Y-62043600D02*
X56208897Y-62081695D01*
X56208897Y-62081695D02*
X56242231Y-62043600D01*
X56242231Y-62043600D02*
X56199373Y-62005504D01*
X56199373Y-62005504D02*
X56208897Y-62081695D01*
X56146992Y-61586457D02*
X56113659Y-61624552D01*
X56113659Y-61624552D02*
X56156516Y-61662647D01*
X56156516Y-61662647D02*
X56189850Y-61624552D01*
X56189850Y-61624552D02*
X56146992Y-61586457D01*
X56146992Y-61586457D02*
X56156516Y-61662647D01*
X78552380Y-66157275D02*
X78552380Y-65157275D01*
X78552380Y-65157275D02*
X78219047Y-65871560D01*
X78219047Y-65871560D02*
X77885714Y-65157275D01*
X77885714Y-65157275D02*
X77885714Y-66157275D01*
X77457142Y-65871560D02*
X76980952Y-65871560D01*
X77552380Y-66157275D02*
X77219047Y-65157275D01*
X77219047Y-65157275D02*
X76885714Y-66157275D01*
X76552380Y-66157275D02*
X76552380Y-65157275D01*
X76552380Y-65157275D02*
X76314285Y-65157275D01*
X76314285Y-65157275D02*
X76171428Y-65204894D01*
X76171428Y-65204894D02*
X76076190Y-65300132D01*
X76076190Y-65300132D02*
X76028571Y-65395370D01*
X76028571Y-65395370D02*
X75980952Y-65585846D01*
X75980952Y-65585846D02*
X75980952Y-65728703D01*
X75980952Y-65728703D02*
X76028571Y-65919179D01*
X76028571Y-65919179D02*
X76076190Y-66014417D01*
X76076190Y-66014417D02*
X76171428Y-66109656D01*
X76171428Y-66109656D02*
X76314285Y-66157275D01*
X76314285Y-66157275D02*
X76552380Y-66157275D01*
X75552380Y-65633465D02*
X75219047Y-65633465D01*
X75076190Y-66157275D02*
X75552380Y-66157275D01*
X75552380Y-66157275D02*
X75552380Y-65157275D01*
X75552380Y-65157275D02*
X75076190Y-65157275D01*
X73885713Y-66157275D02*
X73885713Y-65157275D01*
X73409523Y-66157275D02*
X73409523Y-65157275D01*
X73409523Y-65157275D02*
X72838095Y-66157275D01*
X72838095Y-66157275D02*
X72838095Y-65157275D01*
X71028571Y-66062036D02*
X71076190Y-66109656D01*
X71076190Y-66109656D02*
X71219047Y-66157275D01*
X71219047Y-66157275D02*
X71314285Y-66157275D01*
X71314285Y-66157275D02*
X71457142Y-66109656D01*
X71457142Y-66109656D02*
X71552380Y-66014417D01*
X71552380Y-66014417D02*
X71599999Y-65919179D01*
X71599999Y-65919179D02*
X71647618Y-65728703D01*
X71647618Y-65728703D02*
X71647618Y-65585846D01*
X71647618Y-65585846D02*
X71599999Y-65395370D01*
X71599999Y-65395370D02*
X71552380Y-65300132D01*
X71552380Y-65300132D02*
X71457142Y-65204894D01*
X71457142Y-65204894D02*
X71314285Y-65157275D01*
X71314285Y-65157275D02*
X71219047Y-65157275D01*
X71219047Y-65157275D02*
X71076190Y-65204894D01*
X71076190Y-65204894D02*
X71028571Y-65252513D01*
X70599999Y-66157275D02*
X70599999Y-65157275D01*
X70599999Y-65633465D02*
X70028571Y-65633465D01*
X70028571Y-66157275D02*
X70028571Y-65157275D01*
X69552380Y-66157275D02*
X69552380Y-65157275D01*
X69076190Y-66157275D02*
X69076190Y-65157275D01*
X69076190Y-65157275D02*
X68504762Y-66157275D01*
X68504762Y-66157275D02*
X68504762Y-65157275D01*
X68076190Y-65871560D02*
X67600000Y-65871560D01*
X68171428Y-66157275D02*
X67838095Y-65157275D01*
X67838095Y-65157275D02*
X67504762Y-66157275D01*
X76623809Y-67243409D02*
X76480952Y-67291028D01*
X76480952Y-67291028D02*
X76433333Y-67338647D01*
X76433333Y-67338647D02*
X76385714Y-67433885D01*
X76385714Y-67433885D02*
X76385714Y-67576742D01*
X76385714Y-67576742D02*
X76433333Y-67671980D01*
X76433333Y-67671980D02*
X76480952Y-67719600D01*
X76480952Y-67719600D02*
X76576190Y-67767219D01*
X76576190Y-67767219D02*
X76957142Y-67767219D01*
X76957142Y-67767219D02*
X76957142Y-66767219D01*
X76957142Y-66767219D02*
X76623809Y-66767219D01*
X76623809Y-66767219D02*
X76528571Y-66814838D01*
X76528571Y-66814838D02*
X76480952Y-66862457D01*
X76480952Y-66862457D02*
X76433333Y-66957695D01*
X76433333Y-66957695D02*
X76433333Y-67052933D01*
X76433333Y-67052933D02*
X76480952Y-67148171D01*
X76480952Y-67148171D02*
X76528571Y-67195790D01*
X76528571Y-67195790D02*
X76623809Y-67243409D01*
X76623809Y-67243409D02*
X76957142Y-67243409D01*
X75766666Y-67291028D02*
X75766666Y-67767219D01*
X76099999Y-66767219D02*
X75766666Y-67291028D01*
X75766666Y-67291028D02*
X75433333Y-66767219D01*
X74052380Y-66767219D02*
X74052380Y-67481504D01*
X74052380Y-67481504D02*
X74099999Y-67624361D01*
X74099999Y-67624361D02*
X74195237Y-67719600D01*
X74195237Y-67719600D02*
X74338094Y-67767219D01*
X74338094Y-67767219D02*
X74433332Y-67767219D01*
X73099999Y-67767219D02*
X73576189Y-67767219D01*
X73576189Y-67767219D02*
X73576189Y-66767219D01*
X72195237Y-67671980D02*
X72242856Y-67719600D01*
X72242856Y-67719600D02*
X72385713Y-67767219D01*
X72385713Y-67767219D02*
X72480951Y-67767219D01*
X72480951Y-67767219D02*
X72623808Y-67719600D01*
X72623808Y-67719600D02*
X72719046Y-67624361D01*
X72719046Y-67624361D02*
X72766665Y-67529123D01*
X72766665Y-67529123D02*
X72814284Y-67338647D01*
X72814284Y-67338647D02*
X72814284Y-67195790D01*
X72814284Y-67195790D02*
X72766665Y-67005314D01*
X72766665Y-67005314D02*
X72719046Y-66910076D01*
X72719046Y-66910076D02*
X72623808Y-66814838D01*
X72623808Y-66814838D02*
X72480951Y-66767219D01*
X72480951Y-66767219D02*
X72385713Y-66767219D01*
X72385713Y-66767219D02*
X72242856Y-66814838D01*
X72242856Y-66814838D02*
X72195237Y-66862457D01*
X71766665Y-67767219D02*
X71766665Y-66767219D01*
X71766665Y-66767219D02*
X71385713Y-66767219D01*
X71385713Y-66767219D02*
X71290475Y-66814838D01*
X71290475Y-66814838D02*
X71242856Y-66862457D01*
X71242856Y-66862457D02*
X71195237Y-66957695D01*
X71195237Y-66957695D02*
X71195237Y-67100552D01*
X71195237Y-67100552D02*
X71242856Y-67195790D01*
X71242856Y-67195790D02*
X71290475Y-67243409D01*
X71290475Y-67243409D02*
X71385713Y-67291028D01*
X71385713Y-67291028D02*
X71766665Y-67291028D01*
X70195237Y-67671980D02*
X70242856Y-67719600D01*
X70242856Y-67719600D02*
X70385713Y-67767219D01*
X70385713Y-67767219D02*
X70480951Y-67767219D01*
X70480951Y-67767219D02*
X70623808Y-67719600D01*
X70623808Y-67719600D02*
X70719046Y-67624361D01*
X70719046Y-67624361D02*
X70766665Y-67529123D01*
X70766665Y-67529123D02*
X70814284Y-67338647D01*
X70814284Y-67338647D02*
X70814284Y-67195790D01*
X70814284Y-67195790D02*
X70766665Y-67005314D01*
X70766665Y-67005314D02*
X70719046Y-66910076D01*
X70719046Y-66910076D02*
X70623808Y-66814838D01*
X70623808Y-66814838D02*
X70480951Y-66767219D01*
X70480951Y-66767219D02*
X70385713Y-66767219D01*
X70385713Y-66767219D02*
X70242856Y-66814838D01*
X70242856Y-66814838D02*
X70195237Y-66862457D01*
X69433332Y-67243409D02*
X69290475Y-67291028D01*
X69290475Y-67291028D02*
X69242856Y-67338647D01*
X69242856Y-67338647D02*
X69195237Y-67433885D01*
X69195237Y-67433885D02*
X69195237Y-67576742D01*
X69195237Y-67576742D02*
X69242856Y-67671980D01*
X69242856Y-67671980D02*
X69290475Y-67719600D01*
X69290475Y-67719600D02*
X69385713Y-67767219D01*
X69385713Y-67767219D02*
X69766665Y-67767219D01*
X69766665Y-67767219D02*
X69766665Y-66767219D01*
X69766665Y-66767219D02*
X69433332Y-66767219D01*
X69433332Y-66767219D02*
X69338094Y-66814838D01*
X69338094Y-66814838D02*
X69290475Y-66862457D01*
X69290475Y-66862457D02*
X69242856Y-66957695D01*
X69242856Y-66957695D02*
X69242856Y-67052933D01*
X69242856Y-67052933D02*
X69290475Y-67148171D01*
X69290475Y-67148171D02*
X69338094Y-67195790D01*
X69338094Y-67195790D02*
X69433332Y-67243409D01*
X69433332Y-67243409D02*
X69766665Y-67243409D01*
D11*
X70101658Y-62058918D02*
X70101658Y-61458918D01*
X70101658Y-61458918D02*
X69958801Y-61458918D01*
X69958801Y-61458918D02*
X69873087Y-61487489D01*
X69873087Y-61487489D02*
X69815944Y-61544632D01*
X69815944Y-61544632D02*
X69787373Y-61601775D01*
X69787373Y-61601775D02*
X69758801Y-61716061D01*
X69758801Y-61716061D02*
X69758801Y-61801775D01*
X69758801Y-61801775D02*
X69787373Y-61916061D01*
X69787373Y-61916061D02*
X69815944Y-61973204D01*
X69815944Y-61973204D02*
X69873087Y-62030347D01*
X69873087Y-62030347D02*
X69958801Y-62058918D01*
X69958801Y-62058918D02*
X70101658Y-62058918D01*
X69501658Y-61744632D02*
X69301658Y-61744632D01*
X69215944Y-62058918D02*
X69501658Y-62058918D01*
X69501658Y-62058918D02*
X69501658Y-61458918D01*
X69501658Y-61458918D02*
X69215944Y-61458918D01*
X68987373Y-62030347D02*
X68901659Y-62058918D01*
X68901659Y-62058918D02*
X68758801Y-62058918D01*
X68758801Y-62058918D02*
X68701659Y-62030347D01*
X68701659Y-62030347D02*
X68673087Y-62001775D01*
X68673087Y-62001775D02*
X68644516Y-61944632D01*
X68644516Y-61944632D02*
X68644516Y-61887489D01*
X68644516Y-61887489D02*
X68673087Y-61830347D01*
X68673087Y-61830347D02*
X68701659Y-61801775D01*
X68701659Y-61801775D02*
X68758801Y-61773204D01*
X68758801Y-61773204D02*
X68873087Y-61744632D01*
X68873087Y-61744632D02*
X68930230Y-61716061D01*
X68930230Y-61716061D02*
X68958801Y-61687489D01*
X68958801Y-61687489D02*
X68987373Y-61630347D01*
X68987373Y-61630347D02*
X68987373Y-61573204D01*
X68987373Y-61573204D02*
X68958801Y-61516061D01*
X68958801Y-61516061D02*
X68930230Y-61487489D01*
X68930230Y-61487489D02*
X68873087Y-61458918D01*
X68873087Y-61458918D02*
X68730230Y-61458918D01*
X68730230Y-61458918D02*
X68644516Y-61487489D01*
X68387372Y-62058918D02*
X68387372Y-61458918D01*
X67787373Y-61487489D02*
X67844516Y-61458918D01*
X67844516Y-61458918D02*
X67930230Y-61458918D01*
X67930230Y-61458918D02*
X68015944Y-61487489D01*
X68015944Y-61487489D02*
X68073087Y-61544632D01*
X68073087Y-61544632D02*
X68101658Y-61601775D01*
X68101658Y-61601775D02*
X68130230Y-61716061D01*
X68130230Y-61716061D02*
X68130230Y-61801775D01*
X68130230Y-61801775D02*
X68101658Y-61916061D01*
X68101658Y-61916061D02*
X68073087Y-61973204D01*
X68073087Y-61973204D02*
X68015944Y-62030347D01*
X68015944Y-62030347D02*
X67930230Y-62058918D01*
X67930230Y-62058918D02*
X67873087Y-62058918D01*
X67873087Y-62058918D02*
X67787373Y-62030347D01*
X67787373Y-62030347D02*
X67758801Y-62001775D01*
X67758801Y-62001775D02*
X67758801Y-61801775D01*
X67758801Y-61801775D02*
X67873087Y-61801775D01*
X67501658Y-62058918D02*
X67501658Y-61458918D01*
X67501658Y-61458918D02*
X67158801Y-62058918D01*
X67158801Y-62058918D02*
X67158801Y-61458918D01*
X66873087Y-61744632D02*
X66673087Y-61744632D01*
X66587373Y-62058918D02*
X66873087Y-62058918D01*
X66873087Y-62058918D02*
X66873087Y-61458918D01*
X66873087Y-61458918D02*
X66587373Y-61458918D01*
X66330230Y-62058918D02*
X66330230Y-61458918D01*
X66330230Y-61458918D02*
X66187373Y-61458918D01*
X66187373Y-61458918D02*
X66101659Y-61487489D01*
X66101659Y-61487489D02*
X66044516Y-61544632D01*
X66044516Y-61544632D02*
X66015945Y-61601775D01*
X66015945Y-61601775D02*
X65987373Y-61716061D01*
X65987373Y-61716061D02*
X65987373Y-61801775D01*
X65987373Y-61801775D02*
X66015945Y-61916061D01*
X66015945Y-61916061D02*
X66044516Y-61973204D01*
X66044516Y-61973204D02*
X66101659Y-62030347D01*
X66101659Y-62030347D02*
X66187373Y-62058918D01*
X66187373Y-62058918D02*
X66330230Y-62058918D01*
X70101658Y-63024884D02*
X70101658Y-62424884D01*
X69815944Y-63024884D02*
X69815944Y-62424884D01*
X69815944Y-62424884D02*
X69473087Y-63024884D01*
X69473087Y-63024884D02*
X69473087Y-62424884D01*
X68730230Y-63024884D02*
X68730230Y-62424884D01*
X68730230Y-62424884D02*
X68501659Y-62424884D01*
X68501659Y-62424884D02*
X68444516Y-62453455D01*
X68444516Y-62453455D02*
X68415945Y-62482027D01*
X68415945Y-62482027D02*
X68387373Y-62539170D01*
X68387373Y-62539170D02*
X68387373Y-62624884D01*
X68387373Y-62624884D02*
X68415945Y-62682027D01*
X68415945Y-62682027D02*
X68444516Y-62710598D01*
X68444516Y-62710598D02*
X68501659Y-62739170D01*
X68501659Y-62739170D02*
X68730230Y-62739170D01*
X68015945Y-62424884D02*
X67901659Y-62424884D01*
X67901659Y-62424884D02*
X67844516Y-62453455D01*
X67844516Y-62453455D02*
X67787373Y-62510598D01*
X67787373Y-62510598D02*
X67758802Y-62624884D01*
X67758802Y-62624884D02*
X67758802Y-62824884D01*
X67758802Y-62824884D02*
X67787373Y-62939170D01*
X67787373Y-62939170D02*
X67844516Y-62996313D01*
X67844516Y-62996313D02*
X67901659Y-63024884D01*
X67901659Y-63024884D02*
X68015945Y-63024884D01*
X68015945Y-63024884D02*
X68073088Y-62996313D01*
X68073088Y-62996313D02*
X68130230Y-62939170D01*
X68130230Y-62939170D02*
X68158802Y-62824884D01*
X68158802Y-62824884D02*
X68158802Y-62624884D01*
X68158802Y-62624884D02*
X68130230Y-62510598D01*
X68130230Y-62510598D02*
X68073088Y-62453455D01*
X68073088Y-62453455D02*
X68015945Y-62424884D01*
X67215945Y-63024884D02*
X67501659Y-63024884D01*
X67501659Y-63024884D02*
X67501659Y-62424884D01*
X67044517Y-62853455D02*
X66758803Y-62853455D01*
X67101660Y-63024884D02*
X66901660Y-62424884D01*
X66901660Y-62424884D02*
X66701660Y-63024884D01*
X66501659Y-63024884D02*
X66501659Y-62424884D01*
X66501659Y-62424884D02*
X66158802Y-63024884D01*
X66158802Y-63024884D02*
X66158802Y-62424884D01*
X65873088Y-63024884D02*
X65873088Y-62424884D01*
X65873088Y-62424884D02*
X65730231Y-62424884D01*
X65730231Y-62424884D02*
X65644517Y-62453455D01*
X65644517Y-62453455D02*
X65587374Y-62510598D01*
X65587374Y-62510598D02*
X65558803Y-62567741D01*
X65558803Y-62567741D02*
X65530231Y-62682027D01*
X65530231Y-62682027D02*
X65530231Y-62767741D01*
X65530231Y-62767741D02*
X65558803Y-62882027D01*
X65558803Y-62882027D02*
X65587374Y-62939170D01*
X65587374Y-62939170D02*
X65644517Y-62996313D01*
X65644517Y-62996313D02*
X65730231Y-63024884D01*
X65730231Y-63024884D02*
X65873088Y-63024884D01*
D12*
X63408458Y-58396340D02*
X63256077Y-58396340D01*
X63256077Y-58396340D02*
X63179887Y-58434435D01*
X63179887Y-58434435D02*
X63103696Y-58510625D01*
X63103696Y-58510625D02*
X63065601Y-58663006D01*
X63065601Y-58663006D02*
X63065601Y-58929673D01*
X63065601Y-58929673D02*
X63103696Y-59082054D01*
X63103696Y-59082054D02*
X63179887Y-59158245D01*
X63179887Y-59158245D02*
X63256077Y-59196340D01*
X63256077Y-59196340D02*
X63408458Y-59196340D01*
X63408458Y-59196340D02*
X63484649Y-59158245D01*
X63484649Y-59158245D02*
X63560839Y-59082054D01*
X63560839Y-59082054D02*
X63598935Y-58929673D01*
X63598935Y-58929673D02*
X63598935Y-58663006D01*
X63598935Y-58663006D02*
X63560839Y-58510625D01*
X63560839Y-58510625D02*
X63484649Y-58434435D01*
X63484649Y-58434435D02*
X63408458Y-58396340D01*
X62722744Y-59196340D02*
X62722744Y-58663006D01*
X62722744Y-58815387D02*
X62684649Y-58739197D01*
X62684649Y-58739197D02*
X62646554Y-58701102D01*
X62646554Y-58701102D02*
X62570363Y-58663006D01*
X62570363Y-58663006D02*
X62494173Y-58663006D01*
X61884649Y-59196340D02*
X61884649Y-58777292D01*
X61884649Y-58777292D02*
X61922744Y-58701102D01*
X61922744Y-58701102D02*
X61998935Y-58663006D01*
X61998935Y-58663006D02*
X62151316Y-58663006D01*
X62151316Y-58663006D02*
X62227506Y-58701102D01*
X61884649Y-59158245D02*
X61960840Y-59196340D01*
X61960840Y-59196340D02*
X62151316Y-59196340D01*
X62151316Y-59196340D02*
X62227506Y-59158245D01*
X62227506Y-59158245D02*
X62265602Y-59082054D01*
X62265602Y-59082054D02*
X62265602Y-59005864D01*
X62265602Y-59005864D02*
X62227506Y-58929673D01*
X62227506Y-58929673D02*
X62151316Y-58891578D01*
X62151316Y-58891578D02*
X61960840Y-58891578D01*
X61960840Y-58891578D02*
X61884649Y-58853483D01*
X61503696Y-58663006D02*
X61503696Y-59196340D01*
X61503696Y-58739197D02*
X61465601Y-58701102D01*
X61465601Y-58701102D02*
X61389411Y-58663006D01*
X61389411Y-58663006D02*
X61275125Y-58663006D01*
X61275125Y-58663006D02*
X61198934Y-58701102D01*
X61198934Y-58701102D02*
X61160839Y-58777292D01*
X61160839Y-58777292D02*
X61160839Y-59196340D01*
X60437029Y-58663006D02*
X60437029Y-59310625D01*
X60437029Y-59310625D02*
X60475124Y-59386816D01*
X60475124Y-59386816D02*
X60513220Y-59424911D01*
X60513220Y-59424911D02*
X60589410Y-59463006D01*
X60589410Y-59463006D02*
X60703696Y-59463006D01*
X60703696Y-59463006D02*
X60779886Y-59424911D01*
X60437029Y-59158245D02*
X60513220Y-59196340D01*
X60513220Y-59196340D02*
X60665601Y-59196340D01*
X60665601Y-59196340D02*
X60741791Y-59158245D01*
X60741791Y-59158245D02*
X60779886Y-59120149D01*
X60779886Y-59120149D02*
X60817982Y-59043959D01*
X60817982Y-59043959D02*
X60817982Y-58815387D01*
X60817982Y-58815387D02*
X60779886Y-58739197D01*
X60779886Y-58739197D02*
X60741791Y-58701102D01*
X60741791Y-58701102D02*
X60665601Y-58663006D01*
X60665601Y-58663006D02*
X60513220Y-58663006D01*
X60513220Y-58663006D02*
X60437029Y-58701102D01*
X59751314Y-59158245D02*
X59827505Y-59196340D01*
X59827505Y-59196340D02*
X59979886Y-59196340D01*
X59979886Y-59196340D02*
X60056076Y-59158245D01*
X60056076Y-59158245D02*
X60094172Y-59082054D01*
X60094172Y-59082054D02*
X60094172Y-58777292D01*
X60094172Y-58777292D02*
X60056076Y-58701102D01*
X60056076Y-58701102D02*
X59979886Y-58663006D01*
X59979886Y-58663006D02*
X59827505Y-58663006D01*
X59827505Y-58663006D02*
X59751314Y-58701102D01*
X59751314Y-58701102D02*
X59713219Y-58777292D01*
X59713219Y-58777292D02*
X59713219Y-58853483D01*
X59713219Y-58853483D02*
X60094172Y-58929673D01*
X59370362Y-59196340D02*
X59370362Y-58396340D01*
X59370362Y-58396340D02*
X59065600Y-58396340D01*
X59065600Y-58396340D02*
X58989410Y-58434435D01*
X58989410Y-58434435D02*
X58951315Y-58472530D01*
X58951315Y-58472530D02*
X58913219Y-58548721D01*
X58913219Y-58548721D02*
X58913219Y-58663006D01*
X58913219Y-58663006D02*
X58951315Y-58739197D01*
X58951315Y-58739197D02*
X58989410Y-58777292D01*
X58989410Y-58777292D02*
X59065600Y-58815387D01*
X59065600Y-58815387D02*
X59370362Y-58815387D01*
X58570362Y-59196340D02*
X58570362Y-58663006D01*
X58570362Y-58396340D02*
X58608458Y-58434435D01*
X58608458Y-58434435D02*
X58570362Y-58472530D01*
X58570362Y-58472530D02*
X58532267Y-58434435D01*
X58532267Y-58434435D02*
X58570362Y-58396340D01*
X58570362Y-58396340D02*
X58570362Y-58472530D01*
X57884648Y-59158245D02*
X57960839Y-59196340D01*
X57960839Y-59196340D02*
X58113220Y-59196340D01*
X58113220Y-59196340D02*
X58189410Y-59158245D01*
X58189410Y-59158245D02*
X58227506Y-59082054D01*
X58227506Y-59082054D02*
X58227506Y-58777292D01*
X58227506Y-58777292D02*
X58189410Y-58701102D01*
X58189410Y-58701102D02*
X58113220Y-58663006D01*
X58113220Y-58663006D02*
X57960839Y-58663006D01*
X57960839Y-58663006D02*
X57884648Y-58701102D01*
X57884648Y-58701102D02*
X57846553Y-58777292D01*
X57846553Y-58777292D02*
X57846553Y-58853483D01*
X57846553Y-58853483D02*
X58227506Y-58929673D01*
X63598935Y-60255723D02*
X63217982Y-60255723D01*
X63675125Y-60484295D02*
X63408458Y-59684295D01*
X63408458Y-59684295D02*
X63141792Y-60484295D01*
X62875125Y-60484295D02*
X62875125Y-59950961D01*
X62875125Y-60103342D02*
X62837030Y-60027152D01*
X62837030Y-60027152D02*
X62798935Y-59989057D01*
X62798935Y-59989057D02*
X62722744Y-59950961D01*
X62722744Y-59950961D02*
X62646554Y-59950961D01*
X62494173Y-59950961D02*
X62189411Y-59950961D01*
X62379887Y-59684295D02*
X62379887Y-60370009D01*
X62379887Y-60370009D02*
X62341792Y-60446200D01*
X62341792Y-60446200D02*
X62265602Y-60484295D01*
X62265602Y-60484295D02*
X62189411Y-60484295D01*
X61617982Y-60446200D02*
X61694173Y-60484295D01*
X61694173Y-60484295D02*
X61846554Y-60484295D01*
X61846554Y-60484295D02*
X61922744Y-60446200D01*
X61922744Y-60446200D02*
X61960840Y-60370009D01*
X61960840Y-60370009D02*
X61960840Y-60065247D01*
X61960840Y-60065247D02*
X61922744Y-59989057D01*
X61922744Y-59989057D02*
X61846554Y-59950961D01*
X61846554Y-59950961D02*
X61694173Y-59950961D01*
X61694173Y-59950961D02*
X61617982Y-59989057D01*
X61617982Y-59989057D02*
X61579887Y-60065247D01*
X61579887Y-60065247D02*
X61579887Y-60141438D01*
X61579887Y-60141438D02*
X61960840Y-60217628D01*
X61237030Y-60484295D02*
X61237030Y-59950961D01*
X61237030Y-60027152D02*
X61198935Y-59989057D01*
X61198935Y-59989057D02*
X61122745Y-59950961D01*
X61122745Y-59950961D02*
X61008459Y-59950961D01*
X61008459Y-59950961D02*
X60932268Y-59989057D01*
X60932268Y-59989057D02*
X60894173Y-60065247D01*
X60894173Y-60065247D02*
X60894173Y-60484295D01*
X60894173Y-60065247D02*
X60856078Y-59989057D01*
X60856078Y-59989057D02*
X60779887Y-59950961D01*
X60779887Y-59950961D02*
X60665602Y-59950961D01*
X60665602Y-59950961D02*
X60589411Y-59989057D01*
X60589411Y-59989057D02*
X60551316Y-60065247D01*
X60551316Y-60065247D02*
X60551316Y-60484295D01*
X59560839Y-60484295D02*
X59560839Y-59684295D01*
X59560839Y-60065247D02*
X59103696Y-60065247D01*
X59103696Y-60484295D02*
X59103696Y-59684295D01*
X58608459Y-60484295D02*
X58684649Y-60446200D01*
X58684649Y-60446200D02*
X58722744Y-60408104D01*
X58722744Y-60408104D02*
X58760840Y-60331914D01*
X58760840Y-60331914D02*
X58760840Y-60103342D01*
X58760840Y-60103342D02*
X58722744Y-60027152D01*
X58722744Y-60027152D02*
X58684649Y-59989057D01*
X58684649Y-59989057D02*
X58608459Y-59950961D01*
X58608459Y-59950961D02*
X58494173Y-59950961D01*
X58494173Y-59950961D02*
X58417982Y-59989057D01*
X58417982Y-59989057D02*
X58379887Y-60027152D01*
X58379887Y-60027152D02*
X58341792Y-60103342D01*
X58341792Y-60103342D02*
X58341792Y-60331914D01*
X58341792Y-60331914D02*
X58379887Y-60408104D01*
X58379887Y-60408104D02*
X58417982Y-60446200D01*
X58417982Y-60446200D02*
X58494173Y-60484295D01*
X58494173Y-60484295D02*
X58608459Y-60484295D01*
X57998934Y-60484295D02*
X57998934Y-59950961D01*
X57998934Y-60103342D02*
X57960839Y-60027152D01*
X57960839Y-60027152D02*
X57922744Y-59989057D01*
X57922744Y-59989057D02*
X57846553Y-59950961D01*
X57846553Y-59950961D02*
X57770363Y-59950961D01*
X57503696Y-60484295D02*
X57503696Y-59950961D01*
X57503696Y-59684295D02*
X57541792Y-59722390D01*
X57541792Y-59722390D02*
X57503696Y-59760485D01*
X57503696Y-59760485D02*
X57465601Y-59722390D01*
X57465601Y-59722390D02*
X57503696Y-59684295D01*
X57503696Y-59684295D02*
X57503696Y-59760485D01*
X56779887Y-59950961D02*
X56779887Y-60484295D01*
X57122744Y-59950961D02*
X57122744Y-60370009D01*
X57122744Y-60370009D02*
X57084649Y-60446200D01*
X57084649Y-60446200D02*
X57008459Y-60484295D01*
X57008459Y-60484295D02*
X56894173Y-60484295D01*
X56894173Y-60484295D02*
X56817982Y-60446200D01*
X56817982Y-60446200D02*
X56779887Y-60408104D01*
X56398934Y-59950961D02*
X56398934Y-60484295D01*
X56398934Y-60027152D02*
X56360839Y-59989057D01*
X56360839Y-59989057D02*
X56284649Y-59950961D01*
X56284649Y-59950961D02*
X56170363Y-59950961D01*
X56170363Y-59950961D02*
X56094172Y-59989057D01*
X56094172Y-59989057D02*
X56056077Y-60065247D01*
X56056077Y-60065247D02*
X56056077Y-60484295D01*
X55560839Y-60484295D02*
X55637029Y-60446200D01*
X55637029Y-60446200D02*
X55675124Y-60408104D01*
X55675124Y-60408104D02*
X55713220Y-60331914D01*
X55713220Y-60331914D02*
X55713220Y-60103342D01*
X55713220Y-60103342D02*
X55675124Y-60027152D01*
X55675124Y-60027152D02*
X55637029Y-59989057D01*
X55637029Y-59989057D02*
X55560839Y-59950961D01*
X55560839Y-59950961D02*
X55446553Y-59950961D01*
X55446553Y-59950961D02*
X55370362Y-59989057D01*
X55370362Y-59989057D02*
X55332267Y-60027152D01*
X55332267Y-60027152D02*
X55294172Y-60103342D01*
X55294172Y-60103342D02*
X55294172Y-60331914D01*
X55294172Y-60331914D02*
X55332267Y-60408104D01*
X55332267Y-60408104D02*
X55370362Y-60446200D01*
X55370362Y-60446200D02*
X55446553Y-60484295D01*
X55446553Y-60484295D02*
X55560839Y-60484295D01*
X55027505Y-59950961D02*
X54837029Y-60484295D01*
X54837029Y-60484295D02*
X54646552Y-59950961D01*
D16*
X63174561Y-67270092D02*
X63041228Y-67270092D01*
X63041228Y-67270092D02*
X62978728Y-67303425D01*
X62978728Y-67303425D02*
X62920395Y-67370092D01*
X62920395Y-67370092D02*
X62903728Y-67503425D01*
X62903728Y-67503425D02*
X62932895Y-67736759D01*
X62932895Y-67736759D02*
X62982895Y-67870092D01*
X62982895Y-67870092D02*
X63057895Y-67936759D01*
X63057895Y-67936759D02*
X63128728Y-67970092D01*
X63128728Y-67970092D02*
X63262061Y-67970092D01*
X63262061Y-67970092D02*
X63324561Y-67936759D01*
X63324561Y-67936759D02*
X63382895Y-67870092D01*
X63382895Y-67870092D02*
X63399561Y-67736759D01*
X63399561Y-67736759D02*
X63370395Y-67503425D01*
X63370395Y-67503425D02*
X63320395Y-67370092D01*
X63320395Y-67370092D02*
X63245395Y-67303425D01*
X63245395Y-67303425D02*
X63174561Y-67270092D01*
X62662062Y-67970092D02*
X62603728Y-67503425D01*
X62620395Y-67636759D02*
X62578728Y-67570092D01*
X62578728Y-67570092D02*
X62541228Y-67536759D01*
X62541228Y-67536759D02*
X62470395Y-67503425D01*
X62470395Y-67503425D02*
X62403728Y-67503425D01*
X61928729Y-67970092D02*
X61882895Y-67603425D01*
X61882895Y-67603425D02*
X61907895Y-67536759D01*
X61907895Y-67536759D02*
X61970395Y-67503425D01*
X61970395Y-67503425D02*
X62103729Y-67503425D01*
X62103729Y-67503425D02*
X62174562Y-67536759D01*
X61924562Y-67936759D02*
X61995395Y-67970092D01*
X61995395Y-67970092D02*
X62162062Y-67970092D01*
X62162062Y-67970092D02*
X62224562Y-67936759D01*
X62224562Y-67936759D02*
X62249562Y-67870092D01*
X62249562Y-67870092D02*
X62241229Y-67803425D01*
X62241229Y-67803425D02*
X62199562Y-67736759D01*
X62199562Y-67736759D02*
X62128729Y-67703425D01*
X62128729Y-67703425D02*
X61962062Y-67703425D01*
X61962062Y-67703425D02*
X61891229Y-67670092D01*
X61537062Y-67503425D02*
X61595396Y-67970092D01*
X61545396Y-67570092D02*
X61507896Y-67536759D01*
X61507896Y-67536759D02*
X61437062Y-67503425D01*
X61437062Y-67503425D02*
X61337062Y-67503425D01*
X61337062Y-67503425D02*
X61274562Y-67536759D01*
X61274562Y-67536759D02*
X61249562Y-67603425D01*
X61249562Y-67603425D02*
X61295396Y-67970092D01*
X60603729Y-67503425D02*
X60674563Y-68070092D01*
X60674563Y-68070092D02*
X60716229Y-68136759D01*
X60716229Y-68136759D02*
X60753729Y-68170092D01*
X60753729Y-68170092D02*
X60824563Y-68203425D01*
X60824563Y-68203425D02*
X60924563Y-68203425D01*
X60924563Y-68203425D02*
X60987063Y-68170092D01*
X60657896Y-67936759D02*
X60728729Y-67970092D01*
X60728729Y-67970092D02*
X60862063Y-67970092D01*
X60862063Y-67970092D02*
X60924563Y-67936759D01*
X60924563Y-67936759D02*
X60953729Y-67903425D01*
X60953729Y-67903425D02*
X60978729Y-67836759D01*
X60978729Y-67836759D02*
X60953729Y-67636759D01*
X60953729Y-67636759D02*
X60912063Y-67570092D01*
X60912063Y-67570092D02*
X60874563Y-67536759D01*
X60874563Y-67536759D02*
X60803729Y-67503425D01*
X60803729Y-67503425D02*
X60670396Y-67503425D01*
X60670396Y-67503425D02*
X60607896Y-67536759D01*
X60057896Y-67936759D02*
X60128730Y-67970092D01*
X60128730Y-67970092D02*
X60262063Y-67970092D01*
X60262063Y-67970092D02*
X60324563Y-67936759D01*
X60324563Y-67936759D02*
X60349563Y-67870092D01*
X60349563Y-67870092D02*
X60316230Y-67603425D01*
X60316230Y-67603425D02*
X60274563Y-67536759D01*
X60274563Y-67536759D02*
X60203730Y-67503425D01*
X60203730Y-67503425D02*
X60070396Y-67503425D01*
X60070396Y-67503425D02*
X60007896Y-67536759D01*
X60007896Y-67536759D02*
X59982896Y-67603425D01*
X59982896Y-67603425D02*
X59991230Y-67670092D01*
X59991230Y-67670092D02*
X60332896Y-67736759D01*
X59195397Y-67970092D02*
X59107897Y-67270092D01*
X59107897Y-67270092D02*
X58841230Y-67270092D01*
X58841230Y-67270092D02*
X58778730Y-67303425D01*
X58778730Y-67303425D02*
X58749563Y-67336759D01*
X58749563Y-67336759D02*
X58724563Y-67403425D01*
X58724563Y-67403425D02*
X58737063Y-67503425D01*
X58737063Y-67503425D02*
X58778730Y-67570092D01*
X58778730Y-67570092D02*
X58816230Y-67603425D01*
X58816230Y-67603425D02*
X58887063Y-67636759D01*
X58887063Y-67636759D02*
X59153730Y-67636759D01*
X58495397Y-67970092D02*
X58437063Y-67503425D01*
X58407897Y-67270092D02*
X58445397Y-67303425D01*
X58445397Y-67303425D02*
X58416230Y-67336759D01*
X58416230Y-67336759D02*
X58378730Y-67303425D01*
X58378730Y-67303425D02*
X58407897Y-67270092D01*
X58407897Y-67270092D02*
X58416230Y-67336759D01*
X57207897Y-67270092D02*
X57541231Y-67270092D01*
X57541231Y-67270092D02*
X57616231Y-67603425D01*
X57616231Y-67603425D02*
X57578731Y-67570092D01*
X57578731Y-67570092D02*
X57507897Y-67536759D01*
X57507897Y-67536759D02*
X57341231Y-67536759D01*
X57341231Y-67536759D02*
X57278731Y-67570092D01*
X57278731Y-67570092D02*
X57249564Y-67603425D01*
X57249564Y-67603425D02*
X57224564Y-67670092D01*
X57224564Y-67670092D02*
X57245397Y-67836759D01*
X57245397Y-67836759D02*
X57287064Y-67903425D01*
X57287064Y-67903425D02*
X57324564Y-67936759D01*
X57324564Y-67936759D02*
X57395397Y-67970092D01*
X57395397Y-67970092D02*
X57562064Y-67970092D01*
X57562064Y-67970092D02*
X57624564Y-67936759D01*
X57624564Y-67936759D02*
X57653731Y-67903425D01*
X56370397Y-67503425D02*
X56457897Y-68203425D01*
X56374564Y-67536759D02*
X56303731Y-67503425D01*
X56303731Y-67503425D02*
X56170397Y-67503425D01*
X56170397Y-67503425D02*
X56107897Y-67536759D01*
X56107897Y-67536759D02*
X56078731Y-67570092D01*
X56078731Y-67570092D02*
X56053731Y-67636759D01*
X56053731Y-67636759D02*
X56078731Y-67836759D01*
X56078731Y-67836759D02*
X56120397Y-67903425D01*
X56120397Y-67903425D02*
X56157897Y-67936759D01*
X56157897Y-67936759D02*
X56228731Y-67970092D01*
X56228731Y-67970092D02*
X56362064Y-67970092D01*
X56362064Y-67970092D02*
X56424564Y-67936759D01*
X55795398Y-67970092D02*
X55737064Y-67503425D01*
X55753731Y-67636759D02*
X55712064Y-67570092D01*
X55712064Y-67570092D02*
X55674564Y-67536759D01*
X55674564Y-67536759D02*
X55603731Y-67503425D01*
X55603731Y-67503425D02*
X55537064Y-67503425D01*
X55262065Y-67970092D02*
X55324565Y-67936759D01*
X55324565Y-67936759D02*
X55353731Y-67903425D01*
X55353731Y-67903425D02*
X55378731Y-67836759D01*
X55378731Y-67836759D02*
X55353731Y-67636759D01*
X55353731Y-67636759D02*
X55312065Y-67570092D01*
X55312065Y-67570092D02*
X55274565Y-67536759D01*
X55274565Y-67536759D02*
X55203731Y-67503425D01*
X55203731Y-67503425D02*
X55103731Y-67503425D01*
X55103731Y-67503425D02*
X55041231Y-67536759D01*
X55041231Y-67536759D02*
X55012065Y-67570092D01*
X55012065Y-67570092D02*
X54987065Y-67636759D01*
X54987065Y-67636759D02*
X55012065Y-67836759D01*
X55012065Y-67836759D02*
X55053731Y-67903425D01*
X55053731Y-67903425D02*
X55091231Y-67936759D01*
X55091231Y-67936759D02*
X55162065Y-67970092D01*
X55162065Y-67970092D02*
X55262065Y-67970092D01*
X53895399Y-67970092D02*
X53849565Y-67603425D01*
X53849565Y-67603425D02*
X53874565Y-67536759D01*
X53874565Y-67536759D02*
X53937065Y-67503425D01*
X53937065Y-67503425D02*
X54070399Y-67503425D01*
X54070399Y-67503425D02*
X54141232Y-67536759D01*
X53891232Y-67936759D02*
X53962065Y-67970092D01*
X53962065Y-67970092D02*
X54128732Y-67970092D01*
X54128732Y-67970092D02*
X54191232Y-67936759D01*
X54191232Y-67936759D02*
X54216232Y-67870092D01*
X54216232Y-67870092D02*
X54207899Y-67803425D01*
X54207899Y-67803425D02*
X54166232Y-67736759D01*
X54166232Y-67736759D02*
X54095399Y-67703425D01*
X54095399Y-67703425D02*
X53928732Y-67703425D01*
X53928732Y-67703425D02*
X53857899Y-67670092D01*
X53262066Y-67970092D02*
X53174566Y-67270092D01*
X53257899Y-67936759D02*
X53328732Y-67970092D01*
X53328732Y-67970092D02*
X53462066Y-67970092D01*
X53462066Y-67970092D02*
X53524566Y-67936759D01*
X53524566Y-67936759D02*
X53553732Y-67903425D01*
X53553732Y-67903425D02*
X53578732Y-67836759D01*
X53578732Y-67836759D02*
X53553732Y-67636759D01*
X53553732Y-67636759D02*
X53512066Y-67570092D01*
X53512066Y-67570092D02*
X53474566Y-67536759D01*
X53474566Y-67536759D02*
X53403732Y-67503425D01*
X53403732Y-67503425D02*
X53270399Y-67503425D01*
X53270399Y-67503425D02*
X53207899Y-67536759D01*
X52628733Y-67970092D02*
X52582899Y-67603425D01*
X52582899Y-67603425D02*
X52607899Y-67536759D01*
X52607899Y-67536759D02*
X52670399Y-67503425D01*
X52670399Y-67503425D02*
X52803733Y-67503425D01*
X52803733Y-67503425D02*
X52874566Y-67536759D01*
X52624566Y-67936759D02*
X52695399Y-67970092D01*
X52695399Y-67970092D02*
X52862066Y-67970092D01*
X52862066Y-67970092D02*
X52924566Y-67936759D01*
X52924566Y-67936759D02*
X52949566Y-67870092D01*
X52949566Y-67870092D02*
X52941233Y-67803425D01*
X52941233Y-67803425D02*
X52899566Y-67736759D01*
X52899566Y-67736759D02*
X52828733Y-67703425D01*
X52828733Y-67703425D02*
X52662066Y-67703425D01*
X52662066Y-67703425D02*
X52591233Y-67670092D01*
X52237066Y-67503425D02*
X52324566Y-68203425D01*
X52241233Y-67536759D02*
X52170400Y-67503425D01*
X52170400Y-67503425D02*
X52037066Y-67503425D01*
X52037066Y-67503425D02*
X51974566Y-67536759D01*
X51974566Y-67536759D02*
X51945400Y-67570092D01*
X51945400Y-67570092D02*
X51920400Y-67636759D01*
X51920400Y-67636759D02*
X51945400Y-67836759D01*
X51945400Y-67836759D02*
X51987066Y-67903425D01*
X51987066Y-67903425D02*
X52024566Y-67936759D01*
X52024566Y-67936759D02*
X52095400Y-67970092D01*
X52095400Y-67970092D02*
X52228733Y-67970092D01*
X52228733Y-67970092D02*
X52291233Y-67936759D01*
X51703733Y-67503425D02*
X51437067Y-67503425D01*
X51574567Y-67270092D02*
X51649567Y-67870092D01*
X51649567Y-67870092D02*
X51624567Y-67936759D01*
X51624567Y-67936759D02*
X51562067Y-67970092D01*
X51562067Y-67970092D02*
X51495400Y-67970092D01*
X50991233Y-67936759D02*
X51062067Y-67970092D01*
X51062067Y-67970092D02*
X51195400Y-67970092D01*
X51195400Y-67970092D02*
X51257900Y-67936759D01*
X51257900Y-67936759D02*
X51282900Y-67870092D01*
X51282900Y-67870092D02*
X51249567Y-67603425D01*
X51249567Y-67603425D02*
X51207900Y-67536759D01*
X51207900Y-67536759D02*
X51137067Y-67503425D01*
X51137067Y-67503425D02*
X51003733Y-67503425D01*
X51003733Y-67503425D02*
X50941233Y-67536759D01*
X50941233Y-67536759D02*
X50916233Y-67603425D01*
X50916233Y-67603425D02*
X50924567Y-67670092D01*
X50924567Y-67670092D02*
X51266233Y-67736759D01*
X50662067Y-67970092D02*
X50603733Y-67503425D01*
X50620400Y-67636759D02*
X50578733Y-67570092D01*
X50578733Y-67570092D02*
X50541233Y-67536759D01*
X50541233Y-67536759D02*
X50470400Y-67503425D01*
X50470400Y-67503425D02*
X50403733Y-67503425D01*
X63437061Y-68630386D02*
X63170395Y-68630386D01*
X63395395Y-69097053D02*
X63320395Y-68497053D01*
X63320395Y-68497053D02*
X63278728Y-68430386D01*
X63278728Y-68430386D02*
X63207895Y-68397053D01*
X63207895Y-68397053D02*
X63141228Y-68397053D01*
X62895395Y-69097053D02*
X62957895Y-69063720D01*
X62957895Y-69063720D02*
X62987061Y-69030386D01*
X62987061Y-69030386D02*
X63012061Y-68963720D01*
X63012061Y-68963720D02*
X62987061Y-68763720D01*
X62987061Y-68763720D02*
X62945395Y-68697053D01*
X62945395Y-68697053D02*
X62907895Y-68663720D01*
X62907895Y-68663720D02*
X62837061Y-68630386D01*
X62837061Y-68630386D02*
X62737061Y-68630386D01*
X62737061Y-68630386D02*
X62674561Y-68663720D01*
X62674561Y-68663720D02*
X62645395Y-68697053D01*
X62645395Y-68697053D02*
X62620395Y-68763720D01*
X62620395Y-68763720D02*
X62645395Y-68963720D01*
X62645395Y-68963720D02*
X62687061Y-69030386D01*
X62687061Y-69030386D02*
X62724561Y-69063720D01*
X62724561Y-69063720D02*
X62795395Y-69097053D01*
X62795395Y-69097053D02*
X62895395Y-69097053D01*
X62362062Y-69097053D02*
X62303728Y-68630386D01*
X62320395Y-68763720D02*
X62278728Y-68697053D01*
X62278728Y-68697053D02*
X62241228Y-68663720D01*
X62241228Y-68663720D02*
X62170395Y-68630386D01*
X62170395Y-68630386D02*
X62103728Y-68630386D01*
X61395396Y-69097053D02*
X61307896Y-68397053D01*
X61307896Y-68397053D02*
X61137062Y-68897053D01*
X61137062Y-68897053D02*
X60841229Y-68397053D01*
X60841229Y-68397053D02*
X60928729Y-69097053D01*
X60495396Y-69097053D02*
X60557896Y-69063720D01*
X60557896Y-69063720D02*
X60587062Y-69030386D01*
X60587062Y-69030386D02*
X60612062Y-68963720D01*
X60612062Y-68963720D02*
X60587062Y-68763720D01*
X60587062Y-68763720D02*
X60545396Y-68697053D01*
X60545396Y-68697053D02*
X60507896Y-68663720D01*
X60507896Y-68663720D02*
X60437062Y-68630386D01*
X60437062Y-68630386D02*
X60337062Y-68630386D01*
X60337062Y-68630386D02*
X60274562Y-68663720D01*
X60274562Y-68663720D02*
X60245396Y-68697053D01*
X60245396Y-68697053D02*
X60220396Y-68763720D01*
X60220396Y-68763720D02*
X60245396Y-68963720D01*
X60245396Y-68963720D02*
X60287062Y-69030386D01*
X60287062Y-69030386D02*
X60324562Y-69063720D01*
X60324562Y-69063720D02*
X60395396Y-69097053D01*
X60395396Y-69097053D02*
X60495396Y-69097053D01*
X59662063Y-69097053D02*
X59574563Y-68397053D01*
X59657896Y-69063720D02*
X59728729Y-69097053D01*
X59728729Y-69097053D02*
X59862063Y-69097053D01*
X59862063Y-69097053D02*
X59924563Y-69063720D01*
X59924563Y-69063720D02*
X59953729Y-69030386D01*
X59953729Y-69030386D02*
X59978729Y-68963720D01*
X59978729Y-68963720D02*
X59953729Y-68763720D01*
X59953729Y-68763720D02*
X59912063Y-68697053D01*
X59912063Y-68697053D02*
X59874563Y-68663720D01*
X59874563Y-68663720D02*
X59803729Y-68630386D01*
X59803729Y-68630386D02*
X59670396Y-68630386D01*
X59670396Y-68630386D02*
X59607896Y-68663720D01*
X58970396Y-68630386D02*
X59028730Y-69097053D01*
X59270396Y-68630386D02*
X59316230Y-68997053D01*
X59316230Y-68997053D02*
X59291230Y-69063720D01*
X59291230Y-69063720D02*
X59228730Y-69097053D01*
X59228730Y-69097053D02*
X59128730Y-69097053D01*
X59128730Y-69097053D02*
X59057896Y-69063720D01*
X59057896Y-69063720D02*
X59020396Y-69030386D01*
X58287063Y-69030386D02*
X58324563Y-69063720D01*
X58324563Y-69063720D02*
X58428730Y-69097053D01*
X58428730Y-69097053D02*
X58495397Y-69097053D01*
X58495397Y-69097053D02*
X58591230Y-69063720D01*
X58591230Y-69063720D02*
X58649563Y-68997053D01*
X58649563Y-68997053D02*
X58674563Y-68930386D01*
X58674563Y-68930386D02*
X58691230Y-68797053D01*
X58691230Y-68797053D02*
X58678730Y-68697053D01*
X58678730Y-68697053D02*
X58628730Y-68563720D01*
X58628730Y-68563720D02*
X58587063Y-68497053D01*
X58587063Y-68497053D02*
X58512063Y-68430386D01*
X58512063Y-68430386D02*
X58407897Y-68397053D01*
X58407897Y-68397053D02*
X58341230Y-68397053D01*
X58341230Y-68397053D02*
X58245397Y-68430386D01*
X58245397Y-68430386D02*
X58216230Y-68463720D01*
X57695397Y-69097053D02*
X57649563Y-68730386D01*
X57649563Y-68730386D02*
X57674563Y-68663720D01*
X57674563Y-68663720D02*
X57737063Y-68630386D01*
X57737063Y-68630386D02*
X57870397Y-68630386D01*
X57870397Y-68630386D02*
X57941230Y-68663720D01*
X57691230Y-69063720D02*
X57762063Y-69097053D01*
X57762063Y-69097053D02*
X57928730Y-69097053D01*
X57928730Y-69097053D02*
X57991230Y-69063720D01*
X57991230Y-69063720D02*
X58016230Y-68997053D01*
X58016230Y-68997053D02*
X58007897Y-68930386D01*
X58007897Y-68930386D02*
X57966230Y-68863720D01*
X57966230Y-68863720D02*
X57895397Y-68830386D01*
X57895397Y-68830386D02*
X57728730Y-68830386D01*
X57728730Y-68830386D02*
X57657897Y-68797053D01*
X57362064Y-69097053D02*
X57303730Y-68630386D01*
X57320397Y-68763720D02*
X57278730Y-68697053D01*
X57278730Y-68697053D02*
X57241230Y-68663720D01*
X57241230Y-68663720D02*
X57170397Y-68630386D01*
X57170397Y-68630386D02*
X57103730Y-68630386D01*
X56628731Y-69097053D02*
X56541231Y-68397053D01*
X56624564Y-69063720D02*
X56695397Y-69097053D01*
X56695397Y-69097053D02*
X56828731Y-69097053D01*
X56828731Y-69097053D02*
X56891231Y-69063720D01*
X56891231Y-69063720D02*
X56920397Y-69030386D01*
X56920397Y-69030386D02*
X56945397Y-68963720D01*
X56945397Y-68963720D02*
X56920397Y-68763720D01*
X56920397Y-68763720D02*
X56878731Y-68697053D01*
X56878731Y-68697053D02*
X56841231Y-68663720D01*
X56841231Y-68663720D02*
X56770397Y-68630386D01*
X56770397Y-68630386D02*
X56637064Y-68630386D01*
X56637064Y-68630386D02*
X56574564Y-68663720D01*
X55791231Y-69063720D02*
X55695398Y-69097053D01*
X55695398Y-69097053D02*
X55528731Y-69097053D01*
X55528731Y-69097053D02*
X55457898Y-69063720D01*
X55457898Y-69063720D02*
X55420398Y-69030386D01*
X55420398Y-69030386D02*
X55378731Y-68963720D01*
X55378731Y-68963720D02*
X55370398Y-68897053D01*
X55370398Y-68897053D02*
X55395398Y-68830386D01*
X55395398Y-68830386D02*
X55424565Y-68797053D01*
X55424565Y-68797053D02*
X55487065Y-68763720D01*
X55487065Y-68763720D02*
X55616231Y-68730386D01*
X55616231Y-68730386D02*
X55678731Y-68697053D01*
X55678731Y-68697053D02*
X55707898Y-68663720D01*
X55707898Y-68663720D02*
X55732898Y-68597053D01*
X55732898Y-68597053D02*
X55724565Y-68530386D01*
X55724565Y-68530386D02*
X55682898Y-68463720D01*
X55682898Y-68463720D02*
X55645398Y-68430386D01*
X55645398Y-68430386D02*
X55574565Y-68397053D01*
X55574565Y-68397053D02*
X55407898Y-68397053D01*
X55407898Y-68397053D02*
X55312065Y-68430386D01*
X55103731Y-68630386D02*
X54995398Y-69097053D01*
X54770398Y-68630386D02*
X54995398Y-69097053D01*
X54995398Y-69097053D02*
X55082898Y-69263720D01*
X55082898Y-69263720D02*
X55120398Y-69297053D01*
X55120398Y-69297053D02*
X55191231Y-69330386D01*
X54591231Y-69063720D02*
X54528731Y-69097053D01*
X54528731Y-69097053D02*
X54395398Y-69097053D01*
X54395398Y-69097053D02*
X54324565Y-69063720D01*
X54324565Y-69063720D02*
X54282898Y-68997053D01*
X54282898Y-68997053D02*
X54278731Y-68963720D01*
X54278731Y-68963720D02*
X54303731Y-68897053D01*
X54303731Y-68897053D02*
X54366231Y-68863720D01*
X54366231Y-68863720D02*
X54466231Y-68863720D01*
X54466231Y-68863720D02*
X54528731Y-68830386D01*
X54528731Y-68830386D02*
X54553731Y-68763720D01*
X54553731Y-68763720D02*
X54549565Y-68730386D01*
X54549565Y-68730386D02*
X54507898Y-68663720D01*
X54507898Y-68663720D02*
X54437065Y-68630386D01*
X54437065Y-68630386D02*
X54337065Y-68630386D01*
X54337065Y-68630386D02*
X54274565Y-68663720D01*
X54037064Y-68630386D02*
X53770398Y-68630386D01*
X53907898Y-68397053D02*
X53982898Y-68997053D01*
X53982898Y-68997053D02*
X53957898Y-69063720D01*
X53957898Y-69063720D02*
X53895398Y-69097053D01*
X53895398Y-69097053D02*
X53828731Y-69097053D01*
X53324564Y-69063720D02*
X53395398Y-69097053D01*
X53395398Y-69097053D02*
X53528731Y-69097053D01*
X53528731Y-69097053D02*
X53591231Y-69063720D01*
X53591231Y-69063720D02*
X53616231Y-68997053D01*
X53616231Y-68997053D02*
X53582898Y-68730386D01*
X53582898Y-68730386D02*
X53541231Y-68663720D01*
X53541231Y-68663720D02*
X53470398Y-68630386D01*
X53470398Y-68630386D02*
X53337064Y-68630386D01*
X53337064Y-68630386D02*
X53274564Y-68663720D01*
X53274564Y-68663720D02*
X53249564Y-68730386D01*
X53249564Y-68730386D02*
X53257898Y-68797053D01*
X53257898Y-68797053D02*
X53599564Y-68863720D01*
X52995398Y-69097053D02*
X52937064Y-68630386D01*
X52945398Y-68697053D02*
X52907898Y-68663720D01*
X52907898Y-68663720D02*
X52837064Y-68630386D01*
X52837064Y-68630386D02*
X52737064Y-68630386D01*
X52737064Y-68630386D02*
X52674564Y-68663720D01*
X52674564Y-68663720D02*
X52649564Y-68730386D01*
X52649564Y-68730386D02*
X52695398Y-69097053D01*
X52649564Y-68730386D02*
X52607898Y-68663720D01*
X52607898Y-68663720D02*
X52537064Y-68630386D01*
X52537064Y-68630386D02*
X52437064Y-68630386D01*
X52437064Y-68630386D02*
X52374564Y-68663720D01*
X52374564Y-68663720D02*
X52349564Y-68730386D01*
X52349564Y-68730386D02*
X52395398Y-69097053D01*
D11*
X83480225Y-94180167D02*
X84194510Y-94180167D01*
X84194510Y-94180167D02*
X84337367Y-94132548D01*
X84337367Y-94132548D02*
X84432606Y-94037310D01*
X84432606Y-94037310D02*
X84480225Y-93894453D01*
X84480225Y-93894453D02*
X84480225Y-93799215D01*
X83575463Y-94608739D02*
X83527844Y-94656358D01*
X83527844Y-94656358D02*
X83480225Y-94751596D01*
X83480225Y-94751596D02*
X83480225Y-94989691D01*
X83480225Y-94989691D02*
X83527844Y-95084929D01*
X83527844Y-95084929D02*
X83575463Y-95132548D01*
X83575463Y-95132548D02*
X83670701Y-95180167D01*
X83670701Y-95180167D02*
X83765939Y-95180167D01*
X83765939Y-95180167D02*
X83908796Y-95132548D01*
X83908796Y-95132548D02*
X84480225Y-94561120D01*
X84480225Y-94561120D02*
X84480225Y-95180167D01*
D17*
%TO.C,kibuzzard-67B7C21F*%
G36*
X114238824Y-85167464D02*
G01*
X114313932Y-85178604D01*
X114387585Y-85197053D01*
X114459076Y-85222633D01*
X114527716Y-85255097D01*
X114592842Y-85294133D01*
X114653829Y-85339364D01*
X114710089Y-85390355D01*
X114761080Y-85446615D01*
X114806311Y-85507602D01*
X114845347Y-85572728D01*
X114877811Y-85641368D01*
X114903391Y-85712859D01*
X114921840Y-85786512D01*
X114932980Y-85861620D01*
X114936706Y-85937458D01*
X114932980Y-86013296D01*
X114921840Y-86088404D01*
X114903391Y-86162057D01*
X114877811Y-86233549D01*
X114845347Y-86302188D01*
X114806311Y-86367314D01*
X114761080Y-86428301D01*
X114710089Y-86484562D01*
X114710013Y-86484638D01*
X113409576Y-87785075D01*
X112762252Y-88432399D01*
X112705991Y-88483390D01*
X112645004Y-88528621D01*
X112579878Y-88567657D01*
X112511239Y-88600121D01*
X112439747Y-88625701D01*
X112366094Y-88644150D01*
X112290986Y-88655290D01*
X112215148Y-88659016D01*
X112139310Y-88655290D01*
X112064202Y-88644150D01*
X111990549Y-88625701D01*
X111919058Y-88600121D01*
X111850418Y-88567657D01*
X111785292Y-88528621D01*
X111724305Y-88483390D01*
X111668045Y-88432399D01*
X111617054Y-88376139D01*
X111571823Y-88315152D01*
X111532787Y-88250026D01*
X111500323Y-88181386D01*
X111474743Y-88109895D01*
X111456294Y-88036242D01*
X111445154Y-87961134D01*
X111441428Y-87885296D01*
X111445154Y-87809458D01*
X111456294Y-87734350D01*
X111474743Y-87660697D01*
X111500323Y-87589205D01*
X111532787Y-87520566D01*
X111571823Y-87455440D01*
X111617054Y-87394453D01*
X111668045Y-87338192D01*
X112012269Y-86993968D01*
X112618469Y-86993968D01*
X113184155Y-87559653D01*
X113274628Y-87469180D01*
X113258293Y-87401668D01*
X113238530Y-87330729D01*
X113216826Y-87258533D01*
X113194664Y-87187252D01*
X113172046Y-87118025D01*
X113148971Y-87051999D01*
X113126924Y-86991798D01*
X113107390Y-86940049D01*
X113455574Y-87288234D01*
X113557014Y-87186794D01*
X112991328Y-86621109D01*
X112900855Y-86711582D01*
X112937207Y-86800634D01*
X112971934Y-86891107D01*
X113005037Y-86983001D01*
X113036615Y-87076419D01*
X113066774Y-87171461D01*
X113095510Y-87268129D01*
X112719909Y-86892528D01*
X112618469Y-86993968D01*
X112012269Y-86993968D01*
X112315369Y-86690868D01*
X112597755Y-86408482D01*
X112620906Y-86385331D01*
X112925530Y-86385331D01*
X113970997Y-86919031D01*
X114086144Y-86803883D01*
X113042505Y-86268355D01*
X112925530Y-86385331D01*
X112620906Y-86385331D01*
X112890193Y-86116044D01*
X112906947Y-86099290D01*
X113642917Y-86099290D01*
X113657768Y-86169314D01*
X113688611Y-86239569D01*
X113735447Y-86310051D01*
X113798276Y-86380762D01*
X113869558Y-86442447D01*
X113942667Y-86486770D01*
X114016233Y-86514414D01*
X114088887Y-86526067D01*
X114159710Y-86521954D01*
X114227794Y-86502306D01*
X114291765Y-86467808D01*
X114350253Y-86419144D01*
X114399602Y-86359742D01*
X114430674Y-86305824D01*
X114447581Y-86261501D01*
X114455348Y-86231801D01*
X114336545Y-86171485D01*
X114309128Y-86245509D01*
X114250641Y-86323187D01*
X114189412Y-86365225D01*
X114112647Y-86378020D01*
X114020803Y-86350146D01*
X113969512Y-86317362D01*
X113915251Y-86269270D01*
X113859404Y-86206009D01*
X113821020Y-86145389D01*
X113800103Y-86087410D01*
X113805358Y-86004704D01*
X113857677Y-85926568D01*
X113940382Y-85863968D01*
X114006638Y-85837922D01*
X113946323Y-85720948D01*
X113854936Y-85758416D01*
X113801931Y-85792914D01*
X113748927Y-85839750D01*
X113683940Y-85921795D01*
X113648604Y-86008309D01*
X113642917Y-86099290D01*
X112906947Y-86099290D01*
X113457707Y-85548531D01*
X113615806Y-85390431D01*
X113615882Y-85390355D01*
X113672143Y-85339364D01*
X113733130Y-85294133D01*
X113798256Y-85255097D01*
X113866895Y-85222633D01*
X113938387Y-85197053D01*
X114012040Y-85178604D01*
X114087148Y-85167464D01*
X114162986Y-85163738D01*
X114238824Y-85167464D01*
G37*
D18*
%TO.C,TP3*%
X112900000Y-90200000D02*
G75*
G02*
X111500000Y-90200000I-700000J0D01*
G01*
X111500000Y-90200000D02*
G75*
G02*
X112900000Y-90200000I700000J0D01*
G01*
%TO.C,TP5*%
X117700000Y-90200000D02*
G75*
G02*
X116300000Y-90200000I-700000J0D01*
G01*
X116300000Y-90200000D02*
G75*
G02*
X117700000Y-90200000I700000J0D01*
G01*
D17*
%TO.C,kibuzzard-67B7C241*%
G36*
X118013399Y-87195407D02*
G01*
X118045385Y-87241101D01*
X118051782Y-87288622D01*
X118035789Y-87336143D01*
X118000605Y-87381837D01*
X117984612Y-87396916D01*
X117964050Y-87412909D01*
X117794070Y-87242929D01*
X117818744Y-87218255D01*
X117873920Y-87174274D01*
X117924297Y-87157482D01*
X118013399Y-87195407D01*
G37*
G36*
X119034659Y-85301389D02*
G01*
X119106546Y-85312052D01*
X119177042Y-85329710D01*
X119245468Y-85354194D01*
X119311164Y-85385266D01*
X119373499Y-85422628D01*
X119431871Y-85465919D01*
X119485719Y-85514725D01*
X119534525Y-85568573D01*
X119577816Y-85626945D01*
X119615178Y-85689280D01*
X119646250Y-85754976D01*
X119670734Y-85823402D01*
X119688392Y-85893898D01*
X119699055Y-85965785D01*
X119702621Y-86038372D01*
X119699055Y-86110959D01*
X119688392Y-86182846D01*
X119670733Y-86253342D01*
X119646250Y-86321768D01*
X119615178Y-86387464D01*
X119577816Y-86449799D01*
X119534524Y-86508172D01*
X119485719Y-86562019D01*
X119485643Y-86562095D01*
X118187034Y-87860705D01*
X117539709Y-88508029D01*
X117485862Y-88556834D01*
X117427489Y-88600126D01*
X117365154Y-88637488D01*
X117299458Y-88668560D01*
X117231032Y-88693043D01*
X117160536Y-88710702D01*
X117088649Y-88721365D01*
X117016062Y-88724931D01*
X116943475Y-88721365D01*
X116871588Y-88710702D01*
X116801092Y-88693044D01*
X116732666Y-88668560D01*
X116666970Y-88637488D01*
X116604635Y-88600126D01*
X116546263Y-88556835D01*
X116492415Y-88508029D01*
X116443609Y-88454181D01*
X116400318Y-88395809D01*
X116362956Y-88333474D01*
X116331884Y-88267778D01*
X116307400Y-88199352D01*
X116289742Y-88128856D01*
X116279079Y-88056969D01*
X116275513Y-87984382D01*
X116279079Y-87911795D01*
X116289742Y-87839908D01*
X116307401Y-87769412D01*
X116331884Y-87700986D01*
X116362956Y-87635290D01*
X116400318Y-87572955D01*
X116443610Y-87514582D01*
X116492415Y-87460735D01*
X116899391Y-87053758D01*
X117380087Y-87053758D01*
X117937547Y-87611219D01*
X117980499Y-87581975D01*
X118024822Y-87546790D01*
X118065489Y-87510693D01*
X118098389Y-87479621D01*
X118141797Y-87430729D01*
X118175154Y-87380923D01*
X118197772Y-87330432D01*
X118208967Y-87279484D01*
X118194345Y-87178044D01*
X118167386Y-87128466D01*
X118126719Y-87080260D01*
X118074628Y-87038222D01*
X118017054Y-87010806D01*
X117954911Y-87002124D01*
X117889113Y-87016289D01*
X117869464Y-86930842D01*
X117842962Y-86836714D01*
X117811433Y-86742128D01*
X117777621Y-86656224D01*
X117659731Y-86774114D01*
X117690802Y-86850650D01*
X117716391Y-86928558D01*
X117738553Y-87008521D01*
X117759344Y-87091226D01*
X117700855Y-87149715D01*
X117492493Y-86941352D01*
X117380087Y-87053758D01*
X116899391Y-87053758D01*
X117139739Y-86813410D01*
X117312460Y-86640689D01*
X117855299Y-86640689D01*
X117979585Y-86699176D01*
X118011114Y-86612816D01*
X118039559Y-86565180D01*
X118081938Y-86516402D01*
X118134943Y-86475278D01*
X118181094Y-86462026D01*
X118219933Y-86470709D01*
X118251005Y-86493556D01*
X118272024Y-86534680D01*
X118270653Y-86584486D01*
X118255117Y-86638404D01*
X118232728Y-86692779D01*
X118200742Y-86766803D01*
X118181094Y-86846766D01*
X118189318Y-86929015D01*
X118241866Y-87010806D01*
X118325600Y-87068723D01*
X118417787Y-87083459D01*
X118481402Y-87069598D01*
X118543697Y-87037156D01*
X118604672Y-86986131D01*
X118650480Y-86934384D01*
X118683722Y-86883321D01*
X118722562Y-86791477D01*
X118602845Y-86737559D01*
X118574058Y-86810211D01*
X118518769Y-86883778D01*
X118461805Y-86926323D01*
X118410323Y-86934548D01*
X118364325Y-86908453D01*
X118344677Y-86870527D01*
X118346047Y-86825291D01*
X118361127Y-86776398D01*
X118382602Y-86727506D01*
X118415501Y-86649827D01*
X118435607Y-86563923D01*
X118424183Y-86472994D01*
X118401223Y-86426728D01*
X118362497Y-86380236D01*
X118279107Y-86322662D01*
X118187948Y-86308954D01*
X118123470Y-86325201D01*
X118056757Y-86362974D01*
X117987810Y-86422274D01*
X117928295Y-86489329D01*
X117890483Y-86549759D01*
X117855299Y-86640689D01*
X117312460Y-86640689D01*
X117537273Y-86415876D01*
X117759343Y-86193807D01*
X117935720Y-86017430D01*
X118416415Y-86017430D01*
X118888886Y-86489900D01*
X118739925Y-86638860D01*
X118833140Y-86732075D01*
X119244382Y-86320834D01*
X119151167Y-86227619D01*
X119002206Y-86376580D01*
X118529736Y-85904109D01*
X118416415Y-86017430D01*
X117935720Y-86017430D01*
X118289388Y-85663762D01*
X118438349Y-85514801D01*
X118438425Y-85514725D01*
X118492272Y-85465920D01*
X118550645Y-85422628D01*
X118612980Y-85385266D01*
X118678676Y-85354194D01*
X118747102Y-85329711D01*
X118817598Y-85312052D01*
X118889485Y-85301389D01*
X118962072Y-85297823D01*
X119034659Y-85301389D01*
G37*
%TO.C,kibuzzard-67B6248A*%
G36*
X114687680Y-89442467D02*
G01*
X114759567Y-89453130D01*
X114830063Y-89470788D01*
X114898489Y-89495272D01*
X114964185Y-89526344D01*
X115026520Y-89563705D01*
X115084892Y-89606997D01*
X115138740Y-89655803D01*
X115187546Y-89709651D01*
X115230838Y-89768023D01*
X115268199Y-89830358D01*
X115299271Y-89896054D01*
X115323755Y-89964480D01*
X115341413Y-90034976D01*
X115352076Y-90106863D01*
X115355642Y-90179450D01*
X115352076Y-90252036D01*
X115341413Y-90323924D01*
X115323754Y-90394420D01*
X115299271Y-90462845D01*
X115268199Y-90528542D01*
X115230838Y-90590877D01*
X115187545Y-90649249D01*
X115138740Y-90703097D01*
X114491416Y-91350421D01*
X114245585Y-91596253D01*
X113638775Y-92203062D01*
X113282366Y-92559472D01*
X113155338Y-92686499D01*
X113155262Y-92686575D01*
X113101414Y-92735380D01*
X113043042Y-92778673D01*
X112980707Y-92816034D01*
X112915010Y-92847106D01*
X112846585Y-92871589D01*
X112776089Y-92889248D01*
X112704201Y-92899911D01*
X112631615Y-92903477D01*
X112559028Y-92899911D01*
X112487141Y-92889248D01*
X112416645Y-92871590D01*
X112348219Y-92847106D01*
X112282523Y-92816034D01*
X112220188Y-92778673D01*
X112161816Y-92735381D01*
X112107968Y-92686575D01*
X112059162Y-92632727D01*
X112015870Y-92574355D01*
X111978509Y-92512020D01*
X111947437Y-92446324D01*
X111922953Y-92377898D01*
X111905295Y-92307402D01*
X111894632Y-92235515D01*
X111891066Y-92162928D01*
X111894632Y-92090342D01*
X111905295Y-92018454D01*
X111922954Y-91947958D01*
X111947437Y-91879533D01*
X111956072Y-91861275D01*
X112368496Y-91861275D01*
X112455314Y-91886863D01*
X112506605Y-91900000D01*
X112561780Y-91911995D01*
X112620039Y-91922961D01*
X112680583Y-91933014D01*
X112742155Y-91941353D01*
X112803498Y-91947179D01*
X112804412Y-92005209D01*
X112808981Y-92067810D01*
X112817435Y-92133151D01*
X112830001Y-92199406D01*
X112846336Y-92265320D01*
X112866098Y-92329633D01*
X112889060Y-92390520D01*
X112914991Y-92446151D01*
X113042018Y-92319124D01*
X113001808Y-92221339D01*
X112985015Y-92165023D01*
X112971194Y-92107562D01*
X112960570Y-92050103D01*
X112953373Y-91993786D01*
X112949717Y-91894175D01*
X113208342Y-92152800D01*
X113320748Y-92040394D01*
X112755063Y-91474708D01*
X112642657Y-91587114D01*
X112877522Y-91821979D01*
X112778825Y-91807357D01*
X112675100Y-91786795D01*
X112577773Y-91761663D01*
X112495524Y-91734247D01*
X112368496Y-91861275D01*
X111956072Y-91861275D01*
X111978509Y-91813836D01*
X112015870Y-91751501D01*
X112059163Y-91693129D01*
X112107968Y-91639281D01*
X112108044Y-91639205D01*
X112592396Y-91154853D01*
X113074918Y-91154853D01*
X113547389Y-91627324D01*
X113305213Y-91869500D01*
X113398428Y-91962714D01*
X113753923Y-91607219D01*
X113188237Y-91041534D01*
X113074918Y-91154853D01*
X112592396Y-91154853D01*
X112771514Y-90975735D01*
X113310696Y-90975735D01*
X113429499Y-91036051D01*
X113456915Y-90962027D01*
X113515403Y-90884348D01*
X113576632Y-90842310D01*
X113653398Y-90829516D01*
X113745242Y-90857388D01*
X113796532Y-90890174D01*
X113850793Y-90938267D01*
X113906641Y-91001527D01*
X113945023Y-91062147D01*
X113965941Y-91120127D01*
X113960686Y-91202832D01*
X113908368Y-91280967D01*
X113825661Y-91343567D01*
X113759407Y-91369613D01*
X113819722Y-91486588D01*
X113911109Y-91449119D01*
X113964114Y-91414621D01*
X114017117Y-91367785D01*
X114082104Y-91285740D01*
X114117441Y-91199227D01*
X114123126Y-91108246D01*
X114108276Y-91038221D01*
X114077433Y-90967967D01*
X114030597Y-90897485D01*
X113967769Y-90826774D01*
X113896487Y-90765088D01*
X113823377Y-90720766D01*
X113749811Y-90693120D01*
X113677158Y-90681469D01*
X113606333Y-90685581D01*
X113538249Y-90705230D01*
X113474279Y-90739728D01*
X113415792Y-90788392D01*
X113366442Y-90847794D01*
X113335371Y-90901712D01*
X113318464Y-90946034D01*
X113310696Y-90975735D01*
X112771514Y-90975735D01*
X113444122Y-90303127D01*
X114091446Y-89655803D01*
X114145294Y-89606998D01*
X114203666Y-89563705D01*
X114266001Y-89526344D01*
X114331698Y-89495272D01*
X114400123Y-89470789D01*
X114470619Y-89453130D01*
X114542507Y-89442467D01*
X114615093Y-89438901D01*
X114687680Y-89442467D01*
G37*
D11*
%TO.C,J2*%
X41402806Y-112733501D02*
X41402806Y-74733501D01*
X42402806Y-73733501D02*
X80402806Y-73733501D01*
X80402806Y-113733501D02*
X42402806Y-113733501D01*
X81402806Y-74733501D02*
X81402806Y-112733501D01*
X76057671Y-61503797D02*
X88902806Y-61503797D01*
X88902806Y-56485520D01*
X76057671Y-56485520D01*
X76057671Y-61503797D01*
X85902806Y-119130566D02*
X90902806Y-119130566D01*
X90902806Y-68408630D01*
X85902806Y-68408630D01*
X85902806Y-119130566D01*
X41402806Y-74733501D02*
G75*
G02*
X42402806Y-73733501I1000000J0D01*
G01*
X42402806Y-113733501D02*
G75*
G02*
X41402806Y-112733501I0J1000000D01*
G01*
X80402806Y-73733501D02*
G75*
G02*
X81402806Y-74733501I0J-1000000D01*
G01*
X81402806Y-112733501D02*
G75*
G02*
X80402806Y-113733501I-1000000J0D01*
G01*
D18*
%TO.C,TP4*%
X115300000Y-90200000D02*
G75*
G02*
X113900000Y-90200000I-700000J0D01*
G01*
X113900000Y-90200000D02*
G75*
G02*
X115300000Y-90200000I700000J0D01*
G01*
D17*
%TO.C,kibuzzard-67B6249A*%
G36*
X115474284Y-92087860D02*
G01*
X115465146Y-92098827D01*
X115455094Y-92108879D01*
X115376044Y-92158685D01*
X115293795Y-92160513D01*
X115210176Y-92122587D01*
X115168138Y-92090830D01*
X115126101Y-92052219D01*
X115060302Y-91975454D01*
X115018264Y-91895034D01*
X115013238Y-91815070D01*
X115058474Y-91737848D01*
X115075381Y-91721855D01*
X115094115Y-91707691D01*
X115474284Y-92087860D01*
G37*
G36*
X117053234Y-89460690D02*
G01*
X117125121Y-89471353D01*
X117195617Y-89489011D01*
X117264043Y-89513494D01*
X117329740Y-89544567D01*
X117392075Y-89581928D01*
X117450446Y-89625220D01*
X117504295Y-89674025D01*
X117553100Y-89727874D01*
X117596392Y-89786245D01*
X117633753Y-89848580D01*
X117664826Y-89914277D01*
X117689309Y-89982703D01*
X117706967Y-90053199D01*
X117717630Y-90125086D01*
X117721196Y-90197673D01*
X117717630Y-90270259D01*
X117706967Y-90342147D01*
X117689308Y-90412643D01*
X117664826Y-90481068D01*
X117633753Y-90546765D01*
X117596392Y-90609100D01*
X117553099Y-90667472D01*
X117504295Y-90721320D01*
X116856970Y-91368644D01*
X116625761Y-91599853D01*
X116100286Y-92125328D01*
X115797795Y-92427820D01*
X115535514Y-92690100D01*
X115535438Y-92690177D01*
X115481590Y-92738981D01*
X115423218Y-92782274D01*
X115360883Y-92819635D01*
X115295186Y-92850708D01*
X115226761Y-92875190D01*
X115156265Y-92892849D01*
X115084377Y-92903512D01*
X115011791Y-92907078D01*
X114939204Y-92903512D01*
X114867317Y-92892849D01*
X114796821Y-92875191D01*
X114728395Y-92850708D01*
X114662698Y-92819635D01*
X114600363Y-92782274D01*
X114541992Y-92738982D01*
X114488143Y-92690177D01*
X114439338Y-92636328D01*
X114396046Y-92577957D01*
X114358685Y-92515622D01*
X114327612Y-92449925D01*
X114303129Y-92381499D01*
X114285471Y-92311003D01*
X114274808Y-92239116D01*
X114271242Y-92166529D01*
X114274808Y-92093943D01*
X114285471Y-92022055D01*
X114303130Y-91951559D01*
X114327612Y-91883134D01*
X114329980Y-91878127D01*
X114858794Y-91878127D01*
X114870331Y-91946553D01*
X114898547Y-92017493D01*
X114945154Y-92090831D01*
X115011867Y-92166453D01*
X115089546Y-92234308D01*
X115165398Y-92280687D01*
X115238963Y-92307417D01*
X115309789Y-92316328D01*
X115377872Y-92308332D01*
X115443213Y-92284342D01*
X115505585Y-92245959D01*
X115564758Y-92194783D01*
X115620504Y-92132640D01*
X115671681Y-92060444D01*
X115119704Y-91508466D01*
X115036541Y-91569697D01*
X114970742Y-91630011D01*
X114921508Y-91687471D01*
X114885296Y-91748358D01*
X114863820Y-91812101D01*
X114858794Y-91878127D01*
X114329980Y-91878127D01*
X114358685Y-91817437D01*
X114396046Y-91755102D01*
X114439339Y-91696730D01*
X114488143Y-91642882D01*
X114488220Y-91642806D01*
X114721257Y-91409769D01*
X115203779Y-91409769D01*
X115769465Y-91975454D01*
X115859938Y-91884981D01*
X115823587Y-91795930D01*
X115788859Y-91705457D01*
X115755757Y-91613562D01*
X115724177Y-91520144D01*
X115694020Y-91425101D01*
X115665284Y-91328435D01*
X116040884Y-91704035D01*
X116142324Y-91602595D01*
X115576638Y-91036910D01*
X115486165Y-91127383D01*
X115502501Y-91194895D01*
X115522263Y-91265834D01*
X115543968Y-91338029D01*
X115566129Y-91409312D01*
X115588747Y-91478537D01*
X115611822Y-91544565D01*
X115633869Y-91604766D01*
X115653403Y-91656514D01*
X115305219Y-91308329D01*
X115203779Y-91409769D01*
X114721257Y-91409769D01*
X115140723Y-90990303D01*
X115679906Y-90990303D01*
X115798709Y-91050618D01*
X115825212Y-90978422D01*
X115875474Y-90908054D01*
X115957723Y-90855050D01*
X116043626Y-90850481D01*
X116131357Y-90887035D01*
X116175223Y-90919250D01*
X116219089Y-90959231D01*
X116277221Y-91024471D01*
X116316366Y-91084939D01*
X116336522Y-91140634D01*
X116332980Y-91216143D01*
X116290371Y-91282741D01*
X116267525Y-91303760D01*
X116242849Y-91322951D01*
X116036315Y-91116416D01*
X115923909Y-91228822D01*
X116206295Y-91511208D01*
X116285344Y-91465058D01*
X116339148Y-91424962D01*
X116397294Y-91371386D01*
X116442987Y-91316325D01*
X116474058Y-91257153D01*
X116490166Y-91194439D01*
X116490965Y-91128753D01*
X116476115Y-91060443D01*
X116445271Y-90989846D01*
X116397865Y-90917764D01*
X116333323Y-90844997D01*
X116260556Y-90781826D01*
X116186646Y-90736704D01*
X116113194Y-90708488D01*
X116041798Y-90696037D01*
X115973144Y-90699121D01*
X115907916Y-90717513D01*
X115847487Y-90749840D01*
X115793226Y-90794734D01*
X115739307Y-90858706D01*
X115705494Y-90915365D01*
X115687674Y-90960602D01*
X115679906Y-90990303D01*
X115140723Y-90990303D01*
X115809676Y-90321350D01*
X116457000Y-89674025D01*
X116510848Y-89625221D01*
X116569220Y-89581928D01*
X116631555Y-89544567D01*
X116697252Y-89513494D01*
X116765677Y-89489012D01*
X116836173Y-89471353D01*
X116908061Y-89460690D01*
X116980647Y-89457124D01*
X117053234Y-89460690D01*
G37*
%TO.C,kibuzzard-67B62451*%
G36*
X116592016Y-85319693D02*
G01*
X116663903Y-85330356D01*
X116734399Y-85348014D01*
X116802825Y-85372498D01*
X116868521Y-85403570D01*
X116930856Y-85440932D01*
X116989228Y-85484224D01*
X117043076Y-85533029D01*
X117091881Y-85586877D01*
X117135173Y-85645249D01*
X117172535Y-85707584D01*
X117203607Y-85773280D01*
X117228091Y-85841706D01*
X117245749Y-85912202D01*
X117256412Y-85984089D01*
X117259978Y-86056676D01*
X117256412Y-86129263D01*
X117245749Y-86201150D01*
X117228090Y-86271646D01*
X117203606Y-86340072D01*
X117172534Y-86405769D01*
X117135173Y-86468104D01*
X117091881Y-86526476D01*
X117043075Y-86580324D01*
X117043000Y-86580400D01*
X115754443Y-87868956D01*
X115107119Y-88516280D01*
X115053271Y-88565086D01*
X114994899Y-88608378D01*
X114932564Y-88645739D01*
X114866867Y-88676811D01*
X114798441Y-88701295D01*
X114727945Y-88718954D01*
X114656058Y-88729617D01*
X114583471Y-88733183D01*
X114510884Y-88729617D01*
X114438997Y-88718954D01*
X114368501Y-88701296D01*
X114300075Y-88676812D01*
X114234379Y-88645740D01*
X114172044Y-88608378D01*
X114113672Y-88565086D01*
X114059824Y-88516281D01*
X114011019Y-88462433D01*
X113967727Y-88404061D01*
X113930365Y-88341726D01*
X113899293Y-88276030D01*
X113874809Y-88207604D01*
X113857151Y-88137108D01*
X113846488Y-88065221D01*
X113842922Y-87992634D01*
X113846488Y-87920047D01*
X113857151Y-87848160D01*
X113874810Y-87777664D01*
X113899294Y-87709238D01*
X113930366Y-87643541D01*
X113967727Y-87581206D01*
X114011019Y-87522834D01*
X114059825Y-87468986D01*
X114447611Y-87081200D01*
X114966688Y-87081200D01*
X115082749Y-87153397D01*
X115117933Y-87079830D01*
X115147062Y-87035622D01*
X115187844Y-86989814D01*
X115243019Y-86946976D01*
X115293396Y-86933611D01*
X115377930Y-86971536D01*
X115407059Y-87018486D01*
X115404888Y-87069777D01*
X115377815Y-87123581D01*
X115332236Y-87178070D01*
X115297508Y-87212798D01*
X115390723Y-87306013D01*
X115432761Y-87263975D01*
X115471143Y-87232903D01*
X115514096Y-87213712D01*
X115558419Y-87213255D01*
X115601827Y-87239300D01*
X115631985Y-87306926D01*
X115598172Y-87376381D01*
X115524148Y-87429385D01*
X115443727Y-87457715D01*
X115485765Y-87580174D01*
X115584463Y-87548188D01*
X115640438Y-87517573D01*
X115693214Y-87473251D01*
X115734680Y-87425844D01*
X115764039Y-87378665D01*
X115788713Y-87287278D01*
X115771807Y-87202745D01*
X115719717Y-87128722D01*
X115635640Y-87083029D01*
X115536942Y-87086685D01*
X115553278Y-87025112D01*
X115551108Y-86964682D01*
X115530202Y-86907451D01*
X115490335Y-86855475D01*
X115405345Y-86796074D01*
X115308931Y-86778253D01*
X115257299Y-86786935D01*
X115203836Y-86808410D01*
X115148890Y-86843480D01*
X115092802Y-86892944D01*
X115051678Y-86940465D01*
X115014665Y-86993012D01*
X114984965Y-87042818D01*
X114966688Y-87081200D01*
X114447611Y-87081200D01*
X114707149Y-86821662D01*
X114864335Y-86664476D01*
X115056247Y-86472564D01*
X115536942Y-86472564D01*
X115581494Y-86562351D01*
X115632898Y-86661735D01*
X115669707Y-86730833D01*
X115707023Y-86799221D01*
X115744848Y-86866898D01*
X115782469Y-86932748D01*
X115819176Y-86995652D01*
X115854969Y-87055613D01*
X115903861Y-87134662D01*
X115944529Y-87196348D01*
X116063332Y-87077545D01*
X116022778Y-87023284D01*
X115977884Y-86959199D01*
X115930478Y-86888717D01*
X115882385Y-86815264D01*
X115834864Y-86740327D01*
X115789170Y-86665390D01*
X115747361Y-86593651D01*
X115711492Y-86528309D01*
X115776033Y-86563608D01*
X115847202Y-86605532D01*
X115921681Y-86651682D01*
X115996162Y-86699660D01*
X116069385Y-86748209D01*
X116140097Y-86796073D01*
X116204981Y-86840853D01*
X116260728Y-86880149D01*
X116378616Y-86762260D01*
X116308363Y-86716453D01*
X116229198Y-86666761D01*
X116142724Y-86614556D01*
X116050537Y-86561209D01*
X115986414Y-86525415D01*
X115920768Y-86489927D01*
X115853598Y-86454742D01*
X115786023Y-86420473D01*
X115719157Y-86387726D01*
X115653004Y-86356502D01*
X115536942Y-86472564D01*
X115056247Y-86472564D01*
X115296595Y-86232216D01*
X115361481Y-86167330D01*
X115880557Y-86167330D01*
X115996619Y-86239526D01*
X116031803Y-86165960D01*
X116060932Y-86121751D01*
X116101713Y-86075944D01*
X116156889Y-86033106D01*
X116207265Y-86019741D01*
X116291799Y-86057667D01*
X116320929Y-86104616D01*
X116318758Y-86155907D01*
X116291685Y-86209712D01*
X116246105Y-86264201D01*
X116211378Y-86298928D01*
X116304593Y-86392143D01*
X116346631Y-86350105D01*
X116385013Y-86319033D01*
X116427965Y-86299842D01*
X116472288Y-86299385D01*
X116515697Y-86325430D01*
X116545855Y-86393057D01*
X116512042Y-86462511D01*
X116438018Y-86515515D01*
X116357597Y-86543845D01*
X116399635Y-86666304D01*
X116498333Y-86634319D01*
X116554308Y-86603704D01*
X116607083Y-86559381D01*
X116648551Y-86511974D01*
X116677909Y-86464795D01*
X116702583Y-86373408D01*
X116685677Y-86288876D01*
X116633586Y-86214852D01*
X116549510Y-86169159D01*
X116450813Y-86172814D01*
X116467148Y-86111243D01*
X116464978Y-86050813D01*
X116444072Y-85993582D01*
X116404205Y-85941605D01*
X116319215Y-85882204D01*
X116222801Y-85864383D01*
X116171168Y-85873065D01*
X116117706Y-85894541D01*
X116062760Y-85929610D01*
X116006672Y-85979074D01*
X115965547Y-86026595D01*
X115928535Y-86079142D01*
X115898835Y-86128949D01*
X115880557Y-86167330D01*
X115361481Y-86167330D01*
X115778204Y-85750606D01*
X115995705Y-85533105D01*
X115995781Y-85533030D01*
X116049629Y-85484224D01*
X116108001Y-85440932D01*
X116170336Y-85403571D01*
X116236033Y-85372499D01*
X116304459Y-85348015D01*
X116374955Y-85330356D01*
X116446842Y-85319693D01*
X116519429Y-85316127D01*
X116592016Y-85319693D01*
G37*
%TO.C,kibuzzard-67B62470*%
G36*
X111646074Y-91139611D02*
G01*
X111636936Y-91150577D01*
X111626883Y-91160630D01*
X111547833Y-91210436D01*
X111465585Y-91212263D01*
X111381966Y-91174338D01*
X111339928Y-91142581D01*
X111297889Y-91103971D01*
X111232091Y-91027205D01*
X111190053Y-90946785D01*
X111185027Y-90866821D01*
X111230263Y-90789599D01*
X111247170Y-90773606D01*
X111265904Y-90759441D01*
X111646074Y-91139611D01*
G37*
G36*
X110407781Y-91715349D02*
G01*
X110483175Y-91765155D01*
X110522585Y-91799768D01*
X110563138Y-91838722D01*
X110602206Y-91879389D01*
X110637162Y-91919142D01*
X110686968Y-91994536D01*
X110702047Y-92063534D01*
X110670975Y-92125677D01*
X110609289Y-92156291D01*
X110539378Y-92141212D01*
X110463984Y-92091406D01*
X110424573Y-92056794D01*
X110384020Y-92017840D01*
X110344952Y-91977173D01*
X110309997Y-91937420D01*
X110260191Y-91862025D01*
X110245112Y-91793028D01*
X110276183Y-91730885D01*
X110338326Y-91699813D01*
X110407781Y-91715349D01*
G37*
G36*
X112286479Y-89450985D02*
G01*
X112358366Y-89461649D01*
X112428861Y-89479306D01*
X112497288Y-89503789D01*
X112562985Y-89534862D01*
X112625319Y-89572224D01*
X112683691Y-89615515D01*
X112737539Y-89664321D01*
X112786345Y-89718169D01*
X112829636Y-89776541D01*
X112866998Y-89838875D01*
X112898071Y-89904572D01*
X112922554Y-89972999D01*
X112940211Y-90043494D01*
X112950875Y-90115381D01*
X112954441Y-90187967D01*
X112950875Y-90260554D01*
X112940211Y-90332442D01*
X112922554Y-90402938D01*
X112898070Y-90471364D01*
X112866998Y-90537060D01*
X112829636Y-90599395D01*
X112786344Y-90657767D01*
X112737539Y-90711615D01*
X112090215Y-91358940D01*
X111969584Y-91479571D01*
X111633280Y-91815874D01*
X110996313Y-92452842D01*
X110793433Y-92655721D01*
X110793357Y-92655797D01*
X110739509Y-92704602D01*
X110681137Y-92747894D01*
X110618802Y-92785256D01*
X110553106Y-92816328D01*
X110484680Y-92840812D01*
X110414184Y-92858469D01*
X110342296Y-92869133D01*
X110269709Y-92872699D01*
X110197123Y-92869133D01*
X110125236Y-92858469D01*
X110054741Y-92840812D01*
X109986314Y-92816329D01*
X109920617Y-92785256D01*
X109858283Y-92747894D01*
X109799911Y-92704603D01*
X109746063Y-92655797D01*
X109697257Y-92601949D01*
X109653966Y-92543577D01*
X109616604Y-92481243D01*
X109585531Y-92415546D01*
X109561048Y-92347119D01*
X109543391Y-92276624D01*
X109532727Y-92204737D01*
X109529161Y-92132151D01*
X109532727Y-92059564D01*
X109543391Y-91987676D01*
X109561048Y-91917180D01*
X109585532Y-91848754D01*
X109616604Y-91783058D01*
X109619697Y-91777898D01*
X110099806Y-91777898D01*
X110101178Y-91859284D01*
X110120111Y-91923797D01*
X110154524Y-91990767D01*
X110204416Y-92060192D01*
X110269786Y-92132074D01*
X110341725Y-92197387D01*
X110411322Y-92247108D01*
X110478577Y-92281235D01*
X110543490Y-92299769D01*
X110625079Y-92300937D01*
X110699864Y-92275805D01*
X110767845Y-92224374D01*
X110820748Y-92154921D01*
X110846641Y-92079374D01*
X110845524Y-91997734D01*
X110826790Y-91933021D01*
X110792520Y-91865909D01*
X110742714Y-91796399D01*
X110677372Y-91724488D01*
X110605376Y-91659232D01*
X110535608Y-91609683D01*
X110468067Y-91575841D01*
X110402754Y-91557707D01*
X110320760Y-91556945D01*
X110245975Y-91582077D01*
X110178399Y-91633101D01*
X110125547Y-91702504D01*
X110099806Y-91777898D01*
X109619697Y-91777898D01*
X109653966Y-91720723D01*
X109697258Y-91662351D01*
X109746063Y-91608503D01*
X109746139Y-91608427D01*
X109985574Y-91368992D01*
X110468096Y-91368992D01*
X110561311Y-91462207D01*
X110683769Y-91339749D01*
X111063025Y-91719005D01*
X110940567Y-91841463D01*
X111033781Y-91934678D01*
X111392932Y-91575527D01*
X111299718Y-91482312D01*
X111176346Y-91605685D01*
X110797090Y-91226429D01*
X110920462Y-91103056D01*
X110827247Y-91009841D01*
X110468096Y-91368992D01*
X109985574Y-91368992D01*
X110424688Y-90929878D01*
X111030583Y-90929878D01*
X111042120Y-90998303D01*
X111070337Y-91069243D01*
X111116944Y-91142581D01*
X111183656Y-91218204D01*
X111261335Y-91286059D01*
X111337186Y-91332438D01*
X111410752Y-91359168D01*
X111481578Y-91368079D01*
X111549661Y-91360083D01*
X111615002Y-91336093D01*
X111677374Y-91297711D01*
X111736547Y-91246534D01*
X111792294Y-91184391D01*
X111843470Y-91112195D01*
X111291492Y-90560217D01*
X111208331Y-90621447D01*
X111142532Y-90681762D01*
X111093297Y-90739222D01*
X111057086Y-90800108D01*
X111035609Y-90863851D01*
X111030583Y-90929878D01*
X110424688Y-90929878D01*
X111042920Y-90311645D01*
X111690245Y-89664321D01*
X111744093Y-89615516D01*
X111802465Y-89572224D01*
X111864800Y-89534862D01*
X111930496Y-89503790D01*
X111998922Y-89479306D01*
X112069418Y-89461649D01*
X112141306Y-89450985D01*
X112213893Y-89447419D01*
X112286479Y-89450985D01*
G37*
D18*
%TO.C,TP2*%
X117700000Y-88000000D02*
G75*
G02*
X116300000Y-88000000I-700000J0D01*
G01*
X116300000Y-88000000D02*
G75*
G02*
X117700000Y-88000000I700000J0D01*
G01*
%TO.C,TP1*%
X115300000Y-88000000D02*
G75*
G02*
X113900000Y-88000000I-700000J0D01*
G01*
X113900000Y-88000000D02*
G75*
G02*
X115300000Y-88000000I700000J0D01*
G01*
%TD*%
%LPC*%
D19*
%TO.C,BTN1*%
X99458401Y-41815997D03*
X97828401Y-41815997D03*
X96088401Y-41815997D03*
X94458401Y-41815997D03*
D20*
X100458401Y-44065997D03*
X93458401Y-44065997D03*
%TD*%
D21*
%TO.C,J3*%
X96775000Y-73150000D03*
D22*
X98775000Y-74750000D03*
D23*
X98775000Y-77250000D03*
%TD*%
D24*
%TO.C,LED1*%
X103242001Y-43025997D03*
X105782001Y-43025997D03*
X103242001Y-45565997D03*
X105782001Y-45565997D03*
%TD*%
D25*
%TO.C,RV1*%
X109950000Y-67700000D03*
D26*
X107450000Y-62700000D03*
X104950000Y-67700000D03*
%TD*%
D21*
%TO.C,M1*%
X62525000Y-122600000D03*
D27*
X60525000Y-121000000D03*
D23*
X60525000Y-118500000D03*
%TD*%
D28*
%TO.C,J5*%
X116268401Y-44880997D03*
X110488401Y-44880997D03*
D29*
X117698401Y-45380997D03*
D30*
X117698401Y-41200997D03*
D29*
X109058401Y-45380997D03*
D30*
X109058401Y-41200997D03*
%TD*%
D31*
%TO.C,J1*%
X125150000Y-135744999D03*
X36250000Y-135744999D03*
D32*
X120070000Y-133204999D03*
D33*
X117530000Y-133204999D03*
X114990000Y-133204999D03*
X112450000Y-133204999D03*
X109910000Y-133204999D03*
X107370000Y-133204999D03*
X104830000Y-133204999D03*
X102290000Y-133204999D03*
X99750000Y-133204999D03*
X97210000Y-133204999D03*
X94670000Y-133204999D03*
X92130000Y-133204999D03*
X89590000Y-133204999D03*
X87050000Y-133204999D03*
X84510000Y-133204999D03*
X81970000Y-133204999D03*
X79430000Y-133204999D03*
X76890000Y-133204999D03*
X74350000Y-133204999D03*
X71810000Y-133204999D03*
X69270000Y-133204999D03*
X66730000Y-133204999D03*
X64190000Y-133204999D03*
X61650000Y-133204999D03*
X59110000Y-133204999D03*
X56570000Y-133204999D03*
X54030000Y-133204999D03*
X51490000Y-133204999D03*
X48950000Y-133204999D03*
X46410000Y-133204999D03*
X43870000Y-133204999D03*
X41330000Y-133204999D03*
X120070000Y-130664999D03*
X117530000Y-130664999D03*
X114990000Y-130664999D03*
X112450000Y-130664999D03*
X109910000Y-130664999D03*
X107370000Y-130664999D03*
X104830000Y-130664999D03*
X102290000Y-130664999D03*
X99750000Y-130664999D03*
X97210000Y-130664999D03*
X94670000Y-130664999D03*
X92130000Y-130664999D03*
X89590000Y-130664999D03*
X87050000Y-130664999D03*
X84510000Y-130664999D03*
X81970000Y-130664999D03*
X79430000Y-130664999D03*
X76890000Y-130664999D03*
X74350000Y-130664999D03*
X71810000Y-130664999D03*
X69270000Y-130664999D03*
X66730000Y-130664999D03*
X64190000Y-130664999D03*
X61650000Y-130664999D03*
X59110000Y-130664999D03*
X56570000Y-130664999D03*
X54030000Y-130664999D03*
X51490000Y-130664999D03*
X48950000Y-130664999D03*
X46410000Y-130664999D03*
X43870000Y-130664999D03*
X41330000Y-130664999D03*
X120070000Y-128124999D03*
X117530000Y-128124999D03*
X114990000Y-128124999D03*
X112450000Y-128124999D03*
X109910000Y-128124999D03*
X107370000Y-128124999D03*
X104830000Y-128124999D03*
X102290000Y-128124999D03*
X99750000Y-128124999D03*
X97210000Y-128124999D03*
X94670000Y-128124999D03*
X92130000Y-128124999D03*
X89590000Y-128124999D03*
X87050000Y-128124999D03*
X84510000Y-128124999D03*
X81970000Y-128124999D03*
X79430000Y-128124999D03*
X76890000Y-128124999D03*
X74350000Y-128124999D03*
X71810000Y-128124999D03*
X69270000Y-128124999D03*
X66730000Y-128124999D03*
X64190000Y-128124999D03*
X61650000Y-128124999D03*
X59110000Y-128124999D03*
X56570000Y-128124999D03*
X54030000Y-128124999D03*
X51490000Y-128124999D03*
X48950000Y-128124999D03*
X46410000Y-128124999D03*
X43870000Y-128124999D03*
X41330000Y-128124999D03*
%TD*%
D34*
%TO.C,TP3*%
X112200000Y-90200000D03*
%TD*%
%TO.C,TP5*%
X117000000Y-90200000D03*
%TD*%
D35*
%TO.C,J2*%
X88422806Y-122753501D03*
X88402806Y-64733501D03*
X77402806Y-109733501D03*
X77402806Y-77733501D03*
X45402806Y-109733501D03*
X45402806Y-77733501D03*
X39402806Y-122733501D03*
X39402806Y-64733501D03*
D36*
X89672806Y-117833501D03*
X89672806Y-115293501D03*
X89672806Y-112753501D03*
X89672806Y-110213501D03*
X89672806Y-107673501D03*
X89672806Y-105133501D03*
X89672806Y-102593501D03*
X89672806Y-100053501D03*
X89672806Y-97513501D03*
X89672806Y-94973501D03*
X89672806Y-92433501D03*
X89672806Y-89893501D03*
X89703931Y-87304492D03*
X89672806Y-84813501D03*
X89672806Y-82273501D03*
X89672806Y-79733501D03*
X89672806Y-77193501D03*
X89672806Y-74653501D03*
X89672806Y-72113501D03*
X89672806Y-69573501D03*
X87132806Y-69573501D03*
X87132806Y-72113501D03*
X87132806Y-74653501D03*
X87132806Y-77193501D03*
X87132806Y-79733501D03*
X87132806Y-82273501D03*
X87132806Y-84813501D03*
X87163931Y-87304492D03*
X87132806Y-89893501D03*
X87132806Y-92433501D03*
X87132806Y-94973501D03*
X87132806Y-97513501D03*
X87132806Y-100053501D03*
X87132806Y-102593501D03*
X87132806Y-105133501D03*
X87132806Y-107673501D03*
X87132806Y-110213501D03*
X87132806Y-112753501D03*
X87132806Y-115293501D03*
D37*
X87132806Y-117833501D03*
D36*
X87612806Y-60293501D03*
X85072806Y-60293501D03*
X82532806Y-60293501D03*
X79992806Y-60293501D03*
X77452806Y-60293501D03*
X77452806Y-57753501D03*
X79992806Y-57753501D03*
X82532806Y-57753501D03*
X85072806Y-57753501D03*
X87612806Y-57753501D03*
%TD*%
D34*
%TO.C,TP4*%
X114600000Y-90200000D03*
%TD*%
%TO.C,TP2*%
X117000000Y-88000000D03*
%TD*%
%TO.C,TP1*%
X114600000Y-88000000D03*
%TD*%
%LPD*%
M02*
