%TF.GenerationSoftware,KiCad,Pcbnew,8.0.4*%
%TF.CreationDate,2025-02-22T01:37:49+01:00*%
%TF.ProjectId,OrangePie,4f72616e-6765-4506-9965-2e6b69636164,1.0.0*%
%TF.SameCoordinates,Original*%
%TF.FileFunction,Copper,L1,Top*%
%TF.FilePolarity,Positive*%
%FSLAX46Y46*%
G04 Gerber Fmt 4.6, Leading zero omitted, Abs format (unit mm)*
G04 Created by KiCad (PCBNEW 8.0.4) date 2025-02-22 01:37:49*
%MOMM*%
%LPD*%
G01*
G04 APERTURE LIST*
G04 Aperture macros list*
%AMRoundRect*
0 Rectangle with rounded corners*
0 $1 Rounding radius*
0 $2 $3 $4 $5 $6 $7 $8 $9 X,Y pos of 4 corners*
0 Add a 4 corners polygon primitive as box body*
4,1,4,$2,$3,$4,$5,$6,$7,$8,$9,$2,$3,0*
0 Add four circle primitives for the rounded corners*
1,1,$1+$1,$2,$3*
1,1,$1+$1,$4,$5*
1,1,$1+$1,$6,$7*
1,1,$1+$1,$8,$9*
0 Add four rect primitives between the rounded corners*
20,1,$1+$1,$2,$3,$4,$5,0*
20,1,$1+$1,$4,$5,$6,$7,0*
20,1,$1+$1,$6,$7,$8,$9,0*
20,1,$1+$1,$8,$9,$2,$3,0*%
%AMFreePoly0*
4,1,19,0.500000,-0.750000,0.000000,-0.750000,0.000000,-0.744911,-0.071157,-0.744911,-0.207708,-0.704816,-0.327430,-0.627875,-0.420627,-0.520320,-0.479746,-0.390866,-0.500000,-0.250000,-0.500000,0.250000,-0.479746,0.390866,-0.420627,0.520320,-0.327430,0.627875,-0.207708,0.704816,-0.071157,0.744911,0.000000,0.744911,0.000000,0.750000,0.500000,0.750000,0.500000,-0.750000,0.500000,-0.750000,
$1*%
%AMFreePoly1*
4,1,19,0.000000,0.744911,0.071157,0.744911,0.207708,0.704816,0.327430,0.627875,0.420627,0.520320,0.479746,0.390866,0.500000,0.250000,0.500000,-0.250000,0.479746,-0.390866,0.420627,-0.520320,0.327430,-0.627875,0.207708,-0.704816,0.071157,-0.744911,0.000000,-0.744911,0.000000,-0.750000,-0.500000,-0.750000,-0.500000,0.750000,0.000000,0.750000,0.000000,0.744911,0.000000,0.744911,
$1*%
G04 Aperture macros list end*
%TA.AperFunction,SMDPad,CuDef*%
%ADD10RoundRect,0.140000X-0.170000X0.140000X-0.170000X-0.140000X0.170000X-0.140000X0.170000X0.140000X0*%
%TD*%
%TA.AperFunction,SMDPad,CuDef*%
%ADD11RoundRect,0.140000X-0.140000X-0.170000X0.140000X-0.170000X0.140000X0.170000X-0.140000X0.170000X0*%
%TD*%
%TA.AperFunction,SMDPad,CuDef*%
%ADD12RoundRect,0.140000X0.170000X-0.140000X0.170000X0.140000X-0.170000X0.140000X-0.170000X-0.140000X0*%
%TD*%
%TA.AperFunction,SMDPad,CuDef*%
%ADD13RoundRect,0.225000X0.250000X-0.225000X0.250000X0.225000X-0.250000X0.225000X-0.250000X-0.225000X0*%
%TD*%
%TA.AperFunction,SMDPad,CuDef*%
%ADD14RoundRect,0.250000X0.450000X0.350000X-0.450000X0.350000X-0.450000X-0.350000X0.450000X-0.350000X0*%
%TD*%
%TA.AperFunction,SMDPad,CuDef*%
%ADD15RoundRect,0.140000X0.140000X0.170000X-0.140000X0.170000X-0.140000X-0.170000X0.140000X-0.170000X0*%
%TD*%
%TA.AperFunction,SMDPad,CuDef*%
%ADD16RoundRect,0.150000X0.150000X-0.587500X0.150000X0.587500X-0.150000X0.587500X-0.150000X-0.587500X0*%
%TD*%
%TA.AperFunction,SMDPad,CuDef*%
%ADD17RoundRect,0.075000X-0.075000X0.350000X-0.075000X-0.350000X0.075000X-0.350000X0.075000X0.350000X0*%
%TD*%
%TA.AperFunction,HeatsinkPad*%
%ADD18R,2.400000X1.600000*%
%TD*%
%TA.AperFunction,SMDPad,CuDef*%
%ADD19RoundRect,0.150000X0.150000X-0.512500X0.150000X0.512500X-0.150000X0.512500X-0.150000X-0.512500X0*%
%TD*%
%TA.AperFunction,SMDPad,CuDef*%
%ADD20R,1.200000X1.400000*%
%TD*%
%TA.AperFunction,SMDPad,CuDef*%
%ADD21RoundRect,0.220000X0.220000X0.255000X-0.220000X0.255000X-0.220000X-0.255000X0.220000X-0.255000X0*%
%TD*%
%TA.AperFunction,SMDPad,CuDef*%
%ADD22RoundRect,0.225000X-0.225000X-0.250000X0.225000X-0.250000X0.225000X0.250000X-0.225000X0.250000X0*%
%TD*%
%TA.AperFunction,SMDPad,CuDef*%
%ADD23RoundRect,0.060000X-0.890000X-0.180000X0.890000X-0.180000X0.890000X0.180000X-0.890000X0.180000X0*%
%TD*%
%TA.AperFunction,SMDPad,CuDef*%
%ADD24RoundRect,0.150000X-0.590000X-0.150000X0.590000X-0.150000X0.590000X0.150000X-0.590000X0.150000X0*%
%TD*%
%TA.AperFunction,SMDPad,CuDef*%
%ADD25RoundRect,0.150000X0.587500X0.150000X-0.587500X0.150000X-0.587500X-0.150000X0.587500X-0.150000X0*%
%TD*%
%TA.AperFunction,SMDPad,CuDef*%
%ADD26RoundRect,0.135000X0.185000X-0.135000X0.185000X0.135000X-0.185000X0.135000X-0.185000X-0.135000X0*%
%TD*%
%TA.AperFunction,SMDPad,CuDef*%
%ADD27RoundRect,0.150000X-0.150000X0.512500X-0.150000X-0.512500X0.150000X-0.512500X0.150000X0.512500X0*%
%TD*%
%TA.AperFunction,ComponentPad*%
%ADD28C,1.300000*%
%TD*%
%TA.AperFunction,ComponentPad*%
%ADD29C,2.286000*%
%TD*%
%TA.AperFunction,SMDPad,CuDef*%
%ADD30RoundRect,0.250000X0.550000X-1.500000X0.550000X1.500000X-0.550000X1.500000X-0.550000X-1.500000X0*%
%TD*%
%TA.AperFunction,ComponentPad*%
%ADD31RoundRect,0.250000X-0.750000X0.600000X-0.750000X-0.600000X0.750000X-0.600000X0.750000X0.600000X0*%
%TD*%
%TA.AperFunction,ComponentPad*%
%ADD32O,2.000000X1.700000*%
%TD*%
%TA.AperFunction,SMDPad,CuDef*%
%ADD33RoundRect,0.250000X0.475000X-0.250000X0.475000X0.250000X-0.475000X0.250000X-0.475000X-0.250000X0*%
%TD*%
%TA.AperFunction,SMDPad,CuDef*%
%ADD34RoundRect,0.150000X-0.150000X0.825000X-0.150000X-0.825000X0.150000X-0.825000X0.150000X0.825000X0*%
%TD*%
%TA.AperFunction,SMDPad,CuDef*%
%ADD35RoundRect,0.250000X0.550000X-1.050000X0.550000X1.050000X-0.550000X1.050000X-0.550000X-1.050000X0*%
%TD*%
%TA.AperFunction,SMDPad,CuDef*%
%ADD36FreePoly0,180.000000*%
%TD*%
%TA.AperFunction,SMDPad,CuDef*%
%ADD37FreePoly1,180.000000*%
%TD*%
%TA.AperFunction,SMDPad,CuDef*%
%ADD38RoundRect,0.250000X0.250000X0.475000X-0.250000X0.475000X-0.250000X-0.475000X0.250000X-0.475000X0*%
%TD*%
%TA.AperFunction,ComponentPad*%
%ADD39C,1.600000*%
%TD*%
%TA.AperFunction,SMDPad,CuDef*%
%ADD40R,0.550000X0.300000*%
%TD*%
%TA.AperFunction,SMDPad,CuDef*%
%ADD41R,0.300000X0.450000*%
%TD*%
%TA.AperFunction,SMDPad,CuDef*%
%ADD42R,2.350000X0.280000*%
%TD*%
%TA.AperFunction,SMDPad,CuDef*%
%ADD43R,0.300000X0.730000*%
%TD*%
%TA.AperFunction,SMDPad,CuDef*%
%ADD44R,0.725000X0.300000*%
%TD*%
%TA.AperFunction,SMDPad,CuDef*%
%ADD45R,0.300000X0.725000*%
%TD*%
%TA.AperFunction,SMDPad,CuDef*%
%ADD46R,1.575000X1.050000*%
%TD*%
%TA.AperFunction,SMDPad,CuDef*%
%ADD47R,1.150000X1.050000*%
%TD*%
%TA.AperFunction,SMDPad,CuDef*%
%ADD48R,2.175000X1.200000*%
%TD*%
%TA.AperFunction,SMDPad,CuDef*%
%ADD49R,0.650000X0.455000*%
%TD*%
%TA.AperFunction,SMDPad,CuDef*%
%ADD50R,0.580000X0.380000*%
%TD*%
%TA.AperFunction,ComponentPad*%
%ADD51R,1.560000X1.560000*%
%TD*%
%TA.AperFunction,ComponentPad*%
%ADD52C,1.560000*%
%TD*%
%TA.AperFunction,SMDPad,CuDef*%
%ADD53RoundRect,0.075000X0.662500X0.075000X-0.662500X0.075000X-0.662500X-0.075000X0.662500X-0.075000X0*%
%TD*%
%TA.AperFunction,SMDPad,CuDef*%
%ADD54RoundRect,0.075000X0.075000X0.662500X-0.075000X0.662500X-0.075000X-0.662500X0.075000X-0.662500X0*%
%TD*%
%TA.AperFunction,SMDPad,CuDef*%
%ADD55RoundRect,0.250000X0.550000X-0.300000X0.550000X0.300000X-0.550000X0.300000X-0.550000X-0.300000X0*%
%TD*%
%TA.AperFunction,SMDPad,CuDef*%
%ADD56RoundRect,0.150000X-0.587500X-0.150000X0.587500X-0.150000X0.587500X0.150000X-0.587500X0.150000X0*%
%TD*%
%TA.AperFunction,SMDPad,CuDef*%
%ADD57RoundRect,0.135000X0.135000X0.185000X-0.135000X0.185000X-0.135000X-0.185000X0.135000X-0.185000X0*%
%TD*%
%TA.AperFunction,SMDPad,CuDef*%
%ADD58RoundRect,0.250000X0.650000X-0.325000X0.650000X0.325000X-0.650000X0.325000X-0.650000X-0.325000X0*%
%TD*%
%TA.AperFunction,SMDPad,CuDef*%
%ADD59RoundRect,0.250000X1.050000X0.550000X-1.050000X0.550000X-1.050000X-0.550000X1.050000X-0.550000X0*%
%TD*%
%TA.AperFunction,ComponentPad*%
%ADD60RoundRect,0.250000X0.750000X-0.600000X0.750000X0.600000X-0.750000X0.600000X-0.750000X-0.600000X0*%
%TD*%
%TA.AperFunction,SMDPad,CuDef*%
%ADD61R,2.950000X3.500000*%
%TD*%
%TA.AperFunction,SMDPad,CuDef*%
%ADD62RoundRect,0.250000X-0.325000X-0.650000X0.325000X-0.650000X0.325000X0.650000X-0.325000X0.650000X0*%
%TD*%
%TA.AperFunction,SMDPad,CuDef*%
%ADD63RoundRect,0.250000X-0.250000X-0.475000X0.250000X-0.475000X0.250000X0.475000X-0.250000X0.475000X0*%
%TD*%
%TA.AperFunction,SMDPad,CuDef*%
%ADD64RoundRect,0.150000X0.725000X0.150000X-0.725000X0.150000X-0.725000X-0.150000X0.725000X-0.150000X0*%
%TD*%
%TA.AperFunction,SMDPad,CuDef*%
%ADD65RoundRect,0.150000X0.150000X0.425000X-0.150000X0.425000X-0.150000X-0.425000X0.150000X-0.425000X0*%
%TD*%
%TA.AperFunction,SMDPad,CuDef*%
%ADD66RoundRect,0.075000X0.075000X0.500000X-0.075000X0.500000X-0.075000X-0.500000X0.075000X-0.500000X0*%
%TD*%
%TA.AperFunction,ComponentPad*%
%ADD67O,1.000000X2.100000*%
%TD*%
%TA.AperFunction,ComponentPad*%
%ADD68O,1.000000X1.800000*%
%TD*%
%TA.AperFunction,SMDPad,CuDef*%
%ADD69R,1.400000X1.200000*%
%TD*%
%TA.AperFunction,SMDPad,CuDef*%
%ADD70RoundRect,0.250000X-0.475000X0.250000X-0.475000X-0.250000X0.475000X-0.250000X0.475000X0.250000X0*%
%TD*%
%TA.AperFunction,ComponentPad*%
%ADD71RoundRect,0.249999X0.525001X0.525001X-0.525001X0.525001X-0.525001X-0.525001X0.525001X-0.525001X0*%
%TD*%
%TA.AperFunction,ComponentPad*%
%ADD72C,1.550000*%
%TD*%
%TA.AperFunction,SMDPad,CuDef*%
%ADD73RoundRect,0.375000X-0.625000X-0.375000X0.625000X-0.375000X0.625000X0.375000X-0.625000X0.375000X0*%
%TD*%
%TA.AperFunction,SMDPad,CuDef*%
%ADD74RoundRect,0.500000X-0.500000X-1.400000X0.500000X-1.400000X0.500000X1.400000X-0.500000X1.400000X0*%
%TD*%
%TA.AperFunction,SMDPad,CuDef*%
%ADD75RoundRect,0.100000X0.712500X0.100000X-0.712500X0.100000X-0.712500X-0.100000X0.712500X-0.100000X0*%
%TD*%
%TA.AperFunction,WasherPad*%
%ADD76C,4.500000*%
%TD*%
%TA.AperFunction,ComponentPad*%
%ADD77O,1.700000X1.700000*%
%TD*%
%TA.AperFunction,ComponentPad*%
%ADD78R,1.700000X1.700000*%
%TD*%
%TA.AperFunction,ViaPad*%
%ADD79C,0.500000*%
%TD*%
%TA.AperFunction,Conductor*%
%ADD80C,0.180000*%
%TD*%
%TA.AperFunction,Conductor*%
%ADD81C,0.200000*%
%TD*%
%TA.AperFunction,Conductor*%
%ADD82C,0.120000*%
%TD*%
%TA.AperFunction,Conductor*%
%ADD83C,0.500000*%
%TD*%
%TA.AperFunction,Conductor*%
%ADD84C,0.300000*%
%TD*%
G04 APERTURE END LIST*
D10*
%TO.P,R45,1*%
%TO.N,/OrangePi 5 pro Header/USB_SBCF.D-*%
X80800000Y-61900000D03*
%TO.P,R45,2*%
%TO.N,/DIN41612 connector/USB_DEBUG.D-*%
X80800000Y-62900000D03*
%TD*%
%TO.P,R44,1*%
%TO.N,/OrangePi 5 pro Header/USB_SBCF.D+*%
X81800000Y-61900000D03*
%TO.P,R44,2*%
%TO.N,/DIN41612 connector/USB_DEBUG.D+*%
X81800000Y-62900000D03*
%TD*%
D11*
%TO.P,R43,1*%
%TO.N,/Audio Codec/USB_AUDIO.D-*%
X102100000Y-57800000D03*
%TO.P,R43,2*%
%TO.N,/Audio Codec/USB_AUDIOF.D-*%
X103100000Y-57800000D03*
%TD*%
%TO.P,R42,1*%
%TO.N,/Audio Codec/USB_AUDIO.D+*%
X102100000Y-58800000D03*
%TO.P,R42,2*%
%TO.N,/Audio Codec/USB_AUDIOF.D+*%
X103100000Y-58800000D03*
%TD*%
D12*
%TO.P,R15,1*%
%TO.N,/USB-CAN/USB_CANF.D+*%
X99600000Y-66300000D03*
%TO.P,R15,2*%
%TO.N,/USB HUB/USB_CAN.D+*%
X99600000Y-65300000D03*
%TD*%
%TO.P,R14,1*%
%TO.N,/USB-CAN/USB_CANF.D-*%
X100800000Y-66300000D03*
%TO.P,R14,2*%
%TO.N,/USB HUB/USB_CAN.D-*%
X100800000Y-65300000D03*
%TD*%
%TO.P,R32,1*%
%TO.N,/5v buck/V_{IN}*%
X106675000Y-103975000D03*
%TO.P,R32,2*%
%TO.N,/5v buck/5V_EN*%
X106675000Y-102975000D03*
%TD*%
D13*
%TO.P,C12,1*%
%TO.N,/5v buck/5V_OUT*%
X103600000Y-110600000D03*
%TO.P,C12,2*%
%TO.N,GND*%
X103600000Y-109040000D03*
%TD*%
D10*
%TO.P,R26,1*%
%TO.N,GND*%
X69487500Y-116300000D03*
%TO.P,R26,2*%
%TO.N,Net-(Q4-G)*%
X69487500Y-117300000D03*
%TD*%
D12*
%TO.P,R21,1*%
%TO.N,/CH340_DEBUG/RXD*%
X106000000Y-49140000D03*
%TO.P,R21,2*%
%TO.N,/CH340_DEBUG/UART_DEBUG.TX*%
X106000000Y-48140000D03*
%TD*%
D14*
%TO.P,X1,1,OSC*%
%TO.N,Net-(U9-XTI)*%
X122250000Y-58325000D03*
%TO.P,X1,2,GND*%
%TO.N,GND*%
X120050000Y-58325000D03*
%TO.P,X1,3,OSC*%
%TO.N,Net-(U9-XTO)*%
X120050000Y-59925000D03*
%TO.P,X1,4,GND*%
%TO.N,GND*%
X122250000Y-59925000D03*
%TD*%
D12*
%TO.P,R5,1*%
%TO.N,Net-(LED1-Pad4)*%
X107400000Y-45700000D03*
%TO.P,R5,2*%
%TO.N,GND*%
X107400000Y-44700000D03*
%TD*%
D10*
%TO.P,C27,1*%
%TO.N,/DIN41612 connector/5v_STDBY*%
X116469602Y-124602500D03*
%TO.P,C27,2*%
%TO.N,Net-(U5-VCAP)*%
X116469602Y-125562500D03*
%TD*%
%TO.P,R33,1*%
%TO.N,Net-(LED1-Pad2)*%
X107400000Y-42700000D03*
%TO.P,R33,2*%
%TO.N,GND*%
X107400000Y-43700000D03*
%TD*%
D11*
%TO.P,R36,1*%
%TO.N,/5v buck/5V_MODE1*%
X108575000Y-102575000D03*
%TO.P,R36,2*%
%TO.N,GND*%
X109575000Y-102575000D03*
%TD*%
D12*
%TO.P,C25,1*%
%TO.N,/USB-CAN/NRST1*%
X123200000Y-88790000D03*
%TO.P,C25,2*%
%TO.N,GND*%
X123200000Y-87830000D03*
%TD*%
D15*
%TO.P,C16,1*%
%TO.N,/OrangePi 5 pro Header/ON OFF BTN*%
X96500000Y-46000000D03*
%TO.P,C16,2*%
%TO.N,GND*%
X95500000Y-46000000D03*
%TD*%
D11*
%TO.P,R19,1*%
%TO.N,/Audio Codec/VDD_{int}*%
X113200000Y-65800000D03*
%TO.P,R19,2*%
%TO.N,/Audio Codec/USB_AUDIOF.D+*%
X114200000Y-65800000D03*
%TD*%
D10*
%TO.P,C34,1*%
%TO.N,/Audio Codec/VDD_{int}*%
X126350000Y-63832200D03*
%TO.P,C34,2*%
%TO.N,GND*%
X126350000Y-64832200D03*
%TD*%
%TO.P,R22,1*%
%TO.N,Net-(U9-DT)*%
X115777641Y-63016489D03*
%TO.P,R22,2*%
%TO.N,/Audio Codec/VDD_{int}*%
X115777641Y-64016489D03*
%TD*%
D16*
%TO.P,Q1,1,G*%
%TO.N,Net-(Q1-G)*%
X113286128Y-125700000D03*
%TO.P,Q1,2,S*%
%TO.N,/DIN41612 connector/5v_STDBY*%
X115186128Y-125700000D03*
%TO.P,Q1,3,D*%
%TO.N,+5V*%
X114236128Y-123825000D03*
%TD*%
D17*
%TO.P,U7,1,TXD*%
%TO.N,/Can Transiver1/CAN_TR.TXD*%
X102100000Y-123100000D03*
%TO.P,U7,2,GND*%
%TO.N,GND*%
X101450000Y-123100000D03*
%TO.P,U7,3,VCC*%
%TO.N,+5V*%
X100800000Y-123100000D03*
%TO.P,U7,4,RXD*%
%TO.N,/Can Transiver1/CAN_TR.RXD*%
X100150000Y-123100000D03*
%TO.P,U7,5,VIO*%
%TO.N,+3V3*%
X100150000Y-126000000D03*
%TO.P,U7,6,CANL*%
%TO.N,/Can Transiver1/CAN_TR_OUT.C-*%
X100800000Y-126000000D03*
%TO.P,U7,7,CANH*%
%TO.N,/Can Transiver1/CAN_TR_OUT.C+*%
X101450000Y-126000000D03*
%TO.P,U7,8,STB*%
%TO.N,Net-(U7-STB)*%
X102100000Y-126000000D03*
D18*
%TO.P,U7,9,EP*%
%TO.N,GND*%
X101125000Y-124550000D03*
%TD*%
D10*
%TO.P,C18,1*%
%TO.N,+3V3*%
X113250000Y-83262500D03*
%TO.P,C18,2*%
%TO.N,GND*%
X113250000Y-84262500D03*
%TD*%
D11*
%TO.P,R30,1*%
%TO.N,Net-(J5-D+-PadA6)*%
X111200000Y-47600000D03*
%TO.P,R30,2*%
%TO.N,/CH340_DEBUG/FRONT_PANEL.D+*%
X112200000Y-47600000D03*
%TD*%
D19*
%TO.P,U5,1,VCAP*%
%TO.N,Net-(U5-VCAP)*%
X117736128Y-125657500D03*
%TO.P,U5,2,GND*%
%TO.N,GND*%
X118686128Y-125657500D03*
%TO.P,U5,3,EN*%
%TO.N,Net-(Q5-C)*%
X119636128Y-125657500D03*
%TO.P,U5,4,CATHODE*%
%TO.N,+5V*%
X119636128Y-123382500D03*
%TO.P,U5,5,GATE*%
%TO.N,Net-(Q1-G)*%
X118686128Y-123382500D03*
%TO.P,U5,6,ANODE*%
%TO.N,/DIN41612 connector/5v_STDBY*%
X117736128Y-123382500D03*
%TD*%
D12*
%TO.P,R12,1*%
%TO.N,/5v buck/BUCK_OUT*%
X93800000Y-105600000D03*
%TO.P,R12,2*%
%TO.N,Net-(U4-EN)*%
X93800000Y-104600000D03*
%TD*%
D10*
%TO.P,R13,1*%
%TO.N,/DIN41612 connector/5v_STDBY*%
X120936128Y-125000000D03*
%TO.P,R13,2*%
%TO.N,Net-(Q5-C)*%
X120936128Y-126000000D03*
%TD*%
D12*
%TO.P,R40,1*%
%TO.N,/5v buck/Pgood*%
X85200000Y-73000000D03*
%TO.P,R40,2*%
%TO.N,Net-(J2-GPIO4_A6{slash}UART3_RX{slash}I2C5_SCL)*%
X85200000Y-72000000D03*
%TD*%
D20*
%TO.P,Y2,1,1*%
%TO.N,Net-(U11-XO)*%
X94770000Y-50690000D03*
%TO.P,Y2,2,2*%
%TO.N,GND*%
X94770000Y-52890000D03*
%TO.P,Y2,3,3*%
%TO.N,Net-(U11-XI)*%
X96470000Y-52890000D03*
%TO.P,Y2,4,4*%
%TO.N,GND*%
X96470000Y-50690000D03*
%TD*%
D11*
%TO.P,R27,1*%
%TO.N,Net-(J5-CC2)*%
X119300000Y-42800000D03*
%TO.P,R27,2*%
%TO.N,GND*%
X120300000Y-42800000D03*
%TD*%
D12*
%TO.P,C59,1*%
%TO.N,+5V*%
X115650000Y-115100000D03*
%TO.P,C59,2*%
%TO.N,GND*%
X115650000Y-114100000D03*
%TD*%
D21*
%TO.P,D3,1*%
%TO.N,Net-(D3-Pad1)*%
X112800000Y-96800000D03*
%TO.P,D3,2*%
%TO.N,+3V3*%
X111220000Y-96800000D03*
%TD*%
D15*
%TO.P,C36,1*%
%TO.N,+5V*%
X109400000Y-76800000D03*
%TO.P,C36,2*%
%TO.N,GND*%
X108400000Y-76800000D03*
%TD*%
D22*
%TO.P,C62,1*%
%TO.N,/5v buck/5V_OUT*%
X99420000Y-105825000D03*
%TO.P,C62,2*%
%TO.N,GND*%
X100980000Y-105825000D03*
%TD*%
D15*
%TO.P,R4,1*%
%TO.N,/5v buck/5V_VDD*%
X109575000Y-103475000D03*
%TO.P,R4,2*%
%TO.N,/5v buck/5V_MODE1*%
X108575000Y-103475000D03*
%TD*%
D23*
%TO.P,U9,1,XTO*%
%TO.N,Net-(U9-XTO)*%
X117600000Y-61900000D03*
%TO.P,U9,2,CK*%
%TO.N,unconnected-(U9-CK-Pad2)*%
X117600000Y-62550000D03*
%TO.P,U9,3,DT*%
%TO.N,Net-(U9-DT)*%
X117600000Y-63200000D03*
%TO.P,U9,4,PSEL*%
%TO.N,/Audio Codec/VDD_{int}*%
X117600000Y-63850000D03*
%TO.P,U9,5,DOUT*%
%TO.N,unconnected-(U9-DOUT-Pad5)*%
X117600000Y-64500000D03*
%TO.P,U9,6,DGND*%
%TO.N,GND*%
X117600000Y-65150000D03*
%TO.P,U9,7,VDD*%
%TO.N,/Audio Codec/VDD_{int}*%
X117600000Y-65800000D03*
%TO.P,U9,8,D-*%
%TO.N,/Audio Codec/USB_AUDIOF.D-*%
X117600000Y-66450000D03*
%TO.P,U9,9,D+*%
%TO.N,/Audio Codec/USB_AUDIOF.D+*%
X117600000Y-67100000D03*
%TO.P,U9,10,VBUS*%
%TO.N,+5V*%
X117600000Y-67750000D03*
%TO.P,U9,11,ZGND*%
%TO.N,GND*%
X117600000Y-68400000D03*
%TO.P,U9,12,AGNDL*%
X117600000Y-69050000D03*
%TO.P,U9,13,VCCL*%
%TO.N,/Audio Codec/VCCL*%
X117600000Y-69700000D03*
%TO.P,U9,14,VOUTL*%
%TO.N,Net-(U9-VOUTL)*%
X117600000Y-70350000D03*
%TO.P,U9,15,VOUTR*%
%TO.N,Net-(U9-VOUTR)*%
X124610000Y-70350000D03*
%TO.P,U9,16,VCCR*%
%TO.N,/Audio Codec/VCCR*%
X124610000Y-69700000D03*
%TO.P,U9,17,AGNDR*%
%TO.N,GND*%
X124610000Y-69050000D03*
%TO.P,U9,18,VCOM*%
%TO.N,Net-(U9-VCOM)*%
X124610000Y-68400000D03*
%TO.P,U9,19,PGND*%
%TO.N,GND*%
X124610000Y-67750000D03*
%TO.P,U9,20,VCCP*%
%TO.N,/Audio Codec/VCCP*%
X124610000Y-67100000D03*
%TO.P,U9,21,HOST*%
%TO.N,/Audio Codec/VDD_{int}*%
X124610000Y-66450000D03*
%TO.P,U9,22,HID0/MS*%
%TO.N,unconnected-(U9-HID0{slash}MS-Pad22)*%
X124610000Y-65800000D03*
%TO.P,U9,23,HID1/MC*%
%TO.N,unconnected-(U9-HID1{slash}MC-Pad23)*%
X124610000Y-65150000D03*
%TO.P,U9,24,HID2/MD*%
%TO.N,unconnected-(U9-HID2{slash}MD-Pad24)*%
X124610000Y-64500000D03*
%TO.P,U9,25,TEST1*%
%TO.N,/Audio Codec/VDD_{int}*%
X124610000Y-63850000D03*
%TO.P,U9,26,TEST0*%
X124610000Y-63200000D03*
%TO.P,U9,27,~{SSPND}*%
%TO.N,unconnected-(U9-~{SSPND}-Pad27)*%
X124610000Y-62550000D03*
%TO.P,U9,28,XTI*%
%TO.N,Net-(U9-XTI)*%
X124610000Y-61900000D03*
%TD*%
D10*
%TO.P,R1,1*%
%TO.N,/5v buck/5V_EN*%
X107575000Y-102975000D03*
%TO.P,R1,2*%
%TO.N,GND*%
X107575000Y-103975000D03*
%TD*%
D15*
%TO.P,C7,1*%
%TO.N,/5v buck/5V_BOOT*%
X107900000Y-105075000D03*
%TO.P,C7,2*%
%TO.N,/5v buck/5V_PHASE*%
X106900000Y-105075000D03*
%TD*%
D11*
%TO.P,R39,1*%
%TO.N,+3V3*%
X95500000Y-45000000D03*
%TO.P,R39,2*%
%TO.N,/OrangePi 5 pro Header/ON OFF BTN*%
X96500000Y-45000000D03*
%TD*%
D24*
%TO.P,Q5,1,B*%
%TO.N,/5v buck/Pgood*%
X113600000Y-107100000D03*
%TO.P,Q5,2,E*%
%TO.N,GND*%
X113600000Y-109000000D03*
%TO.P,Q5,3,C*%
%TO.N,Net-(Q5-C)*%
X115480000Y-108050000D03*
%TD*%
D25*
%TO.P,Q4,1,G*%
%TO.N,Net-(Q4-G)*%
X67737500Y-118200000D03*
%TO.P,Q4,2,S*%
%TO.N,GND*%
X67737500Y-116300000D03*
%TO.P,Q4,3,D*%
%TO.N,Net-(M1--)*%
X65862500Y-117250000D03*
%TD*%
D10*
%TO.P,R6,1*%
%TO.N,/5v buck/5V_OUT*%
X112000000Y-106875000D03*
%TO.P,R6,2*%
%TO.N,/5v buck/Pgood*%
X112000000Y-107875000D03*
%TD*%
D11*
%TO.P,R16,1*%
%TO.N,Net-(U9-VOUTL)*%
X117600000Y-72160000D03*
%TO.P,R16,2*%
%TO.N,Net-(C2-Pad1)*%
X118600000Y-72160000D03*
%TD*%
D15*
%TO.P,C28,1*%
%TO.N,GND*%
X101625000Y-121828183D03*
%TO.P,C28,2*%
%TO.N,+5V*%
X100625000Y-121828183D03*
%TD*%
D26*
%TO.P,R9,1*%
%TO.N,+3V3*%
X123200000Y-90810000D03*
%TO.P,R9,2*%
%TO.N,/USB-CAN/NRST1*%
X123200000Y-89790000D03*
%TD*%
D27*
%TO.P,U4,1,VCAP*%
%TO.N,Net-(U4-VCAP)*%
X96925000Y-104425000D03*
%TO.P,U4,2,GND*%
%TO.N,GND*%
X95975000Y-104425000D03*
%TO.P,U4,3,EN*%
%TO.N,Net-(U4-EN)*%
X95025000Y-104425000D03*
%TO.P,U4,4,CATHODE*%
%TO.N,+5V*%
X95025000Y-106700000D03*
%TO.P,U4,5,GATE*%
%TO.N,Net-(Q2-G)*%
X95975000Y-106700000D03*
%TO.P,U4,6,ANODE*%
%TO.N,/5v buck/BUCK_OUT*%
X96925000Y-106700000D03*
%TD*%
D28*
%TO.P,BTN1,1*%
%TO.N,GND*%
X99458401Y-41815997D03*
%TO.P,BTN1,2*%
X97828401Y-41815997D03*
%TO.P,BTN1,3*%
%TO.N,Net-(BTN1-Pad3)*%
X96088401Y-41815997D03*
%TO.P,BTN1,4*%
%TO.N,Net-(BTN1-Pad4)*%
X94458401Y-41815997D03*
D29*
%TO.P,BTN1,5*%
%TO.N,N/C*%
X100458401Y-44065997D03*
%TO.P,BTN1,6*%
X93458401Y-44065997D03*
%TD*%
D12*
%TO.P,R18,1*%
%TO.N,GND*%
X119200000Y-74660000D03*
%TO.P,R18,2*%
%TO.N,Net-(C2-Pad1)*%
X119200000Y-73660000D03*
%TD*%
%TO.P,C22,1*%
%TO.N,+3V3*%
X111250000Y-92050000D03*
%TO.P,C22,2*%
%TO.N,GND*%
X111250000Y-91050000D03*
%TD*%
D30*
%TO.P,C50,1*%
%TO.N,Net-(M1-+)*%
X51650000Y-122600000D03*
%TO.P,C50,2*%
%TO.N,GND*%
X51650000Y-117000000D03*
%TD*%
D13*
%TO.P,C13,1*%
%TO.N,/5v buck/5V_OUT*%
X102300000Y-110600000D03*
%TO.P,C13,2*%
%TO.N,GND*%
X102300000Y-109040000D03*
%TD*%
D15*
%TO.P,C19,1*%
%TO.N,+3V3*%
X115750000Y-82762500D03*
%TO.P,C19,2*%
%TO.N,GND*%
X114750000Y-82762500D03*
%TD*%
%TO.P,C52,1*%
%TO.N,Net-(U11-V3)*%
X104700000Y-49040000D03*
%TO.P,C52,2*%
%TO.N,GND*%
X103700000Y-49040000D03*
%TD*%
D12*
%TO.P,C14,1*%
%TO.N,/5v buck/5V_VDD*%
X110575000Y-103475000D03*
%TO.P,C14,2*%
%TO.N,GND*%
X110575000Y-102475000D03*
%TD*%
D31*
%TO.P,J3,1,Pin_1*%
%TO.N,Net-(J3-Pin_1)*%
X100000000Y-74600000D03*
D32*
%TO.P,J3,2,Pin_2*%
%TO.N,Net-(J3-Pin_2)*%
X100000000Y-77100000D03*
%TD*%
D10*
%TO.P,R3,1*%
%TO.N,/5v buck/5V_OUT*%
X111675000Y-104875000D03*
%TO.P,R3,2*%
%TO.N,/5v buck/5V_FB*%
X111675000Y-105875000D03*
%TD*%
D11*
%TO.P,R24,1*%
%TO.N,Net-(M1-+)*%
X66225000Y-122950000D03*
%TO.P,R24,2*%
%TO.N,+5V*%
X67225000Y-122950000D03*
%TD*%
D15*
%TO.P,C30,1*%
%TO.N,GND*%
X109100000Y-121880900D03*
%TO.P,C30,2*%
%TO.N,+5V*%
X108100000Y-121880900D03*
%TD*%
D12*
%TO.P,R41,1*%
%TO.N,Net-(J2-GPIO4_A6{slash}UART3_RX{slash}I2C5_SCL)*%
X85200000Y-71000000D03*
%TO.P,R41,2*%
%TO.N,GND*%
X85200000Y-70000000D03*
%TD*%
%TO.P,C44,1*%
%TO.N,Net-(U9-XTO)*%
X118800000Y-60200000D03*
%TO.P,C44,2*%
%TO.N,GND*%
X118800000Y-59200000D03*
%TD*%
%TO.P,C29,1*%
%TO.N,+3V3*%
X98800000Y-126300000D03*
%TO.P,C29,2*%
%TO.N,GND*%
X98800000Y-125300000D03*
%TD*%
D10*
%TO.P,C35,1*%
%TO.N,/Audio Codec/VCCL*%
X115600000Y-69660000D03*
%TO.P,C35,2*%
%TO.N,GND*%
X115600000Y-70660000D03*
%TD*%
D33*
%TO.P,C33,1*%
%TO.N,GND*%
X114000000Y-69950000D03*
%TO.P,C33,2*%
%TO.N,+5V*%
X114000000Y-68050000D03*
%TD*%
D12*
%TO.P,R35,1*%
%TO.N,Net-(U7-STB)*%
X103400000Y-126200000D03*
%TO.P,R35,2*%
%TO.N,GND*%
X103400000Y-125200000D03*
%TD*%
D11*
%TO.P,R23,1*%
%TO.N,Net-(M1-+)*%
X66225000Y-124100000D03*
%TO.P,R23,2*%
%TO.N,/5v buck/V_{IN}*%
X67225000Y-124100000D03*
%TD*%
D25*
%TO.P,Q2,1,G*%
%TO.N,Net-(Q2-G)*%
X97312500Y-113450000D03*
%TO.P,Q2,2,S*%
%TO.N,/5v buck/BUCK_OUT*%
X97312500Y-111550000D03*
%TO.P,Q2,3,D*%
%TO.N,+5V*%
X95437500Y-112500000D03*
%TD*%
D34*
%TO.P,U11,1,GND*%
%TO.N,GND*%
X108420000Y-50890000D03*
%TO.P,U11,2,TXD*%
%TO.N,/CH340_DEBUG/TXD*%
X107150000Y-50890000D03*
%TO.P,U11,3,RXD*%
%TO.N,/CH340_DEBUG/RXD*%
X105880000Y-50890000D03*
%TO.P,U11,4,V3*%
%TO.N,Net-(U11-V3)*%
X104610000Y-50890000D03*
%TO.P,U11,5,UD+*%
%TO.N,/CH340_DEBUG/FRONT_PANEL.D+*%
X103340000Y-50890000D03*
%TO.P,U11,6,UD-*%
%TO.N,/CH340_DEBUG/FRONT_PANEL.D-*%
X102070000Y-50890000D03*
%TO.P,U11,7,XI*%
%TO.N,Net-(U11-XI)*%
X100800000Y-50890000D03*
%TO.P,U11,8,XO*%
%TO.N,Net-(U11-XO)*%
X99530000Y-50890000D03*
%TO.P,U11,9,~{CTS}*%
%TO.N,unconnected-(U11-~{CTS}-Pad9)*%
X99530000Y-55840000D03*
%TO.P,U11,10,~{DSR}*%
%TO.N,unconnected-(U11-~{DSR}-Pad10)*%
X100800000Y-55840000D03*
%TO.P,U11,11,~{RI}*%
%TO.N,unconnected-(U11-~{RI}-Pad11)*%
X102070000Y-55840000D03*
%TO.P,U11,12,~{DCD}*%
%TO.N,unconnected-(U11-~{DCD}-Pad12)*%
X103340000Y-55840000D03*
%TO.P,U11,13,~{DTR}*%
%TO.N,unconnected-(U11-~{DTR}-Pad13)*%
X104610000Y-55840000D03*
%TO.P,U11,14,~{RTS}*%
%TO.N,unconnected-(U11-~{RTS}-Pad14)*%
X105880000Y-55840000D03*
%TO.P,U11,15,R232*%
%TO.N,unconnected-(U11-R232-Pad15)*%
X107150000Y-55840000D03*
%TO.P,U11,16,VCC*%
%TO.N,+3V3*%
X108420000Y-55840000D03*
%TD*%
D11*
%TO.P,C20,1*%
%TO.N,+3V3*%
X116750000Y-82762500D03*
%TO.P,C20,2*%
%TO.N,GND*%
X117750000Y-82762500D03*
%TD*%
D15*
%TO.P,R29,1*%
%TO.N,Net-(J5-D--PadA7)*%
X114800000Y-47600000D03*
%TO.P,R29,2*%
%TO.N,/CH340_DEBUG/FRONT_PANEL.D-*%
X113800000Y-47600000D03*
%TD*%
D35*
%TO.P,C1,1*%
%TO.N,+5V*%
X112600000Y-116200000D03*
%TO.P,C1,2*%
%TO.N,GND*%
X112600000Y-112600000D03*
%TD*%
D36*
%TO.P,JP1,1,A*%
%TO.N,/5v buck/5V_OUT*%
X99275000Y-109194800D03*
D37*
%TO.P,JP1,2,B*%
%TO.N,/5v buck/BUCK_OUT*%
X97975000Y-109194800D03*
%TD*%
D38*
%TO.P,C57,1*%
%TO.N,/5v buck/V_{IN}*%
X104350000Y-104600000D03*
%TO.P,C57,2*%
%TO.N,GND*%
X102450000Y-104600000D03*
%TD*%
D39*
%TO.P,LED1,1*%
%TO.N,/OrangePi 5 pro Header/STATUS LED*%
X103242001Y-43025997D03*
%TO.P,LED1,2*%
%TO.N,Net-(LED1-Pad2)*%
X105782001Y-43025997D03*
%TO.P,LED1,3*%
%TO.N,+3V3*%
X103242001Y-45565997D03*
%TO.P,LED1,4*%
%TO.N,Net-(LED1-Pad4)*%
X105782001Y-45565997D03*
%TD*%
D40*
%TO.P,U2,1,V_{IN}*%
%TO.N,/5v buck/V_{IN}*%
X106425000Y-107400000D03*
%TO.P,U2,2,V_{IN}*%
X106425000Y-107850000D03*
%TO.P,U2,3,P_{GND}*%
%TO.N,GND*%
X106425000Y-108750000D03*
%TO.P,U2,4,P_{GND}*%
X106425000Y-109200000D03*
D41*
%TO.P,U2,5,SW*%
%TO.N,/5v buck/5V_SW*%
X106975000Y-110300000D03*
%TO.P,U2,6,SW*%
X107425000Y-110300000D03*
%TO.P,U2,7,SW*%
X107875000Y-110300000D03*
%TO.P,U2,8,SW*%
X108575000Y-110300000D03*
%TO.P,U2,9,SW*%
X109025000Y-110300000D03*
D42*
%TO.P,U2,9.1,SW*%
X108000000Y-109935000D03*
D43*
%TO.P,U2,10,GL*%
%TO.N,unconnected-(U2-GL-Pad10)_1*%
X109475000Y-110160000D03*
D44*
%TO.P,U2,11,GL*%
%TO.N,unconnected-(U2-GL-Pad10)_2*%
X110387500Y-109650000D03*
%TO.P,U2,12,V_{DRV}*%
%TO.N,/5v buck/5V_VDRV*%
X110387500Y-109200000D03*
%TO.P,U2,13,P_{GND}*%
%TO.N,GND*%
X110387500Y-108750000D03*
%TO.P,U2,14,P_{GOOD}*%
%TO.N,/5v buck/Pgood*%
X110387500Y-108300000D03*
%TO.P,U2,15,V_{DD}*%
%TO.N,/5v buck/5V_VDD*%
X110387500Y-107850000D03*
%TO.P,U2,16,A_{GND}*%
%TO.N,GND*%
X110387500Y-107400000D03*
%TO.P,U2,17,FB*%
%TO.N,/5v buck/5V_FB*%
X110387500Y-106950000D03*
D45*
%TO.P,U2,18,V_{OUT}*%
%TO.N,/5v buck/5V_OUT*%
X109925000Y-106287500D03*
%TO.P,U2,19,EN*%
%TO.N,/5v buck/5V_EN*%
X109475000Y-106287500D03*
%TO.P,U2,20,MODE2*%
%TO.N,/5v buck/5V_MODE2*%
X109025000Y-106287500D03*
%TO.P,U2,21,MODE1*%
%TO.N,/5v buck/5V_MODE1*%
X108575000Y-106287500D03*
%TO.P,U2,22,V_{IN}*%
%TO.N,/5v buck/V_{IN}*%
X107875000Y-106287500D03*
%TO.P,U2,23,BOOT*%
%TO.N,/5v buck/5V_BOOT*%
X107425000Y-106287500D03*
%TO.P,U2,24,PHASE*%
%TO.N,/5v buck/5V_PHASE*%
X106975000Y-106287500D03*
D46*
%TO.P,U2,25,A_{GND}*%
%TO.N,GND*%
X108937500Y-107475000D03*
D47*
%TO.P,U2,26,V_{IN}*%
%TO.N,/5v buck/V_{IN}*%
X107275000Y-107475000D03*
D48*
%TO.P,U2,27_1,GND*%
%TO.N,GND*%
X107787500Y-108900000D03*
D49*
%TO.P,U2,27_2,GND*%
X109200000Y-108527500D03*
D50*
%TO.P,U2,28,GL*%
%TO.N,unconnected-(U2-GL-Pad10)*%
X109435000Y-109215000D03*
%TD*%
D25*
%TO.P,U14,1,1*%
%TO.N,/DIN41612 connector/USB_DEBUG.D+*%
X44675000Y-125800000D03*
%TO.P,U14,2,2*%
%TO.N,/DIN41612 connector/USB_DEBUG.D-*%
X44675000Y-123900000D03*
%TO.P,U14,3,3*%
%TO.N,GND*%
X42800000Y-124850000D03*
%TD*%
D10*
%TO.P,C53,1*%
%TO.N,Net-(U11-XI)*%
X98070000Y-52410000D03*
%TO.P,C53,2*%
%TO.N,GND*%
X98070000Y-53370000D03*
%TD*%
D11*
%TO.P,C23,1*%
%TO.N,+3V3*%
X121500000Y-93400000D03*
%TO.P,C23,2*%
%TO.N,GND*%
X122500000Y-93400000D03*
%TD*%
D17*
%TO.P,U6,1,TXD*%
%TO.N,/Can Transiver/CAN_TR.TXD*%
X109575000Y-123143400D03*
%TO.P,U6,2,GND*%
%TO.N,GND*%
X108925000Y-123143400D03*
%TO.P,U6,3,VCC*%
%TO.N,+5V*%
X108275000Y-123143400D03*
%TO.P,U6,4,RXD*%
%TO.N,/Can Transiver/CAN_TR.RXD*%
X107625000Y-123143400D03*
%TO.P,U6,5,VIO*%
%TO.N,+3V3*%
X107625000Y-126043400D03*
%TO.P,U6,6,CANL*%
%TO.N,/Can Transiver/CAN_TR_OUT.C-*%
X108275000Y-126043400D03*
%TO.P,U6,7,CANH*%
%TO.N,/Can Transiver/CAN_TR_OUT.C+*%
X108925000Y-126043400D03*
%TO.P,U6,8,STB*%
%TO.N,Net-(U6-STB)*%
X109575000Y-126043400D03*
D18*
%TO.P,U6,9,EP*%
%TO.N,GND*%
X108600000Y-124593400D03*
%TD*%
D12*
%TO.P,C31,1*%
%TO.N,+3V3*%
X106343270Y-126300000D03*
%TO.P,C31,2*%
%TO.N,GND*%
X106343270Y-125300000D03*
%TD*%
D38*
%TO.P,C10,1*%
%TO.N,/5v buck/V_{IN}*%
X104350000Y-106725000D03*
%TO.P,C10,2*%
%TO.N,GND*%
X102450000Y-106725000D03*
%TD*%
D11*
%TO.P,C24,1*%
%TO.N,+3V3*%
X121500000Y-92400000D03*
%TO.P,C24,2*%
%TO.N,GND*%
X122500000Y-92400000D03*
%TD*%
D12*
%TO.P,C38,1*%
%TO.N,/Audio Codec/VCCR*%
X126350000Y-70100000D03*
%TO.P,C38,2*%
%TO.N,GND*%
X126350000Y-69100000D03*
%TD*%
D15*
%TO.P,C60,1*%
%TO.N,/OrangePi 5 pro Header/USER BUTTON*%
X98500000Y-46000000D03*
%TO.P,C60,2*%
%TO.N,GND*%
X97500000Y-46000000D03*
%TD*%
D11*
%TO.P,R7,1*%
%TO.N,/5v buck/5V_MODE2*%
X109400000Y-104475000D03*
%TO.P,R7,2*%
%TO.N,GND*%
X110400000Y-104475000D03*
%TD*%
D21*
%TO.P,D1,1*%
%TO.N,Net-(D1-Pad1)*%
X112800000Y-95000000D03*
%TO.P,D1,2*%
%TO.N,+3V3*%
X111220000Y-95000000D03*
%TD*%
D12*
%TO.P,C15,1*%
%TO.N,/5v buck/5V_VDRV*%
X112000000Y-109772000D03*
%TO.P,C15,2*%
%TO.N,GND*%
X112000000Y-108772000D03*
%TD*%
D15*
%TO.P,C17,1*%
%TO.N,+3V3*%
X120100000Y-109400000D03*
%TO.P,C17,2*%
%TO.N,GND*%
X119100000Y-109400000D03*
%TD*%
%TO.P,C43,1*%
%TO.N,Net-(U9-XTI)*%
X124495000Y-60125000D03*
%TO.P,C43,2*%
%TO.N,GND*%
X123495000Y-60125000D03*
%TD*%
D22*
%TO.P,C61,1*%
%TO.N,/5v buck/5V_OUT*%
X99420000Y-104525000D03*
%TO.P,C61,2*%
%TO.N,GND*%
X100980000Y-104525000D03*
%TD*%
D10*
%TO.P,C42,1*%
%TO.N,Net-(U8-V)*%
X111925000Y-71360000D03*
%TO.P,C42,2*%
%TO.N,GND*%
X111925000Y-72360000D03*
%TD*%
D51*
%TO.P,RV1,1,1*%
%TO.N,Net-(U8-V)*%
X110800000Y-67040000D03*
D52*
%TO.P,RV1,2,2*%
X108300000Y-62040000D03*
%TO.P,RV1,3,3*%
%TO.N,GND*%
X105800000Y-67040000D03*
%TD*%
D15*
%TO.P,R25,1*%
%TO.N,/FAN controller/FAN_PWM*%
X70487500Y-118400000D03*
%TO.P,R25,2*%
%TO.N,Net-(Q4-G)*%
X69487500Y-118400000D03*
%TD*%
D53*
%TO.P,U3,1,VBAT*%
%TO.N,+3V3*%
X121162500Y-91350000D03*
%TO.P,U3,2,PC13*%
%TO.N,unconnected-(U3-PC13-Pad2)*%
X121162500Y-90850000D03*
%TO.P,U3,3,PC14*%
%TO.N,unconnected-(U3-PC14-Pad3)*%
X121162500Y-90350000D03*
%TO.P,U3,4,PC15*%
%TO.N,unconnected-(U3-PC15-Pad4)*%
X121162500Y-89850000D03*
%TO.P,U3,5,PF0*%
%TO.N,unconnected-(U3-PF0-Pad5)*%
X121162500Y-89350000D03*
%TO.P,U3,6,PF1*%
%TO.N,unconnected-(U3-PF1-Pad6)*%
X121162500Y-88850000D03*
%TO.P,U3,7,PG10*%
%TO.N,/USB-CAN/NRST1*%
X121162500Y-88350000D03*
%TO.P,U3,8,PA0*%
%TO.N,/USB-CAN/WORD_LED*%
X121162500Y-87850000D03*
%TO.P,U3,9,PA1*%
%TO.N,unconnected-(U3-PA1-Pad9)*%
X121162500Y-87350000D03*
%TO.P,U3,10,PA2*%
%TO.N,unconnected-(U3-PA2-Pad10)*%
X121162500Y-86850000D03*
%TO.P,U3,11,PA3*%
%TO.N,unconnected-(U3-PA3-Pad11)*%
X121162500Y-86350000D03*
%TO.P,U3,12,PA4*%
%TO.N,unconnected-(U3-PA4-Pad12)*%
X121162500Y-85850000D03*
D54*
%TO.P,U3,13,PA5*%
%TO.N,unconnected-(U3-PA5-Pad13)*%
X119750000Y-84437500D03*
%TO.P,U3,14,PA6*%
%TO.N,unconnected-(U3-PA6-Pad14)*%
X119250000Y-84437500D03*
%TO.P,U3,15,PA7*%
%TO.N,unconnected-(U3-PA7-Pad15)*%
X118750000Y-84437500D03*
%TO.P,U3,16,PB0*%
%TO.N,unconnected-(U3-PB0-Pad16)*%
X118250000Y-84437500D03*
%TO.P,U3,17,PB1*%
%TO.N,unconnected-(U3-PB1-Pad17)*%
X117750000Y-84437500D03*
%TO.P,U3,18,PB2*%
%TO.N,unconnected-(U3-PB2-Pad18)*%
X117250000Y-84437500D03*
%TO.P,U3,19,VSSA*%
%TO.N,GND*%
X116750000Y-84437500D03*
%TO.P,U3,20,VREF+*%
%TO.N,+3V3*%
X116250000Y-84437500D03*
%TO.P,U3,21,VDDA*%
X115750000Y-84437500D03*
%TO.P,U3,22,PB10*%
%TO.N,unconnected-(U3-PB10-Pad22)*%
X115250000Y-84437500D03*
%TO.P,U3,23,VSS*%
%TO.N,GND*%
X114750000Y-84437500D03*
%TO.P,U3,24,VDD*%
%TO.N,+3V3*%
X114250000Y-84437500D03*
D53*
%TO.P,U3,25,PB11*%
%TO.N,unconnected-(U3-PB11-Pad25)*%
X112837500Y-85850000D03*
%TO.P,U3,26,PB12*%
%TO.N,unconnected-(U3-PB12-Pad26)*%
X112837500Y-86350000D03*
%TO.P,U3,27,PB13*%
%TO.N,unconnected-(U3-PB13-Pad27)*%
X112837500Y-86850000D03*
%TO.P,U3,28,PB14*%
%TO.N,unconnected-(U3-PB14-Pad28)*%
X112837500Y-87350000D03*
%TO.P,U3,29,PB15*%
%TO.N,unconnected-(U3-PB15-Pad29)*%
X112837500Y-87850000D03*
%TO.P,U3,30,PA8*%
%TO.N,unconnected-(U3-PA8-Pad30)*%
X112837500Y-88350000D03*
%TO.P,U3,31,PA9*%
%TO.N,unconnected-(U3-PA9-Pad31)*%
X112837500Y-88850000D03*
%TO.P,U3,32,PA10*%
%TO.N,unconnected-(U3-PA10-Pad32)*%
X112837500Y-89350000D03*
%TO.P,U3,33,PA11*%
%TO.N,/USB-CAN/USB_CANF.D-*%
X112837500Y-89850000D03*
%TO.P,U3,34,PA12*%
%TO.N,/USB-CAN/USB_CANF.D+*%
X112837500Y-90350000D03*
%TO.P,U3,35,VSS*%
%TO.N,GND*%
X112837500Y-90850000D03*
%TO.P,U3,36,VDD*%
%TO.N,+3V3*%
X112837500Y-91350000D03*
D54*
%TO.P,U3,37,PA13*%
%TO.N,/USB-CAN/SWDIO1*%
X114250000Y-92762500D03*
%TO.P,U3,38,PA14*%
%TO.N,/USB-CAN/SWCLK1*%
X114750000Y-92762500D03*
%TO.P,U3,39,PA15*%
%TO.N,/USB-CAN/STAT_LED*%
X115250000Y-92762500D03*
%TO.P,U3,40,PB3*%
%TO.N,unconnected-(U3-PB3-Pad40)*%
X115750000Y-92762500D03*
%TO.P,U3,41,PB4*%
%TO.N,unconnected-(U3-PB4-Pad41)*%
X116250000Y-92762500D03*
%TO.P,U3,42,PB5*%
%TO.N,unconnected-(U3-PB5-Pad42)*%
X116750000Y-92762500D03*
%TO.P,U3,43,PB6*%
%TO.N,unconnected-(U3-PB6-Pad43)*%
X117250000Y-92762500D03*
%TO.P,U3,44,PB7*%
%TO.N,unconnected-(U3-PB7-Pad44)*%
X117750000Y-92762500D03*
%TO.P,U3,45,PB8*%
%TO.N,/Can Transiver1/CAN_TR.RXD*%
X118250000Y-92762500D03*
%TO.P,U3,46,PB9*%
%TO.N,/Can Transiver1/CAN_TR.TXD*%
X118750000Y-92762500D03*
%TO.P,U3,47,VSS*%
%TO.N,GND*%
X119250000Y-92762500D03*
%TO.P,U3,48,VDD*%
%TO.N,+3V3*%
X119750000Y-92762500D03*
%TD*%
D55*
%TO.P,D4,1*%
%TO.N,Net-(M1-+)*%
X56450000Y-121200000D03*
%TO.P,D4,2*%
%TO.N,Net-(M1--)*%
X56450000Y-118400000D03*
%TD*%
D56*
%TO.P,U1,1,1*%
%TO.N,/CH340_DEBUG/FRONT_PANEL.D+*%
X111725000Y-48850000D03*
%TO.P,U1,2,2*%
%TO.N,/CH340_DEBUG/FRONT_PANEL.D-*%
X111725000Y-50750000D03*
%TO.P,U1,3,3*%
%TO.N,GND*%
X113600000Y-49800000D03*
%TD*%
D15*
%TO.P,C47,1*%
%TO.N,+5V*%
X95700000Y-61500000D03*
%TO.P,C47,2*%
%TO.N,GND*%
X94700000Y-61500000D03*
%TD*%
D10*
%TO.P,C32,1*%
%TO.N,+5V*%
X115600000Y-67810000D03*
%TO.P,C32,2*%
%TO.N,GND*%
X115600000Y-68810000D03*
%TD*%
D57*
%TO.P,R11,1*%
%TO.N,/USB-CAN/WORD_LED*%
X115280000Y-96600000D03*
%TO.P,R11,2*%
%TO.N,Net-(D3-Pad1)*%
X114260000Y-96600000D03*
%TD*%
D58*
%TO.P,C6,1*%
%TO.N,+5V*%
X117400000Y-116360000D03*
%TO.P,C6,2*%
%TO.N,GND*%
X117400000Y-113400000D03*
%TD*%
D12*
%TO.P,R2,1*%
%TO.N,/5v buck/5V_FB*%
X112575000Y-105875000D03*
%TO.P,R2,2*%
%TO.N,GND*%
X112575000Y-104875000D03*
%TD*%
D59*
%TO.P,C2,1*%
%TO.N,Net-(C2-Pad1)*%
X116905000Y-74210000D03*
%TO.P,C2,2*%
%TO.N,Net-(U8-+)*%
X113305000Y-74210000D03*
%TD*%
D60*
%TO.P,M1,1,+*%
%TO.N,Net-(M1-+)*%
X60525000Y-121000000D03*
D32*
%TO.P,M1,2,-*%
%TO.N,Net-(M1--)*%
X60525000Y-118500000D03*
%TD*%
D11*
%TO.P,R31,1*%
%TO.N,Net-(J5-SHIELD)*%
X119300000Y-40600000D03*
%TO.P,R31,2*%
%TO.N,GND*%
X120300000Y-40600000D03*
%TD*%
D15*
%TO.P,C9,1*%
%TO.N,/5v buck/5V_EN*%
X106775000Y-101875000D03*
%TO.P,C9,2*%
%TO.N,GND*%
X105775000Y-101875000D03*
%TD*%
D61*
%TO.P,L2,1,1*%
%TO.N,/5v buck/5V_SW*%
X108325000Y-114900000D03*
%TO.P,L2,2,2*%
%TO.N,/5v buck/5V_OUT*%
X102875000Y-114900000D03*
%TD*%
D15*
%TO.P,C45,1*%
%TO.N,Net-(U10-VDD33)*%
X95700000Y-63400000D03*
%TO.P,C45,2*%
%TO.N,GND*%
X94700000Y-63400000D03*
%TD*%
D11*
%TO.P,C55,1*%
%TO.N,Net-(J5-SHIELD)*%
X119300000Y-41600000D03*
%TO.P,C55,2*%
%TO.N,GND*%
X120300000Y-41600000D03*
%TD*%
D62*
%TO.P,C49,1*%
%TO.N,Net-(M1-+)*%
X65820000Y-121200000D03*
%TO.P,C49,2*%
%TO.N,GND*%
X68780000Y-121200000D03*
%TD*%
D63*
%TO.P,C37,1*%
%TO.N,GND*%
X108100000Y-78400000D03*
%TO.P,C37,2*%
%TO.N,+5V*%
X110000000Y-78400000D03*
%TD*%
D64*
%TO.P,U8,1,VP*%
%TO.N,+5V*%
X110175000Y-75505000D03*
%TO.P,U8,2,+*%
%TO.N,Net-(U8-+)*%
X110175000Y-74235000D03*
%TO.P,U8,3,GND*%
%TO.N,GND*%
X110175000Y-72965000D03*
%TO.P,U8,4,V*%
%TO.N,Net-(U8-V)*%
X110175000Y-71695000D03*
%TO.P,U8,5*%
%TO.N,Net-(J3-Pin_1)*%
X105025000Y-71695000D03*
%TO.P,U8,6,GND*%
%TO.N,GND*%
X105025000Y-72965000D03*
%TO.P,U8,7,NC*%
%TO.N,unconnected-(U8-NC-Pad7)*%
X105025000Y-74235000D03*
%TO.P,U8,8*%
%TO.N,Net-(J3-Pin_2)*%
X105025000Y-75505000D03*
%TD*%
D12*
%TO.P,C51,1*%
%TO.N,+3V3*%
X109800000Y-55740000D03*
%TO.P,C51,2*%
%TO.N,GND*%
X109800000Y-54740000D03*
%TD*%
D65*
%TO.P,J5,A1,GND*%
%TO.N,GND*%
X116578401Y-45955997D03*
%TO.P,J5,A4,VBUS*%
%TO.N,/Panel USB/VBUS_IN*%
X115778401Y-45955997D03*
D66*
%TO.P,J5,A5,CC1*%
%TO.N,Net-(J5-CC1)*%
X114628401Y-45955997D03*
%TO.P,J5,A6,D+*%
%TO.N,Net-(J5-D+-PadA6)*%
X113628401Y-45955997D03*
%TO.P,J5,A7,D-*%
%TO.N,Net-(J5-D--PadA7)*%
X113128401Y-45955997D03*
%TO.P,J5,A8,SBU1*%
%TO.N,unconnected-(J5-SBU1-PadA8)*%
X112128401Y-45955997D03*
D65*
%TO.P,J5,A9,VBUS*%
%TO.N,/Panel USB/VBUS_IN*%
X110978401Y-45955997D03*
%TO.P,J5,A12,GND*%
%TO.N,GND*%
X110178401Y-45955997D03*
%TO.P,J5,B1,GND*%
X110178401Y-45955997D03*
%TO.P,J5,B4,VBUS*%
%TO.N,/Panel USB/VBUS_IN*%
X110978401Y-45955997D03*
D66*
%TO.P,J5,B5,CC2*%
%TO.N,Net-(J5-CC2)*%
X111628401Y-45955997D03*
%TO.P,J5,B6,D+*%
%TO.N,Net-(J5-D+-PadA6)*%
X112628401Y-45955997D03*
%TO.P,J5,B7,D-*%
%TO.N,Net-(J5-D--PadA7)*%
X114128401Y-45955997D03*
%TO.P,J5,B8,SBU2*%
%TO.N,unconnected-(J5-SBU2-PadB8)*%
X115128401Y-45955997D03*
D65*
%TO.P,J5,B9,VBUS*%
%TO.N,/Panel USB/VBUS_IN*%
X115778401Y-45955997D03*
%TO.P,J5,B12,GND*%
%TO.N,GND*%
X116578401Y-45955997D03*
D67*
%TO.P,J5,S1,SHIELD*%
%TO.N,Net-(J5-SHIELD)*%
X117698401Y-45380997D03*
D68*
X117698401Y-41200997D03*
D67*
X109058401Y-45380997D03*
D68*
X109058401Y-41200997D03*
%TD*%
D59*
%TO.P,C41,1*%
%TO.N,Net-(U9-VCOM)*%
X125400000Y-74160000D03*
%TO.P,C41,2*%
%TO.N,GND*%
X121800000Y-74160000D03*
%TD*%
D13*
%TO.P,C8,1*%
%TO.N,/5v buck/5V_OUT*%
X104900000Y-110600000D03*
%TO.P,C8,2*%
%TO.N,GND*%
X104900000Y-109040000D03*
%TD*%
D69*
%TO.P,Y1,1,1*%
%TO.N,Net-(U10-XI)*%
X97500000Y-65750000D03*
%TO.P,Y1,2,2*%
%TO.N,GND*%
X95300000Y-65750000D03*
%TO.P,Y1,3,3*%
%TO.N,Net-(U10-XO)*%
X95300000Y-67450000D03*
%TO.P,Y1,4,4*%
%TO.N,GND*%
X97500000Y-67450000D03*
%TD*%
D12*
%TO.P,C11,1*%
%TO.N,/5v buck/V_{IN}*%
X105775000Y-103975000D03*
%TO.P,C11,2*%
%TO.N,GND*%
X105775000Y-102975000D03*
%TD*%
D15*
%TO.P,C46,1*%
%TO.N,Net-(U10-VDD33)*%
X95700000Y-62400000D03*
%TO.P,C46,2*%
%TO.N,GND*%
X94700000Y-62400000D03*
%TD*%
%TO.P,C21,1*%
%TO.N,+3V3*%
X120500000Y-94200000D03*
%TO.P,C21,2*%
%TO.N,GND*%
X119500000Y-94200000D03*
%TD*%
D13*
%TO.P,C58,1*%
%TO.N,/5v buck/5V_OUT*%
X101000000Y-110600000D03*
%TO.P,C58,2*%
%TO.N,GND*%
X101000000Y-109040000D03*
%TD*%
D70*
%TO.P,C56,1*%
%TO.N,/Panel USB/VBUS_IN*%
X116600000Y-48050000D03*
%TO.P,C56,2*%
%TO.N,GND*%
X116600000Y-49950000D03*
%TD*%
D71*
%TO.P,J1,a1,a1*%
%TO.N,GND*%
X120070000Y-133204999D03*
D72*
%TO.P,J1,a2,a2*%
%TO.N,unconnected-(J1-Pada2)*%
X117530000Y-133204999D03*
%TO.P,J1,a3,a3*%
%TO.N,/DIN41612 connector/5v_STDBY*%
X114990000Y-133204999D03*
%TO.P,J1,a4,a4*%
%TO.N,GND*%
X112450000Y-133204999D03*
%TO.P,J1,a5,a5*%
%TO.N,/Can Transiver/CAN_TR_OUT.C+*%
X109910000Y-133204999D03*
%TO.P,J1,a6,a6*%
%TO.N,/Can Transiver/CAN_TR_OUT.C-*%
X107370000Y-133204999D03*
%TO.P,J1,a7,a7*%
%TO.N,GND*%
X104830000Y-133204999D03*
%TO.P,J1,a8,a8*%
%TO.N,/Can Transiver1/CAN_TR_OUT.C+*%
X102290000Y-133204999D03*
%TO.P,J1,a9,a9*%
%TO.N,/Can Transiver1/CAN_TR_OUT.C-*%
X99750000Y-133204999D03*
%TO.P,J1,a10,a10*%
%TO.N,GND*%
X97210000Y-133204999D03*
%TO.P,J1,a11,a11*%
%TO.N,/5v buck/V_{IN}*%
X94670000Y-133204999D03*
%TO.P,J1,a12,a12*%
X92130000Y-133204999D03*
%TO.P,J1,a13,a13*%
%TO.N,GND*%
X89590000Y-133204999D03*
%TO.P,J1,a14,a14*%
%TO.N,/DIN41612 connector/24v*%
X87050000Y-133204999D03*
%TO.P,J1,a15,a15*%
%TO.N,GND*%
X84510000Y-133204999D03*
%TO.P,J1,a16,a16*%
%TO.N,/DIN41612 connector/GPIOL0*%
X81970000Y-133204999D03*
%TO.P,J1,a17,a17*%
%TO.N,/DIN41612 connector/GPIOL1*%
X79430000Y-133204999D03*
%TO.P,J1,a18,a18*%
%TO.N,/DIN41612 connector/GPIOL2*%
X76890000Y-133204999D03*
%TO.P,J1,a19,a19*%
%TO.N,/DIN41612 connector/GPIOL3*%
X74350000Y-133204999D03*
%TO.P,J1,a20,a20*%
%TO.N,/DIN41612 connector/GPIOL4*%
X71810000Y-133204999D03*
%TO.P,J1,a21,a21*%
%TO.N,/DIN41612 connector/GPIOL5*%
X69270000Y-133204999D03*
%TO.P,J1,a22,a22*%
%TO.N,/DIN41612 connector/GPIOL6*%
X66730000Y-133204999D03*
%TO.P,J1,a23,a23*%
%TO.N,/DIN41612 connector/GPIOL7*%
X64190000Y-133204999D03*
%TO.P,J1,a24,a24*%
%TO.N,/DIN41612 connector/GPIOL8*%
X61650000Y-133204999D03*
%TO.P,J1,a25,a25*%
%TO.N,/DIN41612 connector/GPIOL9*%
X59110000Y-133204999D03*
%TO.P,J1,a26,a26*%
%TO.N,/DIN41612 connector/GPIOL10*%
X56570000Y-133204999D03*
%TO.P,J1,a27,a27*%
%TO.N,/DIN41612 connector/GPIOL11*%
X54030000Y-133204999D03*
%TO.P,J1,a28,a28*%
%TO.N,/DIN41612 connector/GPIOL12*%
X51490000Y-133204999D03*
%TO.P,J1,a29,a29*%
%TO.N,/DIN41612 connector/GPIOL13*%
X48950000Y-133204999D03*
%TO.P,J1,a30,a30*%
%TO.N,/DIN41612 connector/GPIOL14*%
X46410000Y-133204999D03*
%TO.P,J1,a31,a31*%
%TO.N,/DIN41612 connector/GPIOL15*%
X43870000Y-133204999D03*
%TO.P,J1,a32,a32*%
%TO.N,GND*%
X41330000Y-133204999D03*
%TO.P,J1,b1,b1*%
X120070000Y-130664999D03*
%TO.P,J1,b2,b2*%
X117530000Y-130664999D03*
%TO.P,J1,b3,b3*%
%TO.N,/DIN41612 connector/5v_STDBY*%
X114990000Y-130664999D03*
%TO.P,J1,b4,b4*%
%TO.N,GND*%
X112450000Y-130664999D03*
%TO.P,J1,b5,b5*%
%TO.N,/Can Transiver/CAN_TR_OUT.C+*%
X109910000Y-130664999D03*
%TO.P,J1,b6,b6*%
%TO.N,/Can Transiver/CAN_TR_OUT.C-*%
X107370000Y-130664999D03*
%TO.P,J1,b7,b7*%
%TO.N,GND*%
X104830000Y-130664999D03*
%TO.P,J1,b8,b8*%
%TO.N,/Can Transiver1/CAN_TR_OUT.C+*%
X102290000Y-130664999D03*
%TO.P,J1,b9,b9*%
%TO.N,/Can Transiver1/CAN_TR_OUT.C-*%
X99750000Y-130664999D03*
%TO.P,J1,b10,b10*%
%TO.N,GND*%
X97210000Y-130664999D03*
%TO.P,J1,b11,b11*%
%TO.N,/5v buck/V_{IN}*%
X94670000Y-130664999D03*
%TO.P,J1,b12,b12*%
X92130000Y-130664999D03*
%TO.P,J1,b13,b13*%
%TO.N,GND*%
X89590000Y-130664999D03*
%TO.P,J1,b14,b14*%
%TO.N,/DIN41612 connector/24v*%
X87050000Y-130664999D03*
%TO.P,J1,b15,b15*%
%TO.N,GND*%
X84510000Y-130664999D03*
%TO.P,J1,b16,b16*%
%TO.N,/DIN41612 connector/GPIOC0*%
X81970000Y-130664999D03*
%TO.P,J1,b17,b17*%
%TO.N,/DIN41612 connector/GPIOC1*%
X79430000Y-130664999D03*
%TO.P,J1,b18,b18*%
%TO.N,/DIN41612 connector/GPIOC2*%
X76890000Y-130664999D03*
%TO.P,J1,b19,b19*%
%TO.N,/DIN41612 connector/GPIOC3*%
X74350000Y-130664999D03*
%TO.P,J1,b20,b20*%
%TO.N,/DIN41612 connector/GPIOC4*%
X71810000Y-130664999D03*
%TO.P,J1,b21,b21*%
%TO.N,/DIN41612 connector/GPIOC5*%
X69270000Y-130664999D03*
%TO.P,J1,b22,b22*%
%TO.N,/DIN41612 connector/GPIOC6*%
X66730000Y-130664999D03*
%TO.P,J1,b23,b23*%
%TO.N,/DIN41612 connector/GPIOC7*%
X64190000Y-130664999D03*
%TO.P,J1,b24,b24*%
%TO.N,/DIN41612 connector/GPIOC8*%
X61650000Y-130664999D03*
%TO.P,J1,b25,b25*%
%TO.N,/DIN41612 connector/GPIOC9*%
X59110000Y-130664999D03*
%TO.P,J1,b26,b26*%
%TO.N,/DIN41612 connector/GPIOC10*%
X56570000Y-130664999D03*
%TO.P,J1,b27,b27*%
%TO.N,/DIN41612 connector/GPIOC11*%
X54030000Y-130664999D03*
%TO.P,J1,b28,b28*%
%TO.N,/DIN41612 connector/GPIOC12*%
X51490000Y-130664999D03*
%TO.P,J1,b29,b29*%
%TO.N,/DIN41612 connector/GPIOC13*%
X48950000Y-130664999D03*
%TO.P,J1,b30,b30*%
%TO.N,/DIN41612 connector/GPIOC14*%
X46410000Y-130664999D03*
%TO.P,J1,b31,b31*%
%TO.N,/DIN41612 connector/GPIOC15*%
X43870000Y-130664999D03*
%TO.P,J1,b32,b32*%
%TO.N,GND*%
X41330000Y-130664999D03*
%TO.P,J1,c1,c1*%
X120070000Y-128124999D03*
%TO.P,J1,c2,c2*%
%TO.N,unconnected-(J1-Padc2)*%
X117530000Y-128124999D03*
%TO.P,J1,c3,c3*%
%TO.N,/DIN41612 connector/5v_STDBY*%
X114990000Y-128124999D03*
%TO.P,J1,c4,c4*%
%TO.N,GND*%
X112450000Y-128124999D03*
%TO.P,J1,c5,c5*%
%TO.N,/Can Transiver/CAN_TR_OUT.C+*%
X109910000Y-128124999D03*
%TO.P,J1,c6,c6*%
%TO.N,/Can Transiver/CAN_TR_OUT.C-*%
X107370000Y-128124999D03*
%TO.P,J1,c7,c7*%
%TO.N,GND*%
X104830000Y-128124999D03*
%TO.P,J1,c8,c8*%
%TO.N,/Can Transiver1/CAN_TR_OUT.C+*%
X102290000Y-128124999D03*
%TO.P,J1,c9,c9*%
%TO.N,/Can Transiver1/CAN_TR_OUT.C-*%
X99750000Y-128124999D03*
%TO.P,J1,c10,c10*%
%TO.N,GND*%
X97210000Y-128124999D03*
%TO.P,J1,c11,c11*%
%TO.N,/5v buck/V_{IN}*%
X94670000Y-128124999D03*
%TO.P,J1,c12,c12*%
X92130000Y-128124999D03*
%TO.P,J1,c13,c13*%
%TO.N,GND*%
X89590000Y-128124999D03*
%TO.P,J1,c14,c14*%
%TO.N,/DIN41612 connector/24v*%
X87050000Y-128124999D03*
%TO.P,J1,c15,c15*%
%TO.N,GND*%
X84510000Y-128124999D03*
%TO.P,J1,c16,c16*%
%TO.N,/DIN41612 connector/GPIOR0*%
X81970000Y-128124999D03*
%TO.P,J1,c17,c17*%
%TO.N,/DIN41612 connector/GPIOR1*%
X79430000Y-128124999D03*
%TO.P,J1,c18,c18*%
%TO.N,/DIN41612 connector/GPIOR2*%
X76890000Y-128124999D03*
%TO.P,J1,c19,c19*%
%TO.N,/DIN41612 connector/GPIOR3*%
X74350000Y-128124999D03*
%TO.P,J1,c20,c20*%
%TO.N,/DIN41612 connector/GPIOR4*%
X71810000Y-128124999D03*
%TO.P,J1,c21,c21*%
%TO.N,/DIN41612 connector/GPIOR5*%
X69270000Y-128124999D03*
%TO.P,J1,c22,c22*%
%TO.N,/DIN41612 connector/GPIOR6*%
X66730000Y-128124999D03*
%TO.P,J1,c23,c23*%
%TO.N,/DIN41612 connector/GPIOR7*%
X64190000Y-128124999D03*
%TO.P,J1,c24,c24*%
%TO.N,/DIN41612 connector/GPIOR8*%
X61650000Y-128124999D03*
%TO.P,J1,c25,c25*%
%TO.N,/DIN41612 connector/GPIOR9*%
X59110000Y-128124999D03*
%TO.P,J1,c26,c26*%
%TO.N,/DIN41612 connector/GPIOR10*%
X56570000Y-128124999D03*
%TO.P,J1,c27,c27*%
%TO.N,/DIN41612 connector/GPIOR11*%
X54030000Y-128124999D03*
%TO.P,J1,c28,c28*%
%TO.N,/DIN41612 connector/GPIOR12*%
X51490000Y-128124999D03*
%TO.P,J1,c29,c29*%
%TO.N,/DIN41612 connector/GPIOR13*%
X48950000Y-128124999D03*
%TO.P,J1,c30,c30*%
%TO.N,/DIN41612 connector/USB_DEBUG.D-*%
X46410000Y-128124999D03*
%TO.P,J1,c31,c31*%
%TO.N,/DIN41612 connector/USB_DEBUG.D+*%
X43870000Y-128124999D03*
%TO.P,J1,c32,c32*%
%TO.N,GND*%
X41330000Y-128124999D03*
%TD*%
D22*
%TO.P,C63,1*%
%TO.N,/5v buck/5V_OUT*%
X99420000Y-107125000D03*
%TO.P,C63,2*%
%TO.N,GND*%
X100980000Y-107125000D03*
%TD*%
D12*
%TO.P,C54,1*%
%TO.N,Net-(U11-XO)*%
X98070000Y-51370000D03*
%TO.P,C54,2*%
%TO.N,GND*%
X98070000Y-50410000D03*
%TD*%
D10*
%TO.P,C39,1*%
%TO.N,/Audio Codec/VCCP*%
X126350000Y-66800000D03*
%TO.P,C39,2*%
%TO.N,GND*%
X126350000Y-67800000D03*
%TD*%
D73*
%TO.P,U13,1,GND*%
%TO.N,GND*%
X119950000Y-111300000D03*
%TO.P,U13,2,VO*%
%TO.N,+3V3*%
X119950000Y-113600000D03*
D74*
X126250000Y-113600000D03*
D73*
%TO.P,U13,3,VI*%
%TO.N,+5V*%
X119950000Y-115900000D03*
%TD*%
D11*
%TO.P,R37,1*%
%TO.N,Net-(BTN1-Pad4)*%
X95500000Y-44000000D03*
%TO.P,R37,2*%
%TO.N,/OrangePi 5 pro Header/ON OFF BTN*%
X96500000Y-44000000D03*
%TD*%
D57*
%TO.P,R10,1*%
%TO.N,/USB-CAN/STAT_LED*%
X115270000Y-95200000D03*
%TO.P,R10,2*%
%TO.N,Net-(D1-Pad1)*%
X114250000Y-95200000D03*
%TD*%
D15*
%TO.P,R17,1*%
%TO.N,Net-(U9-VOUTR)*%
X120800000Y-72160000D03*
%TO.P,R17,2*%
%TO.N,Net-(C2-Pad1)*%
X119800000Y-72160000D03*
%TD*%
D75*
%TO.P,U10,1,DM4*%
%TO.N,/USB HUB/USB_CAN.D-*%
X102637500Y-64172500D03*
%TO.P,U10,2,DP4*%
%TO.N,/USB HUB/USB_CAN.D+*%
X102637500Y-63537500D03*
%TO.P,U10,3,DM3*%
%TO.N,/Audio Codec/USB_AUDIO.D-*%
X102637500Y-62902500D03*
%TO.P,U10,4,DP3*%
%TO.N,/Audio Codec/USB_AUDIO.D+*%
X102637500Y-62267500D03*
%TO.P,U10,5,DM2*%
%TO.N,/USB HUB/USB3.D-*%
X102637500Y-61632500D03*
%TO.P,U10,6,DP2*%
%TO.N,/USB HUB/USB3.D+*%
X102637500Y-60997500D03*
%TO.P,U10,7,DM1*%
%TO.N,/USB HUB/USB4.D-*%
X102637500Y-60362500D03*
%TO.P,U10,8,DP1*%
%TO.N,/USB HUB/USB4.D+*%
X102637500Y-59727500D03*
%TO.P,U10,9,RESET#/CDP*%
%TO.N,unconnected-(U10-RESET#{slash}CDP-Pad9)*%
X97362500Y-59727500D03*
%TO.P,U10,10,DMU*%
%TO.N,/OrangePi 5 pro Header/USB_OUT.D-*%
X97362500Y-60362500D03*
%TO.P,U10,11,DPU*%
%TO.N,/OrangePi 5 pro Header/USB_OUT.D+*%
X97362500Y-60997500D03*
%TO.P,U10,12,V5*%
%TO.N,+5V*%
X97362500Y-61632500D03*
%TO.P,U10,13,VDD33*%
%TO.N,Net-(U10-VDD33)*%
X97362500Y-62267500D03*
%TO.P,U10,14,GND*%
%TO.N,GND*%
X97362500Y-62902500D03*
%TO.P,U10,15,XO*%
%TO.N,Net-(U10-XO)*%
X97362500Y-63537500D03*
%TO.P,U10,16,XI*%
%TO.N,Net-(U10-XI)*%
X97362500Y-64172500D03*
%TD*%
D12*
%TO.P,R20,1*%
%TO.N,/CH340_DEBUG/TXD*%
X107000000Y-49140000D03*
%TO.P,R20,2*%
%TO.N,/CH340_DEBUG/UART_DEBUG.RX*%
X107000000Y-48140000D03*
%TD*%
D11*
%TO.P,R28,1*%
%TO.N,Net-(J5-CC1)*%
X119300000Y-43800000D03*
%TO.P,R28,2*%
%TO.N,GND*%
X120300000Y-43800000D03*
%TD*%
D12*
%TO.P,R34,1*%
%TO.N,Net-(U6-STB)*%
X110972600Y-126272800D03*
%TO.P,R34,2*%
%TO.N,GND*%
X110972600Y-125272800D03*
%TD*%
D11*
%TO.P,R8,1*%
%TO.N,Net-(BTN1-Pad3)*%
X97500000Y-44000000D03*
%TO.P,R8,2*%
%TO.N,/OrangePi 5 pro Header/USER BUTTON*%
X98500000Y-44000000D03*
%TD*%
D15*
%TO.P,R38,1*%
%TO.N,+3V3*%
X98500000Y-45000000D03*
%TO.P,R38,2*%
%TO.N,/OrangePi 5 pro Header/USER BUTTON*%
X97500000Y-45000000D03*
%TD*%
D12*
%TO.P,C26,1*%
%TO.N,/5v buck/BUCK_OUT*%
X98175000Y-105900000D03*
%TO.P,C26,2*%
%TO.N,Net-(U4-VCAP)*%
X98175000Y-104940000D03*
%TD*%
D76*
%TO.P,J2,*%
%TO.N,*%
X88422806Y-122753501D03*
X88402806Y-64733501D03*
X77402806Y-109733501D03*
X77402806Y-77733501D03*
X45402806Y-109733501D03*
X45402806Y-77733501D03*
X39402806Y-122733501D03*
X39402806Y-64733501D03*
D77*
%TO.P,J2,1,5V*%
%TO.N,+5V*%
X89672806Y-117833501D03*
%TO.P,J2,2,5V*%
X89672806Y-115293501D03*
%TO.P,J2,3,GND*%
%TO.N,GND*%
X89672806Y-112753501D03*
%TO.P,J2,4,GPIO0_B5/UART2_TX*%
%TO.N,/CH340_DEBUG/UART_DEBUG.TX*%
X89672806Y-110213501D03*
%TO.P,J2,5,GPIO0_B6/UART2_RX*%
%TO.N,/CH340_DEBUG/UART_DEBUG.RX*%
X89672806Y-107673501D03*
%TO.P,J2,6,GPIO1_A7/PWM3*%
%TO.N,/FAN controller/FAN_PWM*%
X89672806Y-105133501D03*
%TO.P,J2,7,GND*%
%TO.N,GND*%
X89672806Y-102593501D03*
%TO.P,J2,8,GPIO1_A1/UART6_TX/SPI4_MOSI*%
%TO.N,unconnected-(J2-GPIO1_A1{slash}UART6_TX{slash}SPI4_MOSI-Pad8)*%
X89672806Y-100053501D03*
%TO.P,J2,9,GPIO1_A0/UART6_RX/SPI4_MISO*%
%TO.N,unconnected-(J2-GPIO1_A0{slash}UART6_RX{slash}SPI4_MISO-Pad9)*%
X89672806Y-97513501D03*
%TO.P,J2,10,GND*%
%TO.N,GND*%
X89672806Y-94973501D03*
%TO.P,J2,11,GPIO1_B0*%
%TO.N,/OrangePi 5 pro Header/STATUS LED*%
X89672806Y-92433501D03*
%TO.P,J2,12,GPIO1_B4/SPI0_CS0/UART7_RX*%
%TO.N,unconnected-(J2-GPIO1_B4{slash}SPI0_CS0{slash}UART7_RX-Pad12)*%
X89672806Y-89893501D03*
%TO.P,J2,13,GPIO1_B5/SPI0_CS1/UART7_TX*%
%TO.N,unconnected-(J2-GPIO1_B5{slash}SPI0_CS1{slash}UART7_TX-Pad13)*%
X89703931Y-87304492D03*
%TO.P,J2,14,GPIO1_A3/I2C4_SCL/PWM1/SPI4_CS0*%
%TO.N,unconnected-(J2-GPIO1_A3{slash}I2C4_SCL{slash}PWM1{slash}SPI4_CS0-Pad14)*%
X89672806Y-84813501D03*
%TO.P,J2,15,GND*%
%TO.N,GND*%
X89672806Y-82273501D03*
%TO.P,J2,16,GPIO1_D6/PWM14/I2C8_SCL*%
%TO.N,unconnected-(J2-GPIO1_D6{slash}PWM14{slash}I2C8_SCL-Pad16)*%
X89672806Y-79733501D03*
%TO.P,J2,17,GND*%
%TO.N,GND*%
X89672806Y-77193501D03*
%TO.P,J2,18,GPIO4_A3/UART0_TX*%
%TO.N,unconnected-(J2-GPIO4_A3{slash}UART0_TX-Pad18)*%
X89672806Y-74653501D03*
%TO.P,J2,19,GPIO4_A4/UART0_RX*%
%TO.N,unconnected-(J2-GPIO4_A4{slash}UART0_RX-Pad19)*%
X89672806Y-72113501D03*
%TO.P,J2,20,GPIO4_A5/UART3_TX*%
%TO.N,unconnected-(J2-GPIO4_A5{slash}UART3_TX-Pad20)*%
X89672806Y-69573501D03*
%TO.P,J2,21,GND*%
%TO.N,GND*%
X87132806Y-69573501D03*
%TO.P,J2,22,GPIO4_A6/UART3_RX/I2C5_SCL*%
%TO.N,Net-(J2-GPIO4_A6{slash}UART3_RX{slash}I2C5_SCL)*%
X87132806Y-72113501D03*
%TO.P,J2,23,GPIO4_A7/I2C5_SDA*%
%TO.N,/OrangePi 5 pro Header/USER LED 2*%
X87132806Y-74653501D03*
%TO.P,J2,24,GPIO1_D7/I2C8_SDA/PWM15*%
%TO.N,/OrangePi 5 pro Header/USER LED 1*%
X87132806Y-77193501D03*
%TO.P,J2,25,GPIO1_A6*%
%TO.N,/OrangePi 5 pro Header/USER BUTTON*%
X87132806Y-79733501D03*
%TO.P,J2,26,GPIO1_A4*%
%TO.N,/OrangePi 5 pro Header/ON OFF BTN*%
X87132806Y-82273501D03*
%TO.P,J2,27,GPIO1_A2/SPI4_CLK/PWM0/I2C4_SDA*%
%TO.N,unconnected-(J2-GPIO1_A2{slash}SPI4_CLK{slash}PWM0{slash}I2C4_SDA-Pad27)*%
X87132806Y-84813501D03*
%TO.P,J2,28,GND*%
%TO.N,GND*%
X87163931Y-87304492D03*
%TO.P,J2,29,GPIO1_B3/UART4_TX/SPIO_CLK*%
%TO.N,unconnected-(J2-GPIO1_B3{slash}UART4_TX{slash}SPIO_CLK-Pad29)*%
X87132806Y-89893501D03*
%TO.P,J2,30,GPIO1_B1/SPI0_MISO*%
%TO.N,unconnected-(J2-GPIO1_B1{slash}SPI0_MISO-Pad30)*%
X87132806Y-92433501D03*
%TO.P,J2,31,GPIO1_B2/UART4_RX/SPI0_MOSI*%
%TO.N,unconnected-(J2-GPIO1_B2{slash}UART4_RX{slash}SPI0_MOSI-Pad31)*%
X87132806Y-94973501D03*
%TO.P,J2,32,3V3*%
%TO.N,unconnected-(J2-3V3-Pad32)*%
X87132806Y-97513501D03*
%TO.P,J2,33,GPIO1_B6/UART1_TX/I2C5_SCL*%
%TO.N,unconnected-(J2-GPIO1_B6{slash}UART1_TX{slash}I2C5_SCL-Pad33)*%
X87132806Y-100053501D03*
%TO.P,J2,34,GPIO4_B3/PWM15/CAN1_TX*%
%TO.N,/Can Transiver/CAN_TR.TXD*%
X87132806Y-102593501D03*
%TO.P,J2,35,GPIO4_B2/PWM14/CAN1_RX*%
%TO.N,/Can Transiver/CAN_TR.RXD*%
X87132806Y-105133501D03*
%TO.P,J2,36,GND*%
%TO.N,GND*%
X87132806Y-107673501D03*
%TO.P,J2,37,GPIO1_B7/UART1_RX/I2C5_SDA/PWM13*%
%TO.N,unconnected-(J2-GPIO1_B7{slash}UART1_RX{slash}I2C5_SDA{slash}PWM13-Pad37)*%
X87132806Y-110213501D03*
%TO.P,J2,38,GPIO1_D2/UART4_TX/I2C1_SCL*%
%TO.N,unconnected-(J2-GPIO1_D2{slash}UART4_TX{slash}I2C1_SCL-Pad38)*%
X87132806Y-112753501D03*
%TO.P,J2,39,GPIO1_D3/UART4_RX/I2C1_SDA*%
%TO.N,unconnected-(J2-GPIO1_D3{slash}UART4_RX{slash}I2C1_SDA-Pad39)*%
X87132806Y-115293501D03*
D78*
%TO.P,J2,40,3V3*%
%TO.N,unconnected-(J2-3V3-Pad40)*%
X87132806Y-117833501D03*
D77*
%TO.P,J2,41,USB_GND*%
%TO.N,GND*%
X87612806Y-60293501D03*
%TO.P,J2,42,USB_GND*%
X85072806Y-60293501D03*
%TO.P,J2,43,USB20_DP4*%
%TO.N,/OrangePi 5 pro Header/USB_SBCF.D+*%
X82532806Y-60293501D03*
%TO.P,J2,44,USB20_DM4*%
%TO.N,/OrangePi 5 pro Header/USB_SBCF.D-*%
X79992806Y-60293501D03*
%TO.P,J2,45,USB_5V*%
%TO.N,unconnected-(J2-USB_5V-Pad45)*%
X77452806Y-60293501D03*
%TO.P,J2,46,USB_5V*%
%TO.N,unconnected-(J2-USB_5V-Pad46)*%
X77452806Y-57753501D03*
%TO.P,J2,47,USB20_DM3*%
%TO.N,/OrangePi 5 pro Header/USB_OUT.D-*%
X79992806Y-57753501D03*
%TO.P,J2,48,USB20_DP3*%
%TO.N,/OrangePi 5 pro Header/USB_OUT.D+*%
X82532806Y-57753501D03*
%TO.P,J2,49,USB_GND*%
%TO.N,GND*%
X85072806Y-57753501D03*
%TO.P,J2,50*%
%TO.N,N/C*%
X87612806Y-57753501D03*
%TD*%
D79*
%TO.N,GND*%
X105000000Y-101300000D03*
X96000000Y-103000000D03*
X114000000Y-70900000D03*
X108600000Y-49200000D03*
X123495000Y-59305000D03*
X109200000Y-107800000D03*
X94000000Y-63400000D03*
X98600000Y-66600000D03*
X121000000Y-41600000D03*
X97600000Y-46900000D03*
X119200000Y-75500000D03*
X116000000Y-65000000D03*
X94800000Y-64600000D03*
X94000000Y-62400000D03*
X101400000Y-108000000D03*
X95500000Y-46900000D03*
X116600000Y-51200000D03*
X106400000Y-73000000D03*
X112400000Y-84200000D03*
X101725000Y-121077733D03*
X53575000Y-116900000D03*
X110200000Y-47000000D03*
X121000000Y-40600000D03*
X119900000Y-75500000D03*
X107800000Y-109200000D03*
X108600000Y-107800000D03*
X112575000Y-104123988D03*
X103000000Y-103400000D03*
X117800000Y-81900000D03*
X106900000Y-78000000D03*
X98200000Y-49600000D03*
X112700000Y-72360000D03*
X67775000Y-117200000D03*
X98000000Y-125400000D03*
X122500000Y-94200000D03*
X127000000Y-69000000D03*
X118800000Y-58400000D03*
X98600000Y-63000000D03*
X116600000Y-47000000D03*
X94800000Y-54200000D03*
X109200000Y-121100000D03*
X107800000Y-108600000D03*
X94000000Y-61500000D03*
X124000000Y-87800000D03*
X118686128Y-127000000D03*
X104200000Y-125400000D03*
X108284125Y-104372658D03*
X105600000Y-125400000D03*
X121000000Y-42800000D03*
X115600000Y-71400000D03*
X121000000Y-43800000D03*
X108200000Y-43400000D03*
X102200000Y-108000000D03*
X111800000Y-125400000D03*
X103000000Y-49200000D03*
X107200000Y-108600000D03*
X127200000Y-64800000D03*
X114800000Y-49800000D03*
X100600000Y-108000000D03*
X106900000Y-78800000D03*
X108600000Y-107200000D03*
X96400000Y-49400000D03*
X70175000Y-121100000D03*
X114700000Y-81900000D03*
X98000000Y-54200000D03*
X109200000Y-107200000D03*
X105000000Y-102000000D03*
X101400000Y-103400000D03*
X107200000Y-109200000D03*
X110600000Y-54800000D03*
X41600000Y-124900000D03*
X118813915Y-91600000D03*
X53575000Y-117800000D03*
X119600000Y-95000000D03*
X102200000Y-103400000D03*
X103000000Y-108000000D03*
X111400000Y-102600000D03*
X108200000Y-44200000D03*
X110400000Y-90800000D03*
X127000000Y-67800000D03*
X100600000Y-103400000D03*
X110500000Y-105200000D03*
X108400000Y-109200000D03*
X108400000Y-108600000D03*
%TO.N,+5V*%
X98600000Y-61600000D03*
X120400000Y-118600000D03*
X120400000Y-119400000D03*
X111300000Y-78000000D03*
X112600000Y-68000000D03*
X120400000Y-117800000D03*
X119400000Y-118600000D03*
X119400000Y-119400000D03*
X111300000Y-78800000D03*
X119400000Y-117800000D03*
%TO.N,+3V3*%
X116800000Y-81900000D03*
X110400000Y-92000000D03*
X105600000Y-126200000D03*
X124600000Y-114000000D03*
X121400000Y-94200000D03*
X124600000Y-113200000D03*
X94600000Y-45400000D03*
X124600000Y-112400000D03*
X124600000Y-114800000D03*
X110200000Y-96800000D03*
X118000000Y-89000000D03*
X110600000Y-55800000D03*
X112400000Y-83256007D03*
X120600000Y-95000000D03*
X115700000Y-81900000D03*
X98000000Y-126200000D03*
X110200000Y-95000000D03*
X99400000Y-45400000D03*
%TO.N,/5v buck/5V_OUT*%
X110525000Y-106050000D03*
X111312014Y-106890623D03*
X99700000Y-103400000D03*
%TO.N,/USB-CAN/NRST1*%
X122400000Y-88800000D03*
%TO.N,/USB-CAN/SWDIO1*%
X114250000Y-91600000D03*
%TO.N,/USB-CAN/SWCLK1*%
X116439401Y-91600000D03*
%TO.N,/Can Transiver/CAN_TR.RXD*%
X107200000Y-122000000D03*
%TO.N,/Can Transiver/CAN_TR.TXD*%
X110000000Y-122000000D03*
%TO.N,/Can Transiver1/CAN_TR.RXD*%
X99800000Y-122000000D03*
X117500000Y-96200000D03*
%TO.N,/Can Transiver1/CAN_TR.TXD*%
X119100000Y-96200000D03*
X102600000Y-122000000D03*
%TO.N,/CH340_DEBUG/UART_DEBUG.TX*%
X91800000Y-101000000D03*
X105232200Y-48094535D03*
%TO.N,/CH340_DEBUG/UART_DEBUG.RX*%
X107780846Y-48094535D03*
X96000000Y-101000000D03*
%TO.N,/OrangePi 5 pro Header/ON OFF BTN*%
X96400000Y-46900000D03*
%TO.N,/OrangePi 5 pro Header/USER BUTTON*%
X98600000Y-46900000D03*
%TO.N,/Panel USB/VBUS_IN*%
X115300000Y-44800000D03*
X111496446Y-44296446D03*
%TO.N,/5v buck/5V_EN*%
X107675000Y-101875000D03*
X109675000Y-105262402D03*
%TO.N,/5v buck/V_{IN}*%
X107000000Y-107800000D03*
X104600000Y-102800000D03*
X106200000Y-106000000D03*
X105600000Y-107200000D03*
X106200000Y-106600000D03*
X105600000Y-106000000D03*
X107000000Y-107200000D03*
X106200000Y-104800000D03*
X105600000Y-105400000D03*
X105600000Y-106600000D03*
X104000000Y-103400000D03*
X104600000Y-103400000D03*
X107600000Y-107200000D03*
X105600000Y-104800000D03*
X107600000Y-107800000D03*
X106200000Y-105400000D03*
X104000000Y-102800000D03*
%TO.N,Net-(U9-VOUTR)*%
X121600000Y-72200000D03*
X124600000Y-71000000D03*
%TO.N,/USB-CAN/WORD_LED*%
X119400000Y-86400000D03*
X116200000Y-96600000D03*
%TO.N,/5v buck/5V_VDD*%
X111290000Y-107849559D03*
X111325000Y-103475000D03*
%TO.N,/Audio Codec/VDD_{int}*%
X116000000Y-65850003D03*
X113200000Y-65000000D03*
%TO.N,Net-(Q5-C)*%
X121000000Y-127000000D03*
X119150000Y-108144800D03*
%TO.N,Net-(Q2-G)*%
X95975000Y-107894800D03*
X97375000Y-114700000D03*
%TD*%
D80*
%TO.N,/Audio Codec/USB_AUDIO.D+*%
X101299999Y-58465000D02*
X100768346Y-58465000D01*
X100525000Y-59444904D02*
X100615741Y-59444904D01*
X100775741Y-59604904D02*
X100775741Y-59684904D01*
X102025000Y-62267500D02*
X102133016Y-62267500D01*
X100615741Y-59844904D02*
X100525000Y-59844904D01*
X100365000Y-60884904D02*
X100365000Y-61331654D01*
X100525000Y-60244904D02*
X100615741Y-60244904D01*
X100615741Y-60644904D02*
X100525000Y-60644904D01*
X100365000Y-61331654D02*
X101453346Y-62420000D01*
X102100000Y-58800000D02*
X101634999Y-58800000D01*
X102133016Y-62267500D02*
X102637500Y-62267500D01*
X100775741Y-60404904D02*
X100775741Y-60484904D01*
X101634999Y-58800000D02*
X101299999Y-58465000D01*
X100768346Y-58465000D02*
X100365000Y-58868346D01*
X100365000Y-60804904D02*
X100365000Y-60884904D01*
X101872500Y-62420000D02*
X102025000Y-62267500D01*
X100365000Y-58868346D02*
X100365000Y-59284904D01*
X100365000Y-60004904D02*
X100365000Y-60084904D01*
X101453346Y-62420000D02*
X101872500Y-62420000D01*
X100525000Y-59844904D02*
G75*
G03*
X100365004Y-60004904I0J-159996D01*
G01*
X100525000Y-60644904D02*
G75*
G03*
X100365004Y-60804904I0J-159996D01*
G01*
X100775741Y-60484904D02*
G75*
G02*
X100615741Y-60644941I-160041J4D01*
G01*
X100365000Y-60084904D02*
G75*
G03*
X100525000Y-60244900I160000J4D01*
G01*
X100615741Y-60244904D02*
G75*
G02*
X100775696Y-60404904I-41J-159996D01*
G01*
X100615741Y-59444904D02*
G75*
G02*
X100775696Y-59604904I-41J-159996D01*
G01*
X100365000Y-59284904D02*
G75*
G03*
X100525000Y-59444900I160000J4D01*
G01*
X100775741Y-59684904D02*
G75*
G02*
X100615741Y-59844941I-160041J4D01*
G01*
%TO.N,/Audio Codec/USB_AUDIOF.D-*%
X103565001Y-57800000D02*
X103100000Y-57800000D01*
X103900001Y-58135000D02*
X103565001Y-57800000D01*
X112768346Y-58135000D02*
X103900001Y-58135000D01*
X114800000Y-60166654D02*
X112768346Y-58135000D01*
X114800000Y-66238881D02*
X114800000Y-60166654D01*
X115171119Y-66610000D02*
X114800000Y-66238881D01*
X116014999Y-66610000D02*
X115171119Y-66610000D01*
X116174999Y-66450000D02*
X116014999Y-66610000D01*
X117600000Y-66450000D02*
X116174999Y-66450000D01*
%TO.N,/Audio Codec/USB_AUDIOF.D+*%
X103900001Y-58465000D02*
X103565001Y-58800000D01*
X103565001Y-58800000D02*
X103100000Y-58800000D01*
X112631654Y-58465000D02*
X103900001Y-58465000D01*
X115034427Y-66940000D02*
X114470000Y-66375573D01*
X116014999Y-66940000D02*
X115034427Y-66940000D01*
X116174999Y-67100000D02*
X116014999Y-66940000D01*
X117600000Y-67100000D02*
X116174999Y-67100000D01*
X114470000Y-60303346D02*
X112631654Y-58465000D01*
X114470000Y-66375573D02*
X114470000Y-60303346D01*
%TO.N,/Audio Codec/USB_AUDIO.D-*%
X100631654Y-58135000D02*
X101299999Y-58135000D01*
X100035000Y-58731654D02*
X100631654Y-58135000D01*
X100035000Y-61468346D02*
X100035000Y-58731654D01*
X101872500Y-62750000D02*
X101316654Y-62750000D01*
X102025000Y-62902500D02*
X101872500Y-62750000D01*
X102637500Y-62902500D02*
X102025000Y-62902500D01*
X101299999Y-58135000D02*
X101634999Y-57800000D01*
X101316654Y-62750000D02*
X100035000Y-61468346D01*
X101634999Y-57800000D02*
X102100000Y-57800000D01*
%TO.N,/USB-CAN/USB_CANF.D-*%
X100365000Y-67200001D02*
X100365000Y-69268346D01*
X100800000Y-66765001D02*
X100365000Y-67200001D01*
%TO.N,/USB-CAN/USB_CANF.D+*%
X100035000Y-67200001D02*
X100035000Y-69131654D01*
X99600000Y-66765001D02*
X100035000Y-67200001D01*
X99600000Y-66300000D02*
X99600000Y-66765001D01*
%TO.N,/USB-CAN/USB_CANF.D-*%
X100800000Y-66300000D02*
X100800000Y-66765001D01*
%TO.N,/USB HUB/USB_CAN.D+*%
X99700000Y-65300000D02*
X99600000Y-65300000D01*
X100035000Y-64965000D02*
X99700000Y-65300000D01*
X100035000Y-64531654D02*
X100035000Y-64965000D01*
X101266249Y-63690000D02*
X100876654Y-63690000D01*
X100876654Y-63690000D02*
X100035000Y-64531654D01*
X102637500Y-63537500D02*
X101418749Y-63537500D01*
X101418749Y-63537500D02*
X101266249Y-63690000D01*
%TO.N,/USB HUB/USB_CAN.D-*%
X100365000Y-64865000D02*
X100800000Y-65300000D01*
X100365000Y-64668346D02*
X100365000Y-64865000D01*
%TO.N,/DIN41612 connector/USB_DEBUG.D+*%
X79878355Y-65154993D02*
X79699376Y-65333971D01*
X79468346Y-65565000D02*
X77667903Y-65565000D01*
X81800000Y-63233346D02*
X81368151Y-63665195D01*
X80533764Y-64499583D02*
X80533763Y-64499583D01*
X79699376Y-65333971D02*
X79468346Y-65565000D01*
X45668346Y-65565000D02*
X44311496Y-66921850D01*
X81800000Y-62900000D02*
X81800000Y-63233346D01*
X81368151Y-64141421D02*
X81189069Y-64320504D01*
X80712845Y-64320504D02*
X80533764Y-64499583D01*
X80533763Y-64976015D02*
X80354785Y-65154994D01*
X77667903Y-65565000D02*
X45668346Y-65565000D01*
X80116569Y-65154994D02*
G75*
G03*
X79878394Y-65155031I-119069J-119106D01*
G01*
X81368150Y-63903309D02*
G75*
G02*
X81368186Y-64141455I-119050J-119091D01*
G01*
X80533763Y-64737799D02*
G75*
G02*
X80533756Y-64976008I-119063J-119101D01*
G01*
X80950957Y-64320504D02*
G75*
G03*
X80712845Y-64320504I-119056J-119051D01*
G01*
X81368151Y-63665195D02*
G75*
G03*
X81368102Y-63903356I119049J-119105D01*
G01*
X80533763Y-64499583D02*
G75*
G03*
X80533754Y-64737808I119137J-119117D01*
G01*
X81189069Y-64320504D02*
G75*
G02*
X80950957Y-64320504I-119056J119058D01*
G01*
X80354785Y-65154994D02*
G75*
G02*
X80116569Y-65154994I-119108J119109D01*
G01*
%TO.N,/OrangePi 5 pro Header/USB_SBCF.D-*%
X81097805Y-61602195D02*
X80800000Y-61900000D01*
X81097805Y-61398500D02*
X81097805Y-61602195D01*
%TO.N,/OrangePi 5 pro Header/USB_SBCF.D+*%
X81427807Y-61527807D02*
X81800000Y-61900000D01*
X81427807Y-61398500D02*
X81427807Y-61527807D01*
%TO.N,/DIN41612 connector/USB_DEBUG.D-*%
X81097805Y-63468849D02*
X81097805Y-63197805D01*
X81097805Y-63197805D02*
X80800000Y-62900000D01*
D81*
%TO.N,/5v buck/5V_PHASE*%
X106975000Y-106287500D02*
X106975000Y-105150000D01*
X106975000Y-105150000D02*
X106900000Y-105075000D01*
%TO.N,GND*%
X107900000Y-44200000D02*
X107400000Y-44700000D01*
X94700000Y-63400000D02*
X93900000Y-63400000D01*
X112700000Y-72360000D02*
X111925000Y-72360000D01*
X120300000Y-43800000D02*
X121000000Y-43800000D01*
X85200000Y-70000000D02*
X86706307Y-70000000D01*
X117750000Y-82762500D02*
X117750000Y-82050000D01*
X127167800Y-64832200D02*
X127200000Y-64800000D01*
X114000000Y-70900000D02*
X114000000Y-69950000D01*
X94770000Y-54170000D02*
X94800000Y-54200000D01*
X114000000Y-69950000D02*
X114325000Y-69950000D01*
X110600000Y-54800000D02*
X110540000Y-54740000D01*
X108300000Y-78200000D02*
X108100000Y-78400000D01*
X123970000Y-87830000D02*
X124000000Y-87800000D01*
X116250000Y-69050000D02*
X117600000Y-69050000D01*
X119600000Y-94400000D02*
X119250000Y-94050000D01*
X109100000Y-121880900D02*
X109100000Y-121200000D01*
X115600000Y-70660000D02*
X115600000Y-71400000D01*
X98070000Y-54130000D02*
X98000000Y-54200000D01*
X120300000Y-41600000D02*
X121000000Y-41600000D01*
X97362500Y-62902500D02*
X98502500Y-62902500D01*
X108925000Y-123143400D02*
X108925000Y-124268400D01*
X94700000Y-61500000D02*
X94000000Y-61500000D01*
X42800000Y-124900000D02*
X41600000Y-124900000D01*
X110450000Y-90850000D02*
X110400000Y-90800000D01*
X98070000Y-50410000D02*
X98070000Y-49730000D01*
X110500000Y-104575000D02*
X110400000Y-104475000D01*
X95975000Y-103025000D02*
X96000000Y-103000000D01*
X122450000Y-60125000D02*
X122250000Y-59925000D01*
X111925000Y-72360000D02*
X111925000Y-72375000D01*
X108300000Y-76800000D02*
X108300000Y-78200000D01*
X101450000Y-123100000D02*
X101450000Y-122003183D01*
X108200000Y-43400000D02*
X107900000Y-43700000D01*
X106365000Y-72965000D02*
X106400000Y-73000000D01*
X111925000Y-72375000D02*
X111335000Y-72965000D01*
X96470000Y-49470000D02*
X96400000Y-49400000D01*
X111375000Y-102575000D02*
X111400000Y-102600000D01*
X94700000Y-62400000D02*
X93900000Y-62400000D01*
X98900000Y-125300000D02*
X99650000Y-124550000D01*
X110193400Y-124593400D02*
X108600000Y-124593400D01*
X117687501Y-82762500D02*
X117750000Y-82762500D01*
X104100000Y-125300000D02*
X104200000Y-125400000D01*
X114750000Y-82762500D02*
X114750000Y-82050000D01*
X101450000Y-122003183D02*
X101625000Y-121828183D01*
X112837500Y-90850000D02*
X110450000Y-90850000D01*
X107900000Y-43700000D02*
X107400000Y-43700000D01*
X97600000Y-46900000D02*
X97500000Y-46800000D01*
X112575000Y-104123988D02*
X112575000Y-104875000D01*
X97750000Y-67450000D02*
X97500000Y-67450000D01*
X114750000Y-82050000D02*
X114800000Y-82000000D01*
X95975000Y-104425000D02*
X95975000Y-103025000D01*
X103540000Y-49200000D02*
X103000000Y-49200000D01*
X98800000Y-125300000D02*
X98100000Y-125300000D01*
X106343270Y-125300000D02*
X105700000Y-125300000D01*
X94800000Y-64600000D02*
X95300000Y-65100000D01*
X108200000Y-44200000D02*
X107900000Y-44200000D01*
X98502500Y-62902500D02*
X98600000Y-63000000D01*
X113250000Y-84262500D02*
X112462500Y-84262500D01*
X108420000Y-49380000D02*
X108420000Y-50890000D01*
X120050000Y-58325000D02*
X118875000Y-58325000D01*
X117750000Y-82050000D02*
X117800000Y-82000000D01*
X119250000Y-94050000D02*
X119250000Y-92762500D01*
X118800000Y-59200000D02*
X118800000Y-58400000D01*
X110178401Y-45955997D02*
X110178401Y-46978401D01*
X118686128Y-127000000D02*
X118686128Y-125657500D01*
X126950000Y-67750000D02*
X124610000Y-67750000D01*
X96470000Y-50690000D02*
X96470000Y-49470000D01*
X98070000Y-53370000D02*
X98070000Y-54130000D01*
X103400000Y-125300000D02*
X104100000Y-125300000D01*
X114750000Y-84437500D02*
X114750000Y-82762500D01*
X112228000Y-109000000D02*
X112000000Y-108772000D01*
X120300000Y-42800000D02*
X121000000Y-42800000D01*
X111978000Y-108750000D02*
X112000000Y-108772000D01*
X115465000Y-68810000D02*
X115600000Y-68810000D01*
X109100000Y-121200000D02*
X109200000Y-121100000D01*
X98800000Y-125300000D02*
X98900000Y-125300000D01*
X116010000Y-68810000D02*
X116250000Y-69050000D01*
X108925000Y-124268400D02*
X108600000Y-124593400D01*
X115600000Y-68810000D02*
X116010000Y-68810000D01*
X111335000Y-72965000D02*
X110175000Y-72965000D01*
X118875000Y-58325000D02*
X118800000Y-58400000D01*
X97500000Y-46800000D02*
X97500000Y-46000000D01*
X112462500Y-84262500D02*
X112400000Y-84200000D01*
X107886467Y-103975000D02*
X107575000Y-103975000D01*
X123200000Y-87830000D02*
X123970000Y-87830000D01*
X123495000Y-59305000D02*
X123495000Y-60125000D01*
X108600000Y-124593400D02*
X107049870Y-124593400D01*
X110900000Y-125300000D02*
X110193400Y-124593400D01*
X113600000Y-109000000D02*
X112228000Y-109000000D01*
X99650000Y-124550000D02*
X101125000Y-124550000D01*
X116578401Y-46978401D02*
X116600000Y-47000000D01*
X110387500Y-108750000D02*
X111978000Y-108750000D01*
X111000000Y-125300000D02*
X111700000Y-125300000D01*
X127000000Y-67800000D02*
X126950000Y-67750000D01*
X103400000Y-125300000D02*
X102650000Y-124550000D01*
X116750000Y-83700001D02*
X117687501Y-82762500D01*
X122500000Y-92400000D02*
X122500000Y-94200000D01*
X126350000Y-64832200D02*
X127167800Y-64832200D01*
X98100000Y-125300000D02*
X98000000Y-125400000D01*
X116000000Y-65000000D02*
X116150000Y-65150000D01*
X105700000Y-125300000D02*
X105600000Y-125400000D01*
X126950000Y-69050000D02*
X124610000Y-69050000D01*
X86706307Y-70000000D02*
X87132806Y-69573501D01*
X116150000Y-65150000D02*
X117600000Y-65150000D01*
X117600000Y-68400000D02*
X117600000Y-69050000D01*
X120300000Y-40600000D02*
X121000000Y-40600000D01*
X108925000Y-123143400D02*
X108925000Y-122055900D01*
X98070000Y-49730000D02*
X98200000Y-49600000D01*
X116750000Y-84437500D02*
X116750000Y-83700001D01*
X108600000Y-49200000D02*
X108420000Y-49380000D01*
X116600000Y-49950000D02*
X116600000Y-51200000D01*
X114325000Y-69950000D02*
X115465000Y-68810000D01*
X95300000Y-65100000D02*
X95300000Y-65750000D01*
X94770000Y-52890000D02*
X94770000Y-54170000D01*
X110500000Y-105200000D02*
X110500000Y-104575000D01*
X102650000Y-124550000D02*
X101125000Y-124550000D01*
X111700000Y-125300000D02*
X111800000Y-125400000D01*
X105025000Y-72965000D02*
X106365000Y-72965000D01*
X103700000Y-49040000D02*
X103540000Y-49200000D01*
X110540000Y-54740000D02*
X109800000Y-54740000D01*
X110178401Y-46978401D02*
X110200000Y-47000000D01*
X108925000Y-122055900D02*
X109100000Y-121880900D01*
X127000000Y-69000000D02*
X126950000Y-69050000D01*
X98600000Y-66600000D02*
X97750000Y-67450000D01*
X95500000Y-46900000D02*
X95500000Y-46000000D01*
X116578401Y-45955997D02*
X116578401Y-46978401D01*
X108284125Y-104372658D02*
X107886467Y-103975000D01*
X111000000Y-125300000D02*
X110900000Y-125300000D01*
X119600000Y-95000000D02*
X119600000Y-94400000D01*
X113600000Y-49800000D02*
X114800000Y-49800000D01*
X109575000Y-102575000D02*
X111375000Y-102575000D01*
X107049870Y-124593400D02*
X106343270Y-125300000D01*
X101625000Y-121858633D02*
X101625000Y-121177733D01*
X123495000Y-60125000D02*
X122450000Y-60125000D01*
%TO.N,+5V*%
X114000000Y-68050000D02*
X112650000Y-68050000D01*
X100625000Y-121828183D02*
X100625000Y-121254902D01*
X88700000Y-119700000D02*
X88800000Y-119600000D01*
X98567500Y-61632500D02*
X98600000Y-61600000D01*
X100625000Y-121254902D02*
X100622932Y-121252834D01*
X84500000Y-119700000D02*
X88700000Y-119700000D01*
X81250000Y-122950000D02*
X84500000Y-119700000D01*
X108275000Y-123143400D02*
X108275000Y-122055900D01*
X97362500Y-61632500D02*
X98567500Y-61632500D01*
X108100000Y-121880900D02*
X108100000Y-121250000D01*
X112650000Y-68050000D02*
X112600000Y-68000000D01*
X67225000Y-122950000D02*
X81250000Y-122950000D01*
X117600000Y-67750000D02*
X114550000Y-67750000D01*
X108275000Y-122055900D02*
X108100000Y-121880900D01*
X95932500Y-61632500D02*
X97362500Y-61632500D01*
X95700000Y-61400000D02*
X95932500Y-61632500D01*
X100800000Y-122003183D02*
X100625000Y-121828183D01*
X100800000Y-123100000D02*
X100800000Y-122003183D01*
%TO.N,+3V3*%
X99400000Y-45400000D02*
X99000000Y-45000000D01*
X116750000Y-82762500D02*
X116250000Y-83262500D01*
X115750000Y-82762500D02*
X115750000Y-82050000D01*
X95000000Y-45000000D02*
X94600000Y-45400000D01*
X99000000Y-45000000D02*
X98500000Y-45000000D01*
X100150000Y-126000000D02*
X100150000Y-126218203D01*
X109800000Y-55740000D02*
X110540000Y-55740000D01*
X119750000Y-92762500D02*
X119750000Y-93550000D01*
X108520000Y-55740000D02*
X108420000Y-55840000D01*
X119750000Y-93550000D02*
X120400000Y-94200000D01*
X121500000Y-91500000D02*
X121500000Y-92400000D01*
X115750000Y-82762500D02*
X115750000Y-84437500D01*
X98100000Y-126300000D02*
X98000000Y-126200000D01*
X121500000Y-92100000D02*
X121500000Y-93400000D01*
X98800000Y-126300000D02*
X98100000Y-126300000D01*
X100150000Y-126218203D02*
X100123203Y-126245000D01*
X111220000Y-95000000D02*
X110200000Y-95000000D01*
X107625000Y-126043400D02*
X107625000Y-126337640D01*
X112050000Y-91350000D02*
X111350000Y-92050000D01*
X121162500Y-91350000D02*
X121350000Y-91350000D01*
X107625000Y-126337640D02*
X107592792Y-126305432D01*
X121500000Y-93400000D02*
X121500000Y-94100000D01*
X105700000Y-126300000D02*
X105600000Y-126200000D01*
X107592792Y-126305432D02*
X106343270Y-126305432D01*
X122297500Y-91350000D02*
X122837500Y-90810000D01*
X116750000Y-82050000D02*
X116800000Y-82000000D01*
X116250000Y-83262500D02*
X116250000Y-84437500D01*
X116250000Y-84437500D02*
X115750000Y-84437500D01*
X112392263Y-83262500D02*
X112385770Y-83256007D01*
X110450000Y-92050000D02*
X110400000Y-92000000D01*
X106343270Y-126300000D02*
X105700000Y-126300000D01*
X111350000Y-92050000D02*
X111250000Y-92050000D01*
X113250000Y-83262500D02*
X112392263Y-83262500D01*
X111250000Y-92050000D02*
X110450000Y-92050000D01*
X100123203Y-126245000D02*
X98800000Y-126245000D01*
X110540000Y-55740000D02*
X110600000Y-55800000D01*
X113250000Y-83262500D02*
X114250000Y-84262500D01*
X109800000Y-55740000D02*
X108520000Y-55740000D01*
X121500000Y-94100000D02*
X121400000Y-94200000D01*
X112837500Y-91350000D02*
X112050000Y-91350000D01*
X111220000Y-96800000D02*
X110200000Y-96800000D01*
X123200000Y-90810000D02*
X122837500Y-90810000D01*
X121350000Y-91350000D02*
X121500000Y-91500000D01*
X114250000Y-84262500D02*
X114250000Y-84437500D01*
X120500000Y-94900000D02*
X120600000Y-95000000D01*
X120500000Y-94200000D02*
X120500000Y-94900000D01*
X115750000Y-82050000D02*
X115800000Y-82000000D01*
X116750000Y-82762500D02*
X116750000Y-82050000D01*
X95500000Y-45000000D02*
X95000000Y-45000000D01*
X121162500Y-91350000D02*
X122297500Y-91350000D01*
%TO.N,/5v buck/5V_OUT*%
X110525000Y-106050000D02*
X110525000Y-106025000D01*
X112000000Y-106875000D02*
X111327637Y-106875000D01*
X109925000Y-106287500D02*
X110262500Y-106287500D01*
X111327637Y-106875000D02*
X111312014Y-106890623D01*
X110525000Y-106050000D02*
X110512500Y-106050000D01*
X110262500Y-106287500D02*
X111675000Y-104875000D01*
%TO.N,/USB-CAN/NRST1*%
X122349999Y-88800000D02*
X121899999Y-88350000D01*
X121899999Y-88350000D02*
X121162500Y-88350000D01*
X123200000Y-88790000D02*
X123200000Y-89790000D01*
X123200000Y-88790000D02*
X122410000Y-88790000D01*
X122400000Y-88800000D02*
X122349999Y-88800000D01*
X122410000Y-88790000D02*
X122400000Y-88800000D01*
%TO.N,Net-(Q1-G)*%
X118543628Y-122420000D02*
X116380000Y-122420000D01*
X118686128Y-123382500D02*
X118686128Y-122562500D01*
X114700000Y-124700000D02*
X113700000Y-125700000D01*
X115800000Y-123000000D02*
X115800000Y-124400000D01*
X113700000Y-125700000D02*
X113286128Y-125700000D01*
X118686128Y-122562500D02*
X118543628Y-122420000D01*
X115500000Y-124700000D02*
X114700000Y-124700000D01*
X115800000Y-124400000D02*
X115500000Y-124700000D01*
X116380000Y-122420000D02*
X115800000Y-123000000D01*
D82*
%TO.N,/Can Transiver/CAN_TR_OUT.C+*%
X108925000Y-126043400D02*
X108925000Y-127139999D01*
X108925000Y-127139999D02*
X109910000Y-128124999D01*
%TO.N,/Can Transiver1/CAN_TR_OUT.C-*%
X100800000Y-127074999D02*
X99750000Y-128124999D01*
X100800000Y-126000000D02*
X100800000Y-127074999D01*
%TO.N,/Can Transiver1/CAN_TR_OUT.C+*%
X101450000Y-126000000D02*
X101450000Y-127284999D01*
X101450000Y-127284999D02*
X102290000Y-128124999D01*
D81*
%TO.N,/FAN controller/FAN_PWM*%
X83562500Y-114237500D02*
X83562500Y-108437500D01*
X79400000Y-118400000D02*
X83562500Y-114237500D01*
X85600000Y-106400000D02*
X88000000Y-106400000D01*
X70487500Y-118400000D02*
X79400000Y-118400000D01*
X88000000Y-106400000D02*
X89266499Y-105133501D01*
X89266499Y-105133501D02*
X89672806Y-105133501D01*
X83562500Y-108437500D02*
X85600000Y-106400000D01*
%TO.N,/USB-CAN/SWDIO1*%
X114250000Y-91600000D02*
X114250000Y-92762500D01*
%TO.N,/USB-CAN/SWCLK1*%
X115175001Y-91600000D02*
X114750000Y-92025001D01*
X114750000Y-92025001D02*
X114750000Y-92762500D01*
X116439401Y-91600000D02*
X115175001Y-91600000D01*
%TO.N,/Can Transiver/CAN_TR.RXD*%
X107625000Y-122425000D02*
X107200000Y-122000000D01*
X107625000Y-123143400D02*
X107625000Y-122425000D01*
D82*
%TO.N,/Can Transiver/CAN_TR_OUT.C-*%
X108275000Y-126043400D02*
X108275000Y-127219999D01*
X108275000Y-127219999D02*
X107370000Y-128124999D01*
D81*
%TO.N,/Can Transiver/CAN_TR.TXD*%
X109575000Y-123143400D02*
X109575000Y-122425000D01*
X109575000Y-122425000D02*
X110000000Y-122000000D01*
%TO.N,/Can Transiver1/CAN_TR.RXD*%
X117500000Y-96200000D02*
X117500000Y-95400000D01*
X118250000Y-94650000D02*
X118250000Y-92762500D01*
X100150000Y-123100000D02*
X100150000Y-122350000D01*
X117500000Y-95400000D02*
X118250000Y-94650000D01*
X100150000Y-122350000D02*
X99800000Y-122000000D01*
%TO.N,/Can Transiver1/CAN_TR.TXD*%
X119100000Y-95500000D02*
X118750000Y-95150000D01*
X118750000Y-95150000D02*
X118750000Y-92762500D01*
X102100000Y-123100000D02*
X102100000Y-122500000D01*
X102100000Y-122500000D02*
X102600000Y-122000000D01*
X119100000Y-96200000D02*
X119100000Y-95500000D01*
D80*
%TO.N,/DIN41612 connector/USB_DEBUG.D-*%
X44675000Y-124325000D02*
X42855000Y-126145000D01*
X79331654Y-65235000D02*
X45531654Y-65235000D01*
X81097805Y-63468849D02*
X79331654Y-65235000D01*
X42855000Y-126145000D02*
X42855000Y-128545426D01*
X44231654Y-116265000D02*
X44675000Y-116708346D01*
X41131654Y-116265000D02*
X44231654Y-116265000D01*
X40235000Y-115368346D02*
X41131654Y-116265000D01*
X42855000Y-128545426D02*
X43449573Y-129139999D01*
%TO.N,/OrangePi 5 pro Header/USB_SBCF.D-*%
X79992806Y-60293501D02*
X81097805Y-61398500D01*
%TO.N,/DIN41612 connector/USB_DEBUG.D-*%
X45395000Y-129139999D02*
X46410000Y-128124999D01*
X45531654Y-65235000D02*
X40235000Y-70531654D01*
X40235000Y-70531654D02*
X40235000Y-115368346D01*
X43449573Y-129139999D02*
X45395000Y-129139999D01*
X44675000Y-116708346D02*
X44675000Y-124325000D01*
%TO.N,/OrangePi 5 pro Header/USB_OUT.D-*%
X81097805Y-56648502D02*
X79992806Y-57753501D01*
X89968346Y-54235000D02*
X82131654Y-54235000D01*
X96750000Y-60362500D02*
X96597500Y-60515000D01*
X81097805Y-55268849D02*
X81097805Y-56648502D01*
X96248346Y-60515000D02*
X89968346Y-54235000D01*
X97362500Y-60362500D02*
X96750000Y-60362500D01*
X96597500Y-60515000D02*
X96248346Y-60515000D01*
X82131654Y-54235000D02*
X81097805Y-55268849D01*
D81*
%TO.N,/DIN41612 connector/5v_STDBY*%
X115372102Y-125700000D02*
X115186128Y-125700000D01*
X120538628Y-124602500D02*
X120936128Y-125000000D01*
X115909602Y-125700000D02*
X115186128Y-125700000D01*
X116469602Y-123679026D02*
X116469602Y-124602500D01*
X117736128Y-123382500D02*
X116766128Y-123382500D01*
X115909602Y-125162500D02*
X115909602Y-125700000D01*
X116469602Y-124602500D02*
X115909602Y-125162500D01*
X116766128Y-123382500D02*
X116469602Y-123679026D01*
X116469602Y-124602500D02*
X120538628Y-124602500D01*
%TO.N,Net-(U11-V3)*%
X104610000Y-50890000D02*
X104610000Y-49130000D01*
X104610000Y-49130000D02*
X104700000Y-49040000D01*
%TO.N,Net-(U11-XI)*%
X100670000Y-52090000D02*
X100470000Y-52290000D01*
X97070000Y-52290000D02*
X96470000Y-52890000D01*
X100470000Y-52290000D02*
X97070000Y-52290000D01*
X100670000Y-50890000D02*
X100670000Y-52090000D01*
%TO.N,Net-(U11-XO)*%
X99400000Y-51560000D02*
X99270000Y-51690000D01*
X99270000Y-51690000D02*
X99220000Y-51640000D01*
X99220000Y-51640000D02*
X95720000Y-51640000D01*
X99400000Y-50890000D02*
X99400000Y-51560000D01*
X95720000Y-51640000D02*
X94770000Y-50690000D01*
D80*
%TO.N,/OrangePi 5 pro Header/USB_OUT.D+*%
X81427807Y-55405539D02*
X81427807Y-56648502D01*
X97362500Y-60997500D02*
X96750000Y-60997500D01*
X89831654Y-54565000D02*
X82268346Y-54565000D01*
X81427807Y-56648502D02*
X82532806Y-57753501D01*
X82268346Y-54565000D02*
X81427807Y-55405539D01*
X96111654Y-60845000D02*
X89831654Y-54565000D01*
X96597500Y-60845000D02*
X96111654Y-60845000D01*
X96750000Y-60997500D02*
X96597500Y-60845000D01*
D81*
%TO.N,/DIN41612 connector/24v*%
X87050000Y-128124999D02*
X87050000Y-133204999D01*
D80*
%TO.N,/DIN41612 connector/USB_DEBUG.D+*%
X45322151Y-118862730D02*
X45293000Y-118862730D01*
X45005000Y-123205000D02*
X45005000Y-122750730D01*
X44500000Y-127500000D02*
X44500000Y-125000000D01*
X43900000Y-128100000D02*
X44500000Y-127500000D01*
X42831325Y-68967705D02*
X42965675Y-68833354D01*
X45322147Y-121742730D02*
X45293000Y-121742730D01*
X44500000Y-125000000D02*
X45000000Y-124500000D01*
X45500000Y-124500000D02*
X45700000Y-124300000D01*
X45005000Y-116571654D02*
X44368346Y-115935000D01*
X45005000Y-121454730D02*
X45005000Y-121310730D01*
X40565000Y-115231654D02*
X40565000Y-70668346D01*
%TO.N,/OrangePi 5 pro Header/USB_SBCF.D+*%
X82532806Y-60293501D02*
X81427807Y-61398500D01*
%TO.N,/DIN41612 connector/USB_DEBUG.D+*%
X43800062Y-67433281D02*
X43934414Y-67298931D01*
X45322147Y-120302730D02*
X45293000Y-120302730D01*
X40565000Y-70668346D02*
X42265641Y-68967705D01*
X43934414Y-67298931D02*
X44311496Y-66921850D01*
X45700000Y-123500000D02*
X45500000Y-123300000D01*
X45500000Y-123300000D02*
X45100000Y-123300000D01*
X45100000Y-123300000D02*
X45005000Y-123205000D01*
X45005000Y-117900000D02*
X45005000Y-116571654D01*
X43100027Y-68133318D02*
X43100028Y-68133318D01*
X45005000Y-120014730D02*
X45005000Y-119870730D01*
X45293000Y-122462730D02*
X45322147Y-122462730D01*
X45005000Y-118430730D02*
X45005000Y-117900000D01*
X42965675Y-68267668D02*
X43100027Y-68133318D01*
X45000000Y-124500000D02*
X45500000Y-124500000D01*
X45005000Y-118574730D02*
X45005000Y-118430730D01*
X43665712Y-68133318D02*
X43800062Y-67998967D01*
X45293000Y-119582730D02*
X45322151Y-119582730D01*
X45700000Y-124300000D02*
X45700000Y-123500000D01*
X41268346Y-115935000D02*
X40565000Y-115231654D01*
X44368346Y-115935000D02*
X41268346Y-115935000D01*
X45610147Y-120734730D02*
X45610147Y-120590730D01*
X45610147Y-122174730D02*
X45610147Y-122030730D01*
X45610151Y-119294730D02*
X45610151Y-119150730D01*
X45293000Y-121022730D02*
X45322147Y-121022730D01*
X45005000Y-119870730D02*
G75*
G02*
X45293000Y-119582700I288000J30D01*
G01*
X43382870Y-68133318D02*
G75*
G03*
X43665712Y-68133318I141421J141423D01*
G01*
X45293000Y-118862730D02*
G75*
G02*
X45004970Y-118574730I0J288030D01*
G01*
X43100028Y-68133318D02*
G75*
G02*
X43382870Y-68133318I141421J-141423D01*
G01*
X45005000Y-121310730D02*
G75*
G02*
X45293000Y-121022700I288000J30D01*
G01*
X42965675Y-68550511D02*
G75*
G02*
X42965685Y-68267679I141425J141411D01*
G01*
X45610151Y-119150730D02*
G75*
G03*
X45322151Y-118862749I-287951J30D01*
G01*
X45610147Y-122030730D02*
G75*
G03*
X45322147Y-121742653I-288047J30D01*
G01*
X43800062Y-67716124D02*
G75*
G02*
X43800059Y-67433279I141438J141424D01*
G01*
X45322147Y-121022730D02*
G75*
G03*
X45610130Y-120734730I-47J288030D01*
G01*
X45293000Y-121742730D02*
G75*
G02*
X45004970Y-121454730I0J288030D01*
G01*
X43800062Y-67998967D02*
G75*
G03*
X43800108Y-67716079I-141462J141467D01*
G01*
X45322147Y-122462730D02*
G75*
G03*
X45610130Y-122174730I-47J288030D01*
G01*
X45293000Y-120302730D02*
G75*
G02*
X45004970Y-120014730I0J288030D01*
G01*
X42965675Y-68833354D02*
G75*
G03*
X42965708Y-68550478I-141375J141454D01*
G01*
X45610147Y-120590730D02*
G75*
G03*
X45322147Y-120302653I-288047J30D01*
G01*
X42548483Y-68967705D02*
G75*
G03*
X42831325Y-68967705I141421J141423D01*
G01*
X45005000Y-122750730D02*
G75*
G02*
X45293000Y-122462700I288000J30D01*
G01*
X45322151Y-119582730D02*
G75*
G03*
X45610230Y-119294730I49J288030D01*
G01*
X42265641Y-68967705D02*
G75*
G02*
X42548483Y-68967705I141421J-141423D01*
G01*
D81*
%TO.N,/CH340_DEBUG/UART_DEBUG.TX*%
X90800000Y-106400000D02*
X89000000Y-106400000D01*
X91800000Y-105400000D02*
X90800000Y-106400000D01*
X88400000Y-107000000D02*
X88400000Y-109800000D01*
X105232200Y-48133000D02*
X105239200Y-48140000D01*
X89000000Y-106400000D02*
X88400000Y-107000000D01*
X88400000Y-109800000D02*
X88813501Y-110213501D01*
X91800000Y-101000000D02*
X91800000Y-105400000D01*
X105239200Y-48140000D02*
X106000000Y-48140000D01*
X88813501Y-110213501D02*
X89672806Y-110213501D01*
%TO.N,/CH340_DEBUG/UART_DEBUG.RX*%
X92800000Y-103000000D02*
X92800000Y-105800000D01*
X107780846Y-48094535D02*
X107735381Y-48140000D01*
X107735381Y-48140000D02*
X107000000Y-48140000D01*
X95900000Y-101000000D02*
X94800000Y-101000000D01*
X90926499Y-107673501D02*
X89672806Y-107673501D01*
X92800000Y-105800000D02*
X90926499Y-107673501D01*
X94800000Y-101000000D02*
X92800000Y-103000000D01*
%TO.N,/OrangePi 5 pro Header/ON OFF BTN*%
X96600000Y-46100000D02*
X96500000Y-46000000D01*
X96500000Y-46000000D02*
X96500000Y-44000000D01*
X96600000Y-47000000D02*
X96600000Y-46100000D01*
%TO.N,/OrangePi 5 pro Header/USER BUTTON*%
X97500000Y-45000000D02*
X98500000Y-46000000D01*
X98600000Y-46100000D02*
X98500000Y-46000000D01*
X98600000Y-47000000D02*
X98600000Y-46100000D01*
X98500000Y-44000000D02*
X97500000Y-45000000D01*
%TO.N,/5v buck/5V_BOOT*%
X107425000Y-105550000D02*
X107900000Y-105075000D01*
X107425000Y-106287500D02*
X107425000Y-105550000D01*
%TO.N,Net-(D3-Pad1)*%
X113000000Y-96600000D02*
X112800000Y-96800000D01*
X114260000Y-96600000D02*
X113000000Y-96600000D01*
%TO.N,/Panel USB/VBUS_IN*%
X111200000Y-44805026D02*
X111200000Y-45734398D01*
X115778401Y-47228401D02*
X116600000Y-48050000D01*
X115778401Y-45955997D02*
X115778401Y-47228401D01*
X111200000Y-45734398D02*
X110978401Y-45955997D01*
X115778401Y-45569299D02*
X115778401Y-45955997D01*
X115300000Y-44800000D02*
X115300000Y-45090898D01*
X115300000Y-45090898D02*
X115778401Y-45569299D01*
X111496446Y-44296446D02*
X111496446Y-44508580D01*
X111496446Y-44508580D02*
X111200000Y-44805026D01*
%TO.N,Net-(U4-VCAP)*%
X98175000Y-104940000D02*
X97440000Y-104940000D01*
X97440000Y-104940000D02*
X96925000Y-104425000D01*
%TO.N,Net-(U5-VCAP)*%
X117641128Y-125562500D02*
X117736128Y-125657500D01*
X116469602Y-125562500D02*
X117641128Y-125562500D01*
%TO.N,/5v buck/5V_EN*%
X109475000Y-105475000D02*
X109675000Y-105275000D01*
X106775000Y-101875000D02*
X107675000Y-101875000D01*
X106675000Y-102975000D02*
X107575000Y-102975000D01*
X109475000Y-106287500D02*
X109475000Y-105475000D01*
D83*
%TO.N,Net-(U8-+)*%
X113280000Y-74235000D02*
X113305000Y-74210000D01*
X110175000Y-74235000D02*
X113280000Y-74235000D01*
D84*
%TO.N,Net-(U8-V)*%
X110175000Y-71695000D02*
X110175000Y-68825000D01*
X110800000Y-64600000D02*
X108300000Y-62100000D01*
X111590000Y-71695000D02*
X111925000Y-71360000D01*
X110800000Y-67040000D02*
X110800000Y-64600000D01*
X110800000Y-68200000D02*
X110800000Y-67040000D01*
X108300000Y-62100000D02*
X108300000Y-62040000D01*
X110300000Y-71570000D02*
X110175000Y-71695000D01*
X110175000Y-68825000D02*
X110800000Y-68200000D01*
X110175000Y-71695000D02*
X111590000Y-71695000D01*
D81*
%TO.N,Net-(U9-XTI)*%
X122250000Y-58325000D02*
X123925000Y-58325000D01*
X123925000Y-58325000D02*
X124495000Y-58895000D01*
X124610000Y-61900000D02*
X124610000Y-60240000D01*
X124610000Y-60240000D02*
X124495000Y-60125000D01*
X124495000Y-58895000D02*
X124495000Y-60125000D01*
%TO.N,Net-(U9-XTO)*%
X117600000Y-60800000D02*
X118200000Y-60200000D01*
X117600000Y-61900000D02*
X117600000Y-60800000D01*
X118200000Y-60200000D02*
X118800000Y-60200000D01*
X118800000Y-60200000D02*
X119775000Y-60200000D01*
X119775000Y-60200000D02*
X120050000Y-59925000D01*
%TO.N,Net-(U10-VDD33)*%
X97362500Y-62267500D02*
X95832500Y-62267500D01*
X95700000Y-62400000D02*
X95700000Y-63400000D01*
X95832500Y-62267500D02*
X95700000Y-62400000D01*
%TO.N,Net-(D1-Pad1)*%
X114250000Y-95200000D02*
X113000000Y-95200000D01*
X113000000Y-95200000D02*
X112800000Y-95000000D01*
D83*
%TO.N,Net-(J3-Pin_1)*%
X102905000Y-71695000D02*
X100000000Y-74600000D01*
X105025000Y-71695000D02*
X102905000Y-71695000D01*
%TO.N,Net-(J3-Pin_2)*%
X103295000Y-75505000D02*
X101700000Y-77100000D01*
X101700000Y-77100000D02*
X100000000Y-77100000D01*
X105025000Y-75505000D02*
X103295000Y-75505000D01*
D81*
%TO.N,Net-(Q4-G)*%
X69487500Y-117300000D02*
X69487500Y-118400000D01*
X67937500Y-118400000D02*
X67737500Y-118200000D01*
X69487500Y-118400000D02*
X67937500Y-118400000D01*
%TO.N,/5v buck/V_{IN}*%
X73325000Y-125900000D02*
X71525000Y-124100000D01*
X90700000Y-125900000D02*
X73325000Y-125900000D01*
X90800000Y-126000000D02*
X90700000Y-125900000D01*
X71525000Y-124100000D02*
X67225000Y-124100000D01*
%TO.N,Net-(U6-STB)*%
X109577049Y-126330384D02*
X109607433Y-126300000D01*
X109607433Y-126300000D02*
X111000000Y-126300000D01*
X110900000Y-126400000D02*
X111000000Y-126300000D01*
X109575000Y-126043400D02*
X109575000Y-126328335D01*
X109575000Y-126328335D02*
X109577049Y-126330384D01*
%TO.N,Net-(U7-STB)*%
X102126002Y-126250000D02*
X103400000Y-126250000D01*
X102100955Y-126275047D02*
X102126002Y-126250000D01*
X102100000Y-126274092D02*
X102100955Y-126275047D01*
X102100000Y-126000000D02*
X102100000Y-126274092D01*
D84*
%TO.N,Net-(U9-VOUTL)*%
X117600000Y-70350000D02*
X117600000Y-71855000D01*
D81*
%TO.N,Net-(U9-VOUTR)*%
X124600000Y-70360000D02*
X124610000Y-70350000D01*
X124600000Y-71000000D02*
X124600000Y-70360000D01*
X121560000Y-72160000D02*
X121600000Y-72200000D01*
X120905000Y-72160000D02*
X121560000Y-72160000D01*
D84*
%TO.N,Net-(U9-DT)*%
X117600000Y-63200000D02*
X115940049Y-63200000D01*
X115940049Y-63200000D02*
X115773846Y-63033797D01*
D81*
%TO.N,/USB-CAN/STAT_LED*%
X115270000Y-95200000D02*
X115270000Y-92782500D01*
X115270000Y-92782500D02*
X115250000Y-92762500D01*
%TO.N,/USB-CAN/WORD_LED*%
X119400000Y-86400000D02*
X119400000Y-87500000D01*
X119400000Y-87500000D02*
X119750000Y-87850000D01*
X121173592Y-87861092D02*
X121162500Y-87850000D01*
X115280000Y-96600000D02*
X116200000Y-96600000D01*
X119750000Y-87850000D02*
X121162500Y-87850000D01*
%TO.N,Net-(U10-XI)*%
X97500000Y-64310000D02*
X97362500Y-64172500D01*
X97500000Y-65750000D02*
X97500000Y-64310000D01*
%TO.N,Net-(U10-XO)*%
X96300000Y-66600000D02*
X95450000Y-67450000D01*
X96300000Y-63924754D02*
X96300000Y-66600000D01*
X96687254Y-63537500D02*
X96300000Y-63924754D01*
X95450000Y-67450000D02*
X95300000Y-67450000D01*
X97362500Y-63537500D02*
X96687254Y-63537500D01*
%TO.N,/5v buck/5V_VDD*%
X109775000Y-103475000D02*
X109575000Y-103675000D01*
X111289559Y-107850000D02*
X111290000Y-107849559D01*
X111325000Y-103475000D02*
X110575000Y-103475000D01*
X110387500Y-107850000D02*
X111289559Y-107850000D01*
X110375000Y-103475000D02*
X109775000Y-103475000D01*
%TO.N,/5v buck/5V_VDRV*%
X111400000Y-109600000D02*
X111400000Y-109400000D01*
X111400000Y-109400000D02*
X111200000Y-109200000D01*
X112000000Y-109772000D02*
X111572000Y-109772000D01*
X111200000Y-109200000D02*
X110387500Y-109200000D01*
X111572000Y-109772000D02*
X111400000Y-109600000D01*
%TO.N,/5v buck/BUCK_OUT*%
X93575000Y-105600000D02*
X96756250Y-105600000D01*
X96931250Y-105762500D02*
X96925000Y-105768750D01*
X97375000Y-105762500D02*
X96931250Y-105762500D01*
X97512500Y-105900000D02*
X97375000Y-105762500D01*
X96756250Y-105600000D02*
X96925000Y-105768750D01*
X98175000Y-105900000D02*
X97512500Y-105900000D01*
X96925000Y-105768750D02*
X96925000Y-106700000D01*
%TO.N,/Audio Codec/VDD_{int}*%
X116050003Y-65800000D02*
X116000000Y-65850003D01*
X113200000Y-65700000D02*
X113300000Y-65800000D01*
D84*
X124627800Y-63832200D02*
X124610000Y-63850000D01*
D81*
X113200000Y-65000000D02*
X113200000Y-65700000D01*
D84*
X126350000Y-63832200D02*
X124627800Y-63832200D01*
X117600000Y-63850000D02*
X115957643Y-63850000D01*
D81*
X117600000Y-65800000D02*
X116050003Y-65800000D01*
D84*
X115957643Y-63850000D02*
X115773846Y-64033797D01*
D81*
%TO.N,Net-(LED1-Pad2)*%
X106107998Y-42700000D02*
X105782001Y-43025997D01*
X107400000Y-42700000D02*
X106107998Y-42700000D01*
%TO.N,Net-(LED1-Pad4)*%
X107400000Y-45700000D02*
X105916004Y-45700000D01*
X105916004Y-45700000D02*
X105782001Y-45565997D01*
%TO.N,/5v buck/Pgood*%
X111525441Y-108349559D02*
X112000000Y-107875000D01*
X86000000Y-98800000D02*
X112000000Y-98800000D01*
X85200000Y-98000000D02*
X86000000Y-98800000D01*
X114100000Y-107100000D02*
X113600000Y-107100000D01*
X85200000Y-73000000D02*
X85200000Y-98000000D01*
X113525000Y-107875000D02*
X112000000Y-107875000D01*
X113600000Y-107800000D02*
X113525000Y-107875000D01*
X113600000Y-107100000D02*
X113600000Y-107800000D01*
X110437059Y-108349559D02*
X111525441Y-108349559D01*
X110387500Y-108300000D02*
X110437059Y-108349559D01*
X114200000Y-107000000D02*
X114100000Y-107100000D01*
X114200000Y-101000000D02*
X114200000Y-107000000D01*
X112000000Y-98800000D02*
X114200000Y-101000000D01*
%TO.N,Net-(Q5-C)*%
X120936128Y-126000000D02*
X119978628Y-126000000D01*
X121000000Y-127000000D02*
X121000000Y-126063872D01*
X119150000Y-108144800D02*
X114955000Y-108144800D01*
X121000000Y-126063872D02*
X120936128Y-126000000D01*
X119978628Y-126000000D02*
X119636128Y-125657500D01*
%TO.N,/5v buck/5V_FB*%
X112575000Y-105875000D02*
X111675000Y-105875000D01*
X111462500Y-105875000D02*
X110387500Y-106950000D01*
X111675000Y-105875000D02*
X111462500Y-105875000D01*
%TO.N,/5v buck/5V_MODE1*%
X108575000Y-105025000D02*
X108575000Y-106287500D01*
X108575000Y-103956426D02*
X108784125Y-104165551D01*
X108575000Y-102575000D02*
X108575000Y-103956426D01*
X108784125Y-104165551D02*
X108784125Y-104815875D01*
X108784125Y-104815875D02*
X108575000Y-105025000D01*
%TO.N,/5v buck/5V_MODE2*%
X109400000Y-104700000D02*
X109025000Y-105075000D01*
X109025000Y-105075000D02*
X109025000Y-106287500D01*
%TO.N,Net-(U4-EN)*%
X93575000Y-104600000D02*
X94850000Y-104600000D01*
%TO.N,Net-(BTN1-Pad4)*%
X95500000Y-44000000D02*
X95500000Y-42857596D01*
X95500000Y-42857596D02*
X94458401Y-41815997D01*
%TO.N,Net-(BTN1-Pad3)*%
X96088401Y-41815997D02*
X97500000Y-43227596D01*
X97500000Y-43227596D02*
X97500000Y-44000000D01*
%TO.N,/Audio Codec/VCCL*%
X115640000Y-69700000D02*
X115600000Y-69660000D01*
X117600000Y-69700000D02*
X115640000Y-69700000D01*
D84*
%TO.N,/Audio Codec/VCCR*%
X125950000Y-69700000D02*
X124610000Y-69700000D01*
X126350000Y-70100000D02*
X125950000Y-69700000D01*
%TO.N,/Audio Codec/VCCP*%
X126050000Y-67100000D02*
X124610000Y-67100000D01*
X126350000Y-66800000D02*
X126050000Y-67100000D01*
D81*
%TO.N,Net-(J5-SHIELD)*%
X119300000Y-40600000D02*
X119300000Y-41600000D01*
X119300000Y-41600000D02*
X118097404Y-41600000D01*
X118097404Y-41600000D02*
X117698401Y-41200997D01*
D80*
%TO.N,/USB-CAN/USB_CANF.D+*%
X95531654Y-70035000D02*
X94035000Y-71531654D01*
X95798310Y-90265000D02*
X111646249Y-90265000D01*
X99131654Y-70035000D02*
X95531654Y-70035000D01*
X100035000Y-69131654D02*
X99131654Y-70035000D01*
X94035000Y-71531654D02*
X94035000Y-88501690D01*
X111731249Y-90350000D02*
X112837500Y-90350000D01*
X111646249Y-90265000D02*
X111731249Y-90350000D01*
X94035000Y-88501690D02*
X95798310Y-90265000D01*
D81*
%TO.N,Net-(J2-GPIO4_A6{slash}UART3_RX{slash}I2C5_SCL)*%
X87132806Y-72113501D02*
X85313501Y-72113501D01*
X85200000Y-71000000D02*
X85200000Y-72000000D01*
X85313501Y-72113501D02*
X85200000Y-72000000D01*
%TO.N,Net-(J5-CC1)*%
X115028401Y-43800000D02*
X114628401Y-44200000D01*
X114628401Y-44200000D02*
X114628401Y-45955997D01*
X119300000Y-43800000D02*
X115028401Y-43800000D01*
%TO.N,Net-(J5-D+-PadA6)*%
X112628401Y-46492695D02*
X112628401Y-45955997D01*
X112628401Y-45955997D02*
X112628401Y-45419299D01*
X112628401Y-45419299D02*
X112916703Y-45130997D01*
X112019003Y-46780997D02*
X112340099Y-46780997D01*
X111200000Y-47600000D02*
X112019003Y-46780997D01*
X113340099Y-45130997D02*
X113628401Y-45419299D01*
X113628401Y-45419299D02*
X113628401Y-45955997D01*
X112916703Y-45130997D02*
X113340099Y-45130997D01*
X112340099Y-46780997D02*
X112628401Y-46492695D01*
%TO.N,Net-(J5-D--PadA7)*%
X113910548Y-46710548D02*
X114128401Y-46492695D01*
X113416703Y-46780997D02*
X113840099Y-46780997D01*
X113128401Y-46492695D02*
X113416703Y-46780997D01*
X113840099Y-46780997D02*
X113910548Y-46710548D01*
X114800000Y-47600000D02*
X113910548Y-46710548D01*
X114128401Y-46492695D02*
X114128401Y-45955997D01*
X113128401Y-45955997D02*
X113128401Y-46492695D01*
%TO.N,Net-(J5-CC2)*%
X114000000Y-42800000D02*
X119300000Y-42800000D01*
X111628401Y-45955997D02*
X111628401Y-45171599D01*
X111628401Y-45171599D02*
X114000000Y-42800000D01*
%TO.N,Net-(Q2-G)*%
X97375000Y-113512500D02*
X97312500Y-113450000D01*
X95975000Y-107894800D02*
X95975000Y-106700000D01*
X97375000Y-114700000D02*
X97375000Y-113512500D01*
D80*
%TO.N,/USB HUB/USB_CAN.D-*%
X101013346Y-64020000D02*
X101266249Y-64020000D01*
%TO.N,/USB-CAN/USB_CANF.D-*%
X95377300Y-88648955D02*
X95171519Y-88854735D01*
X95935000Y-89935000D02*
X95567500Y-89567500D01*
X111646249Y-89935000D02*
X95935000Y-89935000D01*
X99268346Y-70365000D02*
X100365000Y-69268346D01*
X111731249Y-89850000D02*
X111646249Y-89935000D01*
X94365000Y-71668346D02*
X95668346Y-70365000D01*
X112837500Y-89850000D02*
X111731249Y-89850000D01*
X94365000Y-87064716D02*
X94365000Y-71668346D01*
X95668346Y-70365000D02*
X99268346Y-70365000D01*
X95773280Y-88728151D02*
X95694084Y-88648955D01*
X94365000Y-88365000D02*
X94365000Y-87064716D01*
X94775540Y-88775540D02*
X94365000Y-88365000D01*
X94854735Y-88854735D02*
X94775540Y-88775540D01*
%TO.N,/USB HUB/USB_CAN.D-*%
X101266249Y-64020000D02*
X101418749Y-64172500D01*
%TO.N,/USB-CAN/USB_CANF.D-*%
X95567500Y-89250716D02*
X95773280Y-89044935D01*
%TO.N,/USB HUB/USB_CAN.D-*%
X100365000Y-64668346D02*
X101013346Y-64020000D01*
X101418749Y-64172500D02*
X102637500Y-64172500D01*
%TO.N,/USB-CAN/USB_CANF.D-*%
X95171519Y-88854735D02*
G75*
G02*
X94854735Y-88854735I-158392J158392D01*
G01*
X95773280Y-89044935D02*
G75*
G03*
X95773323Y-88728108I-158380J158435D01*
G01*
X95694084Y-88648955D02*
G75*
G03*
X95377300Y-88648955I-158392J-158392D01*
G01*
X95567500Y-89567500D02*
G75*
G02*
X95567492Y-89250708I158400J158400D01*
G01*
%TO.N,/CH340_DEBUG/FRONT_PANEL.D-*%
X107929902Y-53405000D02*
X103131654Y-53405000D01*
X109965000Y-52668346D02*
X109230422Y-53402924D01*
X113800000Y-47600000D02*
X113800000Y-48200000D01*
X102070000Y-51565000D02*
X102070000Y-50890000D01*
X103131654Y-53405000D02*
X102540000Y-52813346D01*
X102540000Y-52813346D02*
X102540000Y-52035000D01*
X102540000Y-52035000D02*
X102070000Y-51565000D01*
X109965000Y-51468346D02*
X109965000Y-52668346D01*
X107931978Y-53402924D02*
X107929902Y-53405000D01*
X111250000Y-50750000D02*
X110683346Y-50750000D01*
X109230422Y-53402924D02*
X107931978Y-53402924D01*
X110683346Y-50750000D02*
X109965000Y-51468346D01*
X113800000Y-48200000D02*
X111250000Y-50750000D01*
%TO.N,/CH340_DEBUG/FRONT_PANEL.D+*%
X109635000Y-51331654D02*
X112200000Y-48766654D01*
X107833350Y-52645006D02*
X108005432Y-52645006D01*
X108433350Y-53072924D02*
X108605432Y-53072924D01*
X108605432Y-53072924D02*
X109093730Y-53072924D01*
X106633250Y-52645106D02*
X106805432Y-52645106D01*
X109635000Y-52315809D02*
X109635000Y-51331654D01*
X106033250Y-53072924D02*
X106205432Y-53072924D01*
X107233250Y-53072924D02*
X107405432Y-53072924D01*
X109635000Y-52531654D02*
X109635000Y-52315809D01*
X102870000Y-52035000D02*
X102870000Y-52676656D01*
X103266268Y-53072924D02*
X103805432Y-53072924D01*
X112200000Y-48766654D02*
X112200000Y-47600000D01*
X103340000Y-50890000D02*
X103340000Y-51565000D01*
X109093730Y-53072924D02*
X109635000Y-52531654D01*
X102870000Y-52676656D02*
X103266268Y-53072924D01*
X105433250Y-52645106D02*
X105605432Y-52645106D01*
X103340000Y-51565000D02*
X102870000Y-52035000D01*
X104833250Y-53072924D02*
X105005432Y-53072924D01*
X104233250Y-52645106D02*
X104405432Y-52645106D01*
X106419341Y-52859015D02*
G75*
G02*
X106633250Y-52645141I213859J15D01*
G01*
X105005432Y-53072924D02*
G75*
G03*
X105219324Y-52859015I-32J213924D01*
G01*
X104619341Y-52859015D02*
G75*
G03*
X104833250Y-53072859I213859J15D01*
G01*
X107619391Y-52858965D02*
G75*
G02*
X107833350Y-52645091I213909J-35D01*
G01*
X104405432Y-52645106D02*
G75*
G02*
X104619294Y-52859015I-32J-213894D01*
G01*
X107019341Y-52859015D02*
G75*
G03*
X107233250Y-53072859I213859J15D01*
G01*
X105819341Y-52859015D02*
G75*
G03*
X106033250Y-53072859I213859J15D01*
G01*
X106805432Y-52645106D02*
G75*
G02*
X107019294Y-52859015I-32J-213894D01*
G01*
X107405432Y-53072924D02*
G75*
G03*
X107619324Y-52858965I-32J213924D01*
G01*
X105219341Y-52859015D02*
G75*
G02*
X105433250Y-52645141I213859J15D01*
G01*
X108005432Y-52645006D02*
G75*
G02*
X108219394Y-52858965I-32J-213994D01*
G01*
X106205432Y-53072924D02*
G75*
G03*
X106419324Y-52859015I-32J213924D01*
G01*
X103805432Y-53072924D02*
G75*
G03*
X104019324Y-52859015I-32J213924D01*
G01*
X104019341Y-52859015D02*
G75*
G02*
X104233250Y-52645141I213859J15D01*
G01*
X105605432Y-52645106D02*
G75*
G02*
X105819294Y-52859015I-32J-213894D01*
G01*
X108219391Y-52858965D02*
G75*
G03*
X108433350Y-53072909I213909J-35D01*
G01*
D81*
%TO.N,/CH340_DEBUG/TXD*%
X107150000Y-49390000D02*
X107000000Y-49240000D01*
X107150000Y-50890000D02*
X107150000Y-49390000D01*
%TO.N,/CH340_DEBUG/RXD*%
X105880000Y-49360000D02*
X106000000Y-49240000D01*
X105880000Y-50890000D02*
X105880000Y-49360000D01*
%TO.N,Net-(C2-Pad1)*%
X119200000Y-72160000D02*
X118700000Y-72160000D01*
X119700000Y-72160000D02*
X119200000Y-72160000D01*
X119200000Y-72160000D02*
X119200000Y-73660000D01*
X119200000Y-73660000D02*
X117455000Y-73660000D01*
X117455000Y-73660000D02*
X116905000Y-74210000D01*
%TD*%
%TA.AperFunction,Conductor*%
%TO.N,+3V3*%
G36*
X127943039Y-101119685D02*
G01*
X127988794Y-101172489D01*
X128000000Y-101224000D01*
X128000000Y-132276000D01*
X127980315Y-132343039D01*
X127927511Y-132388794D01*
X127876000Y-132400000D01*
X121524000Y-132400000D01*
X121456961Y-132380315D01*
X121411206Y-132327511D01*
X121400000Y-132276000D01*
X121400000Y-127044432D01*
X121401527Y-127025033D01*
X121405492Y-127000000D01*
X121405492Y-126999998D01*
X121401527Y-126974965D01*
X121400000Y-126955567D01*
X121400000Y-124588366D01*
X121419685Y-124521327D01*
X121442793Y-124494657D01*
X121482146Y-124460558D01*
X121487621Y-124455580D01*
X121529516Y-124386850D01*
X121549201Y-124319811D01*
X121555500Y-124276000D01*
X121555500Y-114924000D01*
X121551946Y-114890945D01*
X121540740Y-114839434D01*
X121518065Y-114794135D01*
X121506313Y-114770657D01*
X121460563Y-114717860D01*
X121455578Y-114712377D01*
X121448744Y-114706735D01*
X121450378Y-114704754D01*
X121412461Y-114663040D01*
X121400000Y-114608864D01*
X121400000Y-114600000D01*
X119079500Y-114600000D01*
X119012461Y-114580315D01*
X118966706Y-114527511D01*
X118955500Y-114476000D01*
X118955500Y-114027710D01*
X118955166Y-114016563D01*
X118955000Y-114011015D01*
X118955000Y-113188999D01*
X118955222Y-113181587D01*
X118955223Y-113181568D01*
X118955500Y-113172277D01*
X118955500Y-112679500D01*
X118975185Y-112612461D01*
X119027989Y-112566706D01*
X119079500Y-112555500D01*
X121275991Y-112555500D01*
X121276000Y-112555500D01*
X121309055Y-112551946D01*
X121360566Y-112540740D01*
X121429342Y-112506313D01*
X121482146Y-112460558D01*
X121487621Y-112455580D01*
X121529516Y-112386850D01*
X121549201Y-112319811D01*
X121555500Y-112276000D01*
X121555500Y-110124000D01*
X121551946Y-110090945D01*
X121540740Y-110039434D01*
X121523545Y-110005084D01*
X121506313Y-109970657D01*
X121460563Y-109917860D01*
X121455577Y-109912376D01*
X121386854Y-109870486D01*
X121386848Y-109870483D01*
X121319812Y-109850799D01*
X121319802Y-109850797D01*
X121276003Y-109844500D01*
X121276000Y-109844500D01*
X120681788Y-109844500D01*
X120614749Y-109824815D01*
X120568994Y-109772011D01*
X120559050Y-109702853D01*
X120569406Y-109668095D01*
X120573478Y-109659361D01*
X120573480Y-109659355D01*
X120574712Y-109650000D01*
X119974000Y-109650000D01*
X119906961Y-109630315D01*
X119861206Y-109577511D01*
X119850000Y-109526000D01*
X119850000Y-109150000D01*
X120350000Y-109150000D01*
X120574712Y-109150000D01*
X120573480Y-109140644D01*
X120573478Y-109140638D01*
X120522807Y-109031975D01*
X120438025Y-108947193D01*
X120350000Y-108906145D01*
X120350000Y-109150000D01*
X119850000Y-109150000D01*
X119850000Y-108906144D01*
X119812874Y-108882492D01*
X119766911Y-108829870D01*
X119755500Y-108777912D01*
X119755500Y-108624008D01*
X119755499Y-108623991D01*
X119751946Y-108590945D01*
X119740740Y-108539434D01*
X119723545Y-108505084D01*
X119706313Y-108470657D01*
X119660563Y-108417860D01*
X119655578Y-108412377D01*
X119648744Y-108406735D01*
X119650378Y-108404754D01*
X119612461Y-108363040D01*
X119600000Y-108308864D01*
X119600000Y-101224000D01*
X119619685Y-101156961D01*
X119672489Y-101111206D01*
X119724000Y-101100000D01*
X127876000Y-101100000D01*
X127943039Y-101119685D01*
G37*
%TD.AperFunction*%
%TD*%
%TA.AperFunction,Conductor*%
%TO.N,GND*%
G36*
X108026905Y-76319685D02*
G01*
X108072660Y-76372489D01*
X108082604Y-76441647D01*
X108062969Y-76492890D01*
X108033924Y-76536358D01*
X108033923Y-76536361D01*
X108020000Y-76606357D01*
X108020000Y-76650000D01*
X108426000Y-76650000D01*
X108493039Y-76669685D01*
X108538794Y-76722489D01*
X108550000Y-76774000D01*
X108550000Y-77210000D01*
X108563640Y-77210000D01*
X108563642Y-77209999D01*
X108633638Y-77196076D01*
X108633645Y-77196073D01*
X108713027Y-77143032D01*
X108722896Y-77128263D01*
X108776508Y-77083457D01*
X108845833Y-77074748D01*
X108908861Y-77104902D01*
X108945581Y-77164344D01*
X108950000Y-77197152D01*
X108950000Y-79712946D01*
X108930315Y-79779985D01*
X108877511Y-79825740D01*
X108826000Y-79836946D01*
X106624000Y-79836946D01*
X106556961Y-79817261D01*
X106511206Y-79764457D01*
X106500000Y-79712946D01*
X106500000Y-78908217D01*
X107500001Y-78908217D01*
X107509912Y-78976249D01*
X107561215Y-79081191D01*
X107643811Y-79163787D01*
X107748748Y-79215087D01*
X107748751Y-79215088D01*
X107816780Y-79224999D01*
X107949999Y-79224999D01*
X108250000Y-79224999D01*
X108383218Y-79224999D01*
X108451249Y-79215087D01*
X108556191Y-79163784D01*
X108638787Y-79081188D01*
X108690087Y-78976251D01*
X108690088Y-78976248D01*
X108700000Y-78908219D01*
X108700000Y-78550000D01*
X108250000Y-78550000D01*
X108250000Y-79224999D01*
X107949999Y-79224999D01*
X107950000Y-79224998D01*
X107950000Y-78550000D01*
X107500001Y-78550000D01*
X107500001Y-78908217D01*
X106500000Y-78908217D01*
X106500000Y-77891780D01*
X107500000Y-77891780D01*
X107500000Y-78250000D01*
X107950000Y-78250000D01*
X108250000Y-78250000D01*
X108699999Y-78250000D01*
X108699999Y-77891782D01*
X108690087Y-77823750D01*
X108638784Y-77718808D01*
X108556188Y-77636212D01*
X108451251Y-77584912D01*
X108451248Y-77584911D01*
X108383220Y-77575000D01*
X108250000Y-77575000D01*
X108250000Y-78250000D01*
X107950000Y-78250000D01*
X107950000Y-77575000D01*
X107816786Y-77575000D01*
X107748751Y-77584912D01*
X107643808Y-77636215D01*
X107561212Y-77718811D01*
X107509912Y-77823748D01*
X107509911Y-77823751D01*
X107500000Y-77891780D01*
X106500000Y-77891780D01*
X106500000Y-76993642D01*
X108020000Y-76993642D01*
X108033923Y-77063638D01*
X108033926Y-77063645D01*
X108086969Y-77143030D01*
X108166354Y-77196073D01*
X108166361Y-77196076D01*
X108236357Y-77209999D01*
X108236360Y-77210000D01*
X108250000Y-77210000D01*
X108250000Y-76950000D01*
X108020000Y-76950000D01*
X108020000Y-76993642D01*
X106500000Y-76993642D01*
X106500000Y-76424000D01*
X106519685Y-76356961D01*
X106572489Y-76311206D01*
X106624000Y-76300000D01*
X107959866Y-76300000D01*
X108026905Y-76319685D01*
G37*
%TD.AperFunction*%
%TD*%
%TA.AperFunction,Conductor*%
%TO.N,/5v buck/5V_OUT*%
G36*
X100085648Y-103039352D02*
G01*
X100100000Y-103074000D01*
X100100000Y-110025000D01*
X105451000Y-110025000D01*
X105485648Y-110039352D01*
X105500000Y-110074000D01*
X105500000Y-116376000D01*
X105485648Y-116410648D01*
X105451000Y-116425000D01*
X98749000Y-116425000D01*
X98714352Y-116410648D01*
X98700000Y-116376000D01*
X98700000Y-103074000D01*
X98714352Y-103039352D01*
X98749000Y-103025000D01*
X100051000Y-103025000D01*
X100085648Y-103039352D01*
G37*
%TD.AperFunction*%
%TD*%
%TA.AperFunction,Conductor*%
%TO.N,/Audio Codec/VDD_{int}*%
G36*
X124793039Y-62979685D02*
G01*
X124838794Y-63032489D01*
X124850000Y-63084000D01*
X124850000Y-63966000D01*
X124830315Y-64033039D01*
X124777511Y-64078794D01*
X124726000Y-64090000D01*
X123548409Y-64090000D01*
X123552827Y-64112211D01*
X123550910Y-64112592D01*
X123556746Y-64166891D01*
X123537821Y-64213758D01*
X123521713Y-64237866D01*
X123521711Y-64237869D01*
X123509500Y-64299263D01*
X123509500Y-64700730D01*
X123518680Y-64746887D01*
X123521712Y-64762130D01*
X123521713Y-64762132D01*
X123526388Y-64773419D01*
X123523484Y-64774621D01*
X123538565Y-64822791D01*
X123524069Y-64875621D01*
X123526387Y-64876581D01*
X123521712Y-64887866D01*
X123509500Y-64949263D01*
X123509500Y-65350730D01*
X123521713Y-65412132D01*
X123526388Y-65423419D01*
X123523484Y-65424621D01*
X123538565Y-65472791D01*
X123524069Y-65525621D01*
X123526387Y-65526581D01*
X123521712Y-65537866D01*
X123509500Y-65599263D01*
X123509500Y-66000730D01*
X123521713Y-66062133D01*
X123521714Y-66062136D01*
X123537819Y-66086238D01*
X123558697Y-66152915D01*
X123552110Y-66187646D01*
X123552826Y-66187789D01*
X123548409Y-66210000D01*
X124726000Y-66210000D01*
X124793039Y-66229685D01*
X124838794Y-66282489D01*
X124850000Y-66334000D01*
X124850000Y-66566000D01*
X124830315Y-66633039D01*
X124777511Y-66678794D01*
X124726000Y-66690000D01*
X123500000Y-66690000D01*
X123500000Y-67886000D01*
X123480315Y-67953039D01*
X123427511Y-67998794D01*
X123376000Y-68010000D01*
X118824500Y-68010000D01*
X118757461Y-67990315D01*
X118711706Y-67937511D01*
X118700500Y-67886000D01*
X118700499Y-67549269D01*
X118700499Y-67549267D01*
X118688287Y-67487867D01*
X118688285Y-67487864D01*
X118683613Y-67476584D01*
X118686515Y-67475381D01*
X118671434Y-67427208D01*
X118685929Y-67374376D01*
X118683613Y-67373417D01*
X118688288Y-67362130D01*
X118694393Y-67331433D01*
X118700500Y-67300733D01*
X118700499Y-66899268D01*
X118688287Y-66837867D01*
X118688285Y-66837864D01*
X118683613Y-66826584D01*
X118686515Y-66825381D01*
X118671434Y-66777208D01*
X118685929Y-66724376D01*
X118683613Y-66723417D01*
X118688288Y-66712130D01*
X118694918Y-66678794D01*
X118700500Y-66650733D01*
X118700499Y-66249268D01*
X118688287Y-66187867D01*
X118688235Y-66187789D01*
X118672181Y-66163762D01*
X118651302Y-66097085D01*
X118657889Y-66062353D01*
X118657173Y-66062211D01*
X118661591Y-66040000D01*
X117484000Y-66040000D01*
X117416961Y-66020315D01*
X117371206Y-65967511D01*
X117360000Y-65916000D01*
X117360000Y-65684000D01*
X117379685Y-65616961D01*
X117432489Y-65571206D01*
X117484000Y-65560000D01*
X118661591Y-65560000D01*
X118657173Y-65537789D01*
X118659089Y-65537407D01*
X118653253Y-65483109D01*
X118672178Y-65436240D01*
X118688287Y-65412133D01*
X118700500Y-65350733D01*
X118700499Y-64949268D01*
X118688287Y-64887867D01*
X118688285Y-64887864D01*
X118683613Y-64876584D01*
X118686515Y-64875381D01*
X118671434Y-64827208D01*
X118685929Y-64774376D01*
X118683613Y-64773417D01*
X118688288Y-64762130D01*
X118700499Y-64700736D01*
X118700500Y-64700733D01*
X118700499Y-64299268D01*
X118688287Y-64237867D01*
X118688284Y-64237862D01*
X118672181Y-64213762D01*
X118651302Y-64147085D01*
X118657889Y-64112353D01*
X118657173Y-64112211D01*
X118661591Y-64090000D01*
X117484000Y-64090000D01*
X117416961Y-64070315D01*
X117371206Y-64017511D01*
X117360000Y-63966000D01*
X117360000Y-63734000D01*
X117379685Y-63666961D01*
X117432489Y-63621206D01*
X117484000Y-63610000D01*
X118661591Y-63610000D01*
X123548410Y-63610000D01*
X124370000Y-63610000D01*
X124370000Y-63440000D01*
X123548410Y-63440000D01*
X123550444Y-63450232D01*
X123550446Y-63450236D01*
X123554371Y-63456110D01*
X123575248Y-63522788D01*
X123556763Y-63590168D01*
X123554371Y-63593890D01*
X123550446Y-63599763D01*
X123550444Y-63599767D01*
X123548410Y-63610000D01*
X118661591Y-63610000D01*
X118657173Y-63587789D01*
X118659089Y-63587407D01*
X118653253Y-63533109D01*
X118672178Y-63486240D01*
X118688287Y-63462133D01*
X118690654Y-63450236D01*
X118700499Y-63400736D01*
X118700500Y-63400733D01*
X118700499Y-63083999D01*
X118720183Y-63016961D01*
X118772987Y-62971206D01*
X118824499Y-62960000D01*
X124726000Y-62960000D01*
X124793039Y-62979685D01*
G37*
%TD.AperFunction*%
%TD*%
%TA.AperFunction,Conductor*%
%TO.N,GND*%
G36*
X54512539Y-114719685D02*
G01*
X54558294Y-114772489D01*
X54569500Y-114824000D01*
X54569500Y-119470500D01*
X54549815Y-119537539D01*
X54497011Y-119583294D01*
X54445500Y-119594500D01*
X50001412Y-119594500D01*
X50001412Y-119593456D01*
X49937627Y-119578376D01*
X49889118Y-119528091D01*
X49875000Y-119470629D01*
X49875000Y-118554196D01*
X50650001Y-118554196D01*
X50652851Y-118584606D01*
X50697653Y-118712645D01*
X50778207Y-118821792D01*
X50887354Y-118902346D01*
X51015397Y-118947149D01*
X51045792Y-118949999D01*
X51499999Y-118949999D01*
X51800000Y-118949999D01*
X52254196Y-118949999D01*
X52284606Y-118947148D01*
X52412645Y-118902346D01*
X52521792Y-118821792D01*
X52602346Y-118712645D01*
X52647149Y-118584604D01*
X52647149Y-118584600D01*
X52650000Y-118554206D01*
X52650000Y-117150000D01*
X51800000Y-117150000D01*
X51800000Y-118949999D01*
X51499999Y-118949999D01*
X51500000Y-118949998D01*
X51500000Y-117150000D01*
X50650001Y-117150000D01*
X50650001Y-118554196D01*
X49875000Y-118554196D01*
X49875000Y-115445793D01*
X50650000Y-115445793D01*
X50650000Y-116850000D01*
X51500000Y-116850000D01*
X51800000Y-116850000D01*
X52649999Y-116850000D01*
X52649999Y-115445803D01*
X52647148Y-115415393D01*
X52602346Y-115287354D01*
X52521792Y-115178207D01*
X52412645Y-115097653D01*
X52284602Y-115052850D01*
X52254207Y-115050000D01*
X51800000Y-115050000D01*
X51800000Y-116850000D01*
X51500000Y-116850000D01*
X51500000Y-115050000D01*
X51045803Y-115050000D01*
X51015393Y-115052851D01*
X50887354Y-115097653D01*
X50778207Y-115178207D01*
X50697653Y-115287354D01*
X50652850Y-115415395D01*
X50652850Y-115415399D01*
X50650000Y-115445793D01*
X49875000Y-115445793D01*
X49875000Y-114824000D01*
X49894685Y-114756961D01*
X49947489Y-114711206D01*
X49999000Y-114700000D01*
X54445500Y-114700000D01*
X54512539Y-114719685D01*
G37*
%TD.AperFunction*%
%TD*%
%TA.AperFunction,Conductor*%
%TO.N,GND*%
G36*
X103287539Y-103044685D02*
G01*
X103333294Y-103097489D01*
X103344500Y-103149000D01*
X103344500Y-107701008D01*
X103348054Y-107734055D01*
X103359259Y-107785564D01*
X103359259Y-107785565D01*
X103359260Y-107785566D01*
X103386884Y-107840752D01*
X103400000Y-107896255D01*
X103400000Y-107925000D01*
X103429915Y-107925000D01*
X103494454Y-107943119D01*
X103513150Y-107954516D01*
X103580189Y-107974201D01*
X103624000Y-107980500D01*
X105384228Y-107980500D01*
X105451267Y-108000185D01*
X105471909Y-108016819D01*
X105653726Y-108198636D01*
X105653740Y-108198649D01*
X105653751Y-108198659D01*
X105666089Y-108209742D01*
X105666103Y-108209754D01*
X105666111Y-108209761D01*
X105677870Y-108219237D01*
X105686750Y-108226393D01*
X105686751Y-108226393D01*
X105686753Y-108226395D01*
X105693637Y-108229996D01*
X105724292Y-108252641D01*
X105795911Y-108325000D01*
X105795912Y-108325000D01*
X106676000Y-108325000D01*
X106743039Y-108344685D01*
X106788794Y-108397489D01*
X106800000Y-108449000D01*
X106800000Y-109401000D01*
X106780315Y-109468039D01*
X106727511Y-109513794D01*
X106676000Y-109525000D01*
X100379500Y-109525000D01*
X100312461Y-109505315D01*
X100266706Y-109452511D01*
X100255500Y-109401000D01*
X100255500Y-103149000D01*
X100275185Y-103081961D01*
X100327989Y-103036206D01*
X100379500Y-103025000D01*
X103220500Y-103025000D01*
X103287539Y-103044685D01*
G37*
%TD.AperFunction*%
%TD*%
%TA.AperFunction,Conductor*%
%TO.N,GND*%
G36*
X69968039Y-115519685D02*
G01*
X70013794Y-115572489D01*
X70025000Y-115624000D01*
X70025000Y-115761579D01*
X70005315Y-115828618D01*
X69952511Y-115874373D01*
X69883353Y-115884317D01*
X69848595Y-115873961D01*
X69746861Y-115826521D01*
X69746855Y-115826519D01*
X69737500Y-115825287D01*
X69737500Y-116426000D01*
X69717815Y-116493039D01*
X69665011Y-116538794D01*
X69613500Y-116550000D01*
X68993646Y-116550000D01*
X69027964Y-116623596D01*
X69038456Y-116692673D01*
X69009936Y-116756457D01*
X68951459Y-116794696D01*
X68926633Y-116798366D01*
X68925000Y-116800000D01*
X68925000Y-117476000D01*
X68905315Y-117543039D01*
X68852511Y-117588794D01*
X68801000Y-117600000D01*
X66924000Y-117600000D01*
X66856961Y-117580315D01*
X66811206Y-117527511D01*
X66800000Y-117476000D01*
X66800000Y-116867125D01*
X66819685Y-116800086D01*
X66872489Y-116754331D01*
X66941647Y-116744387D01*
X66978461Y-116755725D01*
X67048751Y-116790088D01*
X67116780Y-116799999D01*
X67487499Y-116799999D01*
X67987500Y-116799999D01*
X68358218Y-116799999D01*
X68426249Y-116790087D01*
X68531191Y-116738784D01*
X68613787Y-116656188D01*
X68665088Y-116551249D01*
X68665270Y-116550000D01*
X67987500Y-116550000D01*
X67987500Y-116799999D01*
X67487499Y-116799999D01*
X67487500Y-116799998D01*
X67487500Y-116050000D01*
X67987500Y-116050000D01*
X68665270Y-116050000D01*
X68665270Y-116049999D01*
X68993646Y-116049999D01*
X68993646Y-116050000D01*
X69237500Y-116050000D01*
X69237500Y-115825287D01*
X69228144Y-115826519D01*
X69228138Y-115826521D01*
X69119475Y-115877192D01*
X69034691Y-115961976D01*
X68993646Y-116049999D01*
X68665270Y-116049999D01*
X68665088Y-116048750D01*
X68613787Y-115943811D01*
X68531188Y-115861212D01*
X68426251Y-115809912D01*
X68426248Y-115809911D01*
X68358220Y-115800000D01*
X67987500Y-115800000D01*
X67987500Y-116050000D01*
X67487500Y-116050000D01*
X67487500Y-115800000D01*
X67116787Y-115800000D01*
X67048749Y-115809912D01*
X66978459Y-115844275D01*
X66909586Y-115856033D01*
X66845289Y-115828690D01*
X66805983Y-115770925D01*
X66800000Y-115732874D01*
X66800000Y-115624000D01*
X66819685Y-115556961D01*
X66872489Y-115511206D01*
X66924000Y-115500000D01*
X69901000Y-115500000D01*
X69968039Y-115519685D01*
G37*
%TD.AperFunction*%
%TD*%
%TA.AperFunction,Conductor*%
%TO.N,GND*%
G36*
X109739352Y-106964352D02*
G01*
X109860428Y-107085428D01*
X109873288Y-107112606D01*
X109874030Y-107112459D01*
X109883232Y-107158721D01*
X109916495Y-107208504D01*
X109950939Y-107231518D01*
X109966278Y-107241767D01*
X110010180Y-107250500D01*
X110764820Y-107250500D01*
X110808722Y-107241767D01*
X110858504Y-107208504D01*
X110891767Y-107158722D01*
X110891767Y-107158720D01*
X110893615Y-107154262D01*
X110895288Y-107154955D01*
X110912174Y-107129680D01*
X110948956Y-107122361D01*
X110980140Y-107143194D01*
X110988400Y-107170420D01*
X110988400Y-107550500D01*
X110974048Y-107585148D01*
X110939400Y-107599500D01*
X110885347Y-107599500D01*
X110858124Y-107591242D01*
X110847317Y-107584021D01*
X110808722Y-107558233D01*
X110808721Y-107558232D01*
X110808720Y-107558232D01*
X110764823Y-107549500D01*
X110764820Y-107549500D01*
X110010180Y-107549500D01*
X110010176Y-107549500D01*
X109966278Y-107558232D01*
X109916495Y-107591495D01*
X109883232Y-107641278D01*
X109874500Y-107685176D01*
X109874500Y-108014823D01*
X109884174Y-108063455D01*
X109882210Y-108063845D01*
X109882210Y-108086154D01*
X109884174Y-108086545D01*
X109874500Y-108135176D01*
X109874500Y-108464823D01*
X109883232Y-108508721D01*
X109916495Y-108558504D01*
X109966278Y-108591767D01*
X110010180Y-108600500D01*
X110735786Y-108600500D01*
X110770434Y-108614852D01*
X110784786Y-108649500D01*
X110784786Y-108850500D01*
X110770434Y-108885148D01*
X110735786Y-108899500D01*
X110010176Y-108899500D01*
X109966278Y-108908232D01*
X109912482Y-108944177D01*
X109911190Y-108942244D01*
X109884303Y-108953365D01*
X109849662Y-108938995D01*
X109843593Y-108931596D01*
X109833504Y-108916496D01*
X109833501Y-108916494D01*
X109833499Y-108916491D01*
X109783721Y-108883232D01*
X109739823Y-108874500D01*
X109739820Y-108874500D01*
X109130180Y-108874500D01*
X109130176Y-108874500D01*
X109086278Y-108883232D01*
X109036500Y-108916491D01*
X109036494Y-108916498D01*
X109023182Y-108936422D01*
X108992000Y-108957258D01*
X108982440Y-108958200D01*
X108875000Y-108958200D01*
X108875000Y-109451000D01*
X108860648Y-109485648D01*
X108826000Y-109500000D01*
X107836500Y-109500000D01*
X107801852Y-109485648D01*
X107787500Y-109451000D01*
X107787500Y-108349000D01*
X107801852Y-108314352D01*
X107836500Y-108300000D01*
X107849999Y-108300000D01*
X107850000Y-108300000D01*
X108150000Y-108000000D01*
X108150000Y-106999000D01*
X108164352Y-106964352D01*
X108199000Y-106950000D01*
X109704704Y-106950000D01*
X109739352Y-106964352D01*
G37*
%TD.AperFunction*%
%TD*%
%TA.AperFunction,Conductor*%
%TO.N,+5V*%
G36*
X111215677Y-74819685D02*
G01*
X111236319Y-74836319D01*
X111763681Y-75363681D01*
X111797166Y-75425004D01*
X111800000Y-75451362D01*
X111800000Y-79726000D01*
X111780315Y-79793039D01*
X111727511Y-79838794D01*
X111676000Y-79850000D01*
X109228883Y-79850000D01*
X109161844Y-79830315D01*
X109116089Y-79777511D01*
X109105199Y-79717152D01*
X109105500Y-79712944D01*
X109105500Y-78908217D01*
X109400001Y-78908217D01*
X109409912Y-78976249D01*
X109461215Y-79081191D01*
X109543811Y-79163787D01*
X109648748Y-79215087D01*
X109648751Y-79215088D01*
X109716780Y-79224999D01*
X109849999Y-79224999D01*
X110150000Y-79224999D01*
X110283218Y-79224999D01*
X110351249Y-79215087D01*
X110456191Y-79163784D01*
X110538787Y-79081188D01*
X110590087Y-78976251D01*
X110590088Y-78976248D01*
X110600000Y-78908219D01*
X110600000Y-78550000D01*
X110150000Y-78550000D01*
X110150000Y-79224999D01*
X109849999Y-79224999D01*
X109850000Y-79224998D01*
X109850000Y-78550000D01*
X109400001Y-78550000D01*
X109400001Y-78908217D01*
X109105500Y-78908217D01*
X109105500Y-77891780D01*
X109400000Y-77891780D01*
X109400000Y-78250000D01*
X109850000Y-78250000D01*
X110150000Y-78250000D01*
X110599999Y-78250000D01*
X110599999Y-77891782D01*
X110590087Y-77823750D01*
X110538784Y-77718808D01*
X110456188Y-77636212D01*
X110351251Y-77584912D01*
X110351248Y-77584911D01*
X110283220Y-77575000D01*
X110150000Y-77575000D01*
X110150000Y-78250000D01*
X109850000Y-78250000D01*
X109850000Y-77575000D01*
X109716786Y-77575000D01*
X109648751Y-77584912D01*
X109543808Y-77636215D01*
X109461212Y-77718811D01*
X109409912Y-77823748D01*
X109409911Y-77823751D01*
X109400000Y-77891780D01*
X109105500Y-77891780D01*
X109105500Y-77333924D01*
X109125185Y-77266885D01*
X109177989Y-77221130D01*
X109230270Y-77212424D01*
X109230270Y-77210000D01*
X109250000Y-77210000D01*
X109550000Y-77210000D01*
X109563640Y-77210000D01*
X109563642Y-77209999D01*
X109633638Y-77196076D01*
X109633645Y-77196073D01*
X109713030Y-77143030D01*
X109766073Y-77063645D01*
X109766076Y-77063638D01*
X109779999Y-76993642D01*
X109780000Y-76993640D01*
X109780000Y-76950000D01*
X109550000Y-76950000D01*
X109550000Y-77210000D01*
X109250000Y-77210000D01*
X109250000Y-76650000D01*
X109550000Y-76650000D01*
X109780000Y-76650000D01*
X109780000Y-76606359D01*
X109779999Y-76606357D01*
X109766076Y-76536361D01*
X109766073Y-76536354D01*
X109713030Y-76456969D01*
X109633645Y-76403926D01*
X109633638Y-76403923D01*
X109563641Y-76390000D01*
X109550000Y-76390000D01*
X109550000Y-76650000D01*
X109250000Y-76650000D01*
X109250000Y-76390000D01*
X109236359Y-76390000D01*
X109166361Y-76403923D01*
X109166355Y-76403926D01*
X109142889Y-76419605D01*
X109076211Y-76440482D01*
X109008831Y-76421996D01*
X108962142Y-76370017D01*
X108950000Y-76316502D01*
X108950000Y-75679628D01*
X109200000Y-75679628D01*
X109214503Y-75752540D01*
X109214505Y-75752544D01*
X109269760Y-75835239D01*
X109352455Y-75890494D01*
X109352459Y-75890496D01*
X109425371Y-75904999D01*
X109425374Y-75905000D01*
X110025000Y-75905000D01*
X110325000Y-75905000D01*
X110924626Y-75905000D01*
X110924628Y-75904999D01*
X110997540Y-75890496D01*
X110997544Y-75890494D01*
X111080239Y-75835239D01*
X111135494Y-75752544D01*
X111135496Y-75752540D01*
X111149999Y-75679628D01*
X111150000Y-75679626D01*
X111150000Y-75655000D01*
X110325000Y-75655000D01*
X110325000Y-75905000D01*
X110025000Y-75905000D01*
X110025000Y-75655000D01*
X109200000Y-75655000D01*
X109200000Y-75679628D01*
X108950000Y-75679628D01*
X108950000Y-75330371D01*
X109200000Y-75330371D01*
X109200000Y-75355000D01*
X110025000Y-75355000D01*
X110325000Y-75355000D01*
X111150000Y-75355000D01*
X111150000Y-75330373D01*
X111149999Y-75330371D01*
X111135496Y-75257459D01*
X111135494Y-75257455D01*
X111080239Y-75174760D01*
X110997544Y-75119505D01*
X110997540Y-75119503D01*
X110924627Y-75105000D01*
X110325000Y-75105000D01*
X110325000Y-75355000D01*
X110025000Y-75355000D01*
X110025000Y-75105000D01*
X109425373Y-75105000D01*
X109352459Y-75119503D01*
X109352455Y-75119505D01*
X109269760Y-75174760D01*
X109214505Y-75257455D01*
X109214503Y-75257459D01*
X109200000Y-75330371D01*
X108950000Y-75330371D01*
X108950000Y-74924000D01*
X108969685Y-74856961D01*
X109022489Y-74811206D01*
X109074000Y-74800000D01*
X111148638Y-74800000D01*
X111215677Y-74819685D01*
G37*
%TD.AperFunction*%
%TD*%
%TA.AperFunction,Conductor*%
%TO.N,GND*%
G36*
X106043039Y-101044685D02*
G01*
X106088794Y-101097489D01*
X106100000Y-101149000D01*
X106100000Y-103107110D01*
X106080315Y-103174149D01*
X106050308Y-103206379D01*
X106030030Y-103221558D01*
X106005820Y-103235718D01*
X105997420Y-103239428D01*
X105947322Y-103249999D01*
X105602678Y-103249999D01*
X105552591Y-103239433D01*
X105548585Y-103237664D01*
X105510993Y-103211912D01*
X105508087Y-103209006D01*
X105482330Y-103171402D01*
X105480562Y-103167397D01*
X105470000Y-103117320D01*
X105470000Y-102832676D01*
X105480561Y-102782600D01*
X105482472Y-102778270D01*
X105505751Y-102743661D01*
X105505537Y-102743461D01*
X105512322Y-102736174D01*
X105512325Y-102736171D01*
X105539970Y-102694800D01*
X105568995Y-102631244D01*
X105571909Y-102624439D01*
X105581464Y-102544516D01*
X105571520Y-102475358D01*
X105570293Y-102468060D01*
X105570291Y-102468057D01*
X105570291Y-102468054D01*
X105535123Y-102395660D01*
X105535122Y-102395658D01*
X105489369Y-102342856D01*
X105484386Y-102337376D01*
X105415663Y-102295486D01*
X105415657Y-102295483D01*
X105348621Y-102275799D01*
X105348611Y-102275797D01*
X105304812Y-102269500D01*
X105304809Y-102269500D01*
X104824000Y-102269500D01*
X104756961Y-102249815D01*
X104711206Y-102197011D01*
X104700000Y-102145500D01*
X104700000Y-101149000D01*
X104719685Y-101081961D01*
X104772489Y-101036206D01*
X104824000Y-101025000D01*
X105976000Y-101025000D01*
X106043039Y-101044685D01*
G37*
%TD.AperFunction*%
%TD*%
%TA.AperFunction,Conductor*%
%TO.N,/5v buck/5V_EN*%
G36*
X107993039Y-101044685D02*
G01*
X108038794Y-101097489D01*
X108050000Y-101149000D01*
X108050000Y-103301000D01*
X108030315Y-103368039D01*
X107977511Y-103413794D01*
X107926000Y-103425000D01*
X107315114Y-103425000D01*
X107248075Y-103405315D01*
X107209965Y-103366724D01*
X107190234Y-103335158D01*
X107186163Y-103328978D01*
X107124741Y-103276952D01*
X107124739Y-103276951D01*
X107061559Y-103247134D01*
X107061555Y-103247132D01*
X107054792Y-103244135D01*
X107054790Y-103244134D01*
X106974995Y-103233575D01*
X106905724Y-103242646D01*
X106905718Y-103242647D01*
X106895864Y-103245407D01*
X106862431Y-103249999D01*
X106502678Y-103249999D01*
X106452589Y-103239432D01*
X106444887Y-103236031D01*
X106417166Y-103219147D01*
X106396749Y-103202693D01*
X106352407Y-103174194D01*
X106340339Y-103170178D01*
X106282947Y-103130328D01*
X106256210Y-103065777D01*
X106255500Y-103052524D01*
X106255500Y-101149000D01*
X106275185Y-101081961D01*
X106327989Y-101036206D01*
X106379500Y-101025000D01*
X107926000Y-101025000D01*
X107993039Y-101044685D01*
G37*
%TD.AperFunction*%
%TD*%
%TA.AperFunction,Conductor*%
%TO.N,/5v buck/V_{IN}*%
G36*
X105371848Y-102444685D02*
G01*
X105417603Y-102497489D01*
X105427547Y-102566647D01*
X105398522Y-102630203D01*
X105392490Y-102636681D01*
X105361187Y-102667983D01*
X105317318Y-102767335D01*
X105317318Y-102767337D01*
X105314500Y-102791625D01*
X105314500Y-103158365D01*
X105314502Y-103158388D01*
X105317317Y-103182659D01*
X105317318Y-103182662D01*
X105361186Y-103282015D01*
X105361187Y-103282016D01*
X105437984Y-103358813D01*
X105537338Y-103402682D01*
X105561627Y-103405500D01*
X105988372Y-103405499D01*
X106012662Y-103402682D01*
X106112016Y-103358813D01*
X106137319Y-103333510D01*
X106198642Y-103300025D01*
X106268334Y-103305009D01*
X106312681Y-103333510D01*
X106337984Y-103358813D01*
X106437338Y-103402682D01*
X106461627Y-103405500D01*
X106888372Y-103405499D01*
X106894596Y-103404777D01*
X106912657Y-103402683D01*
X106912658Y-103402682D01*
X106912662Y-103402682D01*
X106925914Y-103396830D01*
X106995187Y-103387758D01*
X107058374Y-103417579D01*
X107095407Y-103476827D01*
X107100000Y-103510264D01*
X107100000Y-104401000D01*
X107080315Y-104468039D01*
X107027511Y-104513794D01*
X106976000Y-104525000D01*
X106600000Y-104525000D01*
X106600000Y-104602808D01*
X106580315Y-104669847D01*
X106563682Y-104690488D01*
X106516187Y-104737983D01*
X106472318Y-104837335D01*
X106472318Y-104837337D01*
X106469500Y-104861625D01*
X106469500Y-105288365D01*
X106469502Y-105288388D01*
X106472317Y-105312659D01*
X106472318Y-105312662D01*
X106516186Y-105412015D01*
X106563681Y-105459510D01*
X106597166Y-105520833D01*
X106600000Y-105547191D01*
X106600000Y-106525000D01*
X106638181Y-106563181D01*
X106671666Y-106624504D01*
X106674500Y-106650862D01*
X106674500Y-106664820D01*
X106674500Y-106664822D01*
X106674499Y-106664822D01*
X106683231Y-106708717D01*
X106683232Y-106708721D01*
X106683233Y-106708722D01*
X106716496Y-106758504D01*
X106766278Y-106791767D01*
X106766281Y-106791767D01*
X106766282Y-106791768D01*
X106810177Y-106800500D01*
X106810180Y-106800500D01*
X107139820Y-106800500D01*
X107175809Y-106793341D01*
X107224191Y-106793341D01*
X107260180Y-106800500D01*
X107589822Y-106800500D01*
X107633717Y-106791768D01*
X107633717Y-106791767D01*
X107633722Y-106791767D01*
X107683504Y-106758504D01*
X107716767Y-106708722D01*
X107725500Y-106664820D01*
X107725500Y-105910180D01*
X107725500Y-105910177D01*
X107718143Y-105873192D01*
X107724370Y-105803600D01*
X107767233Y-105748423D01*
X107833123Y-105725178D01*
X107839760Y-105725000D01*
X108076000Y-105725000D01*
X108143039Y-105744685D01*
X108188794Y-105797489D01*
X108200000Y-105849000D01*
X108200000Y-106573638D01*
X108180315Y-106640677D01*
X108163681Y-106661319D01*
X108000000Y-106824999D01*
X108000000Y-106924012D01*
X107999500Y-106934190D01*
X107999500Y-106961651D01*
X107997117Y-106985843D01*
X107994500Y-106998998D01*
X107994500Y-107884227D01*
X107974815Y-107951266D01*
X107958181Y-107971908D01*
X107841408Y-108088681D01*
X107780085Y-108122166D01*
X107753727Y-108125000D01*
X105851362Y-108125000D01*
X105784323Y-108105315D01*
X105763681Y-108088681D01*
X105500000Y-107825000D01*
X103624000Y-107825000D01*
X103556961Y-107805315D01*
X103511206Y-107752511D01*
X103500000Y-107701000D01*
X103500000Y-102549000D01*
X103519685Y-102481961D01*
X103572489Y-102436206D01*
X103624000Y-102425000D01*
X105304809Y-102425000D01*
X105371848Y-102444685D01*
G37*
%TD.AperFunction*%
%TD*%
%TA.AperFunction,Conductor*%
%TO.N,GND*%
G36*
X70718039Y-119769372D02*
G01*
X70763794Y-119822176D01*
X70775000Y-119873687D01*
X70775000Y-121648638D01*
X70755315Y-121715677D01*
X70738681Y-121736319D01*
X69911319Y-122563681D01*
X69849996Y-122597166D01*
X69823638Y-122600000D01*
X67799000Y-122600000D01*
X67731961Y-122580315D01*
X67686206Y-122527511D01*
X67675000Y-122476000D01*
X67675000Y-121904196D01*
X68005001Y-121904196D01*
X68007851Y-121934606D01*
X68052653Y-122062645D01*
X68133207Y-122171792D01*
X68242354Y-122252346D01*
X68370397Y-122297149D01*
X68400792Y-122299999D01*
X68629999Y-122299999D01*
X68930000Y-122299999D01*
X69159196Y-122299999D01*
X69189606Y-122297148D01*
X69317645Y-122252346D01*
X69426792Y-122171792D01*
X69507346Y-122062645D01*
X69552149Y-121934604D01*
X69552149Y-121934600D01*
X69555000Y-121904206D01*
X69555000Y-121350000D01*
X68930000Y-121350000D01*
X68930000Y-122299999D01*
X68629999Y-122299999D01*
X68630000Y-122299998D01*
X68630000Y-121350000D01*
X68005001Y-121350000D01*
X68005001Y-121904196D01*
X67675000Y-121904196D01*
X67675000Y-120495793D01*
X68005000Y-120495793D01*
X68005000Y-121050000D01*
X68630000Y-121050000D01*
X68930000Y-121050000D01*
X69554999Y-121050000D01*
X69554999Y-120495803D01*
X69552148Y-120465393D01*
X69507346Y-120337354D01*
X69426792Y-120228207D01*
X69317645Y-120147653D01*
X69189602Y-120102850D01*
X69159207Y-120100000D01*
X68930000Y-120100000D01*
X68930000Y-121050000D01*
X68630000Y-121050000D01*
X68630000Y-120100000D01*
X68400804Y-120100000D01*
X68370393Y-120102851D01*
X68242354Y-120147653D01*
X68133207Y-120228207D01*
X68052653Y-120337354D01*
X68007850Y-120465395D01*
X68007850Y-120465399D01*
X68005000Y-120495793D01*
X67675000Y-120495793D01*
X67675000Y-119873687D01*
X67694685Y-119806648D01*
X67747489Y-119760893D01*
X67799000Y-119749687D01*
X70651000Y-119749687D01*
X70718039Y-119769372D01*
G37*
%TD.AperFunction*%
%TD*%
%TA.AperFunction,Conductor*%
%TO.N,Net-(M1--)*%
G36*
X66668039Y-114719685D02*
G01*
X66713794Y-114772489D01*
X66725000Y-114824000D01*
X66725000Y-115388900D01*
X66706881Y-115453439D01*
X66670483Y-115513151D01*
X66650799Y-115580187D01*
X66650797Y-115580197D01*
X66644500Y-115623996D01*
X66644500Y-115732880D01*
X66646386Y-115757020D01*
X66646387Y-115757031D01*
X66652370Y-115795080D01*
X66669072Y-115837294D01*
X66677423Y-115858403D01*
X66686967Y-115872429D01*
X66703518Y-115896753D01*
X66724957Y-115963252D01*
X66725000Y-115966510D01*
X66725000Y-116632025D01*
X66706879Y-116696567D01*
X66699967Y-116707906D01*
X66648265Y-116754902D01*
X66579363Y-116766487D01*
X66557483Y-116761838D01*
X66551247Y-116759911D01*
X66483220Y-116750000D01*
X66112500Y-116750000D01*
X66112500Y-117749999D01*
X66483218Y-117749999D01*
X66551253Y-117740086D01*
X66560450Y-117737245D01*
X66561263Y-117739877D01*
X66615403Y-117730629D01*
X66679702Y-117757967D01*
X66719014Y-117815729D01*
X66725000Y-117853790D01*
X66725000Y-119470500D01*
X66705315Y-119537539D01*
X66652511Y-119583294D01*
X66601000Y-119594500D01*
X61509704Y-119594500D01*
X61469715Y-119599729D01*
X61408111Y-119616124D01*
X61408092Y-119616129D01*
X61408078Y-119616133D01*
X61404767Y-119617054D01*
X61404766Y-119617054D01*
X61404764Y-119617055D01*
X61404761Y-119617056D01*
X61335896Y-119658711D01*
X61335894Y-119658713D01*
X61335893Y-119658713D01*
X61335893Y-119658714D01*
X61332858Y-119661874D01*
X61329639Y-119663718D01*
X61329548Y-119663792D01*
X61329536Y-119663777D01*
X61272233Y-119696603D01*
X61243408Y-119700000D01*
X61145118Y-119700000D01*
X61078079Y-119680315D01*
X61032324Y-119627511D01*
X61022380Y-119558353D01*
X61051405Y-119494797D01*
X61097665Y-119461439D01*
X61172358Y-119430499D01*
X61172368Y-119430494D01*
X61344335Y-119315589D01*
X61344339Y-119315586D01*
X61490586Y-119169339D01*
X61490589Y-119169335D01*
X61605494Y-118997368D01*
X61605499Y-118997358D01*
X61684648Y-118806276D01*
X61684649Y-118806274D01*
X61695843Y-118750000D01*
X60958012Y-118750000D01*
X60990925Y-118692993D01*
X61025000Y-118565826D01*
X61025000Y-118434174D01*
X60990925Y-118307007D01*
X60958012Y-118250000D01*
X61695843Y-118250000D01*
X61684649Y-118193725D01*
X61684648Y-118193723D01*
X61605499Y-118002641D01*
X61605494Y-118002631D01*
X61490589Y-117830664D01*
X61490586Y-117830660D01*
X61344339Y-117684413D01*
X61344335Y-117684410D01*
X61172368Y-117569505D01*
X61172358Y-117569500D01*
X61004571Y-117500000D01*
X64934730Y-117500000D01*
X64934911Y-117501249D01*
X64986212Y-117606188D01*
X65068811Y-117688787D01*
X65173748Y-117740087D01*
X65173751Y-117740088D01*
X65241780Y-117749999D01*
X65612499Y-117749999D01*
X65612500Y-117749998D01*
X65612500Y-117500000D01*
X64934730Y-117500000D01*
X61004571Y-117500000D01*
X60981274Y-117490350D01*
X60981266Y-117490348D01*
X60778420Y-117450000D01*
X60775000Y-117450000D01*
X60775000Y-118066988D01*
X60717993Y-118034075D01*
X60590826Y-118000000D01*
X60459174Y-118000000D01*
X60332007Y-118034075D01*
X60275000Y-118066988D01*
X60275000Y-117450000D01*
X60271579Y-117450000D01*
X60068733Y-117490348D01*
X60068725Y-117490350D01*
X59877641Y-117569500D01*
X59877631Y-117569505D01*
X59705664Y-117684410D01*
X59705660Y-117684413D01*
X59559413Y-117830660D01*
X59559410Y-117830664D01*
X59444505Y-118002631D01*
X59444500Y-118002641D01*
X59365351Y-118193723D01*
X59365350Y-118193725D01*
X59354157Y-118250000D01*
X60091988Y-118250000D01*
X60059075Y-118307007D01*
X60025000Y-118434174D01*
X60025000Y-118565826D01*
X60059075Y-118692993D01*
X60091988Y-118750000D01*
X59354157Y-118750000D01*
X59365350Y-118806274D01*
X59365351Y-118806276D01*
X59444500Y-118997358D01*
X59444505Y-118997368D01*
X59559410Y-119169335D01*
X59559413Y-119169339D01*
X59705660Y-119315586D01*
X59705664Y-119315589D01*
X59877631Y-119430494D01*
X59877641Y-119430499D01*
X59952335Y-119461439D01*
X60006738Y-119505280D01*
X60028803Y-119571575D01*
X60011524Y-119639274D01*
X59960386Y-119686884D01*
X59904882Y-119700000D01*
X59808930Y-119700000D01*
X59741891Y-119680315D01*
X59726976Y-119667700D01*
X59726711Y-119668022D01*
X59719873Y-119662376D01*
X59651150Y-119620486D01*
X59651144Y-119620483D01*
X59584108Y-119600799D01*
X59584098Y-119600797D01*
X59540299Y-119594500D01*
X59540296Y-119594500D01*
X54849000Y-119594500D01*
X54781961Y-119574815D01*
X54736206Y-119522011D01*
X54725000Y-119470500D01*
X54725000Y-118754196D01*
X55450001Y-118754196D01*
X55452851Y-118784606D01*
X55497653Y-118912645D01*
X55578207Y-119021792D01*
X55687354Y-119102346D01*
X55815397Y-119147149D01*
X55845792Y-119149999D01*
X56199999Y-119149999D01*
X56700000Y-119149999D01*
X57054196Y-119149999D01*
X57084606Y-119147148D01*
X57212645Y-119102346D01*
X57321792Y-119021792D01*
X57402346Y-118912645D01*
X57447149Y-118784604D01*
X57447149Y-118784600D01*
X57450000Y-118754206D01*
X57450000Y-118650000D01*
X56700000Y-118650000D01*
X56700000Y-119149999D01*
X56199999Y-119149999D01*
X56200000Y-119149998D01*
X56200000Y-118650000D01*
X55450001Y-118650000D01*
X55450001Y-118754196D01*
X54725000Y-118754196D01*
X54725000Y-118045793D01*
X55450000Y-118045793D01*
X55450000Y-118150000D01*
X56200000Y-118150000D01*
X56700000Y-118150000D01*
X57449999Y-118150000D01*
X57449999Y-118045803D01*
X57447148Y-118015393D01*
X57402346Y-117887354D01*
X57321792Y-117778207D01*
X57212645Y-117697653D01*
X57084602Y-117652850D01*
X57054207Y-117650000D01*
X56700000Y-117650000D01*
X56700000Y-118150000D01*
X56200000Y-118150000D01*
X56200000Y-117650000D01*
X55845804Y-117650000D01*
X55815393Y-117652851D01*
X55687354Y-117697653D01*
X55578207Y-117778207D01*
X55497653Y-117887354D01*
X55452850Y-118015395D01*
X55452850Y-118015399D01*
X55450000Y-118045793D01*
X54725000Y-118045793D01*
X54725000Y-116999999D01*
X64934729Y-116999999D01*
X64934730Y-117000000D01*
X65612500Y-117000000D01*
X65612500Y-116750000D01*
X65241787Y-116750000D01*
X65173751Y-116759912D01*
X65068808Y-116811215D01*
X64986212Y-116893811D01*
X64934911Y-116998750D01*
X64934729Y-116999999D01*
X54725000Y-116999999D01*
X54725000Y-114824000D01*
X54744685Y-114756961D01*
X54797489Y-114711206D01*
X54849000Y-114700000D01*
X66601000Y-114700000D01*
X66668039Y-114719685D01*
G37*
%TD.AperFunction*%
%TD*%
%TA.AperFunction,Conductor*%
%TO.N,+5V*%
G36*
X94471142Y-106019685D02*
G01*
X94516897Y-106072489D01*
X94526841Y-106141647D01*
X94526807Y-106141878D01*
X94525000Y-106154280D01*
X94525000Y-106450000D01*
X95151000Y-106450000D01*
X95218039Y-106469685D01*
X95263794Y-106522489D01*
X95275000Y-106574000D01*
X95275000Y-107552768D01*
X95282150Y-107558957D01*
X95319957Y-107617714D01*
X95325000Y-107652716D01*
X95325000Y-108125000D01*
X96363681Y-109163681D01*
X96397166Y-109225004D01*
X96400000Y-109251362D01*
X96400000Y-111945096D01*
X96380315Y-112012135D01*
X96327511Y-112057890D01*
X96258353Y-112067834D01*
X96221540Y-112056497D01*
X96126247Y-112009911D01*
X96058220Y-112000000D01*
X95687500Y-112000000D01*
X95687500Y-112999999D01*
X96058218Y-112999999D01*
X96126250Y-112990087D01*
X96221539Y-112943503D01*
X96290412Y-112931743D01*
X96354710Y-112959086D01*
X96394017Y-113016851D01*
X96400000Y-113054903D01*
X96400000Y-118700000D01*
X111400000Y-118700000D01*
X111400000Y-117484703D01*
X111419685Y-117417664D01*
X111472489Y-117371909D01*
X111541647Y-117361965D01*
X111605203Y-117390990D01*
X111641042Y-117443750D01*
X111647652Y-117462643D01*
X111647653Y-117462645D01*
X111728207Y-117571792D01*
X111837354Y-117652346D01*
X111965397Y-117697149D01*
X111995792Y-117699999D01*
X112349999Y-117699999D01*
X112850000Y-117699999D01*
X113204196Y-117699999D01*
X113234606Y-117697148D01*
X113362645Y-117652346D01*
X113471792Y-117571792D01*
X113552346Y-117462645D01*
X113597149Y-117334604D01*
X113597149Y-117334600D01*
X113600000Y-117304206D01*
X113600000Y-116739196D01*
X116300001Y-116739196D01*
X116302851Y-116769606D01*
X116347653Y-116897645D01*
X116428207Y-117006792D01*
X116537354Y-117087346D01*
X116665397Y-117132149D01*
X116695792Y-117134999D01*
X117149999Y-117134999D01*
X117650000Y-117134999D01*
X118104196Y-117134999D01*
X118134606Y-117132148D01*
X118262645Y-117087346D01*
X118371792Y-117006792D01*
X118452346Y-116897645D01*
X118497149Y-116769604D01*
X118497149Y-116769600D01*
X118500000Y-116739206D01*
X118500000Y-116610000D01*
X117650000Y-116610000D01*
X117650000Y-117134999D01*
X117149999Y-117134999D01*
X117150000Y-117134998D01*
X117150000Y-116610000D01*
X116300001Y-116610000D01*
X116300001Y-116739196D01*
X113600000Y-116739196D01*
X113600000Y-116450000D01*
X112850000Y-116450000D01*
X112850000Y-117699999D01*
X112349999Y-117699999D01*
X112350000Y-117699998D01*
X112350000Y-116312697D01*
X118750000Y-116312697D01*
X118764800Y-116425104D01*
X118764801Y-116425108D01*
X118822736Y-116564978D01*
X118914905Y-116685094D01*
X119035021Y-116777263D01*
X119174891Y-116835198D01*
X119174895Y-116835199D01*
X119287302Y-116849999D01*
X119287317Y-116850000D01*
X119700000Y-116850000D01*
X120200000Y-116850000D01*
X120612683Y-116850000D01*
X120612697Y-116849999D01*
X120725104Y-116835199D01*
X120725108Y-116835198D01*
X120864978Y-116777263D01*
X120985094Y-116685094D01*
X121077263Y-116564978D01*
X121135198Y-116425108D01*
X121135199Y-116425104D01*
X121149999Y-116312697D01*
X121150000Y-116312683D01*
X121150000Y-116150000D01*
X120200000Y-116150000D01*
X120200000Y-116850000D01*
X119700000Y-116850000D01*
X119700000Y-116150000D01*
X118750000Y-116150000D01*
X118750000Y-116312697D01*
X112350000Y-116312697D01*
X112350000Y-116074000D01*
X112369685Y-116006961D01*
X112399884Y-115980793D01*
X116300000Y-115980793D01*
X116300000Y-116110000D01*
X117150000Y-116110000D01*
X117650000Y-116110000D01*
X118499999Y-116110000D01*
X118499999Y-115980803D01*
X118497148Y-115950393D01*
X118452346Y-115822354D01*
X118371792Y-115713207D01*
X118262645Y-115632653D01*
X118134602Y-115587850D01*
X118104207Y-115585000D01*
X117650000Y-115585000D01*
X117650000Y-116110000D01*
X117150000Y-116110000D01*
X117150000Y-115585000D01*
X116695803Y-115585000D01*
X116665393Y-115587851D01*
X116537354Y-115632653D01*
X116428207Y-115713207D01*
X116347653Y-115822354D01*
X116302850Y-115950395D01*
X116302850Y-115950399D01*
X116300000Y-115980793D01*
X112399884Y-115980793D01*
X112422489Y-115961206D01*
X112474000Y-115950000D01*
X113599999Y-115950000D01*
X113599999Y-115350000D01*
X115156146Y-115350000D01*
X115197191Y-115438023D01*
X115281975Y-115522807D01*
X115390644Y-115573480D01*
X115400000Y-115574711D01*
X115900000Y-115574711D01*
X115909355Y-115573480D01*
X116018024Y-115522807D01*
X116102808Y-115438023D01*
X116143854Y-115350000D01*
X115900000Y-115350000D01*
X115900000Y-115574711D01*
X115400000Y-115574711D01*
X115400000Y-115350000D01*
X115156146Y-115350000D01*
X113599999Y-115350000D01*
X113599999Y-115095803D01*
X113597147Y-115065392D01*
X113597147Y-115065391D01*
X113562004Y-114964953D01*
X113558443Y-114895175D01*
X113593173Y-114834548D01*
X113655166Y-114802321D01*
X113679046Y-114800000D01*
X115056264Y-114800000D01*
X115123303Y-114819685D01*
X115153499Y-114850000D01*
X116147598Y-114850000D01*
X116191778Y-114811410D01*
X116243736Y-114800000D01*
X118960005Y-114800000D01*
X119027044Y-114819685D01*
X119072799Y-114872489D01*
X119082743Y-114941647D01*
X119053718Y-115005203D01*
X119035492Y-115022376D01*
X118914905Y-115114905D01*
X118822736Y-115235021D01*
X118764801Y-115374891D01*
X118764800Y-115374895D01*
X118750000Y-115487302D01*
X118750000Y-115650000D01*
X121150000Y-115650000D01*
X121150000Y-115487316D01*
X121149999Y-115487302D01*
X121135199Y-115374895D01*
X121135198Y-115374891D01*
X121077263Y-115235021D01*
X120985094Y-115114905D01*
X120864508Y-115022376D01*
X120823306Y-114965948D01*
X120819151Y-114896202D01*
X120853364Y-114835281D01*
X120915081Y-114802529D01*
X120939995Y-114800000D01*
X121276000Y-114800000D01*
X121343039Y-114819685D01*
X121388794Y-114872489D01*
X121400000Y-114924000D01*
X121400000Y-124276000D01*
X121380315Y-124343039D01*
X121327511Y-124388794D01*
X121276000Y-124400000D01*
X120729003Y-124400000D01*
X120681550Y-124390561D01*
X120680525Y-124390136D01*
X120633936Y-124370838D01*
X120588457Y-124352000D01*
X120588456Y-124352000D01*
X120123466Y-124352000D01*
X120056427Y-124332315D01*
X120010672Y-124279511D01*
X120000728Y-124210353D01*
X120029753Y-124146797D01*
X120035785Y-124140319D01*
X120074913Y-124101190D01*
X120074915Y-124101188D01*
X120126215Y-123996251D01*
X120126216Y-123996248D01*
X120136128Y-123928219D01*
X120136128Y-123632500D01*
X119510128Y-123632500D01*
X119443089Y-123612815D01*
X119397334Y-123560011D01*
X119386128Y-123508500D01*
X119386128Y-123132500D01*
X119886128Y-123132500D01*
X120136127Y-123132500D01*
X120136127Y-122836782D01*
X120126215Y-122768750D01*
X120074912Y-122663808D01*
X119992316Y-122581212D01*
X119887377Y-122529911D01*
X119887378Y-122529911D01*
X119886128Y-122529729D01*
X119886128Y-123132500D01*
X119386128Y-123132500D01*
X119386128Y-122529730D01*
X119386127Y-122529729D01*
X119384878Y-122529911D01*
X119279940Y-122581212D01*
X119213806Y-122647346D01*
X119152482Y-122680830D01*
X119082791Y-122675845D01*
X119038443Y-122647344D01*
X119008893Y-122617794D01*
X118999415Y-122611301D01*
X119000359Y-122609922D01*
X118957162Y-122573430D01*
X118941989Y-122524056D01*
X118939010Y-122524649D01*
X118936628Y-122512675D01*
X118936628Y-122512672D01*
X118898492Y-122420603D01*
X118828025Y-122350136D01*
X118685525Y-122207636D01*
X118593457Y-122169500D01*
X118593456Y-122169500D01*
X116330172Y-122169500D01*
X116330170Y-122169500D01*
X116238102Y-122207636D01*
X116238101Y-122207637D01*
X116167635Y-122278104D01*
X115682057Y-122763681D01*
X115620734Y-122797166D01*
X115600677Y-122799322D01*
X115600000Y-122800000D01*
X115600000Y-122803589D01*
X115590561Y-122851042D01*
X115549500Y-122950170D01*
X115549500Y-124244877D01*
X115529815Y-124311916D01*
X115513181Y-124332558D01*
X115432558Y-124413181D01*
X115371235Y-124446666D01*
X115344877Y-124449500D01*
X114860128Y-124449500D01*
X114793089Y-124429815D01*
X114747334Y-124377011D01*
X114736128Y-124325500D01*
X114736128Y-124075000D01*
X113736129Y-124075000D01*
X113736129Y-124445717D01*
X113746040Y-124513749D01*
X113798736Y-124621540D01*
X113810495Y-124690413D01*
X113783151Y-124754710D01*
X113725387Y-124794017D01*
X113687335Y-124800000D01*
X112724000Y-124800000D01*
X112656961Y-124780315D01*
X112611206Y-124727511D01*
X112600000Y-124676000D01*
X112600000Y-123204280D01*
X113736128Y-123204280D01*
X113736128Y-123575000D01*
X113986128Y-123575000D01*
X114486128Y-123575000D01*
X114736127Y-123575000D01*
X114736127Y-123204282D01*
X114726215Y-123136250D01*
X114674912Y-123031308D01*
X114592316Y-122948712D01*
X114487377Y-122897411D01*
X114487378Y-122897411D01*
X114486128Y-122897229D01*
X114486128Y-123575000D01*
X113986128Y-123575000D01*
X113986128Y-122897230D01*
X113986127Y-122897229D01*
X113984878Y-122897411D01*
X113879939Y-122948712D01*
X113797340Y-123031311D01*
X113746040Y-123136248D01*
X113746039Y-123136251D01*
X113736128Y-123204280D01*
X112600000Y-123204280D01*
X112600000Y-121800000D01*
X112100000Y-121300000D01*
X109719001Y-121300000D01*
X109651962Y-121280315D01*
X109606207Y-121227511D01*
X109596263Y-121158353D01*
X109596527Y-121156603D01*
X109605492Y-121100000D01*
X109605492Y-121099997D01*
X109605492Y-121099996D01*
X109585647Y-120974699D01*
X109585647Y-120974698D01*
X109574300Y-120952429D01*
X109528050Y-120861658D01*
X109528046Y-120861654D01*
X109528045Y-120861652D01*
X109438347Y-120771954D01*
X109438344Y-120771952D01*
X109438342Y-120771950D01*
X109325304Y-120714354D01*
X109325303Y-120714353D01*
X109325300Y-120714352D01*
X109200003Y-120694508D01*
X109199997Y-120694508D01*
X109074699Y-120714352D01*
X109074698Y-120714352D01*
X109005359Y-120749683D01*
X108961658Y-120771950D01*
X108961657Y-120771951D01*
X108961652Y-120771954D01*
X108871954Y-120861652D01*
X108871951Y-120861657D01*
X108814352Y-120974698D01*
X108814352Y-120974699D01*
X108794508Y-121099996D01*
X108794508Y-121099997D01*
X108794508Y-121100000D01*
X108803473Y-121156603D01*
X108794517Y-121225896D01*
X108749520Y-121279348D01*
X108682769Y-121299987D01*
X108680999Y-121300000D01*
X102240474Y-121300000D01*
X102173435Y-121280315D01*
X102127680Y-121227511D01*
X102117736Y-121158353D01*
X102118001Y-121156603D01*
X102130492Y-121077736D01*
X102130492Y-121077729D01*
X102110647Y-120952432D01*
X102110647Y-120952431D01*
X102110646Y-120952429D01*
X102053050Y-120839391D01*
X102053046Y-120839387D01*
X102053045Y-120839385D01*
X101963347Y-120749687D01*
X101963344Y-120749685D01*
X101963342Y-120749683D01*
X101850304Y-120692087D01*
X101850303Y-120692086D01*
X101850300Y-120692085D01*
X101725003Y-120672241D01*
X101724997Y-120672241D01*
X101599699Y-120692085D01*
X101599698Y-120692085D01*
X101539644Y-120722685D01*
X101486658Y-120749683D01*
X101486657Y-120749684D01*
X101486652Y-120749687D01*
X101396954Y-120839385D01*
X101396951Y-120839390D01*
X101396950Y-120839391D01*
X101377751Y-120877070D01*
X101339352Y-120952431D01*
X101339352Y-120952432D01*
X101319508Y-121077729D01*
X101319508Y-121077736D01*
X101331999Y-121156603D01*
X101323044Y-121225896D01*
X101278048Y-121279348D01*
X101211296Y-121299987D01*
X101209526Y-121300000D01*
X93351362Y-121300000D01*
X93284323Y-121280315D01*
X93263681Y-121263681D01*
X91800000Y-119800000D01*
X88424000Y-119800000D01*
X88356961Y-119780315D01*
X88311206Y-119727511D01*
X88300000Y-119676000D01*
X88300000Y-117583501D01*
X88651396Y-117583501D01*
X89239794Y-117583501D01*
X89206881Y-117640508D01*
X89172806Y-117767675D01*
X89172806Y-117899327D01*
X89206881Y-118026494D01*
X89239794Y-118083501D01*
X88651396Y-118083501D01*
X88698039Y-118237267D01*
X88795534Y-118419667D01*
X88795538Y-118419674D01*
X88926750Y-118579556D01*
X89086632Y-118710768D01*
X89086639Y-118710772D01*
X89269039Y-118808267D01*
X89422806Y-118854911D01*
X89422806Y-118266513D01*
X89479813Y-118299426D01*
X89606980Y-118333501D01*
X89738632Y-118333501D01*
X89865799Y-118299426D01*
X89922806Y-118266513D01*
X89922806Y-118854911D01*
X90076572Y-118808267D01*
X90258972Y-118710772D01*
X90258979Y-118710768D01*
X90418861Y-118579556D01*
X90550073Y-118419674D01*
X90550077Y-118419667D01*
X90647572Y-118237267D01*
X90694216Y-118083501D01*
X90105818Y-118083501D01*
X90138731Y-118026494D01*
X90172806Y-117899327D01*
X90172806Y-117767675D01*
X90138731Y-117640508D01*
X90105818Y-117583501D01*
X90694216Y-117583501D01*
X90647572Y-117429734D01*
X90550077Y-117247334D01*
X90550073Y-117247327D01*
X90418861Y-117087445D01*
X90258979Y-116956233D01*
X90258972Y-116956229D01*
X90076569Y-116858733D01*
X89922806Y-116812088D01*
X89922806Y-117400489D01*
X89865799Y-117367576D01*
X89738632Y-117333501D01*
X89606980Y-117333501D01*
X89479813Y-117367576D01*
X89422806Y-117400489D01*
X89422806Y-116812088D01*
X89269042Y-116858733D01*
X89086639Y-116956229D01*
X89086632Y-116956233D01*
X88926750Y-117087445D01*
X88795538Y-117247327D01*
X88795534Y-117247334D01*
X88698039Y-117429734D01*
X88651396Y-117583501D01*
X88300000Y-117583501D01*
X88300000Y-115043501D01*
X88651396Y-115043501D01*
X89239794Y-115043501D01*
X89206881Y-115100508D01*
X89172806Y-115227675D01*
X89172806Y-115359327D01*
X89206881Y-115486494D01*
X89239794Y-115543501D01*
X88651396Y-115543501D01*
X88698039Y-115697267D01*
X88795534Y-115879667D01*
X88795538Y-115879674D01*
X88926750Y-116039556D01*
X89086632Y-116170768D01*
X89086639Y-116170772D01*
X89269039Y-116268267D01*
X89422806Y-116314911D01*
X89422806Y-115726513D01*
X89479813Y-115759426D01*
X89606980Y-115793501D01*
X89738632Y-115793501D01*
X89865799Y-115759426D01*
X89922806Y-115726513D01*
X89922806Y-116314911D01*
X90076572Y-116268267D01*
X90258972Y-116170772D01*
X90258979Y-116170768D01*
X90418861Y-116039556D01*
X90550073Y-115879674D01*
X90550077Y-115879667D01*
X90647572Y-115697267D01*
X90694216Y-115543501D01*
X90105818Y-115543501D01*
X90138731Y-115486494D01*
X90172806Y-115359327D01*
X90172806Y-115227675D01*
X90138731Y-115100508D01*
X90105818Y-115043501D01*
X90694216Y-115043501D01*
X90647572Y-114889734D01*
X90550077Y-114707334D01*
X90550073Y-114707327D01*
X90418861Y-114547445D01*
X90258979Y-114416233D01*
X90258972Y-114416229D01*
X90076569Y-114318733D01*
X89922806Y-114272088D01*
X89922806Y-114860489D01*
X89865799Y-114827576D01*
X89738632Y-114793501D01*
X89606980Y-114793501D01*
X89479813Y-114827576D01*
X89422806Y-114860489D01*
X89422806Y-114272088D01*
X89269042Y-114318733D01*
X89086639Y-114416229D01*
X89086632Y-114416233D01*
X88926750Y-114547445D01*
X88795538Y-114707327D01*
X88795534Y-114707334D01*
X88698039Y-114889734D01*
X88651396Y-115043501D01*
X88300000Y-115043501D01*
X88300000Y-114124000D01*
X88319685Y-114056961D01*
X88372489Y-114011206D01*
X88424000Y-114000000D01*
X94200000Y-114000000D01*
X94200000Y-112750000D01*
X94509730Y-112750000D01*
X94509911Y-112751249D01*
X94561212Y-112856188D01*
X94643811Y-112938787D01*
X94748748Y-112990087D01*
X94748751Y-112990088D01*
X94816780Y-112999999D01*
X95187499Y-112999999D01*
X95187500Y-112999998D01*
X95187500Y-112750000D01*
X94509730Y-112750000D01*
X94200000Y-112750000D01*
X94200000Y-112249999D01*
X94509729Y-112249999D01*
X94509730Y-112250000D01*
X95187500Y-112250000D01*
X95187500Y-112000000D01*
X94816787Y-112000000D01*
X94748751Y-112009912D01*
X94643808Y-112061215D01*
X94561212Y-112143811D01*
X94509911Y-112248750D01*
X94509729Y-112249999D01*
X94200000Y-112249999D01*
X94200000Y-107245717D01*
X94525001Y-107245717D01*
X94534912Y-107313749D01*
X94586215Y-107418691D01*
X94668808Y-107501284D01*
X94773755Y-107552589D01*
X94775000Y-107552769D01*
X94775000Y-106950000D01*
X94525001Y-106950000D01*
X94525001Y-107245717D01*
X94200000Y-107245717D01*
X94200000Y-106124000D01*
X94219685Y-106056961D01*
X94272489Y-106011206D01*
X94324000Y-106000000D01*
X94404103Y-106000000D01*
X94471142Y-106019685D01*
G37*
%TD.AperFunction*%
%TD*%
%TA.AperFunction,Conductor*%
%TO.N,Net-(U9-VCOM)*%
G36*
X123524241Y-68157031D02*
G01*
X123528397Y-68160000D01*
X124726000Y-68160000D01*
X124793039Y-68179685D01*
X124838794Y-68232489D01*
X124850000Y-68284000D01*
X124850000Y-68516000D01*
X124830315Y-68583039D01*
X124810741Y-68600000D01*
X123400000Y-68600000D01*
X123400000Y-71000000D01*
X124088602Y-71000000D01*
X124155641Y-71019685D01*
X124201396Y-71072489D01*
X124211074Y-71104600D01*
X124214354Y-71125304D01*
X124271950Y-71238342D01*
X124271952Y-71238344D01*
X124271954Y-71238347D01*
X124361652Y-71328045D01*
X124361654Y-71328046D01*
X124361658Y-71328050D01*
X124474696Y-71385646D01*
X124474697Y-71385646D01*
X124474699Y-71385647D01*
X124599997Y-71405492D01*
X124600000Y-71405492D01*
X124600003Y-71405492D01*
X124725300Y-71385647D01*
X124725301Y-71385647D01*
X124725302Y-71385646D01*
X124725304Y-71385646D01*
X124838342Y-71328050D01*
X124928050Y-71238342D01*
X124985646Y-71125304D01*
X124988924Y-71104602D01*
X125018853Y-71041469D01*
X125078164Y-71004537D01*
X125111398Y-71000000D01*
X125748638Y-71000000D01*
X125815677Y-71019685D01*
X125836319Y-71036319D01*
X127163681Y-72363681D01*
X127197166Y-72425004D01*
X127200000Y-72451362D01*
X127200000Y-75548638D01*
X127180315Y-75615677D01*
X127163681Y-75636319D01*
X126836319Y-75963681D01*
X126774996Y-75997166D01*
X126748638Y-76000000D01*
X124251362Y-76000000D01*
X124184323Y-75980315D01*
X124163681Y-75963681D01*
X123695017Y-75495017D01*
X123661532Y-75433694D01*
X123658698Y-75407336D01*
X123658698Y-74745107D01*
X123980001Y-74745107D01*
X123990479Y-74817035D01*
X124044712Y-74927972D01*
X124132027Y-75015287D01*
X124242964Y-75069519D01*
X124242971Y-75069522D01*
X124314886Y-75079999D01*
X125149999Y-75079999D01*
X125650000Y-75079999D01*
X126485107Y-75079999D01*
X126557035Y-75069520D01*
X126667972Y-75015287D01*
X126755287Y-74927972D01*
X126809519Y-74817035D01*
X126809522Y-74817028D01*
X126820000Y-74745113D01*
X126820000Y-74410000D01*
X125650000Y-74410000D01*
X125650000Y-75079999D01*
X125149999Y-75079999D01*
X125150000Y-75079998D01*
X125150000Y-74410000D01*
X123980001Y-74410000D01*
X123980001Y-74745107D01*
X123658698Y-74745107D01*
X123658698Y-73574886D01*
X123980000Y-73574886D01*
X123980000Y-73910000D01*
X125150000Y-73910000D01*
X125650000Y-73910000D01*
X126819999Y-73910000D01*
X126819999Y-73574892D01*
X126809520Y-73502964D01*
X126755287Y-73392027D01*
X126667972Y-73304712D01*
X126557035Y-73250480D01*
X126557028Y-73250477D01*
X126485114Y-73240000D01*
X125650000Y-73240000D01*
X125650000Y-73910000D01*
X125150000Y-73910000D01*
X125150000Y-73240000D01*
X124314892Y-73240000D01*
X124242964Y-73250479D01*
X124132027Y-73304712D01*
X124044712Y-73392027D01*
X123990480Y-73502964D01*
X123990477Y-73502971D01*
X123980000Y-73574886D01*
X123658698Y-73574886D01*
X123658698Y-73436073D01*
X123658642Y-73435035D01*
X123657807Y-73419451D01*
X123654973Y-73393093D01*
X123653731Y-73387127D01*
X123654092Y-73387051D01*
X123649394Y-73356315D01*
X123649394Y-73249394D01*
X121636319Y-71236319D01*
X121602834Y-71174996D01*
X121600000Y-71148638D01*
X121600000Y-68289500D01*
X121619685Y-68222461D01*
X121672489Y-68176706D01*
X121724000Y-68165500D01*
X123375991Y-68165500D01*
X123376000Y-68165500D01*
X123409055Y-68161946D01*
X123454552Y-68152048D01*
X123524241Y-68157031D01*
G37*
%TD.AperFunction*%
%TD*%
%TA.AperFunction,Conductor*%
%TO.N,Net-(M1-+)*%
G36*
X59607335Y-119769685D02*
G01*
X59653090Y-119822489D01*
X59663034Y-119891647D01*
X59634009Y-119955203D01*
X59581250Y-119991042D01*
X59562354Y-119997653D01*
X59453207Y-120078207D01*
X59372653Y-120187354D01*
X59327850Y-120315395D01*
X59327850Y-120315399D01*
X59325000Y-120345793D01*
X59325000Y-120750000D01*
X60091988Y-120750000D01*
X60059075Y-120807007D01*
X60025000Y-120934174D01*
X60025000Y-121065826D01*
X60059075Y-121192993D01*
X60091988Y-121250000D01*
X59325001Y-121250000D01*
X59325001Y-121654196D01*
X59327851Y-121684606D01*
X59372653Y-121812645D01*
X59453207Y-121921792D01*
X59562354Y-122002346D01*
X59690397Y-122047149D01*
X59720792Y-122049999D01*
X60274999Y-122049999D01*
X60275000Y-122049998D01*
X60275000Y-121433012D01*
X60332007Y-121465925D01*
X60459174Y-121500000D01*
X60590826Y-121500000D01*
X60717993Y-121465925D01*
X60775000Y-121433012D01*
X60775000Y-122049999D01*
X61329196Y-122049999D01*
X61359606Y-122047148D01*
X61487645Y-122002346D01*
X61596792Y-121921792D01*
X61677346Y-121812645D01*
X61722149Y-121684604D01*
X61722149Y-121684600D01*
X61725000Y-121654206D01*
X61725000Y-121250000D01*
X60958012Y-121250000D01*
X60990925Y-121192993D01*
X61025000Y-121065826D01*
X61025000Y-120934174D01*
X60990925Y-120807007D01*
X60958012Y-120750000D01*
X61724999Y-120750000D01*
X61724999Y-120495793D01*
X65045000Y-120495793D01*
X65045000Y-120950000D01*
X65570000Y-120950000D01*
X65570000Y-120100000D01*
X65440804Y-120100000D01*
X65410393Y-120102851D01*
X65282354Y-120147653D01*
X65173207Y-120228207D01*
X65092653Y-120337354D01*
X65047850Y-120465395D01*
X65047850Y-120465399D01*
X65045000Y-120495793D01*
X61724999Y-120495793D01*
X61724999Y-120345803D01*
X61722148Y-120315393D01*
X61677346Y-120187354D01*
X61596792Y-120078207D01*
X61487645Y-119997653D01*
X61468750Y-119991042D01*
X61411974Y-119950320D01*
X61386226Y-119885368D01*
X61399682Y-119816806D01*
X61448069Y-119766403D01*
X61509704Y-119750000D01*
X66601000Y-119750000D01*
X66668039Y-119769685D01*
X66713794Y-119822489D01*
X66725000Y-119874000D01*
X66725000Y-120201235D01*
X66705315Y-120268274D01*
X66652511Y-120314029D01*
X66583353Y-120323973D01*
X66519797Y-120294948D01*
X66501230Y-120274869D01*
X66466792Y-120228207D01*
X66357645Y-120147653D01*
X66229602Y-120102850D01*
X66199207Y-120100000D01*
X66070000Y-120100000D01*
X66070000Y-122332849D01*
X66050315Y-122399888D01*
X65998405Y-122445231D01*
X65886975Y-122497192D01*
X65802192Y-122581975D01*
X65751521Y-122690638D01*
X65751519Y-122690644D01*
X65750288Y-122700000D01*
X66351000Y-122700000D01*
X66418039Y-122719685D01*
X66463794Y-122772489D01*
X66475000Y-122824000D01*
X66475000Y-123076000D01*
X66455315Y-123143039D01*
X66402511Y-123188794D01*
X66351000Y-123200000D01*
X65750288Y-123200000D01*
X65751519Y-123209355D01*
X65751521Y-123209361D01*
X65802192Y-123318024D01*
X65886975Y-123402807D01*
X65908014Y-123412618D01*
X65960453Y-123458790D01*
X65979605Y-123525984D01*
X65959389Y-123592865D01*
X65908014Y-123637382D01*
X65886975Y-123647192D01*
X65802192Y-123731975D01*
X65751521Y-123840638D01*
X65751519Y-123840644D01*
X65750288Y-123850000D01*
X66351000Y-123850000D01*
X66418039Y-123869685D01*
X66463794Y-123922489D01*
X66475000Y-123974000D01*
X66475000Y-124593852D01*
X66548595Y-124559535D01*
X66617672Y-124549043D01*
X66681456Y-124577563D01*
X66719696Y-124636039D01*
X66725000Y-124671917D01*
X66725000Y-125076000D01*
X66705315Y-125143039D01*
X66652511Y-125188794D01*
X66601000Y-125200000D01*
X50004733Y-125200000D01*
X49937694Y-125180315D01*
X49891939Y-125127511D01*
X49880733Y-125076000D01*
X49880733Y-124154196D01*
X50650001Y-124154196D01*
X50652851Y-124184606D01*
X50697653Y-124312645D01*
X50778207Y-124421792D01*
X50887354Y-124502346D01*
X51015397Y-124547149D01*
X51045792Y-124549999D01*
X51399999Y-124549999D01*
X51900000Y-124549999D01*
X52254196Y-124549999D01*
X52284606Y-124547148D01*
X52412645Y-124502346D01*
X52521792Y-124421792D01*
X52574777Y-124350000D01*
X65750288Y-124350000D01*
X65751519Y-124359355D01*
X65751521Y-124359361D01*
X65802192Y-124468024D01*
X65886976Y-124552808D01*
X65974999Y-124593853D01*
X65975000Y-124593853D01*
X65975000Y-124350000D01*
X65750288Y-124350000D01*
X52574777Y-124350000D01*
X52602346Y-124312645D01*
X52647149Y-124184604D01*
X52647149Y-124184600D01*
X52650000Y-124154206D01*
X52650000Y-122850000D01*
X51900000Y-122850000D01*
X51900000Y-124549999D01*
X51399999Y-124549999D01*
X51400000Y-124549998D01*
X51400000Y-122850000D01*
X50650001Y-122850000D01*
X50650001Y-124154196D01*
X49880733Y-124154196D01*
X49880733Y-122668995D01*
X61824499Y-122668995D01*
X61851418Y-122804322D01*
X61851421Y-122804332D01*
X61904221Y-122931804D01*
X61904228Y-122931817D01*
X61980885Y-123046541D01*
X61980888Y-123046545D01*
X62078454Y-123144111D01*
X62078458Y-123144114D01*
X62193182Y-123220771D01*
X62193195Y-123220778D01*
X62320667Y-123273578D01*
X62320672Y-123273580D01*
X62320676Y-123273580D01*
X62320677Y-123273581D01*
X62456004Y-123300500D01*
X62456007Y-123300500D01*
X62593995Y-123300500D01*
X62685041Y-123282389D01*
X62729328Y-123273580D01*
X62856811Y-123220775D01*
X62971542Y-123144114D01*
X63069114Y-123046542D01*
X63145775Y-122931811D01*
X63198580Y-122804328D01*
X63216878Y-122712338D01*
X63225500Y-122668995D01*
X63225500Y-122531004D01*
X63198581Y-122395677D01*
X63198580Y-122395676D01*
X63198580Y-122395672D01*
X63157771Y-122297149D01*
X63145778Y-122268195D01*
X63145771Y-122268182D01*
X63069114Y-122153458D01*
X63069111Y-122153454D01*
X62971545Y-122055888D01*
X62971541Y-122055885D01*
X62856817Y-121979228D01*
X62856804Y-121979221D01*
X62729332Y-121926421D01*
X62729322Y-121926418D01*
X62617604Y-121904196D01*
X65045001Y-121904196D01*
X65047851Y-121934606D01*
X65092653Y-122062645D01*
X65173207Y-122171792D01*
X65282354Y-122252346D01*
X65410397Y-122297149D01*
X65440778Y-122299998D01*
X65440806Y-122299999D01*
X65569999Y-122299999D01*
X65570000Y-122299998D01*
X65570000Y-121450000D01*
X65045001Y-121450000D01*
X65045001Y-121904196D01*
X62617604Y-121904196D01*
X62593995Y-121899500D01*
X62593993Y-121899500D01*
X62456007Y-121899500D01*
X62456005Y-121899500D01*
X62320677Y-121926418D01*
X62320667Y-121926421D01*
X62193195Y-121979221D01*
X62193182Y-121979228D01*
X62078458Y-122055885D01*
X62078454Y-122055888D01*
X61980888Y-122153454D01*
X61980885Y-122153458D01*
X61904228Y-122268182D01*
X61904221Y-122268195D01*
X61851421Y-122395667D01*
X61851418Y-122395677D01*
X61824500Y-122531004D01*
X61824500Y-122531007D01*
X61824500Y-122668993D01*
X61824500Y-122668995D01*
X61824499Y-122668995D01*
X49880733Y-122668995D01*
X49880733Y-121045793D01*
X50650000Y-121045793D01*
X50650000Y-122350000D01*
X51400000Y-122350000D01*
X51900000Y-122350000D01*
X52649999Y-122350000D01*
X52649999Y-121554196D01*
X55450001Y-121554196D01*
X55452851Y-121584606D01*
X55497653Y-121712645D01*
X55578207Y-121821792D01*
X55687354Y-121902346D01*
X55815397Y-121947149D01*
X55845792Y-121949999D01*
X56199999Y-121949999D01*
X56700000Y-121949999D01*
X57054196Y-121949999D01*
X57084606Y-121947148D01*
X57212645Y-121902346D01*
X57321792Y-121821792D01*
X57402346Y-121712645D01*
X57447149Y-121584604D01*
X57447149Y-121584600D01*
X57450000Y-121554206D01*
X57450000Y-121450000D01*
X56700000Y-121450000D01*
X56700000Y-121949999D01*
X56199999Y-121949999D01*
X56200000Y-121949998D01*
X56200000Y-121450000D01*
X55450001Y-121450000D01*
X55450001Y-121554196D01*
X52649999Y-121554196D01*
X52649999Y-121045803D01*
X52647148Y-121015393D01*
X52602346Y-120887354D01*
X52571673Y-120845793D01*
X55450000Y-120845793D01*
X55450000Y-120950000D01*
X56200000Y-120950000D01*
X56700000Y-120950000D01*
X57449999Y-120950000D01*
X57449999Y-120845803D01*
X57447148Y-120815393D01*
X57402346Y-120687354D01*
X57321792Y-120578207D01*
X57212645Y-120497653D01*
X57084602Y-120452850D01*
X57054207Y-120450000D01*
X56700000Y-120450000D01*
X56700000Y-120950000D01*
X56200000Y-120950000D01*
X56200000Y-120450000D01*
X55845804Y-120450000D01*
X55815393Y-120452851D01*
X55687354Y-120497653D01*
X55578207Y-120578207D01*
X55497653Y-120687354D01*
X55452850Y-120815395D01*
X55452850Y-120815399D01*
X55450000Y-120845793D01*
X52571673Y-120845793D01*
X52521792Y-120778207D01*
X52412645Y-120697653D01*
X52284602Y-120652850D01*
X52254207Y-120650000D01*
X51900000Y-120650000D01*
X51900000Y-122350000D01*
X51400000Y-122350000D01*
X51400000Y-120650000D01*
X51045804Y-120650000D01*
X51015393Y-120652851D01*
X50887354Y-120697653D01*
X50778207Y-120778207D01*
X50697653Y-120887354D01*
X50652850Y-121015395D01*
X50652850Y-121015399D01*
X50650000Y-121045793D01*
X49880733Y-121045793D01*
X49880733Y-119874000D01*
X49900418Y-119806961D01*
X49953222Y-119761206D01*
X50004733Y-119750000D01*
X59540296Y-119750000D01*
X59607335Y-119769685D01*
G37*
%TD.AperFunction*%
%TD*%
%TA.AperFunction,Conductor*%
%TO.N,/5v buck/BUCK_OUT*%
G36*
X97743147Y-105214352D02*
G01*
X97753322Y-105229205D01*
X97761187Y-105247016D01*
X97761188Y-105247017D01*
X97761190Y-105247020D01*
X97837982Y-105323812D01*
X97937335Y-105367681D01*
X97937341Y-105367683D01*
X97961609Y-105370498D01*
X97961610Y-105370498D01*
X97961627Y-105370500D01*
X98388372Y-105370499D01*
X98412662Y-105367682D01*
X98475709Y-105339843D01*
X98513201Y-105338978D01*
X98540325Y-105364877D01*
X98544500Y-105384669D01*
X98544500Y-112551000D01*
X98530148Y-112585648D01*
X98495500Y-112600000D01*
X96624000Y-112600000D01*
X96589352Y-112585648D01*
X96575000Y-112551000D01*
X96575000Y-105252880D01*
X96589352Y-105218232D01*
X96624000Y-105203880D01*
X96643792Y-105208055D01*
X96705006Y-105235084D01*
X96705009Y-105235085D01*
X96730135Y-105238000D01*
X97119864Y-105237999D01*
X97144991Y-105235085D01*
X97214996Y-105204175D01*
X97234788Y-105200000D01*
X97708499Y-105200000D01*
X97743147Y-105214352D01*
G37*
%TD.AperFunction*%
%TD*%
%TA.AperFunction,Conductor*%
%TO.N,GND*%
G36*
X114841543Y-108500456D02*
G01*
X114841553Y-108500293D01*
X114845115Y-108500497D01*
X114845135Y-108500500D01*
X116114864Y-108500499D01*
X116114871Y-108500498D01*
X116118439Y-108500292D01*
X116118448Y-108500455D01*
X116126334Y-108500000D01*
X118935173Y-108500000D01*
X118991466Y-108513514D01*
X119024696Y-108530446D01*
X119024697Y-108530446D01*
X119024699Y-108530447D01*
X119149997Y-108550292D01*
X119150000Y-108550292D01*
X119150003Y-108550292D01*
X119275300Y-108530447D01*
X119275301Y-108530447D01*
X119275302Y-108530446D01*
X119275304Y-108530446D01*
X119308533Y-108513514D01*
X119364827Y-108500000D01*
X119476000Y-108500000D01*
X119543039Y-108519685D01*
X119588794Y-108572489D01*
X119600000Y-108624000D01*
X119600000Y-108949911D01*
X119580315Y-109016950D01*
X119527511Y-109062705D01*
X119458353Y-109072649D01*
X119407110Y-109053014D01*
X119333641Y-109003924D01*
X119333638Y-109003923D01*
X119263641Y-108990000D01*
X119250000Y-108990000D01*
X119250000Y-109810000D01*
X119263640Y-109810000D01*
X119263642Y-109809999D01*
X119333638Y-109796076D01*
X119333642Y-109796074D01*
X119407109Y-109746986D01*
X119473786Y-109726108D01*
X119541167Y-109744592D01*
X119587857Y-109796571D01*
X119600000Y-109850088D01*
X119600000Y-110000000D01*
X121276000Y-110000000D01*
X121343039Y-110019685D01*
X121388794Y-110072489D01*
X121400000Y-110124000D01*
X121400000Y-112276000D01*
X121380315Y-112343039D01*
X121327511Y-112388794D01*
X121276000Y-112400000D01*
X118800000Y-112400000D01*
X118800000Y-113172276D01*
X118799529Y-113180152D01*
X118799721Y-113180164D01*
X118799500Y-113183854D01*
X118799500Y-114016149D01*
X118799721Y-114019841D01*
X118799528Y-114019852D01*
X118800000Y-114027725D01*
X118800000Y-114476000D01*
X118780315Y-114543039D01*
X118727511Y-114588794D01*
X118676000Y-114600000D01*
X116100089Y-114600000D01*
X116033050Y-114580315D01*
X115987295Y-114527511D01*
X115977351Y-114458353D01*
X115996986Y-114407110D01*
X116046075Y-114333641D01*
X116046076Y-114333638D01*
X116059999Y-114263642D01*
X116060000Y-114263640D01*
X116060000Y-114250000D01*
X115240000Y-114250000D01*
X115240000Y-114263642D01*
X115253923Y-114333638D01*
X115253924Y-114333641D01*
X115303014Y-114407110D01*
X115323891Y-114473788D01*
X115305406Y-114541168D01*
X115253427Y-114587857D01*
X115199911Y-114600000D01*
X111524000Y-114600000D01*
X111456961Y-114580315D01*
X111411206Y-114527511D01*
X111400000Y-114476000D01*
X111400000Y-113683217D01*
X111700001Y-113683217D01*
X111709912Y-113751249D01*
X111761215Y-113856191D01*
X111843811Y-113938787D01*
X111948748Y-113990087D01*
X111948751Y-113990088D01*
X112016780Y-113999999D01*
X112449999Y-113999999D01*
X112750000Y-113999999D01*
X113183218Y-113999999D01*
X113251249Y-113990087D01*
X113356191Y-113938784D01*
X113358618Y-113936357D01*
X115240000Y-113936357D01*
X115240000Y-113950000D01*
X115500000Y-113950000D01*
X115800000Y-113950000D01*
X116060000Y-113950000D01*
X116060000Y-113936359D01*
X116059999Y-113936357D01*
X116046076Y-113866361D01*
X116046073Y-113866354D01*
X115993030Y-113786969D01*
X115949999Y-113758217D01*
X116400001Y-113758217D01*
X116409912Y-113826249D01*
X116461215Y-113931191D01*
X116543811Y-114013787D01*
X116648748Y-114065087D01*
X116648751Y-114065088D01*
X116716780Y-114074999D01*
X117249999Y-114074999D01*
X117550000Y-114074999D01*
X118083218Y-114074999D01*
X118151249Y-114065087D01*
X118256191Y-114013784D01*
X118338787Y-113931188D01*
X118390087Y-113826251D01*
X118390088Y-113826248D01*
X118400000Y-113758219D01*
X118400000Y-113550000D01*
X117550000Y-113550000D01*
X117550000Y-114074999D01*
X117249999Y-114074999D01*
X117250000Y-114074998D01*
X117250000Y-113550000D01*
X116400001Y-113550000D01*
X116400001Y-113758217D01*
X115949999Y-113758217D01*
X115913645Y-113733926D01*
X115913638Y-113733923D01*
X115843641Y-113720000D01*
X115800000Y-113720000D01*
X115800000Y-113950000D01*
X115500000Y-113950000D01*
X115500000Y-113720000D01*
X115456359Y-113720000D01*
X115386361Y-113733923D01*
X115386354Y-113733926D01*
X115306969Y-113786969D01*
X115253926Y-113866354D01*
X115253923Y-113866361D01*
X115240000Y-113936357D01*
X113358618Y-113936357D01*
X113438787Y-113856188D01*
X113490087Y-113751251D01*
X113490088Y-113751248D01*
X113500000Y-113683219D01*
X113500000Y-113041780D01*
X116400000Y-113041780D01*
X116400000Y-113250000D01*
X117250000Y-113250000D01*
X117550000Y-113250000D01*
X118399999Y-113250000D01*
X118399999Y-113041782D01*
X118390087Y-112973750D01*
X118338784Y-112868808D01*
X118256188Y-112786212D01*
X118151251Y-112734912D01*
X118151248Y-112734911D01*
X118083220Y-112725000D01*
X117550000Y-112725000D01*
X117550000Y-113250000D01*
X117250000Y-113250000D01*
X117250000Y-112725000D01*
X116716787Y-112725000D01*
X116648751Y-112734912D01*
X116543808Y-112786215D01*
X116461212Y-112868811D01*
X116409912Y-112973748D01*
X116409911Y-112973751D01*
X116400000Y-113041780D01*
X113500000Y-113041780D01*
X113500000Y-112750000D01*
X112750000Y-112750000D01*
X112750000Y-113999999D01*
X112449999Y-113999999D01*
X112450000Y-113999998D01*
X112450000Y-112750000D01*
X111700001Y-112750000D01*
X111700001Y-113683217D01*
X111400000Y-113683217D01*
X111400000Y-111516780D01*
X111700000Y-111516780D01*
X111700000Y-112450000D01*
X112450000Y-112450000D01*
X112750000Y-112450000D01*
X113499999Y-112450000D01*
X113499999Y-111720439D01*
X118850001Y-111720439D01*
X118856081Y-111777007D01*
X118903813Y-111904981D01*
X118903815Y-111904984D01*
X118985670Y-112014329D01*
X119095015Y-112096184D01*
X119095016Y-112096185D01*
X119222989Y-112143916D01*
X119279572Y-112149999D01*
X119799999Y-112149999D01*
X120100000Y-112149999D01*
X120620433Y-112149999D01*
X120620439Y-112149998D01*
X120677007Y-112143918D01*
X120804981Y-112096186D01*
X120804984Y-112096184D01*
X120914329Y-112014329D01*
X120996184Y-111904984D01*
X120996185Y-111904983D01*
X121043916Y-111777010D01*
X121049999Y-111720428D01*
X121050000Y-111720427D01*
X121050000Y-111450000D01*
X120100000Y-111450000D01*
X120100000Y-112149999D01*
X119799999Y-112149999D01*
X119800000Y-112149998D01*
X119800000Y-111450000D01*
X118850001Y-111450000D01*
X118850001Y-111720439D01*
X113499999Y-111720439D01*
X113499999Y-111516782D01*
X113490087Y-111448750D01*
X113438784Y-111343808D01*
X113356188Y-111261212D01*
X113251251Y-111209912D01*
X113251248Y-111209911D01*
X113183220Y-111200000D01*
X112750000Y-111200000D01*
X112750000Y-112450000D01*
X112450000Y-112450000D01*
X112450000Y-111200000D01*
X112016787Y-111200000D01*
X111948751Y-111209912D01*
X111843808Y-111261215D01*
X111761212Y-111343811D01*
X111709912Y-111448748D01*
X111709911Y-111448751D01*
X111700000Y-111516780D01*
X111400000Y-111516780D01*
X111400000Y-110879571D01*
X118850000Y-110879571D01*
X118850000Y-111150000D01*
X119800000Y-111150000D01*
X120100000Y-111150000D01*
X121049999Y-111150000D01*
X121049999Y-110879566D01*
X121049998Y-110879560D01*
X121043918Y-110822992D01*
X120996186Y-110695018D01*
X120996184Y-110695015D01*
X120914329Y-110585670D01*
X120804984Y-110503815D01*
X120804983Y-110503814D01*
X120677010Y-110456083D01*
X120620428Y-110450000D01*
X120100000Y-110450000D01*
X120100000Y-111150000D01*
X119800000Y-111150000D01*
X119800000Y-110450000D01*
X119279565Y-110450000D01*
X119279559Y-110450001D01*
X119222992Y-110456081D01*
X119095018Y-110503813D01*
X119095015Y-110503815D01*
X118985670Y-110585670D01*
X118903815Y-110695015D01*
X118903814Y-110695016D01*
X118856083Y-110822989D01*
X118850000Y-110879571D01*
X111400000Y-110879571D01*
X111400000Y-110724000D01*
X111419685Y-110656961D01*
X111472489Y-110611206D01*
X111524000Y-110600000D01*
X112600000Y-110600000D01*
X112600000Y-109593642D01*
X118720000Y-109593642D01*
X118733923Y-109663638D01*
X118733926Y-109663645D01*
X118786969Y-109743030D01*
X118866354Y-109796073D01*
X118866361Y-109796076D01*
X118936357Y-109809999D01*
X118936360Y-109810000D01*
X118950000Y-109810000D01*
X118950000Y-109550000D01*
X118720000Y-109550000D01*
X118720000Y-109593642D01*
X112600000Y-109593642D01*
X112600000Y-109395152D01*
X112619685Y-109328113D01*
X112672489Y-109282358D01*
X112741647Y-109272414D01*
X112805203Y-109301439D01*
X112827103Y-109326263D01*
X112829760Y-109330239D01*
X112912455Y-109385494D01*
X112912459Y-109385496D01*
X112985371Y-109399999D01*
X112985374Y-109400000D01*
X113450000Y-109400000D01*
X113750000Y-109400000D01*
X114214626Y-109400000D01*
X114214628Y-109399999D01*
X114287540Y-109385496D01*
X114287544Y-109385494D01*
X114370239Y-109330239D01*
X114425494Y-109247544D01*
X114425496Y-109247540D01*
X114433688Y-109206357D01*
X118720000Y-109206357D01*
X118720000Y-109250000D01*
X118950000Y-109250000D01*
X118950000Y-108990000D01*
X118936359Y-108990000D01*
X118866361Y-109003923D01*
X118866354Y-109003926D01*
X118786969Y-109056969D01*
X118733926Y-109136354D01*
X118733923Y-109136361D01*
X118720000Y-109206357D01*
X114433688Y-109206357D01*
X114439999Y-109174628D01*
X114440000Y-109174626D01*
X114440000Y-109150000D01*
X113750000Y-109150000D01*
X113750000Y-109400000D01*
X113450000Y-109400000D01*
X113450000Y-108974000D01*
X113469685Y-108906961D01*
X113522489Y-108861206D01*
X113574000Y-108850000D01*
X114440000Y-108850000D01*
X114440000Y-108825373D01*
X114439999Y-108825371D01*
X114425496Y-108752459D01*
X114425494Y-108752455D01*
X114385695Y-108692891D01*
X114364817Y-108626214D01*
X114383301Y-108558833D01*
X114435280Y-108512143D01*
X114488797Y-108500000D01*
X114833653Y-108500000D01*
X114841543Y-108500456D01*
G37*
%TD.AperFunction*%
%TD*%
%TA.AperFunction,Conductor*%
%TO.N,/5v buck/5V_SW*%
G36*
X109160148Y-109809352D02*
G01*
X109174500Y-109844000D01*
X109174500Y-110539821D01*
X109174736Y-110542217D01*
X109174512Y-110542239D01*
X109175000Y-110547160D01*
X109175000Y-116098400D01*
X109160648Y-116133048D01*
X109126000Y-116147400D01*
X106874000Y-116147400D01*
X106839352Y-116133048D01*
X106825000Y-116098400D01*
X106825000Y-109844000D01*
X106839352Y-109809352D01*
X106874000Y-109795000D01*
X109125500Y-109795000D01*
X109160148Y-109809352D01*
G37*
%TD.AperFunction*%
%TD*%
%TA.AperFunction,Conductor*%
%TO.N,/5v buck/V_{IN}*%
G36*
X95985648Y-125814352D02*
G01*
X96000000Y-125849000D01*
X96000000Y-135151000D01*
X95985648Y-135185648D01*
X95951000Y-135200000D01*
X90749000Y-135200000D01*
X90714352Y-135185648D01*
X90700000Y-135151000D01*
X90700000Y-125849000D01*
X90714352Y-125814352D01*
X90749000Y-125800000D01*
X95951000Y-125800000D01*
X95985648Y-125814352D01*
G37*
%TD.AperFunction*%
%TD*%
%TA.AperFunction,Conductor*%
%TO.N,GND*%
G36*
X122934163Y-72819685D02*
G01*
X122954805Y-72836319D01*
X123466879Y-73348393D01*
X123500364Y-73409716D01*
X123503198Y-73436074D01*
X123503198Y-75445440D01*
X123483513Y-75512479D01*
X123466879Y-75533121D01*
X123036319Y-75963681D01*
X122974996Y-75997166D01*
X122948638Y-76000000D01*
X119051362Y-76000000D01*
X118984323Y-75980315D01*
X118963681Y-75963681D01*
X118636319Y-75636319D01*
X118602834Y-75574996D01*
X118600000Y-75548638D01*
X118600000Y-75033220D01*
X118619685Y-74966181D01*
X118672489Y-74920426D01*
X118741647Y-74910482D01*
X118805203Y-74939507D01*
X118827103Y-74964331D01*
X118842550Y-74987449D01*
X118928552Y-75044915D01*
X118949999Y-75049181D01*
X118950000Y-75049181D01*
X118950000Y-75049180D01*
X119450000Y-75049180D01*
X119471446Y-75044915D01*
X119557449Y-74987449D01*
X119609200Y-74910000D01*
X119450000Y-74910000D01*
X119450000Y-75049180D01*
X118950000Y-75049180D01*
X118950000Y-74745107D01*
X120380001Y-74745107D01*
X120390479Y-74817035D01*
X120444712Y-74927972D01*
X120532027Y-75015287D01*
X120642964Y-75069519D01*
X120642971Y-75069522D01*
X120714886Y-75079999D01*
X121549999Y-75079999D01*
X122050000Y-75079999D01*
X122885107Y-75079999D01*
X122957035Y-75069520D01*
X123067972Y-75015287D01*
X123155287Y-74927972D01*
X123209519Y-74817035D01*
X123209522Y-74817028D01*
X123220000Y-74745113D01*
X123220000Y-74410000D01*
X122050000Y-74410000D01*
X122050000Y-75079999D01*
X121549999Y-75079999D01*
X121550000Y-75079998D01*
X121550000Y-74410000D01*
X120380001Y-74410000D01*
X120380001Y-74745107D01*
X118950000Y-74745107D01*
X118950000Y-74534000D01*
X118969685Y-74466961D01*
X119022489Y-74421206D01*
X119074000Y-74410000D01*
X119609200Y-74410000D01*
X119597768Y-74392891D01*
X119576890Y-74326213D01*
X119595375Y-74258833D01*
X119647353Y-74212143D01*
X119700870Y-74200000D01*
X119800000Y-74200000D01*
X119800000Y-73574886D01*
X120380000Y-73574886D01*
X120380000Y-73910000D01*
X121550000Y-73910000D01*
X122050000Y-73910000D01*
X123219999Y-73910000D01*
X123219999Y-73574892D01*
X123209520Y-73502964D01*
X123155287Y-73392027D01*
X123067972Y-73304712D01*
X122957035Y-73250480D01*
X122957028Y-73250477D01*
X122885114Y-73240000D01*
X122050000Y-73240000D01*
X122050000Y-73910000D01*
X121550000Y-73910000D01*
X121550000Y-73240000D01*
X120714892Y-73240000D01*
X120642964Y-73250479D01*
X120532027Y-73304712D01*
X120444712Y-73392027D01*
X120390480Y-73502964D01*
X120390477Y-73502971D01*
X120380000Y-73574886D01*
X119800000Y-73574886D01*
X119800000Y-72924000D01*
X119819685Y-72856961D01*
X119872489Y-72811206D01*
X119924000Y-72800000D01*
X122867124Y-72800000D01*
X122934163Y-72819685D01*
G37*
%TD.AperFunction*%
%TD*%
%TA.AperFunction,Conductor*%
%TO.N,/DIN41612 connector/5v_STDBY*%
G36*
X116242968Y-124919685D02*
G01*
X116288723Y-124972489D01*
X116298667Y-125041647D01*
X116269642Y-125105203D01*
X116226015Y-125137434D01*
X116132586Y-125178686D01*
X116055789Y-125255483D01*
X116011920Y-125354835D01*
X116011920Y-125354837D01*
X116009102Y-125379125D01*
X116009102Y-125745865D01*
X116009104Y-125745888D01*
X116011919Y-125770159D01*
X116011920Y-125770162D01*
X116055788Y-125869515D01*
X116055789Y-125869516D01*
X116132586Y-125946313D01*
X116231940Y-125990182D01*
X116256229Y-125993000D01*
X116476000Y-125992999D01*
X116543039Y-126012683D01*
X116588794Y-126065487D01*
X116600000Y-126116999D01*
X116600000Y-128112809D01*
X116599402Y-128124219D01*
X116599402Y-128125765D01*
X116600000Y-128137189D01*
X116600000Y-130652809D01*
X116599402Y-130664219D01*
X116599402Y-130665765D01*
X116600000Y-130677189D01*
X116600000Y-133192809D01*
X116599402Y-133204219D01*
X116599402Y-133205765D01*
X116600000Y-133217189D01*
X116600000Y-134476000D01*
X116580315Y-134543039D01*
X116527511Y-134588794D01*
X116476000Y-134600000D01*
X113524000Y-134600000D01*
X113456961Y-134580315D01*
X113411206Y-134527511D01*
X113400000Y-134476000D01*
X113400000Y-126707842D01*
X113419685Y-126640803D01*
X113472489Y-126595048D01*
X113497278Y-126588136D01*
X113497115Y-126587535D01*
X113506112Y-126585085D01*
X113506119Y-126585085D01*
X113608893Y-126539706D01*
X113688334Y-126460265D01*
X113733713Y-126357491D01*
X113736628Y-126332365D01*
X113736628Y-126038821D01*
X113756313Y-125971782D01*
X113809117Y-125926027D01*
X113813123Y-125924282D01*
X113841897Y-125912364D01*
X114767441Y-124986818D01*
X114828764Y-124953334D01*
X114855122Y-124950500D01*
X115549826Y-124950500D01*
X115549828Y-124950500D01*
X115641897Y-124912364D01*
X115641897Y-124912363D01*
X115648958Y-124909439D01*
X115696411Y-124900000D01*
X116175929Y-124900000D01*
X116242968Y-124919685D01*
G37*
%TD.AperFunction*%
%TD*%
M02*
